<svg width="328" height="313" viewBox="0 0 328 313" fill="none" xmlns="http://www.w3.org/2000/svg">
<path d="M136.292 275.138L146.002 271.22V68.6759L136.292 66.4341V275.138Z" fill="white"/>
<path d="M135.699 66.5413V65.6909V55.7603L129.621 60.7375V90.5354V98.2539V271.761L135.699 275.079V66.5413Z" fill="#6071AD"/>
<path d="M140.304 63.8478L149.183 65.6971V43.8318L140.304 41.9111V63.8478Z" fill="white"/>
<path d="M136.292 41.8394V54.5054V65.5837L139.711 63.9068V41.8394H136.292Z" fill="#6071AD"/>
<path d="M261.255 85.9686L262.062 219.884L268.442 217.38V87.259L261.439 85.8794L261.255 85.9686Z" fill="white"/>
<path d="M260.625 86.2777V79.9565L254.334 83.8396V217.82L261.468 219.919L260.667 86.2539L260.625 86.2777Z" fill="#6071AD"/>
<path d="M264.032 84.1844L271.32 85.4451V70.7691L264.032 68.8306V84.1844Z" fill="white"/>
<path d="M261.219 85.3265L263.439 84.2502V68.7417H261.219V85.3265Z" fill="#6071AD"/>
<path d="M233.419 30.4223L233.573 30.3747L131.283 0.035679L131.164 0L105.424 15.895L105.305 15.9723L104.712 16.3291L0.136506 83.251L0 83.3402V85.5761L7.28823 81.0686V88.7991L22.8321 89.9884L22.9923 91.4512L28.4882 91.8497L27.8472 185.59L25.0577 186.363V187.315L7.91141 190.437L7.98263 190.526V193.232H8.12507V193.339L7.78084 193.63L8.15474 194.088L8.40402 200.189L101.062 312.001L101.887 313L101.667 305.947L293.963 215.008L294.129 214.924V214.669L315.982 220.615L316.136 220.021L294.111 214.074V212.397L294.639 212.159L282.579 208.223L282.49 208.502L282.371 208.229L278.543 209.834L269.047 207.247V87.1281L271.866 86.1945H271.926V84.0419L283.914 86.1826L292.36 81.4671V70.805L327.555 66.5592H327.585L327.679 66.2856H327.816L327.988 62.4204L233.419 30.4223ZM232.826 30.8623L279.831 46.7573V50.0993L232.826 34.5254V30.8623ZM279.018 50.4561L242.642 58.6979L192.099 46.906L232.547 35.0844L279.018 50.4561ZM197.471 44.7117L190.942 46.6325L143.658 35.6017L149.64 32.0338L197.471 44.7117ZM150.044 31.5521V28.3945L198.278 41.239V44.3133L150.044 31.5521ZM232.256 34.5254L198.871 44.3014V41.233L232.256 30.791V34.5254ZM231.069 30.2617L231.443 30.3688L230.737 30.5947L231.069 30.2617ZM229.443 29.7801L227.662 31.564L225.828 32.1587L228.499 29.4828L229.443 29.7801ZM226.843 29.007L222.76 33.0982L220.926 33.6929L225.876 28.7394L226.843 29.007ZM224.25 28.2399L217.858 34.6384L216.024 35.233L223.276 27.9486L224.25 28.2399ZM221.65 27.4669L212.949 36.1785L211.115 36.7732L220.683 27.1755L221.65 27.4669ZM219.056 26.6998L208.047 37.7246L206.213 38.3193L218.083 26.4262L219.056 26.6998ZM216.463 25.9267L203.145 39.2469L201.311 39.8416L215.489 25.6354L216.463 25.9267ZM213.863 25.1596L198.391 40.6562L197.399 40.3886L212.89 24.8623L213.863 25.1596ZM211.287 24.3807L195.732 39.9486L194.741 39.681L210.296 24.0952L211.287 24.3807ZM208.688 23.6136L193.073 39.2469L192.082 38.9793L207.726 23.3222L208.688 23.6136ZM206.094 22.8405L190.414 38.5333L189.423 38.2657L205.103 22.5551L206.094 22.8405ZM203.495 22.0734L187.761 37.8257L186.764 37.5581L202.509 21.782L203.495 22.0734ZM200.901 21.3004L185.102 37.1121L184.105 36.8683L199.91 21.0328L200.901 21.3004ZM198.307 20.5333L182.443 36.4045L181.446 36.1428L197.316 20.2181L198.307 20.5333ZM195.708 19.7602L179.784 35.679L178.787 35.4174L194.717 19.457L195.708 19.7602ZM193.114 18.9931L177.143 34.9892L176.146 34.7276L192.141 18.7017L193.114 18.9931ZM190.515 18.2201L174.49 34.2756L173.499 34.014L189.524 17.9584L190.515 18.2201ZM187.921 17.453L171.808 33.5739L170.816 33.3004L186.954 17.1616L187.921 17.453ZM185.322 16.6799L169.149 32.8663L168.157 32.6047L184.336 16.3945L185.322 16.6799ZM182.728 15.9128L166.496 32.1587L165.499 31.897L181.737 15.6215L182.728 15.9128ZM180.134 15.1398L163.837 31.451L162.84 31.1894L179.143 14.8663L180.134 15.1398ZM177.535 14.3727L161.178 30.7434L160.181 30.4758L176.544 14.0813L177.535 14.3727ZM174.941 13.5996L158.519 30.0358L157.522 29.7682L173.95 13.3142L174.941 13.5996ZM172.342 12.8325L155.86 29.3281L154.863 29.0605L171.351 12.5412L172.342 12.8325ZM169.742 12.0595L153.201 28.6205L152.21 28.3529L168.757 11.7741L169.742 12.0595ZM167.131 11.2984L150.513 27.9486L149.563 27.6453L166.181 10.9951L167.131 11.2984ZM164.537 10.5253L147.883 27.2052L146.892 26.9376L163.564 10.2339L164.537 10.5253ZM161.938 9.75821L145.224 26.4976L144.221 26.23L160.958 9.46088L161.938 9.75821ZM159.344 8.98516L142.572 25.79L141.574 25.5224L158.371 8.69378L159.344 8.98516ZM156.75 8.21806L139.913 25.0823L138.916 24.8147L155.777 7.92074L156.75 8.21806ZM154.151 7.44502L137.254 24.3807L136.257 24.1131L153.177 7.1358L154.151 7.44502ZM151.557 6.67792L134.595 23.6671L133.598 23.3995L150.584 6.3806L151.557 6.67792ZM148.969 5.89893L131.936 22.9594L130.939 22.6918L147.99 5.6135L148.969 5.89893ZM146.376 5.13183L129.277 22.2459L128.286 22.0021L145.408 4.84045L146.376 5.13183ZM143.776 4.35879L126.618 21.5382L125.627 21.2766L142.797 4.07335L143.776 4.35879ZM141.171 3.5679L123.959 20.8128L122.968 20.5511L140.18 3.30625L141.171 3.5679ZM138.577 2.79486L121.306 20.0992L120.309 19.8375L137.604 2.53321L138.577 2.79486ZM135.978 2.02776L118.647 19.3915L117.65 19.1299L135.004 1.78395L135.978 2.02776ZM132.417 0.96928L133.39 1.25471L115.988 18.7077L114.991 18.4342L132.417 0.96928ZM129.704 1.56393L113.359 18.0001L112.362 17.7384L126.416 3.62737L129.704 1.56393ZM120.926 6.98714L110.671 17.2924L109.674 17.0308L117.638 9.05057L120.926 6.98714ZM108.86 14.4738L112.172 12.446L108.018 16.6086L107.027 16.3469L108.86 14.4738ZM105.762 16.6026L149.45 28.234V31.3916L105.762 19.8375V16.6026ZM105.507 20.3846L148.833 31.8435L142.821 35.4114L97.9816 24.9753L105.507 20.3846ZM0.593504 84.5057V83.6673L105.169 16.7632V19.897L97.489 24.5472L97.0616 24.8147L86.6516 31.2726L11.5555 77.7267H11.33V77.8813L0.593504 84.5057ZM146.002 68.6761V271.22L136.292 275.145V66.4224L146.002 68.6761ZM136.292 65.584V41.8396H139.711V63.9011L136.292 65.584ZM270.792 220.056L270.881 220.015V221.947L264.151 224.879L270.792 220.056ZM262.062 225.658V223.927L268.193 221.21L262.062 225.658ZM270.495 219.539L261.735 223.416L251.052 220.223L254.085 218.361L261.48 220.538V220.752L261.789 220.633L262.074 220.716V220.52L268.703 217.921L270.691 219.402L270.495 219.539ZM150.382 274.247V273.955L150.133 274.056L146.572 271.416V265.707L250.031 222.399V222.875L261.438 226.443L150.382 276.512V274.592L150.691 274.473L150.382 274.247ZM149.789 274.931V276.714L140.69 280.699L149.789 274.931ZM137.568 281.995V279.753L147.189 275.918L137.568 281.995ZM150.851 91.0528V95.6495L146.595 95.4473V90.3868L150.851 91.0528ZM146.595 89.7922V77.7208L188.42 69.1043L240.897 78.6484L151.154 90.5117L146.595 89.7922ZM149.729 96.1965L146.595 97.3858V96.0241L149.729 96.1965ZM151.444 96.1965V91.0885L242.844 79.0171L245.283 79.4631V82.3353L253.77 84.2143V203.055L236.025 198.227L235.431 105.99V105.693L198.04 106.288L197.702 106.181V106.294V186.72L155.296 174.827V173.376L155.023 173.424L146.595 170.611V98.0637L151.444 96.1965ZM235.378 193.802L205.703 185.174V109.059L234.832 108.761L235.378 193.802ZM205.109 109.243V185.162L198.23 186.75V107.037L205.109 109.243ZM153.718 173.638L146.595 174.827V171.259L153.718 173.638ZM154.643 174.09V174.827L146.595 176.207V175.422L154.643 174.09ZM154.928 175.374L197.661 187.345V187.487L197.951 187.422L198.254 187.505V187.35L205.406 185.697L235.378 194.451L235.407 198.482V198.708L253.741 203.697V217.898L250.031 220.175V221.775L146.595 265.077V176.807L154.928 175.374ZM250.625 222.429V220.71L261.468 223.951V225.83L250.625 222.429ZM268.43 217.374L262.05 219.878L261.243 85.9626L261.427 85.8734L268.43 87.253V217.374ZM263.427 84.2441L261.207 85.3204V68.7415H263.427V84.2441ZM261.456 219.914L254.334 217.814V83.8457L260.625 79.9626V86.2778H260.667L261.456 219.914ZM260.614 78.0776L253.735 76.8883V74.3313L260.614 75.693V78.0776ZM260.614 78.6722V79.2669L253.729 83.5186V83.6019L246.304 81.9487L253.497 77.4353L260.614 78.6722ZM253.141 76.9418L245.835 81.5325V79.3501L253.141 74.801V76.9418ZM245.479 78.8684L151.011 61.7068L155.166 58.3173H155.231V54.8565L252.999 74.2064L245.479 78.8684ZM154.643 58.2162L149.777 57.2648V53.7742L154.643 54.7375V58.2162ZM153.812 58.6563L149.777 61.9447V57.8654L153.812 58.6563ZM150.406 62.2242L186.853 68.8486L146.595 77.1737V68.5513L149.682 66.464H149.777V62.7475L150.406 62.2242ZM149.183 65.7207L140.281 63.8714V41.9109L149.183 43.8317V65.7207ZM146.115 271.815L149.486 274.324L137.349 279.176L127.52 273.396L129.514 272.379L135.699 275.757V276.025L135.978 275.912L136.292 276.084V275.781L146.115 271.815ZM93.4057 287.656V295.702L13.799 199.63L129.028 179.828V271.963L126.915 273.04L126.606 272.861V273.182L93.2395 287.454L93.4057 287.656ZM31.6219 194.326L34.6903 193.82L41.8776 192.631L129.028 178.3V179.216L13.7574 199.029L13.799 197.245L31.242 194.373V194.451L31.6219 194.326ZM86.426 49.5225L99.3169 52.1687L35.2897 79.8437L12.5467 77.8159L86.5091 32.0635L86.0581 49.7187L86.426 49.5225ZM125.722 67.5522V60.5532L129.028 60.8684V65.8813L125.722 67.5522ZM129.028 66.5473V68.4442L126.327 67.915L129.028 66.5473ZM129.028 69.0508V80.7356L103.715 85.9507L70.0394 82.9775L125.128 66.7257V68.3134L129.028 69.0508ZM129.028 81.3422V88.2104L105.768 86.1351L129.028 81.3422ZM125.128 66.0775L68.4251 82.7991L36.5302 79.9567L100.332 52.3768L117.514 55.8971L117.674 59.8456L117.769 59.7802L125.117 60.4819L125.128 66.0775ZM129.028 88.805V90.4879L123.858 90.0954H123.823L120.754 90.5533V93.7406L41.5097 87.8596V83.923L35.3076 83.6019L32.7317 84.2798V87.3065L11.9235 85.8258V78.357L129.028 88.805ZM129.028 176.129V177.705L122.796 178.728L129.028 176.129ZM121.443 178.651V177.253L127.71 176.016L121.443 178.651ZM121.164 176.7L113.733 174.322L115.953 173.186L121.977 175.095V174.922L126.873 173.858L129.028 174.827V175.154L121.164 176.7ZM41.5097 92.5276V91.0528L108.421 96.2501V98.2302L114.902 99.0806L115.567 167.025L39.4977 176.76V93.8179L41.5097 92.5276ZM40.9162 92.0637L35.634 91.927V84.1965L40.9162 84.47V92.0637ZM121.449 96.928L121.484 96.6306H121.348V91.0647L123.538 90.7377V97.9686L121.348 99.3066V97.2729L121.532 97.2193L121.449 96.928ZM122.102 99.5325L123.918 98.4205H128.666L127.603 99.5444L122.102 99.5325ZM126.606 100.127V173.269L121.965 174.28L121.372 100.133L126.606 100.127ZM121.372 174.232L116.22 172.597L115.496 99.039L120.754 97.4572V100.139L121.372 174.232ZM120.778 96.5355L116.368 95.9765V94.0142L120.778 94.3412V96.5355ZM120.042 97.0409L115.193 98.4978L110.392 97.8854L116.083 96.5593L120.042 97.0409ZM115.733 96.0182L108.997 97.594V96.1906L115.733 94.0974V96.0182ZM108.665 95.6733L41.5097 90.4582V88.4542L114.469 93.8715L108.665 95.6733ZM115.555 167.626L115.609 172.663L112.641 174.179V174.952L39.4977 185.471V177.36L115.555 167.626ZM113.241 174.762L120.849 177.206V178.871L113.258 176.653L113.241 174.762ZM127.182 173.329V100.139H127.864L129.01 98.8963V174.191L127.182 173.329ZM124.114 97.808V90.6722L129.01 91.0469V97.7962L124.114 97.808ZM35.0167 84.2857V92.0518L33.3015 93.1222V84.7376L35.0167 84.2857ZM27.8947 87.5622L32.6843 87.9071V89.1975L27.8947 89.138V87.5622ZM33.3193 93.9547H38.9042V188.843L32.6427 189.408L33.3193 93.9547ZM34.0671 93.3601L35.4203 92.5157L40.2396 92.6405L39.1178 93.3601H34.0671ZM39.4977 186.072L112.665 175.547V177.117L119.84 179.216L41.8776 192.036V190.318L39.5036 188.326L39.4977 186.072ZM31.8593 193.612L31.8949 191.941L38.9576 191.079L31.8593 193.612ZM41.2841 190.883V192.137L34.7556 193.214L41.2841 190.883ZM126.606 273.836V276.429L136.838 282.637L101.685 297.92L94.1594 287.704L126.606 273.836ZM127.2 276.096V273.908L136.975 279.706V282.025L127.2 276.096ZM129.621 271.755V60.7376L135.699 55.7603V275.079L129.621 271.755ZM135.699 54.5056L127.17 52.8287L126.749 49.2132L135.699 50.9972V54.5056ZM126.968 53.3996L135.58 55.0884L129.235 60.2916L118.552 59.2688L126.968 53.3996ZM118.238 58.7514L118.113 55.7782L126.215 49.7246L126.588 52.912L118.238 58.7514ZM117.739 55.3441L87.2451 49.0824L97.6314 43.4511L126.12 49.0884L117.739 55.3441ZM86.6872 48.7018L87.1145 31.6889L96.9133 25.5997L97.2812 42.9635L86.6872 48.7018ZM7.88173 80.7L11.33 78.5652V85.9329L7.88173 88.0082V80.7ZM8.53459 88.3115L11.698 86.4086L26.8086 87.4849L23.0398 89.4473L8.53459 88.3115ZM23.4197 89.917L27.3487 87.8655V89.1975L23.5146 90.7614L23.4197 89.917ZM24.5473 90.9993L27.7048 89.7089L31.7999 89.7624L28.7256 91.3026L24.5473 90.9993ZM29.0817 91.7902L32.7317 89.9646V93.6574L32.0492 188.813L28.4348 185.679L29.0817 91.7902ZM28.0668 186.125L32.6368 190.086V189.985L39.4977 189.39V189.099L40.8627 190.246L31.699 191.37L25.9895 186.72L28.0668 186.125ZM25.6512 187.196L31.3073 191.798L31.2658 193.428L25.6512 189.123V187.196ZM25.0577 187.88V189.42L30.8266 193.856L13.615 196.681L8.97378 190.829L25.0577 187.88ZM8.54646 193.22V191.245L13.1877 197.103L13.1461 198.887L8.46337 193.237L8.54646 193.22ZM9.13996 197.317L10.0065 196.455L10.6 197.144L9.21712 198.53L9.13996 197.317ZM9.58509 200.248L11.5318 198.298L12.1253 198.988L10.1786 200.938L9.58509 200.248ZM11.1104 202.086L13.0571 200.135L13.6506 200.825L11.692 202.776L11.1104 202.086ZM12.6357 203.929L14.5824 201.979L15.1759 202.669L13.2292 204.619L12.6357 203.929ZM14.1669 205.773L16.1136 203.822L16.7071 204.512L14.7604 206.463L14.1669 205.773ZM15.6922 207.616L17.6389 205.666L18.2324 206.355L16.2857 208.3L15.6922 207.616ZM17.2116 209.454L19.1702 207.533L19.7637 208.217L17.8051 210.143L17.2116 209.454ZM18.7369 211.297L20.6836 209.347L21.2771 210.036L19.3364 211.987L18.7369 211.297ZM20.2622 213.14L22.2089 211.19L22.8024 211.88L20.8617 213.83L20.2622 213.14ZM21.7935 214.978L23.7402 213.033L24.3337 213.723L22.387 215.668L21.7935 214.978ZM23.3188 216.821L25.2655 214.877L25.859 215.561L23.9123 217.511L23.3188 216.821ZM24.8441 218.665L26.7908 216.714L27.3843 217.404L25.4376 219.355L24.8441 218.665ZM26.3694 220.508L28.3161 218.558L28.9096 219.247L26.9569 221.21L26.3694 220.508ZM27.8947 222.346L29.8354 220.401L30.4289 221.091L28.4882 223.035L27.8947 222.346ZM29.4378 224.183L31.3786 222.239L31.9721 222.928L30.0313 224.873L29.4378 224.183ZM30.9631 226.027L32.9039 224.076L33.4974 224.766L31.5507 226.716L30.9631 226.027ZM32.4884 227.87L34.4232 225.925L35.0167 226.615L33.07 228.56L32.4884 227.87ZM34.0137 229.707L35.9604 227.751L36.5539 228.441L34.6132 230.385L34.0137 229.707ZM35.545 231.551L37.4857 229.606L38.0792 230.296L36.1385 232.241L35.545 231.551ZM37.0703 233.394L39.011 231.45L39.6045 232.134L37.6638 234.084L37.0703 233.394ZM38.5778 235.238L40.5185 233.293L41.112 233.983L39.1713 235.927L38.5778 235.238ZM40.1031 237.081L42.0438 235.137L42.6373 235.826L40.6966 237.771L40.1031 237.081ZM41.6284 238.924L43.5691 236.98L44.1626 237.67L42.2219 239.644L41.6284 238.924ZM43.1596 240.768L45.1063 238.823L45.6998 239.507L43.759 241.458L43.1596 240.768ZM44.7027 242.617L46.6435 240.673L47.237 241.363L45.2962 243.307L44.7027 242.617ZM46.228 244.461L48.1688 242.516L48.7623 243.206L46.8215 245.15L46.228 244.461ZM47.7533 246.304L49.6941 244.36L50.2876 245.049L48.3468 246.994L47.7533 246.304ZM49.2608 248.13L51.2194 246.185L51.8129 246.875L49.8543 248.819L49.2608 248.13ZM50.7921 249.973L52.7269 248.029L53.3204 248.718L51.3796 250.663L50.7921 249.973ZM52.3174 251.816L54.2581 249.872L54.8516 250.562L52.9109 252.506L52.3174 251.816ZM53.8427 253.66L55.7894 251.715L56.3829 252.405L54.4421 254.35L53.8427 253.66ZM55.368 255.497L57.3087 253.559L57.9022 254.249L55.9615 256.187L55.368 255.497ZM56.8933 257.341L58.834 255.402L59.4275 256.086L57.4927 258.031L56.8933 257.341ZM58.4245 259.184L60.3594 257.24L60.9529 257.929L59.0121 259.862L58.4245 259.184ZM59.9439 261.051L61.8787 259.107L62.4722 259.797L60.5374 261.711L59.9439 261.051ZM61.4692 262.889L63.404 260.95L63.9975 261.64L62.0568 263.579L61.4692 262.889ZM62.9945 264.732L64.9353 262.794L65.5288 263.484L63.588 265.422L62.9945 264.732ZM64.5198 266.576L66.4724 264.619L67.0659 265.309L65.1311 267.254L64.5198 266.576ZM66.0511 268.413L67.9859 266.475L68.5794 267.164L66.6446 269.103L66.0511 268.413ZM67.5764 270.257L69.5112 268.318L70.1047 269.008L68.1699 270.946L67.5764 270.257ZM69.1017 272.1L71.0365 270.161L71.63 270.851L69.6952 272.79L69.1017 272.1ZM70.627 273.943L72.5618 271.999L73.1553 272.689L71.2205 274.609L70.627 273.943ZM72.1523 275.781L74.093 273.842L74.6865 274.532L72.7517 276.471L72.1523 275.781ZM73.6835 277.624L75.6183 275.686L76.2118 276.376L74.277 278.296L73.6835 277.624ZM75.2088 279.468L77.1436 277.529L77.7371 278.219L75.8023 280.157L75.2088 279.468ZM76.7341 281.311L78.669 279.373L79.2625 280.056L77.3276 281.995L76.7341 281.311ZM78.2594 283.149L80.1943 281.21L80.7878 281.9L78.8529 283.838L78.2594 283.149ZM79.7847 284.992L81.7196 283.053L82.3131 283.743L80.3782 285.682L79.7847 284.992ZM81.316 286.835L83.2508 284.897L83.8443 285.587L81.9035 287.501L81.316 286.835ZM82.8413 288.673L84.7761 286.74L85.3696 287.43L83.4348 289.363L82.8413 288.673ZM84.3666 290.516L86.3014 288.578L86.8949 289.268L84.9601 291.206L84.3666 290.516ZM85.8919 292.36L87.8267 290.421L88.4202 291.111L86.4913 293.05L85.8919 292.36ZM87.4172 294.203L89.352 292.265L89.9455 292.954L88.0166 294.893L87.4172 294.203ZM88.9484 296.041L90.8773 294.108L91.4708 294.798L89.5419 296.73L88.9484 296.041ZM90.4737 297.884L92.4026 295.951L92.9961 296.635L91.0613 298.574L90.4737 297.884ZM91.999 299.727L93.9339 297.789L94.5274 298.479L92.5866 300.393L91.999 299.727ZM93.5244 301.571L95.4592 299.632L96.0527 300.322L94.1238 302.255L93.5244 301.571ZM95.0556 303.408L96.9845 301.476L97.578 302.166L95.6491 304.098L95.0556 303.408ZM96.5809 305.252L98.5217 303.272L99.1152 303.955L97.1863 305.894L96.5809 305.252ZM98.676 307.785L98.0825 307.095L100.011 305.157L100.605 305.846L98.676 307.785ZM100.943 304.859L93.9754 296.445V288.459L101.264 298.354L100.943 304.859ZM293.517 214.55L101.537 305.353L101.875 298.461L137.396 283.053L137.461 283.024L137.568 283.095V282.976L293.517 212.635V214.55ZM282.508 208.794L293.001 212.219L271.475 221.923V219.753L271.641 219.676L271.475 219.307V219.259H271.445L271.403 219.158H271.344L269.035 217.434V214.461L282.508 208.794ZM277.659 210.179L269.041 213.789V207.842L277.659 210.179ZM271.32 85.4453L264.032 84.1846V68.8307L271.32 70.7634V85.4453ZM283.784 85.4869L271.914 83.3699V83.251L275.012 80.8308H275.226V80.6524L275.285 78.143L291.452 81.2827L283.784 85.4869ZM273.807 81.0032L271.896 82.4958V80.6702L273.807 81.0032ZM271.896 80.0637V77.477L274.686 78.0181L274.62 80.5454L271.896 80.0637ZM291.761 80.7356L271.896 76.8704V70.3293L264.014 68.2302V68.1647H263.759L263.421 68.0755V68.1647H260.608V75.1281L149.777 53.1677V43.3559L140.281 41.3044V41.2449H140.067L139.741 41.1736V41.2449H135.728V50.3788L97.8747 42.8921L97.5068 25.4451L291.778 70.7634L291.761 80.7356ZM292.069 70.2401L243.966 59.0071L280.134 50.8188L326.297 66.1132L292.069 70.2401ZM327.234 65.8099L280.448 50.2955V46.9774L327.389 62.8486L327.234 65.8099Z" fill="#00229A"/>
<path d="M205.097 185.162V109.243L198.236 107.007V186.75L205.097 185.162Z" fill="white"/>
</svg>
