<svg width="328" height="328" viewBox="0 0 328 328" fill="none" xmlns="http://www.w3.org/2000/svg">
<path d="M75.4021 209.846H64.1862C60.6088 209.856 57.1811 211.284 54.6538 213.816C52.1264 216.348 50.7056 219.778 50.7023 223.355V224.527C50.7056 228.109 52.1299 231.543 54.6626 234.075C57.1953 236.608 60.6294 238.032 64.2112 238.036H75.427L75.4021 209.846Z" fill="#D9DEEE"/>
<path d="M75.4021 177.807H64.1862C60.6152 177.816 57.1932 179.239 54.6669 181.762C52.1407 184.286 50.7154 187.707 50.7023 191.278V192.462C50.7089 196.043 52.1342 199.475 54.6662 202.007C57.1982 204.539 60.6304 205.964 64.2112 205.971H75.427L75.4021 177.807Z" fill="#D9DEEE"/>
<path d="M75.4021 146.028H64.1862C60.6098 146.041 57.184 147.47 54.6574 150.001C52.1308 152.532 50.7088 155.961 50.7023 159.537V160.783C50.7089 164.363 52.1346 167.794 54.667 170.324C57.1993 172.854 60.6315 174.276 64.2112 174.28H75.427L75.4021 146.028Z" fill="#D9DEEE"/>
<path d="M75.4021 113.963H64.1862C60.6088 113.973 57.1811 115.4 54.6538 117.932C52.1264 120.464 50.7056 123.895 50.7023 127.472V128.644C50.7056 132.225 52.1299 135.66 54.6626 138.192C57.1953 140.725 60.6294 142.149 64.2112 142.153H75.427L75.4021 113.963Z" fill="#D9DEEE"/>
<path d="M75.4021 88.9519H76.6483V81.7239H64.1862C60.6088 81.7338 57.1811 83.161 54.6538 85.693C52.1264 88.2249 50.7056 91.6553 50.7023 95.2328V96.4042C50.7056 99.986 52.1299 103.42 54.6626 105.953C57.1953 108.485 60.6294 109.91 64.2112 109.913H75.427L75.4021 88.9519Z" fill="#D9DEEE"/>
<path d="M252.314 238.036H263.53C267.111 238.032 270.545 236.608 273.078 234.075C275.611 231.543 277.035 228.109 277.038 224.527V223.355C277.035 219.774 275.611 216.339 273.078 213.807C270.545 211.274 267.111 209.85 263.53 209.846H252.314V238.036Z" fill="#D9DEEE"/>
<path d="M252.314 205.971H263.529C267.11 205.964 270.542 204.539 273.074 202.007C275.606 199.475 277.032 196.043 277.038 192.462V191.278C277.025 187.699 275.593 184.27 273.056 181.745C270.519 179.22 267.084 177.803 263.504 177.807H252.289L252.314 205.971Z" fill="#D9DEEE"/>
<path d="M252.314 174.217H263.529C267.109 174.214 270.541 172.791 273.074 170.261C275.606 167.731 277.032 164.3 277.038 160.721V159.475C277.015 155.9 275.579 152.48 273.044 149.961C270.508 147.442 267.079 146.028 263.504 146.028H252.289L252.314 174.217Z" fill="#D9DEEE"/>
<path d="M252.314 142.153H263.529C267.107 142.143 270.535 140.715 273.062 138.184C275.589 135.652 277.01 132.221 277.013 128.644V127.472C277.01 123.891 275.586 120.456 273.053 117.924C270.52 115.391 267.086 113.967 263.504 113.963H252.289L252.314 142.153Z" fill="#D9DEEE"/>
<path d="M249.821 88.9519V80.4776V73.3867H77.8944V80.4776V88.9519H249.821Z" fill="white"/>
<path d="M249.809 45.7583H77.8944V54.0954H249.809V45.7583Z" fill="white"/>
<path d="M249.809 55.3416H77.8944V72.1404H249.809V55.3416Z" fill="white"/>
<path d="M252.314 239.282H263.529C267.442 239.278 271.193 237.723 273.959 234.956C276.726 232.19 278.281 228.439 278.285 224.527V223.355C278.281 219.443 276.726 215.692 273.959 212.925C271.193 210.159 267.442 208.603 263.529 208.6H252.314V207.217H263.529C267.442 207.214 271.193 205.658 273.959 202.892C276.726 200.125 278.281 196.374 278.285 192.462V191.278C278.271 187.368 276.708 183.622 273.937 180.863C271.167 178.104 267.415 176.557 263.505 176.56H252.289V175.488H263.505C267.415 175.485 271.164 173.931 273.93 171.168C276.696 168.404 278.253 164.656 278.26 160.746V159.5C278.246 155.594 276.686 151.852 273.921 149.094C271.156 146.336 267.41 144.785 263.505 144.782H252.289V143.399H263.505C267.417 143.395 271.168 141.84 273.934 139.073C276.701 136.307 278.256 132.556 278.26 128.643V127.472C278.256 123.56 276.701 119.809 273.934 117.042C271.168 114.276 267.417 112.72 263.505 112.717H252.289V111.159H263.505C267.417 111.156 271.168 109.6 273.934 106.834C276.701 104.067 278.256 100.316 278.26 96.4041V95.2327C278.256 91.3204 276.701 87.5693 273.934 84.8029C271.168 82.0365 267.417 80.4809 263.505 80.4776H251.042V44.4622H76.5735V80.4776H64.1114C60.2164 80.5071 56.4909 82.0743 53.746 84.8379C51.0011 87.6015 49.4592 91.3376 49.456 95.2327V96.4041C49.4593 100.316 51.0149 104.067 53.7813 106.834C56.5477 109.6 60.2988 111.156 64.2111 111.159H75.427V112.717H64.2111C60.2988 112.72 56.5477 114.276 53.7813 117.042C51.0149 119.809 49.4593 123.56 49.456 127.472V128.643C49.4593 132.556 51.0149 136.307 53.7813 139.073C56.5477 141.84 60.2988 143.395 64.2111 143.399H75.427V144.782H64.2111C60.2988 144.785 56.5477 146.341 53.7813 149.107C51.0149 151.874 49.4593 155.625 49.456 159.537V160.783C49.4626 164.693 51.0197 168.441 53.7857 171.205C56.5518 173.969 60.301 175.523 64.2111 175.526H75.427V176.56H64.2111C60.3053 176.563 56.5598 178.114 53.7945 180.872C51.0292 183.631 49.4692 187.372 49.456 191.278V192.462C49.4593 196.374 51.0149 200.125 53.7813 202.892C56.5477 205.658 60.2988 207.214 64.2111 207.217H75.427V208.6H64.2111C60.2988 208.603 56.5477 210.159 53.7813 212.925C51.0149 215.692 49.4593 219.443 49.456 223.355V224.527C49.4593 228.439 51.0149 232.19 53.7813 234.956C56.5477 237.723 60.2988 239.278 64.2111 239.282H75.427V240.64H35V250.921H65.5072V295.349H262.321V250.921H292.965V240.64H252.339L252.314 239.282ZM256.414 241.886H259.056L253.286 247.656V245.014L256.414 241.886ZM263.48 241.886H266.122L253.286 254.722V252.08L263.48 241.886ZM279.531 249.675H276.876L284.678 241.886H287.32L279.531 249.675ZM291.694 241.936V244.578L286.584 249.675H283.942L291.694 241.936ZM272.465 249.675H269.823L277.612 241.886H280.254L272.465 249.675ZM265.399 249.675H262.757L270.546 241.886H273.188L265.399 249.675ZM261.074 251.333V253.987L253.286 261.776V259.134L261.074 251.333ZM261.074 258.399V261.053L253.286 268.842V266.187L261.074 258.399ZM261.074 265.465V268.107L253.286 275.895V273.266L261.074 265.465ZM261.074 272.531V275.173L253.286 282.961V280.319L261.074 272.531ZM249.235 294.09H246.594L261.074 279.597V282.239L249.235 294.09ZM261.074 286.613V289.255L256.301 294.04H253.66L261.074 286.613ZM242.169 294.09H239.528L247.316 286.301H249.958L242.169 294.09ZM66.7534 254.922L74.5422 247.133V249.775L66.7534 257.564V254.922ZM79.1407 242.086H81.01V240.84H79.1407V113.963H81.01V112.717H79.1407V92.6904H248.625V112.717H246.756V113.963H248.625V240.84H246.756V242.086H248.625V262.112H79.1407V242.086ZM50.7022 128.681V127.509C50.6989 125.733 51.0458 123.973 51.7231 122.33C52.4004 120.688 53.3947 119.195 54.6493 117.937C55.9039 116.679 57.3941 115.68 59.0348 114.998C60.6754 114.317 62.4344 113.965 64.2111 113.963H75.427V142.152H64.2111C60.6293 142.149 57.1952 140.725 54.6625 138.192C52.1298 135.659 50.7055 132.225 50.7022 128.643V128.681ZM50.7022 96.4415V95.27C50.6989 93.4933 51.0458 91.7334 51.7231 90.0909C52.4004 88.4483 53.3947 86.9553 54.6493 85.6973C55.9039 84.4392 57.3941 83.4408 59.0348 82.759C60.6754 82.0772 62.4344 81.7254 64.2111 81.7238H76.6732V88.9518H75.427V109.913H64.2111C60.6293 109.91 57.1952 108.485 54.6625 105.953C52.1298 103.42 50.7055 99.9859 50.7022 96.4041V96.4415ZM249.821 45.7084V54.0455H77.8446V45.7084H249.821ZM77.8446 72.0906V55.3415H249.821V72.1404L77.8446 72.0906ZM77.8446 73.3368H249.821V88.9518H77.8446V73.3866V73.3368ZM248.575 272.593H79.0908V265.801H248.575V272.593ZM66.7534 261.938L74.5422 254.149V256.791L66.7534 264.58V261.938ZM66.7534 269.004L74.5422 261.302V263.944L66.7534 271.733V269.004ZM66.7534 276.07L74.5422 268.281V270.923L66.7534 278.749V276.07ZM66.7534 283.136L74.5422 275.347V277.989L66.7534 285.778V283.136ZM66.7534 290.202L74.5422 282.488V285.142L66.7534 292.931V290.202ZM77.7449 286.264H80.3993L72.5981 294.053H69.9561L77.7449 286.264ZM84.8109 286.264H87.4529L79.6641 294.053H77.0221L84.8109 286.264ZM91.8769 286.264H94.5189L86.7301 294.053H84.0881L91.8769 286.264ZM98.9429 286.264H101.585L93.7961 294.053H91.1541L98.9429 286.264ZM106.009 286.264H108.651L100.862 294.053H98.2201L106.009 286.264ZM113.075 286.264H115.717L107.928 294.053H105.286L113.075 286.264ZM120.141 286.264H122.783L114.994 294.053H112.352L120.141 286.264ZM127.207 286.264H129.849L122.06 294.053H119.418L127.207 286.264ZM134.273 286.264H136.915L129.126 294.053H126.484L134.273 286.264ZM141.339 286.264H143.981L136.192 294.053H133.55L141.339 286.264ZM148.405 286.264H151.047L143.258 294.053H140.616L148.405 286.264ZM155.471 286.264H158.113L150.324 294.053H147.682L155.471 286.264ZM162.537 286.264H165.179L157.39 294.053H154.736L162.537 286.264ZM169.59 286.264H172.245L164.456 294.053H161.802L169.59 286.264ZM176.656 286.264H179.311L171.51 294.053H168.868L176.656 286.264ZM183.722 286.264H186.364L178.576 294.053H175.934L183.722 286.264ZM190.788 286.264H193.43L185.642 294.053H183L190.788 286.264ZM197.854 286.264H200.496L192.708 294.053H190.066L197.854 286.264ZM204.92 286.264H207.562L199.774 294.053H197.132L204.92 286.264ZM211.986 286.264H214.628L206.84 294.053H204.198L211.986 286.264ZM219.052 286.264H221.694L213.906 294.053H211.264L219.052 286.264ZM226.118 286.264H228.76L220.972 294.053H218.33L226.118 286.264ZM233.184 286.264H235.826L228.037 294.053H225.396L233.184 286.264ZM240.25 286.264H242.892L235.104 294.053H232.462L240.25 286.264ZM277.013 223.305V224.477C277.01 228.059 275.586 231.493 273.053 234.025C270.52 236.558 267.086 237.982 263.505 237.986H252.289V209.846H263.505C267.086 209.85 270.52 211.274 273.053 213.807C275.586 216.339 277.01 219.773 277.013 223.355V223.305ZM277.013 191.228V192.412C277.007 195.993 275.581 199.425 273.05 201.957C270.518 204.489 267.085 205.914 263.505 205.921H252.289V177.806H263.505C267.08 177.81 270.508 179.229 273.04 181.753C275.572 184.278 277 187.703 277.013 191.278V191.228ZM277.013 159.487V160.733C277.007 164.313 275.581 167.744 273.049 170.274C270.516 172.804 267.084 174.226 263.505 174.23H252.289V146.028H263.505C267.085 146.035 270.518 147.46 273.05 149.992C275.581 152.524 277.007 155.956 277.013 159.537V159.487ZM277.013 127.422V128.594C277.01 132.175 275.586 135.61 273.053 138.142C270.52 140.675 267.086 142.099 263.505 142.103H252.289V113.963H263.505C267.086 113.966 270.52 115.391 273.053 117.923C275.586 120.456 277.01 123.89 277.013 127.472V127.422ZM50.7022 160.721V159.475C50.7252 155.905 52.1578 152.488 54.688 149.97C57.2182 147.451 60.6411 146.035 64.2111 146.028H75.427V174.217H64.2111C60.6315 174.214 57.1992 172.791 54.6669 170.261C52.1346 167.731 50.7088 164.3 50.7022 160.721V160.721ZM50.7022 192.462V191.278C50.7154 187.703 52.1441 184.278 54.6757 181.753C57.2073 179.229 60.6358 177.81 64.2111 177.806H75.427V205.971H64.2111C60.6303 205.964 57.1981 204.539 54.6661 202.007C52.1342 199.475 50.7088 196.043 50.7022 192.462V192.462ZM50.7022 224.527V223.355C50.7055 219.773 52.1298 216.339 54.6625 213.807C57.1952 211.274 60.6293 209.85 64.2111 209.846H75.427V238.036H64.2111C60.6293 238.032 57.1952 236.608 54.6625 234.075C52.1298 231.543 50.7055 228.108 50.7022 224.527V224.527ZM37.3927 241.886H39.9848L36.2462 245.625V242.983L37.3927 241.886ZM44.4587 241.886H47.1007L39.3119 249.675H36.6699L44.4587 241.886ZM51.5247 241.886H54.1667L46.3779 249.675H43.7235L51.5247 241.886ZM58.5907 241.886H61.2327L53.4439 249.675H50.8019L58.5907 241.886ZM65.6567 241.886H68.2987L60.5099 249.675H57.8679L65.6567 241.886ZM64.909 249.675L72.6978 241.886H74.5172V242.709L66.7284 250.498V249.675H64.909ZM260.688 294.102L261.05 293.741V294.102H260.688ZM290.983 249.675L291.669 249.002V249.675H290.983Z" fill="#00229A"/>
<path d="M248.563 265.851H79.1406V272.642H248.563V265.851Z" fill="white"/>
<path d="M216.435 225.611H215.189V228.727H212.074V229.973H216.435V225.611Z" fill="#00229A"/>
<path d="M160.144 228.727H152.729V229.973H160.144V228.727Z" fill="#00229A"/>
<path d="M189.816 228.727H182.401V229.973H189.816V228.727Z" fill="#00229A"/>
<path d="M130.484 228.727H123.069V229.973H130.484V228.727Z" fill="#00229A"/>
<path d="M145.314 228.727H137.899V229.973H145.314V228.727Z" fill="#00229A"/>
<path d="M174.986 228.727H167.572V229.973H174.986V228.727Z" fill="#00229A"/>
<path d="M204.646 228.727H197.231V229.973H204.646V228.727Z" fill="#00229A"/>
<path d="M112.527 225.611H111.281V229.973H115.642V228.727H112.527V225.611Z" fill="#00229A"/>
<path d="M112.527 181.109H111.281V188.524H112.527V181.109Z" fill="#00229A"/>
<path d="M112.527 136.607H111.281V144.022H112.527V136.607Z" fill="#00229A"/>
<path d="M112.527 195.939H111.281V203.354H112.527V195.939Z" fill="#00229A"/>
<path d="M112.527 151.437H111.281V158.852H112.527V151.437Z" fill="#00229A"/>
<path d="M112.527 166.279H111.281V173.694H112.527V166.279Z" fill="#00229A"/>
<path d="M112.527 210.781H111.281V218.196H112.527V210.781Z" fill="#00229A"/>
<path d="M111.281 129.192H112.527V126.076H115.642V124.83H111.281V129.192Z" fill="#00229A"/>
<path d="M174.986 124.83H167.572V126.076H174.986V124.83Z" fill="#00229A"/>
<path d="M204.646 124.83H197.231V126.076H204.646V124.83Z" fill="#00229A"/>
<path d="M189.816 124.83H182.401V126.076H189.816V124.83Z" fill="#00229A"/>
<path d="M130.484 124.83H123.069V126.076H130.484V124.83Z" fill="#00229A"/>
<path d="M160.144 124.83H152.729V126.076H160.144V124.83Z" fill="#00229A"/>
<path d="M145.314 124.83H137.899V126.076H145.314V124.83Z" fill="#00229A"/>
<path d="M215.189 129.192H216.435V124.83H212.074V126.076H215.189V129.192Z" fill="#00229A"/>
<path d="M216.435 210.781H215.189V218.196H216.435V210.781Z" fill="#00229A"/>
<path d="M216.435 166.279H215.189V173.694H216.435V166.279Z" fill="#00229A"/>
<path d="M216.435 195.939H215.189V203.354H216.435V195.939Z" fill="#00229A"/>
<path d="M216.435 181.109H215.189V188.524H216.435V181.109Z" fill="#00229A"/>
<path d="M216.435 136.607H215.189V144.022H216.435V136.607Z" fill="#00229A"/>
<path d="M216.435 151.437H215.189V158.852H216.435V151.437Z" fill="#00229A"/>
<path d="M219.85 229.038H218.604V232.154H215.488V233.4H219.85V229.038Z" fill="#00229A"/>
<path d="M207.55 232.154H199.612V233.4H207.55V232.154Z" fill="#00229A"/>
<path d="M191.661 232.154H183.722V233.4H191.661V232.154Z" fill="#00229A"/>
<path d="M128.104 232.154H120.166V233.4H128.104V232.154Z" fill="#00229A"/>
<path d="M143.993 232.154H136.055V233.4H143.993V232.154Z" fill="#00229A"/>
<path d="M159.882 232.154H151.944V233.4H159.882V232.154Z" fill="#00229A"/>
<path d="M175.771 232.154H167.833V233.4H175.771V232.154Z" fill="#00229A"/>
<path d="M109.112 229.038H107.866V233.4H112.228V232.154H109.112V229.038Z" fill="#00229A"/>
<path d="M109.112 197.26H107.866V205.198H109.112V197.26Z" fill="#00229A"/>
<path d="M109.112 213.149H107.866V221.088H109.112V213.149Z" fill="#00229A"/>
<path d="M109.112 165.482H107.866V173.42H109.112V165.482Z" fill="#00229A"/>
<path d="M109.112 133.703H107.866V141.641H109.112V133.703Z" fill="#00229A"/>
<path d="M109.112 149.593H107.866V157.531H109.112V149.593Z" fill="#00229A"/>
<path d="M109.112 181.371H107.866V189.309H109.112V181.371Z" fill="#00229A"/>
<path d="M112.228 121.403H107.866V125.765H109.112V122.649H112.228V121.403Z" fill="#00229A"/>
<path d="M191.661 121.403H183.722V122.649H191.661V121.403Z" fill="#00229A"/>
<path d="M207.55 121.403H199.612V122.649H207.55V121.403Z" fill="#00229A"/>
<path d="M175.771 121.403H167.833V122.649H175.771V121.403Z" fill="#00229A"/>
<path d="M159.882 121.403H151.944V122.649H159.882V121.403Z" fill="#00229A"/>
<path d="M143.993 121.403H136.055V122.649H143.993V121.403Z" fill="#00229A"/>
<path d="M128.104 121.403H120.166V122.649H128.104V121.403Z" fill="#00229A"/>
<path d="M218.604 125.765H219.85V121.403H215.488V122.649H218.604V125.765Z" fill="#00229A"/>
<path d="M219.85 181.371H218.604V189.309H219.85V181.371Z" fill="#00229A"/>
<path d="M219.85 213.149H218.604V221.088H219.85V213.149Z" fill="#00229A"/>
<path d="M219.85 197.26H218.604V205.198H219.85V197.26Z" fill="#00229A"/>
<path d="M219.85 133.703H218.604V141.641H219.85V133.703Z" fill="#00229A"/>
<path d="M219.85 149.593H218.604V157.531H219.85V149.593Z" fill="#00229A"/>
<path d="M219.85 165.482H218.604V173.42H219.85V165.482Z" fill="#00229A"/>
<path d="M147.171 125.453H145.925V129.192H147.171V125.453Z" fill="#00229A"/>
<path d="M147.171 166.279H145.925V173.694H147.171V166.279Z" fill="#00229A"/>
<path d="M147.171 136.607H145.925V144.022H147.171V136.607Z" fill="#00229A"/>
<path d="M147.171 151.437H145.925V158.852H147.171V151.437Z" fill="#00229A"/>
<path d="M147.171 195.939H145.925V203.354H147.171V195.939Z" fill="#00229A"/>
<path d="M147.171 181.109H145.925V188.524H147.171V181.109Z" fill="#00229A"/>
<path d="M147.171 210.781H145.925V218.196H147.171V210.781Z" fill="#00229A"/>
<path d="M147.171 225.611H145.925V229.35H147.171V225.611Z" fill="#00229A"/>
<path d="M181.803 125.453H180.557V129.192H181.803V125.453Z" fill="#00229A"/>
<path d="M181.803 166.279H180.557V173.694H181.803V166.279Z" fill="#00229A"/>
<path d="M181.803 151.437H180.557V158.852H181.803V151.437Z" fill="#00229A"/>
<path d="M181.803 136.607H180.557V144.022H181.803V136.607Z" fill="#00229A"/>
<path d="M181.803 210.781H180.557V218.196H181.803V210.781Z" fill="#00229A"/>
<path d="M181.803 181.109H180.557V188.524H181.803V181.109Z" fill="#00229A"/>
<path d="M181.803 195.939H180.557V203.354H181.803V195.939Z" fill="#00229A"/>
<path d="M181.803 225.611H180.557V229.35H181.803V225.611Z" fill="#00229A"/>
<path d="M109.835 112.717H102.632V113.963H109.835V112.717Z" fill="#00229A"/>
<path d="M167.459 112.717H160.256V113.963H167.459V112.717Z" fill="#00229A"/>
<path d="M225.084 112.717H217.881V113.963H225.084V112.717Z" fill="#00229A"/>
<path d="M210.678 112.717H203.475V113.963H210.678V112.717Z" fill="#00229A"/>
<path d="M95.4163 112.717H88.2133V113.963H95.4163V112.717Z" fill="#00229A"/>
<path d="M124.241 112.717H117.038V113.963H124.241V112.717Z" fill="#00229A"/>
<path d="M239.503 112.717H232.299V113.963H239.503V112.717Z" fill="#00229A"/>
<path d="M181.866 112.717H174.662V113.963H181.866V112.717Z" fill="#00229A"/>
<path d="M153.053 112.717H145.85V113.963H153.053V112.717Z" fill="#00229A"/>
<path d="M138.647 112.717H131.444V113.963H138.647V112.717Z" fill="#00229A"/>
<path d="M196.272 112.717H189.068V113.963H196.272V112.717Z" fill="#00229A"/>
<path d="M196.272 240.84H189.068V242.086H196.272V240.84Z" fill="#00229A"/>
<path d="M239.503 240.84H232.299V242.086H239.503V240.84Z" fill="#00229A"/>
<path d="M109.835 240.84H102.632V242.086H109.835V240.84Z" fill="#00229A"/>
<path d="M153.053 240.84H145.85V242.086H153.053V240.84Z" fill="#00229A"/>
<path d="M225.084 240.84H217.881V242.086H225.084V240.84Z" fill="#00229A"/>
<path d="M95.4163 240.84H88.2133V242.086H95.4163V240.84Z" fill="#00229A"/>
<path d="M210.678 240.84H203.475V242.086H210.678V240.84Z" fill="#00229A"/>
<path d="M181.866 240.84H174.662V242.086H181.866V240.84Z" fill="#00229A"/>
<path d="M138.647 240.84H131.444V242.086H138.647V240.84Z" fill="#00229A"/>
<path d="M167.459 240.84H160.256V242.086H167.459V240.84Z" fill="#00229A"/>
<path d="M124.241 240.84H117.038V242.086H124.241V240.84Z" fill="#00229A"/>
<path d="M81.1843 36.2246L79.6889 34.7292H109.498L108.003 36.2246H109.797L111.903 34.1186L109.797 32H108.003L109.498 33.4954H79.6889L81.1843 32H79.3898L77.2712 34.1186L79.3898 36.2246H81.1843Z" fill="#00229A"/>
<path d="M219.713 36.2246L218.23 34.7292H248.027L246.531 36.2246H248.326L250.444 34.1186L248.326 32H246.531L248.027 33.4954H218.23L219.713 32H217.918L215.812 34.1186L217.918 36.2246H219.713Z" fill="#00229A"/>
<path d="M115.817 36.2246L114.321 34.7292H213.395L211.899 36.2246H213.694L215.812 34.1186L213.694 32H211.899L213.395 33.4954H114.321L115.817 32H114.022L111.903 34.1186L114.022 36.2246H115.817Z" fill="#00229A"/>
<path d="M81.1391 28.168V29H74.7561V28.337L78.5391 24.632C79.0158 24.164 79.3365 23.761 79.5011 23.423C79.6745 23.0763 79.7611 22.7297 79.7611 22.383C79.7611 21.8457 79.5748 21.4297 79.2021 21.135C78.8381 20.8317 78.3138 20.68 77.6291 20.68C76.5631 20.68 75.7355 21.018 75.1461 21.694L74.4831 21.122C74.8385 20.706 75.2891 20.3853 75.8351 20.16C76.3898 19.9347 77.0138 19.822 77.7071 19.822C78.6345 19.822 79.3668 20.043 79.9041 20.485C80.4501 20.9183 80.7231 21.5163 80.7231 22.279C80.7231 22.747 80.6191 23.1977 80.4111 23.631C80.2031 24.0643 79.8088 24.5627 79.2281 25.126L76.1341 28.168H81.1391ZM85.63 29.078C84.928 29.078 84.2997 28.8917 83.745 28.519C83.199 28.1463 82.77 27.6133 82.458 26.92C82.1547 26.218 82.003 25.3947 82.003 24.45C82.003 23.5053 82.1547 22.6863 82.458 21.993C82.77 21.291 83.199 20.7537 83.745 20.381C84.2997 20.0083 84.928 19.822 85.63 19.822C86.332 19.822 86.956 20.0083 87.502 20.381C88.0567 20.7537 88.49 21.291 88.802 21.993C89.114 22.6863 89.27 23.5053 89.27 24.45C89.27 25.3947 89.114 26.218 88.802 26.92C88.49 27.6133 88.0567 28.1463 87.502 28.519C86.956 28.8917 86.332 29.078 85.63 29.078ZM85.63 28.22C86.1587 28.22 86.6224 28.0727 87.021 27.778C87.4284 27.4833 87.7447 27.0543 87.97 26.491C88.1954 25.9277 88.308 25.2473 88.308 24.45C88.308 23.6527 88.1954 22.9723 87.97 22.409C87.7447 21.8457 87.4284 21.4167 87.021 21.122C86.6224 20.8273 86.1587 20.68 85.63 20.68C85.1014 20.68 84.6334 20.8273 84.226 21.122C83.8274 21.4167 83.5154 21.8457 83.29 22.409C83.0647 22.9723 82.952 23.6527 82.952 24.45C82.952 25.2473 83.0647 25.9277 83.29 26.491C83.5154 27.0543 83.8274 27.4833 84.226 27.778C84.6334 28.0727 85.1014 28.22 85.63 28.22ZM96.9378 29.065C96.2618 29.065 95.6551 28.9177 95.1178 28.623C94.5891 28.3283 94.1731 27.9167 93.8698 27.388C93.5664 26.8507 93.4148 26.2483 93.4148 25.581C93.4148 24.9137 93.5664 24.3157 93.8698 23.787C94.1731 23.2583 94.5891 22.8467 95.1178 22.552C95.6551 22.2573 96.2618 22.11 96.9378 22.11C97.5271 22.11 98.0514 22.227 98.5108 22.461C98.9788 22.6863 99.3471 23.02 99.6158 23.462L98.9268 23.93C98.7014 23.592 98.4154 23.3407 98.0688 23.176C97.7221 23.0027 97.3451 22.916 96.9378 22.916C96.4438 22.916 95.9974 23.0287 95.5988 23.254C95.2088 23.4707 94.9011 23.7827 94.6758 24.19C94.4591 24.5973 94.3508 25.061 94.3508 25.581C94.3508 26.1097 94.4591 26.5777 94.6758 26.985C94.9011 27.3837 95.2088 27.6957 95.5988 27.921C95.9974 28.1377 96.4438 28.246 96.9378 28.246C97.3451 28.246 97.7221 28.1637 98.0688 27.999C98.4154 27.8343 98.7014 27.583 98.9268 27.245L99.6158 27.713C99.3471 28.155 98.9788 28.493 98.5108 28.727C98.0428 28.9523 97.5184 29.065 96.9378 29.065ZM109.697 22.11C110.555 22.11 111.227 22.357 111.712 22.851C112.206 23.345 112.453 24.073 112.453 25.035V29H111.53V25.126C111.53 24.4153 111.357 23.8737 111.01 23.501C110.672 23.1283 110.191 22.942 109.567 22.942C108.856 22.942 108.297 23.163 107.89 23.605C107.483 24.0383 107.279 24.6407 107.279 25.412V29H106.356V25.126C106.356 24.4153 106.183 23.8737 105.836 23.501C105.498 23.1283 105.013 22.942 104.38 22.942C103.678 22.942 103.119 23.163 102.703 23.605C102.296 24.0383 102.092 24.6407 102.092 25.412V29H101.169V22.162H102.053V23.41C102.296 22.994 102.634 22.6733 103.067 22.448C103.5 22.2227 103.999 22.11 104.562 22.11C105.134 22.11 105.628 22.2313 106.044 22.474C106.469 22.7167 106.785 23.0763 106.993 23.553C107.244 23.1023 107.604 22.7513 108.072 22.5C108.549 22.24 109.09 22.11 109.697 22.11Z" fill="#00229A"/>
<path d="M219.695 28.168V29H213.312V28.337L217.095 24.632C217.571 24.164 217.892 23.761 218.057 23.423C218.23 23.0763 218.317 22.7297 218.317 22.383C218.317 21.8457 218.13 21.4297 217.758 21.135C217.394 20.8317 216.869 20.68 216.185 20.68C215.119 20.68 214.291 21.018 213.702 21.694L213.039 21.122C213.394 20.706 213.845 20.3853 214.391 20.16C214.945 19.9347 215.569 19.822 216.263 19.822C217.19 19.822 217.922 20.043 218.46 20.485C219.006 20.9183 219.279 21.5163 219.279 22.279C219.279 22.747 219.175 23.1977 218.967 23.631C218.759 24.0643 218.364 24.5627 217.784 25.126L214.69 28.168H219.695ZM224.185 29.078C223.483 29.078 222.855 28.8917 222.3 28.519C221.754 28.1463 221.325 27.6133 221.013 26.92C220.71 26.218 220.558 25.3947 220.558 24.45C220.558 23.5053 220.71 22.6863 221.013 21.993C221.325 21.291 221.754 20.7537 222.3 20.381C222.855 20.0083 223.483 19.822 224.185 19.822C224.887 19.822 225.511 20.0083 226.057 20.381C226.612 20.7537 227.045 21.291 227.357 21.993C227.669 22.6863 227.825 23.5053 227.825 24.45C227.825 25.3947 227.669 26.218 227.357 26.92C227.045 27.6133 226.612 28.1463 226.057 28.519C225.511 28.8917 224.887 29.078 224.185 29.078ZM224.185 28.22C224.714 28.22 225.178 28.0727 225.576 27.778C225.984 27.4833 226.3 27.0543 226.525 26.491C226.751 25.9277 226.863 25.2473 226.863 24.45C226.863 23.6527 226.751 22.9723 226.525 22.409C226.3 21.8457 225.984 21.4167 225.576 21.122C225.178 20.8273 224.714 20.68 224.185 20.68C223.657 20.68 223.189 20.8273 222.781 21.122C222.383 21.4167 222.071 21.8457 221.845 22.409C221.62 22.9723 221.507 23.6527 221.507 24.45C221.507 25.2473 221.62 25.9277 221.845 26.491C222.071 27.0543 222.383 27.4833 222.781 27.778C223.189 28.0727 223.657 28.22 224.185 28.22ZM235.493 29.065C234.817 29.065 234.211 28.9177 233.673 28.623C233.145 28.3283 232.729 27.9167 232.425 27.388C232.122 26.8507 231.97 26.2483 231.97 25.581C231.97 24.9137 232.122 24.3157 232.425 23.787C232.729 23.2583 233.145 22.8467 233.673 22.552C234.211 22.2573 234.817 22.11 235.493 22.11C236.083 22.11 236.607 22.227 237.066 22.461C237.534 22.6863 237.903 23.02 238.171 23.462L237.482 23.93C237.257 23.592 236.971 23.3407 236.624 23.176C236.278 23.0027 235.901 22.916 235.493 22.916C234.999 22.916 234.553 23.0287 234.154 23.254C233.764 23.4707 233.457 23.7827 233.231 24.19C233.015 24.5973 232.906 25.061 232.906 25.581C232.906 26.1097 233.015 26.5777 233.231 26.985C233.457 27.3837 233.764 27.6957 234.154 27.921C234.553 28.1377 234.999 28.246 235.493 28.246C235.901 28.246 236.278 28.1637 236.624 27.999C236.971 27.8343 237.257 27.583 237.482 27.245L238.171 27.713C237.903 28.155 237.534 28.493 237.066 28.727C236.598 28.9523 236.074 29.065 235.493 29.065ZM248.252 22.11C249.11 22.11 249.782 22.357 250.267 22.851C250.761 23.345 251.008 24.073 251.008 25.035V29H250.085V25.126C250.085 24.4153 249.912 23.8737 249.565 23.501C249.227 23.1283 248.746 22.942 248.122 22.942C247.412 22.942 246.853 23.163 246.445 23.605C246.038 24.0383 245.834 24.6407 245.834 25.412V29H244.911V25.126C244.911 24.4153 244.738 23.8737 244.391 23.501C244.053 23.1283 243.568 22.942 242.935 22.942C242.233 22.942 241.674 23.163 241.258 23.605C240.851 24.0383 240.647 24.6407 240.647 25.412V29H239.724V22.162H240.608V23.41C240.851 22.994 241.189 22.6733 241.622 22.448C242.056 22.2227 242.554 22.11 243.117 22.11C243.689 22.11 244.183 22.2313 244.599 22.474C245.024 22.7167 245.34 23.0763 245.548 23.553C245.8 23.1023 246.159 22.7513 246.627 22.5C247.104 22.24 247.646 22.11 248.252 22.11Z" fill="#00229A"/>
<path d="M148.659 23.553C149.257 23.553 149.785 23.6657 150.245 23.891C150.713 24.1163 151.077 24.437 151.337 24.853C151.597 25.2603 151.727 25.737 151.727 26.283C151.727 26.8377 151.592 27.3273 151.324 27.752C151.055 28.1767 150.682 28.506 150.206 28.74C149.738 28.9653 149.209 29.078 148.62 29.078C147.415 29.078 146.492 28.6837 145.851 27.895C145.209 27.0977 144.889 25.9753 144.889 24.528C144.889 23.514 145.062 22.656 145.409 21.954C145.755 21.252 146.241 20.7233 146.865 20.368C147.489 20.004 148.217 19.822 149.049 19.822C149.95 19.822 150.669 19.9867 151.207 20.316L150.83 21.07C150.396 20.784 149.807 20.641 149.062 20.641C148.056 20.641 147.268 20.9617 146.696 21.603C146.124 22.2357 145.838 23.1587 145.838 24.372C145.838 24.5887 145.851 24.8357 145.877 25.113C146.102 24.619 146.462 24.2377 146.956 23.969C147.45 23.6917 148.017 23.553 148.659 23.553ZM148.581 28.285C149.239 28.285 149.772 28.1073 150.18 27.752C150.596 27.388 150.804 26.907 150.804 26.309C150.804 25.711 150.596 25.2343 150.18 24.879C149.772 24.5237 149.218 24.346 148.516 24.346C148.056 24.346 147.649 24.4327 147.294 24.606C146.947 24.7793 146.674 25.0177 146.475 25.321C146.275 25.6243 146.176 25.9623 146.176 26.335C146.176 26.6817 146.267 27.0023 146.449 27.297C146.639 27.5917 146.917 27.83 147.281 28.012C147.645 28.194 148.078 28.285 148.581 28.285ZM156.177 29.078C155.475 29.078 154.847 28.8917 154.292 28.519C153.746 28.1463 153.317 27.6133 153.005 26.92C152.702 26.218 152.55 25.3947 152.55 24.45C152.55 23.5053 152.702 22.6863 153.005 21.993C153.317 21.291 153.746 20.7537 154.292 20.381C154.847 20.0083 155.475 19.822 156.177 19.822C156.879 19.822 157.503 20.0083 158.049 20.381C158.604 20.7537 159.037 21.291 159.349 21.993C159.661 22.6863 159.817 23.5053 159.817 24.45C159.817 25.3947 159.661 26.218 159.349 26.92C159.037 27.6133 158.604 28.1463 158.049 28.519C157.503 28.8917 156.879 29.078 156.177 29.078ZM156.177 28.22C156.706 28.22 157.17 28.0727 157.568 27.778C157.976 27.4833 158.292 27.0543 158.517 26.491C158.743 25.9277 158.855 25.2473 158.855 24.45C158.855 23.6527 158.743 22.9723 158.517 22.409C158.292 21.8457 157.976 21.4167 157.568 21.122C157.17 20.8273 156.706 20.68 156.177 20.68C155.649 20.68 155.181 20.8273 154.773 21.122C154.375 21.4167 154.063 21.8457 153.837 22.409C153.612 22.9723 153.499 23.6527 153.499 24.45C153.499 25.2473 153.612 25.9277 153.837 26.491C154.063 27.0543 154.375 27.4833 154.773 27.778C155.181 28.0727 155.649 28.22 156.177 28.22ZM167.485 29.065C166.809 29.065 166.202 28.9177 165.665 28.623C165.136 28.3283 164.72 27.9167 164.417 27.388C164.114 26.8507 163.962 26.2483 163.962 25.581C163.962 24.9137 164.114 24.3157 164.417 23.787C164.72 23.2583 165.136 22.8467 165.665 22.552C166.202 22.2573 166.809 22.11 167.485 22.11C168.074 22.11 168.599 22.227 169.058 22.461C169.526 22.6863 169.894 23.02 170.163 23.462L169.474 23.93C169.249 23.592 168.963 23.3407 168.616 23.176C168.269 23.0027 167.892 22.916 167.485 22.916C166.991 22.916 166.545 23.0287 166.146 23.254C165.756 23.4707 165.448 23.7827 165.223 24.19C165.006 24.5973 164.898 25.061 164.898 25.581C164.898 26.1097 165.006 26.5777 165.223 26.985C165.448 27.3837 165.756 27.6957 166.146 27.921C166.545 28.1377 166.991 28.246 167.485 28.246C167.892 28.246 168.269 28.1637 168.616 27.999C168.963 27.8343 169.249 27.583 169.474 27.245L170.163 27.713C169.894 28.155 169.526 28.493 169.058 28.727C168.59 28.9523 168.066 29.065 167.485 29.065ZM180.244 22.11C181.102 22.11 181.774 22.357 182.259 22.851C182.753 23.345 183 24.073 183 25.035V29H182.077V25.126C182.077 24.4153 181.904 23.8737 181.557 23.501C181.219 23.1283 180.738 22.942 180.114 22.942C179.404 22.942 178.845 23.163 178.437 23.605C178.03 24.0383 177.826 24.6407 177.826 25.412V29H176.903V25.126C176.903 24.4153 176.73 23.8737 176.383 23.501C176.045 23.1283 175.56 22.942 174.927 22.942C174.225 22.942 173.666 23.163 173.25 23.605C172.843 24.0383 172.639 24.6407 172.639 25.412V29H171.716V22.162H172.6V23.41C172.843 22.994 173.181 22.6733 173.614 22.448C174.048 22.2227 174.546 22.11 175.109 22.11C175.681 22.11 176.175 22.2313 176.591 22.474C177.016 22.7167 177.332 23.0763 177.54 23.553C177.792 23.1023 178.151 22.7513 178.619 22.5C179.096 22.24 179.638 22.11 180.244 22.11Z" fill="#00229A"/>
<path d="M148.525 182.078C147.624 182.078 146.805 181.879 146.068 181.48C145.34 181.073 144.768 180.518 144.352 179.816C143.945 179.114 143.741 178.325 143.741 177.45C143.741 176.575 143.945 175.786 144.352 175.084C144.768 174.382 145.34 173.832 146.068 173.433C146.805 173.026 147.624 172.822 148.525 172.822C149.426 172.822 150.237 173.021 150.956 173.42C151.684 173.819 152.256 174.373 152.672 175.084C153.088 175.786 153.296 176.575 153.296 177.45C153.296 178.325 153.088 179.118 152.672 179.829C152.256 180.531 151.684 181.081 150.956 181.48C150.237 181.879 149.426 182.078 148.525 182.078ZM148.525 181.22C149.244 181.22 149.894 181.06 150.475 180.739C151.056 180.41 151.511 179.959 151.84 179.387C152.169 178.806 152.334 178.161 152.334 177.45C152.334 176.739 152.169 176.098 151.84 175.526C151.511 174.945 151.056 174.495 150.475 174.174C149.894 173.845 149.244 173.68 148.525 173.68C147.806 173.68 147.151 173.845 146.562 174.174C145.981 174.495 145.522 174.945 145.184 175.526C144.855 176.098 144.69 176.739 144.69 177.45C144.69 178.161 144.855 178.806 145.184 179.387C145.522 179.959 145.981 180.41 146.562 180.739C147.151 181.06 147.806 181.22 148.525 181.22ZM158.348 177.827H156.268V182H155.332V172.9H156.268V176.982H158.348L161.429 172.9H162.469L159.089 177.32L162.664 182H161.559L158.348 177.827ZM171.487 172.9V182H170.538V177.801H164.844V182H163.882V172.9H164.844V176.956H170.538V172.9H171.487ZM178.29 182.078C177.389 182.078 176.57 181.879 175.833 181.48C175.105 181.073 174.533 180.518 174.117 179.816C173.71 179.114 173.506 178.325 173.506 177.45C173.506 176.575 173.71 175.786 174.117 175.084C174.533 174.382 175.105 173.832 175.833 173.433C176.57 173.026 177.389 172.822 178.29 172.822C179.191 172.822 180.002 173.021 180.721 173.42C181.449 173.819 182.021 174.373 182.437 175.084C182.853 175.786 183.061 176.575 183.061 177.45C183.061 178.325 182.853 179.118 182.437 179.829C182.021 180.531 181.449 181.081 180.721 181.48C180.002 181.879 179.191 182.078 178.29 182.078ZM178.29 181.22C179.009 181.22 179.659 181.06 180.24 180.739C180.821 180.41 181.276 179.959 181.605 179.387C181.934 178.806 182.099 178.161 182.099 177.45C182.099 176.739 181.934 176.098 181.605 175.526C181.276 174.945 180.821 174.495 180.24 174.174C179.659 173.845 179.009 173.68 178.29 173.68C177.571 173.68 176.916 173.845 176.327 174.174C175.746 174.495 175.287 174.945 174.949 175.526C174.62 176.098 174.455 176.739 174.455 177.45C174.455 178.161 174.62 178.806 174.949 179.387C175.287 179.959 175.746 180.41 176.327 180.739C176.916 181.06 177.571 181.22 178.29 181.22Z" fill="#00229A"/>
<path d="M146.068 181.48L144.603 184.098L144.622 184.108L144.64 184.118L146.068 181.48ZM144.352 179.816L141.757 181.322L141.764 181.334L141.771 181.345L144.352 179.816ZM144.352 175.084L141.771 173.555L141.764 173.566L141.757 173.578L144.352 175.084ZM146.068 173.433L147.509 176.064L147.52 176.058L146.068 173.433ZM150.956 173.42L149.502 176.044L149.508 176.048L149.515 176.051L150.956 173.42ZM152.672 175.084L150.083 176.6L150.087 176.606L150.091 176.613L152.672 175.084ZM152.672 179.829L155.253 181.358L155.257 181.351L155.261 181.345L152.672 179.829ZM150.956 181.48L149.515 178.849L149.508 178.852L149.502 178.856L150.956 181.48ZM150.475 180.739L151.925 183.365L151.94 183.357L151.955 183.349L150.475 180.739ZM151.84 179.387L154.44 180.884L154.445 180.875L154.45 180.867L151.84 179.387ZM151.84 175.526L149.23 177.006L149.235 177.014L149.24 177.023L151.84 175.526ZM150.475 174.174L148.995 176.784L149.01 176.792L149.025 176.8L150.475 174.174ZM146.562 174.174L148.012 176.8L148.019 176.797L148.025 176.793L146.562 174.174ZM145.184 175.526L142.591 174.017L142.588 174.023L142.584 174.029L145.184 175.526ZM145.184 179.387L142.574 180.867L142.588 180.89L142.601 180.913L145.184 179.387ZM146.562 180.739L145.082 183.349L145.105 183.362L145.128 183.374L146.562 180.739ZM148.525 179.078C148.083 179.078 147.761 178.985 147.496 178.842L144.64 184.118C145.848 184.772 147.164 185.078 148.525 185.078V179.078ZM147.533 178.862C147.256 178.707 147.073 178.523 146.933 178.287L141.771 181.345C142.463 182.513 143.424 183.439 144.603 184.098L147.533 178.862ZM146.947 178.31C146.826 178.101 146.741 177.839 146.741 177.45H140.741C140.741 178.811 141.064 180.127 141.757 181.322L146.947 178.31ZM146.741 177.45C146.741 177.061 146.826 176.799 146.947 176.59L141.757 173.578C141.064 174.773 140.741 176.089 140.741 177.45H146.741ZM146.933 176.613C147.07 176.383 147.244 176.209 147.509 176.064L144.627 170.802C143.436 171.454 142.466 172.381 141.771 173.555L146.933 176.613ZM147.52 176.058C147.781 175.914 148.094 175.822 148.525 175.822V169.822C147.153 169.822 145.829 170.137 144.616 170.808L147.52 176.058ZM148.525 175.822C148.968 175.822 149.269 175.915 149.502 176.044L152.41 170.796C151.204 170.128 149.885 169.822 148.525 169.822V175.822ZM149.515 176.051C149.77 176.191 149.944 176.362 150.083 176.6L155.261 173.568C154.568 172.385 153.598 171.446 152.397 170.789L149.515 176.051ZM150.091 176.613C150.213 176.819 150.296 177.072 150.296 177.45H156.296C156.296 176.077 155.963 174.753 155.253 173.555L150.091 176.613ZM150.296 177.45C150.296 177.827 150.213 178.092 150.083 178.313L155.261 181.345C155.963 180.145 156.296 178.823 156.296 177.45H150.296ZM150.091 178.3C149.954 178.53 149.78 178.704 149.515 178.849L152.397 184.111C153.588 183.459 154.558 182.532 155.253 181.358L150.091 178.3ZM149.502 178.856C149.269 178.985 148.968 179.078 148.525 179.078V185.078C149.885 185.078 151.204 184.772 152.41 184.104L149.502 178.856ZM148.525 184.22C149.708 184.22 150.864 183.951 151.925 183.365L149.025 178.113C148.925 178.168 148.781 178.22 148.525 178.22V184.22ZM151.955 183.349C152.996 182.758 153.84 181.926 154.44 180.884L149.24 177.89C149.181 177.992 149.115 178.061 148.995 178.129L151.955 183.349ZM154.45 180.867C155.051 179.806 155.334 178.645 155.334 177.45H149.334C149.334 177.677 149.287 177.807 149.23 177.907L154.45 180.867ZM155.334 177.45C155.334 176.256 155.051 175.091 154.44 174.029L149.24 177.023C149.287 177.105 149.334 177.223 149.334 177.45H155.334ZM154.45 174.046C153.849 172.987 152.994 172.138 151.925 171.548L149.025 176.8C149.117 176.851 149.173 176.904 149.23 177.006L154.45 174.046ZM151.955 171.564C150.888 170.959 149.722 170.68 148.525 170.68V176.68C148.767 176.68 148.9 176.73 148.995 176.784L151.955 171.564ZM148.525 170.68C147.328 170.68 146.164 170.96 145.099 171.555L148.025 176.793C148.138 176.73 148.283 176.68 148.525 176.68V170.68ZM145.112 171.548C144.05 172.134 143.198 172.974 142.591 174.017L147.777 177.035C147.846 176.917 147.913 176.855 148.012 176.8L145.112 171.548ZM142.584 174.029C141.973 175.091 141.69 176.256 141.69 177.45H147.69C147.69 177.223 147.737 177.105 147.784 177.023L142.584 174.029ZM141.69 177.45C141.69 178.645 141.973 179.806 142.574 180.867L147.794 177.907C147.737 177.807 147.69 177.677 147.69 177.45H141.69ZM142.601 180.913C143.207 181.939 144.048 182.762 145.082 183.349L148.042 178.129C147.915 178.057 147.837 177.979 147.767 177.861L142.601 180.913ZM145.128 183.374C146.189 183.951 147.342 184.22 148.525 184.22V178.22C148.269 178.22 148.114 178.168 147.996 178.104L145.128 183.374ZM158.348 177.827L160.725 175.998L159.825 174.827H158.348V177.827ZM156.268 177.827V174.827H153.268V177.827H156.268ZM156.268 182V185H159.268V182H156.268ZM155.332 182H152.332V185H155.332V182ZM155.332 172.9V169.9H152.332V172.9H155.332ZM156.268 172.9H159.268V169.9H156.268V172.9ZM156.268 176.982H153.268V179.982H156.268V176.982ZM158.348 176.982V179.982H159.842L160.742 178.789L158.348 176.982ZM161.429 172.9V169.9H159.934L159.034 171.093L161.429 172.9ZM162.469 172.9L164.852 174.722L168.539 169.9H162.469V172.9ZM159.089 177.32L156.706 175.498L155.313 177.319L156.705 179.141L159.089 177.32ZM162.664 182V185H168.73L165.048 180.179L162.664 182ZM161.559 182L159.181 183.829L160.082 185H161.559V182ZM158.348 174.827H156.268V180.827H158.348V174.827ZM153.268 177.827V182H159.268V177.827H153.268ZM156.268 179H155.332V185H156.268V179ZM158.332 182V172.9H152.332V182H158.332ZM155.332 175.9H156.268V169.9H155.332V175.9ZM153.268 172.9V176.982H159.268V172.9H153.268ZM156.268 179.982H158.348V173.982H156.268V179.982ZM160.742 178.789L163.823 174.707L159.034 171.093L155.953 175.175L160.742 178.789ZM161.429 175.9H162.469V169.9H161.429V175.9ZM160.086 171.078L156.706 175.498L161.472 179.142L164.852 174.722L160.086 171.078ZM156.705 179.141L160.28 183.821L165.048 180.179L161.473 175.499L156.705 179.141ZM162.664 179H161.559V185H162.664V179ZM163.936 180.171L160.725 175.998L155.97 179.656L159.181 183.829L163.936 180.171ZM171.487 172.9H174.487V169.9H171.487V172.9ZM171.487 182V185H174.487V182H171.487ZM170.538 182H167.538V185H170.538V182ZM170.538 177.801H173.538V174.801H170.538V177.801ZM164.844 177.801V174.801H161.844V177.801H164.844ZM164.844 182V185H167.844V182H164.844ZM163.882 182H160.882V185H163.882V182ZM163.882 172.9V169.9H160.882V172.9H163.882ZM164.844 172.9H167.844V169.9H164.844V172.9ZM164.844 176.956H161.844V179.956H164.844V176.956ZM170.538 176.956V179.956H173.538V176.956H170.538ZM170.538 172.9V169.9H167.538V172.9H170.538ZM168.487 172.9V182H174.487V172.9H168.487ZM171.487 179H170.538V185H171.487V179ZM173.538 182V177.801H167.538V182H173.538ZM170.538 174.801H164.844V180.801H170.538V174.801ZM161.844 177.801V182H167.844V177.801H161.844ZM164.844 179H163.882V185H164.844V179ZM166.882 182V172.9H160.882V182H166.882ZM163.882 175.9H164.844V169.9H163.882V175.9ZM161.844 172.9V176.956H167.844V172.9H161.844ZM164.844 179.956H170.538V173.956H164.844V179.956ZM173.538 176.956V172.9H167.538V176.956H173.538ZM170.538 175.9H171.487V169.9H170.538V175.9ZM175.833 181.48L174.368 184.098L174.386 184.108L174.405 184.118L175.833 181.48ZM174.117 179.816L171.522 181.322L171.529 181.334L171.536 181.345L174.117 179.816ZM174.117 175.084L171.536 173.555L171.529 173.566L171.522 173.578L174.117 175.084ZM175.833 173.433L177.274 176.064L177.285 176.058L175.833 173.433ZM180.721 173.42L179.267 176.044L179.273 176.048L179.28 176.051L180.721 173.42ZM182.437 175.084L179.848 176.6L179.852 176.606L179.856 176.613L182.437 175.084ZM182.437 179.829L185.018 181.358L185.022 181.351L185.026 181.345L182.437 179.829ZM180.721 181.48L179.28 178.849L179.273 178.852L179.267 178.856L180.721 181.48ZM180.24 180.739L181.69 183.365L181.705 183.357L181.72 183.349L180.24 180.739ZM181.605 179.387L184.205 180.884L184.21 180.875L184.214 180.867L181.605 179.387ZM181.605 175.526L178.995 177.006L179 177.014L179.005 177.023L181.605 175.526ZM180.24 174.174L178.76 176.784L178.775 176.792L178.79 176.8L180.24 174.174ZM176.327 174.174L177.777 176.8L177.784 176.797L177.79 176.793L176.327 174.174ZM174.949 175.526L172.356 174.017L172.353 174.023L172.349 174.029L174.949 175.526ZM174.949 179.387L172.339 180.867L172.353 180.89L172.366 180.913L174.949 179.387ZM176.327 180.739L174.847 183.349L174.87 183.362L174.893 183.374L176.327 180.739ZM178.29 179.078C177.848 179.078 177.526 178.985 177.261 178.842L174.405 184.118C175.613 184.772 176.929 185.078 178.29 185.078V179.078ZM177.298 178.862C177.02 178.707 176.838 178.523 176.698 178.287L171.536 181.345C172.228 182.513 173.189 183.439 174.368 184.098L177.298 178.862ZM176.712 178.31C176.591 178.101 176.506 177.839 176.506 177.45H170.506C170.506 178.811 170.829 180.127 171.522 181.322L176.712 178.31ZM176.506 177.45C176.506 177.061 176.591 176.799 176.712 176.59L171.522 173.578C170.829 174.773 170.506 176.089 170.506 177.45H176.506ZM176.698 176.613C176.835 176.383 177.009 176.209 177.274 176.064L174.392 170.802C173.201 171.454 172.231 172.381 171.536 173.555L176.698 176.613ZM177.285 176.058C177.546 175.914 177.859 175.822 178.29 175.822V169.822C176.918 169.822 175.594 170.137 174.381 170.808L177.285 176.058ZM178.29 175.822C178.732 175.822 179.034 175.915 179.267 176.044L182.175 170.796C180.969 170.128 179.65 169.822 178.29 169.822V175.822ZM179.28 176.051C179.535 176.191 179.709 176.362 179.848 176.6L185.026 173.568C184.333 172.385 183.363 171.446 182.162 170.789L179.28 176.051ZM179.856 176.613C179.978 176.819 180.061 177.072 180.061 177.45H186.061C186.061 176.077 185.728 174.753 185.018 173.555L179.856 176.613ZM180.061 177.45C180.061 177.827 179.978 178.092 179.848 178.313L185.026 181.345C185.728 180.145 186.061 178.823 186.061 177.45H180.061ZM179.856 178.3C179.719 178.53 179.545 178.704 179.28 178.849L182.162 184.111C183.353 183.459 184.323 182.532 185.018 181.358L179.856 178.3ZM179.267 178.856C179.034 178.985 178.732 179.078 178.29 179.078V185.078C179.65 185.078 180.969 184.772 182.175 184.104L179.267 178.856ZM178.29 184.22C179.473 184.22 180.628 183.951 181.69 183.365L178.79 178.113C178.69 178.168 178.546 178.22 178.29 178.22V184.22ZM181.72 183.349C182.761 182.758 183.605 181.926 184.205 180.884L179.005 177.89C178.946 177.992 178.88 178.061 178.76 178.129L181.72 183.349ZM184.214 180.867C184.816 179.806 185.099 178.645 185.099 177.45H179.099C179.099 177.677 179.052 177.807 178.995 177.907L184.214 180.867ZM185.099 177.45C185.099 176.256 184.816 175.091 184.205 174.029L179.005 177.023C179.052 177.105 179.099 177.223 179.099 177.45H185.099ZM184.214 174.046C183.614 172.987 182.759 172.138 181.69 171.548L178.79 176.8C178.882 176.851 178.937 176.904 178.995 177.006L184.214 174.046ZM181.72 171.564C180.653 170.959 179.487 170.68 178.29 170.68V176.68C178.532 176.68 178.665 176.73 178.76 176.784L181.72 171.564ZM178.29 170.68C177.093 170.68 175.929 170.96 174.863 171.555L177.79 176.793C177.903 176.73 178.048 176.68 178.29 176.68V170.68ZM174.877 171.548C173.815 172.134 172.963 172.974 172.356 174.017L177.542 177.035C177.611 176.917 177.678 176.855 177.777 176.8L174.877 171.548ZM172.349 174.029C171.738 175.091 171.455 176.256 171.455 177.45H177.455C177.455 177.223 177.502 177.105 177.549 177.023L172.349 174.029ZM171.455 177.45C171.455 178.645 171.738 179.806 172.339 180.867L177.558 177.907C177.502 177.807 177.455 177.677 177.455 177.45H171.455ZM172.366 180.913C172.972 181.939 173.813 182.762 174.847 183.349L177.807 178.129C177.68 178.057 177.602 177.979 177.532 177.861L172.366 180.913ZM174.893 183.374C175.954 183.951 177.107 184.22 178.29 184.22V178.22C178.034 178.22 177.879 178.168 177.761 178.104L174.893 183.374Z" fill="white"/>
</svg>
