<svg width="328" height="329" viewBox="0 0 328 329" fill="none" xmlns="http://www.w3.org/2000/svg">
<path d="M284.369 299.663H43.6311V58.9255H62.0222V28.707H150.898V58.9255H284.369V299.663Z" fill="white"/>
<path d="M44.2622 125.485H61.391V76.6864H83.1271V59.5576H44.2622V125.485Z" fill="#D9DEEE"/>
<path d="M161.387 59.5576H123.545V76.6864H161.387V59.5576Z" fill="#D9DEEE"/>
<path d="M61.391 189.595H44.2622V212.505H61.391V189.595Z" fill="#D9DEEE"/>
<path d="M165.54 76.6864H266.609V125.485H283.738V59.5576H165.54V76.6864Z" fill="#D9DEEE"/>
<path d="M164.278 58.2946V77.948H265.347V126.747H283.738V144.822H265.347V170.257H283.738V188.383H265.347V213.817H283.738V231.893H265.347V280.679H62.6533V231.842H44.2623V213.767H62.6533V188.383H44.2623V170.257H62.6533V144.822H44.2623V126.747H62.6533V77.948H84.3894V68.7461H87.5451V67.4838H84.3894V58.2946H62.6533V29.3384H125.047V58.2946H122.282V67.4838H119.127V68.7461H122.282V77.948H162.675V58.2946H151.554V28.0762H61.3911V58.2946H43V300.295H285V58.2946H164.278ZM126.309 29.3384H130.096V58.2946H126.309V29.3384ZM161.387 76.6857H123.519V59.5569H161.387V76.6857ZM141.456 58.2946V29.3384H145.243V58.2946H141.456ZM140.194 58.2946H136.407V29.3384H140.194V58.2946ZM135.145 58.2946H131.358V29.3384H135.145V58.2946ZM150.292 58.2946H146.505V29.3384H150.292V58.2946ZM83.1272 76.6857H61.3911V125.485H44.2623V59.5569H83.1272V76.6857ZM61.3911 168.995H44.2623V146.085H61.3911V168.995ZM61.3911 212.505H44.2623V189.645H61.3911V212.505ZM283.738 236.576V299.032H44.2623V233.105H61.3911V281.891H266.609V233.105H283.738V236.576ZM266.609 189.645H283.738V212.555H266.609V189.645ZM266.609 146.135H283.738V169.045H266.609V146.135ZM283.738 125.535H266.609V76.6857H165.54V59.5569H283.738V125.535Z" fill="#00229A"/>
<path d="M61.391 146.085H44.2622V168.995H61.391V146.085Z" fill="#D9DEEE"/>
<path d="M283.738 146.085H266.609V168.995H283.738V146.085Z" fill="#D9DEEE"/>
<path d="M266.609 281.903H61.391V233.104H44.2622V299.032H283.738V236.576V233.104H266.609V281.903Z" fill="#D9DEEE"/>
<path d="M283.738 189.595H266.609V212.505H283.738V189.595Z" fill="#D9DEEE"/>
<path d="M112.803 67.4834H106.491V68.7457H112.803V67.4834Z" fill="#00229A"/>
<path d="M100.168 67.4834H93.8564V68.7457H100.168V67.4834Z" fill="#00229A"/>
<path d="M107.888 166.976C109.049 166.976 109.959 167.254 110.618 167.808C111.277 168.363 111.606 169.126 111.606 170.096C111.606 171.067 111.277 171.83 110.618 172.384C109.959 172.93 109.049 173.203 107.888 173.203H105.444V176.076H104.482V166.976H107.888ZM107.862 172.358C108.763 172.358 109.452 172.163 109.929 171.773C110.406 171.375 110.644 170.816 110.644 170.096C110.644 169.36 110.406 168.796 109.929 168.406C109.452 168.008 108.763 167.808 107.862 167.808H105.444V172.358H107.862ZM113.426 166.976H114.388V176.076H113.426V166.976ZM129.48 166.976L126.412 176.076H125.398L122.733 168.315L120.055 176.076H119.054L115.986 166.976H116.974L119.6 174.802L122.317 166.976H123.214L125.892 174.841L128.557 166.976H129.48ZM138.589 166.976V176.076H137.796L131.946 168.692V176.076H130.984V166.976H131.777L137.64 174.36V166.976H138.589ZM141.299 166.976H142.261V176.076H141.299V166.976ZM148.914 176.154C148.013 176.154 147.198 175.955 146.47 175.556C145.751 175.158 145.183 174.607 144.767 173.905C144.36 173.195 144.156 172.402 144.156 171.526C144.156 170.651 144.36 169.862 144.767 169.16C145.183 168.45 145.755 167.895 146.483 167.496C147.211 167.098 148.026 166.898 148.927 166.898C149.603 166.898 150.227 167.011 150.799 167.236C151.371 167.462 151.857 167.791 152.255 168.224L151.644 168.835C150.934 168.116 150.037 167.756 148.953 167.756C148.234 167.756 147.58 167.921 146.99 168.25C146.401 168.58 145.937 169.03 145.599 169.602C145.27 170.174 145.105 170.816 145.105 171.526C145.105 172.237 145.27 172.878 145.599 173.45C145.937 174.022 146.401 174.473 146.99 174.802C147.58 175.132 148.234 175.296 148.953 175.296C150.045 175.296 150.942 174.932 151.644 174.204L152.255 174.815C151.857 175.249 151.367 175.582 150.786 175.816C150.214 176.042 149.59 176.154 148.914 176.154ZM159.525 173.645H154.455L153.363 176.076H152.362L156.522 166.976H157.471L161.631 176.076H160.617L159.525 173.645ZM159.174 172.865L156.99 167.977L154.806 172.865H159.174ZM107.888 181.976C109.049 181.976 109.959 182.254 110.618 182.808C111.277 183.363 111.606 184.126 111.606 185.096C111.606 186.067 111.277 186.83 110.618 187.384C109.959 187.93 109.049 188.203 107.888 188.203H105.444V191.076H104.482V181.976H107.888ZM107.862 187.358C108.763 187.358 109.452 187.163 109.929 186.773C110.406 186.375 110.644 185.816 110.644 185.096C110.644 184.36 110.406 183.796 109.929 183.406C109.452 183.008 108.763 182.808 107.862 182.808H105.444V187.358H107.862ZM119.64 191.076L117.56 188.151C117.326 188.177 117.083 188.19 116.832 188.19H114.388V191.076H113.426V181.976H116.832C117.993 181.976 118.903 182.254 119.562 182.808C120.221 183.363 120.55 184.126 120.55 185.096C120.55 185.807 120.368 186.409 120.004 186.903C119.649 187.389 119.137 187.74 118.47 187.956L120.693 191.076H119.64ZM116.806 187.371C117.707 187.371 118.396 187.172 118.873 186.773C119.35 186.375 119.588 185.816 119.588 185.096C119.588 184.36 119.35 183.796 118.873 183.406C118.396 183.008 117.707 182.808 116.806 182.808H114.388V187.371H116.806ZM129.126 190.244V191.076H121.664V190.413L127.696 182.808H121.755V181.976H128.97V182.639L122.951 190.244H129.126ZM137.203 190.244V191.076H130.768V181.976H137.008V182.808H131.73V186.045H136.436V186.864H131.73V190.244H137.203ZM139.205 181.976H142.91C143.872 181.976 144.721 182.171 145.458 182.561C146.194 182.943 146.766 183.48 147.174 184.173C147.581 184.858 147.785 185.642 147.785 186.526C147.785 187.41 147.581 188.199 147.174 188.892C146.766 189.577 146.194 190.114 145.458 190.504C144.721 190.886 143.872 191.076 142.91 191.076H139.205V181.976ZM142.858 190.244C143.655 190.244 144.353 190.088 144.951 189.776C145.549 189.456 146.012 189.018 146.342 188.463C146.671 187.9 146.836 187.254 146.836 186.526C146.836 185.798 146.671 185.157 146.342 184.602C146.012 184.039 145.549 183.601 144.951 183.289C144.353 182.969 143.655 182.808 142.858 182.808H140.167V190.244H142.858ZM159.392 190.244V191.076H151.93V190.413L157.962 182.808H152.021V181.976H159.236V182.639L153.217 190.244H159.392ZM170.486 181.976V191.076H169.563V183.796L165.988 189.919H165.533L161.958 183.835V191.076H161.035V181.976H161.828L165.78 188.723L169.693 181.976H170.486ZM173.191 181.976H174.153V191.076H173.191V181.976ZM182.561 188.645H177.491L176.399 191.076H175.398L179.558 181.976H180.507L184.667 191.076H183.653L182.561 188.645ZM182.21 187.865L180.026 182.977L177.842 187.865H182.21ZM193.517 181.976V191.076H192.724L186.874 183.692V191.076H185.912V181.976H186.705L192.568 189.36V181.976H193.517ZM201.934 188.645H196.864L195.772 191.076H194.771L198.931 181.976H199.88L204.04 191.076H203.026L201.934 188.645ZM201.583 187.865L199.399 182.977L197.215 187.865H201.583ZM214.737 181.976V191.076H213.814V183.796L210.239 189.919H209.784L206.209 183.835V191.076H205.286V181.976H206.079L210.031 188.723L213.944 181.976H214.737ZM217.442 181.976H218.404V191.076H217.442V181.976Z" fill="#00229A"/>
</svg>
