<svg width="328" height="329" viewBox="0 0 328 329" fill="none" xmlns="http://www.w3.org/2000/svg">
<path d="M284.369 299.663H43.6311V58.9255H62.0222V28.707H150.898V58.9255H284.369V299.663Z" fill="white"/>
<path d="M44.2623 125.485H61.3911V76.6864H83.1272V59.5576H44.2623V125.485Z" fill="#D9DEEE"/>
<path d="M161.387 59.5576H123.545V76.6864H161.387V59.5576Z" fill="#D9DEEE"/>
<path d="M61.3911 189.595H44.2623V212.505H61.3911V189.595Z" fill="#D9DEEE"/>
<path d="M165.54 76.6864H266.609V125.485H283.738V59.5576H165.54V76.6864Z" fill="#D9DEEE"/>
<path d="M164.278 58.2946V77.948H265.347V126.747H283.738V144.822H265.347V170.257H283.738V188.383H265.347V213.817H283.738V231.893H265.347V280.679H62.6533V231.842H44.2623V213.767H62.6533V188.383H44.2623V170.257H62.6533V144.822H44.2623V126.747H62.6533V77.948H84.3894V68.7461H87.5451V67.4838H84.3894V58.2946H62.6533V29.3384H125.047V58.2946H122.282V67.4838H119.127V68.7461H122.282V77.948H162.675V58.2946H151.554V28.0762H61.3911V58.2946H43V300.295H285V58.2946H164.278ZM126.309 29.3384H130.096V58.2946H126.309V29.3384ZM161.387 76.6857H123.519V59.5569H161.387V76.6857ZM141.456 58.2946V29.3384H145.243V58.2946H141.456ZM140.194 58.2946H136.407V29.3384H140.194V58.2946ZM135.145 58.2946H131.358V29.3384H135.145V58.2946ZM150.292 58.2946H146.505V29.3384H150.292V58.2946ZM83.1272 76.6857H61.3911V125.485H44.2623V59.5569H83.1272V76.6857ZM61.3911 168.995H44.2623V146.085H61.3911V168.995ZM61.3911 212.505H44.2623V189.645H61.3911V212.505ZM283.738 236.576V299.032H44.2623V233.105H61.3911V281.891H266.609V233.105H283.738V236.576ZM266.609 189.645H283.738V212.555H266.609V189.645ZM266.609 146.135H283.738V169.045H266.609V146.135ZM283.738 125.535H266.609V76.6857H165.54V59.5569H283.738V125.535Z" fill="#00229A"/>
<path d="M61.3911 146.085H44.2623V168.995H61.3911V146.085Z" fill="#D9DEEE"/>
<path d="M283.738 146.085H266.609V168.995H283.738V146.085Z" fill="#D9DEEE"/>
<path d="M266.609 281.903H61.3911V233.104H44.2623V299.032H283.738V236.576V233.104H266.609V281.903Z" fill="#D9DEEE"/>
<path d="M283.738 189.595H266.609V212.505H283.738V189.595Z" fill="#D9DEEE"/>
<path d="M112.803 67.4834H106.492V68.7457H112.803V67.4834Z" fill="#00229A"/>
<path d="M100.168 67.4834H93.8563V68.7457H100.168V67.4834Z" fill="#00229A"/>
<path d="M112.191 166.976V176.076H111.242V167.808H105.483V176.076H104.534V166.976H112.191ZM115.002 166.976H115.951V176.076H115.002V166.976ZM126.973 175.244V178.117H126.076V176.076H118.133L118.12 178.117H117.223L117.236 175.244H117.691C118.289 175.21 118.705 174.737 118.939 173.827C119.173 172.909 119.316 171.609 119.368 169.927L119.472 166.976H125.608V175.244H126.973ZM120.226 170.018C120.182 171.405 120.074 172.549 119.901 173.45C119.736 174.343 119.454 174.941 119.056 175.244H124.659V167.808H120.304L120.226 170.018ZM134.07 171.383C134.703 171.513 135.184 171.769 135.513 172.15C135.842 172.523 136.007 173.013 136.007 173.619C136.007 174.408 135.725 175.015 135.162 175.439C134.607 175.864 133.788 176.076 132.705 176.076H128.675V166.976H132.458C133.429 166.976 134.187 167.176 134.733 167.574C135.279 167.973 135.552 168.549 135.552 169.303C135.552 169.815 135.422 170.248 135.162 170.603C134.902 170.95 134.538 171.21 134.07 171.383ZM129.624 171.097H132.406C133.108 171.097 133.645 170.954 134.018 170.668C134.399 170.382 134.59 169.966 134.59 169.42C134.59 168.874 134.399 168.458 134.018 168.172C133.645 167.886 133.108 167.743 132.406 167.743H129.624V171.097ZM132.705 175.309C134.274 175.309 135.058 174.724 135.058 173.554C135.058 172.41 134.274 171.838 132.705 171.838H129.624V175.309H132.705ZM143.976 173.645H138.906L137.814 176.076H136.813L140.973 166.976H141.922L146.082 176.076H145.068L143.976 173.645ZM143.625 172.865L141.441 167.977L139.257 172.865H143.625ZM154.728 166.976V176.076H153.779V167.808H149.385L149.281 170.85C149.238 172.107 149.134 173.121 148.969 173.892C148.813 174.655 148.571 175.227 148.241 175.608C147.912 175.981 147.474 176.167 146.928 176.167C146.694 176.167 146.452 176.137 146.2 176.076L146.278 175.218C146.426 175.253 146.569 175.27 146.707 175.27C147.089 175.27 147.396 175.119 147.63 174.815C147.873 174.512 148.055 174.044 148.176 173.411C148.298 172.77 148.38 171.925 148.423 170.876L148.553 166.976H154.728ZM169.04 175.244V178.117H168.143V176.076H160.2L160.187 178.117H159.29L159.303 175.244H159.758C160.356 175.21 160.772 174.737 161.006 173.827C161.24 172.909 161.383 171.609 161.435 169.927L161.539 166.976H167.675V175.244H169.04ZM162.293 170.018C162.249 171.405 162.141 172.549 161.968 173.45C161.803 174.343 161.521 174.941 161.123 175.244H166.726V167.808H162.371L162.293 170.018ZM174.733 176.154C173.832 176.154 173.013 175.955 172.276 175.556C171.548 175.149 170.976 174.594 170.56 173.892C170.153 173.19 169.949 172.402 169.949 171.526C169.949 170.651 170.153 169.862 170.56 169.16C170.976 168.458 171.548 167.908 172.276 167.509C173.013 167.102 173.832 166.898 174.733 166.898C175.634 166.898 176.445 167.098 177.164 167.496C177.892 167.895 178.464 168.45 178.88 169.16C179.296 169.862 179.504 170.651 179.504 171.526C179.504 172.402 179.296 173.195 178.88 173.905C178.464 174.607 177.892 175.158 177.164 175.556C176.445 175.955 175.634 176.154 174.733 176.154ZM174.733 175.296C175.452 175.296 176.102 175.136 176.683 174.815C177.264 174.486 177.719 174.035 178.048 173.463C178.377 172.883 178.542 172.237 178.542 171.526C178.542 170.816 178.377 170.174 178.048 169.602C177.719 169.022 177.264 168.571 176.683 168.25C176.102 167.921 175.452 167.756 174.733 167.756C174.014 167.756 173.359 167.921 172.77 168.25C172.189 168.571 171.73 169.022 171.392 169.602C171.063 170.174 170.898 170.816 170.898 171.526C170.898 172.237 171.063 172.883 171.392 173.463C171.73 174.035 172.189 174.486 172.77 174.815C173.359 175.136 174.014 175.296 174.733 175.296ZM108.525 191.154C107.624 191.154 106.805 190.955 106.068 190.556C105.34 190.149 104.768 189.594 104.352 188.892C103.945 188.19 103.741 187.402 103.741 186.526C103.741 185.651 103.945 184.862 104.352 184.16C104.768 183.458 105.34 182.908 106.068 182.509C106.805 182.102 107.624 181.898 108.525 181.898C109.426 181.898 110.237 182.098 110.956 182.496C111.684 182.895 112.256 183.45 112.672 184.16C113.088 184.862 113.296 185.651 113.296 186.526C113.296 187.402 113.088 188.195 112.672 188.905C112.256 189.607 111.684 190.158 110.956 190.556C110.237 190.955 109.426 191.154 108.525 191.154ZM108.525 190.296C109.244 190.296 109.894 190.136 110.475 189.815C111.056 189.486 111.511 189.035 111.84 188.463C112.169 187.883 112.334 187.237 112.334 186.526C112.334 185.816 112.169 185.174 111.84 184.602C111.511 184.022 111.056 183.571 110.475 183.25C109.894 182.921 109.244 182.756 108.525 182.756C107.806 182.756 107.151 182.921 106.562 183.25C105.981 183.571 105.522 184.022 105.184 184.602C104.855 185.174 104.69 185.816 104.69 186.526C104.69 187.237 104.855 187.883 105.184 188.463C105.522 189.035 105.981 189.486 106.562 189.815C107.151 190.136 107.806 190.296 108.525 190.296ZM115.332 181.976H121.988V182.795H116.281V185.772H119.258C120.332 185.772 121.147 185.993 121.702 186.435C122.265 186.877 122.547 187.519 122.547 188.359C122.547 189.235 122.243 189.906 121.637 190.374C121.039 190.842 120.176 191.076 119.05 191.076H115.332V181.976ZM119.037 190.309C119.877 190.309 120.51 190.149 120.935 189.828C121.368 189.508 121.585 189.031 121.585 188.398C121.585 187.774 121.372 187.311 120.948 187.007C120.532 186.695 119.895 186.539 119.037 186.539H116.281V190.309H119.037ZM131.413 181.976V191.076H130.464V182.808H126.07L125.966 185.85C125.922 187.107 125.818 188.121 125.654 188.892C125.498 189.655 125.255 190.227 124.926 190.608C124.596 190.981 124.159 191.167 123.613 191.167C123.379 191.167 123.136 191.137 122.885 191.076L122.963 190.218C123.11 190.253 123.253 190.27 123.392 190.27C123.773 190.27 124.081 190.119 124.315 189.815C124.557 189.512 124.739 189.044 124.861 188.411C124.982 187.77 125.064 186.925 125.108 185.876L125.238 181.976H131.413ZM140.047 188.645H134.977L133.885 191.076H132.884L137.044 181.976H137.993L142.153 191.076H141.139L140.047 188.645ZM139.696 187.865L137.512 182.977L135.328 187.865H139.696ZM154.791 181.976V191.076H143.637V181.976H144.586V190.244H148.746V181.976H149.695V190.244H153.842V181.976H154.791ZM163.549 182.808H160.351V191.076H159.402V182.808H156.204V181.976H163.549V182.808ZM171.734 181.976L167.6 189.633C167.306 190.179 166.959 190.587 166.56 190.855C166.17 191.115 165.741 191.245 165.273 191.245C164.927 191.245 164.554 191.163 164.155 190.998L164.428 190.218C164.74 190.34 165.026 190.4 165.286 190.4C165.884 190.4 166.374 190.075 166.755 189.425L167.015 188.983L163.323 181.976H164.35L167.522 188.138L170.772 181.976H171.734ZM178.365 186.383C178.998 186.513 179.479 186.769 179.808 187.15C180.137 187.523 180.302 188.013 180.302 188.619C180.302 189.408 180.02 190.015 179.457 190.439C178.902 190.864 178.083 191.076 177 191.076H172.97V181.976H176.753C177.724 181.976 178.482 182.176 179.028 182.574C179.574 182.973 179.847 183.549 179.847 184.303C179.847 184.815 179.717 185.248 179.457 185.603C179.197 185.95 178.833 186.21 178.365 186.383ZM173.919 186.097H176.701C177.403 186.097 177.94 185.954 178.313 185.668C178.694 185.382 178.885 184.966 178.885 184.42C178.885 183.874 178.694 183.458 178.313 183.172C177.94 182.886 177.403 182.743 176.701 182.743H173.919V186.097ZM177 190.309C178.569 190.309 179.353 189.724 179.353 188.554C179.353 187.41 178.569 186.838 177 186.838H173.919V190.309H177ZM188.271 188.645H183.201L182.109 191.076H181.108L185.268 181.976H186.217L190.377 191.076H189.363L188.271 188.645ZM187.92 187.865L185.736 182.977L183.552 187.865H187.92ZM199.466 181.976V191.076H198.517V186.877H192.823V191.076H191.861V181.976H192.823V186.032H198.517V181.976H199.466ZM209.883 181.976V191.076H208.934V186.877H203.24V191.076H202.278V181.976H203.24V186.032H208.934V181.976H209.883ZM219.143 181.976V191.076H218.194V188.32H215.477C215.355 188.32 215.182 188.312 214.957 188.294L213.046 191.076H212.019L214.086 188.125C213.418 187.926 212.907 187.575 212.552 187.072C212.196 186.561 212.019 185.937 212.019 185.2C212.019 184.178 212.339 183.385 212.981 182.821C213.631 182.258 214.506 181.976 215.607 181.976H219.143ZM212.981 185.174C212.981 185.92 213.197 186.496 213.631 186.903C214.073 187.302 214.714 187.501 215.555 187.501H218.194V182.808H215.646C214.796 182.808 214.138 183.012 213.67 183.419C213.21 183.818 212.981 184.403 212.981 185.174Z" fill="#00229A"/>
</svg>
