<svg width="328" height="328" viewBox="0 0 328 328" fill="none" xmlns="http://www.w3.org/2000/svg">
<path d="M67.6401 73.2002V207.43H158.47V87.5702L130.78 73.2002H67.6401Z" fill="#6071AD"/>
<path d="M80.0801 277.87V277.45H66.6401V277.44V208.43V207.43V72.7002V72.2002V69.7002V63.0302V56.3602V49.6902V43.0202V41.2002H40.5601V79.1702H50.2801V97.4902H33.8701V269.22V277.45H19.8301V300.17H80.0801V277.87Z" fill="white"/>
<path d="M49.28 80.1699H40.56H1V96.0499V96.4899H49.28V80.1699Z" fill="white"/>
<path d="M68.8301 27.8602H70.2701L69.0801 26.6702H128.96L127.76 27.8602H129.2L130.9 26.1702L129.2 24.4702H127.76L128.96 25.6702H69.0801L70.2701 24.4702H68.8301L67.1401 26.1702L68.8301 27.8602Z" fill="#00229A"/>
<path d="M67.6399 29.6699H66.6399V36.3399H67.6399V29.6699Z" fill="#00229A"/>
<path d="M67.6399 20H66.6399V23H67.6399V20Z" fill="#00229A"/>
<path d="M131.4 69.71H130.4V72.21H67.64V40.21H39.56V79.21H0V97.49H32.87V269.22H0V285L12.16 285.22L12.27 308.38H87L86.89 269.18H75.14L74.81 215.43L158.97 215.65H159.47V87L131.4 72.4V69.71ZM67.64 208.43H69.58L67.64 210.37V208.43ZM67.64 213.92L73.13 208.43H75.25L67.64 216V213.92ZM67.64 225.25L73.84 219.06V221.17L67.63 227.38L67.64 225.25ZM67.64 230.92L73.87 224.69V226.8L67.64 233V230.92ZM67.64 236.59L73.9 230.33V232.44L67.62 238.71L67.64 236.59ZM67.64 242.26L73.94 235.96V238.07L67.63 244.38L67.64 242.26ZM67.64 247.93L74 241.6V243.71L67.66 250.05L67.64 247.93ZM67.64 253.6L74 247.23V249.34L67.62 255.72L67.64 253.6ZM67.64 259.27L74.04 252.87V255L67.63 261.41L67.64 259.27ZM67.64 264.94L74.07 258.51V260.61L67.62 267.06L67.64 264.94ZM67.64 270.61L74.11 264.14V266.25L67.63 272.73L67.64 270.61ZM1 96.49V80.17H49.28V96.49H1ZM19.83 277.49H33.83V97.49H50.28V79.17H40.56V41.17H66.64V277.44H80.08V300.16H19.83V277.49ZM1 280.55L3.67 277.88H5.79L1 282.68V280.55ZM3.13 284.1L9.34 277.88H11.46L5.21 284.13L3.13 284.1ZM10.78 284.24H8.7L15 277.88H17.12L10.78 284.24ZM13.16 285.4L18.83 279.73V281.86L13.17 287.51L13.16 285.4ZM13.16 291.04L18.8 285.4V287.53L13.17 293.15L13.16 291.04ZM13.16 296.69L18.77 291.07V293.19L13.17 298.8L13.16 296.69ZM13.16 302.33L18.75 296.74V298.86L13.17 304.44L13.16 302.33ZM13.74 307.42L19.99 301.17H22.11L15.86 307.42H13.74ZM19.41 307.42L25.66 301.17H27.78L21.53 307.42H19.41ZM25.07 307.42L31.33 301.17H33.45L27.2 307.42H25.07ZM30.74 307.42L36.99 301.17H39.2L32.94 307.42H30.74ZM36.41 307.42L42.66 301.17H44.78L38.53 307.42H36.41ZM42.08 307.42L48.33 301.17H50.45L44.2 307.42H42.08ZM47.75 307.42L54 301.17H56.2L50 307.42H47.75ZM53.42 307.42L59.67 301.17H61.79L55.54 307.42H53.42ZM59.09 307.42L65.34 301.17H67.46L61.21 307.42H59.09ZM64.76 307.42L71.01 301.17H73.13L67 307.42H64.76ZM70.43 307.42L76.68 301.17H78.8L72.55 307.42H70.43ZM86 305.37L84 307.42H81.85L86 303.25V305.37ZM86 299.72L78.29 307.42H76.18L86 297.6V299.72ZM86 294.06L81.08 299V296.88L86 292V294.06ZM86 288.41L81.11 293.31V291.19L86 286.29V288.41ZM86 282.76L81.12 287.64V285.52L86 280.64V282.76ZM86 277.1L81.08 282V279.88L85.94 275L86 277.1ZM86 270.22V271.45L81 276.45H78.8L85 270.22H86ZM81.57 270.22L75.33 276.45H73.13L79.37 270.22H81.57ZM75.9 270.22L69.66 276.45H67.64V276.28L74.14 269.78V270.22H75.9ZM74.39 214.47H73.89V215.53L67.72 221.71V219.59L78.8 208.43H80.92L74.92 214.43L74.39 214.47ZM78.49 214.47L84.55 208.47H86.67L80.61 214.53L78.49 214.47ZM84.15 214.47L90.22 208.4H92.34L86.26 214.47H84.15ZM89.8 214.47L95.89 208.39H98.01L91.92 214.48L89.8 214.47ZM95.46 214.47L101.56 208.37H103.68L97.57 214.47H95.46ZM101.11 214.47L107.22 208.36H109.35L103.22 214.48L101.11 214.47ZM106.76 214.47L112.89 208.34H115.02L108.88 214.47H106.76ZM112.42 214.47L118.56 208.33H120.68L114.53 214.48L112.42 214.47ZM118.07 214.47L124.23 208.31H126.35L120.19 214.47H118.07ZM123.73 214.47L129.9 208.3H132.02L125.84 214.48L123.73 214.47ZM129.38 214.47L135.57 208.28H137.69L131.5 214.47H129.38ZM135.04 214.47L141.24 208.27H143.36L137.15 214.48L135.04 214.47ZM140.69 214.47L146.91 208.26H149L142.78 214.48L140.69 214.47ZM146.35 214.47L152.58 208.24H154.7L148.46 214.48L146.35 214.47ZM158.55 214.47H157.65L158.55 213.57V214.47ZM158.55 210.02L154 214.68H151.88L158.13 208.44H158.43L158.55 210.02ZM158.55 87.35V207.43H67.64V73.21H130.78L158.55 87.35Z" fill="#00229A"/>
<path d="M131.4 56.3599H130.4V63.0299H131.4V56.3599Z" fill="#00229A"/>
<path d="M131.4 43.02H130.4V49.69H131.4V43.02Z" fill="#00229A"/>
<path d="M131.4 29.6699H130.4V36.3399H131.4V29.6699Z" fill="#00229A"/>
<path d="M131.4 20H130.4V23H131.4V20Z" fill="#00229A"/>
<path d="M220.55 207.43L189.35 190V215.66H225.92V207.41L220.55 207.43ZM190.35 191.72L218.49 207.43H190.35V191.72ZM190.35 209.2L191.12 208.43H193.24L190.35 211.32V209.2ZM190.54 214.68L196.79 208.43H198.91L192.66 214.68H190.54ZM196.21 214.68L202.46 208.43H204.58L198.33 214.68H196.21ZM201.88 214.68L208.13 208.43H210.25L204 214.68H201.88ZM207.55 214.68L213.8 208.43H215.92L209.67 214.68H207.55ZM213.22 214.68L219.47 208.43H221.59L215.34 214.68H213.22ZM224.92 214.68H224.56L224.92 214.32V214.68ZM224.92 210.77L221 214.68H218.88L224.88 208.68L224.92 210.77Z" fill="#00229A"/>
<path d="M190.35 191.72V207.43H218.49L190.35 191.72Z" fill="#6071AD"/>
<path d="M171.08 214.63H165.08V215.63H171.08V214.63Z" fill="#00229A"/>
<path d="M183.08 214.63H177.08V215.63H183.08V214.63Z" fill="#00229A"/>
<path d="M183.08 207.54H177.08V208.54H183.08V207.54Z" fill="#00229A"/>
<path d="M171.08 207.54H165.08V208.54H171.08V207.54Z" fill="#00229A"/>
<path d="M183.08 200.46H177.08V201.46H183.08V200.46Z" fill="#00229A"/>
<path d="M171.08 200.46H165.08V201.46H171.08V200.46Z" fill="#00229A"/>
<path d="M171.08 193.37H165.08V194.37H171.08V193.37Z" fill="#00229A"/>
<path d="M183.08 193.37H177.08V194.37H183.08V193.37Z" fill="#00229A"/>
<path d="M183.08 186.28H177.08V187.28H183.08V186.28Z" fill="#00229A"/>
<path d="M171.08 186.28H165.08V187.28H171.08V186.28Z" fill="#00229A"/>
<path d="M183.08 179.2H177.08V180.2H183.08V179.2Z" fill="#00229A"/>
<path d="M171.08 179.2H165.08V180.2H171.08V179.2Z" fill="#00229A"/>
<path d="M171.08 172.11H165.08V173.11H171.08V172.11Z" fill="#00229A"/>
<path d="M183.08 172.11H177.08V173.11H183.08V172.11Z" fill="#00229A"/>
<path d="M183.08 165.02H177.08V166.02H183.08V165.02Z" fill="#00229A"/>
<path d="M171.08 165.02H165.08V166.02H171.08V165.02Z" fill="#00229A"/>
<path d="M183.08 157.94H177.08V158.94H183.08V157.94Z" fill="#00229A"/>
<path d="M171.08 157.94H165.08V158.94H171.08V157.94Z" fill="#00229A"/>
<path d="M183.08 150.85H177.08V151.85H183.08V150.85Z" fill="#00229A"/>
<path d="M171.08 150.85H165.08V151.85H171.08V150.85Z" fill="#00229A"/>
<path d="M171.08 143.76H165.08V144.76H171.08V143.76Z" fill="#00229A"/>
<path d="M183.08 143.76H177.08V144.76H183.08V143.76Z" fill="#00229A"/>
<path d="M171.08 136.68H165.08V137.68H171.08V136.68Z" fill="#00229A"/>
<path d="M183.08 136.68H177.08V137.68H183.08V136.68Z" fill="#00229A"/>
<path d="M171.08 129.59H165.08V130.59H171.08V129.59Z" fill="#00229A"/>
<path d="M183.08 129.59H177.08V130.59H183.08V129.59Z" fill="#00229A"/>
<path d="M171.08 122.5H165.08V123.5H171.08V122.5Z" fill="#00229A"/>
<path d="M183.08 122.5H177.08V123.5H183.08V122.5Z" fill="#00229A"/>
<path d="M171.08 115.42H165.08V116.42H171.08V115.42Z" fill="#00229A"/>
<path d="M183.08 115.42H177.08V116.42H183.08V115.42Z" fill="#00229A"/>
<path d="M171.08 108.33H165.08V109.33H171.08V108.33Z" fill="#00229A"/>
<path d="M183.08 108.33H177.08V109.33H183.08V108.33Z" fill="#00229A"/>
<path d="M171.08 101.25H165.08V102.25H171.08V101.25Z" fill="#00229A"/>
<path d="M183.08 101.25H177.08V102.25H183.08V101.25Z" fill="#00229A"/>
<path d="M183.08 94.1602H177.08V95.1602H183.08V94.1602Z" fill="#00229A"/>
<path d="M171.08 94.1602H165.08V95.1602H171.08V94.1602Z" fill="#00229A"/>
<path d="M183.08 87.0698H177.08V88.0698H183.08V87.0698Z" fill="#00229A"/>
<path d="M171.08 87.0698H165.08V88.0698H171.08V87.0698Z" fill="#00229A"/>
<path d="M183.08 79.9902H177.08V80.9902H183.08V79.9902Z" fill="#00229A"/>
<path d="M171.08 79.9902H165.08V80.9902H171.08V79.9902Z" fill="#00229A"/>
<path d="M171.08 72.8999H165.08V73.8999H171.08V72.8999Z" fill="#00229A"/>
<path d="M183.08 72.8999H177.08V73.8999H183.08V72.8999Z" fill="#00229A"/>
<path d="M88.472 11.9V12.563L84.663 21H83.649L87.393 12.732H82.713V14.435H81.79V11.9H88.472ZM91.5961 15.631C92.9134 15.631 93.8711 15.8693 94.4691 16.346C95.0757 16.814 95.3791 17.4727 95.3791 18.322C95.3791 18.8507 95.2534 19.323 95.0021 19.739C94.7594 20.155 94.3911 20.4843 93.8971 20.727C93.4031 20.961 92.7964 21.078 92.0771 21.078C91.4271 21.078 90.8074 20.974 90.2181 20.766C89.6374 20.5493 89.1694 20.2633 88.8141 19.908L89.2691 19.167C89.5724 19.479 89.9711 19.7347 90.4651 19.934C90.9591 20.1247 91.4921 20.22 92.0641 20.22C92.8181 20.22 93.3987 20.051 93.8061 19.713C94.2221 19.375 94.4301 18.9243 94.4301 18.361C94.4301 17.737 94.1961 17.2647 93.7281 16.944C93.2687 16.6233 92.4887 16.463 91.3881 16.463H89.4511L89.9191 11.9H94.8981V12.732H90.7381L90.4261 15.631H91.5961ZM102.895 21.065C102.219 21.065 101.612 20.9177 101.075 20.623C100.546 20.3283 100.13 19.9167 99.8267 19.388C99.5234 18.8507 99.3717 18.2483 99.3717 17.581C99.3717 16.9137 99.5234 16.3157 99.8267 15.787C100.13 15.2583 100.546 14.8467 101.075 14.552C101.612 14.2573 102.219 14.11 102.895 14.11C103.484 14.11 104.008 14.227 104.468 14.461C104.936 14.6863 105.304 15.02 105.573 15.462L104.884 15.93C104.658 15.592 104.372 15.3407 104.026 15.176C103.679 15.0027 103.302 14.916 102.895 14.916C102.401 14.916 101.954 15.0287 101.556 15.254C101.166 15.4707 100.858 15.7827 100.633 16.19C100.416 16.5973 100.308 17.061 100.308 17.581C100.308 18.1097 100.416 18.5777 100.633 18.985C100.858 19.3837 101.166 19.6957 101.556 19.921C101.954 20.1377 102.401 20.246 102.895 20.246C103.302 20.246 103.679 20.1637 104.026 19.999C104.372 19.8343 104.658 19.583 104.884 19.245L105.573 19.713C105.304 20.155 104.936 20.493 104.468 20.727C104 20.9523 103.475 21.065 102.895 21.065ZM115.654 14.11C116.512 14.11 117.184 14.357 117.669 14.851C118.163 15.345 118.41 16.073 118.41 17.035V21H117.487V17.126C117.487 16.4153 117.314 15.8737 116.967 15.501C116.629 15.1283 116.148 14.942 115.524 14.942C114.813 14.942 114.254 15.163 113.847 15.605C113.44 16.0383 113.236 16.6407 113.236 17.412V21H112.313V17.126C112.313 16.4153 112.14 15.8737 111.793 15.501C111.455 15.1283 110.97 14.942 110.337 14.942C109.635 14.942 109.076 15.163 108.66 15.605C108.253 16.0383 108.049 16.6407 108.049 17.412V21H107.126V14.162H108.01V15.41C108.253 14.994 108.591 14.6733 109.024 14.448C109.457 14.2227 109.956 14.11 110.519 14.11C111.091 14.11 111.585 14.2313 112.001 14.474C112.426 14.7167 112.742 15.0763 112.95 15.553C113.201 15.1023 113.561 14.7513 114.029 14.5C114.506 14.24 115.047 14.11 115.654 14.11Z" fill="#00229A"/>
<path d="M117.975 230.9L114.907 240H113.893L111.228 232.239L108.55 240H107.549L104.481 230.9H105.469L108.095 238.726L110.812 230.9H111.709L114.387 238.765L117.052 230.9H117.975ZM121.155 233.11C122.048 233.11 122.733 233.335 123.209 233.786C123.686 234.228 123.924 234.887 123.924 235.762V240H123.04V238.934C122.832 239.289 122.525 239.567 122.117 239.766C121.719 239.965 121.242 240.065 120.687 240.065C119.925 240.065 119.318 239.883 118.867 239.519C118.417 239.155 118.191 238.674 118.191 238.076C118.191 237.495 118.399 237.027 118.815 236.672C119.24 236.317 119.912 236.139 120.83 236.139H123.001V235.723C123.001 235.134 122.837 234.687 122.507 234.384C122.178 234.072 121.697 233.916 121.064 233.916C120.631 233.916 120.215 233.99 119.816 234.137C119.418 234.276 119.075 234.471 118.789 234.722L118.373 234.033C118.72 233.738 119.136 233.513 119.621 233.357C120.107 233.192 120.618 233.11 121.155 233.11ZM120.83 239.337C121.35 239.337 121.797 239.22 122.169 238.986C122.542 238.743 122.819 238.397 123.001 237.946V236.828H120.856C119.686 236.828 119.101 237.235 119.101 238.05C119.101 238.449 119.253 238.765 119.556 238.999C119.86 239.224 120.284 239.337 120.83 239.337ZM130.994 239.233V240H125.43V239.389L129.733 233.942H125.508V233.162H130.916V233.773L126.613 239.233H130.994ZM128.212 231.797C128.039 231.797 127.892 231.736 127.77 231.615C127.649 231.494 127.588 231.346 127.588 231.173C127.588 231 127.649 230.852 127.77 230.731C127.892 230.61 128.039 230.549 128.212 230.549C128.386 230.549 128.533 230.61 128.654 230.731C128.776 230.852 128.836 231 128.836 231.173C128.836 231.346 128.776 231.494 128.654 231.615C128.533 231.736 128.386 231.797 128.212 231.797ZM136.035 233.11C136.893 233.11 137.573 233.361 138.076 233.864C138.587 234.358 138.843 235.082 138.843 236.035V240H137.92V236.126C137.92 235.415 137.742 234.874 137.387 234.501C137.032 234.128 136.525 233.942 135.866 233.942C135.129 233.942 134.544 234.163 134.111 234.605C133.686 235.038 133.474 235.641 133.474 236.412V240H132.551V233.162H133.435V234.423C133.686 234.007 134.033 233.686 134.475 233.461C134.926 233.227 135.446 233.11 136.035 233.11ZM147.068 236.867H141.348C141.4 237.578 141.673 238.154 142.167 238.596C142.661 239.029 143.285 239.246 144.039 239.246C144.464 239.246 144.854 239.172 145.209 239.025C145.565 238.869 145.872 238.644 146.132 238.349L146.652 238.947C146.349 239.311 145.968 239.588 145.508 239.779C145.058 239.97 144.559 240.065 144.013 240.065C143.311 240.065 142.687 239.918 142.141 239.623C141.604 239.32 141.184 238.904 140.88 238.375C140.577 237.846 140.425 237.248 140.425 236.581C140.425 235.914 140.568 235.316 140.854 234.787C141.149 234.258 141.548 233.847 142.05 233.552C142.562 233.257 143.134 233.11 143.766 233.11C144.399 233.11 144.967 233.257 145.469 233.552C145.972 233.847 146.366 234.258 146.652 234.787C146.938 235.307 147.081 235.905 147.081 236.581L147.068 236.867ZM143.766 233.903C143.108 233.903 142.553 234.115 142.102 234.54C141.66 234.956 141.409 235.502 141.348 236.178H146.197C146.137 235.502 145.881 234.956 145.43 234.54C144.988 234.115 144.434 233.903 143.766 233.903ZM150.828 242.587C150.542 242.587 150.274 242.548 150.022 242.47C149.762 242.401 149.55 242.292 149.385 242.145L149.71 241.443C149.979 241.677 150.334 241.794 150.776 241.794C151.14 241.794 151.418 241.686 151.608 241.469C151.808 241.252 151.907 240.932 151.907 240.507V233.162H152.83V240.507C152.83 241.148 152.657 241.655 152.31 242.028C151.964 242.401 151.47 242.587 150.828 242.587ZM152.375 231.654C152.185 231.654 152.024 231.589 151.894 231.459C151.764 231.329 151.699 231.173 151.699 230.991C151.699 230.818 151.764 230.666 151.894 230.536C152.024 230.406 152.185 230.341 152.375 230.341C152.566 230.341 152.726 230.406 152.856 230.536C152.986 230.657 153.051 230.805 153.051 230.978C153.051 231.169 152.986 231.329 152.856 231.459C152.726 231.589 152.566 231.654 152.375 231.654ZM161.104 236.867H155.384C155.436 237.578 155.709 238.154 156.203 238.596C156.697 239.029 157.321 239.246 158.075 239.246C158.499 239.246 158.889 239.172 159.245 239.025C159.6 238.869 159.908 238.644 160.168 238.349L160.688 238.947C160.384 239.311 160.003 239.588 159.544 239.779C159.093 239.97 158.595 240.065 158.049 240.065C157.347 240.065 156.723 239.918 156.177 239.623C155.639 239.32 155.219 238.904 154.916 238.375C154.612 237.846 154.461 237.248 154.461 236.581C154.461 235.914 154.604 235.316 154.89 234.787C155.184 234.258 155.583 233.847 156.086 233.552C156.597 233.257 157.169 233.11 157.802 233.11C158.434 233.11 159.002 233.257 159.505 233.552C160.007 233.847 160.402 234.258 160.688 234.787C160.974 235.307 161.117 235.905 161.117 236.581L161.104 236.867ZM157.802 233.903C157.143 233.903 156.588 234.115 156.138 234.54C155.696 234.956 155.444 235.502 155.384 236.178H160.233C160.172 235.502 159.916 234.956 159.466 234.54C159.024 234.115 158.469 233.903 157.802 233.903ZM164.568 240.065C164.014 240.065 163.481 239.987 162.969 239.831C162.467 239.666 162.072 239.463 161.786 239.22L162.202 238.492C162.488 238.717 162.848 238.904 163.281 239.051C163.715 239.19 164.165 239.259 164.633 239.259C165.257 239.259 165.717 239.164 166.011 238.973C166.315 238.774 166.466 238.496 166.466 238.141C166.466 237.89 166.384 237.695 166.219 237.556C166.055 237.409 165.847 237.3 165.595 237.231C165.344 237.153 165.01 237.079 164.594 237.01C164.04 236.906 163.593 236.802 163.255 236.698C162.917 236.585 162.627 236.399 162.384 236.139C162.15 235.879 162.033 235.519 162.033 235.06C162.033 234.488 162.272 234.02 162.748 233.656C163.225 233.292 163.888 233.11 164.737 233.11C165.179 233.11 165.621 233.171 166.063 233.292C166.505 233.405 166.869 233.556 167.155 233.747L166.752 234.488C166.189 234.098 165.517 233.903 164.737 233.903C164.148 233.903 163.702 234.007 163.398 234.215C163.104 234.423 162.956 234.696 162.956 235.034C162.956 235.294 163.039 235.502 163.203 235.658C163.377 235.814 163.589 235.931 163.84 236.009C164.092 236.078 164.438 236.152 164.88 236.23C165.426 236.334 165.864 236.438 166.193 236.542C166.523 236.646 166.804 236.824 167.038 237.075C167.272 237.326 167.389 237.673 167.389 238.115C167.389 238.713 167.138 239.19 166.635 239.545C166.141 239.892 165.452 240.065 164.568 240.065ZM172.437 239.584C172.263 239.74 172.047 239.861 171.787 239.948C171.535 240.026 171.271 240.065 170.994 240.065C170.352 240.065 169.858 239.892 169.512 239.545C169.165 239.198 168.992 238.709 168.992 238.076V233.942H167.77V233.162H168.992V231.667H169.915V233.162H171.995V233.942H169.915V238.024C169.915 238.431 170.014 238.743 170.214 238.96C170.422 239.168 170.716 239.272 171.098 239.272C171.288 239.272 171.47 239.242 171.644 239.181C171.826 239.12 171.982 239.034 172.112 238.921L172.437 239.584ZM187.035 233.162L184.448 240H183.577L181.419 234.397L179.261 240H178.39L175.816 233.162H176.7L178.845 238.973L181.042 233.162H181.835L184.019 238.973L186.19 233.162H187.035ZM193.848 233.162L190.429 240.819C190.151 241.46 189.831 241.915 189.467 242.184C189.103 242.453 188.665 242.587 188.154 242.587C187.824 242.587 187.517 242.535 187.231 242.431C186.945 242.327 186.698 242.171 186.49 241.963L186.919 241.274C187.265 241.621 187.681 241.794 188.167 241.794C188.479 241.794 188.743 241.707 188.96 241.534C189.185 241.361 189.393 241.066 189.584 240.65L189.883 239.987L186.828 233.162H187.79L190.364 238.973L192.938 233.162H193.848ZM198.41 233.11C199.052 233.11 199.632 233.257 200.152 233.552C200.672 233.838 201.08 234.245 201.374 234.774C201.669 235.303 201.816 235.905 201.816 236.581C201.816 237.266 201.669 237.872 201.374 238.401C201.08 238.93 200.672 239.341 200.152 239.636C199.641 239.922 199.06 240.065 198.41 240.065C197.856 240.065 197.353 239.952 196.902 239.727C196.46 239.493 196.096 239.155 195.81 238.713V242.522H194.887V233.162H195.771V234.514C196.049 234.063 196.413 233.717 196.863 233.474C197.323 233.231 197.838 233.11 198.41 233.11ZM198.345 239.246C198.822 239.246 199.255 239.138 199.645 238.921C200.035 238.696 200.339 238.379 200.555 237.972C200.781 237.565 200.893 237.101 200.893 236.581C200.893 236.061 200.781 235.602 200.555 235.203C200.339 234.796 200.035 234.479 199.645 234.254C199.255 234.029 198.822 233.916 198.345 233.916C197.86 233.916 197.422 234.029 197.032 234.254C196.651 234.479 196.348 234.796 196.122 235.203C195.906 235.602 195.797 236.061 195.797 236.581C195.797 237.101 195.906 237.565 196.122 237.972C196.348 238.379 196.651 238.696 197.032 238.921C197.422 239.138 197.86 239.246 198.345 239.246ZM209.392 236.867H203.672C203.724 237.578 203.997 238.154 204.491 238.596C204.985 239.029 205.609 239.246 206.363 239.246C206.788 239.246 207.178 239.172 207.533 239.025C207.888 238.869 208.196 238.644 208.456 238.349L208.976 238.947C208.673 239.311 208.291 239.588 207.832 239.779C207.381 239.97 206.883 240.065 206.337 240.065C205.635 240.065 205.011 239.918 204.465 239.623C203.928 239.32 203.507 238.904 203.204 238.375C202.901 237.846 202.749 237.248 202.749 236.581C202.749 235.914 202.892 235.316 203.178 234.787C203.473 234.258 203.871 233.847 204.374 233.552C204.885 233.257 205.457 233.11 206.09 233.11C206.723 233.11 207.29 233.257 207.793 233.552C208.296 233.847 208.69 234.258 208.976 234.787C209.262 235.307 209.405 235.905 209.405 236.581L209.392 236.867ZM206.09 233.903C205.431 233.903 204.877 234.115 204.426 234.54C203.984 234.956 203.733 235.502 203.672 236.178H208.521C208.46 235.502 208.205 234.956 207.754 234.54C207.312 234.115 206.757 233.903 206.09 233.903ZM211.089 230.354H212.012V240H211.089V230.354ZM209.776 236.269L212.922 233.903L213.338 234.475L210.205 236.828L209.776 236.269ZM217.879 233.11C218.737 233.11 219.417 233.361 219.92 233.864C220.431 234.358 220.687 235.082 220.687 236.035V240H219.764V236.126C219.764 235.415 219.586 234.874 219.231 234.501C218.875 234.128 218.368 233.942 217.71 233.942C216.973 233.942 216.388 234.163 215.955 234.605C215.53 235.038 215.318 235.641 215.318 236.412V240H214.395V233.162H215.279V234.423C215.53 234.007 215.877 233.686 216.319 233.461C216.769 233.227 217.289 233.11 217.879 233.11ZM222.932 233.162H223.855V240H222.932V233.162ZM223.4 231.667C223.21 231.667 223.049 231.602 222.919 231.472C222.789 231.342 222.724 231.186 222.724 231.004C222.724 230.831 222.789 230.679 222.919 230.549C223.049 230.419 223.21 230.354 223.4 230.354C223.591 230.354 223.751 230.419 223.881 230.549C224.011 230.67 224.076 230.818 224.076 230.991C224.076 231.182 224.011 231.342 223.881 231.472C223.751 231.602 223.591 231.667 223.4 231.667ZM232.118 236.867H226.398C226.45 237.578 226.723 238.154 227.217 238.596C227.711 239.029 228.335 239.246 229.089 239.246C229.513 239.246 229.903 239.172 230.259 239.025C230.614 238.869 230.922 238.644 231.182 238.349L231.702 238.947C231.398 239.311 231.017 239.588 230.558 239.779C230.107 239.97 229.609 240.065 229.063 240.065C228.361 240.065 227.737 239.918 227.191 239.623C226.653 239.32 226.233 238.904 225.93 238.375C225.626 237.846 225.475 237.248 225.475 236.581C225.475 235.914 225.618 235.316 225.904 234.787C226.198 234.258 226.597 233.847 227.1 233.552C227.611 233.257 228.183 233.11 228.816 233.11C229.448 233.11 230.016 233.257 230.519 233.552C231.021 233.847 231.416 234.258 231.702 234.787C231.988 235.307 232.131 235.905 232.131 236.581L232.118 236.867ZM228.816 233.903C228.157 233.903 227.602 234.115 227.152 234.54C226.71 234.956 226.458 235.502 226.398 236.178H231.247C231.186 235.502 230.93 234.956 230.48 234.54C230.038 234.115 229.483 233.903 228.816 233.903ZM237.233 233.11C238.091 233.11 238.772 233.361 239.274 233.864C239.786 234.358 240.041 235.082 240.041 236.035V240H239.118V236.126C239.118 235.415 238.941 234.874 238.585 234.501C238.23 234.128 237.723 233.942 237.064 233.942C236.328 233.942 235.743 234.163 235.309 234.605C234.885 235.038 234.672 235.641 234.672 236.412V240H233.749V233.162H234.633V234.423C234.885 234.007 235.231 233.686 235.673 233.461C236.124 233.227 236.644 233.11 237.233 233.11ZM242.287 233.162H243.21V240H242.287V233.162ZM242.755 231.667C242.565 231.667 242.404 231.602 242.274 231.472C242.144 231.342 242.079 231.186 242.079 231.004C242.079 230.831 242.144 230.679 242.274 230.549C242.404 230.419 242.565 230.354 242.755 230.354C242.946 230.354 243.106 230.419 243.236 230.549C243.366 230.67 243.431 230.818 243.431 230.991C243.431 231.182 243.366 231.342 243.236 231.472C243.106 231.602 242.946 231.667 242.755 231.667ZM251.472 236.867H245.752C245.804 237.578 246.077 238.154 246.571 238.596C247.065 239.029 247.689 239.246 248.443 239.246C248.868 239.246 249.258 239.172 249.613 239.025C249.969 238.869 250.276 238.644 250.536 238.349L251.056 238.947C250.753 239.311 250.372 239.588 249.912 239.779C249.462 239.97 248.963 240.065 248.417 240.065C247.715 240.065 247.091 239.918 246.545 239.623C246.008 239.32 245.588 238.904 245.284 238.375C244.981 237.846 244.829 237.248 244.829 236.581C244.829 235.914 244.972 235.316 245.258 234.787C245.553 234.258 245.952 233.847 246.454 233.552C246.966 233.257 247.538 233.11 248.17 233.11C248.803 233.11 249.371 233.257 249.873 233.552C250.376 233.847 250.77 234.258 251.056 234.787C251.342 235.307 251.485 235.905 251.485 236.581L251.472 236.867ZM248.17 233.903C247.512 233.903 246.957 234.115 246.506 234.54C246.064 234.956 245.813 235.502 245.752 236.178H250.601C250.541 235.502 250.285 234.956 249.834 234.54C249.392 234.115 248.838 233.903 248.17 233.903ZM107.12 255.065C106.565 255.065 106.032 254.987 105.521 254.831C105.018 254.666 104.624 254.463 104.338 254.22L104.754 253.492C105.04 253.717 105.4 253.904 105.833 254.051C106.266 254.19 106.717 254.259 107.185 254.259C107.809 254.259 108.268 254.164 108.563 253.973C108.866 253.774 109.018 253.496 109.018 253.141C109.018 252.89 108.936 252.695 108.771 252.556C108.606 252.409 108.398 252.3 108.147 252.231C107.896 252.153 107.562 252.079 107.146 252.01C106.591 251.906 106.145 251.802 105.807 251.698C105.469 251.585 105.179 251.399 104.936 251.139C104.702 250.879 104.585 250.519 104.585 250.06C104.585 249.488 104.823 249.02 105.3 248.656C105.777 248.292 106.44 248.11 107.289 248.11C107.731 248.11 108.173 248.171 108.615 248.292C109.057 248.405 109.421 248.556 109.707 248.747L109.304 249.488C108.741 249.098 108.069 248.903 107.289 248.903C106.7 248.903 106.253 249.007 105.95 249.215C105.655 249.423 105.508 249.696 105.508 250.034C105.508 250.294 105.59 250.502 105.755 250.658C105.928 250.814 106.141 250.931 106.392 251.009C106.643 251.078 106.99 251.152 107.432 251.23C107.978 251.334 108.416 251.438 108.745 251.542C109.074 251.646 109.356 251.824 109.59 252.075C109.824 252.326 109.941 252.673 109.941 253.115C109.941 253.713 109.69 254.19 109.187 254.545C108.693 254.892 108.004 255.065 107.12 255.065ZM108.095 245.484H109.33L107.224 247.096H106.314L108.095 245.484ZM114.221 255.065C113.545 255.065 112.939 254.918 112.401 254.623C111.873 254.328 111.457 253.917 111.153 253.388C110.85 252.851 110.698 252.248 110.698 251.581C110.698 250.914 110.85 250.316 111.153 249.787C111.457 249.258 111.873 248.847 112.401 248.552C112.939 248.257 113.545 248.11 114.221 248.11C114.811 248.11 115.335 248.227 115.794 248.461C116.262 248.686 116.631 249.02 116.899 249.462L116.21 249.93C115.985 249.592 115.699 249.341 115.352 249.176C115.006 249.003 114.629 248.916 114.221 248.916C113.727 248.916 113.281 249.029 112.882 249.254C112.492 249.471 112.185 249.783 111.959 250.19C111.743 250.597 111.634 251.061 111.634 251.581C111.634 252.11 111.743 252.578 111.959 252.985C112.185 253.384 112.492 253.696 112.882 253.921C113.281 254.138 113.727 254.246 114.221 254.246C114.629 254.246 115.006 254.164 115.352 253.999C115.699 253.834 115.985 253.583 116.21 253.245L116.899 253.713C116.631 254.155 116.262 254.493 115.794 254.727C115.326 254.952 114.802 255.065 114.221 255.065ZM118.453 248.162H119.376V255H118.453V248.162ZM118.921 246.667C118.73 246.667 118.57 246.602 118.44 246.472C118.31 246.342 118.245 246.186 118.245 246.004C118.245 245.831 118.31 245.679 118.44 245.549C118.57 245.419 118.73 245.354 118.921 245.354C119.111 245.354 119.272 245.419 119.402 245.549C119.532 245.67 119.597 245.818 119.597 245.991C119.597 246.182 119.532 246.342 119.402 246.472C119.272 246.602 119.111 246.667 118.921 246.667ZM124.076 248.11C124.968 248.11 125.653 248.335 126.13 248.786C126.606 249.228 126.845 249.887 126.845 250.762V255H125.961V253.934C125.753 254.289 125.445 254.567 125.038 254.766C124.639 254.965 124.162 255.065 123.608 255.065C122.845 255.065 122.238 254.883 121.788 254.519C121.337 254.155 121.112 253.674 121.112 253.076C121.112 252.495 121.32 252.027 121.736 251.672C122.16 251.317 122.832 251.139 123.751 251.139H125.922V250.723C125.922 250.134 125.757 249.687 125.428 249.384C125.098 249.072 124.617 248.916 123.985 248.916C123.551 248.916 123.135 248.99 122.737 249.137C122.338 249.276 121.996 249.471 121.71 249.722L121.294 249.033C121.64 248.738 122.056 248.513 122.542 248.357C123.027 248.192 123.538 248.11 124.076 248.11ZM123.751 254.337C124.271 254.337 124.717 254.22 125.09 253.986C125.462 253.743 125.74 253.397 125.922 252.946V251.828H123.777C122.607 251.828 122.022 252.235 122.022 253.05C122.022 253.449 122.173 253.765 122.477 253.999C122.78 254.224 123.205 254.337 123.751 254.337ZM132.576 248.11C133.434 248.11 134.114 248.361 134.617 248.864C135.128 249.358 135.384 250.082 135.384 251.035V255H134.461V251.126C134.461 250.415 134.283 249.874 133.928 249.501C133.572 249.128 133.065 248.942 132.407 248.942C131.67 248.942 131.085 249.163 130.652 249.605C130.227 250.038 130.015 250.641 130.015 251.412V255H129.092V248.162H129.976V249.423C130.227 249.007 130.574 248.686 131.016 248.461C131.466 248.227 131.986 248.11 132.576 248.11ZM143.249 248.162L139.83 255.819C139.552 256.46 139.232 256.915 138.868 257.184C138.504 257.453 138.066 257.587 137.555 257.587C137.225 257.587 136.918 257.535 136.632 257.431C136.346 257.327 136.099 257.171 135.891 256.963L136.32 256.274C136.666 256.621 137.082 256.794 137.568 256.794C137.88 256.794 138.144 256.707 138.361 256.534C138.586 256.361 138.794 256.066 138.985 255.65L139.284 254.987L136.229 248.162H137.191L139.765 253.973L142.339 248.162H143.249ZM149.264 255.065C148.709 255.065 148.176 254.987 147.665 254.831C147.162 254.666 146.768 254.463 146.482 254.22L146.898 253.492C147.184 253.717 147.544 253.904 147.977 254.051C148.41 254.19 148.861 254.259 149.329 254.259C149.953 254.259 150.412 254.164 150.707 253.973C151.01 253.774 151.162 253.496 151.162 253.141C151.162 252.89 151.08 252.695 150.915 252.556C150.75 252.409 150.542 252.3 150.291 252.231C150.04 252.153 149.706 252.079 149.29 252.01C148.735 251.906 148.289 251.802 147.951 251.698C147.613 251.585 147.323 251.399 147.08 251.139C146.846 250.879 146.729 250.519 146.729 250.06C146.729 249.488 146.967 249.02 147.444 248.656C147.921 248.292 148.584 248.11 149.433 248.11C149.875 248.11 150.317 248.171 150.759 248.292C151.201 248.405 151.565 248.556 151.851 248.747L151.448 249.488C150.885 249.098 150.213 248.903 149.433 248.903C148.844 248.903 148.397 249.007 148.094 249.215C147.799 249.423 147.652 249.696 147.652 250.034C147.652 250.294 147.734 250.502 147.899 250.658C148.072 250.814 148.285 250.931 148.536 251.009C148.787 251.078 149.134 251.152 149.576 251.23C150.122 251.334 150.56 251.438 150.889 251.542C151.218 251.646 151.5 251.824 151.734 252.075C151.968 252.326 152.085 252.673 152.085 253.115C152.085 253.713 151.834 254.19 151.331 254.545C150.837 254.892 150.148 255.065 149.264 255.065ZM159.693 248.162V255H158.809V253.752C158.567 254.168 158.233 254.493 157.808 254.727C157.384 254.952 156.898 255.065 156.352 255.065C155.46 255.065 154.753 254.818 154.233 254.324C153.722 253.821 153.466 253.089 153.466 252.127V248.162H154.389V252.036C154.389 252.755 154.567 253.301 154.922 253.674C155.278 254.047 155.785 254.233 156.443 254.233C157.163 254.233 157.73 254.016 158.146 253.583C158.562 253.141 158.77 252.53 158.77 251.75V248.162H159.693ZM165.619 254.584C165.446 254.74 165.229 254.861 164.969 254.948C164.718 255.026 164.454 255.065 164.176 255.065C163.535 255.065 163.041 254.892 162.694 254.545C162.348 254.198 162.174 253.709 162.174 253.076V248.942H160.952V248.162H162.174V246.667H163.097V248.162H165.177V248.942H163.097V253.024C163.097 253.431 163.197 253.743 163.396 253.96C163.604 254.168 163.899 254.272 164.28 254.272C164.471 254.272 164.653 254.242 164.826 254.181C165.008 254.12 165.164 254.034 165.294 253.921L165.619 254.584ZM172.752 251.867H167.032C167.084 252.578 167.357 253.154 167.851 253.596C168.345 254.029 168.969 254.246 169.723 254.246C170.148 254.246 170.538 254.172 170.893 254.025C171.249 253.869 171.556 253.644 171.816 253.349L172.336 253.947C172.033 254.311 171.652 254.588 171.192 254.779C170.742 254.97 170.243 255.065 169.697 255.065C168.995 255.065 168.371 254.918 167.825 254.623C167.288 254.32 166.868 253.904 166.564 253.375C166.261 252.846 166.109 252.248 166.109 251.581C166.109 250.914 166.252 250.316 166.538 249.787C166.833 249.258 167.232 248.847 167.734 248.552C168.246 248.257 168.818 248.11 169.45 248.11C170.083 248.11 170.651 248.257 171.153 248.552C171.656 248.847 172.05 249.258 172.336 249.787C172.622 250.307 172.765 250.905 172.765 251.581L172.752 251.867ZM169.45 248.903C168.792 248.903 168.237 249.115 167.786 249.54C167.344 249.956 167.093 250.502 167.032 251.178H171.881C171.821 250.502 171.565 249.956 171.114 249.54C170.672 249.115 170.118 248.903 169.45 248.903ZM175.268 249.501C175.485 249.042 175.805 248.695 176.23 248.461C176.663 248.227 177.196 248.11 177.829 248.11V249.007L177.608 248.994C176.889 248.994 176.325 249.215 175.918 249.657C175.511 250.099 175.307 250.719 175.307 251.516V255H174.384V248.162H175.268V249.501ZM185.131 251.867H179.411C179.463 252.578 179.736 253.154 180.23 253.596C180.724 254.029 181.348 254.246 182.102 254.246C182.526 254.246 182.916 254.172 183.272 254.025C183.627 253.869 183.935 253.644 184.195 253.349L184.715 253.947C184.411 254.311 184.03 254.588 183.571 254.779C183.12 254.97 182.622 255.065 182.076 255.065C181.374 255.065 180.75 254.918 180.204 254.623C179.666 254.32 179.246 253.904 178.943 253.375C178.639 252.846 178.488 252.248 178.488 251.581C178.488 250.914 178.631 250.316 178.917 249.787C179.211 249.258 179.61 248.847 180.113 248.552C180.624 248.257 181.196 248.11 181.829 248.11C182.461 248.11 183.029 248.257 183.532 248.552C184.034 248.847 184.429 249.258 184.715 249.787C185.001 250.307 185.144 250.905 185.144 251.581L185.131 251.867ZM181.829 248.903C181.17 248.903 180.615 249.115 180.165 249.54C179.723 249.956 179.471 250.502 179.411 251.178H184.26C184.199 250.502 183.943 249.956 183.493 249.54C183.051 249.115 182.496 248.903 181.829 248.903ZM190.246 248.11C191.104 248.11 191.785 248.361 192.287 248.864C192.799 249.358 193.054 250.082 193.054 251.035V255H192.131V251.126C192.131 250.415 191.954 249.874 191.598 249.501C191.243 249.128 190.736 248.942 190.077 248.942C189.341 248.942 188.756 249.163 188.322 249.605C187.898 250.038 187.685 250.641 187.685 251.412V255H186.762V248.162H187.646V249.423C187.898 249.007 188.244 248.686 188.686 248.461C189.137 248.227 189.657 248.11 190.246 248.11ZM200.919 248.162L197.5 255.819C197.223 256.46 196.902 256.915 196.538 257.184C196.174 257.453 195.737 257.587 195.225 257.587C194.896 257.587 194.588 257.535 194.302 257.431C194.016 257.327 193.769 257.171 193.561 256.963L193.99 256.274C194.337 256.621 194.753 256.794 195.238 256.794C195.55 256.794 195.815 256.707 196.031 256.534C196.257 256.361 196.465 256.066 196.655 255.65L196.954 254.987L193.899 248.162H194.861L197.435 253.973L200.009 248.162H200.919ZM208.586 248.11C209.444 248.11 210.124 248.361 210.627 248.864C211.138 249.358 211.394 250.082 211.394 251.035V255H210.471V251.126C210.471 250.415 210.293 249.874 209.938 249.501C209.582 249.128 209.075 248.942 208.417 248.942C207.68 248.942 207.095 249.163 206.662 249.605C206.237 250.038 206.025 250.641 206.025 251.412V255H205.102V248.162H205.986V249.423C206.237 249.007 206.584 248.686 207.026 248.461C207.476 248.227 207.996 248.11 208.586 248.11ZM216.031 248.11C216.924 248.11 217.609 248.335 218.085 248.786C218.562 249.228 218.8 249.887 218.8 250.762V255H217.916V253.934C217.708 254.289 217.401 254.567 216.993 254.766C216.595 254.965 216.118 255.065 215.563 255.065C214.801 255.065 214.194 254.883 213.743 254.519C213.293 254.155 213.067 253.674 213.067 253.076C213.067 252.495 213.275 252.027 213.691 251.672C214.116 251.317 214.788 251.139 215.706 251.139H217.877V250.723C217.877 250.134 217.713 249.687 217.383 249.384C217.054 249.072 216.573 248.916 215.94 248.916C215.507 248.916 215.091 248.99 214.692 249.137C214.294 249.276 213.951 249.471 213.665 249.722L213.249 249.033C213.596 248.738 214.012 248.513 214.497 248.357C214.983 248.192 215.494 248.11 216.031 248.11ZM215.706 254.337C216.226 254.337 216.673 254.22 217.045 253.986C217.418 253.743 217.695 253.397 217.877 252.946V251.828H215.732C214.562 251.828 213.977 252.235 213.977 253.05C213.977 253.449 214.129 253.765 214.432 253.999C214.736 254.224 215.16 254.337 215.706 254.337ZM227.024 255.065C226.348 255.065 225.741 254.918 225.204 254.623C224.675 254.328 224.259 253.917 223.956 253.388C223.652 252.851 223.501 252.248 223.501 251.581C223.501 250.914 223.652 250.316 223.956 249.787C224.259 249.258 224.675 248.847 225.204 248.552C225.741 248.257 226.348 248.11 227.024 248.11C227.613 248.11 228.137 248.227 228.597 248.461C229.065 248.686 229.433 249.02 229.702 249.462L229.013 249.93C228.787 249.592 228.501 249.341 228.155 249.176C227.808 249.003 227.431 248.916 227.024 248.916C226.53 248.916 226.083 249.029 225.685 249.254C225.295 249.471 224.987 249.783 224.762 250.19C224.545 250.597 224.437 251.061 224.437 251.581C224.437 252.11 224.545 252.578 224.762 252.985C224.987 253.384 225.295 253.696 225.685 253.921C226.083 254.138 226.53 254.246 227.024 254.246C227.431 254.246 227.808 254.164 228.155 253.999C228.501 253.834 228.787 253.583 229.013 253.245L229.702 253.713C229.433 254.155 229.065 254.493 228.597 254.727C228.129 254.952 227.604 255.065 227.024 255.065ZM233.647 248.11C234.54 248.11 235.224 248.335 235.701 248.786C236.178 249.228 236.416 249.887 236.416 250.762V255H235.532V253.934C235.324 254.289 235.016 254.567 234.609 254.766C234.21 254.965 233.734 255.065 233.179 255.065C232.416 255.065 231.81 254.883 231.359 254.519C230.908 254.155 230.683 253.674 230.683 253.076C230.683 252.495 230.891 252.027 231.307 251.672C231.732 251.317 232.403 251.139 233.322 251.139H235.493V250.723C235.493 250.134 235.328 249.687 234.999 249.384C234.67 249.072 234.189 248.916 233.556 248.916C233.123 248.916 232.707 248.99 232.308 249.137C231.909 249.276 231.567 249.471 231.281 249.722L230.865 249.033C231.212 248.738 231.628 248.513 232.113 248.357C232.598 248.192 233.11 248.11 233.647 248.11ZM233.322 254.337C233.842 254.337 234.288 254.22 234.661 253.986C235.034 253.743 235.311 253.397 235.493 252.946V251.828H233.348C232.178 251.828 231.593 252.235 231.593 253.05C231.593 253.449 231.745 253.765 232.048 253.999C232.351 254.224 232.776 254.337 233.322 254.337ZM238.728 245.354H239.651V255H238.728V245.354ZM237.415 251.269L240.561 248.903L240.977 249.475L237.844 251.828L237.415 251.269ZM247.988 251.867H242.268C242.32 252.578 242.593 253.154 243.087 253.596C243.581 254.029 244.205 254.246 244.959 254.246C245.383 254.246 245.773 254.172 246.129 254.025C246.484 253.869 246.792 253.644 247.052 253.349L247.572 253.947C247.268 254.311 246.887 254.588 246.428 254.779C245.977 254.97 245.479 255.065 244.933 255.065C244.231 255.065 243.607 254.918 243.061 254.623C242.523 254.32 242.103 253.904 241.8 253.375C241.496 252.846 241.345 252.248 241.345 251.581C241.345 250.914 241.488 250.316 241.774 249.787C242.068 249.258 242.467 248.847 242.97 248.552C243.481 248.257 244.053 248.11 244.686 248.11C245.318 248.11 245.886 248.257 246.389 248.552C246.891 248.847 247.286 249.258 247.572 249.787C247.858 250.307 248.001 250.905 248.001 251.581L247.988 251.867ZM244.686 248.903C244.027 248.903 243.472 249.115 243.022 249.54C242.58 249.956 242.328 250.502 242.268 251.178H247.117C247.056 250.502 246.8 249.956 246.35 249.54C245.908 249.115 245.353 248.903 244.686 248.903ZM248.606 257.587C248.32 257.587 248.051 257.548 247.8 257.47C247.54 257.401 247.327 257.292 247.163 257.145L247.488 256.443C247.756 256.677 248.112 256.794 248.554 256.794C248.918 256.794 249.195 256.686 249.386 256.469C249.585 256.252 249.685 255.932 249.685 255.507V248.162H250.608V255.507C250.608 256.148 250.434 256.655 250.088 257.028C249.741 257.401 249.247 257.587 248.606 257.587ZM250.153 246.654C249.962 246.654 249.802 246.589 249.672 246.459C249.542 246.329 249.477 246.173 249.477 245.991C249.477 245.818 249.542 245.666 249.672 245.536C249.802 245.406 249.962 245.341 250.153 245.341C250.343 245.341 250.504 245.406 250.634 245.536C250.764 245.657 250.829 245.805 250.829 245.978C250.829 246.169 250.764 246.329 250.634 246.459C250.504 246.589 250.343 246.654 250.153 246.654ZM115.323 263.162L112.736 270H111.865L109.707 264.397L107.549 270H106.678L104.104 263.162H104.988L107.133 268.973L109.33 263.162H110.123L112.307 268.973L114.478 263.162H115.323ZM122.135 263.162L118.716 270.819C118.439 271.46 118.118 271.915 117.754 272.184C117.39 272.453 116.953 272.587 116.441 272.587C116.112 272.587 115.804 272.535 115.518 272.431C115.232 272.327 114.985 272.171 114.777 271.963L115.206 271.274C115.553 271.621 115.969 271.794 116.454 271.794C116.766 271.794 117.031 271.707 117.247 271.534C117.473 271.361 117.681 271.066 117.871 270.65L118.17 269.987L115.115 263.162H116.077L118.651 268.973L121.225 263.162H122.135ZM124.932 270.065C124.377 270.065 123.844 269.987 123.333 269.831C122.83 269.666 122.436 269.463 122.15 269.22L122.566 268.492C122.852 268.717 123.212 268.904 123.645 269.051C124.078 269.19 124.529 269.259 124.997 269.259C125.621 269.259 126.08 269.164 126.375 268.973C126.678 268.774 126.83 268.496 126.83 268.141C126.83 267.89 126.748 267.695 126.583 267.556C126.418 267.409 126.21 267.3 125.959 267.231C125.708 267.153 125.374 267.079 124.958 267.01C124.403 266.906 123.957 266.802 123.619 266.698C123.281 266.585 122.991 266.399 122.748 266.139C122.514 265.879 122.397 265.519 122.397 265.06C122.397 264.488 122.635 264.02 123.112 263.656C123.589 263.292 124.252 263.11 125.101 263.11C125.543 263.11 125.985 263.171 126.427 263.292C126.869 263.405 127.233 263.556 127.519 263.747L127.116 264.488C126.553 264.098 125.881 263.903 125.101 263.903C124.512 263.903 124.065 264.007 123.762 264.215C123.467 264.423 123.32 264.696 123.32 265.034C123.32 265.294 123.402 265.502 123.567 265.658C123.74 265.814 123.953 265.931 124.204 266.009C124.455 266.078 124.802 266.152 125.244 266.23C125.79 266.334 126.228 266.438 126.557 266.542C126.886 266.646 127.168 266.824 127.402 267.075C127.636 267.326 127.753 267.673 127.753 268.115C127.753 268.713 127.502 269.19 126.999 269.545C126.505 269.892 125.816 270.065 124.932 270.065ZM131.994 270.065C131.336 270.065 130.742 269.918 130.213 269.623C129.685 269.32 129.269 268.904 128.965 268.375C128.662 267.846 128.51 267.248 128.51 266.581C128.51 265.914 128.662 265.316 128.965 264.787C129.269 264.258 129.685 263.847 130.213 263.552C130.742 263.257 131.336 263.11 131.994 263.11C132.653 263.11 133.247 263.257 133.775 263.552C134.304 263.847 134.716 264.258 135.01 264.787C135.314 265.316 135.465 265.914 135.465 266.581C135.465 267.248 135.314 267.846 135.01 268.375C134.716 268.904 134.304 269.32 133.775 269.623C133.247 269.918 132.653 270.065 131.994 270.065ZM131.994 269.246C132.48 269.246 132.913 269.138 133.294 268.921C133.684 268.696 133.988 268.379 134.204 267.972C134.421 267.565 134.529 267.101 134.529 266.581C134.529 266.061 134.421 265.597 134.204 265.19C133.988 264.783 133.684 264.471 133.294 264.254C132.913 264.029 132.48 263.916 131.994 263.916C131.509 263.916 131.071 264.029 130.681 264.254C130.3 264.471 129.997 264.783 129.771 265.19C129.555 265.597 129.446 266.061 129.446 266.581C129.446 267.101 129.555 267.565 129.771 267.972C129.997 268.379 130.3 268.696 130.681 268.921C131.071 269.138 131.509 269.246 131.994 269.246ZM139.625 266.568L138.013 268.05V270H137.09V260.354H138.013V266.893L142.095 263.162H143.239L140.314 265.957L143.512 270H142.381L139.625 266.568ZM147.153 270.065C146.494 270.065 145.901 269.918 145.372 269.623C144.843 269.32 144.427 268.904 144.124 268.375C143.821 267.846 143.669 267.248 143.669 266.581C143.669 265.914 143.821 265.316 144.124 264.787C144.427 264.258 144.843 263.847 145.372 263.552C145.901 263.257 146.494 263.11 147.153 263.11C147.812 263.11 148.405 263.257 148.934 263.552C149.463 263.847 149.874 264.258 150.169 264.787C150.472 265.316 150.624 265.914 150.624 266.581C150.624 267.248 150.472 267.846 150.169 268.375C149.874 268.904 149.463 269.32 148.934 269.623C148.405 269.918 147.812 270.065 147.153 270.065ZM147.153 269.246C147.638 269.246 148.072 269.138 148.453 268.921C148.843 268.696 149.146 268.379 149.363 267.972C149.58 267.565 149.688 267.101 149.688 266.581C149.688 266.061 149.58 265.597 149.363 265.19C149.146 264.783 148.843 264.471 148.453 264.254C148.072 264.029 147.638 263.916 147.153 263.916C146.668 263.916 146.23 264.029 145.84 264.254C145.459 264.471 145.155 264.783 144.93 265.19C144.713 265.597 144.605 266.061 144.605 266.581C144.605 267.101 144.713 267.565 144.93 267.972C145.155 268.379 145.459 268.696 145.84 268.921C146.23 269.138 146.668 269.246 147.153 269.246ZM154.081 270.065C153.527 270.065 152.994 269.987 152.482 269.831C151.98 269.666 151.585 269.463 151.299 269.22L151.715 268.492C152.001 268.717 152.361 268.904 152.794 269.051C153.228 269.19 153.678 269.259 154.146 269.259C154.77 269.259 155.23 269.164 155.524 268.973C155.828 268.774 155.979 268.496 155.979 268.141C155.979 267.89 155.897 267.695 155.732 267.556C155.568 267.409 155.36 267.3 155.108 267.231C154.857 267.153 154.523 267.079 154.107 267.01C153.553 266.906 153.106 266.802 152.768 266.698C152.43 266.585 152.14 266.399 151.897 266.139C151.663 265.879 151.546 265.519 151.546 265.06C151.546 264.488 151.785 264.02 152.261 263.656C152.738 263.292 153.401 263.11 154.25 263.11C154.692 263.11 155.134 263.171 155.576 263.292C156.018 263.405 156.382 263.556 156.668 263.747L156.265 264.488C155.702 264.098 155.03 263.903 154.25 263.903C153.661 263.903 153.215 264.007 152.911 264.215C152.617 264.423 152.469 264.696 152.469 265.034C152.469 265.294 152.552 265.502 152.716 265.658C152.89 265.814 153.102 265.931 153.353 266.009C153.605 266.078 153.951 266.152 154.393 266.23C154.939 266.334 155.377 266.438 155.706 266.542C156.036 266.646 156.317 266.824 156.551 267.075C156.785 267.326 156.902 267.673 156.902 268.115C156.902 268.713 156.651 269.19 156.148 269.545C155.654 269.892 154.965 270.065 154.081 270.065ZM155.056 260.484H156.291L154.185 262.096H153.275L155.056 260.484ZM161.183 270.065C160.507 270.065 159.9 269.918 159.363 269.623C158.834 269.328 158.418 268.917 158.115 268.388C157.812 267.851 157.66 267.248 157.66 266.581C157.66 265.914 157.812 265.316 158.115 264.787C158.418 264.258 158.834 263.847 159.363 263.552C159.9 263.257 160.507 263.11 161.183 263.11C161.772 263.11 162.297 263.227 162.756 263.461C163.224 263.686 163.592 264.02 163.861 264.462L163.172 264.93C162.947 264.592 162.661 264.341 162.314 264.176C161.967 264.003 161.59 263.916 161.183 263.916C160.689 263.916 160.243 264.029 159.844 264.254C159.454 264.471 159.146 264.783 158.921 265.19C158.704 265.597 158.596 266.061 158.596 266.581C158.596 267.11 158.704 267.578 158.921 267.985C159.146 268.384 159.454 268.696 159.844 268.921C160.243 269.138 160.689 269.246 161.183 269.246C161.59 269.246 161.967 269.164 162.314 268.999C162.661 268.834 162.947 268.583 163.172 268.245L163.861 268.713C163.592 269.155 163.224 269.493 162.756 269.727C162.288 269.952 161.764 270.065 161.183 270.065ZM165.414 263.162H166.337V270H165.414V263.162ZM165.882 261.667C165.691 261.667 165.531 261.602 165.401 261.472C165.271 261.342 165.206 261.186 165.206 261.004C165.206 260.831 165.271 260.679 165.401 260.549C165.531 260.419 165.691 260.354 165.882 260.354C166.073 260.354 166.233 260.419 166.363 260.549C166.493 260.67 166.558 260.818 166.558 260.991C166.558 261.182 166.493 261.342 166.363 261.472C166.233 261.602 166.073 261.667 165.882 261.667ZM168.749 268.648C168.949 268.648 169.113 268.717 169.243 268.856C169.373 268.986 169.438 269.151 169.438 269.35C169.438 269.454 169.421 269.567 169.386 269.688C169.36 269.809 169.317 269.948 169.256 270.104L168.71 271.898H168.086L168.528 270.013C168.39 269.97 168.277 269.892 168.19 269.779C168.104 269.658 168.06 269.515 168.06 269.35C168.06 269.151 168.125 268.986 168.255 268.856C168.385 268.717 168.55 268.648 168.749 268.648ZM177.883 269.584C177.71 269.74 177.493 269.861 177.233 269.948C176.982 270.026 176.718 270.065 176.44 270.065C175.799 270.065 175.305 269.892 174.958 269.545C174.612 269.198 174.438 268.709 174.438 268.076V263.942H173.216V263.162H174.438V261.667H175.361V263.162H177.441V263.942H175.361V268.024C175.361 268.431 175.461 268.743 175.66 268.96C175.868 269.168 176.163 269.272 176.544 269.272C176.735 269.272 176.917 269.242 177.09 269.181C177.272 269.12 177.428 269.034 177.558 268.921L177.883 269.584ZM181.858 270.065C181.199 270.065 180.605 269.918 180.077 269.623C179.548 269.32 179.132 268.904 178.829 268.375C178.525 267.846 178.374 267.248 178.374 266.581C178.374 265.914 178.525 265.316 178.829 264.787C179.132 264.258 179.548 263.847 180.077 263.552C180.605 263.257 181.199 263.11 181.858 263.11C182.516 263.11 183.11 263.257 183.639 263.552C184.167 263.847 184.579 264.258 184.874 264.787C185.177 265.316 185.329 265.914 185.329 266.581C185.329 267.248 185.177 267.846 184.874 268.375C184.579 268.904 184.167 269.32 183.639 269.623C183.11 269.918 182.516 270.065 181.858 270.065ZM181.858 269.246C182.343 269.246 182.776 269.138 183.158 268.921C183.548 268.696 183.851 268.379 184.068 267.972C184.284 267.565 184.393 267.101 184.393 266.581C184.393 266.061 184.284 265.597 184.068 265.19C183.851 264.783 183.548 264.471 183.158 264.254C182.776 264.029 182.343 263.916 181.858 263.916C181.372 263.916 180.935 264.029 180.545 264.254C180.163 264.471 179.86 264.783 179.635 265.19C179.418 265.597 179.31 266.061 179.31 266.581C179.31 267.101 179.418 267.565 179.635 267.972C179.86 268.379 180.163 268.696 180.545 268.921C180.935 269.138 181.372 269.246 181.858 269.246ZM194.918 269.233V270H189.354V269.389L193.657 263.942H189.432V263.162H194.84V263.773L190.537 269.233H194.918ZM199.959 263.11C200.817 263.11 201.497 263.361 202 263.864C202.511 264.358 202.767 265.082 202.767 266.035V270H201.844V266.126C201.844 265.415 201.666 264.874 201.311 264.501C200.956 264.128 200.449 263.942 199.79 263.942C199.053 263.942 198.468 264.163 198.035 264.605C197.61 265.038 197.398 265.641 197.398 266.412V270H196.475V263.162H197.359V264.423C197.61 264.007 197.957 263.686 198.399 263.461C198.85 263.227 199.37 263.11 199.959 263.11ZM207.405 263.11C208.297 263.11 208.982 263.335 209.459 263.786C209.935 264.228 210.174 264.887 210.174 265.762V270H209.29V268.934C209.082 269.289 208.774 269.567 208.367 269.766C207.968 269.965 207.491 270.065 206.937 270.065C206.174 270.065 205.567 269.883 205.117 269.519C204.666 269.155 204.441 268.674 204.441 268.076C204.441 267.495 204.649 267.027 205.065 266.672C205.489 266.317 206.161 266.139 207.08 266.139H209.251V265.723C209.251 265.134 209.086 264.687 208.757 264.384C208.427 264.072 207.946 263.916 207.314 263.916C206.88 263.916 206.464 263.99 206.066 264.137C205.667 264.276 205.325 264.471 205.039 264.722L204.623 264.033C204.969 263.738 205.385 263.513 205.871 263.357C206.356 263.192 206.867 263.11 207.405 263.11ZM207.08 269.337C207.6 269.337 208.046 269.22 208.419 268.986C208.791 268.743 209.069 268.397 209.251 267.946V266.828H207.106C205.936 266.828 205.351 267.235 205.351 268.05C205.351 268.449 205.502 268.765 205.806 268.999C206.109 269.224 206.534 269.337 207.08 269.337ZM215.28 270.065C214.604 270.065 213.997 269.918 213.46 269.623C212.931 269.328 212.515 268.917 212.212 268.388C211.909 267.851 211.757 267.248 211.757 266.581C211.757 265.914 211.909 265.316 212.212 264.787C212.515 264.258 212.931 263.847 213.46 263.552C213.997 263.257 214.604 263.11 215.28 263.11C215.869 263.11 216.394 263.227 216.853 263.461C217.321 263.686 217.689 264.02 217.958 264.462L217.269 264.93C217.044 264.592 216.758 264.341 216.411 264.176C216.064 264.003 215.687 263.916 215.28 263.916C214.786 263.916 214.34 264.029 213.941 264.254C213.551 264.471 213.243 264.783 213.018 265.19C212.801 265.597 212.693 266.061 212.693 266.581C212.693 267.11 212.801 267.578 213.018 267.985C213.243 268.384 213.551 268.696 213.941 268.921C214.34 269.138 214.786 269.246 215.28 269.246C215.687 269.246 216.064 269.164 216.411 268.999C216.758 268.834 217.044 268.583 217.269 268.245L217.958 268.713C217.689 269.155 217.321 269.493 216.853 269.727C216.385 269.952 215.861 270.065 215.28 270.065ZM224.233 269.233V270H218.669V269.389L222.972 263.942H218.747V263.162H224.155V263.773L219.852 269.233H224.233ZM231.408 263.162L227.989 270.819C227.712 271.46 227.391 271.915 227.027 272.184C226.663 272.453 226.226 272.587 225.714 272.587C225.385 272.587 225.077 272.535 224.791 272.431C224.505 272.327 224.258 272.171 224.05 271.963L224.479 271.274C224.826 271.621 225.242 271.794 225.727 271.794C226.039 271.794 226.304 271.707 226.52 271.534C226.746 271.361 226.954 271.066 227.144 270.65L227.443 269.987L224.388 263.162H225.35L227.924 268.973L230.498 263.162H231.408ZM241.831 260.354V270H240.947V268.648C240.669 269.107 240.301 269.458 239.842 269.701C239.391 269.944 238.88 270.065 238.308 270.065C237.666 270.065 237.086 269.918 236.566 269.623C236.046 269.328 235.638 268.917 235.344 268.388C235.049 267.859 234.902 267.257 234.902 266.581C234.902 265.905 235.049 265.303 235.344 264.774C235.638 264.245 236.046 263.838 236.566 263.552C237.086 263.257 237.666 263.11 238.308 263.11C238.862 263.11 239.361 263.227 239.803 263.461C240.253 263.686 240.622 264.02 240.908 264.462V260.354H241.831ZM238.386 269.246C238.862 269.246 239.291 269.138 239.673 268.921C240.063 268.696 240.366 268.379 240.583 267.972C240.808 267.565 240.921 267.101 240.921 266.581C240.921 266.061 240.808 265.597 240.583 265.19C240.366 264.783 240.063 264.471 239.673 264.254C239.291 264.029 238.862 263.916 238.386 263.916C237.9 263.916 237.463 264.029 237.073 264.254C236.691 264.471 236.388 264.783 236.163 265.19C235.946 265.597 235.838 266.061 235.838 266.581C235.838 267.101 235.946 267.565 236.163 267.972C236.388 268.379 236.691 268.696 237.073 268.921C237.463 269.138 237.9 269.246 238.386 269.246ZM246.936 270.065C246.278 270.065 245.684 269.918 245.155 269.623C244.627 269.32 244.211 268.904 243.907 268.375C243.604 267.846 243.452 267.248 243.452 266.581C243.452 265.914 243.604 265.316 243.907 264.787C244.211 264.258 244.627 263.847 245.155 263.552C245.684 263.257 246.278 263.11 246.936 263.11C247.595 263.11 248.189 263.257 248.717 263.552C249.246 263.847 249.658 264.258 249.952 264.787C250.256 265.316 250.407 265.914 250.407 266.581C250.407 267.248 250.256 267.846 249.952 268.375C249.658 268.904 249.246 269.32 248.717 269.623C248.189 269.918 247.595 270.065 246.936 270.065ZM246.936 269.246C247.422 269.246 247.855 269.138 248.236 268.921C248.626 268.696 248.93 268.379 249.146 267.972C249.363 267.565 249.471 267.101 249.471 266.581C249.471 266.061 249.363 265.597 249.146 265.19C248.93 264.783 248.626 264.471 248.236 264.254C247.855 264.029 247.422 263.916 246.936 263.916C246.451 263.916 246.013 264.029 245.623 264.254C245.242 264.471 244.939 264.783 244.713 265.19C244.497 265.597 244.388 266.061 244.388 266.581C244.388 267.101 244.497 267.565 244.713 267.972C244.939 268.379 245.242 268.696 245.623 268.921C246.013 269.138 246.451 269.246 246.936 269.246ZM108.81 278.11C109.451 278.11 110.032 278.257 110.552 278.552C111.072 278.838 111.479 279.245 111.774 279.774C112.069 280.303 112.216 280.905 112.216 281.581C112.216 282.266 112.069 282.872 111.774 283.401C111.479 283.93 111.072 284.341 110.552 284.636C110.041 284.922 109.46 285.065 108.81 285.065C108.255 285.065 107.753 284.952 107.302 284.727C106.86 284.493 106.496 284.155 106.21 283.713V287.522H105.287V278.162H106.171V279.514C106.448 279.063 106.812 278.717 107.263 278.474C107.722 278.231 108.238 278.11 108.81 278.11ZM108.745 284.246C109.222 284.246 109.655 284.138 110.045 283.921C110.435 283.696 110.738 283.379 110.955 282.972C111.18 282.565 111.293 282.101 111.293 281.581C111.293 281.061 111.18 280.602 110.955 280.203C110.738 279.796 110.435 279.479 110.045 279.254C109.655 279.029 109.222 278.916 108.745 278.916C108.26 278.916 107.822 279.029 107.432 279.254C107.051 279.479 106.747 279.796 106.522 280.203C106.305 280.602 106.197 281.061 106.197 281.581C106.197 282.101 106.305 282.565 106.522 282.972C106.747 283.379 107.051 283.696 107.432 283.921C107.822 284.138 108.26 284.246 108.745 284.246ZM116.633 285.065C115.974 285.065 115.38 284.918 114.852 284.623C114.323 284.32 113.907 283.904 113.604 283.375C113.3 282.846 113.149 282.248 113.149 281.581C113.149 280.914 113.3 280.316 113.604 279.787C113.907 279.258 114.323 278.847 114.852 278.552C115.38 278.257 115.974 278.11 116.633 278.11C117.291 278.11 117.885 278.257 118.414 278.552C118.942 278.847 119.354 279.258 119.649 279.787C119.952 280.316 120.104 280.914 120.104 281.581C120.104 282.248 119.952 282.846 119.649 283.375C119.354 283.904 118.942 284.32 118.414 284.623C117.885 284.918 117.291 285.065 116.633 285.065ZM116.633 284.246C117.118 284.246 117.551 284.138 117.933 283.921C118.323 283.696 118.626 283.379 118.843 282.972C119.059 282.565 119.168 282.101 119.168 281.581C119.168 281.061 119.059 280.597 118.843 280.19C118.626 279.783 118.323 279.471 117.933 279.254C117.551 279.029 117.118 278.916 116.633 278.916C116.147 278.916 115.71 279.029 115.32 279.254C114.938 279.471 114.635 279.783 114.41 280.19C114.193 280.597 114.085 281.061 114.085 281.581C114.085 282.101 114.193 282.565 114.41 282.972C114.635 283.379 114.938 283.696 115.32 283.921C115.71 284.138 116.147 284.246 116.633 284.246ZM127.968 275.354V285H127.084V283.648C126.807 284.107 126.438 284.458 125.979 284.701C125.528 284.944 125.017 285.065 124.445 285.065C123.804 285.065 123.223 284.918 122.703 284.623C122.183 284.328 121.776 283.917 121.481 283.388C121.186 282.859 121.039 282.257 121.039 281.581C121.039 280.905 121.186 280.303 121.481 279.774C121.776 279.245 122.183 278.838 122.703 278.552C123.223 278.257 123.804 278.11 124.445 278.11C125 278.11 125.498 278.227 125.94 278.461C126.391 278.686 126.759 279.02 127.045 279.462V275.354H127.968ZM124.523 284.246C125 284.246 125.429 284.138 125.81 283.921C126.2 283.696 126.503 283.379 126.72 282.972C126.945 282.565 127.058 282.101 127.058 281.581C127.058 281.061 126.945 280.597 126.72 280.19C126.503 279.783 126.2 279.471 125.81 279.254C125.429 279.029 125 278.916 124.523 278.916C124.038 278.916 123.6 279.029 123.21 279.254C122.829 279.471 122.525 279.783 122.3 280.19C122.083 280.597 121.975 281.061 121.975 281.581C121.975 282.101 122.083 282.565 122.3 282.972C122.525 283.379 122.829 283.696 123.21 283.921C123.6 284.138 124.038 284.246 124.523 284.246ZM130.343 275.354H131.266V285H130.343V275.354ZM129.03 281.269L132.176 278.903L132.592 279.475L129.459 281.828L129.03 281.269ZM136.444 285.065C135.786 285.065 135.192 284.918 134.663 284.623C134.135 284.32 133.719 283.904 133.415 283.375C133.112 282.846 132.96 282.248 132.96 281.581C132.96 280.914 133.112 280.316 133.415 279.787C133.719 279.258 134.135 278.847 134.663 278.552C135.192 278.257 135.786 278.11 136.444 278.11C137.103 278.11 137.697 278.257 138.225 278.552C138.754 278.847 139.166 279.258 139.46 279.787C139.764 280.316 139.915 280.914 139.915 281.581C139.915 282.248 139.764 282.846 139.46 283.375C139.166 283.904 138.754 284.32 138.225 284.623C137.697 284.918 137.103 285.065 136.444 285.065ZM136.444 284.246C136.93 284.246 137.363 284.138 137.744 283.921C138.134 283.696 138.438 283.379 138.654 282.972C138.871 282.565 138.979 282.101 138.979 281.581C138.979 281.061 138.871 280.597 138.654 280.19C138.438 279.783 138.134 279.471 137.744 279.254C137.363 279.029 136.93 278.916 136.444 278.916C135.959 278.916 135.521 279.029 135.131 279.254C134.75 279.471 134.447 279.783 134.221 280.19C134.005 280.597 133.896 281.061 133.896 281.581C133.896 282.101 134.005 282.565 134.221 282.972C134.447 283.379 134.75 283.696 135.131 283.921C135.521 284.138 135.959 284.246 136.444 284.246ZM147.871 278.162V284.168C147.871 285.329 147.585 286.187 147.013 286.742C146.449 287.305 145.596 287.587 144.452 287.587C143.819 287.587 143.217 287.492 142.645 287.301C142.081 287.119 141.622 286.863 141.267 286.534L141.735 285.832C142.064 286.127 142.463 286.356 142.931 286.521C143.407 286.686 143.906 286.768 144.426 286.768C145.292 286.768 145.929 286.564 146.337 286.157C146.744 285.758 146.948 285.134 146.948 284.285V283.414C146.662 283.847 146.285 284.177 145.817 284.402C145.357 284.627 144.846 284.74 144.283 284.74C143.641 284.74 143.056 284.601 142.528 284.324C142.008 284.038 141.596 283.644 141.293 283.141C140.998 282.63 140.851 282.053 140.851 281.412C140.851 280.771 140.998 280.199 141.293 279.696C141.596 279.193 142.008 278.803 142.528 278.526C143.048 278.249 143.633 278.11 144.283 278.11C144.863 278.11 145.388 278.227 145.856 278.461C146.324 278.695 146.701 279.033 146.987 279.475V278.162H147.871ZM144.374 283.921C144.868 283.921 145.314 283.817 145.713 283.609C146.111 283.392 146.419 283.093 146.636 282.712C146.861 282.331 146.974 281.897 146.974 281.412C146.974 280.927 146.861 280.498 146.636 280.125C146.419 279.744 146.111 279.449 145.713 279.241C145.323 279.024 144.876 278.916 144.374 278.916C143.88 278.916 143.433 279.02 143.035 279.228C142.645 279.436 142.337 279.731 142.112 280.112C141.895 280.493 141.787 280.927 141.787 281.412C141.787 281.897 141.895 282.331 142.112 282.712C142.337 283.093 142.645 283.392 143.035 283.609C143.433 283.817 143.88 283.921 144.374 283.921ZM150.192 278.162H151.115V285H150.192V278.162ZM150.66 276.667C150.469 276.667 150.309 276.602 150.179 276.472C150.049 276.342 149.984 276.186 149.984 276.004C149.984 275.831 150.049 275.679 150.179 275.549C150.309 275.419 150.469 275.354 150.66 275.354C150.851 275.354 151.011 275.419 151.141 275.549C151.271 275.67 151.336 275.818 151.336 275.991C151.336 276.182 151.271 276.342 151.141 276.472C151.011 276.602 150.851 276.667 150.66 276.667ZM160.088 278.11C160.73 278.11 161.31 278.257 161.83 278.552C162.35 278.838 162.758 279.245 163.052 279.774C163.347 280.303 163.494 280.905 163.494 281.581C163.494 282.266 163.347 282.872 163.052 283.401C162.758 283.93 162.35 284.341 161.83 284.636C161.319 284.922 160.738 285.065 160.088 285.065C159.534 285.065 159.031 284.952 158.58 284.727C158.138 284.493 157.774 284.155 157.488 283.713V287.522H156.565V278.162H157.449V279.514C157.727 279.063 158.091 278.717 158.541 278.474C159.001 278.231 159.516 278.11 160.088 278.11ZM160.023 284.246C160.5 284.246 160.933 284.138 161.323 283.921C161.713 283.696 162.017 283.379 162.233 282.972C162.459 282.565 162.571 282.101 162.571 281.581C162.571 281.061 162.459 280.602 162.233 280.203C162.017 279.796 161.713 279.479 161.323 279.254C160.933 279.029 160.5 278.916 160.023 278.916C159.538 278.916 159.1 279.029 158.71 279.254C158.329 279.479 158.026 279.796 157.8 280.203C157.584 280.602 157.475 281.061 157.475 281.581C157.475 282.101 157.584 282.565 157.8 282.972C158.026 283.379 158.329 283.696 158.71 283.921C159.1 284.138 159.538 284.246 160.023 284.246ZM167.47 278.11C168.363 278.11 169.047 278.335 169.524 278.786C170.001 279.228 170.239 279.887 170.239 280.762V285H169.355V283.934C169.147 284.289 168.839 284.567 168.432 284.766C168.033 284.965 167.557 285.065 167.002 285.065C166.239 285.065 165.633 284.883 165.182 284.519C164.731 284.155 164.506 283.674 164.506 283.076C164.506 282.495 164.714 282.027 165.13 281.672C165.555 281.317 166.226 281.139 167.145 281.139H169.316V280.723C169.316 280.134 169.151 279.687 168.822 279.384C168.493 279.072 168.012 278.916 167.379 278.916C166.946 278.916 166.53 278.99 166.131 279.137C165.732 279.276 165.39 279.471 165.104 279.722L164.688 279.033C165.035 278.738 165.451 278.513 165.936 278.357C166.421 278.192 166.933 278.11 167.47 278.11ZM167.145 284.337C167.665 284.337 168.111 284.22 168.484 283.986C168.857 283.743 169.134 283.397 169.316 282.946V281.828H167.171C166.001 281.828 165.416 282.235 165.416 283.05C165.416 283.449 165.568 283.765 165.871 283.999C166.174 284.224 166.599 284.337 167.145 284.337ZM173.37 279.501C173.586 279.042 173.907 278.695 174.332 278.461C174.765 278.227 175.298 278.11 175.931 278.11V279.007L175.71 278.994C174.99 278.994 174.427 279.215 174.02 279.657C173.612 280.099 173.409 280.719 173.409 281.516V285H172.486V278.162H173.37V279.501ZM181.235 284.584C181.062 284.74 180.845 284.861 180.585 284.948C180.334 285.026 180.069 285.065 179.792 285.065C179.151 285.065 178.657 284.892 178.31 284.545C177.963 284.198 177.79 283.709 177.79 283.076V278.942H176.568V278.162H177.79V276.667H178.713V278.162H180.793V278.942H178.713V283.024C178.713 283.431 178.813 283.743 179.012 283.96C179.22 284.168 179.515 284.272 179.896 284.272C180.087 284.272 180.269 284.242 180.442 284.181C180.624 284.12 180.78 284.034 180.91 283.921L181.235 284.584ZM188.368 281.867H182.648C182.7 282.578 182.973 283.154 183.467 283.596C183.961 284.029 184.585 284.246 185.339 284.246C185.764 284.246 186.154 284.172 186.509 284.025C186.864 283.869 187.172 283.644 187.432 283.349L187.952 283.947C187.649 284.311 187.267 284.588 186.808 284.779C186.357 284.97 185.859 285.065 185.313 285.065C184.611 285.065 183.987 284.918 183.441 284.623C182.904 284.32 182.483 283.904 182.18 283.375C181.877 282.846 181.725 282.248 181.725 281.581C181.725 280.914 181.868 280.316 182.154 279.787C182.449 279.258 182.847 278.847 183.35 278.552C183.861 278.257 184.433 278.11 185.066 278.11C185.699 278.11 186.266 278.257 186.769 278.552C187.272 278.847 187.666 279.258 187.952 279.787C188.238 280.307 188.381 280.905 188.381 281.581L188.368 281.867ZM185.066 278.903C184.407 278.903 183.853 279.115 183.402 279.54C182.96 279.956 182.709 280.502 182.648 281.178H187.497C187.436 280.502 187.181 279.956 186.73 279.54C186.288 279.115 185.733 278.903 185.066 278.903ZM190.884 279.501C191.1 279.042 191.421 278.695 191.846 278.461C192.279 278.227 192.812 278.11 193.445 278.11V279.007L193.224 278.994C192.504 278.994 191.941 279.215 191.534 279.657C191.126 280.099 190.923 280.719 190.923 281.516V285H190V278.162H190.884V279.501ZM201.12 278.162V285H200.236V283.752C199.993 284.168 199.659 284.493 199.235 284.727C198.81 284.952 198.325 285.065 197.779 285.065C196.886 285.065 196.18 284.818 195.66 284.324C195.148 283.821 194.893 283.089 194.893 282.127V278.162H195.816V282.036C195.816 282.755 195.993 283.301 196.349 283.674C196.704 284.047 197.211 284.233 197.87 284.233C198.589 284.233 199.157 284.016 199.573 283.583C199.989 283.141 200.197 282.53 200.197 281.75V278.162H201.12ZM212.827 275.354V285H211.943V283.648C211.666 284.107 211.297 284.458 210.838 284.701C210.387 284.944 209.876 285.065 209.304 285.065C208.663 285.065 208.082 284.918 207.562 284.623C207.042 284.328 206.635 283.917 206.34 283.388C206.045 282.859 205.898 282.257 205.898 281.581C205.898 280.905 206.045 280.303 206.34 279.774C206.635 279.245 207.042 278.838 207.562 278.552C208.082 278.257 208.663 278.11 209.304 278.11C209.859 278.11 210.357 278.227 210.799 278.461C211.25 278.686 211.618 279.02 211.904 279.462V275.354H212.827ZM209.382 284.246C209.859 284.246 210.288 284.138 210.669 283.921C211.059 283.696 211.362 283.379 211.579 282.972C211.804 282.565 211.917 282.101 211.917 281.581C211.917 281.061 211.804 280.597 211.579 280.19C211.362 279.783 211.059 279.471 210.669 279.254C210.288 279.029 209.859 278.916 209.382 278.916C208.897 278.916 208.459 279.029 208.069 279.254C207.688 279.471 207.384 279.783 207.159 280.19C206.942 280.597 206.834 281.061 206.834 281.581C206.834 282.101 206.942 282.565 207.159 282.972C207.384 283.379 207.688 283.696 208.069 283.921C208.459 284.138 208.897 284.246 209.382 284.246ZM217.933 285.065C217.274 285.065 216.68 284.918 216.152 284.623C215.623 284.32 215.207 283.904 214.904 283.375C214.6 282.846 214.449 282.248 214.449 281.581C214.449 280.914 214.6 280.316 214.904 279.787C215.207 279.258 215.623 278.847 216.152 278.552C216.68 278.257 217.274 278.11 217.933 278.11C218.591 278.11 219.185 278.257 219.714 278.552C220.242 278.847 220.654 279.258 220.949 279.787C221.252 280.316 221.404 280.914 221.404 281.581C221.404 282.248 221.252 282.846 220.949 283.375C220.654 283.904 220.242 284.32 219.714 284.623C219.185 284.918 218.591 285.065 217.933 285.065ZM217.933 284.246C218.418 284.246 218.851 284.138 219.233 283.921C219.623 283.696 219.926 283.379 220.143 282.972C220.359 282.565 220.468 282.101 220.468 281.581C220.468 281.061 220.359 280.597 220.143 280.19C219.926 279.783 219.623 279.471 219.233 279.254C218.851 279.029 218.418 278.916 217.933 278.916C217.447 278.916 217.01 279.029 216.62 279.254C216.238 279.471 215.935 279.783 215.71 280.19C215.493 280.597 215.385 281.061 215.385 281.581C215.385 282.101 215.493 282.565 215.71 282.972C215.935 283.379 216.238 283.696 216.62 283.921C217.01 284.138 217.447 284.246 217.933 284.246ZM231.556 278.11C232.414 278.11 233.086 278.357 233.571 278.851C234.065 279.345 234.312 280.073 234.312 281.035V285H233.389V281.126C233.389 280.415 233.216 279.874 232.869 279.501C232.531 279.128 232.05 278.942 231.426 278.942C230.715 278.942 230.156 279.163 229.749 279.605C229.342 280.038 229.138 280.641 229.138 281.412V285H228.215V281.126C228.215 280.415 228.042 279.874 227.695 279.501C227.357 279.128 226.872 278.942 226.239 278.942C225.537 278.942 224.978 279.163 224.562 279.605C224.155 280.038 223.951 280.641 223.951 281.412V285H223.028V278.162H223.912V279.41C224.155 278.994 224.493 278.673 224.926 278.448C225.359 278.223 225.858 278.11 226.421 278.11C226.993 278.11 227.487 278.231 227.903 278.474C228.328 278.717 228.644 279.076 228.852 279.553C229.103 279.102 229.463 278.751 229.931 278.5C230.408 278.24 230.949 278.11 231.556 278.11ZM242.717 278.162V285H241.833V283.752C241.59 284.168 241.257 284.493 240.832 284.727C240.407 284.952 239.922 285.065 239.376 285.065C238.483 285.065 237.777 284.818 237.257 284.324C236.746 283.821 236.49 283.089 236.49 282.127V278.162H237.413V282.036C237.413 282.755 237.591 283.301 237.946 283.674C238.301 284.047 238.808 284.233 239.467 284.233C240.186 284.233 240.754 284.016 241.17 283.583C241.586 283.141 241.794 282.53 241.794 281.75V278.162H242.717Z" fill="#00229A"/>
</svg>
