<svg width="328" height="328" viewBox="0 0 328 328" fill="none" xmlns="http://www.w3.org/2000/svg">
<path d="M67.6399 207.43H130.4V149.68H127.34C126.277 151.373 124.802 152.769 123.054 153.738C121.305 154.707 119.339 155.217 117.34 155.22H80.6999C77.5605 155.217 74.5505 153.969 72.3307 151.749C70.1108 149.529 68.8625 146.519 68.8599 143.38V142.43C68.8652 139.291 70.1143 136.283 72.3336 134.064C74.5529 131.844 77.5614 130.595 80.6999 130.59H117.34C119.339 130.593 121.305 131.103 123.054 132.072C124.802 133.041 126.277 134.437 127.34 136.13H130.4V73.21H67.6399V207.43ZM81.1699 79.17H116.87C120.135 79.17 123.266 80.4669 125.574 82.7755C127.883 85.0841 129.18 88.2152 129.18 91.48C129.18 94.7448 127.883 97.8759 125.574 100.184C123.266 102.493 120.135 103.79 116.87 103.79H81.1699C77.9051 103.79 74.774 102.493 72.4654 100.184C70.1568 97.8759 68.8599 94.7448 68.8599 91.48C68.8599 88.2152 70.1568 85.0841 72.4654 82.7755C74.774 80.4669 77.9051 79.17 81.1699 79.17V79.17ZM68.8599 116.72C68.8652 113.581 70.1143 110.573 72.3336 108.354C74.5529 106.134 77.5614 104.885 80.6999 104.88H87.6999C90.24 104.893 92.7089 105.721 94.7432 107.242C96.7775 108.763 98.2696 110.897 98.9999 113.33C99.7322 110.891 101.23 108.752 103.273 107.23C105.315 105.708 107.793 104.884 110.34 104.88H117.34C120.478 104.885 123.487 106.134 125.706 108.354C127.925 110.573 129.175 113.581 129.18 116.72V117.72C129.175 120.858 127.925 123.865 125.706 126.083C123.486 128.3 120.478 129.547 117.34 129.55H110.34C107.786 129.546 105.301 128.716 103.258 127.184C101.214 125.652 99.7204 123.5 98.9999 121.05C98.2704 123.491 96.773 125.632 94.7301 127.154C92.6871 128.676 90.2076 129.499 87.6599 129.5H80.6599C77.5292 129.487 74.531 128.235 72.32 126.019C70.1091 123.802 68.8651 120.801 68.8599 117.67V116.72ZM68.8599 168.14C68.8652 165.002 70.1146 161.995 72.3342 159.777C74.5538 157.56 77.5623 156.313 80.6999 156.31H87.6999C90.24 156.323 92.7089 157.151 94.7432 158.672C96.7775 160.193 98.2696 162.327 98.9999 164.76C99.7322 162.321 101.23 160.182 103.273 158.66C105.315 157.138 107.793 156.314 110.34 156.31H117.34C120.478 156.313 123.486 157.56 125.706 159.777C127.925 161.995 129.175 165.002 129.18 168.14V169.14C129.177 172.279 127.929 175.289 125.709 177.509C123.489 179.729 120.479 180.977 117.34 180.98H110.34C107.787 180.973 105.304 180.141 103.261 178.61C101.218 177.079 99.7233 174.929 98.9999 172.48C98.2676 174.919 96.7694 177.058 94.7271 178.58C92.6848 180.102 90.2069 180.926 87.6599 180.93H80.6599C77.5205 180.927 74.5105 179.679 72.2907 177.459C70.0708 175.239 68.8225 172.229 68.8199 169.09L68.8599 168.14ZM68.8599 193.85C68.8599 190.709 70.107 187.696 72.3271 185.474C74.5473 183.252 77.5588 182.003 80.6999 182H117.34C120.478 182.003 123.486 183.25 125.706 185.467C127.925 187.685 129.175 190.692 129.18 193.83V194.83C129.177 197.969 127.929 200.979 125.709 203.199C123.489 205.419 120.479 206.667 117.34 206.67H80.6999C79.1429 206.669 77.6014 206.361 76.1635 205.763C74.7257 205.166 73.4196 204.291 72.3201 203.189C71.2205 202.086 70.3489 200.778 69.7552 199.339C69.1615 197.899 68.8573 196.357 68.8599 194.8V193.85Z" fill="#6071AD"/>
<path d="M67.6399 242.26V244.38L73.9499 238.07L73.9399 235.96L67.6399 242.26Z" fill="white"/>
<path d="M67.6399 230.92V233.04L73.8799 226.8L73.8699 224.69L67.6399 230.92Z" fill="white"/>
<path d="M67.6399 236.59V238.72L73.9199 232.44L73.8999 230.33L67.6399 236.59Z" fill="white"/>
<path d="M67.6401 261.39L74.0501 254.98L74.0401 252.87L67.6401 259.27V261.39Z" fill="white"/>
<path d="M67.6399 255.72L74.0199 249.34L74.0099 247.23L67.6399 253.6V255.72Z" fill="white"/>
<path d="M67.6399 267.06L74.0899 260.61L74.0699 258.5L67.6399 264.94V267.06Z" fill="white"/>
<path d="M18.8299 281.86V279.74L13.1599 285.4L13.1699 287.51L18.8299 281.86Z" fill="white"/>
<path d="M67.6399 227.38L73.8499 221.17L73.8399 219.06L67.6399 225.25V227.38Z" fill="white"/>
<path d="M73.1301 208.43L67.6401 213.92V216.04L75.2501 208.43H73.1301Z" fill="white"/>
<path d="M67.6401 208.43V210.37L69.5801 208.43H67.6401Z" fill="white"/>
<path d="M81.8501 307.42H83.9701L86.0201 305.37V303.25L81.8501 307.42Z" fill="white"/>
<path d="M112.81 208.43L106.68 214.56H108.8L114.94 208.43H112.81Z" fill="white"/>
<path d="M90.1401 208.43L84.0701 214.5H86.1801L92.2601 208.43H90.1401Z" fill="white"/>
<path d="M67.6401 276.45H69.5801L75.8201 270.22H74.1401V269.78L67.6401 276.28V276.45Z" fill="white"/>
<path d="M18.8299 285.4L13.1899 291.04L13.1999 293.15L18.8299 287.53V285.4Z" fill="white"/>
<path d="M67.6399 250.05L73.9799 243.71L73.9699 241.6L67.6399 247.93V250.05Z" fill="white"/>
<path d="M17.13 277.88H15.01L8.69995 284.2L10.78 284.24L17.13 277.88Z" fill="white"/>
<path d="M154.04 214.68L158.47 210.24V208.43H158.17L151.92 214.67L154.04 214.68Z" fill="white"/>
<path d="M5.20988 284.13L11.4599 277.88H9.33988L3.12988 284.1L5.20988 284.13Z" fill="white"/>
<path d="M76.1799 307.42H78.2999L86.0099 299.72L85.9999 297.6L76.1799 307.42Z" fill="white"/>
<path d="M74.1101 264.14L67.6401 270.61V272.73L74.1201 266.25L74.1101 264.14Z" fill="white"/>
<path d="M154.62 208.43H152.5L146.27 214.66H148.38L154.62 208.43Z" fill="white"/>
<path d="M142.73 214.65L148.95 208.43H146.83L140.61 214.65H142.73Z" fill="white"/>
<path d="M97.93 208.43H95.81L89.72 214.51L91.84 214.52L97.93 208.43Z" fill="white"/>
<path d="M143.28 208.43H141.16L134.96 214.63H137.07L143.28 208.43Z" fill="white"/>
<path d="M18.83 293.19V291.07L13.22 296.69L13.23 298.8L18.83 293.19Z" fill="white"/>
<path d="M79.3699 270.22L73.1299 276.45H75.2499L81.4899 270.22H79.3699Z" fill="white"/>
<path d="M157.57 214.69H158.47V213.79L157.57 214.69Z" fill="white"/>
<path d="M78.8001 208.43L67.6401 219.59V221.71L73.8101 215.53V214.47H74.3101H74.8701L80.9201 208.43H78.8001Z" fill="white"/>
<path d="M81.0801 281.97L85.9401 277.1V274.99L81.0801 279.85V281.97Z" fill="white"/>
<path d="M103.6 208.43H101.48L95.3799 214.53H97.4899L103.6 208.43Z" fill="white"/>
<path d="M120.61 208.43H118.48L112.34 214.57L114.45 214.58L120.61 208.43Z" fill="white"/>
<path d="M109.27 208.43H107.14L101.03 214.54L103.14 214.55L109.27 208.43Z" fill="white"/>
<path d="M131.94 208.43H131.4H129.82L123.65 214.6L125.76 214.61L131.94 208.43Z" fill="white"/>
<path d="M126.27 208.43H124.15L117.99 214.59H120.11L126.27 208.43Z" fill="white"/>
<path d="M5.79 277.88H3.67L1 280.56V282.68L5.79 277.88Z" fill="white"/>
<path d="M85.04 270.22L78.8 276.45H80.92L85.93 271.45L85.92 270.22H85.04Z" fill="white"/>
<path d="M86.5901 208.43H84.4702L78.4102 214.48L80.5302 214.49L86.5901 208.43Z" fill="white"/>
<path d="M56.2001 301.17H54.0801L47.8301 307.42H49.9501L56.2001 301.17Z" fill="white"/>
<path d="M61.87 301.17H59.75L53.5 307.42H55.62L61.87 301.17Z" fill="white"/>
<path d="M78.88 301.17H76.76L70.51 307.42H72.63L78.88 301.17Z" fill="white"/>
<path d="M50.5299 301.17H48.4099L42.1599 307.42H44.2799L50.5299 301.17Z" fill="white"/>
<path d="M67.5399 301.17H65.4199L59.1699 307.42H61.2899L67.5399 301.17Z" fill="white"/>
<path d="M81.0801 285.52V287.64L85.9601 282.76L85.9501 280.64L81.0801 285.52Z" fill="white"/>
<path d="M44.87 301.17H42.74L36.49 307.42H38.61L44.87 301.17Z" fill="white"/>
<path d="M18.83 298.86V296.74L13.24 302.33L13.25 304.44L18.83 298.86Z" fill="white"/>
<path d="M22.1901 301.17H20.0701L13.8201 307.42H15.9401L22.1901 301.17Z" fill="white"/>
<path d="M33.5299 301.17H31.4099L25.1599 307.42H27.2799L33.5299 301.17Z" fill="white"/>
<path d="M27.86 301.17H25.74L19.49 307.42H21.61L27.86 301.17Z" fill="white"/>
<path d="M39.2001 301.17H37.0801L30.8201 307.42H32.9501L39.2001 301.17Z" fill="white"/>
<path d="M73.2101 301.17H71.0901L64.8401 307.42H66.9601L73.2101 301.17Z" fill="white"/>
<path d="M81.0801 296.86V298.98L85.9901 294.06L85.9801 291.95L81.0801 296.86Z" fill="white"/>
<path d="M81.0801 291.19V293.31L85.9701 288.41V286.3L81.0801 291.19Z" fill="white"/>
<path d="M131.42 214.62L137.61 208.43H135.49L129.3 214.62H131.42Z" fill="white"/>
<path d="M117.34 183.02H80.7001C74.7133 183.02 69.8601 187.873 69.8601 193.86V194.8C69.8601 200.787 74.7133 205.64 80.7001 205.64H117.34C123.327 205.64 128.18 200.787 128.18 194.8V193.86C128.18 187.873 123.327 183.02 117.34 183.02Z" fill="#D9DEEE"/>
<path d="M80.7001 206.64H117.34C120.479 206.637 123.489 205.389 125.709 203.169C127.929 200.949 129.177 197.939 129.18 194.8V193.8C129.167 190.668 127.914 187.668 125.695 185.457C123.477 183.245 120.473 182.003 117.34 182H80.7001C77.5625 182.003 74.554 183.25 72.3344 185.467C70.1148 187.685 68.8654 190.692 68.8601 193.83V194.83C68.8707 197.964 70.1225 200.966 72.3415 203.18C74.5605 205.393 77.5659 206.637 80.7001 206.64V206.64ZM69.8601 193.85C69.8601 190.974 71.0019 188.216 73.0345 186.181C75.0671 184.147 77.8242 183.003 80.7001 183H117.34C120.213 183.003 122.967 184.144 124.999 186.174C127.031 188.205 128.175 190.958 128.18 193.83V194.83C128.175 197.703 127.031 200.457 124.999 202.489C122.968 204.521 120.213 205.665 117.34 205.67H80.7001C77.8216 205.665 75.0629 204.517 73.0303 202.479C70.9977 200.44 69.8575 197.679 69.8601 194.8V193.85Z" fill="#00229A"/>
<path d="M126.14 136.13C125.139 134.729 123.819 133.586 122.289 132.796C120.758 132.007 119.062 131.593 117.34 131.59H80.6999C77.8265 131.595 75.0724 132.739 73.0407 134.771C71.0089 136.802 69.8651 139.557 69.8599 142.43V143.38C69.8651 146.253 71.0089 149.007 73.0407 151.039C75.0724 153.071 77.8265 154.215 80.6999 154.22H117.34C119.062 154.216 120.758 153.803 122.289 153.013C123.819 152.224 125.139 151.081 126.14 149.68H115C114.088 149.715 113.179 149.566 112.326 149.241C111.474 148.916 110.696 148.423 110.038 147.79C109.381 147.158 108.858 146.399 108.501 145.559C108.144 144.72 107.96 143.817 107.96 142.905C107.96 141.993 108.144 141.09 108.501 140.25C108.858 139.411 109.381 138.652 110.038 138.019C110.696 137.387 111.474 136.894 112.326 136.569C113.179 136.244 114.088 136.095 115 136.13H126.14Z" fill="#D9DEEE"/>
<path d="M81.1701 102.79H116.87C119.87 102.79 122.746 101.598 124.867 99.4773C126.989 97.3563 128.18 94.4795 128.18 91.4799C128.18 88.4803 126.989 85.6036 124.867 83.4825C122.746 81.3615 119.87 80.1699 116.87 80.1699H81.1701C78.1705 80.1699 75.2938 81.3615 73.1727 83.4825C71.0517 85.6036 69.8601 88.4803 69.8601 91.4799C69.8601 94.4795 71.0517 97.3563 73.1727 99.4773C75.2938 101.598 78.1705 102.79 81.1701 102.79V102.79Z" fill="#D9DEEE"/>
<path d="M81.1701 103.79H116.87C120.135 103.79 123.266 102.493 125.575 100.184C127.883 97.8758 129.18 94.7447 129.18 91.4799C129.18 88.2151 127.883 85.084 125.575 82.7754C123.266 80.4669 120.135 79.1699 116.87 79.1699H81.1701C77.9053 79.1699 74.7742 80.4669 72.4656 82.7754C70.157 85.084 68.8601 88.2151 68.8601 91.4799C68.8601 94.7447 70.157 97.8758 72.4656 100.184C74.7742 102.493 77.9053 103.79 81.1701 103.79ZM81.1701 80.1699H116.87C119.87 80.1699 122.746 81.3615 124.867 83.4825C126.989 85.6036 128.18 88.4803 128.18 91.4799C128.18 94.4795 126.989 97.3563 124.867 99.4773C122.746 101.598 119.87 102.79 116.87 102.79H81.1701C78.1705 102.79 75.2938 101.598 73.1727 99.4773C71.0517 97.3563 69.8601 94.4795 69.8601 91.4799C69.8601 88.4803 71.0517 85.6036 73.1727 83.4825C75.2938 81.3615 78.1705 80.1699 81.1701 80.1699V80.1699Z" fill="#00229A"/>
<path d="M19.8301 300.17H80.0801V277.87V277.45H66.6401V277.44V208.43V207.43V72.7002V72.2002V69.7002V63.0302V56.3602V49.6902V43.0202V41.2002H40.5601V79.1702H50.2801V97.4902H33.8701V269.22V277.45H19.8301V300.17Z" fill="white"/>
<path d="M49.28 96.4899V80.1699H40.56H1V96.0499V96.4899H49.28Z" fill="white"/>
<path d="M169.71 214.78H163.24V215.78H169.71V214.78Z" fill="#00229A"/>
<path d="M179.18 214.78H176.18V215.78H179.18V214.78Z" fill="#00229A"/>
<path d="M149.28 263.4H143.9V264.4H149.28V263.4Z" fill="#00229A"/>
<path d="M170.8 263.4H165.42V264.4H170.8V263.4Z" fill="#00229A"/>
<path d="M160.04 263.4H154.66V264.4H160.04V263.4Z" fill="#00229A"/>
<path d="M179.18 263.4H176.18V264.4H179.18V263.4Z" fill="#00229A"/>
<path d="M172.15 216.98V218.42L173.34 217.22V261.97L172.15 260.77V262.21L173.84 263.9L175.54 262.21V260.77L174.34 261.97V217.22L175.54 218.42V216.98L173.84 215.28L172.15 216.98Z" fill="#00229A"/>
<path d="M68.8301 27.8602H70.2701L69.0801 26.6702H128.96L127.76 27.8602H129.2L130.9 26.1702L129.2 24.4702H127.76L128.96 25.6702H69.0801L70.2701 24.4702H68.8301L67.1401 26.1702L68.8301 27.8602Z" fill="#00229A"/>
<path d="M87.6801 157.31H80.7001C74.7133 157.31 69.8601 162.163 69.8601 168.15V169.09C69.8601 175.077 74.7133 179.93 80.7001 179.93H87.6801C93.6669 179.93 98.5201 175.077 98.5201 169.09V168.15C98.5201 162.163 93.6669 157.31 87.6801 157.31Z" fill="#D9DEEE"/>
<path d="M80.7001 180.93H87.7001C90.2402 180.917 92.7091 180.089 94.7434 178.568C96.7776 177.047 98.2698 174.913 99.0001 172.48C99.7324 174.919 101.231 177.058 103.273 178.58C105.315 180.102 107.793 180.926 110.34 180.93H117.34C120.479 180.927 123.489 179.679 125.709 177.459C127.929 175.239 129.177 172.229 129.18 169.09V168.09C129.175 164.952 127.925 161.945 125.706 159.727C123.486 157.509 120.478 156.262 117.34 156.26H110.34C107.787 156.267 105.304 157.098 103.261 158.63C101.218 160.161 99.7234 162.311 99.0001 164.76C98.2678 162.32 96.7696 160.181 94.7273 158.66C92.685 157.138 90.207 156.314 87.6601 156.31H80.6601C77.5225 156.312 74.514 157.559 72.2944 159.777C70.0748 161.995 68.8254 165.002 68.8201 168.14V169.14C68.8359 172.277 70.0956 175.281 72.3226 177.491C74.5497 179.701 77.5624 180.938 80.7001 180.93V180.93ZM69.8601 168.14C69.8654 165.267 71.0094 162.514 73.0415 160.484C75.0735 158.454 77.8277 157.312 80.7001 157.31H87.7001C90.5725 157.312 93.3266 158.454 95.3587 160.484C97.3907 162.514 98.5348 165.267 98.5401 168.14V169.14C98.5348 172.013 97.391 174.767 95.3593 176.799C93.3275 178.831 90.5734 179.974 87.7001 179.98H80.7001C77.8267 179.974 75.0726 178.831 73.0409 176.799C71.0091 174.767 69.8654 172.013 69.8601 169.14V168.14ZM99.5201 168.14C99.5254 165.267 100.669 162.514 102.701 160.484C104.734 158.454 107.488 157.312 110.36 157.31H117.36C120.232 157.312 122.987 158.454 125.019 160.484C127.051 162.514 128.195 165.267 128.2 168.14V169.14C128.195 172.013 127.051 174.767 125.019 176.799C122.988 178.831 120.233 179.974 117.36 179.98H110.36C107.487 179.974 104.733 178.831 102.701 176.799C100.669 174.767 99.5254 172.013 99.5201 169.14V168.14Z" fill="#00229A"/>
<path d="M117.34 157.31H110.36C104.373 157.31 99.52 162.163 99.52 168.15V169.09C99.52 175.077 104.373 179.93 110.36 179.93H117.34C123.327 179.93 128.18 175.077 128.18 169.09V168.15C128.18 162.163 123.327 157.31 117.34 157.31Z" fill="#D9DEEE"/>
<path d="M87.6799 105.88H80.6999C74.7131 105.88 69.8599 110.733 69.8599 116.72V117.66C69.8599 123.647 74.7131 128.5 80.6999 128.5H87.6799C93.6666 128.5 98.5199 123.647 98.5199 117.66V116.72C98.5199 110.733 93.6666 105.88 87.6799 105.88Z" fill="#D9DEEE"/>
<path d="M80.7001 129.5H87.7001C90.241 129.491 92.7114 128.664 94.7463 127.142C96.7812 125.621 98.2726 123.485 99.0001 121.05C99.7296 123.491 101.227 125.632 103.27 127.154C105.313 128.676 107.792 129.499 110.34 129.5H117.34C120.478 129.497 123.486 128.251 125.706 126.033C127.925 123.815 129.175 120.808 129.18 117.67V116.67C129.175 113.532 127.926 110.523 125.706 108.304C123.487 106.084 120.479 104.835 117.34 104.83H110.34C107.787 104.837 105.304 105.669 103.261 107.2C101.218 108.731 99.7235 110.881 99.0001 113.33C98.2678 110.891 96.7697 108.752 94.7273 107.23C92.685 105.708 90.2071 104.884 87.6601 104.88H80.6601C77.5285 104.896 74.5303 106.15 72.3196 108.368C70.109 110.586 68.8653 113.588 68.8601 116.72V117.72C68.8786 120.849 70.1339 123.844 72.352 126.051C74.5701 128.257 77.5711 129.497 80.7001 129.5V129.5ZM69.8601 116.72C69.8654 113.847 71.0092 111.093 73.0409 109.061C75.0727 107.029 77.8268 105.885 80.7001 105.88H87.7001C90.57 105.891 93.319 107.037 95.3464 109.068C97.3738 111.099 98.5148 113.85 98.5201 116.72V117.72C98.5016 120.584 97.3517 123.324 95.3211 125.343C93.2905 127.363 90.5439 128.497 87.6801 128.5H80.6801C77.8112 128.492 75.0622 127.348 73.0344 125.319C71.0067 123.289 69.8654 120.539 69.8601 117.67V116.72ZM99.5201 116.72C99.5254 113.847 100.669 111.093 102.701 109.061C104.733 107.029 107.487 105.885 110.36 105.88H117.36C120.233 105.885 122.988 107.029 125.019 109.061C127.051 111.093 128.195 113.847 128.2 116.72V117.72C128.195 120.592 127.051 123.346 125.019 125.376C122.987 127.406 120.233 128.547 117.36 128.55H110.36C108.934 128.549 107.521 128.266 106.204 127.718C104.887 127.171 103.691 126.369 102.684 125.358C101.677 124.347 100.879 123.148 100.336 121.829C99.7936 120.51 99.5162 119.097 99.5201 117.67V116.72Z" fill="#00229A"/>
<path d="M117.34 105.88H110.36C104.373 105.88 99.52 110.733 99.52 116.72V117.66C99.52 123.647 104.373 128.5 110.36 128.5H117.34C123.327 128.5 128.18 123.647 128.18 117.66V116.72C128.18 110.733 123.327 105.88 117.34 105.88Z" fill="#D9DEEE"/>
<path d="M67.6399 29.6699H66.6399V36.3399H67.6399V29.6699Z" fill="#00229A"/>
<path d="M67.6399 20H66.6399V23H67.6399V20Z" fill="#00229A"/>
<path d="M131.4 56.3599H130.4V63.0299H131.4V56.3599Z" fill="#00229A"/>
<path d="M131.4 43.02H130.4V49.69H131.4V43.02Z" fill="#00229A"/>
<path d="M131.4 29.6699H130.4V36.3399H131.4V29.6699Z" fill="#00229A"/>
<path d="M131.4 20H130.4V23H131.4V20Z" fill="#00229A"/>
<path d="M113.55 143.41L114.74 144.6H113.3L111.61 142.91L113.3 141.21H114.74L113.55 142.41H140.82V136.63V137.13H115C114.221 137.097 113.444 137.223 112.715 137.498C111.986 137.774 111.321 138.194 110.758 138.734C110.196 139.273 109.748 139.921 109.443 140.638C109.137 141.354 108.979 142.126 108.979 142.905C108.979 143.684 109.137 144.455 109.443 145.172C109.748 145.889 110.196 146.537 110.758 147.076C111.321 147.616 111.986 148.036 112.715 148.311C113.444 148.587 114.221 148.712 115 148.68H140.86V149.18V143.41H113.55Z" fill="#F7F8FC"/>
<path d="M115 148.68C114.221 148.712 113.444 148.587 112.715 148.311C111.986 148.036 111.321 147.616 110.758 147.076C110.196 146.537 109.749 145.889 109.443 145.172C109.137 144.455 108.98 143.684 108.98 142.905C108.98 142.126 109.137 141.354 109.443 140.638C109.749 139.921 110.196 139.273 110.758 138.734C111.321 138.194 111.986 137.774 112.715 137.499C113.444 137.223 114.221 137.098 115 137.13H140.86V136.13H140.68V86.44H140.85V85.44C140.071 85.4724 139.294 85.347 138.565 85.0714C137.836 84.7958 137.171 84.3756 136.608 83.8362C136.046 83.2967 135.599 82.6491 135.293 81.9323C134.987 81.2155 134.83 80.4442 134.83 79.665C134.83 78.8857 134.987 78.1145 135.293 77.3976C135.599 76.6808 136.046 76.0332 136.608 75.4938C137.171 74.9543 137.836 74.5342 138.565 74.2585C139.294 73.9829 140.071 73.8576 140.85 73.89V72.89H140.68V65.68H130.4V72.21H67.64V40.21H39.56V79.21H0V97.49H32.87V269.22H0V285L12.16 285.22L12.27 308.38H87L86.89 269.18H75.14L74.81 215.43L130.4 215.58V252.58L135.52 263.9V264.39H138.52V263.39H135.75L140.64 252.58V215.58H140.82V215.71H143.82V215.58H150.29V215.69H156.76V215.6H159.47V207.34H140.64V149.68H140.82V148.68H115ZM158.51 208.43V210.24L154 214.68H151.88L158.13 208.44L158.51 208.43ZM33.87 269.22V97.49H50.28V79.17H40.56V41.17H66.64V277.44H80.08V300.16H19.83V277.45H33.83L33.87 269.22ZM1 96.05V80.17H49.28V96.49H1V96.05ZM130.4 136.13H127.34C126.277 134.437 124.802 133.041 123.054 132.072C121.305 131.103 119.339 130.593 117.34 130.59H80.7C77.5615 130.595 74.553 131.844 72.3337 134.064C70.1144 136.283 68.8653 139.291 68.86 142.43V143.38C68.8626 146.519 70.1109 149.529 72.3308 151.749C74.5506 153.969 77.5606 155.217 80.7 155.22H117.34C119.339 155.217 121.305 154.707 123.054 153.738C124.802 152.769 126.277 151.373 127.34 149.68H130.4V207.43H67.64V73.21H130.4V136.13ZM108.18 142.91C108.183 144.706 108.898 146.428 110.169 147.698C111.441 148.967 113.164 149.68 114.96 149.68H126.14C125.139 151.081 123.819 152.224 122.289 153.013C120.758 153.803 119.062 154.217 117.34 154.22H80.7C77.8267 154.215 75.0726 153.071 73.0408 151.039C71.0091 149.007 69.8653 146.253 69.86 143.38V142.43C69.8653 139.557 71.0091 136.803 73.0408 134.771C75.0726 132.739 77.8267 131.595 80.7 131.59H117.34C119.062 131.593 120.758 132.007 122.289 132.796C123.819 133.586 125.139 134.729 126.14 136.13H115C114.107 136.126 113.221 136.298 112.395 136.637C111.568 136.976 110.816 137.475 110.183 138.105C109.549 138.734 109.046 139.483 108.703 140.308C108.359 141.132 108.181 142.017 108.18 142.91V142.91ZM106.68 214.56L112.81 208.43H114.94L108.8 214.56H106.68ZM84.07 214.5L90.14 208.43H92.26L86.18 214.5H84.07ZM74.14 270.22H75.82L69.59 276.45H67.59V276.28L74.09 269.78L74.14 270.22ZM84 307.42H81.85L86 303.25V305.37L84 307.42ZM78.33 307.42H76.18L86 297.6V299.72L78.33 307.42ZM11.46 277.88L5.21 284.13H3.13L9.34 277.91L11.46 277.88ZM15.01 277.88H17.13L10.78 284.24H8.7L15.01 277.88ZM74.01 243.71L67.67 250.05V247.93L74 241.6L74.01 243.71ZM74.01 249.34L67.63 255.72V253.6L74 247.23L74.01 249.34ZM74.01 254.98L67.6 261.39V259.27L74 252.87L74.01 254.98ZM74.01 260.61L67.56 267.06V264.94L73.99 258.5L74.01 260.61ZM67.56 270.61L74.03 264.14V266.25L67.55 272.73L67.56 270.61ZM67.56 244.38V242.26L73.86 235.96V238.07L67.56 244.38ZM67.56 238.71V236.59L73.82 230.33V232.44L67.56 238.71ZM67.56 233.05V230.92L73.79 224.69V226.8L67.56 233.05ZM73.77 221.17L67.56 227.38V225.25L73.76 219.06L73.77 221.17ZM67.56 208.43H69.5L67.56 210.37V208.43ZM67.56 213.92L73.05 208.43H75.17L67.64 216L67.56 213.92ZM18.83 279.74V281.86L13.17 287.51V285.4L18.83 279.74ZM13.19 291L18.83 285.36V287.49L13.2 293.11L13.19 291ZM18.83 291V293.13L13.23 298.73V296.62L18.83 291ZM18.83 296.67V298.79L13.25 304.37V302.26L18.83 296.67ZM20.07 301.1H22.19L15.94 307.35H13.82L20.07 301.1ZM25.74 301.1H27.86L21.61 307.35H19.49L25.74 301.1ZM31.41 301.1H33.53L27.28 307.35H25.15L31.41 301.1ZM37.07 301.1H39.2L33 307.42H30.82L37.07 301.1ZM42.74 301.1H44.87L38.61 307.35H36.49L42.74 301.1ZM48.41 301.1H50.53L44.28 307.35H42.16L48.41 301.1ZM54.08 301.1H56.2L50 307.42H47.83L54.08 301.1ZM59.75 301.1H61.87L55.62 307.35H53.5L59.75 301.1ZM65.42 301.1H67.54L61.29 307.35H59.17L65.42 301.1ZM71.09 301.1H73.21L67 307.42H64.84L71.09 301.1ZM76.76 301.1H78.88L72.63 307.35H70.51L76.76 301.1ZM81.08 299V296.88L86 292V294.11L81.08 299ZM81.08 293.33V291.21L85.97 286.31V288.43L81.08 293.33ZM81.08 287.66V285.54L86 280.64V282.76L81.08 287.66ZM85.94 277.12L81.08 282V279.88L85.94 275V277.12ZM73.13 276.47L79.37 270.24H81.49L75.25 276.47H73.13ZM74.31 214.47H73.81V215.53L67.64 221.71V219.59L78.8 208.43H80.92L74.92 214.43L74.31 214.47ZM84.47 208.47H86.59L80.53 214.53H78.41L84.47 208.47ZM95.81 208.47H97.93L91.84 214.56H89.72L95.81 208.47ZM101.48 208.47H103.6L97.49 214.57H95.38L101.48 208.47ZM107.15 208.47H109.27L103.15 214.59H101L107.15 208.47ZM118.48 208.47H120.61L114.45 214.62H112.34L118.48 208.47ZM124.15 208.47H126.27L120.11 214.63H118L124.15 208.47ZM129.82 208.47H131.94L125.76 214.65H123.65L129.82 208.47ZM3.67 277.88H5.79L1 282.68V280.55L3.67 277.88ZM80.92 276.45H78.8L85 270.22H85.88V271.45L80.92 276.45ZM135.49 208.45H137.61L131.42 214.64H129.3L135.49 208.45ZM137.07 214.66H135L141.2 208.46H143.32L137.07 214.66ZM146.83 208.45H149L142.78 214.67H140.66L146.83 208.45ZM152.5 208.45H154.62L148.38 214.69H146.27L152.5 208.45ZM157.58 214.71L158.47 213.81V214.71H157.58ZM137.64 68.71V73.71C136.544 74.2828 135.626 75.1448 134.985 76.2025C134.344 77.2603 134.006 78.4733 134.006 79.71C134.006 80.9466 134.344 82.1596 134.985 83.2174C135.626 84.2751 136.544 85.1372 137.64 85.71V136.18H133.4V68.68L137.64 68.71ZM137.64 251.98L135.52 256.66L133.4 252V215.63H137.64V251.98ZM137.64 207.46H133.4V149.68H137.64V207.46Z" fill="#00229A"/>
<path d="M159.47 142.41H140.82H113.55L114.74 141.21H113.3L111.61 142.91L113.3 144.6H114.74L113.55 143.41H140.82H159.47V142.41Z" fill="#00229A"/>
<path d="M135 79.67C135 81.2029 135.609 82.6731 136.693 83.7571C137.777 84.841 139.247 85.45 140.78 85.45V80.17H139.4L140.59 81.37H139.15L137.46 79.67L139.15 78H140.59L139.4 79.19H140.81V73.9C140.049 73.896 139.295 74.0423 138.591 74.3304C137.887 74.6184 137.247 75.0427 136.707 75.5787C136.167 76.1148 135.739 76.7521 135.446 77.4542C135.153 78.1563 135.001 78.9092 135 79.67Z" fill="#F7F8FC"/>
<path d="M139.4 79.17L140.59 77.98H139.15L137.46 79.67L139.15 81.37H140.59L139.4 80.17H140.81H159.47V79.17H140.81H139.4Z" fill="#00229A"/>
<path d="M88.472 11.9V12.563L84.663 21H83.649L87.393 12.732H82.713V14.435H81.79V11.9H88.472ZM91.5961 15.631C92.9134 15.631 93.8711 15.8693 94.4691 16.346C95.0757 16.814 95.3791 17.4727 95.3791 18.322C95.3791 18.8507 95.2534 19.323 95.0021 19.739C94.7594 20.155 94.3911 20.4843 93.8971 20.727C93.4031 20.961 92.7964 21.078 92.0771 21.078C91.4271 21.078 90.8074 20.974 90.2181 20.766C89.6374 20.5493 89.1694 20.2633 88.8141 19.908L89.2691 19.167C89.5724 19.479 89.9711 19.7347 90.4651 19.934C90.9591 20.1247 91.4921 20.22 92.0641 20.22C92.8181 20.22 93.3987 20.051 93.8061 19.713C94.2221 19.375 94.4301 18.9243 94.4301 18.361C94.4301 17.737 94.1961 17.2647 93.7281 16.944C93.2687 16.6233 92.4887 16.463 91.3881 16.463H89.4511L89.9191 11.9H94.8981V12.732H90.7381L90.4261 15.631H91.5961ZM102.895 21.065C102.219 21.065 101.612 20.9177 101.075 20.623C100.546 20.3283 100.13 19.9167 99.8267 19.388C99.5234 18.8507 99.3717 18.2483 99.3717 17.581C99.3717 16.9137 99.5234 16.3157 99.8267 15.787C100.13 15.2583 100.546 14.8467 101.075 14.552C101.612 14.2573 102.219 14.11 102.895 14.11C103.484 14.11 104.008 14.227 104.468 14.461C104.936 14.6863 105.304 15.02 105.573 15.462L104.884 15.93C104.658 15.592 104.372 15.3407 104.026 15.176C103.679 15.0027 103.302 14.916 102.895 14.916C102.401 14.916 101.954 15.0287 101.556 15.254C101.166 15.4707 100.858 15.7827 100.633 16.19C100.416 16.5973 100.308 17.061 100.308 17.581C100.308 18.1097 100.416 18.5777 100.633 18.985C100.858 19.3837 101.166 19.6957 101.556 19.921C101.954 20.1377 102.401 20.246 102.895 20.246C103.302 20.246 103.679 20.1637 104.026 19.999C104.372 19.8343 104.658 19.583 104.884 19.245L105.573 19.713C105.304 20.155 104.936 20.493 104.468 20.727C104 20.9523 103.475 21.065 102.895 21.065ZM115.654 14.11C116.512 14.11 117.184 14.357 117.669 14.851C118.163 15.345 118.41 16.073 118.41 17.035V21H117.487V17.126C117.487 16.4153 117.314 15.8737 116.967 15.501C116.629 15.1283 116.148 14.942 115.524 14.942C114.813 14.942 114.254 15.163 113.847 15.605C113.44 16.0383 113.236 16.6407 113.236 17.412V21H112.313V17.126C112.313 16.4153 112.14 15.8737 111.793 15.501C111.455 15.1283 110.97 14.942 110.337 14.942C109.635 14.942 109.076 15.163 108.66 15.605C108.253 16.0383 108.049 16.6407 108.049 17.412V21H107.126V14.162H108.01V15.41C108.253 14.994 108.591 14.6733 109.024 14.448C109.457 14.2227 109.956 14.11 110.519 14.11C111.091 14.11 111.585 14.2313 112.001 14.474C112.426 14.7167 112.742 15.0763 112.95 15.553C113.201 15.1023 113.561 14.7513 114.029 14.5C114.506 14.24 115.047 14.11 115.654 14.11Z" fill="#00229A"/>
<path d="M182.068 237.631C183.385 237.631 184.343 237.869 184.941 238.346C185.548 238.814 185.851 239.473 185.851 240.322C185.851 240.851 185.725 241.323 185.474 241.739C185.231 242.155 184.863 242.484 184.369 242.727C183.875 242.961 183.268 243.078 182.549 243.078C181.899 243.078 181.279 242.974 180.69 242.766C180.109 242.549 179.641 242.263 179.286 241.908L179.741 241.167C180.044 241.479 180.443 241.735 180.937 241.934C181.431 242.125 181.964 242.22 182.536 242.22C183.29 242.22 183.871 242.051 184.278 241.713C184.694 241.375 184.902 240.924 184.902 240.361C184.902 239.737 184.668 239.265 184.2 238.944C183.741 238.623 182.961 238.463 181.86 238.463H179.923L180.391 233.9H185.37V234.732H181.21L180.898 237.631H182.068ZM190.406 243.078C189.704 243.078 189.076 242.892 188.521 242.519C187.975 242.146 187.546 241.613 187.234 240.92C186.931 240.218 186.779 239.395 186.779 238.45C186.779 237.505 186.931 236.686 187.234 235.993C187.546 235.291 187.975 234.754 188.521 234.381C189.076 234.008 189.704 233.822 190.406 233.822C191.108 233.822 191.732 234.008 192.278 234.381C192.833 234.754 193.266 235.291 193.578 235.993C193.89 236.686 194.046 237.505 194.046 238.45C194.046 239.395 193.89 240.218 193.578 240.92C193.266 241.613 192.833 242.146 192.278 242.519C191.732 242.892 191.108 243.078 190.406 243.078ZM190.406 242.22C190.935 242.22 191.399 242.073 191.797 241.778C192.205 241.483 192.521 241.054 192.746 240.491C192.972 239.928 193.084 239.247 193.084 238.45C193.084 237.653 192.972 236.972 192.746 236.409C192.521 235.846 192.205 235.417 191.797 235.122C191.399 234.827 190.935 234.68 190.406 234.68C189.878 234.68 189.41 234.827 189.002 235.122C188.604 235.417 188.292 235.846 188.066 236.409C187.841 236.972 187.728 237.653 187.728 238.45C187.728 239.247 187.841 239.928 188.066 240.491C188.292 241.054 188.604 241.483 189.002 241.778C189.41 242.073 189.878 242.22 190.406 242.22ZM201.714 243.065C201.038 243.065 200.431 242.918 199.894 242.623C199.365 242.328 198.949 241.917 198.646 241.388C198.343 240.851 198.191 240.248 198.191 239.581C198.191 238.914 198.343 238.316 198.646 237.787C198.949 237.258 199.365 236.847 199.894 236.552C200.431 236.257 201.038 236.11 201.714 236.11C202.303 236.11 202.828 236.227 203.287 236.461C203.755 236.686 204.123 237.02 204.392 237.462L203.703 237.93C203.478 237.592 203.192 237.341 202.845 237.176C202.498 237.003 202.121 236.916 201.714 236.916C201.22 236.916 200.774 237.029 200.375 237.254C199.985 237.471 199.677 237.783 199.452 238.19C199.235 238.597 199.127 239.061 199.127 239.581C199.127 240.11 199.235 240.578 199.452 240.985C199.677 241.384 199.985 241.696 200.375 241.921C200.774 242.138 201.22 242.246 201.714 242.246C202.121 242.246 202.498 242.164 202.845 241.999C203.192 241.834 203.478 241.583 203.703 241.245L204.392 241.713C204.123 242.155 203.755 242.493 203.287 242.727C202.819 242.952 202.295 243.065 201.714 243.065ZM214.473 236.11C215.331 236.11 216.003 236.357 216.488 236.851C216.982 237.345 217.229 238.073 217.229 239.035V243H216.306V239.126C216.306 238.415 216.133 237.874 215.786 237.501C215.448 237.128 214.967 236.942 214.343 236.942C213.633 236.942 213.074 237.163 212.666 237.605C212.259 238.038 212.055 238.641 212.055 239.412V243H211.132V239.126C211.132 238.415 210.959 237.874 210.612 237.501C210.274 237.128 209.789 236.942 209.156 236.942C208.454 236.942 207.895 237.163 207.479 237.605C207.072 238.038 206.868 238.641 206.868 239.412V243H205.945V236.162H206.829V237.41C207.072 236.994 207.41 236.673 207.843 236.448C208.277 236.223 208.775 236.11 209.338 236.11C209.91 236.11 210.404 236.231 210.82 236.474C211.245 236.717 211.561 237.076 211.769 237.553C212.021 237.102 212.38 236.751 212.848 236.5C213.325 236.24 213.867 236.11 214.473 236.11Z" fill="#00229A"/>
<path d="M168.46 84.078C167.559 84.078 166.74 83.8787 166.003 83.48C165.275 83.0727 164.703 82.518 164.287 81.816C163.88 81.114 163.676 80.3253 163.676 79.45C163.676 78.5747 163.88 77.786 164.287 77.084C164.703 76.382 165.275 75.8317 166.003 75.433C166.74 75.0257 167.559 74.822 168.46 74.822C169.361 74.822 170.172 75.0213 170.891 75.42C171.619 75.8187 172.191 76.3733 172.607 77.084C173.023 77.786 173.231 78.5747 173.231 79.45C173.231 80.3253 173.023 81.1183 172.607 81.829C172.191 82.531 171.619 83.0813 170.891 83.48C170.172 83.8787 169.361 84.078 168.46 84.078ZM168.46 83.22C169.179 83.22 169.829 83.0597 170.41 82.739C170.991 82.4097 171.446 81.959 171.775 81.387C172.104 80.8063 172.269 80.1607 172.269 79.45C172.269 78.7393 172.104 78.098 171.775 77.526C171.446 76.9453 170.991 76.4947 170.41 76.174C169.829 75.8447 169.179 75.68 168.46 75.68C167.741 75.68 167.086 75.8447 166.497 76.174C165.916 76.4947 165.457 76.9453 165.119 77.526C164.79 78.098 164.625 78.7393 164.625 79.45C164.625 80.1607 164.79 80.8063 165.119 81.387C165.457 81.959 165.916 82.4097 166.497 82.739C167.086 83.0597 167.741 83.22 168.46 83.22ZM177.467 80.568L175.855 82.05V84H174.932V74.354H175.855V80.893L179.937 77.162H181.081L178.156 79.957L181.354 84H180.223L177.467 80.568ZM183.262 78.501C183.479 78.0417 183.8 77.695 184.224 77.461C184.658 77.227 185.191 77.11 185.823 77.11V78.007L185.602 77.994C184.883 77.994 184.32 78.215 183.912 78.657C183.505 79.099 183.301 79.7187 183.301 80.516V84H182.378V77.162H183.262V78.501ZM189.614 77.11C190.507 77.11 191.191 77.3353 191.668 77.786C192.145 78.228 192.383 78.8867 192.383 79.762V84H191.499V82.934C191.291 83.2893 190.983 83.5667 190.576 83.766C190.177 83.9653 189.701 84.065 189.146 84.065C188.383 84.065 187.777 83.883 187.326 83.519C186.875 83.155 186.65 82.674 186.65 82.076C186.65 81.4953 186.858 81.0273 187.274 80.672C187.699 80.3167 188.37 80.139 189.289 80.139H191.46V79.723C191.46 79.1337 191.295 78.6873 190.966 78.384C190.637 78.072 190.156 77.916 189.523 77.916C189.09 77.916 188.674 77.9897 188.275 78.137C187.876 78.2757 187.534 78.4707 187.248 78.722L186.832 78.033C187.179 77.7383 187.595 77.513 188.08 77.357C188.565 77.1923 189.077 77.11 189.614 77.11ZM189.289 83.337C189.809 83.337 190.255 83.22 190.628 82.986C191.001 82.7433 191.278 82.3967 191.46 81.946V80.828H189.315C188.145 80.828 187.56 81.2353 187.56 82.05C187.56 82.4487 187.712 82.765 188.015 82.999C188.318 83.2243 188.743 83.337 189.289 83.337ZM191.551 86.86C191.118 86.86 190.771 86.7473 190.511 86.522C190.251 86.2967 190.121 85.9977 190.121 85.625C190.121 84.819 190.732 84.1603 191.954 83.649L192.383 84C191.326 84.468 190.797 84.988 190.797 85.56C190.797 85.794 190.875 85.9717 191.031 86.093C191.187 86.223 191.391 86.288 191.642 86.288C191.98 86.288 192.249 86.2057 192.448 86.041L192.656 86.548C192.344 86.756 191.976 86.86 191.551 86.86ZM200.986 77.162V83.168C200.986 84.3293 200.7 85.1873 200.128 85.742C199.565 86.3053 198.711 86.587 197.567 86.587C196.935 86.587 196.332 86.4917 195.76 86.301C195.197 86.119 194.738 85.8633 194.382 85.534L194.85 84.832C195.18 85.1267 195.578 85.3563 196.046 85.521C196.523 85.6857 197.021 85.768 197.541 85.768C198.408 85.768 199.045 85.5643 199.452 85.157C199.86 84.7583 200.063 84.1343 200.063 83.285V82.414C199.777 82.8473 199.4 83.1767 198.932 83.402C198.473 83.6273 197.962 83.74 197.398 83.74C196.757 83.74 196.172 83.6013 195.643 83.324C195.123 83.038 194.712 82.6437 194.408 82.141C194.114 81.6297 193.966 81.0533 193.966 80.412C193.966 79.7707 194.114 79.1987 194.408 78.696C194.712 78.1933 195.123 77.8033 195.643 77.526C196.163 77.2487 196.748 77.11 197.398 77.11C197.979 77.11 198.503 77.227 198.971 77.461C199.439 77.695 199.816 78.033 200.102 78.475V77.162H200.986ZM197.489 82.921C197.983 82.921 198.43 82.817 198.828 82.609C199.227 82.3923 199.535 82.0933 199.751 81.712C199.977 81.3307 200.089 80.8973 200.089 80.412C200.089 79.9267 199.977 79.4977 199.751 79.125C199.535 78.7437 199.227 78.449 198.828 78.241C198.438 78.0243 197.992 77.916 197.489 77.916C196.995 77.916 196.549 78.02 196.15 78.228C195.76 78.436 195.453 78.7307 195.227 79.112C195.011 79.4933 194.902 79.9267 194.902 80.412C194.902 80.8973 195.011 81.3307 195.227 81.712C195.453 82.0933 195.76 82.3923 196.15 82.609C196.549 82.817 196.995 82.921 197.489 82.921ZM203.307 74.354H204.23V84H203.307V74.354ZM208.931 77.11C209.823 77.11 210.508 77.3353 210.985 77.786C211.461 78.228 211.7 78.8867 211.7 79.762V84H210.816V82.934C210.608 83.2893 210.3 83.5667 209.893 83.766C209.494 83.9653 209.017 84.065 208.463 84.065C207.7 84.065 207.093 83.883 206.643 83.519C206.192 83.155 205.967 82.674 205.967 82.076C205.967 81.4953 206.175 81.0273 206.591 80.672C207.015 80.3167 207.687 80.139 208.606 80.139H210.777V79.723C210.777 79.1337 210.612 78.6873 210.283 78.384C209.953 78.072 209.472 77.916 208.84 77.916C208.406 77.916 207.99 77.9897 207.592 78.137C207.193 78.2757 206.851 78.4707 206.565 78.722L206.149 78.033C206.495 77.7383 206.911 77.513 207.397 77.357C207.882 77.1923 208.393 77.11 208.931 77.11ZM208.606 83.337C209.126 83.337 209.572 83.22 209.945 82.986C210.317 82.7433 210.595 82.3967 210.777 81.946V80.828H208.632C207.462 80.828 206.877 81.2353 206.877 82.05C206.877 82.4487 207.028 82.765 207.332 82.999C207.635 83.2243 208.06 83.337 208.606 83.337ZM216.481 80.568L214.869 82.05V84H213.946V74.354H214.869V80.893L218.951 77.162H220.095L217.17 79.957L220.368 84H219.237L216.481 80.568ZM221.393 77.162H222.316V84H221.393V77.162ZM221.861 75.667C221.67 75.667 221.51 75.602 221.38 75.472C221.25 75.342 221.185 75.186 221.185 75.004C221.185 74.8307 221.25 74.679 221.38 74.549C221.51 74.419 221.67 74.354 221.861 74.354C222.051 74.354 222.212 74.419 222.342 74.549C222.472 74.6703 222.537 74.8177 222.537 74.991C222.537 75.1817 222.472 75.342 222.342 75.472C222.212 75.602 222.051 75.667 221.861 75.667ZM230.561 84.065C229.902 84.065 229.309 83.9177 228.78 83.623C228.251 83.3197 227.835 82.9037 227.532 82.375C227.229 81.8463 227.077 81.2483 227.077 80.581C227.077 79.9137 227.229 79.3157 227.532 78.787C227.835 78.2583 228.251 77.8467 228.78 77.552C229.309 77.2573 229.902 77.11 230.561 77.11C231.22 77.11 231.813 77.2573 232.342 77.552C232.871 77.8467 233.282 78.2583 233.577 78.787C233.88 79.3157 234.032 79.9137 234.032 80.581C234.032 81.2483 233.88 81.8463 233.577 82.375C233.282 82.9037 232.871 83.3197 232.342 83.623C231.813 83.9177 231.22 84.065 230.561 84.065ZM230.561 83.246C231.046 83.246 231.48 83.1377 231.861 82.921C232.251 82.6957 232.554 82.3793 232.771 81.972C232.988 81.5647 233.096 81.101 233.096 80.581C233.096 80.061 232.988 79.5973 232.771 79.19C232.554 78.7827 232.251 78.4707 231.861 78.254C231.48 78.0287 231.046 77.916 230.561 77.916C230.076 77.916 229.638 78.0287 229.248 78.254C228.867 78.4707 228.563 78.7827 228.338 79.19C228.121 79.5973 228.013 80.061 228.013 80.581C228.013 81.101 228.121 81.5647 228.338 81.972C228.563 82.3793 228.867 82.6957 229.248 82.921C229.638 83.1377 230.076 83.246 230.561 83.246ZM240.632 84.065C240.077 84.065 239.544 83.987 239.033 83.831C238.53 83.6663 238.136 83.4627 237.85 83.22L238.266 82.492C238.552 82.7173 238.911 82.9037 239.345 83.051C239.778 83.1897 240.229 83.259 240.697 83.259C241.321 83.259 241.78 83.1637 242.075 82.973C242.378 82.7737 242.53 82.4963 242.53 82.141C242.53 81.8897 242.447 81.6947 242.283 81.556C242.118 81.4087 241.91 81.3003 241.659 81.231C241.408 81.153 241.074 81.0793 240.658 81.01C240.103 80.906 239.657 80.802 239.319 80.698C238.981 80.5853 238.69 80.399 238.448 80.139C238.214 79.879 238.097 79.5193 238.097 79.06C238.097 78.488 238.335 78.02 238.812 77.656C239.288 77.292 239.951 77.11 240.801 77.11C241.243 77.11 241.685 77.1707 242.127 77.292C242.569 77.4047 242.933 77.5563 243.219 77.747L242.816 78.488C242.253 78.098 241.581 77.903 240.801 77.903C240.211 77.903 239.765 78.007 239.462 78.215C239.167 78.423 239.02 78.696 239.02 79.034C239.02 79.294 239.102 79.502 239.267 79.658C239.44 79.814 239.652 79.931 239.904 80.009C240.155 80.0783 240.502 80.152 240.944 80.23C241.49 80.334 241.928 80.438 242.257 80.542C242.586 80.646 242.868 80.8237 243.102 81.075C243.336 81.3263 243.453 81.673 243.453 82.115C243.453 82.713 243.202 83.1897 242.699 83.545C242.205 83.8917 241.516 84.065 240.632 84.065ZM241.607 74.484H242.842L240.736 76.096H239.826L241.607 74.484ZM245.783 78.501C246 78.0417 246.321 77.695 246.745 77.461C247.179 77.227 247.712 77.11 248.344 77.11V78.007L248.123 77.994C247.404 77.994 246.841 78.215 246.433 78.657C246.026 79.099 245.822 79.7187 245.822 80.516V84H244.899V77.162H245.783V78.501ZM255.646 80.867H249.926C249.978 81.5777 250.251 82.154 250.745 82.596C251.239 83.0293 251.863 83.246 252.617 83.246C253.042 83.246 253.432 83.1723 253.787 83.025C254.142 82.869 254.45 82.6437 254.71 82.349L255.23 82.947C254.927 83.311 254.545 83.5883 254.086 83.779C253.635 83.9697 253.137 84.065 252.591 84.065C251.889 84.065 251.265 83.9177 250.719 83.623C250.182 83.3197 249.761 82.9037 249.458 82.375C249.155 81.8463 249.003 81.2483 249.003 80.581C249.003 79.9137 249.146 79.3157 249.432 78.787C249.727 78.2583 250.125 77.8467 250.628 77.552C251.139 77.2573 251.711 77.11 252.344 77.11C252.977 77.11 253.544 77.2573 254.047 77.552C254.55 77.8467 254.944 78.2583 255.23 78.787C255.516 79.307 255.659 79.905 255.659 80.581L255.646 80.867ZM252.344 77.903C251.685 77.903 251.131 78.1153 250.68 78.54C250.238 78.956 249.987 79.502 249.926 80.178H254.775C254.714 79.502 254.459 78.956 254.008 78.54C253.566 78.1153 253.011 77.903 252.344 77.903ZM263.518 74.354V84H262.634V82.648C262.356 83.1073 261.988 83.4583 261.529 83.701C261.078 83.9437 260.567 84.065 259.995 84.065C259.353 84.065 258.773 83.9177 258.253 83.623C257.733 83.3283 257.325 82.9167 257.031 82.388C256.736 81.8593 256.589 81.257 256.589 80.581C256.589 79.905 256.736 79.3027 257.031 78.774C257.325 78.2453 257.733 77.838 258.253 77.552C258.773 77.2573 259.353 77.11 259.995 77.11C260.549 77.11 261.048 77.227 261.49 77.461C261.94 77.6863 262.309 78.02 262.595 78.462V74.354H263.518ZM260.073 83.246C260.549 83.246 260.978 83.1377 261.36 82.921C261.75 82.6957 262.053 82.3793 262.27 81.972C262.495 81.5647 262.608 81.101 262.608 80.581C262.608 80.061 262.495 79.5973 262.27 79.19C262.053 78.7827 261.75 78.4707 261.36 78.254C260.978 78.0287 260.549 77.916 260.073 77.916C259.587 77.916 259.15 78.0287 258.76 78.254C258.378 78.4707 258.075 78.7827 257.85 79.19C257.633 79.5973 257.525 80.061 257.525 80.581C257.525 81.101 257.633 81.5647 257.85 81.972C258.075 82.3793 258.378 82.6957 258.76 82.921C259.15 83.1377 259.587 83.246 260.073 83.246ZM269.312 77.11C270.17 77.11 270.851 77.3613 271.353 77.864C271.865 78.358 272.12 79.0817 272.12 80.035V84H271.197V80.126C271.197 79.4153 271.02 78.8737 270.664 78.501C270.309 78.1283 269.802 77.942 269.143 77.942C268.407 77.942 267.822 78.163 267.388 78.605C266.964 79.0383 266.751 79.6407 266.751 80.412V84H265.828V77.162H266.712V78.423C266.964 78.007 267.31 77.6863 267.752 77.461C268.203 77.227 268.723 77.11 269.312 77.11ZM274.366 77.162H275.289V84H274.366V77.162ZM274.834 75.667C274.643 75.667 274.483 75.602 274.353 75.472C274.223 75.342 274.158 75.186 274.158 75.004C274.158 74.8307 274.223 74.679 274.353 74.549C274.483 74.419 274.643 74.354 274.834 74.354C275.025 74.354 275.185 74.419 275.315 74.549C275.445 74.6703 275.51 74.8177 275.51 74.991C275.51 75.1817 275.445 75.342 275.315 75.472C275.185 75.602 275.025 75.667 274.834 75.667ZM280.431 84.065C279.755 84.065 279.149 83.9177 278.611 83.623C278.083 83.3283 277.667 82.9167 277.363 82.388C277.06 81.8507 276.908 81.2483 276.908 80.581C276.908 79.9137 277.06 79.3157 277.363 78.787C277.667 78.2583 278.083 77.8467 278.611 77.552C279.149 77.2573 279.755 77.11 280.431 77.11C281.021 77.11 281.545 77.227 282.004 77.461C282.472 77.6863 282.841 78.02 283.109 78.462L282.42 78.93C282.195 78.592 281.909 78.3407 281.562 78.176C281.216 78.0027 280.839 77.916 280.431 77.916C279.937 77.916 279.491 78.0287 279.092 78.254C278.702 78.4707 278.395 78.7827 278.169 79.19C277.953 79.5973 277.844 80.061 277.844 80.581C277.844 81.1097 277.953 81.5777 278.169 81.985C278.395 82.3837 278.702 82.6957 279.092 82.921C279.491 83.1377 279.937 83.246 280.431 83.246C280.839 83.246 281.216 83.1637 281.562 82.999C281.909 82.8343 282.195 82.583 282.42 82.245L283.109 82.713C282.841 83.155 282.472 83.493 282.004 83.727C281.536 83.9523 281.012 84.065 280.431 84.065ZM290.307 77.162L286.888 84.819C286.611 85.4603 286.29 85.9153 285.926 86.184C285.562 86.4527 285.124 86.587 284.613 86.587C284.284 86.587 283.976 86.535 283.69 86.431C283.404 86.327 283.157 86.171 282.949 85.963L283.378 85.274C283.725 85.6207 284.141 85.794 284.626 85.794C284.938 85.794 285.202 85.7073 285.419 85.534C285.644 85.3607 285.852 85.066 286.043 84.65L286.342 83.987L283.287 77.162H284.249L286.823 82.973L289.397 77.162H290.307ZM297.973 77.11C298.831 77.11 299.511 77.3613 300.014 77.864C300.525 78.358 300.781 79.0817 300.781 80.035V84H299.858V80.126C299.858 79.4153 299.68 78.8737 299.325 78.501C298.97 78.1283 298.463 77.942 297.804 77.942C297.067 77.942 296.482 78.163 296.049 78.605C295.624 79.0383 295.412 79.6407 295.412 80.412V84H294.489V77.162H295.373V78.423C295.624 78.007 295.971 77.6863 296.413 77.461C296.864 77.227 297.384 77.11 297.973 77.11ZM303.027 77.162H303.95V84H303.027V77.162ZM303.495 75.667C303.304 75.667 303.144 75.602 303.014 75.472C302.884 75.342 302.819 75.186 302.819 75.004C302.819 74.8307 302.884 74.679 303.014 74.549C303.144 74.419 303.304 74.354 303.495 74.354C303.686 74.354 303.846 74.419 303.976 74.549C304.106 74.6703 304.171 74.8177 304.171 74.991C304.171 75.1817 304.106 75.342 303.976 75.472C303.846 75.602 303.686 75.667 303.495 75.667ZM312.212 80.867H306.492C306.544 81.5777 306.817 82.154 307.311 82.596C307.805 83.0293 308.429 83.246 309.183 83.246C309.608 83.246 309.998 83.1723 310.353 83.025C310.709 82.869 311.016 82.6437 311.276 82.349L311.796 82.947C311.493 83.311 311.112 83.5883 310.652 83.779C310.202 83.9697 309.703 84.065 309.157 84.065C308.455 84.065 307.831 83.9177 307.285 83.623C306.748 83.3197 306.328 82.9037 306.024 82.375C305.721 81.8463 305.569 81.2483 305.569 80.581C305.569 79.9137 305.712 79.3157 305.998 78.787C306.293 78.2583 306.692 77.8467 307.194 77.552C307.706 77.2573 308.278 77.11 308.91 77.11C309.543 77.11 310.111 77.2573 310.613 77.552C311.116 77.8467 311.51 78.2583 311.796 78.787C312.082 79.307 312.225 79.905 312.225 80.581L312.212 80.867ZM308.91 77.903C308.252 77.903 307.697 78.1153 307.246 78.54C306.804 78.956 306.553 79.502 306.492 80.178H311.341C311.281 79.502 311.025 78.956 310.574 78.54C310.132 78.1153 309.578 77.903 308.91 77.903ZM172.815 92.11C173.673 92.11 174.345 92.357 174.83 92.851C175.324 93.345 175.571 94.073 175.571 95.035V99H174.648V95.126C174.648 94.4153 174.475 93.8737 174.128 93.501C173.79 93.1283 173.309 92.942 172.685 92.942C171.974 92.942 171.415 93.163 171.008 93.605C170.601 94.0383 170.397 94.6407 170.397 95.412V99H169.474V95.126C169.474 94.4153 169.301 93.8737 168.954 93.501C168.616 93.1283 168.131 92.942 167.498 92.942C166.796 92.942 166.237 93.163 165.821 93.605C165.414 94.0383 165.21 94.6407 165.21 95.412V99H164.287V92.162H165.171V93.41C165.414 92.994 165.752 92.6733 166.185 92.448C166.618 92.2227 167.117 92.11 167.68 92.11C168.252 92.11 168.746 92.2313 169.162 92.474C169.587 92.7167 169.903 93.0763 170.111 93.553C170.362 93.1023 170.722 92.7513 171.19 92.5C171.667 92.24 172.208 92.11 172.815 92.11ZM181.298 92.11C182.156 92.11 182.836 92.3613 183.339 92.864C183.85 93.358 184.106 94.0817 184.106 95.035V99H183.183V95.126C183.183 94.4153 183.005 93.8737 182.65 93.501C182.295 93.1283 181.788 92.942 181.129 92.942C180.392 92.942 179.807 93.163 179.374 93.605C178.949 94.0383 178.737 94.6407 178.737 95.412V99H177.814V92.162H178.698V93.423C178.949 93.007 179.296 92.6863 179.738 92.461C180.189 92.227 180.709 92.11 181.298 92.11ZM186.352 92.162H187.275V99H186.352V92.162ZM186.82 90.667C186.629 90.667 186.469 90.602 186.339 90.472C186.209 90.342 186.144 90.186 186.144 90.004C186.144 89.8307 186.209 89.679 186.339 89.549C186.469 89.419 186.629 89.354 186.82 89.354C187.011 89.354 187.171 89.419 187.301 89.549C187.431 89.6703 187.496 89.8177 187.496 89.991C187.496 90.1817 187.431 90.342 187.301 90.472C187.171 90.602 187.011 90.667 186.82 90.667ZM195.537 95.867H189.817C189.869 96.5777 190.142 97.154 190.636 97.596C191.13 98.0293 191.754 98.246 192.508 98.246C192.933 98.246 193.323 98.1723 193.678 98.025C194.034 97.869 194.341 97.6437 194.601 97.349L195.121 97.947C194.818 98.311 194.437 98.5883 193.977 98.779C193.527 98.9697 193.028 99.065 192.482 99.065C191.78 99.065 191.156 98.9177 190.61 98.623C190.073 98.3197 189.653 97.9037 189.349 97.375C189.046 96.8463 188.894 96.2483 188.894 95.581C188.894 94.9137 189.037 94.3157 189.323 93.787C189.618 93.2583 190.017 92.8467 190.519 92.552C191.031 92.2573 191.603 92.11 192.235 92.11C192.868 92.11 193.436 92.2573 193.938 92.552C194.441 92.8467 194.835 93.2583 195.121 93.787C195.407 94.307 195.55 94.905 195.55 95.581L195.537 95.867ZM192.235 92.903C191.577 92.903 191.022 93.1153 190.571 93.54C190.129 93.956 189.878 94.502 189.817 95.178H194.666C194.606 94.502 194.35 93.956 193.899 93.54C193.457 93.1153 192.903 92.903 192.235 92.903ZM196.155 101.587C195.869 101.587 195.6 101.548 195.349 101.47C195.089 101.401 194.877 101.292 194.712 101.145L195.037 100.443C195.306 100.677 195.661 100.794 196.103 100.794C196.467 100.794 196.744 100.686 196.935 100.469C197.134 100.252 197.234 99.9317 197.234 99.507V92.162H198.157V99.507C198.157 100.148 197.984 100.655 197.637 101.028C197.29 101.401 196.796 101.587 196.155 101.587ZM197.702 90.654C197.511 90.654 197.351 90.589 197.221 90.459C197.091 90.329 197.026 90.173 197.026 89.991C197.026 89.8177 197.091 89.666 197.221 89.536C197.351 89.406 197.511 89.341 197.702 89.341C197.893 89.341 198.053 89.406 198.183 89.536C198.313 89.6573 198.378 89.8047 198.378 89.978C198.378 90.1687 198.313 90.329 198.183 90.459C198.053 90.589 197.893 90.654 197.702 90.654ZM202.309 99.065C201.755 99.065 201.222 98.987 200.71 98.831C200.208 98.6663 199.813 98.4627 199.527 98.22L199.943 97.492C200.229 97.7173 200.589 97.9037 201.022 98.051C201.456 98.1897 201.906 98.259 202.374 98.259C202.998 98.259 203.458 98.1637 203.752 97.973C204.056 97.7737 204.207 97.4963 204.207 97.141C204.207 96.8897 204.125 96.6947 203.96 96.556C203.796 96.4087 203.588 96.3003 203.336 96.231C203.085 96.153 202.751 96.0793 202.335 96.01C201.781 95.906 201.334 95.802 200.996 95.698C200.658 95.5853 200.368 95.399 200.125 95.139C199.891 94.879 199.774 94.5193 199.774 94.06C199.774 93.488 200.013 93.02 200.489 92.656C200.966 92.292 201.629 92.11 202.478 92.11C202.92 92.11 203.362 92.1707 203.804 92.292C204.246 92.4047 204.61 92.5563 204.896 92.747L204.493 93.488C203.93 93.098 203.258 92.903 202.478 92.903C201.889 92.903 201.443 93.007 201.139 93.215C200.845 93.423 200.697 93.696 200.697 94.034C200.697 94.294 200.78 94.502 200.944 94.658C201.118 94.814 201.33 94.931 201.581 95.009C201.833 95.0783 202.179 95.152 202.621 95.23C203.167 95.334 203.605 95.438 203.934 95.542C204.264 95.646 204.545 95.8237 204.779 96.075C205.013 96.3263 205.13 96.673 205.13 97.115C205.13 97.713 204.879 98.1897 204.376 98.545C203.882 98.8917 203.193 99.065 202.309 99.065ZM211.4 98.233V99H205.836V98.389L210.139 92.942H205.914V92.162H211.322V92.773L207.019 98.233H211.4ZM218.796 95.867H213.076C213.128 96.5777 213.401 97.154 213.895 97.596C214.389 98.0293 215.013 98.246 215.767 98.246C216.192 98.246 216.582 98.1723 216.937 98.025C217.292 97.869 217.6 97.6437 217.86 97.349L218.38 97.947C218.077 98.311 217.695 98.5883 217.236 98.779C216.785 98.9697 216.287 99.065 215.741 99.065C215.039 99.065 214.415 98.9177 213.869 98.623C213.332 98.3197 212.911 97.9037 212.608 97.375C212.305 96.8463 212.153 96.2483 212.153 95.581C212.153 94.9137 212.296 94.3157 212.582 93.787C212.877 93.2583 213.275 92.8467 213.778 92.552C214.289 92.2573 214.861 92.11 215.494 92.11C216.127 92.11 216.694 92.2573 217.197 92.552C217.7 92.8467 218.094 93.2583 218.38 93.787C218.666 94.307 218.809 94.905 218.809 95.581L218.796 95.867ZM215.494 92.903C214.835 92.903 214.281 93.1153 213.83 93.54C213.388 93.956 213.137 94.502 213.076 95.178H217.925C217.864 94.502 217.609 93.956 217.158 93.54C216.716 93.1153 216.161 92.903 215.494 92.903ZM219.414 101.587C219.128 101.587 218.859 101.548 218.608 101.47C218.348 101.401 218.135 101.292 217.971 101.145L218.296 100.443C218.564 100.677 218.92 100.794 219.362 100.794C219.726 100.794 220.003 100.686 220.194 100.469C220.393 100.252 220.493 99.9317 220.493 99.507V92.162H221.416V99.507C221.416 100.148 221.242 100.655 220.896 101.028C220.549 101.401 220.055 101.587 219.414 101.587ZM220.961 90.654C220.77 90.654 220.61 90.589 220.48 90.459C220.35 90.329 220.285 90.173 220.285 89.991C220.285 89.8177 220.35 89.666 220.48 89.536C220.61 89.406 220.77 89.341 220.961 89.341C221.151 89.341 221.312 89.406 221.442 89.536C221.572 89.6573 221.637 89.8047 221.637 89.978C221.637 90.1687 221.572 90.329 221.442 90.459C221.312 90.589 221.151 90.654 220.961 90.654ZM230.361 92.11C231.219 92.11 231.9 92.3613 232.402 92.864C232.914 93.358 233.169 94.0817 233.169 95.035V99H232.246V95.126C232.246 94.4153 232.069 93.8737 231.713 93.501C231.358 93.1283 230.851 92.942 230.192 92.942C229.456 92.942 228.871 93.163 228.437 93.605C228.013 94.0383 227.8 94.6407 227.8 95.412V99H226.877V92.162H227.761V93.423C228.013 93.007 228.359 92.6863 228.801 92.461C229.252 92.227 229.772 92.11 230.361 92.11ZM235.415 92.162H236.338V99H235.415V92.162ZM235.883 90.667C235.693 90.667 235.532 90.602 235.402 90.472C235.272 90.342 235.207 90.186 235.207 90.004C235.207 89.8307 235.272 89.679 235.402 89.549C235.532 89.419 235.693 89.354 235.883 89.354C236.074 89.354 236.234 89.419 236.364 89.549C236.494 89.6703 236.559 89.8177 236.559 89.991C236.559 90.1817 236.494 90.342 236.364 90.472C236.234 90.602 236.074 90.667 235.883 90.667ZM243.469 98.233V99H237.905V98.389L242.208 92.942H237.983V92.162H243.391V92.773L239.088 98.233H243.469ZM240.687 90.797C240.514 90.797 240.367 90.7363 240.245 90.615C240.124 90.4937 240.063 90.3463 240.063 90.173C240.063 89.9997 240.124 89.8523 240.245 89.731C240.367 89.6097 240.514 89.549 240.687 89.549C240.861 89.549 241.008 89.6097 241.129 89.731C241.251 89.8523 241.311 89.9997 241.311 90.173C241.311 90.3463 241.251 90.4937 241.129 90.615C241.008 90.7363 240.861 90.797 240.687 90.797ZM250.079 89.9V99H249.143V90.732H246.998V89.9H250.079ZM254.387 93.631C255.704 93.631 256.662 93.8693 257.26 94.346C257.866 94.814 258.17 95.4727 258.17 96.322C258.17 96.8507 258.044 97.323 257.793 97.739C257.55 98.155 257.182 98.4843 256.688 98.727C256.194 98.961 255.587 99.078 254.868 99.078C254.218 99.078 253.598 98.974 253.009 98.766C252.428 98.5493 251.96 98.2633 251.605 97.908L252.06 97.167C252.363 97.479 252.762 97.7347 253.256 97.934C253.75 98.1247 254.283 98.22 254.855 98.22C255.609 98.22 256.189 98.051 256.597 97.713C257.013 97.375 257.221 96.9243 257.221 96.361C257.221 95.737 256.987 95.2647 256.519 94.944C256.059 94.6233 255.279 94.463 254.179 94.463H252.242L252.71 89.9H257.689V90.732H253.529L253.217 93.631H254.387ZM265.685 99.065C265.009 99.065 264.403 98.9177 263.865 98.623C263.337 98.3283 262.921 97.9167 262.617 97.388C262.314 96.8507 262.162 96.2483 262.162 95.581C262.162 94.9137 262.314 94.3157 262.617 93.787C262.921 93.2583 263.337 92.8467 263.865 92.552C264.403 92.2573 265.009 92.11 265.685 92.11C266.275 92.11 266.799 92.227 267.258 92.461C267.726 92.6863 268.095 93.02 268.363 93.462L267.674 93.93C267.449 93.592 267.163 93.3407 266.816 93.176C266.47 93.0027 266.093 92.916 265.685 92.916C265.191 92.916 264.745 93.0287 264.346 93.254C263.956 93.4707 263.649 93.7827 263.423 94.19C263.207 94.5973 263.098 95.061 263.098 95.581C263.098 96.1097 263.207 96.5777 263.423 96.985C263.649 97.3837 263.956 97.6957 264.346 97.921C264.745 98.1377 265.191 98.246 265.685 98.246C266.093 98.246 266.47 98.1637 266.816 97.999C267.163 97.8343 267.449 97.583 267.674 97.245L268.363 97.713C268.095 98.155 267.726 98.493 267.258 98.727C266.79 98.9523 266.266 99.065 265.685 99.065ZM278.445 92.11C279.303 92.11 279.974 92.357 280.46 92.851C280.954 93.345 281.201 94.073 281.201 95.035V99H280.278V95.126C280.278 94.4153 280.104 93.8737 279.758 93.501C279.42 93.1283 278.939 92.942 278.315 92.942C277.604 92.942 277.045 93.163 276.638 93.605C276.23 94.0383 276.027 94.6407 276.027 95.412V99H275.104V95.126C275.104 94.4153 274.93 93.8737 274.584 93.501C274.246 93.1283 273.76 92.942 273.128 92.942C272.426 92.942 271.867 93.163 271.451 93.605C271.043 94.0383 270.84 94.6407 270.84 95.412V99H269.917V92.162H270.801V93.41C271.043 92.994 271.381 92.6733 271.815 92.448C272.248 92.2227 272.746 92.11 273.31 92.11C273.882 92.11 274.376 92.2313 274.792 92.474C275.216 92.7167 275.533 93.0763 275.741 93.553C275.992 93.1023 276.352 92.7513 276.82 92.5C277.296 92.24 277.838 92.11 278.445 92.11ZM287.617 99.078C286.715 99.078 285.896 98.8787 285.16 98.48C284.432 98.0727 283.86 97.518 283.444 96.816C283.036 96.114 282.833 95.3253 282.833 94.45C282.833 93.5747 283.036 92.786 283.444 92.084C283.86 91.382 284.432 90.8317 285.16 90.433C285.896 90.0257 286.715 89.822 287.617 89.822C288.518 89.822 289.328 90.0213 290.048 90.42C290.776 90.8187 291.348 91.3733 291.764 92.084C292.18 92.786 292.388 93.5747 292.388 94.45C292.388 95.3253 292.18 96.1183 291.764 96.829C291.348 97.531 290.776 98.0813 290.048 98.48C289.328 98.8787 288.518 99.078 287.617 99.078ZM287.617 98.22C288.336 98.22 288.986 98.0597 289.567 97.739C290.147 97.4097 290.602 96.959 290.932 96.387C291.261 95.8063 291.426 95.1607 291.426 94.45C291.426 93.7393 291.261 93.098 290.932 92.526C290.602 91.9453 290.147 91.4947 289.567 91.174C288.986 90.8447 288.336 90.68 287.617 90.68C286.897 90.68 286.243 90.8447 285.654 91.174C285.073 91.4947 284.614 91.9453 284.276 92.526C283.946 93.098 283.782 93.7393 283.782 94.45C283.782 95.1607 283.946 95.8063 284.276 96.387C284.614 96.959 285.073 97.4097 285.654 97.739C286.243 98.0597 286.897 98.22 287.617 98.22ZM291.179 88.99H291.946L284.068 99.91H283.288L291.179 88.99Z" fill="#00229A"/>
<path d="M176.975 137.9L173.907 147H172.893L170.228 139.239L167.55 147H166.549L163.481 137.9H164.469L167.095 145.726L169.812 137.9H170.709L173.387 145.765L176.052 137.9H176.975ZM180.558 147.065C179.9 147.065 179.306 146.918 178.777 146.623C178.249 146.32 177.833 145.904 177.529 145.375C177.226 144.846 177.074 144.248 177.074 143.581C177.074 142.914 177.226 142.316 177.529 141.787C177.833 141.258 178.249 140.847 178.777 140.552C179.306 140.257 179.9 140.11 180.558 140.11C181.217 140.11 181.811 140.257 182.339 140.552C182.868 140.847 183.28 141.258 183.574 141.787C183.878 142.316 184.029 142.914 184.029 143.581C184.029 144.248 183.878 144.846 183.574 145.375C183.28 145.904 182.868 146.32 182.339 146.623C181.811 146.918 181.217 147.065 180.558 147.065ZM180.558 146.246C181.044 146.246 181.477 146.138 181.858 145.921C182.248 145.696 182.552 145.379 182.768 144.972C182.985 144.565 183.093 144.101 183.093 143.581C183.093 143.061 182.985 142.597 182.768 142.19C182.552 141.783 182.248 141.471 181.858 141.254C181.477 141.029 181.044 140.916 180.558 140.916C180.073 140.916 179.635 141.029 179.245 141.254C178.864 141.471 178.561 141.783 178.335 142.19C178.119 142.597 178.01 143.061 178.01 143.581C178.01 144.101 178.119 144.565 178.335 144.972C178.561 145.379 178.864 145.696 179.245 145.921C179.635 146.138 180.073 146.246 180.558 146.246ZM186.538 141.501C186.754 141.042 187.075 140.695 187.5 140.461C187.933 140.227 188.466 140.11 189.099 140.11V141.007L188.878 140.994C188.158 140.994 187.595 141.215 187.188 141.657C186.78 142.099 186.577 142.719 186.577 143.516V147H185.654V140.162H186.538V141.501ZM193.045 143.568L191.433 145.05V147H190.51V137.354H191.433V143.893L195.515 140.162H196.659L193.734 142.957L196.932 147H195.801L193.045 143.568ZM197.956 140.162H198.879V147H197.956V140.162ZM198.424 138.667C198.233 138.667 198.073 138.602 197.943 138.472C197.813 138.342 197.748 138.186 197.748 138.004C197.748 137.831 197.813 137.679 197.943 137.549C198.073 137.419 198.233 137.354 198.424 137.354C198.615 137.354 198.775 137.419 198.905 137.549C199.035 137.67 199.1 137.818 199.1 137.991C199.1 138.182 199.035 138.342 198.905 138.472C198.775 138.602 198.615 138.667 198.424 138.667ZM209.153 146.233V147H203.589V146.389L207.892 140.942H203.667V140.162H209.075V140.773L204.772 146.233H209.153ZM217.375 140.11C218.016 140.11 218.597 140.257 219.117 140.552C219.637 140.838 220.044 141.245 220.339 141.774C220.633 142.303 220.781 142.905 220.781 143.581C220.781 144.266 220.633 144.872 220.339 145.401C220.044 145.93 219.637 146.341 219.117 146.636C218.605 146.922 218.025 147.065 217.375 147.065C216.82 147.065 216.317 146.952 215.867 146.727C215.425 146.493 215.061 146.155 214.775 145.713V149.522H213.852V140.162H214.736V141.514C215.013 141.063 215.377 140.717 215.828 140.474C216.287 140.231 216.803 140.11 217.375 140.11ZM217.31 146.246C217.786 146.246 218.22 146.138 218.61 145.921C219 145.696 219.303 145.379 219.52 144.972C219.745 144.565 219.858 144.101 219.858 143.581C219.858 143.061 219.745 142.602 219.52 142.203C219.303 141.796 219 141.479 218.61 141.254C218.22 141.029 217.786 140.916 217.31 140.916C216.824 140.916 216.387 141.029 215.997 141.254C215.615 141.479 215.312 141.796 215.087 142.203C214.87 142.602 214.762 143.061 214.762 143.581C214.762 144.101 214.87 144.565 215.087 144.972C215.312 145.379 215.615 145.696 215.997 145.921C216.387 146.138 216.824 146.246 217.31 146.246ZM222.402 140.162H223.325V147H222.402V140.162ZM222.87 138.667C222.679 138.667 222.519 138.602 222.389 138.472C222.259 138.342 222.194 138.186 222.194 138.004C222.194 137.831 222.259 137.679 222.389 137.549C222.519 137.419 222.679 137.354 222.87 137.354C223.061 137.354 223.221 137.419 223.351 137.549C223.481 137.67 223.546 137.818 223.546 137.991C223.546 138.182 223.481 138.342 223.351 138.472C223.221 138.602 223.061 138.667 222.87 138.667ZM228.025 140.11C228.918 140.11 229.603 140.335 230.079 140.786C230.556 141.228 230.794 141.887 230.794 142.762V147H229.91V145.934C229.702 146.289 229.395 146.567 228.987 146.766C228.589 146.965 228.112 147.065 227.557 147.065C226.795 147.065 226.188 146.883 225.737 146.519C225.287 146.155 225.061 145.674 225.061 145.076C225.061 144.495 225.269 144.027 225.685 143.672C226.11 143.317 226.782 143.139 227.7 143.139H229.871V142.723C229.871 142.134 229.707 141.687 229.377 141.384C229.048 141.072 228.567 140.916 227.934 140.916C227.501 140.916 227.085 140.99 226.686 141.137C226.288 141.276 225.945 141.471 225.659 141.722L225.243 141.033C225.59 140.738 226.006 140.513 226.491 140.357C226.977 140.192 227.488 140.11 228.025 140.11ZM227.7 146.337C228.22 146.337 228.667 146.22 229.039 145.986C229.412 145.743 229.689 145.397 229.871 144.946V143.828H227.726C226.556 143.828 225.971 144.235 225.971 145.05C225.971 145.449 226.123 145.765 226.426 145.999C226.73 146.224 227.154 146.337 227.7 146.337ZM234.874 147.065C234.32 147.065 233.787 146.987 233.275 146.831C232.773 146.666 232.378 146.463 232.092 146.22L232.508 145.492C232.794 145.717 233.154 145.904 233.587 146.051C234.021 146.19 234.471 146.259 234.939 146.259C235.563 146.259 236.023 146.164 236.317 145.973C236.621 145.774 236.772 145.496 236.772 145.141C236.772 144.89 236.69 144.695 236.525 144.556C236.361 144.409 236.153 144.3 235.901 144.231C235.65 144.153 235.316 144.079 234.9 144.01C234.346 143.906 233.899 143.802 233.561 143.698C233.223 143.585 232.933 143.399 232.69 143.139C232.456 142.879 232.339 142.519 232.339 142.06C232.339 141.488 232.578 141.02 233.054 140.656C233.531 140.292 234.194 140.11 235.043 140.11C235.485 140.11 235.927 140.171 236.369 140.292C236.811 140.405 237.175 140.556 237.461 140.747L237.058 141.488C236.495 141.098 235.823 140.903 235.043 140.903C234.454 140.903 234.008 141.007 233.704 141.215C233.41 141.423 233.262 141.696 233.262 142.034C233.262 142.294 233.345 142.502 233.509 142.658C233.683 142.814 233.895 142.931 234.146 143.009C234.398 143.078 234.744 143.152 235.186 143.23C235.732 143.334 236.17 143.438 236.499 143.542C236.829 143.646 237.11 143.824 237.344 144.075C237.578 144.326 237.695 144.673 237.695 145.115C237.695 145.713 237.444 146.19 236.941 146.545C236.447 146.892 235.758 147.065 234.874 147.065ZM241.677 143.568L240.065 145.05V147H239.142V137.354H240.065V143.893L244.147 140.162H245.291L242.366 142.957L245.564 147H244.433L241.677 143.568ZM246.588 140.162H247.511V147H246.588V140.162ZM247.056 138.667C246.865 138.667 246.705 138.602 246.575 138.472C246.445 138.342 246.38 138.186 246.38 138.004C246.38 137.831 246.445 137.679 246.575 137.549C246.705 137.419 246.865 137.354 247.056 137.354C247.246 137.354 247.407 137.419 247.537 137.549C247.667 137.67 247.732 137.818 247.732 137.991C247.732 138.182 247.667 138.342 247.537 138.472C247.407 138.602 247.246 138.667 247.056 138.667ZM255.773 143.867H250.053C250.105 144.578 250.378 145.154 250.872 145.596C251.366 146.029 251.99 146.246 252.744 146.246C253.169 146.246 253.559 146.172 253.914 146.025C254.269 145.869 254.577 145.644 254.837 145.349L255.357 145.947C255.054 146.311 254.672 146.588 254.213 146.779C253.762 146.97 253.264 147.065 252.718 147.065C252.016 147.065 251.392 146.918 250.846 146.623C250.309 146.32 249.888 145.904 249.585 145.375C249.282 144.846 249.13 144.248 249.13 143.581C249.13 142.914 249.273 142.316 249.559 141.787C249.854 141.258 250.252 140.847 250.755 140.552C251.266 140.257 251.838 140.11 252.471 140.11C253.104 140.11 253.671 140.257 254.174 140.552C254.677 140.847 255.071 141.258 255.357 141.787C255.643 142.307 255.786 142.905 255.786 143.581L255.773 143.867ZM252.471 140.903C251.812 140.903 251.258 141.115 250.807 141.54C250.365 141.956 250.114 142.502 250.053 143.178H254.902C254.841 142.502 254.586 141.956 254.135 141.54C253.693 141.115 253.138 140.903 252.471 140.903ZM265.933 140.11C266.791 140.11 267.462 140.357 267.948 140.851C268.442 141.345 268.689 142.073 268.689 143.035V147H267.766V143.126C267.766 142.415 267.592 141.874 267.246 141.501C266.908 141.128 266.427 140.942 265.803 140.942C265.092 140.942 264.533 141.163 264.126 141.605C263.718 142.038 263.515 142.641 263.515 143.412V147H262.592V143.126C262.592 142.415 262.418 141.874 262.072 141.501C261.734 141.128 261.248 140.942 260.616 140.942C259.914 140.942 259.355 141.163 258.939 141.605C258.531 142.038 258.328 142.641 258.328 143.412V147H257.405V140.162H258.289V141.41C258.531 140.994 258.869 140.673 259.303 140.448C259.736 140.223 260.234 140.11 260.798 140.11C261.37 140.11 261.864 140.231 262.28 140.474C262.704 140.717 263.021 141.076 263.229 141.553C263.48 141.102 263.84 140.751 264.308 140.5C264.784 140.24 265.326 140.11 265.933 140.11Z" fill="#00229A"/>
</svg>
