<svg width="328" height="328" viewBox="0 0 328 328" fill="none" xmlns="http://www.w3.org/2000/svg">
<path d="M72.1728 285.969C70.7055 285.899 69.3213 285.267 68.3074 284.204C67.2936 283.141 66.728 281.728 66.728 280.259C66.728 278.79 67.2936 277.378 68.3074 276.315C69.3213 275.252 70.7055 274.62 72.1728 274.55V271.747H61.3447V288.765H72.1728V285.969Z" fill="white"/>
<path d="M72.8142 274.557C74.2816 274.626 75.6658 275.258 76.6796 276.321C77.6934 277.384 78.259 278.797 78.259 280.266C78.259 281.735 77.6934 283.147 76.6796 284.21C75.6658 285.273 74.2816 285.905 72.8142 285.975V288.772H83.6359V271.753H72.8142V274.557Z" fill="white"/>
<path d="M216.652 285.969C215.185 285.899 213.801 285.267 212.787 284.204C211.773 283.141 211.207 281.728 211.207 280.259C211.207 278.79 211.773 277.378 212.787 276.315C213.801 275.252 215.185 274.62 216.652 274.55V271.747H205.831V288.765H216.652V285.969Z" fill="white"/>
<path d="M217.294 274.557C218.761 274.626 220.146 275.258 221.159 276.321C222.173 277.384 222.739 278.797 222.739 280.266C222.739 281.735 222.173 283.147 221.159 284.21C220.146 285.273 218.761 285.905 217.294 285.975V288.772H228.122V271.753H217.294V274.557Z" fill="white"/>
<path d="M133.588 288.772H155.879V271.753H133.588V288.772ZM144.736 274.537C145.869 274.537 146.977 274.873 147.919 275.503C148.861 276.132 149.595 277.027 150.029 278.074C150.462 279.12 150.576 280.272 150.355 281.383C150.134 282.495 149.588 283.515 148.787 284.316C147.986 285.118 146.965 285.663 145.854 285.884C144.743 286.105 143.591 285.992 142.544 285.558C141.498 285.125 140.603 284.39 139.974 283.448C139.344 282.506 139.008 281.399 139.008 280.266C139.01 278.747 139.614 277.291 140.688 276.217C141.762 275.143 143.218 274.539 144.736 274.537Z" fill="white"/>
<path d="M144.736 285.968C145.87 285.968 146.977 285.632 147.92 285.003C148.862 284.373 149.596 283.478 150.029 282.431C150.463 281.384 150.576 280.232 150.354 279.12C150.133 278.009 149.587 276.988 148.785 276.187C147.983 275.386 146.962 274.841 145.85 274.621C144.738 274.401 143.586 274.515 142.54 274.95C141.493 275.384 140.599 276.119 139.97 277.062C139.342 278.005 139.007 279.113 139.008 280.247C139.01 281.765 139.614 283.22 140.688 284.293C141.762 285.366 143.218 285.968 144.736 285.968V285.968Z" fill="#00229A"/>
<path d="M278.074 271.753V288.772H300.359V271.753H278.074ZM289.216 285.969C288.083 285.969 286.975 285.632 286.033 285.003C285.091 284.373 284.357 283.478 283.923 282.431C283.49 281.384 283.377 280.232 283.598 279.12C283.82 278.009 284.366 276.988 285.168 276.187C285.97 275.386 286.991 274.841 288.103 274.621C289.214 274.401 290.366 274.515 291.413 274.95C292.459 275.384 293.354 276.119 293.982 277.062C294.611 278.005 294.946 279.113 294.945 280.247C294.943 281.765 294.339 283.22 293.264 284.293C292.19 285.366 290.734 285.969 289.216 285.969V285.969Z" fill="white"/>
<path d="M289.216 274.538C288.083 274.538 286.976 274.874 286.034 275.503C285.092 276.132 284.357 277.027 283.924 278.074C283.49 279.121 283.377 280.272 283.598 281.384C283.819 282.495 284.364 283.515 285.166 284.317C285.967 285.118 286.987 285.663 288.099 285.884C289.21 286.105 290.362 285.992 291.408 285.558C292.455 285.125 293.35 284.391 293.979 283.448C294.609 282.506 294.945 281.399 294.945 280.266C294.943 278.747 294.339 277.291 293.265 276.217C292.191 275.143 290.735 274.539 289.216 274.538V274.538Z" fill="#00229A"/>
<path d="M72.1728 214.623C70.7055 214.554 69.3213 213.922 68.3074 212.859C67.2936 211.796 66.728 210.383 66.728 208.914C66.728 207.445 67.2936 206.033 68.3074 204.97C69.3213 203.907 70.7055 203.275 72.1728 203.205V200.402H61.3447V217.42H72.1728V214.623Z" fill="white"/>
<path d="M83.6359 200.402H72.8142V203.218C74.2816 203.288 75.6658 203.919 76.6796 204.982C77.6934 206.046 78.259 207.458 78.259 208.927C78.259 210.396 77.6934 211.809 76.6796 212.872C75.6658 213.935 74.2816 214.567 72.8142 214.636V217.433H83.6359V200.402Z" fill="white"/>
<path d="M217.294 203.218C218.761 203.288 220.146 203.919 221.159 204.982C222.173 206.046 222.739 207.458 222.739 208.927C222.739 210.396 222.173 211.809 221.159 212.872C220.146 213.935 218.761 214.567 217.294 214.636V217.433H228.122V200.402H217.294V203.218Z" fill="white"/>
<path d="M205.831 217.42H216.652V214.623C215.185 214.554 213.801 213.922 212.787 212.859C211.773 211.796 211.207 210.383 211.207 208.914C211.207 207.445 211.773 206.033 212.787 204.97C213.801 203.907 215.185 203.275 216.652 203.205V200.402H205.831V217.42Z" fill="white"/>
<path d="M155.879 200.402H133.588V217.42H155.879V200.402ZM144.736 214.636C143.603 214.637 142.495 214.302 141.552 213.673C140.609 213.045 139.873 212.15 139.439 211.103C139.005 210.056 138.891 208.904 139.111 207.792C139.332 206.68 139.878 205.659 140.68 204.857C141.481 204.056 142.502 203.51 143.614 203.289C144.726 203.068 145.878 203.182 146.925 203.617C147.972 204.051 148.867 204.786 149.496 205.729C150.125 206.672 150.46 207.781 150.458 208.914C150.457 210.431 149.853 211.886 148.781 212.958C147.708 214.031 146.254 214.635 144.736 214.636V214.636Z" fill="white"/>
<path d="M144.737 203.218C143.603 203.217 142.495 203.552 141.552 204.181C140.609 204.809 139.874 205.703 139.44 206.75C139.005 207.797 138.891 208.949 139.111 210.06C139.331 211.172 139.876 212.193 140.677 212.995C141.478 213.797 142.499 214.343 143.61 214.564C144.722 214.786 145.874 214.673 146.921 214.24C147.968 213.806 148.863 213.072 149.493 212.13C150.122 211.188 150.458 210.08 150.458 208.947C150.458 207.428 149.856 205.972 148.783 204.898C147.71 203.824 146.255 203.22 144.737 203.218V203.218Z" fill="#00229A"/>
<path d="M278.074 200.402V217.42H300.359V200.402H278.074ZM289.216 214.636C288.083 214.636 286.975 214.3 286.033 213.67C285.091 213.041 284.357 212.146 283.923 211.098C283.49 210.051 283.377 208.899 283.598 207.788C283.82 206.677 284.366 205.656 285.168 204.855C285.97 204.054 286.991 203.509 288.103 203.289C289.214 203.068 290.366 203.183 291.413 203.617C292.459 204.052 293.354 204.787 293.982 205.73C294.611 206.673 294.946 207.781 294.945 208.914C294.943 210.432 294.339 211.888 293.264 212.961C292.19 214.034 290.734 214.636 289.216 214.636V214.636Z" fill="white"/>
<path d="M289.216 203.218C288.083 203.218 286.976 203.554 286.034 204.184C285.092 204.813 284.357 205.708 283.924 206.754C283.49 207.801 283.377 208.953 283.598 210.064C283.819 211.175 284.364 212.196 285.166 212.997C285.967 213.798 286.987 214.344 288.099 214.565C289.21 214.786 290.362 214.673 291.408 214.239C292.455 213.805 293.35 213.071 293.979 212.129C294.609 211.187 294.945 210.08 294.945 208.947C294.945 207.427 294.341 205.97 293.267 204.896C292.192 203.822 290.735 203.218 289.216 203.218V203.218Z" fill="#00229A"/>
<path d="M83.6359 128.166H72.8142V130.969C74.2816 131.038 75.6658 131.67 76.6796 132.733C77.6934 133.796 78.259 135.209 78.259 136.678C78.259 138.147 77.6934 139.559 76.6796 140.623C75.6658 141.686 74.2816 142.317 72.8142 142.387V145.184H83.6359V128.166Z" fill="white"/>
<path d="M72.1728 142.381C70.7055 142.311 69.3213 141.679 68.3074 140.616C67.2936 139.553 66.728 138.14 66.728 136.671C66.728 135.203 67.2936 133.79 68.3074 132.727C69.3213 131.664 70.7055 131.032 72.1728 130.962V128.166H61.3447V145.184H72.1728V142.381Z" fill="white"/>
<path d="M217.294 130.962C218.761 131.032 220.146 131.664 221.159 132.727C222.173 133.79 222.739 135.203 222.739 136.671C222.739 138.14 222.173 139.553 221.159 140.616C220.146 141.679 218.761 142.311 217.294 142.381V145.177H228.122V128.166H217.294V130.962Z" fill="white"/>
<path d="M205.831 145.177H216.652V142.381C215.185 142.311 213.801 141.679 212.787 140.616C211.773 139.553 211.207 138.14 211.207 136.671C211.207 135.203 211.773 133.79 212.787 132.727C213.801 131.664 215.185 131.032 216.652 130.962V128.166H205.831V145.177Z" fill="white"/>
<path d="M155.879 128.166H133.588V145.184H155.879V128.166ZM144.736 142.4C143.603 142.401 142.495 142.066 141.552 141.437C140.609 140.808 139.873 139.914 139.439 138.867C139.005 137.82 138.891 136.667 139.111 135.556C139.332 134.444 139.878 133.422 140.68 132.621C141.481 131.819 142.502 131.274 143.614 131.053C144.726 130.832 145.878 130.946 146.925 131.38C147.972 131.815 148.867 132.55 149.496 133.493C150.125 134.436 150.46 135.544 150.458 136.678C150.455 138.194 149.851 139.647 148.778 140.718C147.706 141.789 146.252 142.392 144.736 142.393V142.4Z" fill="white"/>
<path d="M144.737 130.943C143.603 130.942 142.495 131.276 141.552 131.905C140.609 132.534 139.874 133.428 139.44 134.475C139.005 135.521 138.891 136.673 139.111 137.785C139.331 138.896 139.876 139.918 140.677 140.72C141.478 141.521 142.499 142.068 143.61 142.289C144.722 142.511 145.874 142.398 146.921 141.964C147.968 141.531 148.863 140.797 149.493 139.854C150.122 138.912 150.458 137.804 150.458 136.671C150.457 135.154 149.854 133.699 148.781 132.625C147.709 131.551 146.254 130.946 144.737 130.943V130.943Z" fill="#00229A"/>
<path d="M278.074 128.166V145.184H300.359V128.166H278.074ZM289.216 142.4C288.083 142.4 286.975 142.064 286.033 141.434C285.091 140.804 284.357 139.909 283.923 138.862C283.49 137.815 283.377 136.663 283.598 135.552C283.82 134.44 284.366 133.42 285.168 132.619C285.97 131.818 286.991 131.273 288.103 131.052C289.214 130.832 290.366 130.946 291.413 131.381C292.459 131.816 293.354 132.551 293.982 133.494C294.611 134.437 294.946 135.545 294.945 136.678C294.941 138.195 294.336 139.649 293.262 140.72C292.188 141.792 290.733 142.393 289.216 142.393V142.4Z" fill="white"/>
<path d="M289.216 130.943C288.083 130.943 286.976 131.279 286.034 131.908C285.092 132.538 284.357 133.432 283.924 134.479C283.49 135.526 283.377 136.678 283.598 137.789C283.819 138.9 284.364 139.921 285.166 140.722C285.967 141.523 286.987 142.069 288.099 142.29C289.21 142.511 290.362 142.397 291.408 141.964C292.455 141.53 293.35 140.796 293.979 139.854C294.609 138.912 294.945 137.804 294.945 136.671C294.943 135.153 294.339 133.696 293.265 132.623C292.191 131.549 290.735 130.945 289.216 130.943V130.943Z" fill="#00229A"/>
<path d="M300.583 73.5757V73.5052H301V55.2039H300.583V55.1333H265.302V46.2168H264.66V55.1333H251.709V54.4918H251.068V56.8332C251.088 57.3327 251.008 57.8312 250.831 58.2988C250.654 58.7663 250.385 59.1933 250.039 59.5541C249.693 59.9148 249.277 60.2019 248.818 60.398C248.358 60.5941 247.863 60.6951 247.363 60.6951C246.863 60.6951 246.368 60.5941 245.909 60.398C245.449 60.2019 245.033 59.9148 244.687 59.5541C244.341 59.1933 244.072 58.7663 243.895 58.2988C243.718 57.8312 243.638 57.3327 243.659 56.8332V54.5047H243.017V55.1461H221.322V54.5047H220.681V82.7296C220.702 83.2291 220.621 83.7276 220.444 84.1951C220.268 84.6627 219.998 85.0897 219.652 85.4505C219.306 85.8112 218.891 86.0983 218.431 86.2943C217.971 86.4904 217.476 86.5915 216.976 86.5915C216.476 86.5915 215.982 86.4904 215.522 86.2943C215.062 86.0983 214.647 85.8112 214.301 85.4505C213.955 85.0897 213.685 84.6627 213.508 84.1951C213.331 83.7276 213.251 83.2291 213.272 82.7296V54.5047H212.63V55.1461H169.048V46.2168H168.407V55.1333H120.938V46.2168H120.296V55.1333H72.8271V46.2168H72.1856V55.1333H42.3442V64.0178H40.7405V64.6592H42.3442V73.5757H72.1728V127.46H42.3442V136.363H40.7405V137.005H42.3442V145.902H72.1728V199.69H42.3442V218.132H72.1728V271.041H42.3442V289.484H72.1728V299.747H72.8143V289.484H120.283V299.747H120.925V289.484H168.394V299.747H169.036V289.484H216.64V299.747H217.281V289.484H264.628V299.747H265.27V289.484H300.551V289.413H300.968V271.112H300.551V271.041H265.27V218.132H300.551V218.062H300.968V199.76H300.551V199.69H265.27V145.889H300.551V145.819H300.968V127.524H300.551V127.453H265.27V73.5693L300.583 73.5757ZM300.359 72.8637H278.074V55.8453H300.359V72.8637ZM277.432 55.7748V72.9343H265.283V55.7748H277.432ZM247.366 61.1824C248.519 61.1807 249.623 60.7218 250.437 59.9063C251.252 59.0909 251.709 57.9856 251.709 56.8332V55.7748H264.641V72.9343H228.763V55.7748H243.017V56.8332C243.019 57.9862 243.478 59.0914 244.293 59.9067C245.108 60.722 246.213 61.1807 247.366 61.1824V61.1824ZM221.322 68.0719C222.213 67.038 222.702 65.7189 222.702 64.3545C222.702 62.9901 222.213 61.671 221.322 60.6372V55.8453H228.122V72.8637H221.322V68.0719ZM205.831 271.753H216.652V274.557C215.185 274.626 213.801 275.258 212.787 276.321C211.773 277.384 211.208 278.797 211.208 280.266C211.208 281.735 211.773 283.147 212.787 284.21C213.801 285.273 215.185 285.905 216.652 285.975V288.772H205.831V271.753ZM228.122 288.772H217.294V285.968C218.761 285.899 220.145 285.267 221.159 284.204C222.173 283.141 222.739 281.728 222.739 280.259C222.739 278.79 222.173 277.378 221.159 276.315C220.145 275.252 218.761 274.62 217.294 274.55V271.747H228.122V288.772ZM169.048 271.041V218.132H216.652V271.041H169.048ZM155.879 288.772H133.588V271.753H155.879V288.772ZM120.931 271.041V218.132H168.401V271.041H120.931ZM72.8207 214.591C74.288 214.522 75.6722 213.89 76.6861 212.827C77.6999 211.764 78.2655 210.351 78.2655 208.882C78.2655 207.413 77.6999 206.001 76.6861 204.938C75.6722 203.875 74.288 203.243 72.8207 203.173V200.37H83.636V217.388H72.8143L72.8207 214.591ZM61.3447 200.402H72.1728V203.218C70.7055 203.288 69.3212 203.919 68.3074 204.983C67.2936 206.046 66.728 207.458 66.728 208.927C66.728 210.396 67.2936 211.809 68.3074 212.872C69.3212 213.935 70.7055 214.567 72.1728 214.636V217.433H61.3447V200.402ZM84.2775 200.331H120.29V217.491H84.2775V200.331ZM120.931 200.331H132.946V217.491H120.931V200.331ZM72.8207 142.38C74.288 142.311 75.6722 141.679 76.6861 140.616C77.6999 139.553 78.2655 138.14 78.2655 136.671C78.2655 135.202 77.6999 133.79 76.6861 132.727C75.6722 131.664 74.288 131.032 72.8207 130.962V128.165H83.636V145.184H72.8143L72.8207 142.38ZM61.3447 128.165H72.1728V130.969C70.7055 131.038 69.3212 131.67 68.3074 132.733C67.2936 133.796 66.728 135.209 66.728 136.678C66.728 138.147 67.2936 139.559 68.3074 140.622C69.3212 141.685 70.7055 142.317 72.1728 142.387V145.184H61.3447V128.165ZM84.2775 128.095H120.29V145.254H84.2775V128.095ZM120.931 128.095H132.946V145.254H120.931V128.095ZM133.588 55.8453H155.879V72.8637H133.588V55.8453ZM168.407 73.5757V127.46H120.938V73.5757H168.407ZM216.652 130.962C215.185 131.032 213.801 131.664 212.787 132.727C211.773 133.79 211.208 135.202 211.208 136.671C211.208 138.14 211.773 139.553 212.787 140.616C213.801 141.679 215.185 142.311 216.652 142.38V145.177H205.831V128.165H216.652V130.962ZM228.122 145.177H217.294V142.38C218.761 142.311 220.145 141.679 221.159 140.616C222.173 139.553 222.739 138.14 222.739 136.671C222.739 135.202 222.173 133.79 221.159 132.727C220.145 131.664 218.761 131.032 217.294 130.962V128.165H228.122V145.177ZM205.189 145.248H169.048V128.088H205.189V145.248ZM168.407 145.248H156.52V128.088H168.407V145.248ZM133.588 128.165H155.879V145.184H133.588V128.165ZM168.407 145.896V199.69H120.938V145.889L168.407 145.896ZM216.652 203.218C215.185 203.288 213.801 203.919 212.787 204.983C211.773 206.046 211.208 207.458 211.208 208.927C211.208 210.396 211.773 211.809 212.787 212.872C213.801 213.935 215.185 214.567 216.652 214.636V217.433H205.831V200.402H216.652V203.218ZM228.122 217.433H217.294V214.636C218.761 214.567 220.145 213.935 221.159 212.872C222.173 211.809 222.739 210.396 222.739 208.927C222.739 207.458 222.173 206.046 221.159 204.983C220.145 203.919 218.761 203.288 217.294 203.218V200.415H228.122V217.433ZM205.189 217.504H169.048V200.331H205.189V217.504ZM168.407 217.504H156.52V200.331H168.407V217.504ZM133.588 200.415H155.879V217.433H133.588V200.415ZM228.763 200.344H264.641V217.504H228.763V200.344ZM169.048 199.703V145.889H216.652V199.69L169.048 199.703ZM228.763 128.101H264.641V145.261H228.763V128.101ZM169.048 127.46V73.5757H212.63V82.7104C212.631 83.8064 213.045 84.8619 213.791 85.665C214.537 86.4681 215.559 86.9594 216.652 87.0403V127.453L169.048 127.46ZM212.63 60.6372C211.74 61.671 211.25 62.9901 211.25 64.3545C211.25 65.7189 211.74 67.038 212.63 68.0719V72.8637H205.831V55.8453H212.63V60.6372ZM205.189 55.7748V72.9343H169.048V55.7748H205.189ZM168.407 72.9343H156.52V55.7748H168.407V72.9343ZM132.946 55.7748V72.9343H120.931V55.7748H132.946ZM120.29 72.9343H84.2775V55.7748H120.29V72.9343ZM72.8207 70.0669C74.288 69.9973 75.6722 69.3654 76.6861 68.3024C77.6999 67.2393 78.2655 65.8267 78.2655 64.3577C78.2655 62.8887 77.6999 61.4762 76.6861 60.4131C75.6722 59.3501 74.288 58.7182 72.8207 58.6486V55.8453H83.636V72.8637H72.8143L72.8207 70.0669ZM61.3447 55.8453H72.1728V58.6486C70.7055 58.7182 69.3212 59.3501 68.3074 60.4131C67.2936 61.4762 66.728 62.8887 66.728 64.3577C66.728 65.8267 67.2936 67.2393 68.3074 68.3024C69.3212 69.3654 70.7055 69.9973 72.1728 70.0669V72.8637H61.3447V55.8453ZM42.9856 55.7748H60.7032V72.9343H42.9856V55.7748ZM72.8143 73.5757H120.283V127.46H72.8143V73.5757ZM42.9856 128.101H60.7032V145.261H42.9856V128.101ZM72.8143 145.902H120.283V199.69H72.8143V145.902ZM42.9856 200.331H60.7032V217.491H42.9856V200.331ZM72.8143 218.132H120.283V271.041H72.8143V218.132ZM61.3447 271.753H72.1728V274.557C70.7055 274.626 69.3212 275.258 68.3074 276.321C67.2936 277.384 66.728 278.797 66.728 280.266C66.728 281.735 67.2936 283.147 68.3074 284.21C69.3212 285.273 70.7055 285.905 72.1728 285.975V288.772H61.3447V271.753ZM83.636 288.772H72.8143V285.968C74.2816 285.899 75.6658 285.267 76.6797 284.204C77.6935 283.141 78.2591 281.728 78.2591 280.259C78.2591 278.79 77.6935 277.378 76.6797 276.315C75.6658 275.252 74.2816 274.62 72.8143 274.55V271.747H83.636V288.772ZM42.9856 271.683H60.7032V288.842H42.9856V271.683ZM84.2775 288.842V271.683H120.29V288.842H84.2775ZM120.931 271.683H132.946V288.842H120.931V271.683ZM156.52 288.842V271.683H168.407V288.842H156.52ZM169.048 271.683H205.189V288.842H169.048V271.683ZM228.763 288.842V271.683H264.641V288.842H228.763ZM300.359 288.772H278.074V271.753H300.359V288.772ZM277.432 271.683V288.842H265.283V271.683H277.432ZM264.641 271.041H217.294V218.132H264.641V271.041ZM300.359 217.42H278.074V200.402H300.359V217.42ZM277.432 200.331V217.491H265.283V200.331H277.432ZM264.641 199.69H217.294V145.889H264.641V199.69ZM300.359 145.164H278.074V128.165H300.359V145.164ZM277.432 128.088V145.248H265.283V128.088H277.432ZM264.641 127.447H217.294V87.0339C218.388 86.9545 219.412 86.4639 220.159 85.6606C220.906 84.8574 221.322 83.8011 221.322 82.7039V73.5757H264.641V127.447Z" fill="#00229A"/>
<path d="M83.6359 55.8452H72.8142V58.6485C74.2816 58.718 75.6658 59.3499 76.6796 60.413C77.6934 61.476 78.259 62.8886 78.259 64.3576C78.259 65.8266 77.6934 67.2392 76.6796 68.3022C75.6658 69.3653 74.2816 69.9972 72.8142 70.0667V72.8636H83.6359V55.8452Z" fill="white"/>
<path d="M72.1728 70.0667C70.7055 69.9972 69.3213 69.3653 68.3074 68.3022C67.2936 67.2392 66.728 65.8266 66.728 64.3576C66.728 62.8886 67.2936 61.476 68.3074 60.413C69.3213 59.3499 70.7055 58.718 72.1728 58.6485V55.8452H61.3447V72.8636H72.1728V70.0667Z" fill="white"/>
<path d="M228.122 55.8452H221.322V60.637C222.213 61.6709 222.702 62.99 222.702 64.3544C222.702 65.7188 222.213 67.0379 221.322 68.0717V72.8636H228.122V55.8452Z" fill="white"/>
<path d="M205.831 72.8636H212.63V68.0717C211.74 67.0379 211.25 65.7188 211.25 64.3544C211.25 62.99 211.74 61.6709 212.63 60.637V55.8452H205.831V72.8636Z" fill="white"/>
<path d="M155.879 55.8452H133.588V72.8636H155.879V55.8452ZM144.736 70.0796C143.603 70.0808 142.495 69.7458 141.552 69.1168C140.609 68.4879 139.873 67.5933 139.439 66.5463C139.005 65.4993 138.891 64.347 139.111 63.2352C139.332 62.1234 139.878 61.1021 140.68 60.3006C141.481 59.4991 142.502 58.9534 143.614 58.7326C144.726 58.5117 145.878 58.6257 146.925 59.0601C147.972 59.4944 148.867 60.2297 149.496 61.1727C150.125 62.1157 150.46 63.2241 150.458 64.3576C150.457 65.8746 149.853 67.3291 148.781 68.4018C147.708 69.4745 146.254 70.0779 144.736 70.0796Z" fill="white"/>
<path d="M144.737 58.6299C143.603 58.6286 142.495 58.9635 141.552 59.5922C140.609 60.2208 139.874 61.115 139.44 62.1617C139.005 63.2083 138.891 64.3603 139.111 65.4719C139.331 66.5835 139.876 67.6048 140.677 68.4066C141.478 69.2083 142.499 69.7546 143.61 69.9761C144.722 70.1977 145.874 70.0846 146.921 69.6512C147.968 69.2178 148.863 68.4836 149.493 67.5414C150.122 66.5993 150.458 65.4915 150.458 64.3583C150.457 62.8406 149.854 61.3856 148.781 60.3118C147.709 59.2381 146.254 58.6333 144.737 58.6299V58.6299Z" fill="#00229A"/>
<path d="M278.074 55.8452V72.8636H300.359V55.8452H278.074ZM289.216 70.0796C288.083 70.0796 286.975 69.7434 286.033 69.1137C285.091 68.484 284.357 67.589 283.923 66.5419C283.49 65.4948 283.377 64.3426 283.598 63.2313C283.82 62.1199 284.366 61.0992 285.168 60.2983C285.97 59.4975 286.991 58.9524 288.103 58.7321C289.214 58.5118 290.366 58.6261 291.413 59.0607C292.459 59.4952 293.354 60.2305 293.982 61.1733C294.611 62.1162 294.946 63.2244 294.945 64.3576C294.943 65.8757 294.339 67.3311 293.264 68.404C292.19 69.4769 290.734 70.0796 289.216 70.0796Z" fill="white"/>
<path d="M289.216 58.6299C288.083 58.6299 286.976 58.9658 286.034 59.5953C285.092 60.2247 284.357 61.1194 283.924 62.1661C283.49 63.2128 283.377 64.3646 283.598 65.4758C283.819 66.587 284.364 67.6077 285.166 68.4088C285.967 69.21 286.987 69.7555 288.099 69.9766C289.21 70.1976 290.362 70.0842 291.408 69.6506C292.455 69.217 293.35 68.4828 293.979 67.5408C294.609 66.5988 294.945 65.4912 294.945 64.3583C294.943 62.8395 294.339 61.3835 293.265 60.3096C292.191 59.2357 290.735 58.6316 289.216 58.6299V58.6299Z" fill="#00229A"/>
<path d="M29.6941 65.4425V66.3662L30.4574 65.6029V135.428L29.6941 134.658V135.581L30.7782 136.672L31.8687 135.581V134.658L31.0989 135.428V65.6029L31.8687 66.3662V65.4425L30.7782 64.3584L29.6941 65.4425Z" fill="#00229A"/>
<path d="M73.5775 33.7855H74.5012L73.7379 33.0157H143.563L142.793 33.7855H143.716L144.807 32.695L143.716 31.6045H142.793L143.563 32.3743H73.7379L74.5012 31.6045H73.5775L72.4934 32.695L73.5775 33.7855Z" fill="#00229A"/>
<path d="M72.8143 42.7271H72.1729V44.6515H72.8143V42.7271Z" fill="#00229A"/>
<path d="M72.8143 34.6836H72.1729V38.7056H72.8143V34.6836Z" fill="#00229A"/>
<path d="M72.8143 28.7368H72.1729V30.6612H72.8143V28.7368Z" fill="#00229A"/>
<path d="M145.057 52.311H144.416V54.2355H145.057V52.311Z" fill="#00229A"/>
<path d="M145.057 43.6509H144.416V47.9808H145.057V43.6509Z" fill="#00229A"/>
<path d="M145.057 34.9912H144.416V39.3212H145.057V34.9912Z" fill="#00229A"/>
<path d="M145.057 28.7368H144.416V30.6612H145.057V28.7368Z" fill="#00229A"/>
<path d="M28.9244 64.0371H27V64.6786H28.9244V64.0371Z" fill="#00229A"/>
<path d="M36.8017 64.0371H32.863V64.6786H36.8017V64.0371Z" fill="#00229A"/>
<path d="M28.9244 136.351H27V136.992H28.9244V136.351Z" fill="#00229A"/>
<path d="M36.8017 136.351H32.863V136.992H36.8017V136.351Z" fill="#00229A"/>
<path d="M243.658 56.8334C243.638 57.3329 243.718 57.8314 243.895 58.299C244.072 58.7666 244.341 59.1935 244.687 59.5543C245.033 59.915 245.449 60.2021 245.909 60.3982C246.368 60.5943 246.863 60.6954 247.363 60.6954C247.863 60.6954 248.358 60.5943 248.817 60.3982C249.277 60.2021 249.693 59.915 250.039 59.5543C250.385 59.1935 250.654 58.7666 250.831 58.299C251.008 57.8314 251.088 57.3329 251.068 56.8334V54.5049H247.668V57.7123L248.45 56.9617V57.8855L247.366 58.9696L246.276 57.8855V56.9617L247.045 57.7251V54.5177H243.658V56.8334Z" fill="white"/>
<path d="M246.915 57.1298L246.085 56.2996L246.085 57.2958L247.261 58.4719L248.43 57.2958L248.43 56.2996L247.607 57.1298L247.607 38.9143L247.606 17.5L254.8 17.5L254.8 16.8082L246.915 16.8082L246.915 38.9143L246.915 57.1298Z" fill="#00229A"/>
<path d="M213.272 82.7108C213.251 83.2102 213.331 83.7087 213.508 84.1763C213.685 84.6439 213.955 85.0709 214.301 85.4316C214.647 85.7924 215.062 86.0794 215.522 86.2755C215.982 86.4716 216.476 86.5727 216.976 86.5727C217.476 86.5727 217.971 86.4716 218.431 86.2755C218.891 86.0794 219.306 85.7924 219.652 85.4316C219.998 85.0709 220.268 84.6439 220.444 84.1763C220.621 83.7087 220.702 83.2102 220.681 82.7108V54.4858H217.294V83.6153L218.064 82.8519V83.7756L216.973 84.8597L215.889 83.7756V82.8519L216.652 83.6217V54.5051H213.272V82.7108Z" fill="#F7F8FC"/>
<path d="M216.652 83.6214L215.889 82.8517V83.7754L216.973 84.8595L218.064 83.7754V82.8517L217.294 83.6214V54.5048V46.217V24H216.652V46.217V54.5048V83.6214Z" fill="#00229A"/>
<path d="M16.9 119.743L26 119.743L26 120.679L17.732 120.679L17.732 122.824L16.9 122.824L16.9 119.743ZM20.631 115.436C20.631 114.119 20.8693 113.161 21.346 112.563C21.814 111.956 22.4727 111.653 23.322 111.653C23.8507 111.653 24.323 111.779 24.739 112.03C25.155 112.273 25.4843 112.641 25.727 113.135C25.961 113.629 26.078 114.236 26.078 114.955C26.078 115.605 25.974 116.225 25.766 116.814C25.5493 117.395 25.2633 117.863 24.908 118.218L24.167 117.763C24.479 117.46 24.7347 117.061 24.934 116.567C25.1247 116.073 25.22 115.54 25.22 114.968C25.22 114.214 25.051 113.633 24.713 113.226C24.375 112.81 23.9243 112.602 23.361 112.602C22.737 112.602 22.2647 112.836 21.944 113.304C21.6233 113.763 21.463 114.543 21.463 115.644L21.463 117.581L16.9 117.113L16.9 112.134L17.732 112.134L17.732 116.294L20.631 116.606L20.631 115.436ZM26.078 107.098C26.078 107.8 25.8917 108.428 25.519 108.983C25.1463 109.529 24.6133 109.958 23.92 110.27C23.218 110.573 22.3947 110.725 21.45 110.725C20.5053 110.725 19.6863 110.573 18.993 110.27C18.291 109.958 17.7537 109.529 17.381 108.983C17.0083 108.428 16.822 107.8 16.822 107.098C16.822 106.396 17.0083 105.772 17.381 105.226C17.7537 104.671 18.291 104.238 18.993 103.926C19.6863 103.614 20.5053 103.458 21.45 103.458C22.3947 103.458 23.218 103.614 23.92 103.926C24.6133 104.238 25.1463 104.671 25.519 105.226C25.8917 105.772 26.078 106.396 26.078 107.098ZM25.22 107.098C25.22 106.569 25.0727 106.105 24.778 105.707C24.4833 105.299 24.0543 104.983 23.491 104.758C22.9277 104.532 22.2473 104.42 21.45 104.42C20.6527 104.42 19.9723 104.532 19.409 104.758C18.8457 104.983 18.4167 105.299 18.122 105.707C17.8273 106.105 17.68 106.569 17.68 107.098C17.68 107.626 17.8273 108.094 18.122 108.502C18.4167 108.9 18.8457 109.212 19.409 109.438C19.9723 109.663 20.6527 109.776 21.45 109.776C22.2473 109.776 22.9277 109.663 23.491 109.438C24.0543 109.212 24.4833 108.9 24.778 108.502C25.0727 108.094 25.22 107.626 25.22 107.098ZM26.065 95.79C26.065 96.466 25.9177 97.0727 25.623 97.61C25.3283 98.1387 24.9167 98.5547 24.388 98.858C23.8507 99.1613 23.2483 99.313 22.581 99.313C21.9137 99.313 21.3157 99.1613 20.787 98.858C20.2583 98.5547 19.8467 98.1387 19.552 97.61C19.2573 97.0727 19.11 96.466 19.11 95.79C19.11 95.2007 19.227 94.6763 19.461 94.217C19.6863 93.749 20.02 93.3807 20.462 93.112L20.93 93.801C20.592 94.0263 20.3407 94.3123 20.176 94.659C20.0027 95.0057 19.916 95.3827 19.916 95.79C19.916 96.284 20.0287 96.7303 20.254 97.129C20.4707 97.519 20.7827 97.8267 21.19 98.052C21.5973 98.2687 22.061 98.377 22.581 98.377C23.1097 98.377 23.5777 98.2687 23.985 98.052C24.3837 97.8267 24.6957 97.519 24.921 97.129C25.1377 96.7303 25.246 96.284 25.246 95.79C25.246 95.3827 25.1637 95.0057 24.999 94.659C24.8343 94.3123 24.583 94.0263 24.245 93.801L24.713 93.112C25.155 93.3807 25.493 93.749 25.727 94.217C25.9523 94.685 26.065 95.2093 26.065 95.79ZM19.11 83.0308C19.11 82.1728 19.357 81.5011 19.851 81.0158C20.345 80.5218 21.073 80.2748 22.035 80.2748L26 80.2748L26 81.1978L22.126 81.1978C21.4153 81.1978 20.8737 81.3711 20.501 81.7178C20.1283 82.0558 19.942 82.5368 19.942 83.1608C19.942 83.8715 20.163 84.4305 20.605 84.8378C21.0383 85.2451 21.6407 85.4488 22.412 85.4488L26 85.4488L26 86.3718L22.126 86.3718C21.4153 86.3718 20.8737 86.5451 20.501 86.8918C20.1283 87.2298 19.942 87.7151 19.942 88.3478C19.942 89.0498 20.163 89.6088 20.605 90.0248C21.0383 90.4321 21.6407 90.6358 22.412 90.6358L26 90.6358L26 91.5588L19.162 91.5588L19.162 90.6748L20.41 90.6748C19.994 90.4321 19.6733 90.0941 19.448 89.6608C19.2227 89.2275 19.11 88.7291 19.11 88.1658C19.11 87.5938 19.2313 87.0998 19.474 86.6838C19.7167 86.2591 20.0763 85.9428 20.553 85.7348C20.1023 85.4835 19.7513 85.1238 19.5 84.6558C19.24 84.1791 19.11 83.6375 19.11 83.0308Z" fill="#00229A"/>
<path d="M88.2567 18.9V28H87.3207V19.732H85.1757V18.9H88.2567ZM92.564 22.631C93.8813 22.631 94.839 22.8693 95.437 23.346C96.0436 23.814 96.347 24.4727 96.347 25.322C96.347 25.8507 96.2213 26.323 95.97 26.739C95.7273 27.155 95.359 27.4843 94.865 27.727C94.371 27.961 93.7643 28.078 93.045 28.078C92.395 28.078 91.7753 27.974 91.186 27.766C90.6053 27.5493 90.1373 27.2633 89.782 26.908L90.237 26.167C90.5403 26.479 90.939 26.7347 91.433 26.934C91.927 27.1247 92.46 27.22 93.032 27.22C93.786 27.22 94.3666 27.051 94.774 26.713C95.19 26.375 95.398 25.9243 95.398 25.361C95.398 24.737 95.164 24.2647 94.696 23.944C94.2366 23.6233 93.4566 23.463 92.356 23.463H90.419L90.887 18.9H95.866V19.732H91.706L91.394 22.631H92.564ZM100.902 28.078C100.2 28.078 99.5719 27.8917 99.0172 27.519C98.4712 27.1463 98.0422 26.6133 97.7302 25.92C97.4269 25.218 97.2752 24.3947 97.2752 23.45C97.2752 22.5053 97.4269 21.6863 97.7302 20.993C98.0422 20.291 98.4712 19.7537 99.0172 19.381C99.5719 19.0083 100.2 18.822 100.902 18.822C101.604 18.822 102.228 19.0083 102.774 19.381C103.329 19.7537 103.762 20.291 104.074 20.993C104.386 21.6863 104.542 22.5053 104.542 23.45C104.542 24.3947 104.386 25.218 104.074 25.92C103.762 26.6133 103.329 27.1463 102.774 27.519C102.228 27.8917 101.604 28.078 100.902 28.078ZM100.902 27.22C101.431 27.22 101.895 27.0727 102.293 26.778C102.701 26.4833 103.017 26.0543 103.242 25.491C103.468 24.9277 103.58 24.2473 103.58 23.45C103.58 22.6527 103.468 21.9723 103.242 21.409C103.017 20.8457 102.701 20.4167 102.293 20.122C101.895 19.8273 101.431 19.68 100.902 19.68C100.374 19.68 99.9056 19.8273 99.4982 20.122C99.0996 20.4167 98.7876 20.8457 98.5622 21.409C98.3369 21.9723 98.2242 22.6527 98.2242 23.45C98.2242 24.2473 98.3369 24.9277 98.5622 25.491C98.7876 26.0543 99.0996 26.4833 99.4982 26.778C99.9056 27.0727 100.374 27.22 100.902 27.22ZM112.21 28.065C111.534 28.065 110.927 27.9177 110.39 27.623C109.861 27.3283 109.445 26.9167 109.142 26.388C108.839 25.8507 108.687 25.2483 108.687 24.581C108.687 23.9137 108.839 23.3157 109.142 22.787C109.445 22.2583 109.861 21.8467 110.39 21.552C110.927 21.2573 111.534 21.11 112.21 21.11C112.799 21.11 113.324 21.227 113.783 21.461C114.251 21.6863 114.619 22.02 114.888 22.462L114.199 22.93C113.974 22.592 113.688 22.3407 113.341 22.176C112.994 22.0027 112.617 21.916 112.21 21.916C111.716 21.916 111.27 22.0287 110.871 22.254C110.481 22.4707 110.173 22.7827 109.948 23.19C109.731 23.5973 109.623 24.061 109.623 24.581C109.623 25.1097 109.731 25.5777 109.948 25.985C110.173 26.3837 110.481 26.6957 110.871 26.921C111.27 27.1377 111.716 27.246 112.21 27.246C112.617 27.246 112.994 27.1637 113.341 26.999C113.688 26.8343 113.974 26.583 114.199 26.245L114.888 26.713C114.619 27.155 114.251 27.493 113.783 27.727C113.315 27.9523 112.791 28.065 112.21 28.065ZM124.969 21.11C125.827 21.11 126.499 21.357 126.984 21.851C127.478 22.345 127.725 23.073 127.725 24.035V28H126.802V24.126C126.802 23.4153 126.629 22.8737 126.282 22.501C125.944 22.1283 125.463 21.942 124.839 21.942C124.129 21.942 123.57 22.163 123.162 22.605C122.755 23.0383 122.551 23.6407 122.551 24.412V28H121.628V24.126C121.628 23.4153 121.455 22.8737 121.108 22.501C120.77 22.1283 120.285 21.942 119.652 21.942C118.95 21.942 118.391 22.163 117.975 22.605C117.568 23.0383 117.364 23.6407 117.364 24.412V28H116.441V21.162H117.325V22.41C117.568 21.994 117.906 21.6733 118.339 21.448C118.773 21.2227 119.271 21.11 119.834 21.11C120.406 21.11 120.9 21.2313 121.316 21.474C121.741 21.7167 122.057 22.0763 122.265 22.553C122.517 22.1023 122.876 21.7513 123.344 21.5C123.821 21.24 124.363 21.11 124.969 21.11Z" fill="#00229A"/>
<path d="M258.482 10.9H262.187C263.149 10.9 263.998 11.095 264.735 11.485C265.472 11.8663 266.044 12.4037 266.451 13.097C266.858 13.7817 267.062 14.566 267.062 15.45C267.062 16.334 266.858 17.1227 266.451 17.816C266.044 18.5007 265.472 19.038 264.735 19.428C263.998 19.8093 263.149 20 262.187 20H258.482V10.9ZM262.135 19.168C262.932 19.168 263.63 19.012 264.228 18.7C264.826 18.3793 265.29 17.9417 265.619 17.387C265.948 16.8237 266.113 16.178 266.113 15.45C266.113 14.722 265.948 14.0807 265.619 13.526C265.29 12.9627 264.826 12.525 264.228 12.213C263.63 11.8923 262.932 11.732 262.135 11.732H259.444V19.168H262.135ZM274.721 16.867H269.001C269.053 17.5777 269.326 18.154 269.82 18.596C270.314 19.0293 270.938 19.246 271.692 19.246C272.117 19.246 272.507 19.1723 272.862 19.025C273.218 18.869 273.525 18.6437 273.785 18.349L274.305 18.947C274.002 19.311 273.621 19.5883 273.161 19.779C272.711 19.9697 272.212 20.065 271.666 20.065C270.964 20.065 270.34 19.9177 269.794 19.623C269.257 19.3197 268.837 18.9037 268.533 18.375C268.23 17.8463 268.078 17.2483 268.078 16.581C268.078 15.9137 268.221 15.3157 268.507 14.787C268.802 14.2583 269.201 13.8467 269.703 13.552C270.215 13.2573 270.787 13.11 271.419 13.11C272.052 13.11 272.62 13.2573 273.122 13.552C273.625 13.8467 274.019 14.2583 274.305 14.787C274.591 15.307 274.734 15.905 274.734 16.581L274.721 16.867ZM271.419 13.903C270.761 13.903 270.206 14.1153 269.755 14.54C269.313 14.956 269.062 15.502 269.001 16.178H273.85C273.79 15.502 273.534 14.956 273.083 14.54C272.641 14.1153 272.087 13.903 271.419 13.903ZM278.186 20.065C277.631 20.065 277.098 19.987 276.587 19.831C276.084 19.6663 275.69 19.4627 275.404 19.22L275.82 18.492C276.106 18.7173 276.466 18.9037 276.899 19.051C277.332 19.1897 277.783 19.259 278.251 19.259C278.875 19.259 279.334 19.1637 279.629 18.973C279.932 18.7737 280.084 18.4963 280.084 18.141C280.084 17.8897 280.002 17.6947 279.837 17.556C279.672 17.4087 279.464 17.3003 279.213 17.231C278.962 17.153 278.628 17.0793 278.212 17.01C277.657 16.906 277.211 16.802 276.873 16.698C276.535 16.5853 276.245 16.399 276.002 16.139C275.768 15.879 275.651 15.5193 275.651 15.06C275.651 14.488 275.889 14.02 276.366 13.656C276.843 13.292 277.506 13.11 278.355 13.11C278.797 13.11 279.239 13.1707 279.681 13.292C280.123 13.4047 280.487 13.5563 280.773 13.747L280.37 14.488C279.807 14.098 279.135 13.903 278.355 13.903C277.766 13.903 277.319 14.007 277.016 14.215C276.721 14.423 276.574 14.696 276.574 15.034C276.574 15.294 276.656 15.502 276.821 15.658C276.994 15.814 277.207 15.931 277.458 16.009C277.709 16.0783 278.056 16.152 278.498 16.23C279.044 16.334 279.482 16.438 279.811 16.542C280.14 16.646 280.422 16.8237 280.656 17.075C280.89 17.3263 281.007 17.673 281.007 18.115C281.007 18.713 280.756 19.1897 280.253 19.545C279.759 19.8917 279.07 20.065 278.186 20.065ZM284.988 16.568L283.376 18.05V20H282.453V10.354H283.376V16.893L287.458 13.162H288.602L285.677 15.957L288.875 20H287.744L284.988 16.568ZM292.266 13.11C293.159 13.11 293.843 13.3353 294.32 13.786C294.797 14.228 295.035 14.8867 295.035 15.762V20H294.151V18.934C293.943 19.2893 293.635 19.5667 293.228 19.766C292.829 19.9653 292.353 20.065 291.798 20.065C291.035 20.065 290.429 19.883 289.978 19.519C289.527 19.155 289.302 18.674 289.302 18.076C289.302 17.4953 289.51 17.0273 289.926 16.672C290.351 16.3167 291.022 16.139 291.941 16.139H294.112V15.723C294.112 15.1337 293.947 14.6873 293.618 14.384C293.289 14.072 292.808 13.916 292.175 13.916C291.742 13.916 291.326 13.9897 290.927 14.137C290.528 14.2757 290.186 14.4707 289.9 14.722L289.484 14.033C289.831 13.7383 290.247 13.513 290.732 13.357C291.217 13.1923 291.729 13.11 292.266 13.11ZM291.941 19.337C292.461 19.337 292.907 19.22 293.28 18.986C293.653 18.7433 293.93 18.3967 294.112 17.946V16.828H291.967C290.797 16.828 290.212 17.2353 290.212 18.05C290.212 18.4487 290.364 18.765 290.667 18.999C290.97 19.2243 291.395 19.337 291.941 19.337ZM261.082 35.065C260.423 35.065 259.83 34.9177 259.301 34.623C258.772 34.3197 258.356 33.9037 258.053 33.375C257.75 32.8463 257.598 32.2483 257.598 31.581C257.598 30.9137 257.75 30.3157 258.053 29.787C258.356 29.2583 258.772 28.8467 259.301 28.552C259.83 28.2573 260.423 28.11 261.082 28.11C261.741 28.11 262.334 28.2573 262.863 28.552C263.392 28.8467 263.803 29.2583 264.098 29.787C264.401 30.3157 264.553 30.9137 264.553 31.581C264.553 32.2483 264.401 32.8463 264.098 33.375C263.803 33.9037 263.392 34.3197 262.863 34.623C262.334 34.9177 261.741 35.065 261.082 35.065ZM261.082 34.246C261.567 34.246 262.001 34.1377 262.382 33.921C262.772 33.6957 263.075 33.3793 263.292 32.972C263.509 32.5647 263.617 32.101 263.617 31.581C263.617 31.061 263.509 30.5973 263.292 30.19C263.075 29.7827 262.772 29.4707 262.382 29.254C262.001 29.0287 261.567 28.916 261.082 28.916C260.597 28.916 260.159 29.0287 259.769 29.254C259.388 29.4707 259.084 29.7827 258.859 30.19C258.642 30.5973 258.534 31.061 258.534 31.581C258.534 32.101 258.642 32.5647 258.859 32.972C259.084 33.3793 259.388 33.6957 259.769 33.921C260.159 34.1377 260.597 34.246 261.082 34.246ZM269.7 28.11C270.342 28.11 270.922 28.2573 271.442 28.552C271.962 28.838 272.37 29.2453 272.664 29.774C272.959 30.3027 273.106 30.905 273.106 31.581C273.106 32.2657 272.959 32.8723 272.664 33.401C272.37 33.9297 271.962 34.3413 271.442 34.636C270.931 34.922 270.35 35.065 269.7 35.065C269.146 35.065 268.643 34.9523 268.192 34.727C267.75 34.493 267.386 34.155 267.1 33.713V37.522H266.177V28.162H267.061V29.514C267.339 29.0633 267.703 28.7167 268.153 28.474C268.613 28.2313 269.128 28.11 269.7 28.11ZM269.635 34.246C270.112 34.246 270.545 34.1377 270.935 33.921C271.325 33.6957 271.629 33.3793 271.845 32.972C272.071 32.5647 272.183 32.101 272.183 31.581C272.183 31.061 272.071 30.6017 271.845 30.203C271.629 29.7957 271.325 29.4793 270.935 29.254C270.545 29.0287 270.112 28.916 269.635 28.916C269.15 28.916 268.712 29.0287 268.322 29.254C267.941 29.4793 267.638 29.7957 267.412 30.203C267.196 30.6017 267.087 31.061 267.087 31.581C267.087 32.101 267.196 32.5647 267.412 32.972C267.638 33.3793 267.941 33.6957 268.322 33.921C268.712 34.1377 269.15 34.246 269.635 34.246ZM277.523 35.065C276.864 35.065 276.271 34.9177 275.742 34.623C275.213 34.3197 274.797 33.9037 274.494 33.375C274.191 32.8463 274.039 32.2483 274.039 31.581C274.039 30.9137 274.191 30.3157 274.494 29.787C274.797 29.2583 275.213 28.8467 275.742 28.552C276.271 28.2573 276.864 28.11 277.523 28.11C278.182 28.11 278.775 28.2573 279.304 28.552C279.833 28.8467 280.244 29.2583 280.539 29.787C280.842 30.3157 280.994 30.9137 280.994 31.581C280.994 32.2483 280.842 32.8463 280.539 33.375C280.244 33.9037 279.833 34.3197 279.304 34.623C278.775 34.9177 278.182 35.065 277.523 35.065ZM277.523 34.246C278.008 34.246 278.442 34.1377 278.823 33.921C279.213 33.6957 279.516 33.3793 279.733 32.972C279.95 32.5647 280.058 32.101 280.058 31.581C280.058 31.061 279.95 30.5973 279.733 30.19C279.516 29.7827 279.213 29.4707 278.823 29.254C278.442 29.0287 278.008 28.916 277.523 28.916C277.038 28.916 276.6 29.0287 276.21 29.254C275.829 29.4707 275.525 29.7827 275.3 30.19C275.083 30.5973 274.975 31.061 274.975 31.581C274.975 32.101 275.083 32.5647 275.3 32.972C275.525 33.3793 275.829 33.6957 276.21 33.921C276.6 34.1377 277.038 34.246 277.523 34.246ZM283.502 29.501C283.719 29.0417 284.04 28.695 284.464 28.461C284.898 28.227 285.431 28.11 286.063 28.11V29.007L285.842 28.994C285.123 28.994 284.56 29.215 284.152 29.657C283.745 30.099 283.541 30.7187 283.541 31.516V35H282.618V28.162H283.502V29.501ZM290.206 35.065C289.547 35.065 288.954 34.9177 288.425 34.623C287.896 34.3197 287.48 33.9037 287.177 33.375C286.874 32.8463 286.722 32.2483 286.722 31.581C286.722 30.9137 286.874 30.3157 287.177 29.787C287.48 29.2583 287.896 28.8467 288.425 28.552C288.954 28.2573 289.547 28.11 290.206 28.11C290.865 28.11 291.458 28.2573 291.987 28.552C292.516 28.8467 292.927 29.2583 293.222 29.787C293.525 30.3157 293.677 30.9137 293.677 31.581C293.677 32.2483 293.525 32.8463 293.222 33.375C292.927 33.9037 292.516 34.3197 291.987 34.623C291.458 34.9177 290.865 35.065 290.206 35.065ZM290.206 34.246C290.691 34.246 291.125 34.1377 291.506 33.921C291.896 33.6957 292.199 33.3793 292.416 32.972C292.633 32.5647 292.741 32.101 292.741 31.581C292.741 31.061 292.633 30.5973 292.416 30.19C292.199 29.7827 291.896 29.4707 291.506 29.254C291.125 29.0287 290.691 28.916 290.206 28.916C289.721 28.916 289.283 29.0287 288.893 29.254C288.512 29.4707 288.208 29.7827 287.983 30.19C287.766 30.5973 287.658 31.061 287.658 31.581C287.658 32.101 287.766 32.5647 287.983 32.972C288.208 33.3793 288.512 33.6957 288.893 33.921C289.283 34.1377 289.721 34.246 290.206 34.246ZM305.147 28.162L302.56 35H301.689L299.531 29.397L297.373 35H296.502L293.928 28.162H294.812L296.957 33.973L299.154 28.162H299.947L302.131 33.973L304.302 28.162H305.147ZM308.466 28.11C309.358 28.11 310.043 28.3353 310.52 28.786C310.996 29.228 311.235 29.8867 311.235 30.762V35H310.351V33.934C310.143 34.2893 309.835 34.5667 309.428 34.766C309.029 34.9653 308.552 35.065 307.998 35.065C307.235 35.065 306.628 34.883 306.178 34.519C305.727 34.155 305.502 33.674 305.502 33.076C305.502 32.4953 305.71 32.0273 306.126 31.672C306.55 31.3167 307.222 31.139 308.141 31.139H310.312V30.723C310.312 30.1337 310.147 29.6873 309.818 29.384C309.488 29.072 309.007 28.916 308.375 28.916C307.941 28.916 307.525 28.9897 307.127 29.137C306.728 29.2757 306.386 29.4707 306.1 29.722L305.684 29.033C306.03 28.7383 306.446 28.513 306.932 28.357C307.417 28.1923 307.928 28.11 308.466 28.11ZM308.141 34.337C308.661 34.337 309.107 34.22 309.48 33.986C309.852 33.7433 310.13 33.3967 310.312 32.946V31.828H308.167C306.997 31.828 306.412 32.2353 306.412 33.05C306.412 33.4487 306.563 33.765 306.867 33.999C307.17 34.2243 307.595 34.337 308.141 34.337Z" fill="#00229A"/>
<path d="M173.46 20.078C172.559 20.078 171.74 19.8787 171.003 19.48C170.275 19.0727 169.703 18.518 169.287 17.816C168.88 17.114 168.676 16.3253 168.676 15.45C168.676 14.5747 168.88 13.786 169.287 13.084C169.703 12.382 170.275 11.8317 171.003 11.433C171.74 11.0257 172.559 10.822 173.46 10.822C174.361 10.822 175.172 11.0213 175.891 11.42C176.619 11.8187 177.191 12.3733 177.607 13.084C178.023 13.786 178.231 14.5747 178.231 15.45C178.231 16.3253 178.023 17.1183 177.607 17.829C177.191 18.531 176.619 19.0813 175.891 19.48C175.172 19.8787 174.361 20.078 173.46 20.078ZM173.46 19.22C174.179 19.22 174.829 19.0597 175.41 18.739C175.991 18.4097 176.446 17.959 176.775 17.387C177.104 16.8063 177.269 16.1607 177.269 15.45C177.269 14.7393 177.104 14.098 176.775 13.526C176.446 12.9453 175.991 12.4947 175.41 12.174C174.829 11.8447 174.179 11.68 173.46 11.68C172.741 11.68 172.086 11.8447 171.497 12.174C170.916 12.4947 170.457 12.9453 170.119 13.526C169.79 14.098 169.625 14.7393 169.625 15.45C169.625 16.1607 169.79 16.8063 170.119 17.387C170.457 17.959 170.916 18.4097 171.497 18.739C172.086 19.0597 172.741 19.22 173.46 19.22ZM181.765 20.065C181.211 20.065 180.678 19.987 180.166 19.831C179.664 19.6663 179.269 19.4627 178.983 19.22L179.399 18.492C179.685 18.7173 180.045 18.9037 180.478 19.051C180.912 19.1897 181.362 19.259 181.83 19.259C182.454 19.259 182.914 19.1637 183.208 18.973C183.512 18.7737 183.663 18.4963 183.663 18.141C183.663 17.8897 183.581 17.6947 183.416 17.556C183.252 17.4087 183.044 17.3003 182.792 17.231C182.541 17.153 182.207 17.0793 181.791 17.01C181.237 16.906 180.79 16.802 180.452 16.698C180.114 16.5853 179.824 16.399 179.581 16.139C179.347 15.879 179.23 15.5193 179.23 15.06C179.23 14.488 179.469 14.02 179.945 13.656C180.422 13.292 181.085 13.11 181.934 13.11C182.376 13.11 182.818 13.1707 183.26 13.292C183.702 13.4047 184.066 13.5563 184.352 13.747L183.949 14.488C183.386 14.098 182.714 13.903 181.934 13.903C181.345 13.903 180.899 14.007 180.595 14.215C180.301 14.423 180.153 14.696 180.153 15.034C180.153 15.294 180.236 15.502 180.4 15.658C180.574 15.814 180.786 15.931 181.037 16.009C181.289 16.0783 181.635 16.152 182.077 16.23C182.623 16.334 183.061 16.438 183.39 16.542C183.72 16.646 184.001 16.8237 184.235 17.075C184.469 17.3263 184.586 17.673 184.586 18.115C184.586 18.713 184.335 19.1897 183.832 19.545C183.338 19.8917 182.649 20.065 181.765 20.065ZM186.033 13.162H186.956V20H186.033V13.162ZM186.501 11.667C186.31 11.667 186.15 11.602 186.02 11.472C185.89 11.342 185.825 11.186 185.825 11.004C185.825 10.8307 185.89 10.679 186.02 10.549C186.15 10.419 186.31 10.354 186.501 10.354C186.691 10.354 186.852 10.419 186.982 10.549C187.112 10.6703 187.177 10.8177 187.177 10.991C187.177 11.1817 187.112 11.342 186.982 11.472C186.852 11.602 186.691 11.667 186.501 11.667ZM195.218 16.867H189.498C189.55 17.5777 189.823 18.154 190.317 18.596C190.811 19.0293 191.435 19.246 192.189 19.246C192.614 19.246 193.004 19.1723 193.359 19.025C193.714 18.869 194.022 18.6437 194.282 18.349L194.802 18.947C194.499 19.311 194.117 19.5883 193.658 19.779C193.207 19.9697 192.709 20.065 192.163 20.065C191.461 20.065 190.837 19.9177 190.291 19.623C189.754 19.3197 189.333 18.9037 189.03 18.375C188.727 17.8463 188.575 17.2483 188.575 16.581C188.575 15.9137 188.718 15.3157 189.004 14.787C189.299 14.2583 189.697 13.8467 190.2 13.552C190.711 13.2573 191.283 13.11 191.916 13.11C192.549 13.11 193.116 13.2573 193.619 13.552C194.122 13.8467 194.516 14.2583 194.802 14.787C195.088 15.307 195.231 15.905 195.231 16.581L195.218 16.867ZM191.916 13.903C191.257 13.903 190.703 14.1153 190.252 14.54C189.81 14.956 189.559 15.502 189.498 16.178H194.347C194.286 15.502 194.031 14.956 193.58 14.54C193.138 14.1153 192.583 13.903 191.916 13.903ZM203.515 13.11C204.156 13.11 204.737 13.2573 205.257 13.552C205.777 13.838 206.184 14.2453 206.479 14.774C206.774 15.3027 206.921 15.905 206.921 16.581C206.921 17.257 206.774 17.8593 206.479 18.388C206.184 18.9167 205.777 19.3283 205.257 19.623C204.737 19.9177 204.156 20.065 203.515 20.065C202.943 20.065 202.427 19.9437 201.968 19.701C201.517 19.4583 201.153 19.1073 200.876 18.648V20H199.992V10.354H200.915V14.462C201.201 14.02 201.565 13.6863 202.007 13.461C202.458 13.227 202.96 13.11 203.515 13.11ZM203.45 19.246C203.927 19.246 204.36 19.1377 204.75 18.921C205.14 18.6957 205.443 18.3793 205.66 17.972C205.885 17.5647 205.998 17.101 205.998 16.581C205.998 16.061 205.885 15.5973 205.66 15.19C205.443 14.7827 205.14 14.4707 204.75 14.254C204.36 14.0287 203.927 13.916 203.45 13.916C202.965 13.916 202.527 14.0287 202.137 14.254C201.756 14.4707 201.452 14.7827 201.227 15.19C201.01 15.5973 200.902 16.061 200.902 16.581C200.902 17.101 201.01 17.5647 201.227 17.972C201.452 18.3793 201.756 18.6957 202.137 18.921C202.527 19.1377 202.965 19.246 203.45 19.246ZM210.896 13.11C211.789 13.11 212.474 13.3353 212.95 13.786C213.427 14.228 213.665 14.8867 213.665 15.762V20H212.781V18.934C212.573 19.2893 212.266 19.5667 211.858 19.766C211.46 19.9653 210.983 20.065 210.428 20.065C209.666 20.065 209.059 19.883 208.608 19.519C208.158 19.155 207.932 18.674 207.932 18.076C207.932 17.4953 208.14 17.0273 208.556 16.672C208.981 16.3167 209.653 16.139 210.571 16.139H212.742V15.723C212.742 15.1337 212.578 14.6873 212.248 14.384C211.919 14.072 211.438 13.916 210.805 13.916C210.372 13.916 209.956 13.9897 209.557 14.137C209.159 14.2757 208.816 14.4707 208.53 14.722L208.114 14.033C208.461 13.7383 208.877 13.513 209.362 13.357C209.848 13.1923 210.359 13.11 210.896 13.11ZM210.571 19.337C211.091 19.337 211.538 19.22 211.91 18.986C212.283 18.7433 212.56 18.3967 212.742 17.946V16.828H210.597C209.427 16.828 208.842 17.2353 208.842 18.05C208.842 18.4487 208.994 18.765 209.297 18.999C209.601 19.2243 210.025 19.337 210.571 19.337ZM215.912 10.354H216.835V20H215.912V10.354ZM219.144 13.162H220.067V20H219.144V13.162ZM219.612 11.667C219.421 11.667 219.261 11.602 219.131 11.472C219.001 11.342 218.936 11.186 218.936 11.004C218.936 10.8307 219.001 10.679 219.131 10.549C219.261 10.419 219.421 10.354 219.612 10.354C219.802 10.354 219.963 10.419 220.093 10.549C220.223 10.6703 220.288 10.8177 220.288 10.991C220.288 11.1817 220.223 11.342 220.093 11.472C219.963 11.602 219.802 11.667 219.612 11.667Z" fill="#00229A"/>
</svg>
