<svg width="328" height="328" viewBox="0 0 328 328" fill="none" xmlns="http://www.w3.org/2000/svg">
<g clip-path="url(#clip0_268_603)">
<path d="M215.229 235.799V228.972V227.973H206.793C206.015 228.005 205.238 227.88 204.509 227.604C203.781 227.329 203.115 226.909 202.553 226.37C201.991 225.83 201.544 225.183 201.238 224.467C200.933 223.75 200.775 222.979 200.775 222.2C200.775 221.421 200.933 220.651 201.238 219.934C201.544 219.218 201.991 218.57 202.553 218.031C203.115 217.492 203.781 217.072 204.509 216.796C205.238 216.521 206.015 216.396 206.793 216.428H215.229V215.429V145.981V145.481H191.91C191.417 145.481 190.927 145.417 190.45 145.291V145.241V144.312L189.631 143.892C188.883 143.481 188.259 142.876 187.824 142.141C187.389 141.406 187.16 140.568 187.16 139.714C187.16 138.86 187.389 138.022 187.824 137.287C188.259 136.552 188.883 135.947 189.631 135.536L190.49 135.126V134.127C190.967 134.001 191.457 133.938 191.95 133.937H215.229V107.439H61.7708V258.758H19.6206V269.883H19.6706V276.77H257.329V269.883V258.758H215.229V235.799ZM20.6701 273.361L24.1785 269.853H26.2975L20.6701 275.48V273.361ZM29.8458 269.853H31.9848L26.0976 275.74H23.9886L29.8458 269.853ZM35.5131 269.853H37.6322L31.7449 275.74H29.6259L35.5131 269.853ZM41.1805 269.853H43.2995L37.4123 275.74H35.2933L41.1805 269.853ZM46.8478 269.853H48.9768L43.0896 275.74H40.9806L46.8478 269.853ZM52.5152 269.853H54.6342L48.7469 275.74H46.6179L52.5152 269.853ZM58.1825 269.853H60.3015L54.4043 275.74H52.2853L58.1825 269.853ZM63.8498 269.853H65.9689L60.0716 275.74H57.9726L63.8498 269.853ZM69.5172 269.853H71.6362L65.739 275.74H63.62L69.5172 269.853ZM75.1845 269.853H77.3035L71.4063 275.74H69.2873L75.1845 269.853ZM80.8519 269.853H82.9609L77.0636 275.74H74.9646L80.8519 269.853ZM86.5192 269.853H88.6382L82.741 275.74H80.622L86.5192 269.853ZM92.1766 269.853H94.3056L88.4083 275.74H86.2893L92.1766 269.853ZM97.8439 269.853H99.9529L94.0657 275.74H91.9567L97.8439 269.853ZM103.511 269.853H105.63L99.743 275.74H97.624L103.511 269.853ZM109.179 269.853H111.298L105.41 275.74H103.291L109.179 269.853ZM114.846 269.853H116.945L111.058 275.74H108.949L114.846 269.853ZM120.513 269.853H122.632L116.745 275.74H114.626L120.513 269.853ZM126.181 269.853H128.3L122.412 275.74H120.283L126.181 269.853ZM131.848 269.853H133.937L128.05 275.74H125.941L131.848 269.853ZM137.515 269.853H139.634L133.737 275.74H131.618L137.515 269.853ZM143.183 269.853H145.302L139.404 275.74H137.285L143.183 269.853ZM148.85 269.853H150.929L145.032 275.74H142.933L148.85 269.853ZM154.517 269.853H156.636L150.739 275.74H148.62L154.517 269.853ZM160.185 269.853H162.304L156.406 275.74H154.287L160.185 269.853ZM165.852 269.853H167.971L162.074 275.74H159.925L165.852 269.853ZM171.509 269.853H173.638L167.741 275.74H165.622L171.509 269.853ZM177.177 269.853H179.306L173.408 275.74H171.289L177.177 269.853ZM182.844 269.853H184.963L179.076 275.74H176.917L182.844 269.853ZM188.511 269.853H190.63L184.743 275.74H182.624L188.511 269.853ZM194.179 269.853H196.298L190.41 275.74H188.291L194.179 269.853ZM199.846 269.853H201.965L196.078 275.74H193.959L199.846 269.853ZM205.513 269.853H207.632L201.745 275.74H199.616L205.513 269.853ZM211.181 269.853H213.3L207.412 275.74H205.283L211.181 269.853ZM216.848 269.853H218.967L213.07 275.74H210.951L216.848 269.853ZM222.515 269.853H224.634L218.737 275.74H216.618L222.515 269.853ZM228.183 269.853H230.302L224.404 275.74H222.285L228.183 269.853ZM233.85 269.853H235.969L230.072 275.74H227.953L233.85 269.853ZM239.517 269.853H241.636L235.739 275.74H233.62L239.517 269.853ZM245.185 269.853H247.304L241.407 275.74H239.288L245.185 269.853ZM250.842 269.853H252.971L247.074 275.74H244.955L250.842 269.853ZM256.33 270.033V272.162L252.741 275.74H250.622L256.33 270.033ZM93.5859 110.438V114.436H94.5854V110.438H98.6635V257.859H89.5078V110.438H93.5859ZM143.053 110.438V139.214H141.693C141.579 138.444 141.192 137.739 140.602 137.23C140.012 136.721 139.259 136.441 138.48 136.441C137.701 136.441 136.947 136.721 136.358 137.23C135.768 137.739 135.38 138.444 135.266 139.214H133.937V110.438H143.053ZM182.414 110.438V114.436H183.414V110.438H187.492V133.427C186.213 134.325 185.231 135.585 184.673 137.045C184.16 136.67 183.549 136.455 182.914 136.426C182.47 136.401 182.026 136.467 181.609 136.62C181.191 136.773 180.81 137.009 180.487 137.315C180.164 137.62 179.907 137.988 179.731 138.397C179.555 138.805 179.465 139.245 179.465 139.689C179.465 140.134 179.555 140.573 179.731 140.982C179.907 141.39 180.164 141.758 180.487 142.063C180.81 142.369 181.191 142.605 181.609 142.758C182.026 142.911 182.47 142.977 182.914 142.953C183.539 142.95 184.15 142.766 184.673 142.423C185.234 143.884 186.215 145.146 187.492 146.051V257.859H178.336V110.438H182.414ZM135.266 140.214C135.38 140.985 135.768 141.689 136.358 142.198C136.947 142.707 137.701 142.987 138.48 142.987C139.259 142.987 140.012 142.707 140.602 142.198C141.192 141.689 141.579 140.985 141.693 140.214H143.053V228.033H141.693C141.579 227.262 141.192 226.558 140.602 226.049C140.012 225.54 139.259 225.26 138.48 225.26C137.701 225.26 136.947 225.54 136.358 226.049C135.768 226.558 135.38 227.262 135.266 228.033H133.937V140.214H135.266ZM136.216 139.714C136.214 139.264 136.346 138.824 136.594 138.45C136.843 138.075 137.197 137.783 137.612 137.61C138.027 137.437 138.484 137.391 138.925 137.478C139.366 137.565 139.771 137.782 140.089 138.1C140.407 138.418 140.623 138.823 140.711 139.264C140.798 139.705 140.752 140.162 140.579 140.577C140.406 140.992 140.114 141.346 139.739 141.595C139.364 141.843 138.924 141.975 138.475 141.973C137.877 141.97 137.303 141.732 136.88 141.308C136.457 140.885 136.219 140.312 136.216 139.714V139.714ZM135.266 229.032C135.38 229.803 135.768 230.507 136.358 231.016C136.947 231.525 137.701 231.805 138.48 231.805C139.259 231.805 140.012 231.525 140.602 231.016C141.192 230.507 141.579 229.803 141.693 229.032H143.053V257.859H133.937V229.032H135.266ZM136.216 228.532C136.216 228.083 136.349 227.644 136.599 227.271C136.849 226.897 137.204 226.607 137.619 226.435C138.034 226.264 138.491 226.219 138.931 226.308C139.372 226.396 139.776 226.613 140.093 226.932C140.41 227.25 140.625 227.655 140.711 228.096C140.798 228.537 140.751 228.993 140.578 229.408C140.405 229.822 140.113 230.176 139.738 230.424C139.364 230.672 138.924 230.803 138.475 230.801C138.177 230.801 137.883 230.743 137.608 230.628C137.333 230.514 137.084 230.347 136.874 230.136C136.664 229.925 136.498 229.675 136.385 229.4C136.272 229.125 136.215 228.83 136.216 228.532V228.532ZM146.051 235.799H175.338V257.859H146.051V235.799ZM146.051 232.8V229.032H148.05V228.033H146.051V210.741H175.338V232.8H146.051ZM146.051 207.742V185.692H175.338V207.742H146.051ZM130.938 185.692V207.742H101.662V185.692H130.938ZM130.938 210.741V228.033H128.939V229.032H130.938V232.8H101.662V210.741H130.938ZM130.938 235.799V257.859H101.662V235.799H130.938ZM175.378 182.554H146.091V160.504H175.378V182.554ZM130.938 182.554H101.662V160.504H130.938V182.554ZM180.685 139.714C180.683 139.263 180.816 138.822 181.065 138.447C181.315 138.071 181.671 137.779 182.088 137.607C182.505 137.435 182.964 137.391 183.405 137.481C183.847 137.571 184.252 137.79 184.569 138.111C184.886 138.432 185.1 138.84 185.183 139.283C185.267 139.726 185.217 140.184 185.039 140.598C184.862 141.013 184.565 141.365 184.186 141.61C183.808 141.854 183.365 141.981 182.914 141.973C182.314 141.973 181.738 141.735 181.313 141.312C180.888 140.889 180.648 140.314 180.645 139.714H180.685ZM175.378 157.506H146.091V140.214H148.09V139.214H146.091V135.426H175.378V157.506ZM130.938 139.214H128.939V140.214H130.938V157.506H101.662V135.426H130.938V139.214ZM212.27 257.859H190.49V235.799H212.23L212.27 257.859ZM212.27 215.429H206.873C205.962 215.394 205.053 215.543 204.201 215.867C203.348 216.192 202.571 216.685 201.913 217.317C201.256 217.95 200.734 218.708 200.377 219.547C200.02 220.386 199.836 221.289 199.836 222.2C199.836 223.112 200.02 224.015 200.377 224.854C200.734 225.693 201.256 226.451 201.913 227.083C202.571 227.716 203.348 228.209 204.201 228.533C205.053 228.858 205.962 229.007 206.873 228.972H212.27V232.8H190.49V210.741H212.23L212.27 215.429ZM190.53 207.742V185.692H212.27V207.742H190.53ZM212.27 182.554H190.49V160.504H212.23L212.27 182.554ZM191.91 146.481H212.19V157.476H190.49V146.321C190.957 146.423 191.432 146.476 191.91 146.481V146.481ZM212.23 110.438V132.937H191.91C191.419 132.939 190.93 132.993 190.45 133.097V110.438H212.23ZM175.338 110.438V132.427H146.051V110.438H175.338ZM130.938 110.438V132.427H101.662V110.438H130.938ZM64.7694 110.438H86.5092V132.427H64.7694V110.438ZM64.7694 135.426H86.5092V157.506H64.7694V135.426ZM86.5092 160.504V182.554H64.7694V160.504H86.5092ZM64.7694 185.692H86.5092V207.742H64.7694V185.692ZM64.7694 210.741H86.5092V232.8H64.7694V210.741ZM86.5092 235.799V257.859H64.7694V235.799H86.5092Z" fill="#00229A"/>
<path d="M89.5078 257.858H98.6635V110.438H94.5854V114.436H93.5859V110.438H89.5078V257.858ZM94.0857 225.274C94.7329 225.272 95.3663 225.462 95.9053 225.82C96.4443 226.179 96.8648 226.689 97.1134 227.287C97.362 227.884 97.4276 228.542 97.3018 229.177C97.176 229.812 96.8645 230.395 96.4068 230.853C95.9491 231.311 95.3658 231.622 94.7308 231.748C94.0959 231.874 93.4379 231.808 92.8402 231.56C92.2426 231.311 91.7322 230.891 91.3739 230.352C91.0155 229.813 90.8252 229.179 90.8272 228.532C90.8272 227.668 91.1705 226.839 91.7816 226.228C92.3927 225.617 93.2215 225.274 94.0857 225.274ZM93.5859 219.166V212.789H94.5854V219.166H93.5859ZM94.5854 161.823V168.19H93.5859V161.823H94.5854ZM93.5859 206.422V200.055H94.5854V206.392L93.5859 206.422ZM97.3441 184.193C97.3414 184.968 97.0621 185.718 96.5564 186.306C96.0508 186.894 95.3519 187.282 94.5854 187.401V193.678H93.5859V187.401C92.7726 187.29 92.0314 186.876 91.5115 186.24C90.9915 185.605 90.7314 184.797 90.7833 183.977C90.8352 183.158 91.1954 182.389 91.7913 181.824C92.3873 181.26 93.1749 180.942 93.9957 180.934H93.5859V174.567H94.5854V180.934H94.1756C95.0241 180.958 95.83 181.311 96.4218 181.92C97.0135 182.529 97.3445 183.344 97.3441 184.193V184.193ZM94.0857 142.972C93.4384 142.974 92.8051 142.784 92.266 142.426C91.727 142.067 91.3065 141.557 91.0579 140.959C90.8093 140.362 90.7437 139.704 90.8695 139.069C90.9953 138.434 91.3068 137.85 91.7645 137.393C92.2222 136.935 92.8055 136.623 93.4405 136.498C94.0754 136.372 94.7334 136.437 95.3311 136.686C95.9287 136.935 96.4391 137.355 96.7975 137.894C97.1558 138.433 97.3461 139.066 97.3441 139.714C97.3415 140.577 96.9973 141.404 96.3868 142.015C95.7763 142.625 94.949 142.97 94.0857 142.972V142.972ZM94.5854 149.079V155.416H93.5859V149.079H94.5854ZM93.5859 120.033H94.5854V125.61H93.5859V120.033ZM94.5854 131.188V134.186H93.5859V131.188H94.5854Z" fill="#D9DEEE"/>
<path d="M178.336 257.858H187.492V146.071C186.212 145.16 185.231 143.891 184.673 142.422C184.151 142.766 183.54 142.95 182.914 142.952C182.471 142.977 182.026 142.911 181.609 142.758C181.192 142.605 180.81 142.368 180.487 142.063C180.164 141.757 179.907 141.389 179.732 140.981C179.556 140.573 179.465 140.133 179.465 139.689C179.465 139.244 179.556 138.805 179.732 138.396C179.907 137.988 180.164 137.62 180.487 137.315C180.81 137.009 181.192 136.773 181.609 136.62C182.026 136.467 182.471 136.401 182.914 136.425C183.54 136.428 184.151 136.612 184.673 136.955C185.232 135.495 186.213 134.235 187.492 133.337V110.438H183.414V114.436H182.415V110.438H178.336V257.858ZM182.914 225.274C183.561 225.274 184.193 225.466 184.731 225.825C185.269 226.185 185.688 226.696 185.935 227.294C186.182 227.891 186.246 228.549 186.119 229.183C185.992 229.818 185.68 230.4 185.222 230.857C184.764 231.313 184.18 231.624 183.546 231.749C182.911 231.874 182.254 231.808 181.657 231.559C181.059 231.31 180.55 230.889 180.192 230.351C179.834 229.812 179.644 229.179 179.646 228.532C179.646 228.103 179.73 227.679 179.895 227.283C180.059 226.887 180.3 226.527 180.604 226.224C180.907 225.922 181.268 225.682 181.664 225.519C182.061 225.356 182.486 225.272 182.914 225.274V225.274ZM182.415 219.166V212.789H183.414V219.166H182.415ZM183.414 161.823V168.19H182.415V161.823H183.414ZM182.415 206.422V200.055H183.414V206.392L182.415 206.422ZM186.173 184.193C186.17 184.968 185.891 185.718 185.385 186.306C184.879 186.894 184.18 187.282 183.414 187.401V193.678H182.415V187.401C181.601 187.29 180.86 186.876 180.34 186.24C179.82 185.605 179.56 184.797 179.612 183.977C179.664 183.158 180.024 182.389 180.62 181.824C181.216 181.26 182.003 180.942 182.824 180.934H182.415V174.567H183.414V180.934H182.994C183.844 180.958 184.651 181.311 185.244 181.919C185.837 182.528 186.17 183.343 186.173 184.193V184.193ZM182.415 149.079H183.414V155.416H182.415V149.079ZM182.415 120.033H183.414V125.61H182.415V120.033ZM183.414 131.188V134.186H182.415V131.188H183.414Z" fill="#D9DEEE"/>
<path d="M133.937 228.033H135.307C135.421 227.262 135.808 226.558 136.398 226.049C136.988 225.54 137.741 225.26 138.52 225.26C139.299 225.26 140.052 225.54 140.642 226.049C141.232 226.558 141.62 227.262 141.734 228.033H143.093V140.214H141.734C141.62 140.985 141.232 141.689 140.642 142.198C140.052 142.707 139.299 142.987 138.52 142.987C137.741 142.987 136.988 142.707 136.398 142.198C135.808 141.689 135.421 140.985 135.307 140.214H133.937V228.033ZM141.784 184.193C141.784 184.84 141.592 185.472 141.233 186.009C140.874 186.547 140.363 186.966 139.766 187.213C139.169 187.46 138.511 187.525 137.877 187.399C137.243 187.273 136.661 186.961 136.204 186.504C135.747 186.047 135.436 185.465 135.309 184.831C135.183 184.197 135.248 183.54 135.495 182.942C135.743 182.345 136.162 181.835 136.699 181.476C137.237 181.116 137.869 180.925 138.515 180.925C139.375 180.935 140.196 181.284 140.8 181.896C141.405 182.508 141.744 183.333 141.744 184.193H141.784Z" fill="#D9DEEE"/>
<path d="M133.937 257.859H143.093V229.032H141.734C141.62 229.803 141.232 230.507 140.642 231.016C140.052 231.525 139.299 231.805 138.52 231.805C137.741 231.805 136.988 231.525 136.398 231.016C135.808 230.507 135.421 229.803 135.307 229.032H133.937V257.859Z" fill="#D9DEEE"/>
<path d="M133.937 139.214H135.307C135.421 138.443 135.808 137.739 136.398 137.23C136.988 136.721 137.741 136.441 138.52 136.441C139.299 136.441 140.052 136.721 140.642 137.23C141.232 137.739 141.62 138.443 141.734 139.214H143.093V110.438H133.937V139.214Z" fill="#D9DEEE"/>
<path d="M109.828 228.032H103.451V229.032H109.828V228.032Z" fill="#00229A"/>
<path d="M160.794 228.032H154.427V229.032H160.794V228.032Z" fill="#00229A"/>
<path d="M173.539 228.032H167.172V229.032H173.539V228.032Z" fill="#00229A"/>
<path d="M122.572 228.032H116.195V229.032H122.572V228.032Z" fill="#00229A"/>
<path d="M94.5855 149.08H93.5859V155.447H94.5855V149.08Z" fill="#00229A"/>
<path d="M94.5855 161.823H93.5859V168.19H94.5855V161.823Z" fill="#00229A"/>
<path d="M94.5855 200.055H93.5859V206.422H94.5855V200.055Z" fill="#00229A"/>
<path d="M94.5855 212.79H93.5859V219.157H94.5855V212.79Z" fill="#00229A"/>
<path d="M160.805 139.214H154.428V140.214H160.805V139.214Z" fill="#00229A"/>
<path d="M109.818 139.214H103.451V140.214H109.818V139.214Z" fill="#00229A"/>
<path d="M173.549 139.214H167.172V140.214H173.549V139.214Z" fill="#00229A"/>
<path d="M122.562 139.214H116.195V140.214H122.562V139.214Z" fill="#00229A"/>
<path d="M183.414 149.08H182.414V155.447H183.414V149.08Z" fill="#00229A"/>
<path d="M183.414 212.79H182.414V219.157H183.414V212.79Z" fill="#00229A"/>
<path d="M183.414 200.055H182.414V206.422H183.414V200.055Z" fill="#00229A"/>
<path d="M183.414 161.823H182.414V168.19H183.414V161.823Z" fill="#00229A"/>
<path d="M93.5861 90.6668V92.1561H94.5856V90.6668H182.414V92.1561H183.414V90.6668H230.762L276.63 108.618L277 107.689L231.042 89.6973H230.972V84.8196H229.972V89.6973L183.414 89.6873V86.5887H182.414V89.6873L94.5856 89.6773V86.5887H93.5861V89.6773L47.6376 89.6673V85.2194H46.6381V89.6673H46.0484L0 107.689L0.359831 108.618L46.2383 90.6668H93.5861Z" fill="#00229A"/>
<path d="M94.5855 131.188H93.5859V134.187H94.5855V131.188Z" fill="#00229A"/>
<path d="M94.5855 97.7336H93.5859V103.311H94.5855V97.7336Z" fill="#00229A"/>
<path d="M94.5855 75.4343H93.5859V81.0117H94.5855V75.4343Z" fill="#00229A"/>
<path d="M94.5855 120.033H93.5859V125.611H94.5855V120.033Z" fill="#00229A"/>
<path d="M94.5855 66.8582H93.5859V69.8567H94.5855V66.8582Z" fill="#00229A"/>
<path d="M183.414 131.188H182.414V134.187H183.414V131.188Z" fill="#00229A"/>
<path d="M183.414 75.4343H182.414V81.0117H183.414V75.4343Z" fill="#00229A"/>
<path d="M183.414 97.7336H182.414V103.311H183.414V97.7336Z" fill="#00229A"/>
<path d="M183.414 120.033H182.414V125.611H183.414V120.033Z" fill="#00229A"/>
<path d="M183.414 66.8582H182.414V69.8567H183.414V66.8582Z" fill="#00229A"/>
<path d="M47.6377 105.7H46.6382V108.699H47.6377V105.7Z" fill="#00229A"/>
<path d="M47.6377 95.4648H46.6382V100.582H47.6377V95.4648Z" fill="#00229A"/>
<path d="M47.6377 74.9844H46.6382V80.102H47.6377V74.9844Z" fill="#00229A"/>
<path d="M47.6377 66.8582H46.6382V69.8567H47.6377V66.8582Z" fill="#00229A"/>
<path d="M230.972 105.3H229.972V108.299H230.972V105.3Z" fill="#00229A"/>
<path d="M230.972 95.0549H229.972V100.173H230.972V95.0549Z" fill="#00229A"/>
<path d="M230.972 74.5745H229.972V79.6921H230.972V74.5745Z" fill="#00229A"/>
<path d="M230.972 66.4585H229.972V69.4571H230.972V66.4585Z" fill="#00229A"/>
<path d="M48.8269 73.365H50.2662L49.0668 72.1655H92.1466L90.9571 73.365H92.3965L94.0857 71.6658L92.3965 69.9766H90.9571L92.1466 71.166H49.0668L50.2662 69.9766H48.8269L47.1377 71.6658L48.8269 73.365Z" fill="#00229A"/>
<path d="M186.652 73.365L185.453 72.1655H228.533L227.333 73.365H228.773L230.472 71.6658L228.773 69.9766H227.333L228.533 71.166H185.453L186.652 69.9766H185.213L183.514 71.6658L185.213 73.365H186.652Z" fill="#00229A"/>
<path d="M96.3448 139.714C96.3448 139.267 96.2123 138.83 95.9641 138.459C95.7159 138.087 95.3631 137.798 94.9503 137.627C94.5375 137.456 94.0833 137.411 93.6451 137.498C93.207 137.585 92.8045 137.801 92.4885 138.116C92.1726 138.432 91.9575 138.835 91.8703 139.273C91.7831 139.711 91.8279 140.165 91.9989 140.578C92.1698 140.991 92.4594 141.344 92.8308 141.592C93.2023 141.84 93.6391 141.973 94.0858 141.973C94.6841 141.97 95.2572 141.731 95.6803 141.308C96.1033 140.885 96.3422 140.312 96.3448 139.714V139.714Z" fill="white"/>
<path d="M97.3443 139.714C97.3443 139.07 97.1532 138.44 96.7952 137.904C96.4371 137.368 95.9282 136.95 95.3328 136.704C94.7374 136.457 94.0822 136.392 93.4502 136.518C92.8181 136.644 92.2375 136.954 91.7818 137.41C91.3261 137.866 91.0157 138.446 90.89 139.078C90.7643 139.71 90.8288 140.366 91.0754 140.961C91.3221 141.556 91.7397 142.065 92.2756 142.423C92.8114 142.781 93.4414 142.973 94.0859 142.973C94.9493 142.97 95.7765 142.626 96.387 142.015C96.9975 141.405 97.3417 140.577 97.3443 139.714V139.714ZM94.0859 141.973C93.6363 141.975 93.1962 141.843 92.8216 141.595C92.4469 141.346 92.1545 140.992 91.9816 140.577C91.8086 140.162 91.7628 139.705 91.8501 139.264C91.9373 138.823 92.1536 138.418 92.4715 138.1C92.7894 137.782 93.1946 137.565 93.6357 137.478C94.0767 137.391 94.5338 137.437 94.9488 137.61C95.3638 137.783 95.718 138.075 95.9666 138.45C96.2151 138.824 96.3468 139.264 96.3448 139.714C96.3448 140.011 96.2864 140.304 96.1728 140.578C96.0593 140.853 95.8929 141.102 95.6832 141.311C95.4734 141.521 95.2244 141.688 94.9503 141.801C94.6763 141.915 94.3825 141.973 94.0859 141.973V141.973Z" fill="#00229A"/>
<path d="M138.475 141.973C139.722 141.973 140.734 140.961 140.734 139.714C140.734 138.466 139.722 137.455 138.475 137.455C137.227 137.455 136.216 138.466 136.216 139.714C136.216 140.961 137.227 141.973 138.475 141.973Z" fill="white"/>
<path d="M185.173 139.714C185.175 139.264 185.043 138.824 184.795 138.449C184.546 138.075 184.192 137.782 183.777 137.609C183.362 137.436 182.905 137.391 182.464 137.478C182.023 137.565 181.618 137.781 181.3 138.099C180.982 138.417 180.766 138.822 180.678 139.264C180.591 139.705 180.637 140.162 180.81 140.577C180.983 140.992 181.275 141.346 181.65 141.594C182.025 141.843 182.465 141.975 182.914 141.973C183.512 141.97 184.086 141.731 184.509 141.308C184.932 140.885 185.17 140.312 185.173 139.714V139.714Z" fill="white"/>
<path d="M91.8269 184.193C91.8289 184.639 91.9631 185.075 92.2125 185.445C92.4619 185.815 92.8154 186.103 93.2283 186.273C93.6412 186.442 94.0951 186.486 94.5327 186.397C94.9702 186.309 95.3718 186.093 95.6867 185.777C96.0016 185.46 96.2157 185.058 96.3021 184.62C96.3885 184.182 96.3431 183.728 96.1719 183.316C96.0006 182.904 95.7111 182.552 95.3398 182.304C94.9686 182.056 94.5322 181.924 94.0859 181.924C93.7884 181.924 93.4938 181.983 93.2191 182.097C92.9444 182.211 92.6949 182.378 92.485 182.589C92.2751 182.8 92.1089 183.05 91.996 183.325C91.8831 183.601 91.8256 183.896 91.8269 184.193V184.193Z" fill="white"/>
<path d="M94.1759 180.934H94.5857V174.567H93.5861V180.934H93.956C93.1351 180.942 92.3475 181.26 91.7516 181.824C91.1556 182.389 90.7955 183.158 90.7436 183.977C90.6917 184.797 90.9518 185.605 91.4717 186.24C91.9917 186.875 92.7328 187.29 93.5462 187.401V193.678H94.5457V187.401C95.359 187.29 96.1002 186.875 96.6201 186.24C97.14 185.605 97.4002 184.797 97.3483 183.977C97.2964 183.158 96.9362 182.389 96.3403 181.824C95.7443 181.26 94.9567 180.942 94.1359 180.934H94.1759ZM96.3449 184.193C96.3429 184.639 96.2087 185.075 95.9593 185.445C95.7099 185.815 95.3564 186.103 94.9435 186.273C94.5305 186.442 94.0767 186.485 93.6391 186.397C93.2016 186.309 92.8 186.093 92.4851 185.777C92.1702 185.46 91.956 185.058 91.8697 184.62C91.7833 184.182 91.8286 183.728 91.9999 183.316C92.1712 182.904 92.4607 182.552 92.832 182.304C93.2032 182.056 93.6396 181.924 94.0859 181.924C94.3834 181.924 94.678 181.983 94.9527 182.097C95.2274 182.211 95.4769 182.378 95.6868 182.589C95.8967 182.8 96.0628 183.05 96.1758 183.325C96.2887 183.601 96.3462 183.895 96.3449 184.193V184.193Z" fill="#00229A"/>
<path d="M138.475 186.452C139.722 186.452 140.734 185.441 140.734 184.193C140.734 182.945 139.722 181.934 138.475 181.934C137.227 181.934 136.216 182.945 136.216 184.193C136.216 185.441 137.227 186.452 138.475 186.452Z" fill="white"/>
<path d="M138.475 180.925C137.829 180.925 137.197 181.116 136.659 181.475C136.122 181.835 135.703 182.345 135.455 182.942C135.208 183.539 135.143 184.197 135.269 184.831C135.395 185.465 135.707 186.047 136.164 186.504C136.621 186.961 137.203 187.273 137.837 187.399C138.471 187.525 139.129 187.46 139.726 187.213C140.323 186.965 140.834 186.546 141.193 186.009C141.552 185.471 141.743 184.839 141.743 184.193C141.743 183.326 141.399 182.495 140.786 181.882C140.173 181.269 139.342 180.925 138.475 180.925V180.925ZM140.744 184.193C140.744 184.642 140.611 185.08 140.362 185.454C140.112 185.827 139.758 186.118 139.343 186.289C138.929 186.461 138.472 186.506 138.032 186.418C137.592 186.331 137.188 186.115 136.871 185.797C136.553 185.48 136.337 185.076 136.25 184.636C136.162 184.196 136.207 183.739 136.379 183.325C136.551 182.91 136.841 182.556 137.214 182.306C137.588 182.057 138.026 181.924 138.475 181.924C138.773 181.924 139.068 181.983 139.343 182.097C139.619 182.211 139.869 182.378 140.079 182.589C140.29 182.799 140.457 183.049 140.571 183.325C140.685 183.6 140.744 183.895 140.744 184.193Z" fill="#00229A"/>
<path d="M180.645 184.193C180.645 184.642 180.778 185.08 181.028 185.454C181.277 185.827 181.631 186.118 182.046 186.289C182.461 186.461 182.917 186.506 183.357 186.418C183.797 186.331 184.201 186.115 184.519 185.797C184.836 185.48 185.052 185.076 185.14 184.636C185.227 184.196 185.182 183.739 185.01 183.325C184.839 182.91 184.548 182.556 184.175 182.306C183.802 182.057 183.363 181.924 182.914 181.924C182.312 181.924 181.735 182.163 181.31 182.589C180.884 183.014 180.645 183.591 180.645 184.193V184.193Z" fill="white"/>
<path d="M182.994 180.934H183.414V174.567H182.414V180.934H182.824C182.003 180.942 181.216 181.26 180.62 181.824C180.024 182.389 179.664 183.158 179.612 183.977C179.56 184.797 179.82 185.605 180.34 186.24C180.86 186.875 181.601 187.29 182.414 187.401V193.678H183.414V187.401C184.228 187.29 184.97 186.874 185.489 186.238C186.009 185.602 186.269 184.792 186.216 183.972C186.162 183.152 185.8 182.383 185.203 181.819C184.605 181.256 183.816 180.939 182.994 180.934ZM185.173 184.193C185.173 184.642 185.04 185.081 184.79 185.454C184.54 185.828 184.185 186.119 183.77 186.29C183.355 186.461 182.898 186.506 182.458 186.417C182.017 186.329 181.613 186.112 181.296 185.794C180.979 185.475 180.764 185.07 180.678 184.629C180.591 184.189 180.637 183.732 180.811 183.318C180.984 182.903 181.276 182.55 181.651 182.301C182.025 182.053 182.465 181.922 182.914 181.924C183.212 181.924 183.506 181.983 183.781 182.097C184.056 182.211 184.305 182.378 184.515 182.589C184.725 182.8 184.891 183.05 185.004 183.325C185.117 183.601 185.174 183.895 185.173 184.193V184.193Z" fill="#00229A"/>
<path d="M94.0858 230.801C94.535 230.803 94.9747 230.672 95.3491 230.424C95.7235 230.175 96.0159 229.822 96.1892 229.407C96.3624 228.993 96.4088 228.536 96.3224 228.096C96.236 227.655 96.0207 227.25 95.7038 226.931C95.3868 226.613 94.9826 226.396 94.5422 226.308C94.1018 226.219 93.6451 226.263 93.2299 226.435C92.8147 226.606 92.4598 226.897 92.21 227.271C91.9602 227.644 91.8269 228.083 91.8269 228.532C91.8269 229.132 92.0646 229.708 92.4879 230.133C92.9113 230.558 93.4858 230.798 94.0858 230.801V230.801Z" fill="white"/>
<path d="M90.8274 228.532C90.8274 229.176 91.0185 229.806 91.3765 230.342C91.7346 230.878 92.2435 231.296 92.8389 231.542C93.4343 231.789 94.0895 231.854 94.7216 231.728C95.3536 231.602 95.9342 231.292 96.3899 230.836C96.8456 230.38 97.156 229.8 97.2817 229.168C97.4075 228.536 97.3429 227.88 97.0963 227.285C96.8497 226.69 96.432 226.181 95.8962 225.823C95.3603 225.465 94.7303 225.273 94.0859 225.273C93.2225 225.276 92.3952 225.62 91.7847 226.231C91.1742 226.841 90.83 227.669 90.8274 228.532V228.532ZM94.0859 226.273C94.5355 226.271 94.9755 226.403 95.3502 226.651C95.7248 226.9 96.0172 227.254 96.1901 227.669C96.3631 228.084 96.4089 228.541 96.3217 228.982C96.2344 229.423 96.0181 229.828 95.7002 230.146C95.3823 230.464 94.9771 230.68 94.536 230.768C94.095 230.855 93.6379 230.809 93.2229 230.636C92.8079 230.463 92.4537 230.171 92.2051 229.796C91.9566 229.422 91.8249 228.982 91.8269 228.532C91.8269 227.933 92.0649 227.358 92.4885 226.935C92.9122 226.511 93.4867 226.273 94.0859 226.273V226.273Z" fill="#00229A"/>
<path d="M138.475 230.791C139.722 230.791 140.734 229.78 140.734 228.532C140.734 227.285 139.722 226.273 138.475 226.273C137.227 226.273 136.216 227.285 136.216 228.532C136.216 229.78 137.227 230.791 138.475 230.791Z" fill="white"/>
<path d="M180.645 228.532C180.643 228.982 180.775 229.421 181.023 229.796C181.271 230.17 181.625 230.462 182.039 230.636C182.453 230.809 182.91 230.855 183.351 230.769C183.791 230.683 184.197 230.467 184.515 230.15C184.833 229.833 185.05 229.429 185.139 228.989C185.227 228.548 185.183 228.092 185.011 227.676C184.84 227.261 184.549 226.906 184.176 226.657C183.802 226.407 183.363 226.273 182.914 226.273C182.314 226.273 181.739 226.511 181.313 226.934C180.888 227.358 180.648 227.932 180.645 228.532V228.532Z" fill="white"/>
<path d="M179.646 228.532C179.644 229.179 179.834 229.812 180.192 230.35C180.55 230.889 181.059 231.31 181.657 231.559C182.254 231.808 182.911 231.874 183.546 231.749C184.18 231.624 184.764 231.313 185.222 230.857C185.68 230.4 185.992 229.818 186.119 229.183C186.246 228.549 186.182 227.891 185.935 227.293C185.688 226.696 185.269 226.185 184.731 225.825C184.193 225.465 183.561 225.273 182.914 225.273C182.05 225.276 181.222 225.62 180.61 226.23C179.997 226.84 179.651 227.668 179.646 228.532V228.532ZM182.914 226.273C183.363 226.273 183.802 226.406 184.176 226.656C184.549 226.906 184.84 227.261 185.011 227.676C185.183 228.091 185.227 228.548 185.139 228.988C185.05 229.429 184.833 229.833 184.515 230.15C184.197 230.467 183.792 230.682 183.351 230.768C182.91 230.855 182.453 230.809 182.039 230.635C181.625 230.462 181.271 230.17 181.023 229.795C180.775 229.421 180.643 228.981 180.645 228.532C180.645 228.234 180.704 227.94 180.818 227.665C180.932 227.39 181.1 227.141 181.31 226.931C181.521 226.721 181.771 226.555 182.047 226.442C182.322 226.329 182.617 226.272 182.914 226.273V226.273Z" fill="#00229A"/>
<path d="M206.613 220.506H205.174L203.484 222.206L205.174 223.895H206.613L205.423 222.705H231V221.706H205.423L206.613 220.506Z" fill="#00229A"/>
<path d="M231 139.204H191.415L192.604 138.015H191.165L189.476 139.704L191.165 141.403H192.604L191.415 140.204H231V139.204Z" fill="#00229A"/>
<path d="M54.3302 61.631C55.6475 61.631 56.6052 61.8693 57.2032 62.346C57.8099 62.814 58.1132 63.4727 58.1132 64.322C58.1132 64.8507 57.9875 65.323 57.7362 65.739C57.4935 66.155 57.1252 66.4843 56.6312 66.727C56.1372 66.961 55.5305 67.078 54.8112 67.078C54.1612 67.078 53.5415 66.974 52.9522 66.766C52.3715 66.5493 51.9035 66.2633 51.5482 65.908L52.0032 65.167C52.3065 65.479 52.7052 65.7347 53.1992 65.934C53.6932 66.1247 54.2262 66.22 54.7982 66.22C55.5522 66.22 56.1329 66.051 56.5402 65.713C56.9562 65.375 57.1642 64.9243 57.1642 64.361C57.1642 63.737 56.9302 63.2647 56.4622 62.944C56.0029 62.6233 55.2229 62.463 54.1222 62.463H52.1852L52.6532 57.9H57.6322V58.732H53.4722L53.1602 61.631H54.3302ZM62.6685 67.078C61.9665 67.078 61.3381 66.8917 60.7835 66.519C60.2375 66.1463 59.8085 65.6133 59.4965 64.92C59.1931 64.218 59.0415 63.3947 59.0415 62.45C59.0415 61.5053 59.1931 60.6863 59.4965 59.993C59.8085 59.291 60.2375 58.7537 60.7835 58.381C61.3381 58.0083 61.9665 57.822 62.6685 57.822C63.3705 57.822 63.9945 58.0083 64.5405 58.381C65.0951 58.7537 65.5285 59.291 65.8405 59.993C66.1525 60.6863 66.3085 61.5053 66.3085 62.45C66.3085 63.3947 66.1525 64.218 65.8405 64.92C65.5285 65.6133 65.0951 66.1463 64.5405 66.519C63.9945 66.8917 63.3705 67.078 62.6685 67.078ZM62.6685 66.22C63.1971 66.22 63.6608 66.0727 64.0595 65.778C64.4668 65.4833 64.7831 65.0543 65.0085 64.491C65.2338 63.9277 65.3465 63.2473 65.3465 62.45C65.3465 61.6527 65.2338 60.9723 65.0085 60.409C64.7831 59.8457 64.4668 59.4167 64.0595 59.122C63.6608 58.8273 63.1971 58.68 62.6685 58.68C62.1398 58.68 61.6718 58.8273 61.2645 59.122C60.8658 59.4167 60.5538 59.8457 60.3285 60.409C60.1031 60.9723 59.9905 61.6527 59.9905 62.45C59.9905 63.2473 60.1031 63.9277 60.3285 64.491C60.5538 65.0543 60.8658 65.4833 61.2645 65.778C61.6718 66.0727 62.1398 66.22 62.6685 66.22ZM73.9762 67.065C73.3002 67.065 72.6936 66.9177 72.1562 66.623C71.6276 66.3283 71.2116 65.9167 70.9082 65.388C70.6049 64.8507 70.4532 64.2483 70.4532 63.581C70.4532 62.9137 70.6049 62.3157 70.9082 61.787C71.2116 61.2583 71.6276 60.8467 72.1562 60.552C72.6936 60.2573 73.3002 60.11 73.9762 60.11C74.5656 60.11 75.0899 60.227 75.5492 60.461C76.0172 60.6863 76.3856 61.02 76.6542 61.462L75.9652 61.93C75.7399 61.592 75.4539 61.3407 75.1072 61.176C74.7606 61.0027 74.3836 60.916 73.9762 60.916C73.4822 60.916 73.0359 61.0287 72.6372 61.254C72.2472 61.4707 71.9396 61.7827 71.7142 62.19C71.4976 62.5973 71.3892 63.061 71.3892 63.581C71.3892 64.1097 71.4976 64.5777 71.7142 64.985C71.9396 65.3837 72.2472 65.6957 72.6372 65.921C73.0359 66.1377 73.4822 66.246 73.9762 66.246C74.3836 66.246 74.7606 66.1637 75.1072 65.999C75.4539 65.8343 75.7399 65.583 75.9652 65.245L76.6542 65.713C76.3856 66.155 76.0172 66.493 75.5492 66.727C75.0812 66.9523 74.5569 67.065 73.9762 67.065ZM86.7354 60.11C87.5934 60.11 88.2651 60.357 88.7504 60.851C89.2444 61.345 89.4914 62.073 89.4914 63.035V67H88.5684V63.126C88.5684 62.4153 88.3951 61.8737 88.0484 61.501C87.7104 61.1283 87.2294 60.942 86.6054 60.942C85.8948 60.942 85.3358 61.163 84.9284 61.605C84.5211 62.0383 84.3174 62.6407 84.3174 63.412V67H83.3944V63.126C83.3944 62.4153 83.2211 61.8737 82.8744 61.501C82.5364 61.1283 82.0511 60.942 81.4184 60.942C80.7164 60.942 80.1574 61.163 79.7414 61.605C79.3341 62.0383 79.1304 62.6407 79.1304 63.412V67H78.2074V60.162H79.0914V61.41C79.3341 60.994 79.6721 60.6733 80.1054 60.448C80.5388 60.2227 81.0371 60.11 81.6004 60.11C82.1724 60.11 82.6664 60.2313 83.0824 60.474C83.5071 60.7167 83.8234 61.0763 84.0314 61.553C84.2828 61.1023 84.6424 60.7513 85.1104 60.5C85.5871 60.24 86.1288 60.11 86.7354 60.11Z" fill="#00229A"/>
<path d="M190.748 61.631C192.065 61.631 193.023 61.8693 193.621 62.346C194.227 62.814 194.531 63.4727 194.531 64.322C194.531 64.8507 194.405 65.323 194.154 65.739C193.911 66.155 193.543 66.4843 193.049 66.727C192.555 66.961 191.948 67.078 191.229 67.078C190.579 67.078 189.959 66.974 189.37 66.766C188.789 66.5493 188.321 66.2633 187.966 65.908L188.421 65.167C188.724 65.479 189.123 65.7347 189.617 65.934C190.111 66.1247 190.644 66.22 191.216 66.22C191.97 66.22 192.55 66.051 192.958 65.713C193.374 65.375 193.582 64.9243 193.582 64.361C193.582 63.737 193.348 63.2647 192.88 62.944C192.42 62.6233 191.64 62.463 190.54 62.463H188.603L189.071 57.9H194.05V58.732H189.89L189.578 61.631H190.748ZM199.086 67.078C198.384 67.078 197.756 66.8917 197.201 66.519C196.655 66.1463 196.226 65.6133 195.914 64.92C195.611 64.218 195.459 63.3947 195.459 62.45C195.459 61.5053 195.611 60.6863 195.914 59.993C196.226 59.291 196.655 58.7537 197.201 58.381C197.756 58.0083 198.384 57.822 199.086 57.822C199.788 57.822 200.412 58.0083 200.958 58.381C201.513 58.7537 201.946 59.291 202.258 59.993C202.57 60.6863 202.726 61.5053 202.726 62.45C202.726 63.3947 202.57 64.218 202.258 64.92C201.946 65.6133 201.513 66.1463 200.958 66.519C200.412 66.8917 199.788 67.078 199.086 67.078ZM199.086 66.22C199.615 66.22 200.078 66.0727 200.477 65.778C200.884 65.4833 201.201 65.0543 201.426 64.491C201.651 63.9277 201.764 63.2473 201.764 62.45C201.764 61.6527 201.651 60.9723 201.426 60.409C201.201 59.8457 200.884 59.4167 200.477 59.122C200.078 58.8273 199.615 58.68 199.086 58.68C198.557 58.68 198.089 58.8273 197.682 59.122C197.283 59.4167 196.971 59.8457 196.746 60.409C196.521 60.9723 196.408 61.6527 196.408 62.45C196.408 63.2473 196.521 63.9277 196.746 64.491C196.971 65.0543 197.283 65.4833 197.682 65.778C198.089 66.0727 198.557 66.22 199.086 66.22ZM210.394 67.065C209.718 67.065 209.111 66.9177 208.574 66.623C208.045 66.3283 207.629 65.9167 207.326 65.388C207.022 64.8507 206.871 64.2483 206.871 63.581C206.871 62.9137 207.022 62.3157 207.326 61.787C207.629 61.2583 208.045 60.8467 208.574 60.552C209.111 60.2573 209.718 60.11 210.394 60.11C210.983 60.11 211.507 60.227 211.967 60.461C212.435 60.6863 212.803 61.02 213.072 61.462L212.383 61.93C212.157 61.592 211.871 61.3407 211.525 61.176C211.178 61.0027 210.801 60.916 210.394 60.916C209.9 60.916 209.453 61.0287 209.055 61.254C208.665 61.4707 208.357 61.7827 208.132 62.19C207.915 62.5973 207.807 63.061 207.807 63.581C207.807 64.1097 207.915 64.5777 208.132 64.985C208.357 65.3837 208.665 65.6957 209.055 65.921C209.453 66.1377 209.9 66.246 210.394 66.246C210.801 66.246 211.178 66.1637 211.525 65.999C211.871 65.8343 212.157 65.583 212.383 65.245L213.072 65.713C212.803 66.155 212.435 66.493 211.967 66.727C211.499 66.9523 210.974 67.065 210.394 67.065ZM223.153 60.11C224.011 60.11 224.683 60.357 225.168 60.851C225.662 61.345 225.909 62.073 225.909 63.035V67H224.986V63.126C224.986 62.4153 224.813 61.8737 224.466 61.501C224.128 61.1283 223.647 60.942 223.023 60.942C222.312 60.942 221.753 61.163 221.346 61.605C220.939 62.0383 220.735 62.6407 220.735 63.412V67H219.812V63.126C219.812 62.4153 219.639 61.8737 219.292 61.501C218.954 61.1283 218.469 60.942 217.836 60.942C217.134 60.942 216.575 61.163 216.159 61.605C215.752 62.0383 215.548 62.6407 215.548 63.412V67H214.625V60.162H215.509V61.41C215.752 60.994 216.09 60.6733 216.523 60.448C216.956 60.2227 217.455 60.11 218.018 60.11C218.59 60.11 219.084 60.2313 219.5 60.474C219.925 60.7167 220.241 61.0763 220.449 61.553C220.7 61.1023 221.06 60.7513 221.528 60.5C222.005 60.24 222.546 60.11 223.153 60.11Z" fill="#00229A"/>
<path d="M235.991 128.078C235.315 128.078 234.665 127.97 234.041 127.753C233.426 127.536 232.949 127.25 232.611 126.895L232.988 126.154C233.317 126.483 233.755 126.752 234.301 126.96C234.847 127.159 235.41 127.259 235.991 127.259C236.806 127.259 237.417 127.112 237.824 126.817C238.231 126.514 238.435 126.124 238.435 125.647C238.435 125.283 238.322 124.993 238.097 124.776C237.88 124.559 237.612 124.395 237.291 124.282C236.97 124.161 236.524 124.031 235.952 123.892C235.267 123.719 234.721 123.554 234.314 123.398C233.907 123.233 233.556 122.986 233.261 122.657C232.975 122.328 232.832 121.881 232.832 121.318C232.832 120.859 232.953 120.443 233.196 120.07C233.439 119.689 233.811 119.385 234.314 119.16C234.817 118.935 235.441 118.822 236.186 118.822C236.706 118.822 237.213 118.896 237.707 119.043C238.21 119.182 238.643 119.377 239.007 119.628L238.682 120.395C238.301 120.144 237.893 119.957 237.46 119.836C237.027 119.706 236.602 119.641 236.186 119.641C235.389 119.641 234.786 119.797 234.379 120.109C233.98 120.412 233.781 120.807 233.781 121.292C233.781 121.656 233.889 121.951 234.106 122.176C234.331 122.393 234.609 122.562 234.938 122.683C235.276 122.796 235.727 122.921 236.29 123.06C236.957 123.225 237.495 123.389 237.902 123.554C238.318 123.71 238.669 123.953 238.955 124.282C239.241 124.603 239.384 125.04 239.384 125.595C239.384 126.054 239.258 126.475 239.007 126.856C238.764 127.229 238.387 127.528 237.876 127.753C237.365 127.97 236.736 128.078 235.991 128.078ZM237.109 116.547H238.344L236.238 118.159H235.328L237.109 116.547ZM243.859 128.065C243.183 128.065 242.576 127.918 242.039 127.623C241.51 127.328 241.094 126.917 240.791 126.388C240.488 125.851 240.336 125.248 240.336 124.581C240.336 123.914 240.488 123.316 240.791 122.787C241.094 122.258 241.51 121.847 242.039 121.552C242.576 121.257 243.183 121.11 243.859 121.11C244.448 121.11 244.973 121.227 245.432 121.461C245.9 121.686 246.268 122.02 246.537 122.462L245.848 122.93C245.623 122.592 245.337 122.341 244.99 122.176C244.643 122.003 244.266 121.916 243.859 121.916C243.365 121.916 242.919 122.029 242.52 122.254C242.13 122.471 241.822 122.783 241.597 123.19C241.38 123.597 241.272 124.061 241.272 124.581C241.272 125.11 241.38 125.578 241.597 125.985C241.822 126.384 242.13 126.696 242.52 126.921C242.919 127.138 243.365 127.246 243.859 127.246C244.266 127.246 244.643 127.164 244.99 126.999C245.337 126.834 245.623 126.583 245.848 126.245L246.537 126.713C246.268 127.155 245.9 127.493 245.432 127.727C244.964 127.952 244.44 128.065 243.859 128.065ZM248.09 121.162H249.013V128H248.09V121.162ZM248.558 119.667C248.368 119.667 248.207 119.602 248.077 119.472C247.947 119.342 247.882 119.186 247.882 119.004C247.882 118.831 247.947 118.679 248.077 118.549C248.207 118.419 248.368 118.354 248.558 118.354C248.749 118.354 248.909 118.419 249.039 118.549C249.169 118.67 249.234 118.818 249.234 118.991C249.234 119.182 249.169 119.342 249.039 119.472C248.909 119.602 248.749 119.667 248.558 119.667ZM253.154 128.065C252.6 128.065 252.067 127.987 251.555 127.831C251.053 127.666 250.658 127.463 250.372 127.22L250.788 126.492C251.074 126.717 251.434 126.904 251.867 127.051C252.301 127.19 252.751 127.259 253.219 127.259C253.843 127.259 254.303 127.164 254.597 126.973C254.901 126.774 255.052 126.496 255.052 126.141C255.052 125.89 254.97 125.695 254.805 125.556C254.641 125.409 254.433 125.3 254.181 125.231C253.93 125.153 253.596 125.079 253.18 125.01C252.626 124.906 252.179 124.802 251.841 124.698C251.503 124.585 251.213 124.399 250.97 124.139C250.736 123.879 250.619 123.519 250.619 123.06C250.619 122.488 250.858 122.02 251.334 121.656C251.811 121.292 252.474 121.11 253.323 121.11C253.765 121.11 254.207 121.171 254.649 121.292C255.091 121.405 255.455 121.556 255.741 121.747L255.338 122.488C254.775 122.098 254.103 121.903 253.323 121.903C252.734 121.903 252.288 122.007 251.984 122.215C251.69 122.423 251.542 122.696 251.542 123.034C251.542 123.294 251.625 123.502 251.789 123.658C251.963 123.814 252.175 123.931 252.426 124.009C252.678 124.078 253.024 124.152 253.466 124.23C254.012 124.334 254.45 124.438 254.779 124.542C255.109 124.646 255.39 124.824 255.624 125.075C255.858 125.326 255.975 125.673 255.975 126.115C255.975 126.713 255.724 127.19 255.221 127.545C254.727 127.892 254.038 128.065 253.154 128.065ZM260.906 121.11C261.764 121.11 262.444 121.361 262.947 121.864C263.458 122.358 263.714 123.082 263.714 124.035V128H262.791V124.126C262.791 123.415 262.613 122.874 262.258 122.501C261.902 122.128 261.395 121.942 260.737 121.942C260 121.942 259.415 122.163 258.982 122.605C258.557 123.038 258.345 123.641 258.345 124.412V128H257.422V121.162H258.306V122.423C258.557 122.007 258.904 121.686 259.346 121.461C259.796 121.227 260.316 121.11 260.906 121.11ZM268.352 121.11C269.244 121.11 269.929 121.335 270.406 121.786C270.882 122.228 271.121 122.887 271.121 123.762V128H270.237V126.934C270.029 127.289 269.721 127.567 269.314 127.766C268.915 127.965 268.438 128.065 267.884 128.065C267.121 128.065 266.514 127.883 266.064 127.519C265.613 127.155 265.388 126.674 265.388 126.076C265.388 125.495 265.596 125.027 266.012 124.672C266.436 124.317 267.108 124.139 268.027 124.139H270.198V123.723C270.198 123.134 270.033 122.687 269.704 122.384C269.374 122.072 268.893 121.916 268.261 121.916C267.827 121.916 267.411 121.99 267.013 122.137C266.614 122.276 266.272 122.471 265.986 122.722L265.57 122.033C265.916 121.738 266.332 121.513 266.818 121.357C267.303 121.192 267.814 121.11 268.352 121.11ZM268.027 127.337C268.547 127.337 268.993 127.22 269.366 126.986C269.738 126.743 270.016 126.397 270.198 125.946V124.828H268.053C266.883 124.828 266.298 125.235 266.298 126.05C266.298 126.449 266.449 126.765 266.753 126.999C267.056 127.224 267.481 127.337 268.027 127.337ZM270.289 130.86C269.855 130.86 269.509 130.747 269.249 130.522C268.989 130.297 268.859 129.998 268.859 129.625C268.859 128.819 269.47 128.16 270.692 127.649L271.121 128C270.063 128.468 269.535 128.988 269.535 129.56C269.535 129.794 269.613 129.972 269.769 130.093C269.925 130.223 270.128 130.288 270.38 130.288C270.718 130.288 270.986 130.206 271.186 130.041L271.394 130.548C271.082 130.756 270.713 130.86 270.289 130.86ZM276.227 128.065C275.551 128.065 274.944 127.918 274.407 127.623C273.878 127.328 273.462 126.917 273.159 126.388C272.856 125.851 272.704 125.248 272.704 124.581C272.704 123.914 272.856 123.316 273.159 122.787C273.462 122.258 273.878 121.847 274.407 121.552C274.944 121.257 275.551 121.11 276.227 121.11C276.816 121.11 277.341 121.227 277.8 121.461C278.268 121.686 278.636 122.02 278.905 122.462L278.216 122.93C277.991 122.592 277.705 122.341 277.358 122.176C277.011 122.003 276.634 121.916 276.227 121.916C275.733 121.916 275.287 122.029 274.888 122.254C274.498 122.471 274.19 122.783 273.965 123.19C273.748 123.597 273.64 124.061 273.64 124.581C273.64 125.11 273.748 125.578 273.965 125.985C274.19 126.384 274.498 126.696 274.888 126.921C275.287 127.138 275.733 127.246 276.227 127.246C276.634 127.246 277.011 127.164 277.358 126.999C277.705 126.834 277.991 126.583 278.216 126.245L278.905 126.713C278.636 127.155 278.268 127.493 277.8 127.727C277.332 127.952 276.808 128.065 276.227 128.065ZM276.929 118.484H278.164L276.058 120.096H275.148L276.929 118.484ZM286.396 128.065C285.737 128.065 285.143 127.918 284.615 127.623C284.086 127.32 283.67 126.904 283.367 126.375C283.063 125.846 282.912 125.248 282.912 124.581C282.912 123.914 283.063 123.316 283.367 122.787C283.67 122.258 284.086 121.847 284.615 121.552C285.143 121.257 285.737 121.11 286.396 121.11C287.054 121.11 287.648 121.257 288.177 121.552C288.705 121.847 289.117 122.258 289.412 122.787C289.715 123.316 289.867 123.914 289.867 124.581C289.867 125.248 289.715 125.846 289.412 126.375C289.117 126.904 288.705 127.32 288.177 127.623C287.648 127.918 287.054 128.065 286.396 128.065ZM286.396 127.246C286.881 127.246 287.314 127.138 287.696 126.921C288.086 126.696 288.389 126.379 288.606 125.972C288.822 125.565 288.931 125.101 288.931 124.581C288.931 124.061 288.822 123.597 288.606 123.19C288.389 122.783 288.086 122.471 287.696 122.254C287.314 122.029 286.881 121.916 286.396 121.916C285.91 121.916 285.473 122.029 285.083 122.254C284.701 122.471 284.398 122.783 284.173 123.19C283.956 123.597 283.848 124.061 283.848 124.581C283.848 125.101 283.956 125.565 284.173 125.972C284.398 126.379 284.701 126.696 285.083 126.921C285.473 127.138 285.91 127.246 286.396 127.246ZM294.026 124.568L292.414 126.05V128H291.491V118.354H292.414V124.893L296.496 121.162H297.64L294.715 123.957L297.913 128H296.782L294.026 124.568ZM302.421 121.11C303.279 121.11 303.959 121.361 304.462 121.864C304.973 122.358 305.229 123.082 305.229 124.035V128H304.306V124.126C304.306 123.415 304.128 122.874 303.773 122.501C303.418 122.128 302.911 121.942 302.252 121.942C301.515 121.942 300.93 122.163 300.497 122.605C300.072 123.038 299.86 123.641 299.86 124.412V128H298.937V121.162H299.821V122.423C300.072 122.007 300.419 121.686 300.861 121.461C301.312 121.227 301.832 121.11 302.421 121.11ZM310.295 128.065C309.637 128.065 309.043 127.918 308.514 127.623C307.986 127.32 307.57 126.904 307.266 126.375C306.963 125.846 306.811 125.248 306.811 124.581C306.811 123.914 306.963 123.316 307.266 122.787C307.57 122.258 307.986 121.847 308.514 121.552C309.043 121.257 309.637 121.11 310.295 121.11C310.954 121.11 311.548 121.257 312.076 121.552C312.605 121.847 313.017 122.258 313.311 122.787C313.615 123.316 313.766 123.914 313.766 124.581C313.766 125.248 313.615 125.846 313.311 126.375C313.017 126.904 312.605 127.32 312.076 127.623C311.548 127.918 310.954 128.065 310.295 128.065ZM310.295 127.246C310.781 127.246 311.214 127.138 311.595 126.921C311.985 126.696 312.289 126.379 312.505 125.972C312.722 125.565 312.83 125.101 312.83 124.581C312.83 124.061 312.722 123.597 312.505 123.19C312.289 122.783 311.985 122.471 311.595 122.254C311.214 122.029 310.781 121.916 310.295 121.916C309.81 121.916 309.372 122.029 308.982 122.254C308.601 122.471 308.298 122.783 308.072 123.19C307.856 123.597 307.747 124.061 307.747 124.581C307.747 125.101 307.856 125.565 308.072 125.972C308.298 126.379 308.601 126.696 308.982 126.921C309.372 127.138 309.81 127.246 310.295 127.246ZM323.356 127.233V128H317.792V127.389L322.095 121.942H317.87V121.162H323.278V121.773L318.975 127.233H323.356ZM239.527 133.354V143H238.643V141.648C238.366 142.107 237.997 142.458 237.538 142.701C237.087 142.944 236.576 143.065 236.004 143.065C235.363 143.065 234.782 142.918 234.262 142.623C233.742 142.328 233.335 141.917 233.04 141.388C232.745 140.859 232.598 140.257 232.598 139.581C232.598 138.905 232.745 138.303 233.04 137.774C233.335 137.245 233.742 136.838 234.262 136.552C234.782 136.257 235.363 136.11 236.004 136.11C236.559 136.11 237.057 136.227 237.499 136.461C237.95 136.686 238.318 137.02 238.604 137.462V133.354H239.527ZM236.082 142.246C236.559 142.246 236.988 142.138 237.369 141.921C237.759 141.696 238.062 141.379 238.279 140.972C238.504 140.565 238.617 140.101 238.617 139.581C238.617 139.061 238.504 138.597 238.279 138.19C238.062 137.783 237.759 137.471 237.369 137.254C236.988 137.029 236.559 136.916 236.082 136.916C235.597 136.916 235.159 137.029 234.769 137.254C234.388 137.471 234.084 137.783 233.859 138.19C233.642 138.597 233.534 139.061 233.534 139.581C233.534 140.101 233.642 140.565 233.859 140.972C234.084 141.379 234.388 141.696 234.769 141.921C235.159 142.138 235.597 142.246 236.082 142.246ZM251.874 136.162L249.287 143H248.416L246.258 137.397L244.1 143H243.229L240.655 136.162H241.539L243.684 141.973L245.881 136.162H246.674L248.858 141.973L251.029 136.162H251.874ZM255.608 143.065C254.949 143.065 254.356 142.918 253.827 142.623C253.298 142.32 252.882 141.904 252.579 141.375C252.276 140.846 252.124 140.248 252.124 139.581C252.124 138.914 252.276 138.316 252.579 137.787C252.882 137.258 253.298 136.847 253.827 136.552C254.356 136.257 254.949 136.11 255.608 136.11C256.267 136.11 256.86 136.257 257.389 136.552C257.918 136.847 258.329 137.258 258.624 137.787C258.927 138.316 259.079 138.914 259.079 139.581C259.079 140.248 258.927 140.846 258.624 141.375C258.329 141.904 257.918 142.32 257.389 142.623C256.86 142.918 256.267 143.065 255.608 143.065ZM255.608 142.246C256.093 142.246 256.527 142.138 256.908 141.921C257.298 141.696 257.601 141.379 257.818 140.972C258.035 140.565 258.143 140.101 258.143 139.581C258.143 139.061 258.035 138.597 257.818 138.19C257.601 137.783 257.298 137.471 256.908 137.254C256.527 137.029 256.093 136.916 255.608 136.916C255.123 136.916 254.685 137.029 254.295 137.254C253.914 137.471 253.61 137.783 253.385 138.19C253.168 138.597 253.06 139.061 253.06 139.581C253.06 140.101 253.168 140.565 253.385 140.972C253.61 141.379 253.914 141.696 254.295 141.921C254.685 142.138 255.123 142.246 255.608 142.246ZM256.531 133.484H257.766L255.66 135.096H254.75L256.531 133.484ZM263.537 143.065C262.861 143.065 262.255 142.918 261.717 142.623C261.189 142.328 260.773 141.917 260.469 141.388C260.166 140.851 260.014 140.248 260.014 139.581C260.014 138.914 260.166 138.316 260.469 137.787C260.773 137.258 261.189 136.847 261.717 136.552C262.255 136.257 262.861 136.11 263.537 136.11C264.127 136.11 264.651 136.227 265.11 136.461C265.578 136.686 265.947 137.02 266.215 137.462L265.526 137.93C265.301 137.592 265.015 137.341 264.668 137.176C264.322 137.003 263.945 136.916 263.537 136.916C263.043 136.916 262.597 137.029 262.198 137.254C261.808 137.471 261.501 137.783 261.275 138.19C261.059 138.597 260.95 139.061 260.95 139.581C260.95 140.11 261.059 140.578 261.275 140.985C261.501 141.384 261.808 141.696 262.198 141.921C262.597 142.138 263.043 142.246 263.537 142.246C263.945 142.246 264.322 142.164 264.668 141.999C265.015 141.834 265.301 141.583 265.526 141.245L266.215 141.713C265.947 142.155 265.578 142.493 265.11 142.727C264.642 142.952 264.118 143.065 263.537 143.065ZM271.151 136.11C272.009 136.11 272.689 136.361 273.192 136.864C273.703 137.358 273.959 138.082 273.959 139.035V143H273.036V139.126C273.036 138.415 272.858 137.874 272.503 137.501C272.148 137.128 271.641 136.942 270.982 136.942C270.245 136.942 269.66 137.163 269.227 137.605C268.802 138.038 268.59 138.641 268.59 139.412V143H267.667V133.354H268.59V137.358C268.841 136.959 269.188 136.652 269.63 136.435C270.072 136.218 270.579 136.11 271.151 136.11ZM281.18 143.065C280.625 143.065 280.092 142.987 279.581 142.831C279.078 142.666 278.684 142.463 278.398 142.22L278.814 141.492C279.1 141.717 279.46 141.904 279.893 142.051C280.326 142.19 280.777 142.259 281.245 142.259C281.869 142.259 282.328 142.164 282.623 141.973C282.926 141.774 283.078 141.496 283.078 141.141C283.078 140.89 282.996 140.695 282.831 140.556C282.666 140.409 282.458 140.3 282.207 140.231C281.956 140.153 281.622 140.079 281.206 140.01C280.651 139.906 280.205 139.802 279.867 139.698C279.529 139.585 279.239 139.399 278.996 139.139C278.762 138.879 278.645 138.519 278.645 138.06C278.645 137.488 278.883 137.02 279.36 136.656C279.837 136.292 280.5 136.11 281.349 136.11C281.791 136.11 282.233 136.171 282.675 136.292C283.117 136.405 283.481 136.556 283.767 136.747L283.364 137.488C282.801 137.098 282.129 136.903 281.349 136.903C280.76 136.903 280.313 137.007 280.01 137.215C279.715 137.423 279.568 137.696 279.568 138.034C279.568 138.294 279.65 138.502 279.815 138.658C279.988 138.814 280.201 138.931 280.452 139.009C280.703 139.078 281.05 139.152 281.492 139.23C282.038 139.334 282.476 139.438 282.805 139.542C283.134 139.646 283.416 139.824 283.65 140.075C283.884 140.326 284.001 140.673 284.001 141.115C284.001 141.713 283.75 142.19 283.247 142.545C282.753 142.892 282.064 143.065 281.18 143.065ZM289.048 142.584C288.875 142.74 288.658 142.861 288.398 142.948C288.147 143.026 287.883 143.065 287.605 143.065C286.964 143.065 286.47 142.892 286.123 142.545C285.777 142.198 285.603 141.709 285.603 141.076V136.942H284.381V136.162H285.603V134.667H286.526V136.162H288.606V136.942H286.526V141.024C286.526 141.431 286.626 141.743 286.825 141.96C287.033 142.168 287.328 142.272 287.709 142.272C287.9 142.272 288.082 142.242 288.255 142.181C288.437 142.12 288.593 142.034 288.723 141.921L289.048 142.584ZM291.353 137.501C291.569 137.042 291.89 136.695 292.315 136.461C292.748 136.227 293.281 136.11 293.914 136.11V137.007L293.693 136.994C292.973 136.994 292.41 137.215 292.003 137.657C291.595 138.099 291.392 138.719 291.392 139.516V143H290.469V136.162H291.353V137.501ZM298.056 143.065C297.398 143.065 296.804 142.918 296.275 142.623C295.747 142.32 295.331 141.904 295.027 141.375C294.724 140.846 294.572 140.248 294.572 139.581C294.572 138.914 294.724 138.316 295.027 137.787C295.331 137.258 295.747 136.847 296.275 136.552C296.804 136.257 297.398 136.11 298.056 136.11C298.715 136.11 299.309 136.257 299.837 136.552C300.366 136.847 300.778 137.258 301.072 137.787C301.376 138.316 301.527 138.914 301.527 139.581C301.527 140.248 301.376 140.846 301.072 141.375C300.778 141.904 300.366 142.32 299.837 142.623C299.309 142.918 298.715 143.065 298.056 143.065ZM298.056 142.246C298.542 142.246 298.975 142.138 299.356 141.921C299.746 141.696 300.05 141.379 300.266 140.972C300.483 140.565 300.591 140.101 300.591 139.581C300.591 139.061 300.483 138.597 300.266 138.19C300.05 137.783 299.746 137.471 299.356 137.254C298.975 137.029 298.542 136.916 298.056 136.916C297.571 136.916 297.133 137.029 296.743 137.254C296.362 137.471 296.059 137.783 295.833 138.19C295.617 138.597 295.508 139.061 295.508 139.581C295.508 140.101 295.617 140.565 295.833 140.972C296.059 141.379 296.362 141.696 296.743 141.921C297.133 142.138 297.571 142.246 298.056 142.246ZM306.636 136.11C307.494 136.11 308.174 136.361 308.677 136.864C309.188 137.358 309.444 138.082 309.444 139.035V143H308.521V139.126C308.521 138.415 308.343 137.874 307.988 137.501C307.633 137.128 307.126 136.942 306.467 136.942C305.73 136.942 305.145 137.163 304.712 137.605C304.287 138.038 304.075 138.641 304.075 139.412V143H303.152V136.162H304.036V137.423C304.287 137.007 304.634 136.686 305.076 136.461C305.527 136.227 306.047 136.11 306.636 136.11ZM319.655 142.233V143H314.091V142.389L318.394 136.942H314.169V136.162H319.577V136.773L315.274 142.233H319.655ZM323.604 136.11C324.496 136.11 325.181 136.335 325.658 136.786C326.134 137.228 326.373 137.887 326.373 138.762V143H325.489V141.934C325.281 142.289 324.973 142.567 324.566 142.766C324.167 142.965 323.69 143.065 323.136 143.065C322.373 143.065 321.766 142.883 321.316 142.519C320.865 142.155 320.64 141.674 320.64 141.076C320.64 140.495 320.848 140.027 321.264 139.672C321.688 139.317 322.36 139.139 323.279 139.139H325.45V138.723C325.45 138.134 325.285 137.687 324.956 137.384C324.626 137.072 324.145 136.916 323.513 136.916C323.079 136.916 322.663 136.99 322.265 137.137C321.866 137.276 321.524 137.471 321.238 137.722L320.822 137.033C321.168 136.738 321.584 136.513 322.07 136.357C322.555 136.192 323.066 136.11 323.604 136.11ZM323.279 142.337C323.799 142.337 324.245 142.22 324.618 141.986C324.99 141.743 325.268 141.397 325.45 140.946V139.828H323.305C322.135 139.828 321.55 140.235 321.55 141.05C321.55 141.449 321.701 141.765 322.005 141.999C322.308 142.224 322.733 142.337 323.279 142.337ZM236.81 151.11C237.451 151.11 238.032 151.257 238.552 151.552C239.072 151.838 239.479 152.245 239.774 152.774C240.069 153.303 240.216 153.905 240.216 154.581C240.216 155.266 240.069 155.872 239.774 156.401C239.479 156.93 239.072 157.341 238.552 157.636C238.041 157.922 237.46 158.065 236.81 158.065C236.255 158.065 235.753 157.952 235.302 157.727C234.86 157.493 234.496 157.155 234.21 156.713V160.522H233.287V151.162H234.171V152.514C234.448 152.063 234.812 151.717 235.263 151.474C235.722 151.231 236.238 151.11 236.81 151.11ZM236.745 157.246C237.222 157.246 237.655 157.138 238.045 156.921C238.435 156.696 238.738 156.379 238.955 155.972C239.18 155.565 239.293 155.101 239.293 154.581C239.293 154.061 239.18 153.602 238.955 153.203C238.738 152.796 238.435 152.479 238.045 152.254C237.655 152.029 237.222 151.916 236.745 151.916C236.26 151.916 235.822 152.029 235.432 152.254C235.051 152.479 234.747 152.796 234.522 153.203C234.305 153.602 234.197 154.061 234.197 154.581C234.197 155.101 234.305 155.565 234.522 155.972C234.747 156.379 235.051 156.696 235.432 156.921C235.822 157.138 236.26 157.246 236.745 157.246ZM244.633 158.065C243.974 158.065 243.38 157.918 242.852 157.623C242.323 157.32 241.907 156.904 241.604 156.375C241.3 155.846 241.149 155.248 241.149 154.581C241.149 153.914 241.3 153.316 241.604 152.787C241.907 152.258 242.323 151.847 242.852 151.552C243.38 151.257 243.974 151.11 244.633 151.11C245.291 151.11 245.885 151.257 246.414 151.552C246.942 151.847 247.354 152.258 247.649 152.787C247.952 153.316 248.104 153.914 248.104 154.581C248.104 155.248 247.952 155.846 247.649 156.375C247.354 156.904 246.942 157.32 246.414 157.623C245.885 157.918 245.291 158.065 244.633 158.065ZM244.633 157.246C245.118 157.246 245.551 157.138 245.933 156.921C246.323 156.696 246.626 156.379 246.843 155.972C247.059 155.565 247.168 155.101 247.168 154.581C247.168 154.061 247.059 153.597 246.843 153.19C246.626 152.783 246.323 152.471 245.933 152.254C245.551 152.029 245.118 151.916 244.633 151.916C244.147 151.916 243.71 152.029 243.32 152.254C242.938 152.471 242.635 152.783 242.41 153.19C242.193 153.597 242.085 154.061 242.085 154.581C242.085 155.101 242.193 155.565 242.41 155.972C242.635 156.379 242.938 156.696 243.32 156.921C243.71 157.138 244.147 157.246 244.633 157.246ZM258.256 151.11C259.114 151.11 259.786 151.357 260.271 151.851C260.765 152.345 261.012 153.073 261.012 154.035V158H260.089V154.126C260.089 153.415 259.916 152.874 259.569 152.501C259.231 152.128 258.75 151.942 258.126 151.942C257.415 151.942 256.856 152.163 256.449 152.605C256.042 153.038 255.838 153.641 255.838 154.412V158H254.915V154.126C254.915 153.415 254.742 152.874 254.395 152.501C254.057 152.128 253.572 151.942 252.939 151.942C252.237 151.942 251.678 152.163 251.262 152.605C250.855 153.038 250.651 153.641 250.651 154.412V158H249.728V151.162H250.612V152.41C250.855 151.994 251.193 151.673 251.626 151.448C252.059 151.223 252.558 151.11 253.121 151.11C253.693 151.11 254.187 151.231 254.603 151.474C255.028 151.717 255.344 152.076 255.552 152.553C255.803 152.102 256.163 151.751 256.631 151.5C257.108 151.24 257.649 151.11 258.256 151.11ZM266.075 158.065C265.417 158.065 264.823 157.918 264.294 157.623C263.766 157.32 263.35 156.904 263.046 156.375C262.743 155.846 262.591 155.248 262.591 154.581C262.591 153.914 262.743 153.316 263.046 152.787C263.35 152.258 263.766 151.847 264.294 151.552C264.823 151.257 265.417 151.11 266.075 151.11C266.734 151.11 267.328 151.257 267.856 151.552C268.385 151.847 268.797 152.258 269.091 152.787C269.395 153.316 269.546 153.914 269.546 154.581C269.546 155.248 269.395 155.846 269.091 156.375C268.797 156.904 268.385 157.32 267.856 157.623C267.328 157.918 266.734 158.065 266.075 158.065ZM266.075 157.246C266.561 157.246 266.994 157.138 267.375 156.921C267.765 156.696 268.069 156.379 268.285 155.972C268.502 155.565 268.61 155.101 268.61 154.581C268.61 154.061 268.502 153.597 268.285 153.19C268.069 152.783 267.765 152.471 267.375 152.254C266.994 152.029 266.561 151.916 266.075 151.916C265.59 151.916 265.152 152.029 264.762 152.254C264.381 152.471 264.078 152.783 263.852 153.19C263.636 153.597 263.527 154.061 263.527 154.581C263.527 155.101 263.636 155.565 263.852 155.972C264.078 156.379 264.381 156.696 264.762 156.921C265.152 157.138 265.59 157.246 266.075 157.246ZM274.005 158.065C273.329 158.065 272.722 157.918 272.185 157.623C271.656 157.328 271.24 156.917 270.937 156.388C270.633 155.851 270.482 155.248 270.482 154.581C270.482 153.914 270.633 153.316 270.937 152.787C271.24 152.258 271.656 151.847 272.185 151.552C272.722 151.257 273.329 151.11 274.005 151.11C274.594 151.11 275.118 151.227 275.578 151.461C276.046 151.686 276.414 152.02 276.683 152.462L275.994 152.93C275.768 152.592 275.482 152.341 275.136 152.176C274.789 152.003 274.412 151.916 274.005 151.916C273.511 151.916 273.064 152.029 272.666 152.254C272.276 152.471 271.968 152.783 271.743 153.19C271.526 153.597 271.418 154.061 271.418 154.581C271.418 155.11 271.526 155.578 271.743 155.985C271.968 156.384 272.276 156.696 272.666 156.921C273.064 157.138 273.511 157.246 274.005 157.246C274.412 157.246 274.789 157.164 275.136 156.999C275.482 156.834 275.768 156.583 275.994 156.245L276.683 156.713C276.414 157.155 276.046 157.493 275.578 157.727C275.11 157.952 274.585 158.065 274.005 158.065ZM280.628 151.11C281.521 151.11 282.205 151.335 282.682 151.786C283.159 152.228 283.397 152.887 283.397 153.762V158H282.513V156.934C282.305 157.289 281.997 157.567 281.59 157.766C281.191 157.965 280.715 158.065 280.16 158.065C279.397 158.065 278.791 157.883 278.34 157.519C277.889 157.155 277.664 156.674 277.664 156.076C277.664 155.495 277.872 155.027 278.288 154.672C278.713 154.317 279.384 154.139 280.303 154.139H282.474V153.723C282.474 153.134 282.309 152.687 281.98 152.384C281.651 152.072 281.17 151.916 280.537 151.916C280.104 151.916 279.688 151.99 279.289 152.137C278.89 152.276 278.548 152.471 278.262 152.722L277.846 152.033C278.193 151.738 278.609 151.513 279.094 151.357C279.579 151.192 280.091 151.11 280.628 151.11ZM280.303 157.337C280.823 157.337 281.269 157.22 281.642 156.986C282.015 156.743 282.292 156.397 282.474 155.946V154.828H280.329C279.159 154.828 278.574 155.235 278.574 156.05C278.574 156.449 278.726 156.765 279.029 156.999C279.332 157.224 279.757 157.337 280.303 157.337ZM282.565 160.86C282.132 160.86 281.785 160.747 281.525 160.522C281.265 160.297 281.135 159.998 281.135 159.625C281.135 158.819 281.746 158.16 282.968 157.649L283.397 158C282.34 158.468 281.811 158.988 281.811 159.56C281.811 159.794 281.889 159.972 282.045 160.093C282.201 160.223 282.405 160.288 282.656 160.288C282.994 160.288 283.263 160.206 283.462 160.041L283.67 160.548C283.358 160.756 282.99 160.86 282.565 160.86ZM295.026 148.354V158H294.142V156.648C293.865 157.107 293.497 157.458 293.037 157.701C292.587 157.944 292.075 158.065 291.503 158.065C290.862 158.065 290.281 157.918 289.761 157.623C289.241 157.328 288.834 156.917 288.539 156.388C288.245 155.859 288.097 155.257 288.097 154.581C288.097 153.905 288.245 153.303 288.539 152.774C288.834 152.245 289.241 151.838 289.761 151.552C290.281 151.257 290.862 151.11 291.503 151.11C292.058 151.11 292.556 151.227 292.998 151.461C293.449 151.686 293.817 152.02 294.103 152.462V148.354H295.026ZM291.581 157.246C292.058 157.246 292.487 157.138 292.868 156.921C293.258 156.696 293.562 156.379 293.778 155.972C294.004 155.565 294.116 155.101 294.116 154.581C294.116 154.061 294.004 153.597 293.778 153.19C293.562 152.783 293.258 152.471 292.868 152.254C292.487 152.029 292.058 151.916 291.581 151.916C291.096 151.916 290.658 152.029 290.268 152.254C289.887 152.471 289.584 152.783 289.358 153.19C289.142 153.597 289.033 154.061 289.033 154.581C289.033 155.101 289.142 155.565 289.358 155.972C289.584 156.379 289.887 156.696 290.268 156.921C290.658 157.138 291.096 157.246 291.581 157.246ZM303.291 154.867H297.571C297.623 155.578 297.896 156.154 298.39 156.596C298.884 157.029 299.508 157.246 300.262 157.246C300.687 157.246 301.077 157.172 301.432 157.025C301.787 156.869 302.095 156.644 302.355 156.349L302.875 156.947C302.572 157.311 302.19 157.588 301.731 157.779C301.28 157.97 300.782 158.065 300.236 158.065C299.534 158.065 298.91 157.918 298.364 157.623C297.827 157.32 297.406 156.904 297.103 156.375C296.8 155.846 296.648 155.248 296.648 154.581C296.648 153.914 296.791 153.316 297.077 152.787C297.372 152.258 297.77 151.847 298.273 151.552C298.784 151.257 299.356 151.11 299.989 151.11C300.622 151.11 301.189 151.257 301.692 151.552C302.195 151.847 302.589 152.258 302.875 152.787C303.161 153.307 303.304 153.905 303.304 154.581L303.291 154.867ZM299.989 151.903C299.33 151.903 298.776 152.115 298.325 152.54C297.883 152.956 297.632 153.502 297.571 154.178H302.42C302.359 153.502 302.104 152.956 301.653 152.54C301.211 152.115 300.656 151.903 299.989 151.903ZM306.756 158.065C306.201 158.065 305.668 157.987 305.157 157.831C304.654 157.666 304.26 157.463 303.974 157.22L304.39 156.492C304.676 156.717 305.035 156.904 305.469 157.051C305.902 157.19 306.353 157.259 306.821 157.259C307.445 157.259 307.904 157.164 308.199 156.973C308.502 156.774 308.654 156.496 308.654 156.141C308.654 155.89 308.571 155.695 308.407 155.556C308.242 155.409 308.034 155.3 307.783 155.231C307.531 155.153 307.198 155.079 306.782 155.01C306.227 154.906 305.781 154.802 305.443 154.698C305.105 154.585 304.814 154.399 304.572 154.139C304.338 153.879 304.221 153.519 304.221 153.06C304.221 152.488 304.459 152.02 304.936 151.656C305.412 151.292 306.075 151.11 306.925 151.11C307.367 151.11 307.809 151.171 308.251 151.292C308.693 151.405 309.057 151.556 309.343 151.747L308.94 152.488C308.376 152.098 307.705 151.903 306.925 151.903C306.335 151.903 305.889 152.007 305.586 152.215C305.291 152.423 305.144 152.696 305.144 153.034C305.144 153.294 305.226 153.502 305.391 153.658C305.564 153.814 305.776 153.931 306.028 154.009C306.279 154.078 306.626 154.152 307.068 154.23C307.614 154.334 308.051 154.438 308.381 154.542C308.71 154.646 308.992 154.824 309.226 155.075C309.46 155.326 309.577 155.673 309.577 156.115C309.577 156.713 309.325 157.19 308.823 157.545C308.329 157.892 307.64 158.065 306.756 158.065ZM316.977 154.867H311.257C311.309 155.578 311.582 156.154 312.076 156.596C312.57 157.029 313.194 157.246 313.948 157.246C314.373 157.246 314.763 157.172 315.118 157.025C315.473 156.869 315.781 156.644 316.041 156.349L316.561 156.947C316.258 157.311 315.876 157.588 315.417 157.779C314.966 157.97 314.468 158.065 313.922 158.065C313.22 158.065 312.596 157.918 312.05 157.623C311.513 157.32 311.092 156.904 310.789 156.375C310.486 155.846 310.334 155.248 310.334 154.581C310.334 153.914 310.477 153.316 310.763 152.787C311.058 152.258 311.456 151.847 311.959 151.552C312.47 151.257 313.042 151.11 313.675 151.11C314.308 151.11 314.875 151.257 315.378 151.552C315.881 151.847 316.275 152.258 316.561 152.787C316.847 153.307 316.99 153.905 316.99 154.581L316.977 154.867ZM313.675 151.903C313.016 151.903 312.462 152.115 312.011 152.54C311.569 152.956 311.318 153.502 311.257 154.178H316.106C316.045 153.502 315.79 152.956 315.339 152.54C314.897 152.115 314.342 151.903 313.675 151.903ZM321.144 154.568L319.532 156.05V158H318.609V148.354H319.532V154.893L323.614 151.162H324.758L321.833 153.957L325.031 158H323.9L321.144 154.568ZM236.81 166.11C237.451 166.11 238.032 166.257 238.552 166.552C239.072 166.838 239.479 167.245 239.774 167.774C240.069 168.303 240.216 168.905 240.216 169.581C240.216 170.266 240.069 170.872 239.774 171.401C239.479 171.93 239.072 172.341 238.552 172.636C238.041 172.922 237.46 173.065 236.81 173.065C236.255 173.065 235.753 172.952 235.302 172.727C234.86 172.493 234.496 172.155 234.21 171.713V175.522H233.287V166.162H234.171V167.514C234.448 167.063 234.812 166.717 235.263 166.474C235.722 166.231 236.238 166.11 236.81 166.11ZM236.745 172.246C237.222 172.246 237.655 172.138 238.045 171.921C238.435 171.696 238.738 171.379 238.955 170.972C239.18 170.565 239.293 170.101 239.293 169.581C239.293 169.061 239.18 168.602 238.955 168.203C238.738 167.796 238.435 167.479 238.045 167.254C237.655 167.029 237.222 166.916 236.745 166.916C236.26 166.916 235.822 167.029 235.432 167.254C235.051 167.479 234.747 167.796 234.522 168.203C234.305 168.602 234.197 169.061 234.197 169.581C234.197 170.101 234.305 170.565 234.522 170.972C234.747 171.379 235.051 171.696 235.432 171.921C235.822 172.138 236.26 172.246 236.745 172.246ZM244.633 173.065C243.974 173.065 243.38 172.918 242.852 172.623C242.323 172.32 241.907 171.904 241.604 171.375C241.3 170.846 241.149 170.248 241.149 169.581C241.149 168.914 241.3 168.316 241.604 167.787C241.907 167.258 242.323 166.847 242.852 166.552C243.38 166.257 243.974 166.11 244.633 166.11C245.291 166.11 245.885 166.257 246.414 166.552C246.942 166.847 247.354 167.258 247.649 167.787C247.952 168.316 248.104 168.914 248.104 169.581C248.104 170.248 247.952 170.846 247.649 171.375C247.354 171.904 246.942 172.32 246.414 172.623C245.885 172.918 245.291 173.065 244.633 173.065ZM244.633 172.246C245.118 172.246 245.551 172.138 245.933 171.921C246.323 171.696 246.626 171.379 246.843 170.972C247.059 170.565 247.168 170.101 247.168 169.581C247.168 169.061 247.059 168.597 246.843 168.19C246.626 167.783 246.323 167.471 245.933 167.254C245.551 167.029 245.118 166.916 244.633 166.916C244.147 166.916 243.71 167.029 243.32 167.254C242.938 167.471 242.635 167.783 242.41 168.19C242.193 168.597 242.085 169.061 242.085 169.581C242.085 170.101 242.193 170.565 242.41 170.972C242.635 171.379 242.938 171.696 243.32 171.921C243.71 172.138 244.147 172.246 244.633 172.246ZM249.793 163.354H250.716V173H249.793V163.354ZM248.48 169.269L251.626 166.903L252.042 167.475L248.909 169.828L248.48 169.269ZM255.491 166.11C256.383 166.11 257.068 166.335 257.545 166.786C258.021 167.228 258.26 167.887 258.26 168.762V173H257.376V171.934C257.168 172.289 256.86 172.567 256.453 172.766C256.054 172.965 255.577 173.065 255.023 173.065C254.26 173.065 253.653 172.883 253.203 172.519C252.752 172.155 252.527 171.674 252.527 171.076C252.527 170.495 252.735 170.027 253.151 169.672C253.575 169.317 254.247 169.139 255.166 169.139H257.337V168.723C257.337 168.134 257.172 167.687 256.843 167.384C256.513 167.072 256.032 166.916 255.4 166.916C254.966 166.916 254.55 166.99 254.152 167.137C253.753 167.276 253.411 167.471 253.125 167.722L252.709 167.033C253.055 166.738 253.471 166.513 253.957 166.357C254.442 166.192 254.953 166.11 255.491 166.11ZM255.166 172.337C255.686 172.337 256.132 172.22 256.505 171.986C256.877 171.743 257.155 171.397 257.337 170.946V169.828H255.192C254.022 169.828 253.437 170.235 253.437 171.05C253.437 171.449 253.588 171.765 253.892 171.999C254.195 172.224 254.62 172.337 255.166 172.337ZM257.428 175.86C256.994 175.86 256.648 175.747 256.388 175.522C256.128 175.297 255.998 174.998 255.998 174.625C255.998 173.819 256.609 173.16 257.831 172.649L258.26 173C257.202 173.468 256.674 173.988 256.674 174.56C256.674 174.794 256.752 174.972 256.908 175.093C257.064 175.223 257.267 175.288 257.519 175.288C257.857 175.288 258.125 175.206 258.325 175.041L258.533 175.548C258.221 175.756 257.852 175.86 257.428 175.86ZM263.366 173.065C262.69 173.065 262.083 172.918 261.546 172.623C261.017 172.328 260.601 171.917 260.298 171.388C259.995 170.851 259.843 170.248 259.843 169.581C259.843 168.914 259.995 168.316 260.298 167.787C260.601 167.258 261.017 166.847 261.546 166.552C262.083 166.257 262.69 166.11 263.366 166.11C263.955 166.11 264.48 166.227 264.939 166.461C265.407 166.686 265.775 167.02 266.044 167.462L265.355 167.93C265.13 167.592 264.844 167.341 264.497 167.176C264.15 167.003 263.773 166.916 263.366 166.916C262.872 166.916 262.426 167.029 262.027 167.254C261.637 167.471 261.329 167.783 261.104 168.19C260.887 168.597 260.779 169.061 260.779 169.581C260.779 170.11 260.887 170.578 261.104 170.985C261.329 171.384 261.637 171.696 262.027 171.921C262.426 172.138 262.872 172.246 263.366 172.246C263.773 172.246 264.15 172.164 264.497 171.999C264.844 171.834 265.13 171.583 265.355 171.245L266.044 171.713C265.775 172.155 265.407 172.493 264.939 172.727C264.471 172.952 263.947 173.065 263.366 173.065ZM272.319 172.233V173H266.755V172.389L271.058 166.942H266.833V166.162H272.241V166.773L267.938 172.233H272.319ZM276.556 173.065C275.898 173.065 275.304 172.918 274.775 172.623C274.247 172.32 273.831 171.904 273.527 171.375C273.224 170.846 273.072 170.248 273.072 169.581C273.072 168.914 273.224 168.316 273.527 167.787C273.831 167.258 274.247 166.847 274.775 166.552C275.304 166.257 275.898 166.11 276.556 166.11C277.215 166.11 277.809 166.257 278.337 166.552C278.866 166.847 279.278 167.258 279.572 167.787C279.876 168.316 280.027 168.914 280.027 169.581C280.027 170.248 279.876 170.846 279.572 171.375C279.278 171.904 278.866 172.32 278.337 172.623C277.809 172.918 277.215 173.065 276.556 173.065ZM276.556 172.246C277.042 172.246 277.475 172.138 277.856 171.921C278.246 171.696 278.55 171.379 278.766 170.972C278.983 170.565 279.091 170.101 279.091 169.581C279.091 169.061 278.983 168.597 278.766 168.19C278.55 167.783 278.246 167.471 277.856 167.254C277.475 167.029 277.042 166.916 276.556 166.916C276.071 166.916 275.633 167.029 275.243 167.254C274.862 167.471 274.559 167.783 274.333 168.19C274.117 168.597 274.008 169.061 274.008 169.581C274.008 170.101 274.117 170.565 274.333 170.972C274.559 171.379 274.862 171.696 275.243 171.921C275.633 172.138 276.071 172.246 276.556 172.246ZM285.136 166.11C285.994 166.11 286.674 166.361 287.177 166.864C287.688 167.358 287.944 168.082 287.944 169.035V173H287.021V169.126C287.021 168.415 286.843 167.874 286.488 167.501C286.132 167.128 285.625 166.942 284.967 166.942C284.23 166.942 283.645 167.163 283.212 167.605C282.787 168.038 282.575 168.641 282.575 169.412V173H281.652V166.162H282.536V167.423C282.787 167.007 283.134 166.686 283.576 166.461C284.026 166.227 284.546 166.11 285.136 166.11ZM295.808 166.162L292.389 173.819C292.112 174.46 291.791 174.915 291.427 175.184C291.063 175.453 290.626 175.587 290.114 175.587C289.785 175.587 289.477 175.535 289.191 175.431C288.905 175.327 288.658 175.171 288.45 174.963L288.879 174.274C289.226 174.621 289.642 174.794 290.127 174.794C290.439 174.794 290.704 174.707 290.92 174.534C291.146 174.361 291.354 174.066 291.544 173.65L291.843 172.987L288.788 166.162H289.75L292.324 171.973L294.898 166.162H295.808ZM299.492 173.065C298.816 173.065 298.209 172.918 297.672 172.623C297.143 172.328 296.727 171.917 296.424 171.388C296.121 170.851 295.969 170.248 295.969 169.581C295.969 168.914 296.121 168.316 296.424 167.787C296.727 167.258 297.143 166.847 297.672 166.552C298.209 166.257 298.816 166.11 299.492 166.11C300.081 166.11 300.606 166.227 301.065 166.461C301.533 166.686 301.901 167.02 302.17 167.462L301.481 167.93C301.256 167.592 300.97 167.341 300.623 167.176C300.276 167.003 299.899 166.916 299.492 166.916C298.998 166.916 298.552 167.029 298.153 167.254C297.763 167.471 297.455 167.783 297.23 168.19C297.013 168.597 296.905 169.061 296.905 169.581C296.905 170.11 297.013 170.578 297.23 170.985C297.455 171.384 297.763 171.696 298.153 171.921C298.552 172.138 298.998 172.246 299.492 172.246C299.899 172.246 300.276 172.164 300.623 171.999C300.97 171.834 301.256 171.583 301.481 171.245L302.17 171.713C301.901 172.155 301.533 172.493 301.065 172.727C300.597 172.952 300.073 173.065 299.492 173.065ZM307.106 166.11C307.964 166.11 308.644 166.361 309.147 166.864C309.658 167.358 309.914 168.082 309.914 169.035V173H308.991V169.126C308.991 168.415 308.813 167.874 308.458 167.501C308.102 167.128 307.595 166.942 306.937 166.942C306.2 166.942 305.615 167.163 305.182 167.605C304.757 168.038 304.545 168.641 304.545 169.412V173H303.622V163.354H304.545V167.358C304.796 166.959 305.143 166.652 305.585 166.435C306.027 166.218 306.534 166.11 307.106 166.11ZM320.125 172.233V173H314.561V172.389L318.864 166.942H314.639V166.162H320.047V166.773L315.744 172.233H320.125ZM327.521 169.867H321.801C321.853 170.578 322.126 171.154 322.62 171.596C323.114 172.029 323.738 172.246 324.492 172.246C324.917 172.246 325.307 172.172 325.662 172.025C326.017 171.869 326.325 171.644 326.585 171.349L327.105 171.947C326.802 172.311 326.42 172.588 325.961 172.779C325.51 172.97 325.012 173.065 324.466 173.065C323.764 173.065 323.14 172.918 322.594 172.623C322.057 172.32 321.636 171.904 321.333 171.375C321.03 170.846 320.878 170.248 320.878 169.581C320.878 168.914 321.021 168.316 321.307 167.787C321.602 167.258 322 166.847 322.503 166.552C323.014 166.257 323.586 166.11 324.219 166.11C324.852 166.11 325.419 166.257 325.922 166.552C326.425 166.847 326.819 167.258 327.105 167.787C327.391 168.307 327.534 168.905 327.534 169.581L327.521 169.867ZM324.219 166.903C323.56 166.903 323.006 167.115 322.555 167.54C322.113 167.956 321.862 168.502 321.801 169.178H326.65C326.589 168.502 326.334 167.956 325.883 167.54C325.441 167.115 324.886 166.903 324.219 166.903ZM235.12 188.065C234.565 188.065 234.032 187.987 233.521 187.831C233.018 187.666 232.624 187.463 232.338 187.22L232.754 186.492C233.04 186.717 233.4 186.904 233.833 187.051C234.266 187.19 234.717 187.259 235.185 187.259C235.809 187.259 236.268 187.164 236.563 186.973C236.866 186.774 237.018 186.496 237.018 186.141C237.018 185.89 236.936 185.695 236.771 185.556C236.606 185.409 236.398 185.3 236.147 185.231C235.896 185.153 235.562 185.079 235.146 185.01C234.591 184.906 234.145 184.802 233.807 184.698C233.469 184.585 233.179 184.399 232.936 184.139C232.702 183.879 232.585 183.519 232.585 183.06C232.585 182.488 232.823 182.02 233.3 181.656C233.777 181.292 234.44 181.11 235.289 181.11C235.731 181.11 236.173 181.171 236.615 181.292C237.057 181.405 237.421 181.556 237.707 181.747L237.304 182.488C236.741 182.098 236.069 181.903 235.289 181.903C234.7 181.903 234.253 182.007 233.95 182.215C233.655 182.423 233.508 182.696 233.508 183.034C233.508 183.294 233.59 183.502 233.755 183.658C233.928 183.814 234.141 183.931 234.392 184.009C234.643 184.078 234.99 184.152 235.432 184.23C235.978 184.334 236.416 184.438 236.745 184.542C237.074 184.646 237.356 184.824 237.59 185.075C237.824 185.326 237.941 185.673 237.941 186.115C237.941 186.713 237.69 187.19 237.187 187.545C236.693 187.892 236.004 188.065 235.12 188.065ZM242.182 188.065C241.524 188.065 240.93 187.918 240.401 187.623C239.873 187.32 239.457 186.904 239.153 186.375C238.85 185.846 238.698 185.248 238.698 184.581C238.698 183.914 238.85 183.316 239.153 182.787C239.457 182.258 239.873 181.847 240.401 181.552C240.93 181.257 241.524 181.11 242.182 181.11C242.841 181.11 243.435 181.257 243.963 181.552C244.492 181.847 244.904 182.258 245.198 182.787C245.502 183.316 245.653 183.914 245.653 184.581C245.653 185.248 245.502 185.846 245.198 186.375C244.904 186.904 244.492 187.32 243.963 187.623C243.435 187.918 242.841 188.065 242.182 188.065ZM242.182 187.246C242.668 187.246 243.101 187.138 243.482 186.921C243.872 186.696 244.176 186.379 244.392 185.972C244.609 185.565 244.717 185.101 244.717 184.581C244.717 184.061 244.609 183.597 244.392 183.19C244.176 182.783 243.872 182.471 243.482 182.254C243.101 182.029 242.668 181.916 242.182 181.916C241.697 181.916 241.259 182.029 240.869 182.254C240.488 182.471 240.185 182.783 239.959 183.19C239.743 183.597 239.634 184.061 239.634 184.581C239.634 185.101 239.743 185.565 239.959 185.972C240.185 186.379 240.488 186.696 240.869 186.921C241.259 187.138 241.697 187.246 242.182 187.246ZM250.801 181.11C251.442 181.11 252.023 181.257 252.543 181.552C253.063 181.838 253.47 182.245 253.765 182.774C254.059 183.303 254.207 183.905 254.207 184.581C254.207 185.257 254.059 185.859 253.765 186.388C253.47 186.917 253.063 187.328 252.543 187.623C252.023 187.918 251.442 188.065 250.801 188.065C250.229 188.065 249.713 187.944 249.254 187.701C248.803 187.458 248.439 187.107 248.162 186.648V188H247.278V178.354H248.201V182.462C248.487 182.02 248.851 181.686 249.293 181.461C249.743 181.227 250.246 181.11 250.801 181.11ZM250.736 187.246C251.212 187.246 251.646 187.138 252.036 186.921C252.426 186.696 252.729 186.379 252.946 185.972C253.171 185.565 253.284 185.101 253.284 184.581C253.284 184.061 253.171 183.597 252.946 183.19C252.729 182.783 252.426 182.471 252.036 182.254C251.646 182.029 251.212 181.916 250.736 181.916C250.25 181.916 249.813 182.029 249.423 182.254C249.041 182.471 248.738 182.783 248.513 183.19C248.296 183.597 248.188 184.061 248.188 184.581C248.188 185.101 248.296 185.565 248.513 185.972C248.738 186.379 249.041 186.696 249.423 186.921C249.813 187.138 250.25 187.246 250.736 187.246ZM258.182 181.11C259.075 181.11 259.76 181.335 260.236 181.786C260.713 182.228 260.951 182.887 260.951 183.762V188H260.067V186.934C259.859 187.289 259.552 187.567 259.144 187.766C258.746 187.965 258.269 188.065 257.714 188.065C256.952 188.065 256.345 187.883 255.894 187.519C255.444 187.155 255.218 186.674 255.218 186.076C255.218 185.495 255.426 185.027 255.842 184.672C256.267 184.317 256.939 184.139 257.857 184.139H260.028V183.723C260.028 183.134 259.864 182.687 259.534 182.384C259.205 182.072 258.724 181.916 258.091 181.916C257.658 181.916 257.242 181.99 256.843 182.137C256.445 182.276 256.102 182.471 255.816 182.722L255.4 182.033C255.747 181.738 256.163 181.513 256.648 181.357C257.134 181.192 257.645 181.11 258.182 181.11ZM257.857 187.337C258.377 187.337 258.824 187.22 259.196 186.986C259.569 186.743 259.846 186.397 260.028 185.946V184.828H257.883C256.713 184.828 256.128 185.235 256.128 186.05C256.128 186.449 256.28 186.765 256.583 186.999C256.887 187.224 257.311 187.337 257.857 187.337ZM260.119 190.86C259.686 190.86 259.339 190.747 259.079 190.522C258.819 190.297 258.689 189.998 258.689 189.625C258.689 188.819 259.3 188.16 260.522 187.649L260.951 188C259.894 188.468 259.365 188.988 259.365 189.56C259.365 189.794 259.443 189.972 259.599 190.093C259.755 190.223 259.959 190.288 260.21 190.288C260.548 190.288 260.817 190.206 261.016 190.041L261.224 190.548C260.912 190.756 260.544 190.86 260.119 190.86ZM272.581 178.354V188H271.697V186.648C271.419 187.107 271.051 187.458 270.592 187.701C270.141 187.944 269.63 188.065 269.058 188.065C268.416 188.065 267.836 187.918 267.316 187.623C266.796 187.328 266.388 186.917 266.094 186.388C265.799 185.859 265.652 185.257 265.652 184.581C265.652 183.905 265.799 183.303 266.094 182.774C266.388 182.245 266.796 181.838 267.316 181.552C267.836 181.257 268.416 181.11 269.058 181.11C269.612 181.11 270.111 181.227 270.553 181.461C271.003 181.686 271.372 182.02 271.658 182.462V178.354H272.581ZM269.136 187.246C269.612 187.246 270.041 187.138 270.423 186.921C270.813 186.696 271.116 186.379 271.333 185.972C271.558 185.565 271.671 185.101 271.671 184.581C271.671 184.061 271.558 183.597 271.333 183.19C271.116 182.783 270.813 182.471 270.423 182.254C270.041 182.029 269.612 181.916 269.136 181.916C268.65 181.916 268.213 182.029 267.823 182.254C267.441 182.471 267.138 182.783 266.913 183.19C266.696 183.597 266.588 184.061 266.588 184.581C266.588 185.101 266.696 185.565 266.913 185.972C267.138 186.379 267.441 186.696 267.823 186.921C268.213 187.138 268.65 187.246 269.136 187.246ZM275.775 182.501C275.992 182.042 276.312 181.695 276.737 181.461C277.17 181.227 277.703 181.11 278.336 181.11V182.007L278.115 181.994C277.396 181.994 276.832 182.215 276.425 182.657C276.018 183.099 275.814 183.719 275.814 184.516V188H274.891V181.162H275.775V182.501ZM286.011 181.162V188H285.127V186.752C284.884 187.168 284.551 187.493 284.126 187.727C283.701 187.952 283.216 188.065 282.67 188.065C281.777 188.065 281.071 187.818 280.551 187.324C280.04 186.821 279.784 186.089 279.784 185.127V181.162H280.707V185.036C280.707 185.755 280.885 186.301 281.24 186.674C281.595 187.047 282.102 187.233 282.761 187.233C283.48 187.233 284.048 187.016 284.464 186.583C284.88 186.141 285.088 185.53 285.088 184.75V181.162H286.011ZM291.937 187.584C291.764 187.74 291.547 187.861 291.287 187.948C291.036 188.026 290.771 188.065 290.494 188.065C289.853 188.065 289.359 187.892 289.012 187.545C288.665 187.198 288.492 186.709 288.492 186.076V181.942H287.27V181.162H288.492V179.667H289.415V181.162H291.495V181.942H289.415V186.024C289.415 186.431 289.515 186.743 289.714 186.96C289.922 187.168 290.217 187.272 290.598 187.272C290.789 187.272 290.971 187.242 291.144 187.181C291.326 187.12 291.482 187.034 291.612 186.921L291.937 187.584ZM299.07 184.867H293.35C293.402 185.578 293.675 186.154 294.169 186.596C294.663 187.029 295.287 187.246 296.041 187.246C296.466 187.246 296.856 187.172 297.211 187.025C297.566 186.869 297.874 186.644 298.134 186.349L298.654 186.947C298.351 187.311 297.969 187.588 297.51 187.779C297.059 187.97 296.561 188.065 296.015 188.065C295.313 188.065 294.689 187.918 294.143 187.623C293.606 187.32 293.185 186.904 292.882 186.375C292.579 185.846 292.427 185.248 292.427 184.581C292.427 183.914 292.57 183.316 292.856 182.787C293.151 182.258 293.549 181.847 294.052 181.552C294.563 181.257 295.135 181.11 295.768 181.11C296.401 181.11 296.968 181.257 297.471 181.552C297.974 181.847 298.368 182.258 298.654 182.787C298.94 183.307 299.083 183.905 299.083 184.581L299.07 184.867ZM295.768 181.903C295.109 181.903 294.555 182.115 294.104 182.54C293.662 182.956 293.411 183.502 293.35 184.178H298.199C298.138 183.502 297.883 182.956 297.432 182.54C296.99 182.115 296.435 181.903 295.768 181.903ZM309.23 181.11C310.088 181.11 310.759 181.357 311.245 181.851C311.739 182.345 311.986 183.073 311.986 184.035V188H311.063V184.126C311.063 183.415 310.889 182.874 310.543 182.501C310.205 182.128 309.724 181.942 309.1 181.942C308.389 181.942 307.83 182.163 307.423 182.605C307.015 183.038 306.812 183.641 306.812 184.412V188H305.889V184.126C305.889 183.415 305.715 182.874 305.369 182.501C305.031 182.128 304.545 181.942 303.913 181.942C303.211 181.942 302.652 182.163 302.236 182.605C301.828 183.038 301.625 183.641 301.625 184.412V188H300.702V181.162H301.586V182.41C301.828 181.994 302.166 181.673 302.6 181.448C303.033 181.223 303.531 181.11 304.095 181.11C304.667 181.11 305.161 181.231 305.577 181.474C306.001 181.717 306.318 182.076 306.526 182.553C306.777 182.102 307.137 181.751 307.605 181.5C308.081 181.24 308.623 181.11 309.23 181.11ZM233.287 193.354H234.21V203H233.287V193.354ZM242.68 196.162V203H241.796V201.752C241.554 202.168 241.22 202.493 240.795 202.727C240.371 202.952 239.885 203.065 239.339 203.065C238.447 203.065 237.74 202.818 237.22 202.324C236.709 201.821 236.453 201.089 236.453 200.127V196.162H237.376V200.036C237.376 200.755 237.554 201.301 237.909 201.674C238.265 202.047 238.772 202.233 239.43 202.233C240.15 202.233 240.717 202.016 241.133 201.583C241.549 201.141 241.757 200.53 241.757 199.75V196.162H242.68ZM248.528 196.11C249.17 196.11 249.75 196.257 250.27 196.552C250.79 196.838 251.198 197.245 251.492 197.774C251.787 198.303 251.934 198.905 251.934 199.581C251.934 200.257 251.787 200.859 251.492 201.388C251.198 201.917 250.79 202.328 250.27 202.623C249.75 202.918 249.17 203.065 248.528 203.065C247.956 203.065 247.441 202.944 246.981 202.701C246.531 202.458 246.167 202.107 245.889 201.648V203H245.005V193.354H245.928V197.462C246.214 197.02 246.578 196.686 247.02 196.461C247.471 196.227 247.974 196.11 248.528 196.11ZM248.463 202.246C248.94 202.246 249.373 202.138 249.763 201.921C250.153 201.696 250.457 201.379 250.673 200.972C250.899 200.565 251.011 200.101 251.011 199.581C251.011 199.061 250.899 198.597 250.673 198.19C250.457 197.783 250.153 197.471 249.763 197.254C249.373 197.029 248.94 196.916 248.463 196.916C247.978 196.916 247.54 197.029 247.15 197.254C246.769 197.471 246.466 197.783 246.24 198.19C246.024 198.597 245.915 199.061 245.915 199.581C245.915 200.101 246.024 200.565 246.24 200.972C246.466 201.379 246.769 201.696 247.15 201.921C247.54 202.138 247.978 202.246 248.463 202.246ZM258.531 203.065C257.977 203.065 257.444 202.987 256.932 202.831C256.43 202.666 256.035 202.463 255.749 202.22L256.165 201.492C256.451 201.717 256.811 201.904 257.244 202.051C257.678 202.19 258.128 202.259 258.596 202.259C259.22 202.259 259.68 202.164 259.974 201.973C260.278 201.774 260.429 201.496 260.429 201.141C260.429 200.89 260.347 200.695 260.182 200.556C260.018 200.409 259.81 200.3 259.558 200.231C259.307 200.153 258.973 200.079 258.557 200.01C258.003 199.906 257.556 199.802 257.218 199.698C256.88 199.585 256.59 199.399 256.347 199.139C256.113 198.879 255.996 198.519 255.996 198.06C255.996 197.488 256.235 197.02 256.711 196.656C257.188 196.292 257.851 196.11 258.7 196.11C259.142 196.11 259.584 196.171 260.026 196.292C260.468 196.405 260.832 196.556 261.118 196.747L260.715 197.488C260.152 197.098 259.48 196.903 258.7 196.903C258.111 196.903 257.665 197.007 257.361 197.215C257.067 197.423 256.919 197.696 256.919 198.034C256.919 198.294 257.002 198.502 257.166 198.658C257.34 198.814 257.552 198.931 257.803 199.009C258.055 199.078 258.401 199.152 258.843 199.23C259.389 199.334 259.827 199.438 260.156 199.542C260.486 199.646 260.767 199.824 261.001 200.075C261.235 200.326 261.352 200.673 261.352 201.115C261.352 201.713 261.101 202.19 260.598 202.545C260.104 202.892 259.415 203.065 258.531 203.065ZM267.622 202.233V203H262.058V202.389L266.361 196.942H262.136V196.162H267.544V196.773L263.241 202.233H267.622ZM272.662 196.11C273.52 196.11 274.201 196.361 274.703 196.864C275.215 197.358 275.47 198.082 275.47 199.035V203H274.547V199.126C274.547 198.415 274.37 197.874 274.014 197.501C273.659 197.128 273.152 196.942 272.493 196.942C271.757 196.942 271.172 197.163 270.738 197.605C270.314 198.038 270.101 198.641 270.101 199.412V203H269.178V196.162H270.062V197.423C270.314 197.007 270.66 196.686 271.102 196.461C271.553 196.227 272.073 196.11 272.662 196.11ZM283.878 196.162V203H282.994V201.752C282.751 202.168 282.418 202.493 281.993 202.727C281.568 202.952 281.083 203.065 280.537 203.065C279.644 203.065 278.938 202.818 278.418 202.324C277.907 201.821 277.651 201.089 277.651 200.127V196.162H278.574V200.036C278.574 200.755 278.752 201.301 279.107 201.674C279.462 202.047 279.969 202.233 280.628 202.233C281.347 202.233 281.915 202.016 282.331 201.583C282.747 201.141 282.955 200.53 282.955 199.75V196.162H283.878ZM287.087 197.501C287.304 197.042 287.624 196.695 288.049 196.461C288.482 196.227 289.015 196.11 289.648 196.11V197.007L289.427 196.994C288.708 196.994 288.144 197.215 287.737 197.657C287.33 198.099 287.126 198.719 287.126 199.516V203H286.203V196.162H287.087V197.501ZM293.594 199.568L291.982 201.05V203H291.059V193.354H291.982V199.893L296.064 196.162H297.208L294.283 198.957L297.481 203H296.35L293.594 199.568ZM298.505 196.162H299.428V203H298.505V196.162ZM298.973 194.667C298.783 194.667 298.622 194.602 298.492 194.472C298.362 194.342 298.297 194.186 298.297 194.004C298.297 193.831 298.362 193.679 298.492 193.549C298.622 193.419 298.783 193.354 298.973 193.354C299.164 193.354 299.324 193.419 299.454 193.549C299.584 193.67 299.649 193.818 299.649 193.991C299.649 194.182 299.584 194.342 299.454 194.472C299.324 194.602 299.164 194.667 298.973 194.667ZM307.691 199.867H301.971C302.023 200.578 302.296 201.154 302.79 201.596C303.284 202.029 303.908 202.246 304.662 202.246C305.086 202.246 305.476 202.172 305.832 202.025C306.187 201.869 306.495 201.644 306.755 201.349L307.275 201.947C306.971 202.311 306.59 202.588 306.131 202.779C305.68 202.97 305.182 203.065 304.636 203.065C303.934 203.065 303.31 202.918 302.764 202.623C302.226 202.32 301.806 201.904 301.503 201.375C301.199 200.846 301.048 200.248 301.048 199.581C301.048 198.914 301.191 198.316 301.477 197.787C301.771 197.258 302.17 196.847 302.673 196.552C303.184 196.257 303.756 196.11 304.389 196.11C305.021 196.11 305.589 196.257 306.092 196.552C306.594 196.847 306.989 197.258 307.275 197.787C307.561 198.307 307.704 198.905 307.704 199.581L307.691 199.867ZM304.389 196.903C303.73 196.903 303.175 197.115 302.725 197.54C302.283 197.956 302.031 198.502 301.971 199.178H306.82C306.759 198.502 306.503 197.956 306.053 197.54C305.611 197.115 305.056 196.903 304.389 196.903ZM317.85 196.11C318.708 196.11 319.38 196.357 319.865 196.851C320.359 197.345 320.606 198.073 320.606 199.035V203H319.683V199.126C319.683 198.415 319.51 197.874 319.163 197.501C318.825 197.128 318.344 196.942 317.72 196.942C317.01 196.942 316.451 197.163 316.043 197.605C315.636 198.038 315.432 198.641 315.432 199.412V203H314.509V199.126C314.509 198.415 314.336 197.874 313.989 197.501C313.651 197.128 313.166 196.942 312.533 196.942C311.831 196.942 311.272 197.163 310.856 197.605C310.449 198.038 310.245 198.641 310.245 199.412V203H309.322V196.162H310.206V197.41C310.449 196.994 310.787 196.673 311.22 196.448C311.654 196.223 312.152 196.11 312.715 196.11C313.287 196.11 313.781 196.231 314.197 196.474C314.622 196.717 314.938 197.076 315.146 197.553C315.398 197.102 315.757 196.751 316.225 196.5C316.702 196.24 317.244 196.11 317.85 196.11Z" fill="#00229A"/>
<path d="M233.482 216.9H237.187C238.149 216.9 238.998 217.095 239.735 217.485C240.472 217.866 241.044 218.404 241.451 219.097C241.858 219.782 242.062 220.566 242.062 221.45C242.062 222.334 241.858 223.123 241.451 223.816C241.044 224.501 240.472 225.038 239.735 225.428C238.998 225.809 238.149 226 237.187 226H233.482V216.9ZM237.135 225.168C237.932 225.168 238.63 225.012 239.228 224.7C239.826 224.379 240.29 223.942 240.619 223.387C240.948 222.824 241.113 222.178 241.113 221.45C241.113 220.722 240.948 220.081 240.619 219.526C240.29 218.963 239.826 218.525 239.228 218.213C238.63 217.892 237.932 217.732 237.135 217.732H234.444V225.168H237.135ZM249.721 222.867H244.001C244.053 223.578 244.326 224.154 244.82 224.596C245.314 225.029 245.938 225.246 246.692 225.246C247.117 225.246 247.507 225.172 247.862 225.025C248.218 224.869 248.525 224.644 248.785 224.349L249.305 224.947C249.002 225.311 248.621 225.588 248.161 225.779C247.711 225.97 247.212 226.065 246.666 226.065C245.964 226.065 245.34 225.918 244.794 225.623C244.257 225.32 243.837 224.904 243.533 224.375C243.23 223.846 243.078 223.248 243.078 222.581C243.078 221.914 243.221 221.316 243.507 220.787C243.802 220.258 244.201 219.847 244.703 219.552C245.215 219.257 245.787 219.11 246.419 219.11C247.052 219.11 247.62 219.257 248.122 219.552C248.625 219.847 249.019 220.258 249.305 220.787C249.591 221.307 249.734 221.905 249.734 222.581L249.721 222.867ZM246.419 219.903C245.761 219.903 245.206 220.115 244.755 220.54C244.313 220.956 244.062 221.502 244.001 222.178H248.85C248.79 221.502 248.534 220.956 248.083 220.54C247.641 220.115 247.087 219.903 246.419 219.903ZM253.186 226.065C252.631 226.065 252.098 225.987 251.587 225.831C251.084 225.666 250.69 225.463 250.404 225.22L250.82 224.492C251.106 224.717 251.466 224.904 251.899 225.051C252.332 225.19 252.783 225.259 253.251 225.259C253.875 225.259 254.334 225.164 254.629 224.973C254.932 224.774 255.084 224.496 255.084 224.141C255.084 223.89 255.002 223.695 254.837 223.556C254.672 223.409 254.464 223.3 254.213 223.231C253.962 223.153 253.628 223.079 253.212 223.01C252.657 222.906 252.211 222.802 251.873 222.698C251.535 222.585 251.245 222.399 251.002 222.139C250.768 221.879 250.651 221.519 250.651 221.06C250.651 220.488 250.889 220.02 251.366 219.656C251.843 219.292 252.506 219.11 253.355 219.11C253.797 219.11 254.239 219.171 254.681 219.292C255.123 219.405 255.487 219.556 255.773 219.747L255.37 220.488C254.807 220.098 254.135 219.903 253.355 219.903C252.766 219.903 252.319 220.007 252.016 220.215C251.721 220.423 251.574 220.696 251.574 221.034C251.574 221.294 251.656 221.502 251.821 221.658C251.994 221.814 252.207 221.931 252.458 222.009C252.709 222.078 253.056 222.152 253.498 222.23C254.044 222.334 254.482 222.438 254.811 222.542C255.14 222.646 255.422 222.824 255.656 223.075C255.89 223.326 256.007 223.673 256.007 224.115C256.007 224.713 255.756 225.19 255.253 225.545C254.759 225.892 254.07 226.065 253.186 226.065ZM259.988 222.568L258.376 224.05V226H257.453V216.354H258.376V222.893L262.458 219.162H263.602L260.677 221.957L263.875 226H262.744L259.988 222.568ZM264.899 219.162H265.822V226H264.899V219.162ZM265.367 217.667C265.177 217.667 265.016 217.602 264.886 217.472C264.756 217.342 264.691 217.186 264.691 217.004C264.691 216.831 264.756 216.679 264.886 216.549C265.016 216.419 265.177 216.354 265.367 216.354C265.558 216.354 265.718 216.419 265.848 216.549C265.978 216.67 266.043 216.818 266.043 216.991C266.043 217.182 265.978 217.342 265.848 217.472C265.718 217.602 265.558 217.667 265.367 217.667ZM234.86 243.522C234.375 242.725 234.002 241.81 233.742 240.779C233.482 239.739 233.352 238.625 233.352 237.438C233.352 236.251 233.482 235.137 233.742 234.097C234.002 233.048 234.375 232.134 234.86 231.354H235.744C235.233 232.229 234.856 233.17 234.613 234.175C234.379 235.18 234.262 236.268 234.262 237.438C234.262 238.608 234.379 239.696 234.613 240.701C234.856 241.706 235.233 242.647 235.744 243.522H234.86ZM239.788 235.8C240.742 235.852 241.465 236.112 241.959 236.58C242.462 237.039 242.713 237.642 242.713 238.387C242.713 238.907 242.588 239.371 242.336 239.778C242.085 240.177 241.712 240.493 241.218 240.727C240.724 240.961 240.122 241.078 239.411 241.078C238.753 241.078 238.129 240.974 237.539 240.766C236.959 240.549 236.491 240.263 236.135 239.908L236.59 239.167C236.894 239.479 237.297 239.735 237.799 239.934C238.302 240.125 238.839 240.22 239.411 240.22C240.157 240.22 240.733 240.06 241.14 239.739C241.548 239.41 241.751 238.959 241.751 238.387C241.751 237.824 241.548 237.382 241.14 237.061C240.733 236.74 240.118 236.58 239.294 236.58H238.644V235.891L241.166 232.732H236.512V231.9H242.362V232.563L239.788 235.8ZM243.876 237.074H247.282V237.88H243.876V237.074ZM256.313 238.608H254.493V241H253.557V238.608H248.422V237.932L253.245 231.9H254.285L249.631 237.776H253.583V235.67H254.493V237.776H256.313V238.608ZM263.5 241.065C262.824 241.065 262.217 240.918 261.68 240.623C261.151 240.328 260.735 239.917 260.432 239.388C260.128 238.851 259.977 238.248 259.977 237.581C259.977 236.914 260.128 236.316 260.432 235.787C260.735 235.258 261.151 234.847 261.68 234.552C262.217 234.257 262.824 234.11 263.5 234.11C264.089 234.11 264.613 234.227 265.073 234.461C265.541 234.686 265.909 235.02 266.178 235.462L265.489 235.93C265.263 235.592 264.977 235.341 264.631 235.176C264.284 235.003 263.907 234.916 263.5 234.916C263.006 234.916 262.559 235.029 262.161 235.254C261.771 235.471 261.463 235.783 261.238 236.19C261.021 236.597 260.913 237.061 260.913 237.581C260.913 238.11 261.021 238.578 261.238 238.985C261.463 239.384 261.771 239.696 262.161 239.921C262.559 240.138 263.006 240.246 263.5 240.246C263.907 240.246 264.284 240.164 264.631 239.999C264.977 239.834 265.263 239.583 265.489 239.245L266.178 239.713C265.909 240.155 265.541 240.493 265.073 240.727C264.605 240.952 264.08 241.065 263.5 241.065ZM276.259 234.11C277.117 234.11 277.789 234.357 278.274 234.851C278.768 235.345 279.015 236.073 279.015 237.035V241H278.092V237.126C278.092 236.415 277.919 235.874 277.572 235.501C277.234 235.128 276.753 234.942 276.129 234.942C275.418 234.942 274.859 235.163 274.452 235.605C274.045 236.038 273.841 236.641 273.841 237.412V241H272.918V237.126C272.918 236.415 272.745 235.874 272.398 235.501C272.06 235.128 271.575 234.942 270.942 234.942C270.24 234.942 269.681 235.163 269.265 235.605C268.858 236.038 268.654 236.641 268.654 237.412V241H267.731V234.162H268.615V235.41C268.858 234.994 269.196 234.673 269.629 234.448C270.062 234.223 270.561 234.11 271.124 234.11C271.696 234.11 272.19 234.231 272.606 234.474C273.031 234.717 273.347 235.076 273.555 235.553C273.806 235.102 274.166 234.751 274.634 234.5C275.111 234.24 275.652 234.11 276.259 234.11ZM280.491 243.522C281.002 242.647 281.379 241.711 281.622 240.714C281.865 239.709 281.986 238.617 281.986 237.438C281.986 236.259 281.865 235.172 281.622 234.175C281.379 233.17 281.002 232.229 280.491 231.354H281.375C281.86 232.134 282.233 233.048 282.493 234.097C282.762 235.137 282.896 236.251 282.896 237.438C282.896 238.625 282.766 239.739 282.506 240.779C282.246 241.819 281.869 242.733 281.375 243.522H280.491Z" fill="#00229A"/>
</g>
<defs>
<clipPath id="clip0_268_603">
<rect width="328" height="328" fill="white"/>
</clipPath>
</defs>
</svg>
