<svg width="328" height="328" viewBox="0 0 328 328" fill="none" xmlns="http://www.w3.org/2000/svg">
<path d="M75.4022 209.846H64.1863C60.6088 209.856 57.1811 211.284 54.6538 213.816C52.1265 216.348 50.7056 219.778 50.7023 223.355V224.527C50.7056 228.109 52.1299 231.543 54.6626 234.075C57.1953 236.608 60.6295 238.032 64.2112 238.036H75.4271L75.4022 209.846Z" fill="#D9DEEE"/>
<path d="M75.4022 177.807H64.1863C60.6153 177.816 57.1932 179.239 54.667 181.762C52.1407 184.286 50.7155 187.707 50.7023 191.278V192.462C50.7089 196.043 52.1343 199.475 54.6663 202.007C57.1983 204.539 60.6305 205.964 64.2112 205.971H75.4271L75.4022 177.807Z" fill="#D9DEEE"/>
<path d="M75.4021 146.028H64.1862C60.6098 146.041 57.184 147.47 54.6574 150.001C52.1308 152.532 50.7088 155.961 50.7023 159.537V160.783C50.7089 164.363 52.1346 167.794 54.667 170.324C57.1993 172.854 60.6315 174.276 64.2112 174.28H75.427L75.4021 146.028Z" fill="#D9DEEE"/>
<path d="M75.4022 113.963H64.1863C60.6088 113.973 57.1811 115.4 54.6538 117.932C52.1265 120.464 50.7056 123.895 50.7023 127.472V128.644C50.7056 132.225 52.1299 135.66 54.6626 138.192C57.1953 140.725 60.6295 142.149 64.2112 142.153H75.4271L75.4022 113.963Z" fill="#D9DEEE"/>
<path d="M75.4022 88.9519H76.6484V81.7239H64.1863C60.6088 81.7338 57.1811 83.161 54.6538 85.693C52.1265 88.2249 50.7056 91.6553 50.7023 95.2328V96.4042C50.7056 99.986 52.1299 103.42 54.6626 105.953C57.1953 108.485 60.6295 109.91 64.2112 109.913H75.4271L75.4022 88.9519Z" fill="#D9DEEE"/>
<path d="M252.314 238.036H263.53C267.111 238.032 270.545 236.608 273.078 234.075C275.611 231.543 277.035 228.109 277.038 224.527V223.355C277.035 219.774 275.611 216.339 273.078 213.807C270.545 211.274 267.111 209.85 263.53 209.846H252.314V238.036Z" fill="#D9DEEE"/>
<path d="M252.314 205.971H263.529C267.11 205.964 270.542 204.539 273.074 202.007C275.606 199.475 277.032 196.043 277.038 192.462V191.278C277.025 187.699 275.593 184.27 273.056 181.745C270.519 179.22 267.084 177.803 263.504 177.807H252.289L252.314 205.971Z" fill="#D9DEEE"/>
<path d="M252.314 174.217H263.529C267.109 174.214 270.541 172.791 273.074 170.261C275.606 167.731 277.032 164.3 277.038 160.721V159.475C277.015 155.9 275.579 152.48 273.044 149.961C270.508 147.442 267.079 146.028 263.504 146.028H252.289L252.314 174.217Z" fill="#D9DEEE"/>
<path d="M252.314 142.153H263.529C267.107 142.143 270.535 140.715 273.062 138.184C275.589 135.652 277.01 132.221 277.013 128.644V127.472C277.01 123.891 275.586 120.456 273.053 117.924C270.52 115.391 267.086 113.967 263.504 113.963H252.289L252.314 142.153Z" fill="#D9DEEE"/>
<path d="M249.821 88.9519V80.4776V73.3867H77.8945V80.4776V88.9519H249.821Z" fill="white"/>
<path d="M249.809 45.7583H77.8945V54.0954H249.809V45.7583Z" fill="white"/>
<path d="M249.809 55.3416H77.8945V72.1404H249.809V55.3416Z" fill="white"/>
<path d="M252.314 239.282H263.529C267.442 239.278 271.193 237.723 273.959 234.956C276.726 232.19 278.281 228.439 278.285 224.527V223.355C278.281 219.443 276.726 215.692 273.959 212.925C271.193 210.159 267.442 208.603 263.529 208.6H252.314V207.217H263.529C267.442 207.214 271.193 205.658 273.959 202.892C276.726 200.125 278.281 196.374 278.285 192.462V191.278C278.271 187.368 276.708 183.622 273.937 180.863C271.167 178.104 267.415 176.557 263.505 176.56H252.289V175.488H263.505C267.415 175.485 271.164 173.931 273.93 171.168C276.696 168.404 278.253 164.656 278.26 160.746V159.5C278.246 155.594 276.686 151.852 273.921 149.094C271.156 146.336 267.41 144.785 263.505 144.782H252.289V143.399H263.505C267.417 143.395 271.168 141.84 273.934 139.073C276.701 136.307 278.256 132.556 278.26 128.643V127.472C278.256 123.56 276.701 119.809 273.934 117.042C271.168 114.276 267.417 112.72 263.505 112.717H252.289V111.159H263.505C267.417 111.156 271.168 109.6 273.934 106.834C276.701 104.067 278.256 100.316 278.26 96.4041V95.2327C278.256 91.3204 276.701 87.5693 273.934 84.8029C271.168 82.0365 267.417 80.4809 263.505 80.4776H251.042V44.4622H76.5735V80.4776H64.1114C60.2164 80.5071 56.4909 82.0743 53.746 84.8379C51.0011 87.6015 49.4592 91.3376 49.456 95.2327V96.4041C49.4593 100.316 51.0149 104.067 53.7813 106.834C56.5477 109.6 60.2988 111.156 64.2111 111.159H75.427V112.717H64.2111C60.2988 112.72 56.5477 114.276 53.7813 117.042C51.0149 119.809 49.4593 123.56 49.456 127.472V128.643C49.4593 132.556 51.0149 136.307 53.7813 139.073C56.5477 141.84 60.2988 143.395 64.2111 143.399H75.427V144.782H64.2111C60.2988 144.785 56.5477 146.341 53.7813 149.107C51.0149 151.874 49.4593 155.625 49.456 159.537V160.783C49.4626 164.693 51.0197 168.441 53.7857 171.205C56.5518 173.969 60.301 175.523 64.2111 175.526H75.427V176.56H64.2111C60.3053 176.563 56.5598 178.114 53.7945 180.872C51.0292 183.631 49.4692 187.372 49.456 191.278V192.462C49.4593 196.374 51.0149 200.125 53.7813 202.892C56.5477 205.658 60.2988 207.214 64.2111 207.217H75.427V208.6H64.2111C60.2988 208.603 56.5477 210.159 53.7813 212.925C51.0149 215.692 49.4593 219.443 49.456 223.355V224.527C49.4593 228.439 51.0149 232.19 53.7813 234.956C56.5477 237.723 60.2988 239.278 64.2111 239.282H75.427V240.64H35V250.921H65.5072V295.349H262.321V250.921H292.965V240.64H252.339L252.314 239.282ZM256.414 241.886H259.056L253.286 247.656V245.014L256.414 241.886ZM263.48 241.886H266.122L253.286 254.722V252.08L263.48 241.886ZM279.531 249.675H276.876L284.678 241.886H287.32L279.531 249.675ZM291.694 241.936V244.578L286.584 249.675H283.942L291.694 241.936ZM272.465 249.675H269.823L277.612 241.886H280.254L272.465 249.675ZM265.399 249.675H262.757L270.546 241.886H273.188L265.399 249.675ZM261.074 251.333V253.987L253.286 261.776V259.134L261.074 251.333ZM261.074 258.399V261.053L253.286 268.842V266.187L261.074 258.399ZM261.074 265.465V268.107L253.286 275.895V273.266L261.074 265.465ZM261.074 272.531V275.173L253.286 282.961V280.319L261.074 272.531ZM249.235 294.09H246.594L261.074 279.597V282.239L249.235 294.09ZM261.074 286.613V289.255L256.301 294.04H253.66L261.074 286.613ZM242.169 294.09H239.528L247.316 286.301H249.958L242.169 294.09ZM66.7534 254.922L74.5422 247.133V249.775L66.7534 257.564V254.922ZM79.1407 242.086H81.01V240.84H79.1407V113.963H81.01V112.717H79.1407V92.6904H248.625V112.717H246.756V113.963H248.625V240.84H246.756V242.086H248.625V262.112H79.1407V242.086ZM50.7022 128.681V127.509C50.6989 125.733 51.0458 123.973 51.7231 122.33C52.4004 120.688 53.3947 119.195 54.6493 117.937C55.9039 116.679 57.3941 115.68 59.0348 114.998C60.6754 114.317 62.4344 113.965 64.2111 113.963H75.427V142.152H64.2111C60.6293 142.149 57.1952 140.725 54.6625 138.192C52.1298 135.659 50.7055 132.225 50.7022 128.643V128.681ZM50.7022 96.4415V95.27C50.6989 93.4933 51.0458 91.7334 51.7231 90.0909C52.4004 88.4483 53.3947 86.9553 54.6493 85.6973C55.9039 84.4392 57.3941 83.4408 59.0348 82.759C60.6754 82.0772 62.4344 81.7254 64.2111 81.7238H76.6732V88.9518H75.427V109.913H64.2111C60.6293 109.91 57.1952 108.485 54.6625 105.953C52.1298 103.42 50.7055 99.9859 50.7022 96.4041V96.4415ZM249.821 45.7084V54.0455H77.8446V45.7084H249.821ZM77.8446 72.0906V55.3415H249.821V72.1404L77.8446 72.0906ZM77.8446 73.3368H249.821V88.9518H77.8446V73.3866V73.3368ZM248.575 272.593H79.0908V265.801H248.575V272.593ZM66.7534 261.938L74.5422 254.149V256.791L66.7534 264.58V261.938ZM66.7534 269.004L74.5422 261.302V263.944L66.7534 271.733V269.004ZM66.7534 276.07L74.5422 268.281V270.923L66.7534 278.749V276.07ZM66.7534 283.136L74.5422 275.347V277.989L66.7534 285.778V283.136ZM66.7534 290.202L74.5422 282.488V285.142L66.7534 292.931V290.202ZM77.7449 286.264H80.3993L72.5981 294.053H69.9561L77.7449 286.264ZM84.8109 286.264H87.4529L79.6641 294.053H77.0221L84.8109 286.264ZM91.8769 286.264H94.5189L86.7301 294.053H84.0881L91.8769 286.264ZM98.9429 286.264H101.585L93.7961 294.053H91.1541L98.9429 286.264ZM106.009 286.264H108.651L100.862 294.053H98.2201L106.009 286.264ZM113.075 286.264H115.717L107.928 294.053H105.286L113.075 286.264ZM120.141 286.264H122.783L114.994 294.053H112.352L120.141 286.264ZM127.207 286.264H129.849L122.06 294.053H119.418L127.207 286.264ZM134.273 286.264H136.915L129.126 294.053H126.484L134.273 286.264ZM141.339 286.264H143.981L136.192 294.053H133.55L141.339 286.264ZM148.405 286.264H151.047L143.258 294.053H140.616L148.405 286.264ZM155.471 286.264H158.113L150.324 294.053H147.682L155.471 286.264ZM162.537 286.264H165.179L157.39 294.053H154.736L162.537 286.264ZM169.59 286.264H172.245L164.456 294.053H161.802L169.59 286.264ZM176.656 286.264H179.311L171.51 294.053H168.868L176.656 286.264ZM183.722 286.264H186.364L178.576 294.053H175.934L183.722 286.264ZM190.788 286.264H193.43L185.642 294.053H183L190.788 286.264ZM197.854 286.264H200.496L192.708 294.053H190.066L197.854 286.264ZM204.92 286.264H207.562L199.774 294.053H197.132L204.92 286.264ZM211.986 286.264H214.628L206.84 294.053H204.198L211.986 286.264ZM219.052 286.264H221.694L213.906 294.053H211.264L219.052 286.264ZM226.118 286.264H228.76L220.972 294.053H218.33L226.118 286.264ZM233.184 286.264H235.826L228.037 294.053H225.396L233.184 286.264ZM240.25 286.264H242.892L235.104 294.053H232.462L240.25 286.264ZM277.013 223.305V224.477C277.01 228.059 275.586 231.493 273.053 234.025C270.52 236.558 267.086 237.982 263.505 237.986H252.289V209.846H263.505C267.086 209.85 270.52 211.274 273.053 213.807C275.586 216.339 277.01 219.773 277.013 223.355V223.305ZM277.013 191.228V192.412C277.007 195.993 275.581 199.425 273.05 201.957C270.518 204.489 267.085 205.914 263.505 205.921H252.289V177.806H263.505C267.08 177.81 270.508 179.229 273.04 181.753C275.572 184.278 277 187.703 277.013 191.278V191.228ZM277.013 159.487V160.733C277.007 164.313 275.581 167.744 273.049 170.274C270.516 172.804 267.084 174.226 263.505 174.23H252.289V146.028H263.505C267.085 146.035 270.518 147.46 273.05 149.992C275.581 152.524 277.007 155.956 277.013 159.537V159.487ZM277.013 127.422V128.594C277.01 132.175 275.586 135.61 273.053 138.142C270.52 140.675 267.086 142.099 263.505 142.103H252.289V113.963H263.505C267.086 113.966 270.52 115.391 273.053 117.923C275.586 120.456 277.01 123.89 277.013 127.472V127.422ZM50.7022 160.721V159.475C50.7252 155.905 52.1578 152.488 54.688 149.97C57.2182 147.451 60.6411 146.035 64.2111 146.028H75.427V174.217H64.2111C60.6315 174.214 57.1992 172.791 54.6669 170.261C52.1346 167.731 50.7088 164.3 50.7022 160.721V160.721ZM50.7022 192.462V191.278C50.7154 187.703 52.1441 184.278 54.6757 181.753C57.2073 179.229 60.6358 177.81 64.2111 177.806H75.427V205.971H64.2111C60.6303 205.964 57.1981 204.539 54.6661 202.007C52.1342 199.475 50.7088 196.043 50.7022 192.462V192.462ZM50.7022 224.527V223.355C50.7055 219.773 52.1298 216.339 54.6625 213.807C57.1952 211.274 60.6293 209.85 64.2111 209.846H75.427V238.036H64.2111C60.6293 238.032 57.1952 236.608 54.6625 234.075C52.1298 231.543 50.7055 228.108 50.7022 224.527V224.527ZM37.3927 241.886H39.9848L36.2462 245.625V242.983L37.3927 241.886ZM44.4587 241.886H47.1007L39.3119 249.675H36.6699L44.4587 241.886ZM51.5247 241.886H54.1667L46.3779 249.675H43.7235L51.5247 241.886ZM58.5907 241.886H61.2327L53.4439 249.675H50.8019L58.5907 241.886ZM65.6567 241.886H68.2987L60.5099 249.675H57.8679L65.6567 241.886ZM64.909 249.675L72.6978 241.886H74.5172V242.709L66.7284 250.498V249.675H64.909ZM260.688 294.102L261.05 293.741V294.102H260.688ZM290.983 249.675L291.669 249.002V249.675H290.983Z" fill="#00229A"/>
<path d="M248.563 265.851H79.1407V272.642H248.563V265.851Z" fill="white"/>
<path d="M216.435 225.611H215.189V228.727H212.074V229.973H216.435V225.611Z" fill="#00229A"/>
<path d="M160.144 228.727H152.729V229.973H160.144V228.727Z" fill="#00229A"/>
<path d="M189.816 228.727H182.401V229.973H189.816V228.727Z" fill="#00229A"/>
<path d="M130.484 228.727H123.07V229.973H130.484V228.727Z" fill="#00229A"/>
<path d="M145.314 228.727H137.899V229.973H145.314V228.727Z" fill="#00229A"/>
<path d="M174.986 228.727H167.572V229.973H174.986V228.727Z" fill="#00229A"/>
<path d="M204.646 228.727H197.231V229.973H204.646V228.727Z" fill="#00229A"/>
<path d="M112.527 225.611H111.28V229.973H115.642V228.727H112.527V225.611Z" fill="#00229A"/>
<path d="M112.527 181.109H111.28V188.524H112.527V181.109Z" fill="#00229A"/>
<path d="M112.527 136.607H111.28V144.022H112.527V136.607Z" fill="#00229A"/>
<path d="M112.527 195.939H111.28V203.354H112.527V195.939Z" fill="#00229A"/>
<path d="M112.527 151.437H111.28V158.852H112.527V151.437Z" fill="#00229A"/>
<path d="M112.527 166.279H111.28V173.694H112.527V166.279Z" fill="#00229A"/>
<path d="M112.527 210.781H111.28V218.196H112.527V210.781Z" fill="#00229A"/>
<path d="M111.28 129.192H112.527V126.076H115.642V124.83H111.28V129.192Z" fill="#00229A"/>
<path d="M174.986 124.83H167.572V126.076H174.986V124.83Z" fill="#00229A"/>
<path d="M204.646 124.83H197.231V126.076H204.646V124.83Z" fill="#00229A"/>
<path d="M189.816 124.83H182.401V126.076H189.816V124.83Z" fill="#00229A"/>
<path d="M130.484 124.83H123.07V126.076H130.484V124.83Z" fill="#00229A"/>
<path d="M160.144 124.83H152.729V126.076H160.144V124.83Z" fill="#00229A"/>
<path d="M145.314 124.83H137.899V126.076H145.314V124.83Z" fill="#00229A"/>
<path d="M215.189 129.192H216.435V124.83H212.074V126.076H215.189V129.192Z" fill="#00229A"/>
<path d="M216.435 210.781H215.189V218.196H216.435V210.781Z" fill="#00229A"/>
<path d="M216.435 166.279H215.189V173.694H216.435V166.279Z" fill="#00229A"/>
<path d="M216.435 195.939H215.189V203.354H216.435V195.939Z" fill="#00229A"/>
<path d="M216.435 181.109H215.189V188.524H216.435V181.109Z" fill="#00229A"/>
<path d="M216.435 136.607H215.189V144.022H216.435V136.607Z" fill="#00229A"/>
<path d="M216.435 151.437H215.189V158.852H216.435V151.437Z" fill="#00229A"/>
<path d="M219.85 229.038H218.604V232.154H215.488V233.4H219.85V229.038Z" fill="#00229A"/>
<path d="M207.55 232.154H199.612V233.4H207.55V232.154Z" fill="#00229A"/>
<path d="M191.661 232.154H183.722V233.4H191.661V232.154Z" fill="#00229A"/>
<path d="M128.104 232.154H120.166V233.4H128.104V232.154Z" fill="#00229A"/>
<path d="M143.993 232.154H136.055V233.4H143.993V232.154Z" fill="#00229A"/>
<path d="M159.882 232.154H151.944V233.4H159.882V232.154Z" fill="#00229A"/>
<path d="M175.772 232.154H167.833V233.4H175.772V232.154Z" fill="#00229A"/>
<path d="M109.112 229.038H107.866V233.4H112.228V232.154H109.112V229.038Z" fill="#00229A"/>
<path d="M109.112 197.26H107.866V205.198H109.112V197.26Z" fill="#00229A"/>
<path d="M109.112 213.149H107.866V221.088H109.112V213.149Z" fill="#00229A"/>
<path d="M109.112 165.482H107.866V173.42H109.112V165.482Z" fill="#00229A"/>
<path d="M109.112 133.703H107.866V141.641H109.112V133.703Z" fill="#00229A"/>
<path d="M109.112 149.593H107.866V157.531H109.112V149.593Z" fill="#00229A"/>
<path d="M109.112 181.371H107.866V189.309H109.112V181.371Z" fill="#00229A"/>
<path d="M112.228 121.403H107.866V125.765H109.112V122.649H112.228V121.403Z" fill="#00229A"/>
<path d="M191.661 121.403H183.722V122.649H191.661V121.403Z" fill="#00229A"/>
<path d="M207.55 121.403H199.612V122.649H207.55V121.403Z" fill="#00229A"/>
<path d="M175.772 121.403H167.833V122.649H175.772V121.403Z" fill="#00229A"/>
<path d="M159.882 121.403H151.944V122.649H159.882V121.403Z" fill="#00229A"/>
<path d="M143.993 121.403H136.055V122.649H143.993V121.403Z" fill="#00229A"/>
<path d="M128.104 121.403H120.166V122.649H128.104V121.403Z" fill="#00229A"/>
<path d="M218.604 125.765H219.85V121.403H215.488V122.649H218.604V125.765Z" fill="#00229A"/>
<path d="M219.85 181.371H218.604V189.309H219.85V181.371Z" fill="#00229A"/>
<path d="M219.85 213.149H218.604V221.088H219.85V213.149Z" fill="#00229A"/>
<path d="M219.85 197.26H218.604V205.198H219.85V197.26Z" fill="#00229A"/>
<path d="M219.85 133.703H218.604V141.641H219.85V133.703Z" fill="#00229A"/>
<path d="M219.85 149.593H218.604V157.531H219.85V149.593Z" fill="#00229A"/>
<path d="M219.85 165.482H218.604V173.42H219.85V165.482Z" fill="#00229A"/>
<path d="M147.171 125.453H145.925V129.192H147.171V125.453Z" fill="#00229A"/>
<path d="M147.171 166.279H145.925V173.694H147.171V166.279Z" fill="#00229A"/>
<path d="M147.171 136.607H145.925V144.022H147.171V136.607Z" fill="#00229A"/>
<path d="M147.171 151.437H145.925V158.852H147.171V151.437Z" fill="#00229A"/>
<path d="M147.171 195.939H145.925V203.354H147.171V195.939Z" fill="#00229A"/>
<path d="M147.171 181.109H145.925V188.524H147.171V181.109Z" fill="#00229A"/>
<path d="M147.171 210.781H145.925V218.196H147.171V210.781Z" fill="#00229A"/>
<path d="M147.171 225.611H145.925V229.35H147.171V225.611Z" fill="#00229A"/>
<path d="M181.803 125.453H180.557V129.192H181.803V125.453Z" fill="#00229A"/>
<path d="M181.803 166.279H180.557V173.694H181.803V166.279Z" fill="#00229A"/>
<path d="M181.803 151.437H180.557V158.852H181.803V151.437Z" fill="#00229A"/>
<path d="M181.803 136.607H180.557V144.022H181.803V136.607Z" fill="#00229A"/>
<path d="M181.803 210.781H180.557V218.196H181.803V210.781Z" fill="#00229A"/>
<path d="M181.803 181.109H180.557V188.524H181.803V181.109Z" fill="#00229A"/>
<path d="M181.803 195.939H180.557V203.354H181.803V195.939Z" fill="#00229A"/>
<path d="M181.803 225.611H180.557V229.35H181.803V225.611Z" fill="#00229A"/>
<path d="M109.835 112.717H102.632V113.963H109.835V112.717Z" fill="#00229A"/>
<path d="M167.459 112.717H160.256V113.963H167.459V112.717Z" fill="#00229A"/>
<path d="M225.084 112.717H217.881V113.963H225.084V112.717Z" fill="#00229A"/>
<path d="M210.678 112.717H203.475V113.963H210.678V112.717Z" fill="#00229A"/>
<path d="M95.4163 112.717H88.2132V113.963H95.4163V112.717Z" fill="#00229A"/>
<path d="M124.241 112.717H117.038V113.963H124.241V112.717Z" fill="#00229A"/>
<path d="M239.503 112.717H232.299V113.963H239.503V112.717Z" fill="#00229A"/>
<path d="M181.865 112.717H174.662V113.963H181.865V112.717Z" fill="#00229A"/>
<path d="M153.053 112.717H145.85V113.963H153.053V112.717Z" fill="#00229A"/>
<path d="M138.647 112.717H131.444V113.963H138.647V112.717Z" fill="#00229A"/>
<path d="M196.272 112.717H189.068V113.963H196.272V112.717Z" fill="#00229A"/>
<path d="M196.272 240.84H189.068V242.086H196.272V240.84Z" fill="#00229A"/>
<path d="M239.503 240.84H232.299V242.086H239.503V240.84Z" fill="#00229A"/>
<path d="M109.835 240.84H102.632V242.086H109.835V240.84Z" fill="#00229A"/>
<path d="M153.053 240.84H145.85V242.086H153.053V240.84Z" fill="#00229A"/>
<path d="M225.084 240.84H217.881V242.086H225.084V240.84Z" fill="#00229A"/>
<path d="M95.4163 240.84H88.2132V242.086H95.4163V240.84Z" fill="#00229A"/>
<path d="M210.678 240.84H203.475V242.086H210.678V240.84Z" fill="#00229A"/>
<path d="M181.865 240.84H174.662V242.086H181.865V240.84Z" fill="#00229A"/>
<path d="M138.647 240.84H131.444V242.086H138.647V240.84Z" fill="#00229A"/>
<path d="M167.459 240.84H160.256V242.086H167.459V240.84Z" fill="#00229A"/>
<path d="M124.241 240.84H117.038V242.086H124.241V240.84Z" fill="#00229A"/>
<path d="M81.1843 36.2246L79.6889 34.7292H109.498L108.003 36.2246H109.797L111.903 34.1186L109.797 32H108.003L109.498 33.4954H79.6889L81.1843 32H79.3898L77.2712 34.1186L79.3898 36.2246H81.1843Z" fill="#00229A"/>
<path d="M219.713 36.2246L218.23 34.7292H248.027L246.531 36.2246H248.326L250.444 34.1186L248.326 32H246.531L248.027 33.4954H218.23L219.713 32H217.918L215.812 34.1186L217.918 36.2246H219.713Z" fill="#00229A"/>
<path d="M115.817 36.2246L114.321 34.7292H213.395L211.899 36.2246H213.694L215.812 34.1186L213.694 32H211.899L213.395 33.4954H114.321L115.817 32H114.022L111.903 34.1186L114.022 36.2246H115.817Z" fill="#00229A"/>
<path d="M81.1391 28.168V29H74.7561V28.337L78.5391 24.632C79.0158 24.164 79.3365 23.761 79.5011 23.423C79.6745 23.0763 79.7611 22.7297 79.7611 22.383C79.7611 21.8457 79.5748 21.4297 79.2021 21.135C78.8381 20.8317 78.3138 20.68 77.6291 20.68C76.5631 20.68 75.7355 21.018 75.1461 21.694L74.4831 21.122C74.8385 20.706 75.2891 20.3853 75.8351 20.16C76.3898 19.9347 77.0138 19.822 77.7071 19.822C78.6345 19.822 79.3668 20.043 79.9041 20.485C80.4501 20.9183 80.7231 21.5163 80.7231 22.279C80.7231 22.747 80.6191 23.1977 80.4111 23.631C80.2031 24.0643 79.8088 24.5627 79.2281 25.126L76.1341 28.168H81.1391ZM85.63 29.078C84.928 29.078 84.2997 28.8917 83.745 28.519C83.199 28.1463 82.77 27.6133 82.458 26.92C82.1547 26.218 82.003 25.3947 82.003 24.45C82.003 23.5053 82.1547 22.6863 82.458 21.993C82.77 21.291 83.199 20.7537 83.745 20.381C84.2997 20.0083 84.928 19.822 85.63 19.822C86.332 19.822 86.956 20.0083 87.502 20.381C88.0567 20.7537 88.49 21.291 88.802 21.993C89.114 22.6863 89.27 23.5053 89.27 24.45C89.27 25.3947 89.114 26.218 88.802 26.92C88.49 27.6133 88.0567 28.1463 87.502 28.519C86.956 28.8917 86.332 29.078 85.63 29.078ZM85.63 28.22C86.1587 28.22 86.6224 28.0727 87.021 27.778C87.4284 27.4833 87.7447 27.0543 87.97 26.491C88.1954 25.9277 88.308 25.2473 88.308 24.45C88.308 23.6527 88.1954 22.9723 87.97 22.409C87.7447 21.8457 87.4284 21.4167 87.021 21.122C86.6224 20.8273 86.1587 20.68 85.63 20.68C85.1014 20.68 84.6334 20.8273 84.226 21.122C83.8274 21.4167 83.5154 21.8457 83.29 22.409C83.0647 22.9723 82.952 23.6527 82.952 24.45C82.952 25.2473 83.0647 25.9277 83.29 26.491C83.5154 27.0543 83.8274 27.4833 84.226 27.778C84.6334 28.0727 85.1014 28.22 85.63 28.22ZM96.9378 29.065C96.2618 29.065 95.6551 28.9177 95.1178 28.623C94.5891 28.3283 94.1731 27.9167 93.8698 27.388C93.5664 26.8507 93.4148 26.2483 93.4148 25.581C93.4148 24.9137 93.5664 24.3157 93.8698 23.787C94.1731 23.2583 94.5891 22.8467 95.1178 22.552C95.6551 22.2573 96.2618 22.11 96.9378 22.11C97.5271 22.11 98.0514 22.227 98.5108 22.461C98.9788 22.6863 99.3471 23.02 99.6158 23.462L98.9268 23.93C98.7014 23.592 98.4154 23.3407 98.0688 23.176C97.7221 23.0027 97.3451 22.916 96.9378 22.916C96.4438 22.916 95.9974 23.0287 95.5988 23.254C95.2088 23.4707 94.9011 23.7827 94.6758 24.19C94.4591 24.5973 94.3508 25.061 94.3508 25.581C94.3508 26.1097 94.4591 26.5777 94.6758 26.985C94.9011 27.3837 95.2088 27.6957 95.5988 27.921C95.9974 28.1377 96.4438 28.246 96.9378 28.246C97.3451 28.246 97.7221 28.1637 98.0688 27.999C98.4154 27.8343 98.7014 27.583 98.9268 27.245L99.6158 27.713C99.3471 28.155 98.9788 28.493 98.5108 28.727C98.0428 28.9523 97.5184 29.065 96.9378 29.065ZM109.697 22.11C110.555 22.11 111.227 22.357 111.712 22.851C112.206 23.345 112.453 24.073 112.453 25.035V29H111.53V25.126C111.53 24.4153 111.357 23.8737 111.01 23.501C110.672 23.1283 110.191 22.942 109.567 22.942C108.856 22.942 108.297 23.163 107.89 23.605C107.483 24.0383 107.279 24.6407 107.279 25.412V29H106.356V25.126C106.356 24.4153 106.183 23.8737 105.836 23.501C105.498 23.1283 105.013 22.942 104.38 22.942C103.678 22.942 103.119 23.163 102.703 23.605C102.296 24.0383 102.092 24.6407 102.092 25.412V29H101.169V22.162H102.053V23.41C102.296 22.994 102.634 22.6733 103.067 22.448C103.5 22.2227 103.999 22.11 104.562 22.11C105.134 22.11 105.628 22.2313 106.044 22.474C106.469 22.7167 106.785 23.0763 106.993 23.553C107.244 23.1023 107.604 22.7513 108.072 22.5C108.549 22.24 109.09 22.11 109.697 22.11Z" fill="#00229A"/>
<path d="M219.695 28.168V29H213.312V28.337L217.095 24.632C217.571 24.164 217.892 23.761 218.057 23.423C218.23 23.0763 218.317 22.7297 218.317 22.383C218.317 21.8457 218.13 21.4297 217.758 21.135C217.394 20.8317 216.869 20.68 216.185 20.68C215.119 20.68 214.291 21.018 213.702 21.694L213.039 21.122C213.394 20.706 213.845 20.3853 214.391 20.16C214.945 19.9347 215.569 19.822 216.263 19.822C217.19 19.822 217.922 20.043 218.46 20.485C219.006 20.9183 219.279 21.5163 219.279 22.279C219.279 22.747 219.175 23.1977 218.967 23.631C218.759 24.0643 218.364 24.5627 217.784 25.126L214.69 28.168H219.695ZM224.185 29.078C223.483 29.078 222.855 28.8917 222.3 28.519C221.754 28.1463 221.325 27.6133 221.013 26.92C220.71 26.218 220.558 25.3947 220.558 24.45C220.558 23.5053 220.71 22.6863 221.013 21.993C221.325 21.291 221.754 20.7537 222.3 20.381C222.855 20.0083 223.483 19.822 224.185 19.822C224.887 19.822 225.511 20.0083 226.057 20.381C226.612 20.7537 227.045 21.291 227.357 21.993C227.669 22.6863 227.825 23.5053 227.825 24.45C227.825 25.3947 227.669 26.218 227.357 26.92C227.045 27.6133 226.612 28.1463 226.057 28.519C225.511 28.8917 224.887 29.078 224.185 29.078ZM224.185 28.22C224.714 28.22 225.178 28.0727 225.576 27.778C225.984 27.4833 226.3 27.0543 226.525 26.491C226.751 25.9277 226.863 25.2473 226.863 24.45C226.863 23.6527 226.751 22.9723 226.525 22.409C226.3 21.8457 225.984 21.4167 225.576 21.122C225.178 20.8273 224.714 20.68 224.185 20.68C223.657 20.68 223.189 20.8273 222.781 21.122C222.383 21.4167 222.071 21.8457 221.845 22.409C221.62 22.9723 221.507 23.6527 221.507 24.45C221.507 25.2473 221.62 25.9277 221.845 26.491C222.071 27.0543 222.383 27.4833 222.781 27.778C223.189 28.0727 223.657 28.22 224.185 28.22ZM235.493 29.065C234.817 29.065 234.211 28.9177 233.673 28.623C233.145 28.3283 232.729 27.9167 232.425 27.388C232.122 26.8507 231.97 26.2483 231.97 25.581C231.97 24.9137 232.122 24.3157 232.425 23.787C232.729 23.2583 233.145 22.8467 233.673 22.552C234.211 22.2573 234.817 22.11 235.493 22.11C236.083 22.11 236.607 22.227 237.066 22.461C237.534 22.6863 237.903 23.02 238.171 23.462L237.482 23.93C237.257 23.592 236.971 23.3407 236.624 23.176C236.278 23.0027 235.901 22.916 235.493 22.916C234.999 22.916 234.553 23.0287 234.154 23.254C233.764 23.4707 233.457 23.7827 233.231 24.19C233.015 24.5973 232.906 25.061 232.906 25.581C232.906 26.1097 233.015 26.5777 233.231 26.985C233.457 27.3837 233.764 27.6957 234.154 27.921C234.553 28.1377 234.999 28.246 235.493 28.246C235.901 28.246 236.278 28.1637 236.624 27.999C236.971 27.8343 237.257 27.583 237.482 27.245L238.171 27.713C237.903 28.155 237.534 28.493 237.066 28.727C236.598 28.9523 236.074 29.065 235.493 29.065ZM248.252 22.11C249.11 22.11 249.782 22.357 250.267 22.851C250.761 23.345 251.008 24.073 251.008 25.035V29H250.085V25.126C250.085 24.4153 249.912 23.8737 249.565 23.501C249.227 23.1283 248.746 22.942 248.122 22.942C247.412 22.942 246.853 23.163 246.445 23.605C246.038 24.0383 245.834 24.6407 245.834 25.412V29H244.911V25.126C244.911 24.4153 244.738 23.8737 244.391 23.501C244.053 23.1283 243.568 22.942 242.935 22.942C242.233 22.942 241.674 23.163 241.258 23.605C240.851 24.0383 240.647 24.6407 240.647 25.412V29H239.724V22.162H240.608V23.41C240.851 22.994 241.189 22.6733 241.622 22.448C242.056 22.2227 242.554 22.11 243.117 22.11C243.689 22.11 244.183 22.2313 244.599 22.474C245.024 22.7167 245.34 23.0763 245.548 23.553C245.8 23.1023 246.159 22.7513 246.627 22.5C247.104 22.24 247.646 22.11 248.252 22.11Z" fill="#00229A"/>
<path d="M148.659 23.553C149.257 23.553 149.785 23.6657 150.245 23.891C150.713 24.1163 151.077 24.437 151.337 24.853C151.597 25.2603 151.727 25.737 151.727 26.283C151.727 26.8377 151.592 27.3273 151.324 27.752C151.055 28.1767 150.682 28.506 150.206 28.74C149.738 28.9653 149.209 29.078 148.62 29.078C147.415 29.078 146.492 28.6837 145.851 27.895C145.209 27.0977 144.889 25.9753 144.889 24.528C144.889 23.514 145.062 22.656 145.409 21.954C145.755 21.252 146.241 20.7233 146.865 20.368C147.489 20.004 148.217 19.822 149.049 19.822C149.95 19.822 150.669 19.9867 151.207 20.316L150.83 21.07C150.396 20.784 149.807 20.641 149.062 20.641C148.056 20.641 147.268 20.9617 146.696 21.603C146.124 22.2357 145.838 23.1587 145.838 24.372C145.838 24.5887 145.851 24.8357 145.877 25.113C146.102 24.619 146.462 24.2377 146.956 23.969C147.45 23.6917 148.017 23.553 148.659 23.553ZM148.581 28.285C149.239 28.285 149.772 28.1073 150.18 27.752C150.596 27.388 150.804 26.907 150.804 26.309C150.804 25.711 150.596 25.2343 150.18 24.879C149.772 24.5237 149.218 24.346 148.516 24.346C148.056 24.346 147.649 24.4327 147.294 24.606C146.947 24.7793 146.674 25.0177 146.475 25.321C146.275 25.6243 146.176 25.9623 146.176 26.335C146.176 26.6817 146.267 27.0023 146.449 27.297C146.639 27.5917 146.917 27.83 147.281 28.012C147.645 28.194 148.078 28.285 148.581 28.285ZM156.177 29.078C155.475 29.078 154.847 28.8917 154.292 28.519C153.746 28.1463 153.317 27.6133 153.005 26.92C152.702 26.218 152.55 25.3947 152.55 24.45C152.55 23.5053 152.702 22.6863 153.005 21.993C153.317 21.291 153.746 20.7537 154.292 20.381C154.847 20.0083 155.475 19.822 156.177 19.822C156.879 19.822 157.503 20.0083 158.049 20.381C158.604 20.7537 159.037 21.291 159.349 21.993C159.661 22.6863 159.817 23.5053 159.817 24.45C159.817 25.3947 159.661 26.218 159.349 26.92C159.037 27.6133 158.604 28.1463 158.049 28.519C157.503 28.8917 156.879 29.078 156.177 29.078ZM156.177 28.22C156.706 28.22 157.17 28.0727 157.568 27.778C157.976 27.4833 158.292 27.0543 158.517 26.491C158.743 25.9277 158.855 25.2473 158.855 24.45C158.855 23.6527 158.743 22.9723 158.517 22.409C158.292 21.8457 157.976 21.4167 157.568 21.122C157.17 20.8273 156.706 20.68 156.177 20.68C155.649 20.68 155.181 20.8273 154.773 21.122C154.375 21.4167 154.063 21.8457 153.837 22.409C153.612 22.9723 153.499 23.6527 153.499 24.45C153.499 25.2473 153.612 25.9277 153.837 26.491C154.063 27.0543 154.375 27.4833 154.773 27.778C155.181 28.0727 155.649 28.22 156.177 28.22ZM167.485 29.065C166.809 29.065 166.202 28.9177 165.665 28.623C165.136 28.3283 164.72 27.9167 164.417 27.388C164.114 26.8507 163.962 26.2483 163.962 25.581C163.962 24.9137 164.114 24.3157 164.417 23.787C164.72 23.2583 165.136 22.8467 165.665 22.552C166.202 22.2573 166.809 22.11 167.485 22.11C168.074 22.11 168.599 22.227 169.058 22.461C169.526 22.6863 169.894 23.02 170.163 23.462L169.474 23.93C169.249 23.592 168.963 23.3407 168.616 23.176C168.269 23.0027 167.892 22.916 167.485 22.916C166.991 22.916 166.545 23.0287 166.146 23.254C165.756 23.4707 165.448 23.7827 165.223 24.19C165.006 24.5973 164.898 25.061 164.898 25.581C164.898 26.1097 165.006 26.5777 165.223 26.985C165.448 27.3837 165.756 27.6957 166.146 27.921C166.545 28.1377 166.991 28.246 167.485 28.246C167.892 28.246 168.269 28.1637 168.616 27.999C168.963 27.8343 169.249 27.583 169.474 27.245L170.163 27.713C169.894 28.155 169.526 28.493 169.058 28.727C168.59 28.9523 168.066 29.065 167.485 29.065ZM180.244 22.11C181.102 22.11 181.774 22.357 182.259 22.851C182.753 23.345 183 24.073 183 25.035V29H182.077V25.126C182.077 24.4153 181.904 23.8737 181.557 23.501C181.219 23.1283 180.738 22.942 180.114 22.942C179.404 22.942 178.845 23.163 178.437 23.605C178.03 24.0383 177.826 24.6407 177.826 25.412V29H176.903V25.126C176.903 24.4153 176.73 23.8737 176.383 23.501C176.045 23.1283 175.56 22.942 174.927 22.942C174.225 22.942 173.666 23.163 173.25 23.605C172.843 24.0383 172.639 24.6407 172.639 25.412V29H171.716V22.162H172.6V23.41C172.843 22.994 173.181 22.6733 173.614 22.448C174.048 22.2227 174.546 22.11 175.109 22.11C175.681 22.11 176.175 22.2313 176.591 22.474C177.016 22.7167 177.332 23.0763 177.54 23.553C177.792 23.1023 178.151 22.7513 178.619 22.5C179.096 22.24 179.638 22.11 180.244 22.11Z" fill="#00229A"/>
<path d="M149.302 177.307C149.935 177.437 150.416 177.693 150.745 178.074C151.074 178.447 151.239 178.936 151.239 179.543C151.239 180.332 150.957 180.938 150.394 181.363C149.839 181.788 149.02 182 147.937 182H143.907V172.9H147.69C148.661 172.9 149.419 173.099 149.965 173.498C150.511 173.897 150.784 174.473 150.784 175.227C150.784 175.738 150.654 176.172 150.394 176.527C150.134 176.874 149.77 177.134 149.302 177.307ZM144.856 177.021H147.638C148.34 177.021 148.877 176.878 149.25 176.592C149.631 176.306 149.822 175.89 149.822 175.344C149.822 174.798 149.631 174.382 149.25 174.096C148.877 173.81 148.34 173.667 147.638 173.667H144.856V177.021ZM147.937 181.233C149.506 181.233 150.29 180.648 150.29 179.478C150.29 178.334 149.506 177.762 147.937 177.762H144.856V181.233H147.937ZM153.384 172.9H154.333V182H153.384V172.9ZM160.152 177.827H158.072V182H157.136V172.9H158.072V176.982H160.152L163.233 172.9H164.273L160.893 177.32L164.468 182H163.363L160.152 177.827ZM173.292 172.9V182H172.343V177.801H166.649V182H165.687V172.9H166.649V176.956H172.343V172.9H173.292ZM180.094 182.078C179.193 182.078 178.374 181.879 177.637 181.48C176.909 181.073 176.337 180.518 175.921 179.816C175.514 179.114 175.31 178.325 175.31 177.45C175.31 176.575 175.514 175.786 175.921 175.084C176.337 174.382 176.909 173.832 177.637 173.433C178.374 173.026 179.193 172.822 180.094 172.822C180.996 172.822 181.806 173.021 182.525 173.42C183.253 173.819 183.825 174.373 184.241 175.084C184.657 175.786 184.865 176.575 184.865 177.45C184.865 178.325 184.657 179.118 184.241 179.829C183.825 180.531 183.253 181.081 182.525 181.48C181.806 181.879 180.996 182.078 180.094 182.078ZM180.094 181.22C180.814 181.22 181.464 181.06 182.044 180.739C182.625 180.41 183.08 179.959 183.409 179.387C183.739 178.806 183.903 178.161 183.903 177.45C183.903 176.739 183.739 176.098 183.409 175.526C183.08 174.945 182.625 174.495 182.044 174.174C181.464 173.845 180.814 173.68 180.094 173.68C179.375 173.68 178.721 173.845 178.131 174.174C177.551 174.495 177.091 174.945 176.753 175.526C176.424 176.098 176.259 176.739 176.259 177.45C176.259 178.161 176.424 178.806 176.753 179.387C177.091 179.959 177.551 180.41 178.131 180.739C178.721 181.06 179.375 181.22 180.094 181.22Z" fill="#00229A"/>
<path d="M149.302 177.307L148.26 174.494L138.428 178.135L148.698 180.246L149.302 177.307ZM150.745 178.074L148.475 180.035L148.486 180.048L148.497 180.061L150.745 178.074ZM150.394 181.363L148.588 178.967L148.579 178.974L148.57 178.981L150.394 181.363ZM143.907 182H140.907V185H143.907V182ZM143.907 172.9V169.9H140.907V172.9H143.907ZM149.965 173.498L151.734 171.075L151.734 171.075L149.965 173.498ZM150.394 176.527L152.794 178.327L152.805 178.313L152.815 178.299L150.394 176.527ZM144.856 177.021H141.856V180.021H144.856V177.021ZM149.25 176.592L147.45 174.192L147.437 174.202L147.424 174.212L149.25 176.592ZM149.25 174.096L147.424 176.476L147.437 176.486L147.45 176.496L149.25 174.096ZM144.856 173.667V170.667H141.856V173.667H144.856ZM144.856 177.762V174.762H141.856V177.762H144.856ZM144.856 181.233H141.856V184.233H144.856V181.233ZM148.698 180.246C148.784 180.263 148.783 180.274 148.729 180.245C148.669 180.213 148.571 180.147 148.475 180.035L153.015 176.113C152.145 175.105 151.002 174.594 149.906 174.368L148.698 180.246ZM148.497 180.061C148.386 179.935 148.312 179.797 148.272 179.677C148.234 179.565 148.239 179.509 148.239 179.543H154.239C154.239 178.373 153.908 177.123 152.993 176.087L148.497 180.061ZM148.239 179.543C148.239 179.578 148.234 179.483 148.307 179.326C148.385 179.158 148.499 179.035 148.588 178.967L152.2 183.759C153.611 182.694 154.239 181.146 154.239 179.543H148.239ZM148.57 178.981C148.671 178.904 148.712 178.91 148.611 178.937C148.505 178.964 148.292 179 147.937 179V185C149.338 185 150.921 184.738 152.218 183.745L148.57 178.981ZM147.937 179H143.907V185H147.937V179ZM146.907 182V172.9H140.907V182H146.907ZM143.907 175.9H147.69V169.9H143.907V175.9ZM147.69 175.9C147.976 175.9 148.145 175.93 148.224 175.951C148.298 175.97 148.27 175.975 148.196 175.921L151.734 171.075C150.494 170.17 149.03 169.9 147.69 169.9V175.9ZM148.196 175.921C148.09 175.843 147.959 175.705 147.868 175.514C147.783 175.334 147.784 175.214 147.784 175.227H153.784C153.784 173.643 153.151 172.11 151.734 171.075L148.196 175.921ZM147.784 175.227C147.784 175.228 147.784 175.17 147.813 175.073C147.843 174.973 147.896 174.861 147.973 174.755L152.815 178.299C153.51 177.349 153.784 176.269 153.784 175.227H147.784ZM147.994 174.727C148.055 174.646 148.122 174.584 148.182 174.541C148.24 174.5 148.273 174.489 148.26 174.494L150.344 180.12C151.269 179.778 152.138 179.202 152.794 178.327L147.994 174.727ZM144.856 180.021H147.638V174.021H144.856V180.021ZM147.638 180.021C148.689 180.021 149.977 179.816 151.076 178.972L147.424 174.212C147.603 174.074 147.751 174.027 147.796 174.015C147.835 174.004 147.793 174.021 147.638 174.021V180.021ZM151.05 178.992C152.304 178.052 152.822 176.678 152.822 175.344H146.822C146.822 175.268 146.836 175.068 146.952 174.816C147.074 174.55 147.258 174.336 147.45 174.192L151.05 178.992ZM152.822 175.344C152.822 174.01 152.304 172.636 151.05 171.696L147.45 176.496C147.258 176.352 147.074 176.138 146.952 175.872C146.836 175.62 146.822 175.42 146.822 175.344H152.822ZM151.076 171.716C149.977 170.872 148.689 170.667 147.638 170.667V176.667C147.793 176.667 147.835 176.684 147.796 176.673C147.751 176.661 147.603 176.614 147.424 176.476L151.076 171.716ZM147.638 170.667H144.856V176.667H147.638V170.667ZM141.856 173.667V177.021H147.856V173.667H141.856ZM147.937 184.233C149.007 184.233 150.356 184.049 151.495 183.199C152.8 182.226 153.29 180.801 153.29 179.478H147.29C147.29 179.438 147.297 179.262 147.404 179.022C147.519 178.765 147.701 178.544 147.908 178.389C148.098 178.248 148.24 178.213 148.243 178.212C148.243 178.212 148.152 178.233 147.937 178.233V184.233ZM153.29 179.478C153.29 178.142 152.781 176.723 151.469 175.767C150.334 174.939 148.997 174.762 147.937 174.762V180.762C148.043 180.762 148.122 180.767 148.178 180.773C148.233 180.778 148.258 180.784 148.258 180.784C148.257 180.784 148.224 180.776 148.168 180.752C148.111 180.727 148.029 180.684 147.934 180.615C147.727 180.464 147.537 180.242 147.414 179.974C147.3 179.723 147.29 179.533 147.29 179.478H153.29ZM147.937 174.762H144.856V180.762H147.937V174.762ZM141.856 177.762V181.233H147.856V177.762H141.856ZM144.856 184.233H147.937V178.233H144.856V184.233ZM153.384 172.9V169.9H150.384V172.9H153.384ZM154.333 172.9H157.333V169.9H154.333V172.9ZM154.333 182V185H157.333V182H154.333ZM153.384 182H150.384V185H153.384V182ZM153.384 175.9H154.333V169.9H153.384V175.9ZM151.333 172.9V182H157.333V172.9H151.333ZM154.333 179H153.384V185H154.333V179ZM156.384 182V172.9H150.384V182H156.384ZM160.152 177.827L162.53 175.998L161.629 174.827H160.152V177.827ZM158.072 177.827V174.827H155.072V177.827H158.072ZM158.072 182V185H161.072V182H158.072ZM157.136 182H154.136V185H157.136V182ZM157.136 172.9V169.9H154.136V172.9H157.136ZM158.072 172.9H161.072V169.9H158.072V172.9ZM158.072 176.982H155.072V179.982H158.072V176.982ZM160.152 176.982V179.982H161.646L162.547 178.789L160.152 176.982ZM163.233 172.9V169.9H161.739L160.839 171.093L163.233 172.9ZM164.273 172.9L166.656 174.722L170.344 169.9H164.273V172.9ZM160.893 177.32L158.51 175.498L157.117 177.319L158.509 179.141L160.893 177.32ZM164.468 182V185H170.535L166.852 180.179L164.468 182ZM163.363 182L160.985 183.829L161.886 185H163.363V182ZM160.152 174.827H158.072V180.827H160.152V174.827ZM155.072 177.827V182H161.072V177.827H155.072ZM158.072 179H157.136V185H158.072V179ZM160.136 182V172.9H154.136V182H160.136ZM157.136 175.9H158.072V169.9H157.136V175.9ZM155.072 172.9V176.982H161.072V172.9H155.072ZM158.072 179.982H160.152V173.982H158.072V179.982ZM162.547 178.789L165.628 174.707L160.839 171.093L157.758 175.175L162.547 178.789ZM163.233 175.9H164.273V169.9H163.233V175.9ZM161.89 171.078L158.51 175.498L163.276 179.142L166.656 174.722L161.89 171.078ZM158.509 179.141L162.084 183.821L166.852 180.179L163.277 175.499L158.509 179.141ZM164.468 179H163.363V185H164.468V179ZM165.741 180.171L162.53 175.998L157.774 179.656L160.985 183.829L165.741 180.171ZM173.292 172.9H176.292V169.9H173.292V172.9ZM173.292 182V185H176.292V182H173.292ZM172.343 182H169.343V185H172.343V182ZM172.343 177.801H175.343V174.801H172.343V177.801ZM166.649 177.801V174.801H163.649V177.801H166.649ZM166.649 182V185H169.649V182H166.649ZM165.687 182H162.687V185H165.687V182ZM165.687 172.9V169.9H162.687V172.9H165.687ZM166.649 172.9H169.649V169.9H166.649V172.9ZM166.649 176.956H163.649V179.956H166.649V176.956ZM172.343 176.956V179.956H175.343V176.956H172.343ZM172.343 172.9V169.9H169.343V172.9H172.343ZM170.292 172.9V182H176.292V172.9H170.292ZM173.292 179H172.343V185H173.292V179ZM175.343 182V177.801H169.343V182H175.343ZM172.343 174.801H166.649V180.801H172.343V174.801ZM163.649 177.801V182H169.649V177.801H163.649ZM166.649 179H165.687V185H166.649V179ZM168.687 182V172.9H162.687V182H168.687ZM165.687 175.9H166.649V169.9H165.687V175.9ZM163.649 172.9V176.956H169.649V172.9H163.649ZM166.649 179.956H172.343V173.956H166.649V179.956ZM175.343 176.956V172.9H169.343V176.956H175.343ZM172.343 175.9H173.292V169.9H172.343V175.9ZM177.637 181.48L176.172 184.098L176.191 184.108L176.21 184.118L177.637 181.48ZM175.921 179.816L173.327 181.322L173.333 181.334L173.34 181.345L175.921 179.816ZM175.921 175.084L173.34 173.555L173.333 173.566L173.327 173.578L175.921 175.084ZM177.637 173.433L179.078 176.064L179.089 176.058L177.637 173.433ZM182.525 173.42L181.071 176.044L181.078 176.048L181.084 176.051L182.525 173.42ZM184.241 175.084L181.652 176.6L181.656 176.606L181.66 176.613L184.241 175.084ZM184.241 179.829L186.822 181.358L186.826 181.351L186.83 181.345L184.241 179.829ZM182.525 181.48L181.084 178.849L181.078 178.852L181.071 178.856L182.525 181.48ZM182.044 180.739L183.495 183.365L183.51 183.357L183.524 183.349L182.044 180.739ZM183.409 179.387L186.009 180.884L186.014 180.875L186.019 180.867L183.409 179.387ZM183.409 175.526L180.8 177.006L180.805 177.014L180.809 177.023L183.409 175.526ZM182.044 174.174L180.564 176.784L180.579 176.792L180.594 176.8L182.044 174.174ZM178.131 174.174L179.582 176.8L179.588 176.797L179.595 176.793L178.131 174.174ZM176.753 175.526L174.161 174.017L174.157 174.023L174.153 174.029L176.753 175.526ZM176.753 179.387L174.144 180.867L174.157 180.89L174.171 180.913L176.753 179.387ZM178.131 180.739L176.651 183.349L176.674 183.362L176.698 183.374L178.131 180.739ZM180.094 179.078C179.653 179.078 179.33 178.985 179.065 178.842L176.21 184.118C177.418 184.772 178.733 185.078 180.094 185.078V179.078ZM179.102 178.862C178.825 178.707 178.642 178.523 178.502 178.287L173.34 181.345C174.032 182.513 174.994 183.439 176.172 184.098L179.102 178.862ZM178.516 178.31C178.395 178.101 178.31 177.839 178.31 177.45H172.31C172.31 178.811 172.633 180.127 173.327 181.322L178.516 178.31ZM178.31 177.45C178.31 177.061 178.395 176.799 178.516 176.59L173.327 173.578C172.633 174.773 172.31 176.089 172.31 177.45H178.31ZM178.502 176.613C178.639 176.383 178.814 176.209 179.078 176.064L176.196 170.802C175.005 171.454 174.036 172.381 173.34 173.555L178.502 176.613ZM179.089 176.058C179.35 175.914 179.664 175.822 180.094 175.822V169.822C178.722 169.822 177.398 170.137 176.186 170.808L179.089 176.058ZM180.094 175.822C180.537 175.822 180.839 175.915 181.071 176.044L183.98 170.796C182.773 170.128 181.454 169.822 180.094 169.822V175.822ZM181.084 176.051C181.34 176.191 181.513 176.362 181.652 176.6L186.83 173.568C186.138 172.385 185.167 171.446 183.966 170.789L181.084 176.051ZM181.66 176.613C181.782 176.819 181.865 177.072 181.865 177.45H187.865C187.865 176.077 187.533 174.753 186.822 173.555L181.66 176.613ZM181.865 177.45C181.865 177.827 181.782 178.092 181.652 178.313L186.83 181.345C187.533 180.145 187.865 178.823 187.865 177.45H181.865ZM181.66 178.3C181.524 178.53 181.349 178.704 181.084 178.849L183.966 184.111C185.158 183.459 186.127 182.532 186.822 181.358L181.66 178.3ZM181.071 178.856C180.839 178.985 180.537 179.078 180.094 179.078V185.078C181.454 185.078 182.773 184.772 183.98 184.104L181.071 178.856ZM180.094 184.22C181.277 184.22 182.433 183.951 183.495 183.365L180.594 178.113C180.494 178.168 180.35 178.22 180.094 178.22V184.22ZM183.524 183.349C184.565 182.758 185.409 181.926 186.009 180.884L180.809 177.89C180.751 177.992 180.685 178.061 180.564 178.129L183.524 183.349ZM186.019 180.867C186.621 179.806 186.903 178.645 186.903 177.45H180.903C180.903 177.677 180.857 177.807 180.8 177.907L186.019 180.867ZM186.903 177.45C186.903 176.256 186.621 175.091 186.009 174.029L180.809 177.023C180.857 177.105 180.903 177.223 180.903 177.45H186.903ZM186.019 174.046C185.418 172.987 184.563 172.138 183.495 171.548L180.594 176.8C180.687 176.851 180.742 176.904 180.8 177.006L186.019 174.046ZM183.524 171.564C182.458 170.959 181.291 170.68 180.094 170.68V176.68C180.336 176.68 180.47 176.73 180.564 176.784L183.524 171.564ZM180.094 170.68C178.897 170.68 177.734 170.96 176.668 171.555L179.595 176.793C179.708 176.73 179.853 176.68 180.094 176.68V170.68ZM176.681 171.548C175.619 172.134 174.768 172.974 174.161 174.017L179.346 177.035C179.415 176.917 179.482 176.855 179.582 176.8L176.681 171.548ZM174.153 174.029C173.542 175.091 173.259 176.256 173.259 177.45H179.259C179.259 177.223 179.306 177.105 179.353 177.023L174.153 174.029ZM173.259 177.45C173.259 178.645 173.542 179.806 174.144 180.867L179.363 177.907C179.306 177.807 179.259 177.677 179.259 177.45H173.259ZM174.171 180.913C174.777 181.939 175.617 182.762 176.651 183.349L179.611 178.129C179.484 178.057 179.406 177.979 179.336 177.861L174.171 180.913ZM176.698 183.374C177.758 183.951 178.911 184.22 180.094 184.22V178.22C179.839 178.22 179.683 178.168 179.565 178.104L176.698 183.374Z" fill="white"/>
</svg>
