<svg width="328" height="328" viewBox="0 0 328 328" fill="none" xmlns="http://www.w3.org/2000/svg">
<path d="M67.64 73.2002V207.43H158.47V87.5702L130.78 73.2002H67.64Z" fill="#6071AD"/>
<path d="M80.08 277.87V277.45H66.64V277.44V208.43V207.43V72.7002V72.2002V69.7002V63.0302V56.3602V49.6902V43.0202V41.2002H40.56V79.1702H50.28V97.4902H33.87V269.22V277.45H19.83V300.17H80.08V277.87Z" fill="white"/>
<path d="M49.28 80.1699H40.56H1V96.0499V96.4899H49.28V80.1699Z" fill="white"/>
<path d="M68.83 27.8602H70.27L69.08 26.6702H128.96L127.76 27.8602H129.2L130.9 26.1702L129.2 24.4702H127.76L128.96 25.6702H69.08L70.27 24.4702H68.83L67.14 26.1702L68.83 27.8602Z" fill="#00229A"/>
<path d="M67.64 29.6699H66.64V36.3399H67.64V29.6699Z" fill="#00229A"/>
<path d="M67.64 20H66.64V23H67.64V20Z" fill="#00229A"/>
<path d="M131.4 69.71H130.4V72.21H67.64V40.21H39.56V79.21H0V97.49H32.87V269.22H0V285L12.16 285.22L12.27 308.38H87L86.89 269.18H75.14L74.81 215.43L158.97 215.65H159.47V87L131.4 72.4V69.71ZM67.64 208.43H69.58L67.64 210.37V208.43ZM67.64 213.92L73.13 208.43H75.25L67.64 216V213.92ZM67.64 225.25L73.84 219.06V221.17L67.63 227.38L67.64 225.25ZM67.64 230.92L73.87 224.69V226.8L67.64 233V230.92ZM67.64 236.59L73.9 230.33V232.44L67.62 238.71L67.64 236.59ZM67.64 242.26L73.94 235.96V238.07L67.63 244.38L67.64 242.26ZM67.64 247.93L74 241.6V243.71L67.66 250.05L67.64 247.93ZM67.64 253.6L74 247.23V249.34L67.62 255.72L67.64 253.6ZM67.64 259.27L74.04 252.87V255L67.63 261.41L67.64 259.27ZM67.64 264.94L74.07 258.51V260.61L67.62 267.06L67.64 264.94ZM67.64 270.61L74.11 264.14V266.25L67.63 272.73L67.64 270.61ZM1 96.49V80.17H49.28V96.49H1ZM19.83 277.49H33.83V97.49H50.28V79.17H40.56V41.17H66.64V277.44H80.08V300.16H19.83V277.49ZM1 280.55L3.67 277.88H5.79L1 282.68V280.55ZM3.13 284.1L9.34 277.88H11.46L5.21 284.13L3.13 284.1ZM10.78 284.24H8.7L15 277.88H17.12L10.78 284.24ZM13.16 285.4L18.83 279.73V281.86L13.17 287.51L13.16 285.4ZM13.16 291.04L18.8 285.4V287.53L13.17 293.15L13.16 291.04ZM13.16 296.69L18.77 291.07V293.19L13.17 298.8L13.16 296.69ZM13.16 302.33L18.75 296.74V298.86L13.17 304.44L13.16 302.33ZM13.74 307.42L19.99 301.17H22.11L15.86 307.42H13.74ZM19.41 307.42L25.66 301.17H27.78L21.53 307.42H19.41ZM25.07 307.42L31.33 301.17H33.45L27.2 307.42H25.07ZM30.74 307.42L36.99 301.17H39.2L32.94 307.42H30.74ZM36.41 307.42L42.66 301.17H44.78L38.53 307.42H36.41ZM42.08 307.42L48.33 301.17H50.45L44.2 307.42H42.08ZM47.75 307.42L54 301.17H56.2L50 307.42H47.75ZM53.42 307.42L59.67 301.17H61.79L55.54 307.42H53.42ZM59.09 307.42L65.34 301.17H67.46L61.21 307.42H59.09ZM64.76 307.42L71.01 301.17H73.13L67 307.42H64.76ZM70.43 307.42L76.68 301.17H78.8L72.55 307.42H70.43ZM86 305.37L84 307.42H81.85L86 303.25V305.37ZM86 299.72L78.29 307.42H76.18L86 297.6V299.72ZM86 294.06L81.08 299V296.88L86 292V294.06ZM86 288.41L81.11 293.31V291.19L86 286.29V288.41ZM86 282.76L81.12 287.64V285.52L86 280.64V282.76ZM86 277.1L81.08 282V279.88L85.94 275L86 277.1ZM86 270.22V271.45L81 276.45H78.8L85 270.22H86ZM81.57 270.22L75.33 276.45H73.13L79.37 270.22H81.57ZM75.9 270.22L69.66 276.45H67.64V276.28L74.14 269.78V270.22H75.9ZM74.39 214.47H73.89V215.53L67.72 221.71V219.59L78.8 208.43H80.92L74.92 214.43L74.39 214.47ZM78.49 214.47L84.55 208.47H86.67L80.61 214.53L78.49 214.47ZM84.15 214.47L90.22 208.4H92.34L86.26 214.47H84.15ZM89.8 214.47L95.89 208.39H98.01L91.92 214.48L89.8 214.47ZM95.46 214.47L101.56 208.37H103.68L97.57 214.47H95.46ZM101.11 214.47L107.22 208.36H109.35L103.22 214.48L101.11 214.47ZM106.76 214.47L112.89 208.34H115.02L108.88 214.47H106.76ZM112.42 214.47L118.56 208.33H120.68L114.53 214.48L112.42 214.47ZM118.07 214.47L124.23 208.31H126.35L120.19 214.47H118.07ZM123.73 214.47L129.9 208.3H132.02L125.84 214.48L123.73 214.47ZM129.38 214.47L135.57 208.28H137.69L131.5 214.47H129.38ZM135.04 214.47L141.24 208.27H143.36L137.15 214.48L135.04 214.47ZM140.69 214.47L146.91 208.26H149L142.78 214.48L140.69 214.47ZM146.35 214.47L152.58 208.24H154.7L148.46 214.48L146.35 214.47ZM158.55 214.47H157.65L158.55 213.57V214.47ZM158.55 210.02L154 214.68H151.88L158.13 208.44H158.43L158.55 210.02ZM158.55 87.35V207.43H67.64V73.21H130.78L158.55 87.35Z" fill="#00229A"/>
<path d="M131.4 56.3599H130.4V63.0299H131.4V56.3599Z" fill="#00229A"/>
<path d="M131.4 43.02H130.4V49.69H131.4V43.02Z" fill="#00229A"/>
<path d="M131.4 29.6699H130.4V36.3399H131.4V29.6699Z" fill="#00229A"/>
<path d="M131.4 20H130.4V23H131.4V20Z" fill="#00229A"/>
<path d="M220.55 207.43L189.35 190V215.66H225.92V207.41L220.55 207.43ZM190.35 191.72L218.49 207.43H190.35V191.72ZM190.35 209.2L191.12 208.43H193.24L190.35 211.32V209.2ZM190.54 214.68L196.79 208.43H198.91L192.66 214.68H190.54ZM196.21 214.68L202.46 208.43H204.58L198.33 214.68H196.21ZM201.88 214.68L208.13 208.43H210.25L204 214.68H201.88ZM207.55 214.68L213.8 208.43H215.92L209.67 214.68H207.55ZM213.22 214.68L219.47 208.43H221.59L215.34 214.68H213.22ZM224.92 214.68H224.56L224.92 214.32V214.68ZM224.92 210.77L221 214.68H218.88L224.88 208.68L224.92 210.77Z" fill="#00229A"/>
<path d="M190.35 191.72V207.43H218.49L190.35 191.72Z" fill="#6071AD"/>
<path d="M171.08 214.63H165.08V215.63H171.08V214.63Z" fill="#00229A"/>
<path d="M183.08 214.63H177.08V215.63H183.08V214.63Z" fill="#00229A"/>
<path d="M183.08 207.54H177.08V208.54H183.08V207.54Z" fill="#00229A"/>
<path d="M171.08 207.54H165.08V208.54H171.08V207.54Z" fill="#00229A"/>
<path d="M183.08 200.46H177.08V201.46H183.08V200.46Z" fill="#00229A"/>
<path d="M171.08 200.46H165.08V201.46H171.08V200.46Z" fill="#00229A"/>
<path d="M171.08 193.37H165.08V194.37H171.08V193.37Z" fill="#00229A"/>
<path d="M183.08 193.37H177.08V194.37H183.08V193.37Z" fill="#00229A"/>
<path d="M183.08 186.28H177.08V187.28H183.08V186.28Z" fill="#00229A"/>
<path d="M171.08 186.28H165.08V187.28H171.08V186.28Z" fill="#00229A"/>
<path d="M183.08 179.2H177.08V180.2H183.08V179.2Z" fill="#00229A"/>
<path d="M171.08 179.2H165.08V180.2H171.08V179.2Z" fill="#00229A"/>
<path d="M171.08 172.11H165.08V173.11H171.08V172.11Z" fill="#00229A"/>
<path d="M183.08 172.11H177.08V173.11H183.08V172.11Z" fill="#00229A"/>
<path d="M183.08 165.02H177.08V166.02H183.08V165.02Z" fill="#00229A"/>
<path d="M171.08 165.02H165.08V166.02H171.08V165.02Z" fill="#00229A"/>
<path d="M183.08 157.94H177.08V158.94H183.08V157.94Z" fill="#00229A"/>
<path d="M171.08 157.94H165.08V158.94H171.08V157.94Z" fill="#00229A"/>
<path d="M183.08 150.85H177.08V151.85H183.08V150.85Z" fill="#00229A"/>
<path d="M171.08 150.85H165.08V151.85H171.08V150.85Z" fill="#00229A"/>
<path d="M171.08 143.76H165.08V144.76H171.08V143.76Z" fill="#00229A"/>
<path d="M183.08 143.76H177.08V144.76H183.08V143.76Z" fill="#00229A"/>
<path d="M171.08 136.68H165.08V137.68H171.08V136.68Z" fill="#00229A"/>
<path d="M183.08 136.68H177.08V137.68H183.08V136.68Z" fill="#00229A"/>
<path d="M171.08 129.59H165.08V130.59H171.08V129.59Z" fill="#00229A"/>
<path d="M183.08 129.59H177.08V130.59H183.08V129.59Z" fill="#00229A"/>
<path d="M171.08 122.5H165.08V123.5H171.08V122.5Z" fill="#00229A"/>
<path d="M183.08 122.5H177.08V123.5H183.08V122.5Z" fill="#00229A"/>
<path d="M171.08 115.42H165.08V116.42H171.08V115.42Z" fill="#00229A"/>
<path d="M183.08 115.42H177.08V116.42H183.08V115.42Z" fill="#00229A"/>
<path d="M171.08 108.33H165.08V109.33H171.08V108.33Z" fill="#00229A"/>
<path d="M183.08 108.33H177.08V109.33H183.08V108.33Z" fill="#00229A"/>
<path d="M171.08 101.25H165.08V102.25H171.08V101.25Z" fill="#00229A"/>
<path d="M183.08 101.25H177.08V102.25H183.08V101.25Z" fill="#00229A"/>
<path d="M183.08 94.1602H177.08V95.1602H183.08V94.1602Z" fill="#00229A"/>
<path d="M171.08 94.1602H165.08V95.1602H171.08V94.1602Z" fill="#00229A"/>
<path d="M183.08 87.0698H177.08V88.0698H183.08V87.0698Z" fill="#00229A"/>
<path d="M171.08 87.0698H165.08V88.0698H171.08V87.0698Z" fill="#00229A"/>
<path d="M183.08 79.9902H177.08V80.9902H183.08V79.9902Z" fill="#00229A"/>
<path d="M171.08 79.9902H165.08V80.9902H171.08V79.9902Z" fill="#00229A"/>
<path d="M171.08 72.8999H165.08V73.8999H171.08V72.8999Z" fill="#00229A"/>
<path d="M183.08 72.8999H177.08V73.8999H183.08V72.8999Z" fill="#00229A"/>
<path d="M88.472 11.9V12.563L84.663 21H83.649L87.393 12.732H82.713V14.435H81.79V11.9H88.472ZM91.5961 15.631C92.9134 15.631 93.8711 15.8693 94.4691 16.346C95.0757 16.814 95.3791 17.4727 95.3791 18.322C95.3791 18.8507 95.2534 19.323 95.0021 19.739C94.7594 20.155 94.3911 20.4843 93.8971 20.727C93.4031 20.961 92.7964 21.078 92.0771 21.078C91.4271 21.078 90.8074 20.974 90.2181 20.766C89.6374 20.5493 89.1694 20.2633 88.8141 19.908L89.2691 19.167C89.5724 19.479 89.9711 19.7347 90.4651 19.934C90.9591 20.1247 91.4921 20.22 92.0641 20.22C92.8181 20.22 93.3987 20.051 93.8061 19.713C94.2221 19.375 94.4301 18.9243 94.4301 18.361C94.4301 17.737 94.1961 17.2647 93.7281 16.944C93.2687 16.6233 92.4887 16.463 91.3881 16.463H89.4511L89.9191 11.9H94.8981V12.732H90.7381L90.4261 15.631H91.5961ZM102.895 21.065C102.219 21.065 101.612 20.9177 101.075 20.623C100.546 20.3283 100.13 19.9167 99.8267 19.388C99.5234 18.8507 99.3717 18.2483 99.3717 17.581C99.3717 16.9137 99.5234 16.3157 99.8267 15.787C100.13 15.2583 100.546 14.8467 101.075 14.552C101.612 14.2573 102.219 14.11 102.895 14.11C103.484 14.11 104.008 14.227 104.468 14.461C104.936 14.6863 105.304 15.02 105.573 15.462L104.884 15.93C104.658 15.592 104.372 15.3407 104.026 15.176C103.679 15.0027 103.302 14.916 102.895 14.916C102.401 14.916 101.954 15.0287 101.556 15.254C101.166 15.4707 100.858 15.7827 100.633 16.19C100.416 16.5973 100.308 17.061 100.308 17.581C100.308 18.1097 100.416 18.5777 100.633 18.985C100.858 19.3837 101.166 19.6957 101.556 19.921C101.954 20.1377 102.401 20.246 102.895 20.246C103.302 20.246 103.679 20.1637 104.026 19.999C104.372 19.8343 104.658 19.583 104.884 19.245L105.573 19.713C105.304 20.155 104.936 20.493 104.468 20.727C104 20.9523 103.475 21.065 102.895 21.065ZM115.654 14.11C116.512 14.11 117.184 14.357 117.669 14.851C118.163 15.345 118.41 16.073 118.41 17.035V21H117.487V17.126C117.487 16.4153 117.314 15.8737 116.967 15.501C116.629 15.1283 116.148 14.942 115.524 14.942C114.813 14.942 114.254 15.163 113.847 15.605C113.44 16.0383 113.236 16.6407 113.236 17.412V21H112.313V17.126C112.313 16.4153 112.14 15.8737 111.793 15.501C111.455 15.1283 110.97 14.942 110.337 14.942C109.635 14.942 109.076 15.163 108.66 15.605C108.253 16.0383 108.049 16.6407 108.049 17.412V21H107.126V14.162H108.01V15.41C108.253 14.994 108.591 14.6733 109.024 14.448C109.457 14.2227 109.956 14.11 110.519 14.11C111.091 14.11 111.585 14.2313 112.001 14.474C112.426 14.7167 112.742 15.0763 112.95 15.553C113.201 15.1023 113.561 14.7513 114.029 14.5C114.506 14.24 115.047 14.11 115.654 14.11Z" fill="#00229A"/>
<path d="M113.139 230.9V240H112.19V235.801H106.496V240H105.534V230.9H106.496V234.956H112.19V230.9H113.139ZM121.71 236.867H115.99C116.042 237.578 116.315 238.154 116.809 238.596C117.303 239.029 117.927 239.246 118.681 239.246C119.105 239.246 119.495 239.172 119.851 239.025C120.206 238.869 120.514 238.644 120.774 238.349L121.294 238.947C120.99 239.311 120.609 239.588 120.15 239.779C119.699 239.97 119.201 240.065 118.655 240.065C117.953 240.065 117.329 239.918 116.783 239.623C116.245 239.32 115.825 238.904 115.522 238.375C115.218 237.846 115.067 237.248 115.067 236.581C115.067 235.914 115.21 235.316 115.496 234.787C115.79 234.258 116.189 233.847 116.692 233.552C117.203 233.257 117.775 233.11 118.408 233.11C119.04 233.11 119.608 233.257 120.111 233.552C120.613 233.847 121.008 234.258 121.294 234.787C121.58 235.307 121.723 235.905 121.723 236.581L121.71 236.867ZM118.408 233.903C117.749 233.903 117.194 234.115 116.744 234.54C116.302 234.956 116.05 235.502 115.99 236.178H120.839C120.778 235.502 120.522 234.956 120.072 234.54C119.63 234.115 119.075 233.903 118.408 233.903ZM126.327 240.065C125.668 240.065 125.075 239.918 124.546 239.623C124.017 239.32 123.601 238.904 123.298 238.375C122.995 237.846 122.843 237.248 122.843 236.581C122.843 235.914 122.995 235.316 123.298 234.787C123.601 234.258 124.017 233.847 124.546 233.552C125.075 233.257 125.668 233.11 126.327 233.11C126.986 233.11 127.579 233.257 128.108 233.552C128.637 233.847 129.048 234.258 129.343 234.787C129.646 235.316 129.798 235.914 129.798 236.581C129.798 237.248 129.646 237.846 129.343 238.375C129.048 238.904 128.637 239.32 128.108 239.623C127.579 239.918 126.986 240.065 126.327 240.065ZM126.327 239.246C126.812 239.246 127.246 239.138 127.627 238.921C128.017 238.696 128.32 238.379 128.537 237.972C128.754 237.565 128.862 237.101 128.862 236.581C128.862 236.061 128.754 235.597 128.537 235.19C128.32 234.783 128.017 234.471 127.627 234.254C127.246 234.029 126.812 233.916 126.327 233.916C125.842 233.916 125.404 234.029 125.014 234.254C124.633 234.471 124.329 234.783 124.104 235.19C123.887 235.597 123.779 236.061 123.779 236.581C123.779 237.101 123.887 237.565 124.104 237.972C124.329 238.379 124.633 238.696 125.014 238.921C125.404 239.138 125.842 239.246 126.327 239.246ZM134.826 233.331C135.458 233.331 136.022 233.474 136.516 233.76C137.018 234.037 137.408 234.432 137.686 234.943C137.963 235.446 138.102 236.022 138.102 236.672C138.102 237.339 137.954 237.933 137.66 238.453C137.374 238.964 136.971 239.363 136.451 239.649C135.931 239.935 135.333 240.078 134.657 240.078C133.521 240.078 132.642 239.679 132.018 238.882C131.394 238.085 131.082 236.984 131.082 235.58C131.082 234.115 131.359 232.993 131.914 232.213C132.477 231.433 133.352 230.904 134.54 230.627L137.608 229.925L137.764 230.77L134.878 231.433C133.898 231.65 133.179 232.035 132.72 232.59C132.26 233.136 132.009 233.946 131.966 235.021C132.243 234.492 132.629 234.081 133.123 233.786C133.617 233.483 134.184 233.331 134.826 233.331ZM134.683 239.311C135.159 239.311 135.584 239.203 135.957 238.986C136.338 238.761 136.633 238.449 136.841 238.05C137.057 237.651 137.166 237.201 137.166 236.698C137.166 236.195 137.062 235.753 136.854 235.372C136.646 234.991 136.351 234.696 135.97 234.488C135.597 234.271 135.168 234.163 134.683 234.163C134.197 234.163 133.764 234.271 133.383 234.488C133.01 234.696 132.715 234.991 132.499 235.372C132.291 235.753 132.187 236.195 132.187 236.698C132.187 237.201 132.291 237.651 132.499 238.05C132.715 238.449 133.014 238.761 133.396 238.986C133.777 239.203 134.206 239.311 134.683 239.311ZM143.856 240L141.685 237.14L139.501 240H138.461L141.165 236.49L138.591 233.162H139.631L141.685 235.84L143.739 233.162H144.753L142.179 236.49L144.909 240H143.856ZM146.161 233.162H147.084V240H146.161V233.162ZM146.629 231.667C146.439 231.667 146.278 231.602 146.148 231.472C146.018 231.342 145.953 231.186 145.953 231.004C145.953 230.831 146.018 230.679 146.148 230.549C146.278 230.419 146.439 230.354 146.629 230.354C146.82 230.354 146.98 230.419 147.11 230.549C147.24 230.67 147.305 230.818 147.305 230.991C147.305 231.182 147.24 231.342 147.11 231.472C146.98 231.602 146.82 231.667 146.629 231.667ZM156.125 239.194V241.651H155.254V240H149.131V241.651H148.26V239.194H148.65C149.109 239.168 149.421 238.83 149.586 238.18C149.751 237.53 149.863 236.62 149.924 235.45L150.015 233.162H155.059V239.194H156.125ZM150.769 235.502C150.726 236.473 150.643 237.274 150.522 237.907C150.401 238.531 150.184 238.96 149.872 239.194H154.136V233.981H150.847L150.769 235.502ZM157.664 233.162H158.587V236.191H162.89V233.162H163.813V240H162.89V236.984H158.587V240H157.664V233.162ZM168.997 240.065C168.339 240.065 167.745 239.918 167.216 239.623C166.688 239.32 166.272 238.904 165.968 238.375C165.665 237.846 165.513 237.248 165.513 236.581C165.513 235.914 165.665 235.316 165.968 234.787C166.272 234.258 166.688 233.847 167.216 233.552C167.745 233.257 168.339 233.11 168.997 233.11C169.656 233.11 170.25 233.257 170.778 233.552C171.307 233.847 171.719 234.258 172.013 234.787C172.317 235.316 172.468 235.914 172.468 236.581C172.468 237.248 172.317 237.846 172.013 238.375C171.719 238.904 171.307 239.32 170.778 239.623C170.25 239.918 169.656 240.065 168.997 240.065ZM168.997 239.246C169.483 239.246 169.916 239.138 170.297 238.921C170.687 238.696 170.991 238.379 171.207 237.972C171.424 237.565 171.532 237.101 171.532 236.581C171.532 236.061 171.424 235.597 171.207 235.19C170.991 234.783 170.687 234.471 170.297 234.254C169.916 234.029 169.483 233.916 168.997 233.916C168.512 233.916 168.074 234.029 167.684 234.254C167.303 234.471 167 234.783 166.774 235.19C166.558 235.597 166.449 236.061 166.449 236.581C166.449 237.101 166.558 237.565 166.774 237.972C167 238.379 167.303 238.696 167.684 238.921C168.074 239.138 168.512 239.246 168.997 239.246ZM181.678 236.464C182.606 236.681 183.069 237.24 183.069 238.141C183.069 238.739 182.848 239.198 182.406 239.519C181.964 239.84 181.306 240 180.43 240H177.323V233.162H180.339C181.119 233.162 181.73 233.314 182.172 233.617C182.614 233.92 182.835 234.354 182.835 234.917C182.835 235.29 182.731 235.61 182.523 235.879C182.324 236.139 182.042 236.334 181.678 236.464ZM178.22 236.204H180.274C180.803 236.204 181.206 236.104 181.483 235.905C181.769 235.706 181.912 235.415 181.912 235.034C181.912 234.653 181.769 234.367 181.483 234.176C181.206 233.985 180.803 233.89 180.274 233.89H178.22V236.204ZM180.391 239.272C180.981 239.272 181.423 239.177 181.717 238.986C182.012 238.795 182.159 238.496 182.159 238.089C182.159 237.682 182.025 237.383 181.756 237.192C181.488 236.993 181.063 236.893 180.482 236.893H178.22V239.272H180.391ZM184.973 233.162H185.896V238.596L190.459 233.162H191.278V240H190.355V234.566L185.805 240H184.973V233.162ZM196.146 236.958H194.586V240H193.663V233.162H194.586V236.165H196.159L198.564 233.162H199.565L196.874 236.477L199.76 240H198.668L196.146 236.958ZM203.536 240.065C202.878 240.065 202.284 239.918 201.755 239.623C201.227 239.32 200.811 238.904 200.507 238.375C200.204 237.846 200.052 237.248 200.052 236.581C200.052 235.914 200.204 235.316 200.507 234.787C200.811 234.258 201.227 233.847 201.755 233.552C202.284 233.257 202.878 233.11 203.536 233.11C204.195 233.11 204.789 233.257 205.317 233.552C205.846 233.847 206.258 234.258 206.552 234.787C206.856 235.316 207.007 235.914 207.007 236.581C207.007 237.248 206.856 237.846 206.552 238.375C206.258 238.904 205.846 239.32 205.317 239.623C204.789 239.918 204.195 240.065 203.536 240.065ZM203.536 239.246C204.022 239.246 204.455 239.138 204.836 238.921C205.226 238.696 205.53 238.379 205.746 237.972C205.963 237.565 206.071 237.101 206.071 236.581C206.071 236.061 205.963 235.597 205.746 235.19C205.53 234.783 205.226 234.471 204.836 234.254C204.455 234.029 204.022 233.916 203.536 233.916C203.051 233.916 202.613 234.029 202.223 234.254C201.842 234.471 201.539 234.783 201.313 235.19C201.097 235.597 200.988 236.061 200.988 236.581C200.988 237.101 201.097 237.565 201.313 237.972C201.539 238.379 201.842 238.696 202.223 238.921C202.613 239.138 203.051 239.246 203.536 239.246ZM208.72 233.162H209.643V236.191H213.946V233.162H214.869V240H213.946V236.984H209.643V240H208.72V233.162ZM219.585 233.11C220.478 233.11 221.163 233.335 221.639 233.786C222.116 234.228 222.354 234.887 222.354 235.762V240H221.47V238.934C221.262 239.289 220.955 239.567 220.547 239.766C220.149 239.965 219.672 240.065 219.117 240.065C218.355 240.065 217.748 239.883 217.297 239.519C216.847 239.155 216.621 238.674 216.621 238.076C216.621 237.495 216.829 237.027 217.245 236.672C217.67 236.317 218.342 236.139 219.26 236.139H221.431V235.723C221.431 235.134 221.267 234.687 220.937 234.384C220.608 234.072 220.127 233.916 219.494 233.916C219.061 233.916 218.645 233.99 218.246 234.137C217.848 234.276 217.505 234.471 217.219 234.722L216.803 234.033C217.15 233.738 217.566 233.513 218.051 233.357C218.537 233.192 219.048 233.11 219.585 233.11ZM219.26 239.337C219.78 239.337 220.227 239.22 220.599 238.986C220.972 238.743 221.249 238.397 221.431 237.946V236.828H219.286C218.116 236.828 217.531 237.235 217.531 238.05C217.531 238.449 217.683 238.765 217.986 238.999C218.29 239.224 218.714 239.337 219.26 239.337ZM229.361 233.981H226.774V240H225.851V233.981H223.264V233.162H229.361V233.981ZM230.436 233.162H231.359V238.596L235.922 233.162H236.741V240H235.818V234.566L231.268 240H230.436V233.162ZM242.269 233.162H243.192V236.191H247.495V233.162H248.418V240H247.495V236.984H243.192V240H242.269V233.162ZM253.134 233.11C254.027 233.11 254.711 233.335 255.188 233.786C255.665 234.228 255.903 234.887 255.903 235.762V240H255.019V238.934C254.811 239.289 254.503 239.567 254.096 239.766C253.697 239.965 253.221 240.065 252.666 240.065C251.903 240.065 251.297 239.883 250.846 239.519C250.395 239.155 250.17 238.674 250.17 238.076C250.17 237.495 250.378 237.027 250.794 236.672C251.219 236.317 251.89 236.139 252.809 236.139H254.98V235.723C254.98 235.134 254.815 234.687 254.486 234.384C254.157 234.072 253.676 233.916 253.043 233.916C252.61 233.916 252.194 233.99 251.795 234.137C251.396 234.276 251.054 234.471 250.768 234.722L250.352 234.033C250.699 233.738 251.115 233.513 251.6 233.357C252.085 233.192 252.597 233.11 253.134 233.11ZM252.809 239.337C253.329 239.337 253.775 239.22 254.148 238.986C254.521 238.743 254.798 238.397 254.98 237.946V236.828H252.835C251.665 236.828 251.08 237.235 251.08 238.05C251.08 238.449 251.232 238.765 251.535 238.999C251.838 239.224 252.263 239.337 252.809 239.337ZM109.668 251.464C110.595 251.681 111.059 252.24 111.059 253.141C111.059 253.739 110.838 254.198 110.396 254.519C109.954 254.84 109.295 255 108.42 255H105.313V248.162H108.329C109.109 248.162 109.72 248.314 110.162 248.617C110.604 248.92 110.825 249.354 110.825 249.917C110.825 250.29 110.721 250.61 110.513 250.879C110.314 251.139 110.032 251.334 109.668 251.464ZM106.21 251.204H108.264C108.793 251.204 109.196 251.104 109.473 250.905C109.759 250.706 109.902 250.415 109.902 250.034C109.902 249.653 109.759 249.367 109.473 249.176C109.196 248.985 108.793 248.89 108.264 248.89H106.21V251.204ZM108.381 254.272C108.97 254.272 109.412 254.177 109.707 253.986C110.002 253.795 110.149 253.496 110.149 253.089C110.149 252.682 110.015 252.383 109.746 252.192C109.477 251.993 109.053 251.893 108.472 251.893H106.21V254.272H108.381ZM115.822 255.065C115.146 255.065 114.54 254.918 114.002 254.623C113.474 254.328 113.058 253.917 112.754 253.388C112.451 252.851 112.299 252.248 112.299 251.581C112.299 250.914 112.451 250.316 112.754 249.787C113.058 249.258 113.474 248.847 114.002 248.552C114.54 248.257 115.146 248.11 115.822 248.11C116.412 248.11 116.936 248.227 117.395 248.461C117.863 248.686 118.232 249.02 118.5 249.462L117.811 249.93C117.586 249.592 117.3 249.341 116.953 249.176C116.607 249.003 116.23 248.916 115.822 248.916C115.328 248.916 114.882 249.029 114.483 249.254C114.093 249.471 113.786 249.783 113.56 250.19C113.344 250.597 113.235 251.061 113.235 251.581C113.235 252.11 113.344 252.578 113.56 252.985C113.786 253.384 114.093 253.696 114.483 253.921C114.882 254.138 115.328 254.246 115.822 254.246C116.23 254.246 116.607 254.164 116.953 253.999C117.3 253.834 117.586 253.583 117.811 253.245L118.5 253.713C118.232 254.155 117.863 254.493 117.395 254.727C116.927 254.952 116.403 255.065 115.822 255.065ZM125.903 248.11C126.545 248.11 127.121 248.257 127.632 248.552C128.152 248.847 128.56 249.258 128.854 249.787C129.149 250.316 129.296 250.914 129.296 251.581C129.296 252.248 129.149 252.846 128.854 253.375C128.56 253.904 128.152 254.32 127.632 254.623C127.121 254.918 126.545 255.065 125.903 255.065C125.297 255.065 124.746 254.935 124.252 254.675C123.758 254.406 123.355 254.038 123.043 253.57C122.74 253.102 122.562 252.565 122.51 251.958H120.95V255H120.027V248.162H120.95V251.113H122.523C122.593 250.524 122.779 250.004 123.082 249.553C123.394 249.094 123.793 248.738 124.278 248.487C124.764 248.236 125.305 248.11 125.903 248.11ZM125.903 254.259C126.371 254.259 126.792 254.146 127.164 253.921C127.546 253.696 127.845 253.379 128.061 252.972C128.278 252.565 128.386 252.101 128.386 251.581C128.386 251.061 128.278 250.597 128.061 250.19C127.845 249.783 127.546 249.471 127.164 249.254C126.792 249.029 126.371 248.916 125.903 248.916C125.435 248.916 125.011 249.029 124.629 249.254C124.257 249.471 123.962 249.783 123.745 250.19C123.529 250.597 123.42 251.061 123.42 251.581C123.42 252.101 123.529 252.565 123.745 252.972C123.962 253.379 124.257 253.696 124.629 253.921C125.011 254.146 125.435 254.259 125.903 254.259ZM138.513 251.464C139.44 251.681 139.904 252.24 139.904 253.141C139.904 253.739 139.683 254.198 139.241 254.519C138.799 254.84 138.14 255 137.265 255H134.158V248.162H137.174C137.954 248.162 138.565 248.314 139.007 248.617C139.449 248.92 139.67 249.354 139.67 249.917C139.67 250.29 139.566 250.61 139.358 250.879C139.158 251.139 138.877 251.334 138.513 251.464ZM135.055 251.204H137.109C137.637 251.204 138.04 251.104 138.318 250.905C138.604 250.706 138.747 250.415 138.747 250.034C138.747 249.653 138.604 249.367 138.318 249.176C138.04 248.985 137.637 248.89 137.109 248.89H135.055V251.204ZM137.226 254.272C137.815 254.272 138.257 254.177 138.552 253.986C138.846 253.795 138.994 253.496 138.994 253.089C138.994 252.682 138.859 252.383 138.591 252.192C138.322 251.993 137.897 251.893 137.317 251.893H135.055V254.272H137.226ZM141.807 248.162H142.73V253.596L147.293 248.162H148.112V255H147.189V249.566L142.639 255H141.807V248.162ZM153.357 255.065C152.681 255.065 152.074 254.918 151.537 254.623C151.008 254.328 150.592 253.917 150.289 253.388C149.986 252.851 149.834 252.248 149.834 251.581C149.834 250.914 149.986 250.316 150.289 249.787C150.592 249.258 151.008 248.847 151.537 248.552C152.074 248.257 152.681 248.11 153.357 248.11C153.946 248.11 154.471 248.227 154.93 248.461C155.398 248.686 155.766 249.02 156.035 249.462L155.346 249.93C155.121 249.592 154.835 249.341 154.488 249.176C154.141 249.003 153.764 248.916 153.357 248.916C152.863 248.916 152.417 249.029 152.018 249.254C151.628 249.471 151.32 249.783 151.095 250.19C150.878 250.597 150.77 251.061 150.77 251.581C150.77 252.11 150.878 252.578 151.095 252.985C151.32 253.384 151.628 253.696 152.018 253.921C152.417 254.138 152.863 254.246 153.357 254.246C153.764 254.246 154.141 254.164 154.488 253.999C154.835 253.834 155.121 253.583 155.346 253.245L156.035 253.713C155.766 254.155 155.398 254.493 154.93 254.727C154.462 254.952 153.938 255.065 153.357 255.065ZM160.269 255.065C159.61 255.065 159.017 254.918 158.488 254.623C157.959 254.32 157.543 253.904 157.24 253.375C156.937 252.846 156.785 252.248 156.785 251.581C156.785 250.914 156.937 250.316 157.24 249.787C157.543 249.258 157.959 248.847 158.488 248.552C159.017 248.257 159.61 248.11 160.269 248.11C160.928 248.11 161.521 248.257 162.05 248.552C162.579 248.847 162.99 249.258 163.285 249.787C163.588 250.316 163.74 250.914 163.74 251.581C163.74 252.248 163.588 252.846 163.285 253.375C162.99 253.904 162.579 254.32 162.05 254.623C161.521 254.918 160.928 255.065 160.269 255.065ZM160.269 254.246C160.754 254.246 161.188 254.138 161.569 253.921C161.959 253.696 162.262 253.379 162.479 252.972C162.696 252.565 162.804 252.101 162.804 251.581C162.804 251.061 162.696 250.597 162.479 250.19C162.262 249.783 161.959 249.471 161.569 249.254C161.188 249.029 160.754 248.916 160.269 248.916C159.784 248.916 159.346 249.029 158.956 249.254C158.575 249.471 158.271 249.783 158.046 250.19C157.829 250.597 157.721 251.061 157.721 251.581C157.721 252.101 157.829 252.565 158.046 252.972C158.271 253.379 158.575 253.696 158.956 253.921C159.346 254.138 159.784 254.246 160.269 254.246ZM170.009 248.981H167.422V255H166.499V248.981H163.912V248.162H170.009V248.981ZM176.92 248.162L173.501 255.819C173.223 256.46 172.903 256.915 172.539 257.184C172.175 257.453 171.737 257.587 171.226 257.587C170.896 257.587 170.589 257.535 170.303 257.431C170.017 257.327 169.77 257.171 169.562 256.963L169.991 256.274C170.337 256.621 170.753 256.794 171.239 256.794C171.551 256.794 171.815 256.707 172.032 256.534C172.257 256.361 172.465 256.066 172.656 255.65L172.955 254.987L169.9 248.162H170.862L173.436 253.973L176.01 248.162H176.92ZM184.1 255.065C183.424 255.065 182.817 254.918 182.28 254.623C181.751 254.328 181.335 253.917 181.032 253.388C180.729 252.851 180.577 252.248 180.577 251.581C180.577 250.914 180.729 250.316 181.032 249.787C181.335 249.258 181.751 248.847 182.28 248.552C182.817 248.257 183.424 248.11 184.1 248.11C184.689 248.11 185.214 248.227 185.673 248.461C186.141 248.686 186.509 249.02 186.778 249.462L186.089 249.93C185.864 249.592 185.578 249.341 185.231 249.176C184.884 249.003 184.507 248.916 184.1 248.916C183.606 248.916 183.16 249.029 182.761 249.254C182.371 249.471 182.063 249.783 181.838 250.19C181.621 250.597 181.513 251.061 181.513 251.581C181.513 252.11 181.621 252.578 181.838 252.985C182.063 253.384 182.371 253.696 182.761 253.921C183.16 254.138 183.606 254.246 184.1 254.246C184.507 254.246 184.884 254.164 185.231 253.999C185.578 253.834 185.864 253.583 186.089 253.245L186.778 253.713C186.509 254.155 186.141 254.493 185.673 254.727C185.205 254.952 184.681 255.065 184.1 255.065ZM192.988 248.981H190.401V255H189.478V248.981H186.891V248.162H192.988V248.981ZM194.063 248.162H194.986V255H194.063V248.162ZM194.531 246.667C194.34 246.667 194.18 246.602 194.05 246.472C193.92 246.342 193.855 246.186 193.855 246.004C193.855 245.831 193.92 245.679 194.05 245.549C194.18 245.419 194.34 245.354 194.531 245.354C194.722 245.354 194.882 245.419 195.012 245.549C195.142 245.67 195.207 245.818 195.207 245.991C195.207 246.182 195.142 246.342 195.012 246.472C194.882 246.602 194.722 246.667 194.531 246.667ZM197.358 248.162H198.281V251.191H202.584V248.162H203.507V255H202.584V251.984H198.281V255H197.358V248.162ZM205.87 248.162H206.793V253.596L211.356 248.162H212.175V255H211.252V249.566L206.702 255H205.87V248.162ZM105.313 263.162H106.236V266.191H110.539V263.162H111.462V270H110.539V266.984H106.236V270H105.313V263.162ZM116.178 263.11C117.071 263.11 117.756 263.335 118.232 263.786C118.709 264.228 118.947 264.887 118.947 265.762V270H118.063V268.934C117.855 269.289 117.548 269.567 117.14 269.766C116.742 269.965 116.265 270.065 115.71 270.065C114.948 270.065 114.341 269.883 113.89 269.519C113.44 269.155 113.214 268.674 113.214 268.076C113.214 267.495 113.422 267.027 113.838 266.672C114.263 266.317 114.935 266.139 115.853 266.139H118.024V265.723C118.024 265.134 117.86 264.687 117.53 264.384C117.201 264.072 116.72 263.916 116.087 263.916C115.654 263.916 115.238 263.99 114.839 264.137C114.441 264.276 114.098 264.471 113.812 264.722L113.396 264.033C113.743 263.738 114.159 263.513 114.644 263.357C115.13 263.192 115.641 263.11 116.178 263.11ZM115.853 269.337C116.373 269.337 116.82 269.22 117.192 268.986C117.565 268.743 117.842 268.397 118.024 267.946V266.828H115.879C114.709 266.828 114.124 267.235 114.124 268.05C114.124 268.449 114.276 268.765 114.579 268.999C114.883 269.224 115.307 269.337 115.853 269.337ZM127.281 263.162V270H126.358V263.981H122.068V270H121.145V263.162H127.281ZM129.644 263.162H130.567V270H129.644V263.162ZM130.112 261.667C129.922 261.667 129.761 261.602 129.631 261.472C129.501 261.342 129.436 261.186 129.436 261.004C129.436 260.831 129.501 260.679 129.631 260.549C129.761 260.419 129.922 260.354 130.112 260.354C130.303 260.354 130.463 260.419 130.593 260.549C130.723 260.67 130.788 260.818 130.788 260.991C130.788 261.182 130.723 261.342 130.593 261.472C130.463 261.602 130.303 261.667 130.112 261.667ZM137.294 266.464C138.221 266.681 138.685 267.24 138.685 268.141C138.685 268.739 138.464 269.198 138.022 269.519C137.58 269.84 136.921 270 136.046 270H132.939V263.162H135.955C136.735 263.162 137.346 263.314 137.788 263.617C138.23 263.92 138.451 264.354 138.451 264.917C138.451 265.29 138.347 265.61 138.139 265.879C137.94 266.139 137.658 266.334 137.294 266.464ZM133.836 266.204H135.89C136.419 266.204 136.822 266.104 137.099 265.905C137.385 265.706 137.528 265.415 137.528 265.034C137.528 264.653 137.385 264.367 137.099 264.176C136.822 263.985 136.419 263.89 135.89 263.89H133.836V266.204ZM136.007 269.272C136.596 269.272 137.038 269.177 137.333 268.986C137.628 268.795 137.775 268.496 137.775 268.089C137.775 267.682 137.641 267.383 137.372 267.192C137.103 266.993 136.679 266.893 136.098 266.893H133.836V269.272H136.007ZM146.724 263.162V270H145.801V263.981H141.511V270H140.588V263.162H146.724ZM149.088 263.162H150.011V270H149.088V263.162ZM149.556 261.667C149.365 261.667 149.205 261.602 149.075 261.472C148.945 261.342 148.88 261.186 148.88 261.004C148.88 260.831 148.945 260.679 149.075 260.549C149.205 260.419 149.365 260.354 149.556 260.354C149.747 260.354 149.907 260.419 150.037 260.549C150.167 260.67 150.232 260.818 150.232 260.991C150.232 261.182 150.167 261.342 150.037 261.472C149.907 261.602 149.747 261.667 149.556 261.667ZM159.052 269.194V271.651H158.181V270H152.058V271.651H151.187V269.194H151.577C152.036 269.168 152.348 268.83 152.513 268.18C152.677 267.53 152.79 266.62 152.851 265.45L152.942 263.162H157.986V269.194H159.052ZM153.696 265.502C153.652 266.473 153.57 267.274 153.449 267.907C153.327 268.531 153.111 268.96 152.799 269.194H157.063V263.981H153.774L153.696 265.502ZM164.945 266.464C165.873 266.681 166.336 267.24 166.336 268.141C166.336 268.739 166.115 269.198 165.673 269.519C165.231 269.84 164.573 270 163.697 270H160.59V263.162H163.606C164.386 263.162 164.997 263.314 165.439 263.617C165.881 263.92 166.102 264.354 166.102 264.917C166.102 265.29 165.998 265.61 165.79 265.879C165.591 266.139 165.309 266.334 164.945 266.464ZM161.487 266.204H163.541C164.07 266.204 164.473 266.104 164.75 265.905C165.036 265.706 165.179 265.415 165.179 265.034C165.179 264.653 165.036 264.367 164.75 264.176C164.473 263.985 164.07 263.89 163.541 263.89H161.487V266.204ZM163.658 269.272C164.248 269.272 164.69 269.177 164.984 268.986C165.279 268.795 165.426 268.496 165.426 268.089C165.426 267.682 165.292 267.383 165.023 267.192C164.755 266.993 164.33 266.893 163.749 266.893H161.487V269.272H163.658ZM170.593 263.11C171.485 263.11 172.17 263.335 172.647 263.786C173.123 264.228 173.362 264.887 173.362 265.762V270H172.478V268.934C172.27 269.289 171.962 269.567 171.555 269.766C171.156 269.965 170.679 270.065 170.125 270.065C169.362 270.065 168.755 269.883 168.305 269.519C167.854 269.155 167.629 268.674 167.629 268.076C167.629 267.495 167.837 267.027 168.253 266.672C168.677 266.317 169.349 266.139 170.268 266.139H172.439V265.723C172.439 265.134 172.274 264.687 171.945 264.384C171.615 264.072 171.134 263.916 170.502 263.916C170.068 263.916 169.652 263.99 169.254 264.137C168.855 264.276 168.513 264.471 168.227 264.722L167.811 264.033C168.157 263.738 168.573 263.513 169.059 263.357C169.544 263.192 170.055 263.11 170.593 263.11ZM170.268 269.337C170.788 269.337 171.234 269.22 171.607 268.986C171.979 268.743 172.257 268.397 172.439 267.946V266.828H170.294C169.124 266.828 168.539 267.235 168.539 268.05C168.539 268.449 168.69 268.765 168.994 268.999C169.297 269.224 169.722 269.337 170.268 269.337ZM181.149 263.162V270H180.226V263.981H176.95L176.859 265.671C176.789 267.092 176.625 268.184 176.365 268.947C176.105 269.71 175.641 270.091 174.974 270.091C174.792 270.091 174.571 270.056 174.311 269.987L174.376 269.194C174.532 269.229 174.64 269.246 174.701 269.246C175.056 269.246 175.325 269.081 175.507 268.752C175.689 268.423 175.81 268.015 175.871 267.53C175.931 267.045 175.983 266.403 176.027 265.606L176.144 263.162H181.149ZM189.324 263.162L185.905 270.819C185.627 271.46 185.307 271.915 184.943 272.184C184.579 272.453 184.141 272.587 183.63 272.587C183.3 272.587 182.993 272.535 182.707 272.431C182.421 272.327 182.174 272.171 181.966 271.963L182.395 271.274C182.741 271.621 183.157 271.794 183.643 271.794C183.955 271.794 184.219 271.707 184.436 271.534C184.661 271.361 184.869 271.066 185.06 270.65L185.359 269.987L182.304 263.162H183.266L185.84 268.973L188.414 263.162H189.324ZM190.135 268.648C190.335 268.648 190.499 268.717 190.629 268.856C190.759 268.986 190.824 269.151 190.824 269.35C190.824 269.454 190.807 269.567 190.772 269.688C190.746 269.809 190.703 269.948 190.642 270.104L190.096 271.898H189.472L189.914 270.013C189.776 269.97 189.663 269.892 189.576 269.779C189.49 269.658 189.446 269.515 189.446 269.35C189.446 269.151 189.511 268.986 189.641 268.856C189.771 268.717 189.936 268.648 190.135 268.648ZM200.504 263.981H197.917V270H196.994V263.981H194.407V263.162H200.504V263.981ZM204.083 270.065C203.424 270.065 202.83 269.918 202.302 269.623C201.773 269.32 201.357 268.904 201.054 268.375C200.75 267.846 200.599 267.248 200.599 266.581C200.599 265.914 200.75 265.316 201.054 264.787C201.357 264.258 201.773 263.847 202.302 263.552C202.83 263.257 203.424 263.11 204.083 263.11C204.741 263.11 205.335 263.257 205.864 263.552C206.392 263.847 206.804 264.258 207.099 264.787C207.402 265.316 207.554 265.914 207.554 266.581C207.554 267.248 207.402 267.846 207.099 268.375C206.804 268.904 206.392 269.32 205.864 269.623C205.335 269.918 204.741 270.065 204.083 270.065ZM204.083 269.246C204.568 269.246 205.001 269.138 205.383 268.921C205.773 268.696 206.076 268.379 206.293 267.972C206.509 267.565 206.618 267.101 206.618 266.581C206.618 266.061 206.509 265.597 206.293 265.19C206.076 264.783 205.773 264.471 205.383 264.254C205.001 264.029 204.568 263.916 204.083 263.916C203.597 263.916 203.16 264.029 202.77 264.254C202.388 264.471 202.085 264.783 201.86 265.19C201.643 265.597 201.535 266.061 201.535 266.581C201.535 267.101 201.643 267.565 201.86 267.972C202.085 268.379 202.388 268.696 202.77 268.921C203.16 269.138 203.597 269.246 204.083 269.246ZM212.581 263.331C213.214 263.331 213.777 263.474 214.271 263.76C214.774 264.037 215.164 264.432 215.441 264.943C215.719 265.446 215.857 266.022 215.857 266.672C215.857 267.339 215.71 267.933 215.415 268.453C215.129 268.964 214.726 269.363 214.206 269.649C213.686 269.935 213.088 270.078 212.412 270.078C211.277 270.078 210.397 269.679 209.773 268.882C209.149 268.085 208.837 266.984 208.837 265.58C208.837 264.115 209.115 262.993 209.669 262.213C210.233 261.433 211.108 260.904 212.295 260.627L215.363 259.925L215.519 260.77L212.633 261.433C211.654 261.65 210.935 262.035 210.475 262.59C210.016 263.136 209.765 263.946 209.721 265.021C209.999 264.492 210.384 264.081 210.878 263.786C211.372 263.483 211.94 263.331 212.581 263.331ZM212.438 269.311C212.915 269.311 213.34 269.203 213.712 268.986C214.094 268.761 214.388 268.449 214.596 268.05C214.813 267.651 214.921 267.201 214.921 266.698C214.921 266.195 214.817 265.753 214.609 265.372C214.401 264.991 214.107 264.696 213.725 264.488C213.353 264.271 212.924 264.163 212.438 264.163C211.953 264.163 211.52 264.271 211.138 264.488C210.766 264.696 210.471 264.991 210.254 265.372C210.046 265.753 209.942 266.195 209.942 266.698C209.942 267.201 210.046 267.651 210.254 268.05C210.471 268.449 210.77 268.761 211.151 268.986C211.533 269.203 211.962 269.311 212.438 269.311ZM222.132 263.981H219.545V270H218.622V263.981H216.035V263.162H222.132V263.981ZM225.71 270.065C225.051 270.065 224.458 269.918 223.929 269.623C223.4 269.32 222.984 268.904 222.681 268.375C222.378 267.846 222.226 267.248 222.226 266.581C222.226 265.914 222.378 265.316 222.681 264.787C222.984 264.258 223.4 263.847 223.929 263.552C224.458 263.257 225.051 263.11 225.71 263.11C226.369 263.11 226.962 263.257 227.491 263.552C228.02 263.847 228.431 264.258 228.726 264.787C229.029 265.316 229.181 265.914 229.181 266.581C229.181 267.248 229.029 267.846 228.726 268.375C228.431 268.904 228.02 269.32 227.491 269.623C226.962 269.918 226.369 270.065 225.71 270.065ZM225.71 269.246C226.195 269.246 226.629 269.138 227.01 268.921C227.4 268.696 227.703 268.379 227.92 267.972C228.137 267.565 228.245 267.101 228.245 266.581C228.245 266.061 228.137 265.597 227.92 265.19C227.703 264.783 227.4 264.471 227.01 264.254C226.629 264.029 226.195 263.916 225.71 263.916C225.225 263.916 224.787 264.029 224.397 264.254C224.016 264.471 223.712 264.783 223.487 265.19C223.27 265.597 223.162 266.061 223.162 266.581C223.162 267.101 223.27 267.565 223.487 267.972C223.712 268.379 224.016 268.696 224.397 268.921C224.787 269.138 225.225 269.246 225.71 269.246ZM240.705 269.194V271.651H239.834V270H233.711V271.651H232.84V269.194H233.23C233.689 269.168 234.001 268.83 234.166 268.18C234.331 267.53 234.443 266.62 234.504 265.45L234.595 263.162H239.639V269.194H240.705ZM235.349 265.502C235.306 266.473 235.223 267.274 235.102 267.907C234.981 268.531 234.764 268.96 234.452 269.194H238.716V263.981H235.427L235.349 265.502ZM245.065 270.065C244.406 270.065 243.812 269.918 243.284 269.623C242.755 269.32 242.339 268.904 242.036 268.375C241.732 267.846 241.581 267.248 241.581 266.581C241.581 265.914 241.732 265.316 242.036 264.787C242.339 264.258 242.755 263.847 243.284 263.552C243.812 263.257 244.406 263.11 245.065 263.11C245.723 263.11 246.317 263.257 246.846 263.552C247.374 263.847 247.786 264.258 248.081 264.787C248.384 265.316 248.536 265.914 248.536 266.581C248.536 267.248 248.384 267.846 248.081 268.375C247.786 268.904 247.374 269.32 246.846 269.623C246.317 269.918 245.723 270.065 245.065 270.065ZM245.065 269.246C245.55 269.246 245.983 269.138 246.365 268.921C246.755 268.696 247.058 268.379 247.275 267.972C247.491 267.565 247.6 267.101 247.6 266.581C247.6 266.061 247.491 265.597 247.275 265.19C247.058 264.783 246.755 264.471 246.365 264.254C245.983 264.029 245.55 263.916 245.065 263.916C244.579 263.916 244.142 264.029 243.752 264.254C243.37 264.471 243.067 264.783 242.842 265.19C242.625 265.597 242.517 266.061 242.517 266.581C242.517 267.101 242.625 267.565 242.842 267.972C243.067 268.379 243.37 268.696 243.752 268.921C244.142 269.138 244.579 269.246 245.065 269.246ZM111.449 278.162V285H110.526V278.981H106.236V285H105.313V278.162H111.449ZM113.813 278.162H114.736V285H113.813V278.162ZM114.281 276.667C114.09 276.667 113.93 276.602 113.8 276.472C113.67 276.342 113.605 276.186 113.605 276.004C113.605 275.831 113.67 275.679 113.8 275.549C113.93 275.419 114.09 275.354 114.281 275.354C114.471 275.354 114.632 275.419 114.762 275.549C114.892 275.67 114.957 275.818 114.957 275.991C114.957 276.182 114.892 276.342 114.762 276.472C114.632 276.602 114.471 276.667 114.281 276.667ZM123.776 284.194V286.651H122.905V285H116.782V286.651H115.911V284.194H116.301C116.761 284.168 117.073 283.83 117.237 283.18C117.402 282.53 117.515 281.62 117.575 280.45L117.666 278.162H122.71V284.194H123.776ZM118.42 280.502C118.377 281.473 118.295 282.274 118.173 282.907C118.052 283.531 117.835 283.96 117.523 284.194H121.787V278.981H118.498L118.42 280.502ZM130.905 278.162V285H129.982V278.981H126.706L126.615 280.671C126.546 282.092 126.381 283.184 126.121 283.947C125.861 284.71 125.398 285.091 124.73 285.091C124.548 285.091 124.327 285.056 124.067 284.987L124.132 284.194C124.288 284.229 124.397 284.246 124.457 284.246C124.813 284.246 125.081 284.081 125.263 283.752C125.445 283.423 125.567 283.015 125.627 282.53C125.688 282.045 125.74 281.403 125.783 280.606L125.9 278.162H130.905ZM136.09 285.065C135.431 285.065 134.838 284.918 134.309 284.623C133.78 284.32 133.364 283.904 133.061 283.375C132.758 282.846 132.606 282.248 132.606 281.581C132.606 280.914 132.758 280.316 133.061 279.787C133.364 279.258 133.78 278.847 134.309 278.552C134.838 278.257 135.431 278.11 136.09 278.11C136.749 278.11 137.342 278.257 137.871 278.552C138.4 278.847 138.811 279.258 139.106 279.787C139.409 280.316 139.561 280.914 139.561 281.581C139.561 282.248 139.409 282.846 139.106 283.375C138.811 283.904 138.4 284.32 137.871 284.623C137.342 284.918 136.749 285.065 136.09 285.065ZM136.09 284.246C136.575 284.246 137.009 284.138 137.39 283.921C137.78 283.696 138.083 283.379 138.3 282.972C138.517 282.565 138.625 282.101 138.625 281.581C138.625 281.061 138.517 280.597 138.3 280.19C138.083 279.783 137.78 279.471 137.39 279.254C137.009 279.029 136.575 278.916 136.09 278.916C135.605 278.916 135.167 279.029 134.777 279.254C134.396 279.471 134.092 279.783 133.867 280.19C133.65 280.597 133.542 281.061 133.542 281.581C133.542 282.101 133.65 282.565 133.867 282.972C134.092 283.379 134.396 283.696 134.777 283.921C135.167 284.138 135.605 284.246 136.09 284.246ZM146.11 278.981H142.197V285H141.274V278.162H146.11V278.981ZM147.184 278.162H148.107V283.596L152.67 278.162H153.489V285H152.566V279.566L148.016 285H147.184V278.162ZM165.152 278.162V285H164.229V278.981H159.939V285H159.016V278.162H165.152ZM173.496 281.867H167.776C167.828 282.578 168.101 283.154 168.595 283.596C169.089 284.029 169.713 284.246 170.467 284.246C170.892 284.246 171.282 284.172 171.637 284.025C171.992 283.869 172.3 283.644 172.56 283.349L173.08 283.947C172.777 284.311 172.395 284.588 171.936 284.779C171.485 284.97 170.987 285.065 170.441 285.065C169.739 285.065 169.115 284.918 168.569 284.623C168.032 284.32 167.611 283.904 167.308 283.375C167.005 282.846 166.853 282.248 166.853 281.581C166.853 280.914 166.996 280.316 167.282 279.787C167.577 279.258 167.975 278.847 168.478 278.552C168.989 278.257 169.561 278.11 170.194 278.11C170.827 278.11 171.394 278.257 171.897 278.552C172.4 278.847 172.794 279.258 173.08 279.787C173.366 280.307 173.509 280.905 173.509 281.581L173.496 281.867ZM170.194 278.903C169.535 278.903 168.981 279.115 168.53 279.54C168.088 279.956 167.837 280.502 167.776 281.178H172.625C172.564 280.502 172.309 279.956 171.858 279.54C171.416 279.115 170.861 278.903 170.194 278.903ZM178.815 278.11C179.456 278.11 180.037 278.257 180.557 278.552C181.077 278.838 181.484 279.245 181.779 279.774C182.074 280.303 182.221 280.905 182.221 281.581C182.221 282.266 182.074 282.872 181.779 283.401C181.484 283.93 181.077 284.341 180.557 284.636C180.046 284.922 179.465 285.065 178.815 285.065C178.26 285.065 177.758 284.952 177.307 284.727C176.865 284.493 176.501 284.155 176.215 283.713V287.522H175.292V278.162H176.176V279.514C176.453 279.063 176.817 278.717 177.268 278.474C177.727 278.231 178.243 278.11 178.815 278.11ZM178.75 284.246C179.227 284.246 179.66 284.138 180.05 283.921C180.44 283.696 180.743 283.379 180.96 282.972C181.185 282.565 181.298 282.101 181.298 281.581C181.298 281.061 181.185 280.602 180.96 280.203C180.743 279.796 180.44 279.479 180.05 279.254C179.66 279.029 179.227 278.916 178.75 278.916C178.265 278.916 177.827 279.029 177.437 279.254C177.056 279.479 176.752 279.796 176.527 280.203C176.31 280.602 176.202 281.061 176.202 281.581C176.202 282.101 176.31 282.565 176.527 282.972C176.752 283.379 177.056 283.696 177.437 283.921C177.827 284.138 178.265 284.246 178.75 284.246ZM193.382 278.162V285H183.944V278.162H184.867V284.194H188.221V278.162H189.144V284.194H192.459V278.162H193.382ZM198.578 285.065C197.92 285.065 197.326 284.918 196.797 284.623C196.269 284.32 195.853 283.904 195.549 283.375C195.246 282.846 195.094 282.248 195.094 281.581C195.094 280.914 195.246 280.316 195.549 279.787C195.853 279.258 196.269 278.847 196.797 278.552C197.326 278.257 197.92 278.11 198.578 278.11C199.237 278.11 199.831 278.257 200.359 278.552C200.888 278.847 201.3 279.258 201.594 279.787C201.898 280.316 202.049 280.914 202.049 281.581C202.049 282.248 201.898 282.846 201.594 283.375C201.3 283.904 200.888 284.32 200.359 284.623C199.831 284.918 199.237 285.065 198.578 285.065ZM198.578 284.246C199.064 284.246 199.497 284.138 199.878 283.921C200.268 283.696 200.572 283.379 200.788 282.972C201.005 282.565 201.113 282.101 201.113 281.581C201.113 281.061 201.005 280.597 200.788 280.19C200.572 279.783 200.268 279.471 199.878 279.254C199.497 279.029 199.064 278.916 198.578 278.916C198.093 278.916 197.655 279.029 197.265 279.254C196.884 279.471 196.581 279.783 196.355 280.19C196.139 280.597 196.03 281.061 196.03 281.581C196.03 282.101 196.139 282.565 196.355 282.972C196.581 283.379 196.884 283.696 197.265 283.921C197.655 284.138 198.093 284.246 198.578 284.246ZM208.598 278.981H204.685V285H203.762V278.162H208.598V278.981ZM212.176 285.065C211.517 285.065 210.923 284.918 210.395 284.623C209.866 284.32 209.45 283.904 209.147 283.375C208.843 282.846 208.692 282.248 208.692 281.581C208.692 280.914 208.843 280.316 209.147 279.787C209.45 279.258 209.866 278.847 210.395 278.552C210.923 278.257 211.517 278.11 212.176 278.11C212.834 278.11 213.428 278.257 213.957 278.552C214.485 278.847 214.897 279.258 215.192 279.787C215.495 280.316 215.647 280.914 215.647 281.581C215.647 282.248 215.495 282.846 215.192 283.375C214.897 283.904 214.485 284.32 213.957 284.623C213.428 284.918 212.834 285.065 212.176 285.065ZM212.176 284.246C212.661 284.246 213.094 284.138 213.476 283.921C213.866 283.696 214.169 283.379 214.386 282.972C214.602 282.565 214.711 282.101 214.711 281.581C214.711 281.061 214.602 280.597 214.386 280.19C214.169 279.783 213.866 279.471 213.476 279.254C213.094 279.029 212.661 278.916 212.176 278.916C211.69 278.916 211.253 279.029 210.863 279.254C210.481 279.471 210.178 279.783 209.953 280.19C209.736 280.597 209.628 281.061 209.628 281.581C209.628 282.101 209.736 282.565 209.953 282.972C210.178 283.379 210.481 283.696 210.863 283.921C211.253 284.138 211.69 284.246 212.176 284.246ZM111.449 293.162V300H110.526V293.981H106.236V300H105.313V293.162H111.449ZM116.634 300.065C115.975 300.065 115.381 299.918 114.853 299.623C114.324 299.32 113.908 298.904 113.605 298.375C113.301 297.846 113.15 297.248 113.15 296.581C113.15 295.914 113.301 295.316 113.605 294.787C113.908 294.258 114.324 293.847 114.853 293.552C115.381 293.257 115.975 293.11 116.634 293.11C117.292 293.11 117.886 293.257 118.415 293.552C118.943 293.847 119.355 294.258 119.65 294.787C119.953 295.316 120.105 295.914 120.105 296.581C120.105 297.248 119.953 297.846 119.65 298.375C119.355 298.904 118.943 299.32 118.415 299.623C117.886 299.918 117.292 300.065 116.634 300.065ZM116.634 299.246C117.119 299.246 117.552 299.138 117.934 298.921C118.324 298.696 118.627 298.379 118.844 297.972C119.06 297.565 119.169 297.101 119.169 296.581C119.169 296.061 119.06 295.597 118.844 295.19C118.627 294.783 118.324 294.471 117.934 294.254C117.552 294.029 117.119 293.916 116.634 293.916C116.148 293.916 115.711 294.029 115.321 294.254C114.939 294.471 114.636 294.783 114.411 295.19C114.194 295.597 114.086 296.061 114.086 296.581C114.086 297.101 114.194 297.565 114.411 297.972C114.636 298.379 114.939 298.696 115.321 298.921C115.711 299.138 116.148 299.246 116.634 299.246ZM126.172 296.464C127.1 296.681 127.563 297.24 127.563 298.141C127.563 298.739 127.342 299.198 126.9 299.519C126.458 299.84 125.8 300 124.924 300H121.817V293.162H124.833C125.613 293.162 126.224 293.314 126.666 293.617C127.108 293.92 127.329 294.354 127.329 294.917C127.329 295.29 127.225 295.61 127.017 295.879C126.818 296.139 126.536 296.334 126.172 296.464ZM122.714 296.204H124.768C125.297 296.204 125.7 296.104 125.977 295.905C126.263 295.706 126.406 295.415 126.406 295.034C126.406 294.653 126.263 294.367 125.977 294.176C125.7 293.985 125.297 293.89 124.768 293.89H122.714V296.204ZM124.885 299.272C125.475 299.272 125.917 299.177 126.211 298.986C126.506 298.795 126.653 298.496 126.653 298.089C126.653 297.682 126.519 297.383 126.25 297.192C125.982 296.993 125.557 296.893 124.976 296.893H122.714V299.272H124.885ZM135.447 296.867H129.727C129.779 297.578 130.052 298.154 130.546 298.596C131.04 299.029 131.664 299.246 132.418 299.246C132.842 299.246 133.232 299.172 133.588 299.025C133.943 298.869 134.251 298.644 134.511 298.349L135.031 298.947C134.727 299.311 134.346 299.588 133.887 299.779C133.436 299.97 132.938 300.065 132.392 300.065C131.69 300.065 131.066 299.918 130.52 299.623C129.982 299.32 129.562 298.904 129.259 298.375C128.955 297.846 128.804 297.248 128.804 296.581C128.804 295.914 128.947 295.316 129.233 294.787C129.527 294.258 129.926 293.847 130.429 293.552C130.94 293.257 131.512 293.11 132.145 293.11C132.777 293.11 133.345 293.257 133.848 293.552C134.35 293.847 134.745 294.258 135.031 294.787C135.317 295.307 135.46 295.905 135.46 296.581L135.447 296.867ZM132.145 293.903C131.486 293.903 130.931 294.115 130.481 294.54C130.039 294.956 129.787 295.502 129.727 296.178H134.576C134.515 295.502 134.259 294.956 133.809 294.54C133.367 294.115 132.812 293.903 132.145 293.903ZM140.766 293.11C141.407 293.11 141.988 293.257 142.508 293.552C143.028 293.838 143.435 294.245 143.73 294.774C144.024 295.303 144.172 295.905 144.172 296.581C144.172 297.266 144.024 297.872 143.73 298.401C143.435 298.93 143.028 299.341 142.508 299.636C141.996 299.922 141.416 300.065 140.766 300.065C140.211 300.065 139.708 299.952 139.258 299.727C138.816 299.493 138.452 299.155 138.166 298.713V302.522H137.243V293.162H138.127V294.514C138.404 294.063 138.768 293.717 139.219 293.474C139.678 293.231 140.194 293.11 140.766 293.11ZM140.701 299.246C141.177 299.246 141.611 299.138 142.001 298.921C142.391 298.696 142.694 298.379 142.911 297.972C143.136 297.565 143.249 297.101 143.249 296.581C143.249 296.061 143.136 295.602 142.911 295.203C142.694 294.796 142.391 294.479 142.001 294.254C141.611 294.029 141.177 293.916 140.701 293.916C140.215 293.916 139.778 294.029 139.388 294.254C139.006 294.479 138.703 294.796 138.478 295.203C138.261 295.602 138.153 296.061 138.153 296.581C138.153 297.101 138.261 297.565 138.478 297.972C138.703 298.379 139.006 298.696 139.388 298.921C139.778 299.138 140.215 299.246 140.701 299.246ZM149.931 300L147.76 297.14L145.576 300H144.536L147.24 296.49L144.666 293.162H145.706L147.76 295.84L149.814 293.162H150.828L148.254 296.49L150.984 300H149.931ZM157.654 293.162L154.235 300.819C153.958 301.46 153.637 301.915 153.273 302.184C152.909 302.453 152.471 302.587 151.96 302.587C151.631 302.587 151.323 302.535 151.037 302.431C150.751 302.327 150.504 302.171 150.296 301.963L150.725 301.274C151.072 301.621 151.488 301.794 151.973 301.794C152.285 301.794 152.549 301.707 152.766 301.534C152.991 301.361 153.199 301.066 153.39 300.65L153.689 299.987L150.634 293.162H151.596L154.17 298.973L156.744 293.162H157.654ZM158.453 300.065C158.262 300.065 158.097 299.996 157.959 299.857C157.829 299.718 157.764 299.549 157.764 299.35C157.764 299.151 157.829 298.986 157.959 298.856C158.097 298.717 158.262 298.648 158.453 298.648C158.643 298.648 158.808 298.717 158.947 298.856C159.085 298.986 159.155 299.151 159.155 299.35C159.155 299.549 159.085 299.718 158.947 299.857C158.808 299.996 158.643 300.065 158.453 300.065Z" fill="#00229A"/>
</svg>
