<svg width="328" height="328" viewBox="0 0 328 328" fill="none" xmlns="http://www.w3.org/2000/svg">
<path d="M72.1727 285.969C70.7054 285.899 69.3212 285.267 68.3073 284.204C67.2935 283.141 66.7279 281.728 66.7279 280.259C66.7279 278.79 67.2935 277.378 68.3073 276.315C69.3212 275.252 70.7054 274.62 72.1727 274.55V271.747H61.3446V288.765H72.1727V285.969Z" fill="white"/>
<path d="M72.8142 274.557C74.2816 274.626 75.6658 275.258 76.6796 276.321C77.6934 277.384 78.259 278.797 78.259 280.266C78.259 281.735 77.6934 283.147 76.6796 284.21C75.6658 285.273 74.2816 285.905 72.8142 285.975V288.772H83.6359V271.753H72.8142V274.557Z" fill="white"/>
<path d="M216.652 285.969C215.185 285.899 213.801 285.267 212.787 284.204C211.773 283.141 211.207 281.728 211.207 280.259C211.207 278.79 211.773 277.378 212.787 276.315C213.801 275.252 215.185 274.62 216.652 274.55V271.747H205.831V288.765H216.652V285.969Z" fill="white"/>
<path d="M217.294 274.557C218.761 274.626 220.145 275.258 221.159 276.321C222.173 277.384 222.739 278.797 222.739 280.266C222.739 281.735 222.173 283.147 221.159 284.21C220.145 285.273 218.761 285.905 217.294 285.975V288.772H228.122V271.753H217.294V274.557Z" fill="white"/>
<path d="M133.588 288.772H155.879V271.753H133.588V288.772ZM144.736 274.537C145.869 274.537 146.977 274.873 147.919 275.503C148.861 276.132 149.595 277.027 150.029 278.074C150.462 279.12 150.576 280.272 150.355 281.383C150.134 282.495 149.588 283.515 148.787 284.316C147.986 285.118 146.965 285.663 145.854 285.884C144.743 286.105 143.591 285.992 142.544 285.558C141.498 285.125 140.603 284.39 139.974 283.448C139.344 282.506 139.008 281.399 139.008 280.266C139.01 278.747 139.614 277.291 140.688 276.217C141.762 275.143 143.218 274.539 144.736 274.537Z" fill="white"/>
<path d="M144.736 285.968C145.87 285.968 146.977 285.632 147.92 285.003C148.862 284.373 149.596 283.478 150.029 282.431C150.463 281.384 150.576 280.232 150.354 279.12C150.133 278.009 149.587 276.988 148.785 276.187C147.983 275.386 146.962 274.841 145.85 274.621C144.738 274.401 143.586 274.515 142.54 274.95C141.493 275.384 140.599 276.119 139.97 277.062C139.342 278.005 139.007 279.113 139.008 280.247C139.01 281.765 139.614 283.22 140.688 284.293C141.762 285.366 143.218 285.968 144.736 285.968V285.968Z" fill="#00229A"/>
<path d="M278.074 271.753V288.772H300.358V271.753H278.074ZM289.216 285.969C288.083 285.969 286.975 285.632 286.033 285.003C285.091 284.373 284.356 283.478 283.923 282.431C283.49 281.384 283.377 280.232 283.598 279.12C283.82 278.009 284.366 276.988 285.168 276.187C285.97 275.386 286.991 274.841 288.102 274.621C289.214 274.401 290.366 274.515 291.413 274.95C292.459 275.384 293.353 276.119 293.982 277.062C294.611 278.005 294.946 279.113 294.944 280.247C294.943 281.765 294.338 283.22 293.264 284.293C292.19 285.366 290.734 285.969 289.216 285.969V285.969Z" fill="white"/>
<path d="M289.216 274.538C288.083 274.538 286.976 274.874 286.034 275.503C285.091 276.132 284.357 277.027 283.924 278.074C283.49 279.121 283.377 280.272 283.598 281.384C283.819 282.495 284.364 283.515 285.165 284.317C285.967 285.118 286.987 285.663 288.098 285.884C289.21 286.105 290.361 285.992 291.408 285.558C292.455 285.125 293.35 284.391 293.979 283.448C294.608 282.506 294.944 281.399 294.944 280.266C294.943 278.747 294.339 277.291 293.265 276.217C292.191 275.143 290.735 274.539 289.216 274.538V274.538Z" fill="#00229A"/>
<path d="M72.1727 214.623C70.7054 214.554 69.3212 213.922 68.3073 212.859C67.2935 211.796 66.7279 210.383 66.7279 208.914C66.7279 207.445 67.2935 206.033 68.3073 204.97C69.3212 203.907 70.7054 203.275 72.1727 203.205V200.402H61.3446V217.42H72.1727V214.623Z" fill="white"/>
<path d="M83.6359 200.402H72.8142V203.218C74.2816 203.288 75.6658 203.919 76.6796 204.982C77.6934 206.046 78.259 207.458 78.259 208.927C78.259 210.396 77.6934 211.809 76.6796 212.872C75.6658 213.935 74.2816 214.567 72.8142 214.636V217.433H83.6359V200.402Z" fill="white"/>
<path d="M217.294 203.218C218.761 203.288 220.145 203.919 221.159 204.982C222.173 206.046 222.739 207.458 222.739 208.927C222.739 210.396 222.173 211.809 221.159 212.872C220.145 213.935 218.761 214.567 217.294 214.636V217.433H228.122V200.402H217.294V203.218Z" fill="white"/>
<path d="M205.831 217.42H216.652V214.623C215.185 214.554 213.801 213.922 212.787 212.859C211.773 211.796 211.207 210.383 211.207 208.914C211.207 207.445 211.773 206.033 212.787 204.97C213.801 203.907 215.185 203.275 216.652 203.205V200.402H205.831V217.42Z" fill="white"/>
<path d="M155.879 200.402H133.588V217.42H155.879V200.402ZM144.736 214.636C143.603 214.637 142.495 214.302 141.552 213.673C140.609 213.045 139.873 212.15 139.439 211.103C139.005 210.056 138.891 208.904 139.111 207.792C139.332 206.68 139.878 205.659 140.68 204.857C141.481 204.056 142.502 203.51 143.614 203.289C144.726 203.068 145.878 203.182 146.925 203.617C147.972 204.051 148.867 204.786 149.496 205.729C150.125 206.672 150.46 207.781 150.458 208.914C150.457 210.431 149.853 211.886 148.781 212.958C147.708 214.031 146.254 214.635 144.736 214.636V214.636Z" fill="white"/>
<path d="M144.736 203.218C143.603 203.217 142.495 203.552 141.552 204.181C140.609 204.809 139.874 205.703 139.44 206.75C139.005 207.797 138.891 208.949 139.111 210.06C139.331 211.172 139.876 212.193 140.677 212.995C141.478 213.797 142.499 214.343 143.61 214.564C144.721 214.786 145.874 214.673 146.921 214.24C147.968 213.806 148.863 213.072 149.493 212.13C150.122 211.188 150.458 210.08 150.458 208.947C150.458 207.428 149.856 205.972 148.783 204.898C147.71 203.824 146.255 203.22 144.736 203.218V203.218Z" fill="#00229A"/>
<path d="M278.074 200.402V217.42H300.358V200.402H278.074ZM289.216 214.636C288.083 214.636 286.975 214.3 286.033 213.67C285.091 213.041 284.356 212.146 283.923 211.098C283.49 210.051 283.377 208.899 283.598 207.788C283.82 206.677 284.366 205.656 285.168 204.855C285.97 204.054 286.991 203.509 288.102 203.289C289.214 203.068 290.366 203.183 291.413 203.617C292.459 204.052 293.353 204.787 293.982 205.73C294.611 206.673 294.946 207.781 294.944 208.914C294.943 210.432 294.338 211.888 293.264 212.961C292.19 214.034 290.734 214.636 289.216 214.636V214.636Z" fill="white"/>
<path d="M289.216 203.218C288.083 203.218 286.976 203.554 286.034 204.184C285.091 204.813 284.357 205.708 283.924 206.754C283.49 207.801 283.377 208.953 283.598 210.064C283.819 211.175 284.364 212.196 285.165 212.997C285.967 213.798 286.987 214.344 288.098 214.565C289.21 214.786 290.361 214.673 291.408 214.239C292.455 213.805 293.35 213.071 293.979 212.129C294.608 211.187 294.944 210.08 294.944 208.947C294.944 207.427 294.341 205.97 293.267 204.896C292.192 203.822 290.735 203.218 289.216 203.218V203.218Z" fill="#00229A"/>
<path d="M83.6359 128.166H72.8142V130.969C74.2816 131.038 75.6658 131.67 76.6796 132.733C77.6934 133.796 78.259 135.209 78.259 136.678C78.259 138.147 77.6934 139.559 76.6796 140.623C75.6658 141.686 74.2816 142.317 72.8142 142.387V145.184H83.6359V128.166Z" fill="white"/>
<path d="M72.1727 142.381C70.7054 142.311 69.3212 141.679 68.3073 140.616C67.2935 139.553 66.7279 138.14 66.7279 136.671C66.7279 135.203 67.2935 133.79 68.3073 132.727C69.3212 131.664 70.7054 131.032 72.1727 130.962V128.166H61.3446V145.184H72.1727V142.381Z" fill="white"/>
<path d="M217.294 130.962C218.761 131.032 220.145 131.664 221.159 132.727C222.173 133.79 222.739 135.203 222.739 136.671C222.739 138.14 222.173 139.553 221.159 140.616C220.145 141.679 218.761 142.311 217.294 142.381V145.177H228.122V128.166H217.294V130.962Z" fill="white"/>
<path d="M205.831 145.177H216.652V142.381C215.185 142.311 213.801 141.679 212.787 140.616C211.773 139.553 211.207 138.14 211.207 136.671C211.207 135.203 211.773 133.79 212.787 132.727C213.801 131.664 215.185 131.032 216.652 130.962V128.166H205.831V145.177Z" fill="white"/>
<path d="M155.879 128.166H133.588V145.184H155.879V128.166ZM144.736 142.4C143.603 142.401 142.495 142.066 141.552 141.437C140.609 140.808 139.873 139.914 139.439 138.867C139.005 137.82 138.891 136.667 139.111 135.556C139.332 134.444 139.878 133.422 140.68 132.621C141.481 131.819 142.502 131.274 143.614 131.053C144.726 130.832 145.878 130.946 146.925 131.38C147.972 131.815 148.867 132.55 149.496 133.493C150.125 134.436 150.46 135.544 150.458 136.678C150.455 138.194 149.851 139.647 148.778 140.718C147.706 141.789 146.252 142.392 144.736 142.393V142.4Z" fill="white"/>
<path d="M144.736 130.943C143.603 130.942 142.495 131.276 141.552 131.905C140.609 132.534 139.874 133.428 139.44 134.475C139.005 135.521 138.891 136.673 139.111 137.785C139.331 138.896 139.876 139.918 140.677 140.72C141.478 141.521 142.499 142.068 143.61 142.289C144.721 142.511 145.874 142.398 146.921 141.964C147.968 141.531 148.863 140.797 149.493 139.854C150.122 138.912 150.458 137.804 150.458 136.671C150.457 135.154 149.854 133.699 148.781 132.625C147.708 131.551 146.254 130.946 144.736 130.943V130.943Z" fill="#00229A"/>
<path d="M278.074 128.166V145.184H300.358V128.166H278.074ZM289.216 142.4C288.083 142.4 286.975 142.064 286.033 141.434C285.091 140.804 284.356 139.909 283.923 138.862C283.49 137.815 283.377 136.663 283.598 135.552C283.82 134.44 284.366 133.42 285.168 132.619C285.97 131.818 286.991 131.273 288.102 131.052C289.214 130.832 290.366 130.946 291.413 131.381C292.459 131.816 293.353 132.551 293.982 133.494C294.611 134.437 294.946 135.545 294.944 136.678C294.941 138.195 294.336 139.649 293.262 140.72C292.188 141.792 290.733 142.393 289.216 142.393V142.4Z" fill="white"/>
<path d="M289.216 130.943C288.083 130.943 286.976 131.279 286.034 131.908C285.091 132.538 284.357 133.432 283.924 134.479C283.49 135.526 283.377 136.678 283.598 137.789C283.819 138.9 284.364 139.921 285.165 140.722C285.967 141.523 286.987 142.069 288.098 142.29C289.21 142.511 290.361 142.397 291.408 141.964C292.455 141.53 293.35 140.796 293.979 139.854C294.608 138.912 294.944 137.804 294.944 136.671C294.943 135.153 294.339 133.696 293.265 132.623C292.191 131.549 290.735 130.945 289.216 130.943V130.943Z" fill="#00229A"/>
<path d="M300.583 73.5757V73.5052H301V55.2039H300.583V55.1333H265.302V46.2168H264.66V55.1333H251.709V54.4918H251.067V56.8332C251.088 57.3327 251.008 57.8312 250.831 58.2988C250.654 58.7663 250.385 59.1933 250.039 59.5541C249.693 59.9148 249.277 60.2019 248.817 60.398C248.358 60.5941 247.863 60.6951 247.363 60.6951C246.863 60.6951 246.368 60.5941 245.909 60.398C245.449 60.2019 245.033 59.9148 244.687 59.5541C244.341 59.1933 244.072 58.7663 243.895 58.2988C243.718 57.8312 243.638 57.3327 243.658 56.8332V54.5047H243.017V55.1461H221.322V54.5047H220.681V82.7296C220.702 83.2291 220.621 83.7276 220.444 84.1951C220.268 84.6627 219.998 85.0897 219.652 85.4505C219.306 85.8112 218.89 86.0983 218.431 86.2943C217.971 86.4904 217.476 86.5915 216.976 86.5915C216.476 86.5915 215.982 86.4904 215.522 86.2943C215.062 86.0983 214.647 85.8112 214.301 85.4505C213.954 85.0897 213.685 84.6627 213.508 84.1951C213.331 83.7276 213.251 83.2291 213.272 82.7296V54.5047H212.63V55.1461H169.048V46.2168H168.407V55.1333H120.938V46.2168H120.296V55.1333H72.827V46.2168H72.1855V55.1333H42.344V64.0178H40.7404V64.6592H42.344V73.5757H72.1727V127.46H42.344V136.363H40.7404V137.005H42.344V145.902H72.1727V199.69H42.344V218.132H72.1727V271.041H42.344V289.484H72.1727V299.747H72.8142V289.484H120.283V299.747H120.925V289.484H168.394V299.747H169.036V289.484H216.639V299.747H217.281V289.484H264.628V299.747H265.27V289.484H300.551V289.413H300.968V271.112H300.551V271.041H265.27V218.132H300.551V218.062H300.968V199.76H300.551V199.69H265.27V145.889H300.551V145.819H300.968V127.524H300.551V127.453H265.27V73.5693L300.583 73.5757ZM300.358 72.8637H278.074V55.8453H300.358V72.8637ZM277.432 55.7748V72.9343H265.283V55.7748H277.432ZM247.366 61.1824C248.519 61.1807 249.623 60.7218 250.437 59.9063C251.252 59.0909 251.709 57.9856 251.709 56.8332V55.7748H264.641V72.9343H228.763V55.7748H243.017V56.8332C243.019 57.9862 243.477 59.0914 244.293 59.9067C245.108 60.722 246.213 61.1807 247.366 61.1824V61.1824ZM221.322 68.0719C222.213 67.038 222.702 65.7189 222.702 64.3545C222.702 62.9901 222.213 61.671 221.322 60.6372V55.8453H228.122V72.8637H221.322V68.0719ZM205.831 271.753H216.652V274.557C215.185 274.626 213.801 275.258 212.787 276.321C211.773 277.384 211.207 278.797 211.207 280.266C211.207 281.735 211.773 283.147 212.787 284.21C213.801 285.273 215.185 285.905 216.652 285.975V288.772H205.831V271.753ZM228.122 288.772H217.294V285.968C218.761 285.899 220.145 285.267 221.159 284.204C222.173 283.141 222.739 281.728 222.739 280.259C222.739 278.79 222.173 277.378 221.159 276.315C220.145 275.252 218.761 274.62 217.294 274.55V271.747H228.122V288.772ZM169.048 271.041V218.132H216.652V271.041H169.048ZM155.879 288.772H133.588V271.753H155.879V288.772ZM120.931 271.041V218.132H168.4V271.041H120.931ZM72.8206 214.591C74.2879 214.522 75.6721 213.89 76.686 212.827C77.6998 211.764 78.2654 210.351 78.2654 208.882C78.2654 207.413 77.6998 206.001 76.686 204.938C75.6721 203.875 74.2879 203.243 72.8206 203.173V200.37H83.6359V217.388H72.8142L72.8206 214.591ZM61.3446 200.402H72.1727V203.218C70.7053 203.288 69.3211 203.919 68.3073 204.983C67.2934 206.046 66.7278 207.458 66.7278 208.927C66.7278 210.396 67.2934 211.809 68.3073 212.872C69.3211 213.935 70.7053 214.567 72.1727 214.636V217.433H61.3446V200.402ZM84.2773 200.331H120.29V217.491H84.2773V200.331ZM120.931 200.331H132.946V217.491H120.931V200.331ZM72.8206 142.38C74.2879 142.311 75.6721 141.679 76.686 140.616C77.6998 139.553 78.2654 138.14 78.2654 136.671C78.2654 135.202 77.6998 133.79 76.686 132.727C75.6721 131.664 74.2879 131.032 72.8206 130.962V128.165H83.6359V145.184H72.8142L72.8206 142.38ZM61.3446 128.165H72.1727V130.969C70.7053 131.038 69.3211 131.67 68.3073 132.733C67.2934 133.796 66.7278 135.209 66.7278 136.678C66.7278 138.147 67.2934 139.559 68.3073 140.622C69.3211 141.685 70.7053 142.317 72.1727 142.387V145.184H61.3446V128.165ZM84.2773 128.095H120.29V145.254H84.2773V128.095ZM120.931 128.095H132.946V145.254H120.931V128.095ZM133.588 55.8453H155.879V72.8637H133.588V55.8453ZM168.407 73.5757V127.46H120.938V73.5757H168.407ZM216.652 130.962C215.185 131.032 213.801 131.664 212.787 132.727C211.773 133.79 211.207 135.202 211.207 136.671C211.207 138.14 211.773 139.553 212.787 140.616C213.801 141.679 215.185 142.311 216.652 142.38V145.177H205.831V128.165H216.652V130.962ZM228.122 145.177H217.294V142.38C218.761 142.311 220.145 141.679 221.159 140.616C222.173 139.553 222.739 138.14 222.739 136.671C222.739 135.202 222.173 133.79 221.159 132.727C220.145 131.664 218.761 131.032 217.294 130.962V128.165H228.122V145.177ZM205.189 145.248H169.048V128.088H205.189V145.248ZM168.407 145.248H156.52V128.088H168.407V145.248ZM133.588 128.165H155.879V145.184H133.588V128.165ZM168.407 145.896V199.69H120.938V145.889L168.407 145.896ZM216.652 203.218C215.185 203.288 213.801 203.919 212.787 204.983C211.773 206.046 211.207 207.458 211.207 208.927C211.207 210.396 211.773 211.809 212.787 212.872C213.801 213.935 215.185 214.567 216.652 214.636V217.433H205.831V200.402H216.652V203.218ZM228.122 217.433H217.294V214.636C218.761 214.567 220.145 213.935 221.159 212.872C222.173 211.809 222.739 210.396 222.739 208.927C222.739 207.458 222.173 206.046 221.159 204.983C220.145 203.919 218.761 203.288 217.294 203.218V200.415H228.122V217.433ZM205.189 217.504H169.048V200.331H205.189V217.504ZM168.407 217.504H156.52V200.331H168.407V217.504ZM133.588 200.415H155.879V217.433H133.588V200.415ZM228.763 200.344H264.641V217.504H228.763V200.344ZM169.048 199.703V145.889H216.652V199.69L169.048 199.703ZM228.763 128.101H264.641V145.261H228.763V128.101ZM169.048 127.46V73.5757H212.63V82.7104C212.63 83.8064 213.045 84.8619 213.791 85.665C214.537 86.4681 215.559 86.9594 216.652 87.0403V127.453L169.048 127.46ZM212.63 60.6372C211.74 61.671 211.25 62.9901 211.25 64.3545C211.25 65.7189 211.74 67.038 212.63 68.0719V72.8637H205.831V55.8453H212.63V60.6372ZM205.189 55.7748V72.9343H169.048V55.7748H205.189ZM168.407 72.9343H156.52V55.7748H168.407V72.9343ZM132.946 55.7748V72.9343H120.931V55.7748H132.946ZM120.29 72.9343H84.2773V55.7748H120.29V72.9343ZM72.8206 70.0669C74.2879 69.9973 75.6721 69.3654 76.686 68.3024C77.6998 67.2393 78.2654 65.8267 78.2654 64.3577C78.2654 62.8887 77.6998 61.4762 76.686 60.4131C75.6721 59.3501 74.2879 58.7182 72.8206 58.6486V55.8453H83.6359V72.8637H72.8142L72.8206 70.0669ZM61.3446 55.8453H72.1727V58.6486C70.7053 58.7182 69.3211 59.3501 68.3073 60.4131C67.2934 61.4762 66.7278 62.8887 66.7278 64.3577C66.7278 65.8267 67.2934 67.2393 68.3073 68.3024C69.3211 69.3654 70.7053 69.9973 72.1727 70.0669V72.8637H61.3446V55.8453ZM42.9855 55.7748H60.7031V72.9343H42.9855V55.7748ZM72.8142 73.5757H120.283V127.46H72.8142V73.5757ZM42.9855 128.101H60.7031V145.261H42.9855V128.101ZM72.8142 145.902H120.283V199.69H72.8142V145.902ZM42.9855 200.331H60.7031V217.491H42.9855V200.331ZM72.8142 218.132H120.283V271.041H72.8142V218.132ZM61.3446 271.753H72.1727V274.557C70.7053 274.626 69.3211 275.258 68.3073 276.321C67.2934 277.384 66.7278 278.797 66.7278 280.266C66.7278 281.735 67.2934 283.147 68.3073 284.21C69.3211 285.273 70.7053 285.905 72.1727 285.975V288.772H61.3446V271.753ZM83.6359 288.772H72.8142V285.968C74.2815 285.899 75.6657 285.267 76.6795 284.204C77.6934 283.141 78.259 281.728 78.259 280.259C78.259 278.79 77.6934 277.378 76.6795 276.315C75.6657 275.252 74.2815 274.62 72.8142 274.55V271.747H83.6359V288.772ZM42.9855 271.683H60.7031V288.842H42.9855V271.683ZM84.2773 288.842V271.683H120.29V288.842H84.2773ZM120.931 271.683H132.946V288.842H120.931V271.683ZM156.52 288.842V271.683H168.407V288.842H156.52ZM169.048 271.683H205.189V288.842H169.048V271.683ZM228.763 288.842V271.683H264.641V288.842H228.763ZM300.358 288.772H278.074V271.753H300.358V288.772ZM277.432 271.683V288.842H265.283V271.683H277.432ZM264.641 271.041H217.294V218.132H264.641V271.041ZM300.358 217.42H278.074V200.402H300.358V217.42ZM277.432 200.331V217.491H265.283V200.331H277.432ZM264.641 199.69H217.294V145.889H264.641V199.69ZM300.358 145.164H278.074V128.165H300.358V145.164ZM277.432 128.088V145.248H265.283V128.088H277.432ZM264.641 127.447H217.294V87.0339C218.388 86.9545 219.412 86.4639 220.159 85.6606C220.906 84.8574 221.322 83.8011 221.322 82.7039V73.5757H264.641V127.447Z" fill="#00229A"/>
<path d="M83.6359 55.8452H72.8142V58.6485C74.2816 58.718 75.6658 59.3499 76.6796 60.413C77.6934 61.476 78.259 62.8886 78.259 64.3576C78.259 65.8266 77.6934 67.2392 76.6796 68.3022C75.6658 69.3653 74.2816 69.9972 72.8142 70.0667V72.8636H83.6359V55.8452Z" fill="white"/>
<path d="M72.1727 70.0667C70.7054 69.9972 69.3212 69.3653 68.3073 68.3022C67.2935 67.2392 66.7279 65.8266 66.7279 64.3576C66.7279 62.8886 67.2935 61.476 68.3073 60.413C69.3212 59.3499 70.7054 58.718 72.1727 58.6485V55.8452H61.3446V72.8636H72.1727V70.0667Z" fill="white"/>
<path d="M228.122 55.8452H221.322V60.637C222.213 61.6709 222.702 62.99 222.702 64.3544C222.702 65.7188 222.213 67.0379 221.322 68.0717V72.8636H228.122V55.8452Z" fill="white"/>
<path d="M205.831 72.8636H212.63V68.0717C211.74 67.0379 211.25 65.7188 211.25 64.3544C211.25 62.99 211.74 61.6709 212.63 60.637V55.8452H205.831V72.8636Z" fill="white"/>
<path d="M155.879 55.8452H133.588V72.8636H155.879V55.8452ZM144.736 70.0796C143.603 70.0808 142.495 69.7458 141.552 69.1168C140.609 68.4879 139.873 67.5933 139.439 66.5463C139.005 65.4993 138.891 64.347 139.111 63.2352C139.332 62.1234 139.878 61.1021 140.68 60.3006C141.481 59.4991 142.502 58.9534 143.614 58.7326C144.726 58.5117 145.878 58.6257 146.925 59.0601C147.972 59.4944 148.867 60.2297 149.496 61.1727C150.125 62.1157 150.46 63.2241 150.458 64.3576C150.457 65.8746 149.853 67.3291 148.781 68.4018C147.708 69.4745 146.254 70.0779 144.736 70.0796Z" fill="white"/>
<path d="M144.736 58.6299C143.603 58.6286 142.495 58.9635 141.552 59.5922C140.609 60.2208 139.874 61.115 139.44 62.1617C139.005 63.2083 138.891 64.3603 139.111 65.4719C139.331 66.5835 139.876 67.6048 140.677 68.4066C141.478 69.2083 142.499 69.7546 143.61 69.9761C144.721 70.1977 145.874 70.0846 146.921 69.6512C147.968 69.2178 148.863 68.4836 149.493 67.5414C150.122 66.5993 150.458 65.4915 150.458 64.3583C150.457 62.8406 149.854 61.3856 148.781 60.3118C147.708 59.2381 146.254 58.6333 144.736 58.6299V58.6299Z" fill="#00229A"/>
<path d="M278.074 55.8452V72.8636H300.358V55.8452H278.074ZM289.216 70.0796C288.083 70.0796 286.975 69.7434 286.033 69.1137C285.091 68.484 284.356 67.589 283.923 66.5419C283.49 65.4948 283.377 64.3426 283.598 63.2313C283.82 62.1199 284.366 61.0992 285.168 60.2983C285.97 59.4975 286.991 58.9524 288.102 58.7321C289.214 58.5118 290.366 58.6261 291.413 59.0607C292.459 59.4952 293.353 60.2305 293.982 61.1733C294.611 62.1162 294.946 63.2244 294.944 64.3576C294.943 65.8757 294.338 67.3311 293.264 68.404C292.19 69.4769 290.734 70.0796 289.216 70.0796Z" fill="white"/>
<path d="M289.216 58.6299C288.083 58.6299 286.976 58.9658 286.034 59.5953C285.091 60.2247 284.357 61.1194 283.924 62.1661C283.49 63.2128 283.377 64.3646 283.598 65.4758C283.819 66.587 284.364 67.6077 285.165 68.4088C285.967 69.21 286.987 69.7555 288.098 69.9766C289.21 70.1976 290.361 70.0842 291.408 69.6506C292.455 69.217 293.35 68.4828 293.979 67.5408C294.608 66.5988 294.944 65.4912 294.944 64.3583C294.943 62.8395 294.339 61.3835 293.265 60.3096C292.191 59.2357 290.735 58.6316 289.216 58.6299V58.6299Z" fill="#00229A"/>
<path d="M29.6942 65.4425V66.3662L30.4576 65.6029V135.428L29.6942 134.658V135.581L30.7783 136.672L31.8688 135.581V134.658L31.099 135.428V65.6029L31.8688 66.3662V65.4425L30.7783 64.3584L29.6942 65.4425Z" fill="#00229A"/>
<path d="M73.5776 33.7855H74.5013L73.7379 33.0157H143.563L142.793 33.7855H143.717L144.807 32.695L143.717 31.6045H142.793L143.563 32.3743H73.7379L74.5013 31.6045H73.5776L72.4935 32.695L73.5776 33.7855Z" fill="#00229A"/>
<path d="M72.8142 42.7271H72.1727V44.6515H72.8142V42.7271Z" fill="#00229A"/>
<path d="M72.8142 34.6836H72.1727V38.7056H72.8142V34.6836Z" fill="#00229A"/>
<path d="M72.8142 28.7368H72.1727V30.6612H72.8142V28.7368Z" fill="#00229A"/>
<path d="M145.057 52.311H144.416V54.2355H145.057V52.311Z" fill="#00229A"/>
<path d="M145.057 43.6509H144.416V47.9808H145.057V43.6509Z" fill="#00229A"/>
<path d="M145.057 34.9912H144.416V39.3212H145.057V34.9912Z" fill="#00229A"/>
<path d="M145.057 28.7368H144.416V30.6612H145.057V28.7368Z" fill="#00229A"/>
<path d="M28.9244 64.0371H27V64.6786H28.9244V64.0371Z" fill="#00229A"/>
<path d="M36.8018 64.0371H32.8631V64.6786H36.8018V64.0371Z" fill="#00229A"/>
<path d="M28.9244 136.351H27V136.992H28.9244V136.351Z" fill="#00229A"/>
<path d="M36.8018 136.351H32.8631V136.992H36.8018V136.351Z" fill="#00229A"/>
<path d="M243.658 56.8334C243.638 57.3329 243.718 57.8314 243.895 58.299C244.072 58.7666 244.341 59.1935 244.687 59.5543C245.033 59.915 245.449 60.2021 245.909 60.3982C246.368 60.5943 246.863 60.6954 247.363 60.6954C247.863 60.6954 248.358 60.5943 248.817 60.3982C249.277 60.2021 249.693 59.915 250.039 59.5543C250.385 59.1935 250.654 58.7666 250.831 58.299C251.008 57.8314 251.088 57.3329 251.068 56.8334V54.5049H247.668V57.7123L248.45 56.9617V57.8855L247.366 58.9696L246.276 57.8855V56.9617L247.045 57.7251V54.5177H243.658V56.8334Z" fill="white"/>
<path d="M246.915 57.1298L246.085 56.2996L246.085 57.2958L247.261 58.4719L248.43 57.2958L248.43 56.2996L247.607 57.1298L247.607 38.9143L247.606 17.5L254.8 17.5L254.8 16.8082L246.915 16.8082L246.915 38.9143L246.915 57.1298Z" fill="#00229A"/>
<path d="M213.272 82.7108C213.251 83.2102 213.331 83.7087 213.508 84.1763C213.685 84.6439 213.955 85.0709 214.301 85.4316C214.647 85.7924 215.062 86.0794 215.522 86.2755C215.982 86.4716 216.476 86.5727 216.976 86.5727C217.476 86.5727 217.971 86.4716 218.431 86.2755C218.891 86.0794 219.306 85.7924 219.652 85.4316C219.998 85.0709 220.268 84.6439 220.444 84.1763C220.621 83.7087 220.702 83.2102 220.681 82.7108V54.4858H217.294V83.6153L218.064 82.8519V83.7756L216.973 84.8597L215.889 83.7756V82.8519L216.652 83.6217V54.5051H213.272V82.7108Z" fill="#F7F8FC"/>
<path d="M216.652 83.6214L215.889 82.8517V83.7754L216.973 84.8595L218.064 83.7754V82.8517L217.294 83.6214V54.5048V46.217V24H216.652V46.217V54.5048V83.6214Z" fill="#00229A"/>
<path d="M16.9 119.743L26 119.743L26 120.679L17.732 120.679L17.732 122.824L16.9 122.824L16.9 119.743ZM20.631 115.436C20.631 114.119 20.8693 113.161 21.346 112.563C21.814 111.956 22.4727 111.653 23.322 111.653C23.8507 111.653 24.323 111.779 24.739 112.03C25.155 112.273 25.4843 112.641 25.727 113.135C25.961 113.629 26.078 114.236 26.078 114.955C26.078 115.605 25.974 116.225 25.766 116.814C25.5493 117.395 25.2633 117.863 24.908 118.218L24.167 117.763C24.479 117.46 24.7347 117.061 24.934 116.567C25.1247 116.073 25.22 115.54 25.22 114.968C25.22 114.214 25.051 113.633 24.713 113.226C24.375 112.81 23.9243 112.602 23.361 112.602C22.737 112.602 22.2647 112.836 21.944 113.304C21.6233 113.763 21.463 114.543 21.463 115.644L21.463 117.581L16.9 117.113L16.9 112.134L17.732 112.134L17.732 116.294L20.631 116.606L20.631 115.436ZM26.078 107.098C26.078 107.8 25.8917 108.428 25.519 108.983C25.1463 109.529 24.6133 109.958 23.92 110.27C23.218 110.573 22.3947 110.725 21.45 110.725C20.5053 110.725 19.6863 110.573 18.993 110.27C18.291 109.958 17.7537 109.529 17.381 108.983C17.0083 108.428 16.822 107.8 16.822 107.098C16.822 106.396 17.0083 105.772 17.381 105.226C17.7537 104.671 18.291 104.238 18.993 103.926C19.6863 103.614 20.5053 103.458 21.45 103.458C22.3947 103.458 23.218 103.614 23.92 103.926C24.6133 104.238 25.1463 104.671 25.519 105.226C25.8917 105.772 26.078 106.396 26.078 107.098ZM25.22 107.098C25.22 106.569 25.0727 106.105 24.778 105.707C24.4833 105.299 24.0543 104.983 23.491 104.758C22.9277 104.532 22.2473 104.42 21.45 104.42C20.6527 104.42 19.9723 104.532 19.409 104.758C18.8457 104.983 18.4167 105.299 18.122 105.707C17.8273 106.105 17.68 106.569 17.68 107.098C17.68 107.626 17.8273 108.094 18.122 108.502C18.4167 108.9 18.8457 109.212 19.409 109.438C19.9723 109.663 20.6527 109.776 21.45 109.776C22.2473 109.776 22.9277 109.663 23.491 109.438C24.0543 109.212 24.4833 108.9 24.778 108.502C25.0727 108.094 25.22 107.626 25.22 107.098ZM26.065 95.79C26.065 96.466 25.9177 97.0727 25.623 97.61C25.3283 98.1387 24.9167 98.5547 24.388 98.858C23.8507 99.1613 23.2483 99.313 22.581 99.313C21.9137 99.313 21.3157 99.1613 20.787 98.858C20.2583 98.5547 19.8467 98.1387 19.552 97.61C19.2573 97.0727 19.11 96.466 19.11 95.79C19.11 95.2007 19.227 94.6763 19.461 94.217C19.6863 93.749 20.02 93.3807 20.462 93.112L20.93 93.801C20.592 94.0263 20.3407 94.3123 20.176 94.659C20.0027 95.0057 19.916 95.3827 19.916 95.79C19.916 96.284 20.0287 96.7303 20.254 97.129C20.4707 97.519 20.7827 97.8267 21.19 98.052C21.5973 98.2687 22.061 98.377 22.581 98.377C23.1097 98.377 23.5777 98.2687 23.985 98.052C24.3837 97.8267 24.6957 97.519 24.921 97.129C25.1377 96.7303 25.246 96.284 25.246 95.79C25.246 95.3827 25.1637 95.0057 24.999 94.659C24.8343 94.3123 24.583 94.0263 24.245 93.801L24.713 93.112C25.155 93.3807 25.493 93.749 25.727 94.217C25.9523 94.685 26.065 95.2093 26.065 95.79ZM19.11 83.0308C19.11 82.1728 19.357 81.5011 19.851 81.0158C20.345 80.5218 21.073 80.2748 22.035 80.2748L26 80.2748L26 81.1978L22.126 81.1978C21.4153 81.1978 20.8737 81.3711 20.501 81.7178C20.1283 82.0558 19.942 82.5368 19.942 83.1608C19.942 83.8715 20.163 84.4305 20.605 84.8378C21.0383 85.2451 21.6407 85.4488 22.412 85.4488L26 85.4488L26 86.3718L22.126 86.3718C21.4153 86.3718 20.8737 86.5451 20.501 86.8918C20.1283 87.2298 19.942 87.7151 19.942 88.3478C19.942 89.0498 20.163 89.6088 20.605 90.0248C21.0383 90.4321 21.6407 90.6358 22.412 90.6358L26 90.6358L26 91.5588L19.162 91.5588L19.162 90.6748L20.41 90.6748C19.994 90.4321 19.6733 90.0941 19.448 89.6608C19.2227 89.2275 19.11 88.7291 19.11 88.1658C19.11 87.5938 19.2313 87.0998 19.474 86.6838C19.7167 86.2591 20.0763 85.9428 20.553 85.7348C20.1023 85.4835 19.7513 85.1238 19.5 84.6558C19.24 84.1791 19.11 83.6375 19.11 83.0308Z" fill="#00229A"/>
<path d="M88.2567 18.9V28H87.3207V19.732H85.1757V18.9H88.2567ZM92.564 22.631C93.8813 22.631 94.839 22.8693 95.437 23.346C96.0436 23.814 96.347 24.4727 96.347 25.322C96.347 25.8507 96.2213 26.323 95.97 26.739C95.7273 27.155 95.359 27.4843 94.865 27.727C94.371 27.961 93.7643 28.078 93.045 28.078C92.395 28.078 91.7753 27.974 91.186 27.766C90.6053 27.5493 90.1373 27.2633 89.782 26.908L90.237 26.167C90.5403 26.479 90.939 26.7347 91.433 26.934C91.927 27.1247 92.46 27.22 93.032 27.22C93.786 27.22 94.3666 27.051 94.774 26.713C95.19 26.375 95.398 25.9243 95.398 25.361C95.398 24.737 95.164 24.2647 94.696 23.944C94.2366 23.6233 93.4566 23.463 92.356 23.463H90.419L90.887 18.9H95.866V19.732H91.706L91.394 22.631H92.564ZM100.902 28.078C100.2 28.078 99.5719 27.8917 99.0172 27.519C98.4712 27.1463 98.0422 26.6133 97.7302 25.92C97.4269 25.218 97.2752 24.3947 97.2752 23.45C97.2752 22.5053 97.4269 21.6863 97.7302 20.993C98.0422 20.291 98.4712 19.7537 99.0172 19.381C99.5719 19.0083 100.2 18.822 100.902 18.822C101.604 18.822 102.228 19.0083 102.774 19.381C103.329 19.7537 103.762 20.291 104.074 20.993C104.386 21.6863 104.542 22.5053 104.542 23.45C104.542 24.3947 104.386 25.218 104.074 25.92C103.762 26.6133 103.329 27.1463 102.774 27.519C102.228 27.8917 101.604 28.078 100.902 28.078ZM100.902 27.22C101.431 27.22 101.895 27.0727 102.293 26.778C102.701 26.4833 103.017 26.0543 103.242 25.491C103.468 24.9277 103.58 24.2473 103.58 23.45C103.58 22.6527 103.468 21.9723 103.242 21.409C103.017 20.8457 102.701 20.4167 102.293 20.122C101.895 19.8273 101.431 19.68 100.902 19.68C100.374 19.68 99.9056 19.8273 99.4982 20.122C99.0996 20.4167 98.7876 20.8457 98.5622 21.409C98.3369 21.9723 98.2242 22.6527 98.2242 23.45C98.2242 24.2473 98.3369 24.9277 98.5622 25.491C98.7876 26.0543 99.0996 26.4833 99.4982 26.778C99.9056 27.0727 100.374 27.22 100.902 27.22ZM112.21 28.065C111.534 28.065 110.927 27.9177 110.39 27.623C109.861 27.3283 109.445 26.9167 109.142 26.388C108.839 25.8507 108.687 25.2483 108.687 24.581C108.687 23.9137 108.839 23.3157 109.142 22.787C109.445 22.2583 109.861 21.8467 110.39 21.552C110.927 21.2573 111.534 21.11 112.21 21.11C112.799 21.11 113.324 21.227 113.783 21.461C114.251 21.6863 114.619 22.02 114.888 22.462L114.199 22.93C113.974 22.592 113.688 22.3407 113.341 22.176C112.994 22.0027 112.617 21.916 112.21 21.916C111.716 21.916 111.27 22.0287 110.871 22.254C110.481 22.4707 110.173 22.7827 109.948 23.19C109.731 23.5973 109.623 24.061 109.623 24.581C109.623 25.1097 109.731 25.5777 109.948 25.985C110.173 26.3837 110.481 26.6957 110.871 26.921C111.27 27.1377 111.716 27.246 112.21 27.246C112.617 27.246 112.994 27.1637 113.341 26.999C113.688 26.8343 113.974 26.583 114.199 26.245L114.888 26.713C114.619 27.155 114.251 27.493 113.783 27.727C113.315 27.9523 112.791 28.065 112.21 28.065ZM124.969 21.11C125.827 21.11 126.499 21.357 126.984 21.851C127.478 22.345 127.725 23.073 127.725 24.035V28H126.802V24.126C126.802 23.4153 126.629 22.8737 126.282 22.501C125.944 22.1283 125.463 21.942 124.839 21.942C124.129 21.942 123.57 22.163 123.162 22.605C122.755 23.0383 122.551 23.6407 122.551 24.412V28H121.628V24.126C121.628 23.4153 121.455 22.8737 121.108 22.501C120.77 22.1283 120.285 21.942 119.652 21.942C118.95 21.942 118.391 22.163 117.975 22.605C117.568 23.0383 117.364 23.6407 117.364 24.412V28H116.441V21.162H117.325V22.41C117.568 21.994 117.906 21.6733 118.339 21.448C118.773 21.2227 119.271 21.11 119.834 21.11C120.406 21.11 120.9 21.2313 121.316 21.474C121.741 21.7167 122.057 22.0763 122.265 22.553C122.517 22.1023 122.876 21.7513 123.344 21.5C123.821 21.24 124.363 21.11 124.969 21.11Z" fill="#00229A"/>
<path d="M262.525 20.078C261.624 20.078 260.805 19.8787 260.068 19.48C259.34 19.0727 258.768 18.518 258.352 17.816C257.945 17.114 257.741 16.3253 257.741 15.45C257.741 14.5747 257.945 13.786 258.352 13.084C258.768 12.382 259.34 11.8317 260.068 11.433C260.805 11.0257 261.624 10.822 262.525 10.822C263.426 10.822 264.237 11.0213 264.956 11.42C265.684 11.8187 266.256 12.3733 266.672 13.084C267.088 13.786 267.296 14.5747 267.296 15.45C267.296 16.3253 267.088 17.1183 266.672 17.829C266.256 18.531 265.684 19.0813 264.956 19.48C264.237 19.8787 263.426 20.078 262.525 20.078ZM262.525 19.22C263.244 19.22 263.894 19.0597 264.475 18.739C265.056 18.4097 265.511 17.959 265.84 17.387C266.169 16.8063 266.334 16.1607 266.334 15.45C266.334 14.7393 266.169 14.098 265.84 13.526C265.511 12.9453 265.056 12.4947 264.475 12.174C263.894 11.8447 263.244 11.68 262.525 11.68C261.806 11.68 261.151 11.8447 260.562 12.174C259.981 12.4947 259.522 12.9453 259.184 13.526C258.855 14.098 258.69 14.7393 258.69 15.45C258.69 16.1607 258.855 16.8063 259.184 17.387C259.522 17.959 259.981 18.4097 260.562 18.739C261.151 19.0597 261.806 19.22 262.525 19.22ZM275.247 13.162V20H274.324V13.981H270.034V20H269.111V13.162H275.247ZM280.431 20.065C279.773 20.065 279.179 19.9177 278.65 19.623C278.122 19.3197 277.706 18.9037 277.402 18.375C277.099 17.8463 276.947 17.2483 276.947 16.581C276.947 15.9137 277.099 15.3157 277.402 14.787C277.706 14.2583 278.122 13.8467 278.65 13.552C279.179 13.2573 279.773 13.11 280.431 13.11C281.09 13.11 281.684 13.2573 282.212 13.552C282.741 13.8467 283.153 14.2583 283.447 14.787C283.751 15.3157 283.902 15.9137 283.902 16.581C283.902 17.2483 283.751 17.8463 283.447 18.375C283.153 18.9037 282.741 19.3197 282.212 19.623C281.684 19.9177 281.09 20.065 280.431 20.065ZM280.431 19.246C280.917 19.246 281.35 19.1377 281.731 18.921C282.121 18.6957 282.425 18.3793 282.641 17.972C282.858 17.5647 282.966 17.101 282.966 16.581C282.966 16.061 282.858 15.5973 282.641 15.19C282.425 14.7827 282.121 14.4707 281.731 14.254C281.35 14.0287 280.917 13.916 280.431 13.916C279.946 13.916 279.508 14.0287 279.118 14.254C278.737 14.4707 278.434 14.7827 278.208 15.19C277.992 15.5973 277.883 16.061 277.883 16.581C277.883 17.101 277.992 17.5647 278.208 17.972C278.434 18.3793 278.737 18.6957 279.118 18.921C279.508 19.1377 279.946 19.246 280.431 19.246ZM289.138 13.11C289.779 13.11 290.36 13.2573 290.88 13.552C291.4 13.838 291.807 14.2453 292.102 14.774C292.397 15.3027 292.544 15.905 292.544 16.581C292.544 17.2657 292.397 17.8723 292.102 18.401C291.807 18.9297 291.4 19.3413 290.88 19.636C290.369 19.922 289.788 20.065 289.138 20.065C288.583 20.065 288.081 19.9523 287.63 19.727C287.188 19.493 286.824 19.155 286.538 18.713V22.522H285.615V13.162H286.499V14.514C286.776 14.0633 287.14 13.7167 287.591 13.474C288.05 13.2313 288.566 13.11 289.138 13.11ZM289.073 19.246C289.55 19.246 289.983 19.1377 290.373 18.921C290.763 18.6957 291.066 18.3793 291.283 17.972C291.508 17.5647 291.621 17.101 291.621 16.581C291.621 16.061 291.508 15.6017 291.283 15.203C291.066 14.7957 290.763 14.4793 290.373 14.254C289.983 14.0287 289.55 13.916 289.073 13.916C288.588 13.916 288.15 14.0287 287.76 14.254C287.379 14.4793 287.075 14.7957 286.85 15.203C286.633 15.6017 286.525 16.061 286.525 16.581C286.525 17.101 286.633 17.5647 286.85 17.972C287.075 18.3793 287.379 18.6957 287.76 18.921C288.15 19.1377 288.588 19.246 289.073 19.246ZM294.267 13.162H295.19V16.191H299.493V13.162H300.416V20H299.493V16.984H295.19V20H294.267V13.162ZM305.133 13.11C306.025 13.11 306.71 13.3353 307.187 13.786C307.663 14.228 307.902 14.8867 307.902 15.762V20H307.018V18.934C306.81 19.2893 306.502 19.5667 306.095 19.766C305.696 19.9653 305.219 20.065 304.665 20.065C303.902 20.065 303.295 19.883 302.845 19.519C302.394 19.155 302.169 18.674 302.169 18.076C302.169 17.4953 302.377 17.0273 302.793 16.672C303.217 16.3167 303.889 16.139 304.808 16.139H306.979V15.723C306.979 15.1337 306.814 14.6873 306.485 14.384C306.155 14.072 305.674 13.916 305.042 13.916C304.608 13.916 304.192 13.9897 303.794 14.137C303.395 14.2757 303.053 14.4707 302.767 14.722L302.351 14.033C302.697 13.7383 303.113 13.513 303.599 13.357C304.084 13.1923 304.595 13.11 305.133 13.11ZM304.808 19.337C305.328 19.337 305.774 19.22 306.147 18.986C306.519 18.7433 306.797 18.3967 306.979 17.946V16.828H304.834C303.664 16.828 303.079 17.2353 303.079 18.05C303.079 18.4487 303.23 18.765 303.534 18.999C303.837 19.2243 304.262 19.337 304.808 19.337ZM264.982 34.194V36.651H264.111V35H257.988V36.651H257.117V34.194H257.507C257.966 34.168 258.278 33.83 258.443 33.18C258.608 32.53 258.72 31.62 258.781 30.45L258.872 28.162H263.916V34.194H264.982ZM259.626 30.502C259.583 31.4727 259.5 32.2743 259.379 32.907C259.258 33.531 259.041 33.96 258.729 34.194H262.993V28.981H259.704L259.626 30.502ZM269.342 35.065C268.683 35.065 268.089 34.9177 267.561 34.623C267.032 34.3197 266.616 33.9037 266.313 33.375C266.009 32.8463 265.858 32.2483 265.858 31.581C265.858 30.9137 266.009 30.3157 266.313 29.787C266.616 29.2583 267.032 28.8467 267.561 28.552C268.089 28.2573 268.683 28.11 269.342 28.11C270 28.11 270.594 28.2573 271.123 28.552C271.651 28.8467 272.063 29.2583 272.358 29.787C272.661 30.3157 272.813 30.9137 272.813 31.581C272.813 32.2483 272.661 32.8463 272.358 33.375C272.063 33.9037 271.651 34.3197 271.123 34.623C270.594 34.9177 270 35.065 269.342 35.065ZM269.342 34.246C269.827 34.246 270.26 34.1377 270.642 33.921C271.032 33.6957 271.335 33.3793 271.552 32.972C271.768 32.5647 271.877 32.101 271.877 31.581C271.877 31.061 271.768 30.5973 271.552 30.19C271.335 29.7827 271.032 29.4707 270.642 29.254C270.26 29.0287 269.827 28.916 269.342 28.916C268.856 28.916 268.419 29.0287 268.029 29.254C267.647 29.4707 267.344 29.7827 267.119 30.19C266.902 30.5973 266.794 31.061 266.794 31.581C266.794 32.101 266.902 32.5647 267.119 32.972C267.344 33.3793 267.647 33.6957 268.029 33.921C268.419 34.1377 268.856 34.246 269.342 34.246ZM283.963 28.162V35H274.525V28.162H275.448V34.194H278.802V28.162H279.725V34.194H283.04V28.162H283.963ZM288.822 31.958H287.262V35H286.339V28.162H287.262V31.165H288.835L291.24 28.162H292.241L289.55 31.477L292.436 35H291.344L288.822 31.958ZM295.858 28.11C296.751 28.11 297.436 28.3353 297.912 28.786C298.389 29.228 298.627 29.8867 298.627 30.762V35H297.743V33.934C297.535 34.2893 297.228 34.5667 296.82 34.766C296.422 34.9653 295.945 35.065 295.39 35.065C294.628 35.065 294.021 34.883 293.57 34.519C293.12 34.155 292.894 33.674 292.894 33.076C292.894 32.4953 293.102 32.0273 293.518 31.672C293.943 31.3167 294.615 31.139 295.533 31.139H297.704V30.723C297.704 30.1337 297.54 29.6873 297.21 29.384C296.881 29.072 296.4 28.916 295.767 28.916C295.334 28.916 294.918 28.9897 294.519 29.137C294.121 29.2757 293.778 29.4707 293.492 29.722L293.076 29.033C293.423 28.7383 293.839 28.513 294.324 28.357C294.81 28.1923 295.321 28.11 295.858 28.11ZM295.533 34.337C296.053 34.337 296.5 34.22 296.872 33.986C297.245 33.7433 297.522 33.3967 297.704 32.946V31.828H295.559C294.389 31.828 293.804 32.2353 293.804 33.05C293.804 33.4487 293.956 33.765 294.259 33.999C294.563 34.2243 294.987 34.337 295.533 34.337Z" fill="#00229A"/>
<path d="M161.929 15.307C162.562 15.437 163.043 15.6927 163.372 16.074C163.701 16.4467 163.866 16.9363 163.866 17.543C163.866 18.3317 163.584 18.9383 163.021 19.363C162.466 19.7877 161.647 20 160.564 20H156.534V10.9H160.317C161.288 10.9 162.046 11.0993 162.592 11.498C163.138 11.8967 163.411 12.473 163.411 13.227C163.411 13.7383 163.281 14.1717 163.021 14.527C162.761 14.8737 162.397 15.1337 161.929 15.307ZM157.483 15.021H160.265C160.967 15.021 161.504 14.878 161.877 14.592C162.258 14.306 162.449 13.89 162.449 13.344C162.449 12.798 162.258 12.382 161.877 12.096C161.504 11.81 160.967 11.667 160.265 11.667H157.483V15.021ZM160.564 19.233C162.133 19.233 162.917 18.648 162.917 17.478C162.917 16.334 162.133 15.762 160.564 15.762H157.483V19.233H160.564ZM165.79 13.162H166.713V20H165.79V13.162ZM166.258 11.667C166.068 11.667 165.907 11.602 165.777 11.472C165.647 11.342 165.582 11.186 165.582 11.004C165.582 10.8307 165.647 10.679 165.777 10.549C165.907 10.419 166.068 10.354 166.258 10.354C166.449 10.354 166.609 10.419 166.739 10.549C166.869 10.6703 166.934 10.8177 166.934 10.991C166.934 11.1817 166.869 11.342 166.739 11.472C166.609 11.602 166.449 11.667 166.258 11.667ZM171.945 20.065C171.269 20.065 170.662 19.9177 170.125 19.623C169.596 19.3283 169.18 18.9167 168.877 18.388C168.574 17.8507 168.422 17.2483 168.422 16.581C168.422 15.9137 168.574 15.3157 168.877 14.787C169.18 14.2583 169.596 13.8467 170.125 13.552C170.662 13.2573 171.269 13.11 171.945 13.11C172.534 13.11 173.059 13.227 173.518 13.461C173.986 13.6863 174.354 14.02 174.623 14.462L173.934 14.93C173.709 14.592 173.423 14.3407 173.076 14.176C172.729 14.0027 172.352 13.916 171.945 13.916C171.451 13.916 171.005 14.0287 170.606 14.254C170.216 14.4707 169.908 14.7827 169.683 15.19C169.466 15.5973 169.358 16.061 169.358 16.581C169.358 17.1097 169.466 17.5777 169.683 17.985C169.908 18.3837 170.216 18.6957 170.606 18.921C171.005 19.1377 171.451 19.246 171.945 19.246C172.352 19.246 172.729 19.1637 173.076 18.999C173.423 18.8343 173.709 18.583 173.934 18.245L174.623 18.713C174.354 19.155 173.986 19.493 173.518 19.727C173.05 19.9523 172.526 20.065 171.945 20.065ZM179.088 15.58C179.946 15.5887 180.596 15.7793 181.038 16.152C181.489 16.5247 181.714 17.062 181.714 17.764C181.714 18.492 181.472 19.051 180.986 19.441C180.51 19.831 179.816 20.0217 178.906 20.013L176.15 20V13.162H177.073V15.554L179.088 15.58ZM178.854 19.311C179.487 19.3197 179.964 19.194 180.284 18.934C180.614 18.6653 180.778 18.2753 180.778 17.764C180.778 17.2613 180.618 16.8887 180.297 16.646C179.977 16.4033 179.496 16.2777 178.854 16.269L177.073 16.243V19.285L178.854 19.311ZM189.673 13.331C190.305 13.331 190.869 13.474 191.363 13.76C191.865 14.0373 192.255 14.4317 192.533 14.943C192.81 15.4457 192.949 16.022 192.949 16.672C192.949 17.3393 192.801 17.933 192.507 18.453C192.221 18.9643 191.818 19.363 191.298 19.649C190.778 19.935 190.18 20.078 189.504 20.078C188.368 20.078 187.489 19.6793 186.865 18.882C186.241 18.0847 185.929 16.984 185.929 15.58C185.929 14.1153 186.206 12.993 186.761 12.213C187.324 11.433 188.199 10.9043 189.387 10.627L192.455 9.925L192.611 10.77L189.725 11.433C188.745 11.6497 188.026 12.0353 187.567 12.59C187.107 13.136 186.856 13.9463 186.813 15.021C187.09 14.4923 187.476 14.0807 187.97 13.786C188.464 13.4827 189.031 13.331 189.673 13.331ZM189.53 19.311C190.006 19.311 190.431 19.2027 190.804 18.986C191.185 18.7607 191.48 18.4487 191.688 18.05C191.904 17.6513 192.013 17.2007 192.013 16.698C192.013 16.1953 191.909 15.7533 191.701 15.372C191.493 14.9907 191.198 14.696 190.817 14.488C190.444 14.2713 190.015 14.163 189.53 14.163C189.044 14.163 188.611 14.2713 188.23 14.488C187.857 14.696 187.562 14.9907 187.346 15.372C187.138 15.7533 187.034 16.1953 187.034 16.698C187.034 17.2007 187.138 17.6513 187.346 18.05C187.562 18.4487 187.861 18.7607 188.243 18.986C188.624 19.2027 189.053 19.311 189.53 19.311ZM198.19 13.11C198.831 13.11 199.412 13.2573 199.932 13.552C200.452 13.838 200.859 14.2453 201.154 14.774C201.449 15.3027 201.596 15.905 201.596 16.581C201.596 17.2657 201.449 17.8723 201.154 18.401C200.859 18.9297 200.452 19.3413 199.932 19.636C199.421 19.922 198.84 20.065 198.19 20.065C197.635 20.065 197.133 19.9523 196.682 19.727C196.24 19.493 195.876 19.155 195.59 18.713V22.522H194.667V13.162H195.551V14.514C195.828 14.0633 196.192 13.7167 196.643 13.474C197.102 13.2313 197.618 13.11 198.19 13.11ZM198.125 19.246C198.602 19.246 199.035 19.1377 199.425 18.921C199.815 18.6957 200.118 18.3793 200.335 17.972C200.56 17.5647 200.673 17.101 200.673 16.581C200.673 16.061 200.56 15.6017 200.335 15.203C200.118 14.7957 199.815 14.4793 199.425 14.254C199.035 14.0287 198.602 13.916 198.125 13.916C197.64 13.916 197.202 14.0287 196.812 14.254C196.431 14.4793 196.127 14.7957 195.902 15.203C195.685 15.6017 195.577 16.061 195.577 16.581C195.577 17.101 195.685 17.5647 195.902 17.972C196.127 18.3793 196.431 18.6957 196.812 18.921C197.202 19.1377 197.64 19.246 198.125 19.246ZM208.94 13.162L205.521 20.819C205.243 21.4603 204.923 21.9153 204.559 22.184C204.195 22.4527 203.757 22.587 203.246 22.587C202.916 22.587 202.609 22.535 202.323 22.431C202.037 22.327 201.79 22.171 201.582 21.963L202.011 21.274C202.357 21.6207 202.773 21.794 203.259 21.794C203.571 21.794 203.835 21.7073 204.052 21.534C204.277 21.3607 204.485 21.066 204.676 20.65L204.975 19.987L201.92 13.162H202.882L205.456 18.973L208.03 13.162H208.94ZM212.787 20.065C212.111 20.065 211.505 19.9177 210.967 19.623C210.439 19.3283 210.023 18.9167 209.719 18.388C209.416 17.8507 209.264 17.2483 209.264 16.581C209.264 15.9137 209.416 15.3157 209.719 14.787C210.023 14.2583 210.439 13.8467 210.967 13.552C211.505 13.2573 212.111 13.11 212.787 13.11C213.377 13.11 213.901 13.227 214.36 13.461C214.828 13.6863 215.197 14.02 215.465 14.462L214.776 14.93C214.551 14.592 214.265 14.3407 213.918 14.176C213.572 14.0027 213.195 13.916 212.787 13.916C212.293 13.916 211.847 14.0287 211.448 14.254C211.058 14.4707 210.751 14.7827 210.525 15.19C210.309 15.5973 210.2 16.061 210.2 16.581C210.2 17.1097 210.309 17.5777 210.525 17.985C210.751 18.3837 211.058 18.6957 211.448 18.921C211.847 19.1377 212.293 19.246 212.787 19.246C213.195 19.246 213.572 19.1637 213.918 18.999C214.265 18.8343 214.551 18.583 214.776 18.245L215.465 18.713C215.197 19.155 214.828 19.493 214.36 19.727C213.892 19.9523 213.368 20.065 212.787 20.065ZM216.993 13.162H217.916V20H216.993V13.162ZM217.461 11.667C217.27 11.667 217.11 11.602 216.98 11.472C216.85 11.342 216.785 11.186 216.785 11.004C216.785 10.8307 216.85 10.679 216.98 10.549C217.11 10.419 217.27 10.354 217.461 10.354C217.651 10.354 217.812 10.419 217.942 10.549C218.072 10.6703 218.137 10.8177 218.137 10.991C218.137 11.1817 218.072 11.342 217.942 11.472C217.812 11.602 217.651 11.667 217.461 11.667ZM224.642 16.464C225.57 16.6807 226.033 17.2397 226.033 18.141C226.033 18.739 225.812 19.1983 225.37 19.519C224.928 19.8397 224.27 20 223.394 20H220.287V13.162H223.303C224.083 13.162 224.694 13.3137 225.136 13.617C225.578 13.9203 225.799 14.3537 225.799 14.917C225.799 15.2897 225.695 15.6103 225.487 15.879C225.288 16.139 225.006 16.334 224.642 16.464ZM221.184 16.204H223.238C223.767 16.204 224.17 16.1043 224.447 15.905C224.733 15.7057 224.876 15.4153 224.876 15.034C224.876 14.6527 224.733 14.3667 224.447 14.176C224.17 13.9853 223.767 13.89 223.238 13.89H221.184V16.204ZM223.355 19.272C223.945 19.272 224.387 19.1767 224.681 18.986C224.976 18.7953 225.123 18.4963 225.123 18.089C225.123 17.6817 224.989 17.3827 224.72 17.192C224.452 16.9927 224.027 16.893 223.446 16.893H221.184V19.272H223.355Z" fill="#00229A"/>
</svg>
