<svg width="328" height="328" viewBox="0 0 328 328" fill="none" xmlns="http://www.w3.org/2000/svg">
<path d="M215.229 235.799V228.972V227.973H206.793C206.015 228.005 205.238 227.88 204.509 227.604C203.781 227.329 203.115 226.909 202.553 226.37C201.991 225.83 201.544 225.183 201.238 224.467C200.933 223.75 200.775 222.979 200.775 222.2C200.775 221.421 200.933 220.651 201.238 219.934C201.544 219.218 201.991 218.57 202.553 218.031C203.115 217.492 203.781 217.072 204.509 216.796C205.238 216.521 206.015 216.396 206.793 216.428H215.229V215.429V145.981V145.481H191.91C191.417 145.481 190.927 145.417 190.451 145.291V145.241V144.312L189.631 143.892C188.883 143.481 188.259 142.876 187.824 142.141C187.389 141.406 187.16 140.568 187.16 139.714C187.16 138.86 187.389 138.022 187.824 137.287C188.259 136.552 188.883 135.947 189.631 135.536L190.491 135.126V134.127C190.967 134.001 191.457 133.938 191.95 133.937H215.229V107.439H61.7709V258.758H19.6207V269.883H19.6707V276.77H257.329V269.883V258.758H215.229V235.799ZM20.6702 273.361L24.1786 269.853H26.2976L20.6702 275.48V273.361ZM29.8459 269.853H31.9849L26.0977 275.74H23.9887L29.8459 269.853ZM35.5133 269.853H37.6323L31.745 275.74H29.626L35.5133 269.853ZM41.1806 269.853H43.2996L37.4124 275.74H35.2934L41.1806 269.853ZM46.8479 269.853H48.977L43.0897 275.74H40.9807L46.8479 269.853ZM52.5153 269.853H54.6343L48.7471 275.74H46.6181L52.5153 269.853ZM58.1826 269.853H60.3016L54.4044 275.74H52.2854L58.1826 269.853ZM63.85 269.853H65.969L60.0717 275.74H57.9727L63.85 269.853ZM69.5173 269.853H71.6363L65.7391 275.74H63.6201L69.5173 269.853ZM75.1847 269.853H77.3037L71.4064 275.74H69.2874L75.1847 269.853ZM80.852 269.853H82.961L77.0638 275.74H74.9648L80.852 269.853ZM86.5193 269.853H88.6383L82.7411 275.74H80.6221L86.5193 269.853ZM92.1767 269.853H94.3057L88.4084 275.74H86.2894L92.1767 269.853ZM97.844 269.853H99.953L94.0658 275.74H91.9568L97.844 269.853ZM103.511 269.853H105.63L99.7431 275.74H97.6241L103.511 269.853ZM109.179 269.853H111.298L105.41 275.74H103.291L109.179 269.853ZM114.846 269.853H116.945L111.058 275.74H108.949L114.846 269.853ZM120.513 269.853H122.632L116.745 275.74H114.626L120.513 269.853ZM126.181 269.853H128.3L122.412 275.74H120.283L126.181 269.853ZM131.848 269.853H133.937L128.05 275.74H125.941L131.848 269.853ZM137.515 269.853H139.634L133.737 275.74H131.618L137.515 269.853ZM143.183 269.853H145.302L139.405 275.74H137.286L143.183 269.853ZM148.85 269.853H150.929L145.032 275.74H142.933L148.85 269.853ZM154.517 269.853H156.636L150.739 275.74H148.62L154.517 269.853ZM160.185 269.853H162.304L156.407 275.74H154.288L160.185 269.853ZM165.852 269.853H167.971L162.074 275.74H159.925L165.852 269.853ZM171.509 269.853H173.638L167.741 275.74H165.622L171.509 269.853ZM177.177 269.853H179.306L173.409 275.74H171.29L177.177 269.853ZM182.844 269.853H184.963L179.076 275.74H176.917L182.844 269.853ZM188.511 269.853H190.63L184.743 275.74H182.624L188.511 269.853ZM194.179 269.853H196.298L190.411 275.74H188.292L194.179 269.853ZM199.846 269.853H201.965L196.078 275.74H193.959L199.846 269.853ZM205.513 269.853H207.632L201.745 275.74H199.616L205.513 269.853ZM211.181 269.853H213.3L207.413 275.74H205.284L211.181 269.853ZM216.848 269.853H218.967L213.07 275.74H210.951L216.848 269.853ZM222.515 269.853H224.635L218.737 275.74H216.618L222.515 269.853ZM228.183 269.853H230.302L224.405 275.74H222.286L228.183 269.853ZM233.85 269.853H235.969L230.072 275.74H227.953L233.85 269.853ZM239.518 269.853H241.637L235.739 275.74H233.62L239.518 269.853ZM245.185 269.853H247.304L241.407 275.74H239.288L245.185 269.853ZM250.842 269.853H252.971L247.074 275.74H244.955L250.842 269.853ZM256.33 270.033V272.162L252.741 275.74H250.622L256.33 270.033ZM93.586 110.438V114.436H94.5855V110.438H98.6636V257.859H89.5079V110.438H93.586ZM143.053 110.438V139.214H141.693C141.579 138.444 141.192 137.739 140.602 137.23C140.012 136.721 139.259 136.441 138.48 136.441C137.701 136.441 136.948 136.721 136.358 137.23C135.768 137.739 135.381 138.444 135.266 139.214H133.937V110.438H143.053ZM182.414 110.438V114.436H183.414V110.438H187.492V133.427C186.213 134.325 185.231 135.585 184.673 137.045C184.161 136.67 183.549 136.455 182.914 136.426C182.47 136.401 182.026 136.467 181.609 136.62C181.192 136.773 180.81 137.009 180.487 137.315C180.164 137.62 179.907 137.988 179.731 138.397C179.556 138.805 179.465 139.245 179.465 139.689C179.465 140.134 179.556 140.573 179.731 140.982C179.907 141.39 180.164 141.758 180.487 142.063C180.81 142.369 181.192 142.605 181.609 142.758C182.026 142.911 182.47 142.977 182.914 142.953C183.539 142.95 184.151 142.766 184.673 142.423C185.235 143.884 186.215 145.146 187.492 146.051V257.859H178.336V110.438H182.414ZM135.266 140.214C135.381 140.985 135.768 141.689 136.358 142.198C136.948 142.707 137.701 142.987 138.48 142.987C139.259 142.987 140.012 142.707 140.602 142.198C141.192 141.689 141.579 140.985 141.693 140.214H143.053V228.033H141.693C141.579 227.262 141.192 226.558 140.602 226.049C140.012 225.54 139.259 225.26 138.48 225.26C137.701 225.26 136.948 225.54 136.358 226.049C135.768 226.558 135.381 227.262 135.266 228.033H133.937V140.214H135.266ZM136.216 139.714C136.214 139.264 136.346 138.824 136.594 138.45C136.843 138.075 137.197 137.783 137.612 137.61C138.027 137.437 138.484 137.391 138.925 137.478C139.366 137.565 139.771 137.782 140.089 138.1C140.407 138.418 140.624 138.823 140.711 139.264C140.798 139.705 140.752 140.162 140.579 140.577C140.406 140.992 140.114 141.346 139.739 141.595C139.365 141.843 138.925 141.975 138.475 141.973C137.877 141.97 137.304 141.732 136.881 141.308C136.457 140.885 136.219 140.312 136.216 139.714V139.714ZM135.266 229.032C135.381 229.803 135.768 230.507 136.358 231.016C136.948 231.525 137.701 231.805 138.48 231.805C139.259 231.805 140.012 231.525 140.602 231.016C141.192 230.507 141.579 229.803 141.693 229.032H143.053V257.859H133.937V229.032H135.266ZM136.216 228.532C136.216 228.083 136.349 227.644 136.599 227.271C136.849 226.897 137.204 226.607 137.619 226.435C138.034 226.264 138.491 226.219 138.931 226.308C139.372 226.396 139.776 226.613 140.093 226.932C140.41 227.25 140.625 227.655 140.711 228.096C140.798 228.537 140.752 228.993 140.578 229.408C140.405 229.822 140.113 230.176 139.738 230.424C139.364 230.672 138.924 230.803 138.475 230.801C138.177 230.801 137.883 230.743 137.608 230.628C137.333 230.514 137.084 230.347 136.874 230.136C136.664 229.925 136.498 229.675 136.385 229.4C136.272 229.125 136.215 228.83 136.216 228.532V228.532ZM146.051 235.799H175.338V257.859H146.051V235.799ZM146.051 232.8V229.032H148.05V228.033H146.051V210.741H175.338V232.8H146.051ZM146.051 207.742V185.692H175.338V207.742H146.051ZM130.938 185.692V207.742H101.662V185.692H130.938ZM130.938 210.741V228.033H128.939V229.032H130.938V232.8H101.662V210.741H130.938ZM130.938 235.799V257.859H101.662V235.799H130.938ZM175.378 182.554H146.091V160.504H175.378V182.554ZM130.938 182.554H101.662V160.504H130.938V182.554ZM180.685 139.714C180.683 139.263 180.816 138.822 181.066 138.447C181.316 138.071 181.672 137.779 182.088 137.607C182.505 137.435 182.964 137.391 183.405 137.481C183.847 137.571 184.252 137.79 184.569 138.111C184.886 138.432 185.1 138.84 185.183 139.283C185.267 139.726 185.217 140.184 185.04 140.598C184.862 141.013 184.565 141.365 184.186 141.61C183.808 141.854 183.365 141.981 182.914 141.973C182.314 141.973 181.738 141.735 181.313 141.312C180.888 140.889 180.648 140.314 180.645 139.714H180.685ZM175.378 157.506H146.091V140.214H148.09V139.214H146.091V135.426H175.378V157.506ZM130.938 139.214H128.939V140.214H130.938V157.506H101.662V135.426H130.938V139.214ZM212.27 257.859H190.491V235.799H212.23L212.27 257.859ZM212.27 215.429H206.873C205.962 215.394 205.053 215.543 204.201 215.867C203.349 216.192 202.571 216.685 201.914 217.317C201.257 217.95 200.734 218.708 200.377 219.547C200.02 220.386 199.836 221.289 199.836 222.2C199.836 223.112 200.02 224.015 200.377 224.854C200.734 225.693 201.257 226.451 201.914 227.083C202.571 227.716 203.349 228.209 204.201 228.533C205.053 228.858 205.962 229.007 206.873 228.972H212.27V232.8H190.491V210.741H212.23L212.27 215.429ZM190.531 207.742V185.692H212.27V207.742H190.531ZM212.27 182.554H190.491V160.504H212.23L212.27 182.554ZM191.91 146.481H212.19V157.476H190.491V146.321C190.957 146.423 191.433 146.476 191.91 146.481V146.481ZM212.23 110.438V132.937H191.91C191.419 132.939 190.93 132.993 190.451 133.097V110.438H212.23ZM175.338 110.438V132.427H146.051V110.438H175.338ZM130.938 110.438V132.427H101.662V110.438H130.938ZM64.7695 110.438H86.5093V132.427H64.7695V110.438ZM64.7695 135.426H86.5093V157.506H64.7695V135.426ZM86.5093 160.504V182.554H64.7695V160.504H86.5093ZM64.7695 185.692H86.5093V207.742H64.7695V185.692ZM64.7695 210.741H86.5093V232.8H64.7695V210.741ZM86.5093 235.799V257.859H64.7695V235.799H86.5093Z" fill="#00229A"/>
<path d="M89.5078 257.858H98.6635V110.438H94.5854V114.436H93.5859V110.438H89.5078V257.858ZM94.0857 225.274C94.7329 225.272 95.3663 225.462 95.9053 225.82C96.4443 226.179 96.8648 226.689 97.1134 227.287C97.362 227.884 97.4276 228.542 97.3018 229.177C97.176 229.812 96.8645 230.395 96.4068 230.853C95.9491 231.311 95.3658 231.622 94.7308 231.748C94.0959 231.874 93.4379 231.808 92.8402 231.56C92.2426 231.311 91.7322 230.891 91.3739 230.352C91.0155 229.813 90.8252 229.179 90.8272 228.532C90.8272 227.668 91.1705 226.839 91.7816 226.228C92.3927 225.617 93.2215 225.274 94.0857 225.274ZM93.5859 219.166V212.789H94.5854V219.166H93.5859ZM94.5854 161.823V168.19H93.5859V161.823H94.5854ZM93.5859 206.422V200.055H94.5854V206.392L93.5859 206.422ZM97.3441 184.193C97.3414 184.968 97.0621 185.718 96.5564 186.306C96.0508 186.894 95.3519 187.282 94.5854 187.401V193.678H93.5859V187.401C92.7726 187.29 92.0314 186.876 91.5115 186.24C90.9915 185.605 90.7314 184.797 90.7833 183.977C90.8352 183.158 91.1954 182.389 91.7913 181.824C92.3873 181.26 93.1749 180.942 93.9957 180.934H93.5859V174.567H94.5854V180.934H94.1756C95.0241 180.958 95.83 181.311 96.4218 181.92C97.0135 182.529 97.3445 183.344 97.3441 184.193V184.193ZM94.0857 142.972C93.4384 142.974 92.8051 142.784 92.266 142.426C91.727 142.067 91.3065 141.557 91.0579 140.959C90.8093 140.362 90.7437 139.704 90.8695 139.069C90.9953 138.434 91.3068 137.85 91.7645 137.393C92.2222 136.935 92.8055 136.623 93.4405 136.498C94.0754 136.372 94.7334 136.437 95.3311 136.686C95.9287 136.935 96.4391 137.355 96.7975 137.894C97.1558 138.433 97.3461 139.066 97.3441 139.714C97.3415 140.577 96.9973 141.404 96.3868 142.015C95.7763 142.625 94.949 142.97 94.0857 142.972V142.972ZM94.5854 149.079V155.416H93.5859V149.079H94.5854ZM93.5859 120.033H94.5854V125.61H93.5859V120.033ZM94.5854 131.188V134.186H93.5859V131.188H94.5854Z" fill="#D9DEEE"/>
<path d="M178.336 257.858H187.492V146.071C186.212 145.16 185.231 143.891 184.673 142.422C184.151 142.766 183.54 142.95 182.914 142.952C182.47 142.977 182.026 142.911 181.609 142.758C181.192 142.605 180.81 142.368 180.487 142.063C180.164 141.757 179.907 141.389 179.731 140.981C179.556 140.573 179.465 140.133 179.465 139.689C179.465 139.244 179.556 138.805 179.731 138.396C179.907 137.988 180.164 137.62 180.487 137.315C180.81 137.009 181.192 136.773 181.609 136.62C182.026 136.467 182.47 136.401 182.914 136.425C183.54 136.428 184.151 136.612 184.673 136.955C185.232 135.495 186.213 134.235 187.492 133.337V110.438H183.414V114.436H182.414V110.438H178.336V257.858ZM182.914 225.274C183.561 225.274 184.193 225.466 184.731 225.825C185.269 226.185 185.688 226.696 185.935 227.294C186.182 227.891 186.246 228.549 186.119 229.183C185.992 229.818 185.68 230.4 185.222 230.857C184.764 231.313 184.18 231.624 183.546 231.749C182.911 231.874 182.254 231.808 181.656 231.559C181.059 231.31 180.55 230.889 180.192 230.351C179.834 229.812 179.644 229.179 179.646 228.532C179.646 228.103 179.73 227.679 179.895 227.283C180.059 226.887 180.3 226.527 180.604 226.224C180.907 225.922 181.268 225.682 181.664 225.519C182.061 225.356 182.485 225.272 182.914 225.274V225.274ZM182.414 219.166V212.789H183.414V219.166H182.414ZM183.414 161.823V168.19H182.414V161.823H183.414ZM182.414 206.422V200.055H183.414V206.392L182.414 206.422ZM186.173 184.193C186.17 184.968 185.891 185.718 185.385 186.306C184.879 186.894 184.18 187.282 183.414 187.401V193.678H182.414V187.401C181.601 187.29 180.86 186.876 180.34 186.24C179.82 185.605 179.56 184.797 179.612 183.977C179.664 183.158 180.024 182.389 180.62 181.824C181.216 181.26 182.003 180.942 182.824 180.934H182.414V174.567H183.414V180.934H182.994C183.844 180.958 184.651 181.311 185.244 181.919C185.837 182.528 186.17 183.343 186.173 184.193V184.193ZM182.414 149.079H183.414V155.416H182.414V149.079ZM182.414 120.033H183.414V125.61H182.414V120.033ZM183.414 131.188V134.186H182.414V131.188H183.414Z" fill="#D9DEEE"/>
<path d="M133.937 228.033H135.307C135.421 227.262 135.808 226.558 136.398 226.049C136.988 225.54 137.741 225.26 138.52 225.26C139.299 225.26 140.052 225.54 140.642 226.049C141.232 226.558 141.619 227.262 141.734 228.033H143.093V140.214H141.734C141.619 140.985 141.232 141.689 140.642 142.198C140.052 142.707 139.299 142.987 138.52 142.987C137.741 142.987 136.988 142.707 136.398 142.198C135.808 141.689 135.421 140.985 135.307 140.214H133.937V228.033ZM141.784 184.193C141.784 184.84 141.592 185.472 141.233 186.009C140.874 186.547 140.363 186.966 139.766 187.213C139.169 187.46 138.511 187.525 137.877 187.399C137.243 187.273 136.661 186.961 136.204 186.504C135.747 186.047 135.435 185.465 135.309 184.831C135.183 184.197 135.248 183.54 135.495 182.942C135.743 182.345 136.162 181.835 136.699 181.476C137.237 181.116 137.869 180.925 138.515 180.925C139.375 180.935 140.196 181.284 140.8 181.896C141.405 182.508 141.744 183.333 141.744 184.193H141.784Z" fill="#D9DEEE"/>
<path d="M133.937 257.859H143.093V229.032H141.734C141.619 229.803 141.232 230.507 140.642 231.016C140.052 231.525 139.299 231.805 138.52 231.805C137.741 231.805 136.988 231.525 136.398 231.016C135.808 230.507 135.421 229.803 135.307 229.032H133.937V257.859Z" fill="#D9DEEE"/>
<path d="M133.937 139.214H135.307C135.421 138.443 135.808 137.739 136.398 137.23C136.988 136.721 137.741 136.441 138.52 136.441C139.299 136.441 140.052 136.721 140.642 137.23C141.232 137.739 141.619 138.443 141.734 139.214H143.093V110.438H133.937V139.214Z" fill="#D9DEEE"/>
<path d="M109.828 228.032H103.451V229.032H109.828V228.032Z" fill="#00229A"/>
<path d="M160.794 228.032H154.427V229.032H160.794V228.032Z" fill="#00229A"/>
<path d="M173.539 228.032H167.172V229.032H173.539V228.032Z" fill="#00229A"/>
<path d="M122.572 228.032H116.195V229.032H122.572V228.032Z" fill="#00229A"/>
<path d="M94.5856 149.08H93.5861V155.447H94.5856V149.08Z" fill="#00229A"/>
<path d="M94.5856 161.823H93.5861V168.19H94.5856V161.823Z" fill="#00229A"/>
<path d="M94.5856 200.055H93.5861V206.422H94.5856V200.055Z" fill="#00229A"/>
<path d="M94.5856 212.79H93.5861V219.157H94.5856V212.79Z" fill="#00229A"/>
<path d="M160.805 139.214H154.428V140.214H160.805V139.214Z" fill="#00229A"/>
<path d="M109.818 139.214H103.451V140.214H109.818V139.214Z" fill="#00229A"/>
<path d="M173.549 139.214H167.172V140.214H173.549V139.214Z" fill="#00229A"/>
<path d="M122.562 139.214H116.195V140.214H122.562V139.214Z" fill="#00229A"/>
<path d="M183.414 149.08H182.414V155.447H183.414V149.08Z" fill="#00229A"/>
<path d="M183.414 212.79H182.414V219.157H183.414V212.79Z" fill="#00229A"/>
<path d="M183.414 200.055H182.414V206.422H183.414V200.055Z" fill="#00229A"/>
<path d="M183.414 161.823H182.414V168.19H183.414V161.823Z" fill="#00229A"/>
<path d="M93.5861 90.6668V92.1561H94.5856V90.6668H182.414V92.1561H183.414V90.6668H230.762L276.63 108.618L277 107.689L231.042 89.6973H230.972V84.8196H229.972V89.6973L183.414 89.6873V86.5887H182.414V89.6873L94.5856 89.6773V86.5887H93.5861V89.6773L47.6376 89.6673V85.2194H46.6381V89.6673H46.0484L0 107.689L0.359831 108.618L46.2383 90.6668H93.5861Z" fill="#00229A"/>
<path d="M94.5856 131.188H93.5861V134.187H94.5856V131.188Z" fill="#00229A"/>
<path d="M94.5856 97.7336H93.5861V103.311H94.5856V97.7336Z" fill="#00229A"/>
<path d="M94.5856 75.4343H93.5861V81.0117H94.5856V75.4343Z" fill="#00229A"/>
<path d="M94.5856 120.033H93.5861V125.611H94.5856V120.033Z" fill="#00229A"/>
<path d="M94.5856 66.8582H93.5861V69.8567H94.5856V66.8582Z" fill="#00229A"/>
<path d="M183.414 131.188H182.414V134.187H183.414V131.188Z" fill="#00229A"/>
<path d="M183.414 75.4343H182.414V81.0117H183.414V75.4343Z" fill="#00229A"/>
<path d="M183.414 97.7336H182.414V103.311H183.414V97.7336Z" fill="#00229A"/>
<path d="M183.414 120.033H182.414V125.611H183.414V120.033Z" fill="#00229A"/>
<path d="M183.414 66.8582H182.414V69.8567H183.414V66.8582Z" fill="#00229A"/>
<path d="M47.6377 105.7H46.6382V108.699H47.6377V105.7Z" fill="#00229A"/>
<path d="M47.6377 95.4648H46.6382V100.582H47.6377V95.4648Z" fill="#00229A"/>
<path d="M47.6377 74.9844H46.6382V80.102H47.6377V74.9844Z" fill="#00229A"/>
<path d="M47.6377 66.8582H46.6382V69.8567H47.6377V66.8582Z" fill="#00229A"/>
<path d="M230.972 105.3H229.972V108.299H230.972V105.3Z" fill="#00229A"/>
<path d="M230.972 95.0549H229.972V100.173H230.972V95.0549Z" fill="#00229A"/>
<path d="M230.972 74.5745H229.972V79.6921H230.972V74.5745Z" fill="#00229A"/>
<path d="M230.972 66.4585H229.972V69.4571H230.972V66.4585Z" fill="#00229A"/>
<path d="M48.827 73.365H50.2663L49.0669 72.1655H92.1466L90.9572 73.365H92.3965L94.0857 71.6658L92.3965 69.9766H90.9572L92.1466 71.166H49.0669L50.2663 69.9766H48.827L47.1378 71.6658L48.827 73.365Z" fill="#00229A"/>
<path d="M186.652 73.365L185.453 72.1655H228.533L227.333 73.365H228.773L230.472 71.6658L228.773 69.9766H227.333L228.533 71.166H185.453L186.652 69.9766H185.213L183.514 71.6658L185.213 73.365H186.652Z" fill="#00229A"/>
<path d="M96.3448 139.714C96.3448 139.267 96.2124 138.83 95.9642 138.459C95.7159 138.087 95.3631 137.798 94.9504 137.627C94.5376 137.456 94.0834 137.411 93.6452 137.498C93.207 137.585 92.8045 137.801 92.4886 138.116C92.1727 138.432 91.9575 138.835 91.8704 139.273C91.7832 139.711 91.8279 140.165 91.9989 140.578C92.1699 140.991 92.4594 141.344 92.8309 141.592C93.2024 141.84 93.6391 141.973 94.0859 141.973C94.6842 141.97 95.2572 141.731 95.6803 141.308C96.1034 140.885 96.3422 140.312 96.3448 139.714V139.714Z" fill="white"/>
<path d="M97.3443 139.714C97.3443 139.07 97.1532 138.44 96.7951 137.904C96.4371 137.368 95.9282 136.95 95.3328 136.704C94.7374 136.457 94.0822 136.392 93.4501 136.518C92.818 136.644 92.2374 136.954 91.7817 137.41C91.326 137.866 91.0157 138.446 90.8899 139.078C90.7642 139.71 90.8287 140.366 91.0754 140.961C91.322 141.556 91.7396 142.065 92.2755 142.423C92.8113 142.781 93.4413 142.973 94.0858 142.973C94.9492 142.97 95.7765 142.626 96.387 142.015C96.9975 141.405 97.3416 140.577 97.3443 139.714V139.714ZM94.0858 141.973C93.6362 141.975 93.1962 141.843 92.8215 141.595C92.4468 141.346 92.1545 140.992 91.9815 140.577C91.8085 140.162 91.7628 139.705 91.85 139.264C91.9372 138.823 92.1535 138.418 92.4715 138.1C92.7894 137.782 93.1946 137.565 93.6356 137.478C94.0767 137.391 94.5337 137.437 94.9487 137.61C95.3637 137.783 95.718 138.075 95.9665 138.45C96.2151 138.824 96.3467 139.264 96.3447 139.714C96.3447 140.011 96.2863 140.304 96.1728 140.578C96.0593 140.853 95.8929 141.102 95.6831 141.311C95.4733 141.521 95.2243 141.688 94.9503 141.801C94.6762 141.915 94.3824 141.973 94.0858 141.973V141.973Z" fill="#00229A"/>
<path d="M138.475 141.973C139.722 141.973 140.734 140.961 140.734 139.714C140.734 138.466 139.722 137.455 138.475 137.455C137.227 137.455 136.216 138.466 136.216 139.714C136.216 140.961 137.227 141.973 138.475 141.973Z" fill="white"/>
<path d="M185.173 139.714C185.175 139.264 185.043 138.824 184.795 138.449C184.546 138.075 184.192 137.782 183.777 137.609C183.362 137.436 182.905 137.391 182.464 137.478C182.023 137.565 181.618 137.781 181.3 138.099C180.982 138.417 180.765 138.822 180.678 139.264C180.591 139.705 180.637 140.162 180.81 140.577C180.983 140.992 181.275 141.346 181.65 141.594C182.024 141.843 182.464 141.975 182.914 141.973C183.512 141.97 184.085 141.731 184.508 141.308C184.932 140.885 185.17 140.312 185.173 139.714V139.714Z" fill="white"/>
<path d="M91.827 184.193C91.829 184.639 91.9631 185.075 92.2125 185.445C92.4619 185.815 92.8154 186.103 93.2284 186.273C93.6413 186.442 94.0952 186.486 94.5327 186.397C94.9702 186.309 95.3718 186.093 95.6867 185.777C96.0017 185.46 96.2158 185.058 96.3022 184.62C96.3885 184.182 96.3432 183.728 96.1719 183.316C96.0007 182.904 95.7111 182.552 95.3399 182.304C94.9686 182.056 94.5323 181.924 94.0859 181.924C93.7884 181.924 93.4939 181.983 93.2191 182.097C92.9444 182.211 92.695 182.378 92.4851 182.589C92.2752 182.8 92.109 183.05 91.9961 183.325C91.8831 183.601 91.8257 183.896 91.827 184.193V184.193Z" fill="white"/>
<path d="M94.1759 180.934H94.5857V174.567H93.5861V180.934H93.956C93.1351 180.942 92.3475 181.26 91.7516 181.824C91.1556 182.389 90.7955 183.158 90.7436 183.977C90.6917 184.797 90.9518 185.605 91.4717 186.24C91.9917 186.875 92.7328 187.29 93.5462 187.401V193.678H94.5457V187.401C95.359 187.29 96.1002 186.875 96.6201 186.24C97.14 185.605 97.4002 184.797 97.3483 183.977C97.2964 183.158 96.9362 182.389 96.3403 181.824C95.7443 181.26 94.9567 180.942 94.1359 180.934H94.1759ZM96.3449 184.193C96.3429 184.639 96.2087 185.075 95.9593 185.445C95.7099 185.815 95.3564 186.103 94.9435 186.273C94.5305 186.442 94.0767 186.485 93.6391 186.397C93.2016 186.309 92.8 186.093 92.4851 185.777C92.1702 185.46 91.956 185.058 91.8697 184.62C91.7833 184.182 91.8286 183.728 91.9999 183.316C92.1712 182.904 92.4607 182.552 92.832 182.304C93.2032 182.056 93.6396 181.924 94.0859 181.924C94.3834 181.924 94.678 181.983 94.9527 182.097C95.2274 182.211 95.4769 182.378 95.6868 182.589C95.8967 182.8 96.0628 183.05 96.1758 183.325C96.2887 183.601 96.3462 183.895 96.3449 184.193V184.193Z" fill="#00229A"/>
<path d="M138.475 186.452C139.722 186.452 140.734 185.441 140.734 184.193C140.734 182.945 139.722 181.934 138.475 181.934C137.227 181.934 136.216 182.945 136.216 184.193C136.216 185.441 137.227 186.452 138.475 186.452Z" fill="white"/>
<path d="M138.475 180.925C137.829 180.925 137.197 181.116 136.659 181.475C136.122 181.835 135.703 182.345 135.455 182.942C135.208 183.539 135.143 184.197 135.269 184.831C135.396 185.465 135.707 186.047 136.164 186.504C136.621 186.961 137.203 187.273 137.837 187.399C138.471 187.525 139.129 187.46 139.726 187.213C140.323 186.965 140.834 186.546 141.193 186.009C141.552 185.471 141.744 184.839 141.744 184.193C141.744 183.326 141.399 182.495 140.786 181.882C140.173 181.269 139.342 180.925 138.475 180.925V180.925ZM140.744 184.193C140.744 184.642 140.611 185.08 140.362 185.454C140.112 185.827 139.758 186.118 139.343 186.289C138.929 186.461 138.473 186.506 138.032 186.418C137.592 186.331 137.188 186.115 136.871 185.797C136.553 185.48 136.337 185.076 136.25 184.636C136.162 184.196 136.207 183.739 136.379 183.325C136.551 182.91 136.841 182.556 137.215 182.306C137.588 182.057 138.026 181.924 138.475 181.924C138.773 181.924 139.068 181.983 139.343 182.097C139.619 182.211 139.869 182.378 140.079 182.589C140.29 182.799 140.457 183.049 140.571 183.325C140.685 183.6 140.744 183.895 140.744 184.193Z" fill="#00229A"/>
<path d="M180.645 184.193C180.645 184.642 180.778 185.08 181.028 185.454C181.277 185.827 181.631 186.118 182.046 186.289C182.461 186.461 182.917 186.506 183.357 186.418C183.797 186.331 184.201 186.115 184.519 185.797C184.836 185.48 185.052 185.076 185.14 184.636C185.227 184.196 185.182 183.739 185.01 183.325C184.839 182.91 184.548 182.556 184.175 182.306C183.802 182.057 183.363 181.924 182.914 181.924C182.313 181.924 181.735 182.163 181.31 182.589C180.884 183.014 180.645 183.591 180.645 184.193V184.193Z" fill="white"/>
<path d="M182.994 180.934H183.414V174.567H182.414V180.934H182.824C182.003 180.942 181.216 181.26 180.62 181.824C180.024 182.389 179.664 183.158 179.612 183.977C179.56 184.797 179.82 185.605 180.34 186.24C180.86 186.875 181.601 187.29 182.414 187.401V193.678H183.414V187.401C184.228 187.29 184.97 186.874 185.489 186.238C186.009 185.602 186.269 184.792 186.216 183.972C186.162 183.152 185.8 182.383 185.203 181.819C184.605 181.256 183.816 180.939 182.994 180.934ZM185.173 184.193C185.173 184.642 185.04 185.081 184.79 185.454C184.54 185.828 184.185 186.119 183.77 186.29C183.355 186.461 182.898 186.506 182.458 186.417C182.017 186.329 181.613 186.112 181.296 185.794C180.979 185.475 180.764 185.07 180.678 184.629C180.591 184.189 180.637 183.732 180.811 183.318C180.984 182.903 181.276 182.55 181.651 182.301C182.025 182.053 182.465 181.922 182.914 181.924C183.212 181.924 183.506 181.983 183.781 182.097C184.056 182.211 184.305 182.378 184.515 182.589C184.725 182.8 184.891 183.05 185.004 183.325C185.117 183.601 185.174 183.895 185.173 184.193V184.193Z" fill="#00229A"/>
<path d="M94.0859 230.801C94.5351 230.803 94.9747 230.672 95.3492 230.424C95.7236 230.175 96.016 229.822 96.1892 229.407C96.3625 228.993 96.4089 228.536 96.3224 228.096C96.236 227.655 96.0207 227.25 95.7038 226.931C95.3869 226.613 94.9826 226.396 94.5422 226.308C94.1018 226.219 93.6451 226.263 93.2299 226.435C92.8148 226.606 92.4598 226.897 92.2101 227.271C91.9603 227.644 91.827 228.083 91.827 228.532C91.827 229.132 92.0646 229.708 92.488 230.133C92.9113 230.558 93.4859 230.798 94.0859 230.801V230.801Z" fill="white"/>
<path d="M90.8273 228.532C90.8273 229.176 91.0184 229.806 91.3765 230.342C91.7345 230.878 92.2434 231.296 92.8388 231.542C93.4342 231.789 94.0894 231.854 94.7215 231.728C95.3536 231.602 95.9342 231.292 96.3899 230.836C96.8456 230.38 97.1559 229.8 97.2817 229.168C97.4074 228.536 97.3429 227.88 97.0962 227.285C96.8496 226.69 96.432 226.181 95.8961 225.823C95.3603 225.465 94.7303 225.273 94.0858 225.273C93.2224 225.276 92.3951 225.62 91.7846 226.231C91.1741 226.841 90.83 227.669 90.8273 228.532V228.532ZM94.0858 226.273C94.5354 226.271 94.9754 226.403 95.3501 226.651C95.7247 226.9 96.0171 227.254 96.1901 227.669C96.363 228.084 96.4088 228.541 96.3216 228.982C96.2344 229.423 96.0181 229.828 95.7002 230.146C95.3822 230.464 94.977 230.68 94.536 230.768C94.0949 230.855 93.6379 230.809 93.2229 230.636C92.8079 230.463 92.4536 230.171 92.2051 229.796C91.9565 229.422 91.8249 228.982 91.8269 228.532C91.8269 227.933 92.0649 227.358 92.4885 226.935C92.9121 226.511 93.4867 226.273 94.0858 226.273V226.273Z" fill="#00229A"/>
<path d="M138.475 230.791C139.722 230.791 140.734 229.78 140.734 228.532C140.734 227.285 139.722 226.273 138.475 226.273C137.227 226.273 136.216 227.285 136.216 228.532C136.216 229.78 137.227 230.791 138.475 230.791Z" fill="white"/>
<path d="M180.645 228.532C180.643 228.982 180.775 229.421 181.023 229.796C181.271 230.17 181.625 230.462 182.039 230.636C182.453 230.809 182.91 230.855 183.351 230.769C183.792 230.683 184.197 230.467 184.515 230.15C184.833 229.833 185.05 229.429 185.139 228.989C185.227 228.548 185.183 228.092 185.011 227.676C184.84 227.261 184.549 226.906 184.176 226.657C183.803 226.407 183.363 226.273 182.914 226.273C182.314 226.273 181.739 226.511 181.313 226.934C180.888 227.358 180.648 227.932 180.645 228.532V228.532Z" fill="white"/>
<path d="M179.646 228.532C179.644 229.179 179.834 229.812 180.192 230.35C180.55 230.889 181.059 231.31 181.656 231.559C182.253 231.808 182.911 231.874 183.546 231.749C184.18 231.624 184.764 231.313 185.222 230.857C185.68 230.4 185.992 229.818 186.119 229.183C186.246 228.549 186.182 227.891 185.935 227.293C185.688 226.696 185.269 226.185 184.731 225.825C184.193 225.465 183.561 225.273 182.914 225.273C182.05 225.276 181.221 225.62 180.609 226.23C179.997 226.84 179.651 227.668 179.646 228.532V228.532ZM182.914 226.273C183.363 226.273 183.802 226.406 184.176 226.656C184.549 226.906 184.84 227.261 185.011 227.676C185.183 228.091 185.227 228.548 185.139 228.988C185.05 229.429 184.833 229.833 184.515 230.15C184.197 230.467 183.791 230.682 183.351 230.768C182.91 230.855 182.453 230.809 182.039 230.635C181.624 230.462 181.271 230.17 181.023 229.795C180.775 229.421 180.643 228.981 180.645 228.532C180.645 228.234 180.704 227.94 180.818 227.665C180.932 227.39 181.1 227.141 181.31 226.931C181.521 226.721 181.771 226.555 182.047 226.442C182.322 226.329 182.617 226.272 182.914 226.273V226.273Z" fill="#00229A"/>
<path d="M206.613 220.506H205.174L203.484 222.206L205.174 223.895H206.613L205.424 222.705H231V221.706H205.424L206.613 220.506Z" fill="#00229A"/>
<path d="M231 139.204H191.415L192.604 138.015H191.165L189.476 139.704L191.165 141.403H192.604L191.415 140.204H231V139.204Z" fill="#00229A"/>
<path d="M54.3303 61.631C55.6476 61.631 56.6053 61.8693 57.2033 62.346C57.81 62.814 58.1133 63.4727 58.1133 64.322C58.1133 64.8507 57.9876 65.323 57.7363 65.739C57.4936 66.155 57.1253 66.4843 56.6313 66.727C56.1373 66.961 55.5306 67.078 54.8113 67.078C54.1613 67.078 53.5416 66.974 52.9523 66.766C52.3716 66.5493 51.9036 66.2633 51.5483 65.908L52.0033 65.167C52.3066 65.479 52.7053 65.7347 53.1993 65.934C53.6933 66.1247 54.2263 66.22 54.7983 66.22C55.5523 66.22 56.133 66.051 56.5403 65.713C56.9563 65.375 57.1643 64.9243 57.1643 64.361C57.1643 63.737 56.9303 63.2647 56.4623 62.944C56.003 62.6233 55.223 62.463 54.1223 62.463H52.1853L52.6533 57.9H57.6323V58.732H53.4723L53.1603 61.631H54.3303ZM62.6686 67.078C61.9666 67.078 61.3383 66.8917 60.7836 66.519C60.2376 66.1463 59.8086 65.6133 59.4966 64.92C59.1933 64.218 59.0416 63.3947 59.0416 62.45C59.0416 61.5053 59.1933 60.6863 59.4966 59.993C59.8086 59.291 60.2376 58.7537 60.7836 58.381C61.3383 58.0083 61.9666 57.822 62.6686 57.822C63.3706 57.822 63.9946 58.0083 64.5406 58.381C65.0953 58.7537 65.5286 59.291 65.8406 59.993C66.1526 60.6863 66.3086 61.5053 66.3086 62.45C66.3086 63.3947 66.1526 64.218 65.8406 64.92C65.5286 65.6133 65.0953 66.1463 64.5406 66.519C63.9946 66.8917 63.3706 67.078 62.6686 67.078ZM62.6686 66.22C63.1973 66.22 63.6609 66.0727 64.0596 65.778C64.4669 65.4833 64.7833 65.0543 65.0086 64.491C65.2339 63.9277 65.3466 63.2473 65.3466 62.45C65.3466 61.6527 65.2339 60.9723 65.0086 60.409C64.7833 59.8457 64.4669 59.4167 64.0596 59.122C63.6609 58.8273 63.1973 58.68 62.6686 58.68C62.1399 58.68 61.6719 58.8273 61.2646 59.122C60.8659 59.4167 60.5539 59.8457 60.3286 60.409C60.1033 60.9723 59.9906 61.6527 59.9906 62.45C59.9906 63.2473 60.1033 63.9277 60.3286 64.491C60.5539 65.0543 60.8659 65.4833 61.2646 65.778C61.6719 66.0727 62.1399 66.22 62.6686 66.22ZM73.9764 67.065C73.3004 67.065 72.6937 66.9177 72.1564 66.623C71.6277 66.3283 71.2117 65.9167 70.9084 65.388C70.605 64.8507 70.4534 64.2483 70.4534 63.581C70.4534 62.9137 70.605 62.3157 70.9084 61.787C71.2117 61.2583 71.6277 60.8467 72.1564 60.552C72.6937 60.2573 73.3004 60.11 73.9764 60.11C74.5657 60.11 75.09 60.227 75.5494 60.461C76.0174 60.6863 76.3857 61.02 76.6544 61.462L75.9654 61.93C75.74 61.592 75.454 61.3407 75.1074 61.176C74.7607 61.0027 74.3837 60.916 73.9764 60.916C73.4824 60.916 73.036 61.0287 72.6374 61.254C72.2474 61.4707 71.9397 61.7827 71.7144 62.19C71.4977 62.5973 71.3894 63.061 71.3894 63.581C71.3894 64.1097 71.4977 64.5777 71.7144 64.985C71.9397 65.3837 72.2474 65.6957 72.6374 65.921C73.036 66.1377 73.4824 66.246 73.9764 66.246C74.3837 66.246 74.7607 66.1637 75.1074 65.999C75.454 65.8343 75.74 65.583 75.9654 65.245L76.6544 65.713C76.3857 66.155 76.0174 66.493 75.5494 66.727C75.0814 66.9523 74.557 67.065 73.9764 67.065ZM86.7356 60.11C87.5936 60.11 88.2652 60.357 88.7506 60.851C89.2446 61.345 89.4916 62.073 89.4916 63.035V67H88.5686V63.126C88.5686 62.4153 88.3952 61.8737 88.0486 61.501C87.7106 61.1283 87.2296 60.942 86.6056 60.942C85.8949 60.942 85.3359 61.163 84.9286 61.605C84.5212 62.0383 84.3176 62.6407 84.3176 63.412V67H83.3946V63.126C83.3946 62.4153 83.2212 61.8737 82.8746 61.501C82.5366 61.1283 82.0512 60.942 81.4186 60.942C80.7166 60.942 80.1576 61.163 79.7416 61.605C79.3342 62.0383 79.1306 62.6407 79.1306 63.412V67H78.2076V60.162H79.0916V61.41C79.3342 60.994 79.6722 60.6733 80.1056 60.448C80.5389 60.2227 81.0372 60.11 81.6006 60.11C82.1726 60.11 82.6666 60.2313 83.0826 60.474C83.5072 60.7167 83.8236 61.0763 84.0316 61.553C84.2829 61.1023 84.6426 60.7513 85.1106 60.5C85.5872 60.24 86.1289 60.11 86.7356 60.11Z" fill="#00229A"/>
<path d="M190.748 61.631C192.065 61.631 193.023 61.8693 193.621 62.346C194.227 62.814 194.531 63.4727 194.531 64.322C194.531 64.8507 194.405 65.323 194.154 65.739C193.911 66.155 193.543 66.4843 193.049 66.727C192.555 66.961 191.948 67.078 191.229 67.078C190.579 67.078 189.959 66.974 189.37 66.766C188.789 66.5493 188.321 66.2633 187.966 65.908L188.421 65.167C188.724 65.479 189.123 65.7347 189.617 65.934C190.111 66.1247 190.644 66.22 191.216 66.22C191.97 66.22 192.55 66.051 192.958 65.713C193.374 65.375 193.582 64.9243 193.582 64.361C193.582 63.737 193.348 63.2647 192.88 62.944C192.42 62.6233 191.64 62.463 190.54 62.463H188.603L189.071 57.9H194.05V58.732H189.89L189.578 61.631H190.748ZM199.086 67.078C198.384 67.078 197.755 66.8917 197.201 66.519C196.655 66.1463 196.226 65.6133 195.914 64.92C195.61 64.218 195.459 63.3947 195.459 62.45C195.459 61.5053 195.61 60.6863 195.914 59.993C196.226 59.291 196.655 58.7537 197.201 58.381C197.755 58.0083 198.384 57.822 199.086 57.822C199.788 57.822 200.412 58.0083 200.958 58.381C201.512 58.7537 201.946 59.291 202.258 59.993C202.57 60.6863 202.726 61.5053 202.726 62.45C202.726 63.3947 202.57 64.218 202.258 64.92C201.946 65.6133 201.512 66.1463 200.958 66.519C200.412 66.8917 199.788 67.078 199.086 67.078ZM199.086 66.22C199.614 66.22 200.078 66.0727 200.477 65.778C200.884 65.4833 201.2 65.0543 201.426 64.491C201.651 63.9277 201.764 63.2473 201.764 62.45C201.764 61.6527 201.651 60.9723 201.426 60.409C201.2 59.8457 200.884 59.4167 200.477 59.122C200.078 58.8273 199.614 58.68 199.086 58.68C198.557 58.68 198.089 58.8273 197.682 59.122C197.283 59.4167 196.971 59.8457 196.746 60.409C196.52 60.9723 196.408 61.6527 196.408 62.45C196.408 63.2473 196.52 63.9277 196.746 64.491C196.971 65.0543 197.283 65.4833 197.682 65.778C198.089 66.0727 198.557 66.22 199.086 66.22ZM210.394 67.065C209.718 67.065 209.111 66.9177 208.574 66.623C208.045 66.3283 207.629 65.9167 207.326 65.388C207.022 64.8507 206.871 64.2483 206.871 63.581C206.871 62.9137 207.022 62.3157 207.326 61.787C207.629 61.2583 208.045 60.8467 208.574 60.552C209.111 60.2573 209.718 60.11 210.394 60.11C210.983 60.11 211.507 60.227 211.967 60.461C212.435 60.6863 212.803 61.02 213.072 61.462L212.383 61.93C212.157 61.592 211.871 61.3407 211.525 61.176C211.178 61.0027 210.801 60.916 210.394 60.916C209.9 60.916 209.453 61.0287 209.055 61.254C208.665 61.4707 208.357 61.7827 208.132 62.19C207.915 62.5973 207.807 63.061 207.807 63.581C207.807 64.1097 207.915 64.5777 208.132 64.985C208.357 65.3837 208.665 65.6957 209.055 65.921C209.453 66.1377 209.9 66.246 210.394 66.246C210.801 66.246 211.178 66.1637 211.525 65.999C211.871 65.8343 212.157 65.583 212.383 65.245L213.072 65.713C212.803 66.155 212.435 66.493 211.967 66.727C211.499 66.9523 210.974 67.065 210.394 67.065ZM223.153 60.11C224.011 60.11 224.682 60.357 225.168 60.851C225.662 61.345 225.909 62.073 225.909 63.035V67H224.986V63.126C224.986 62.4153 224.812 61.8737 224.466 61.501C224.128 61.1283 223.647 60.942 223.023 60.942C222.312 60.942 221.753 61.163 221.346 61.605C220.938 62.0383 220.735 62.6407 220.735 63.412V67H219.812V63.126C219.812 62.4153 219.638 61.8737 219.292 61.501C218.954 61.1283 218.468 60.942 217.836 60.942C217.134 60.942 216.575 61.163 216.159 61.605C215.751 62.0383 215.548 62.6407 215.548 63.412V67H214.625V60.162H215.509V61.41C215.751 60.994 216.089 60.6733 216.523 60.448C216.956 60.2227 217.454 60.11 218.018 60.11C218.59 60.11 219.084 60.2313 219.5 60.474C219.924 60.7167 220.241 61.0763 220.449 61.553C220.7 61.1023 221.06 60.7513 221.528 60.5C222.004 60.24 222.546 60.11 223.153 60.11Z" fill="#00229A"/>
<path d="M237.512 128.078C236.611 128.078 235.796 127.879 235.068 127.48C234.349 127.081 233.781 126.531 233.365 125.829C232.958 125.118 232.754 124.325 232.754 123.45C232.754 122.575 232.958 121.786 233.365 121.084C233.781 120.373 234.353 119.819 235.081 119.42C235.809 119.021 236.624 118.822 237.525 118.822C238.201 118.822 238.825 118.935 239.397 119.16C239.969 119.385 240.454 119.715 240.853 120.148L240.242 120.759C239.531 120.04 238.634 119.68 237.551 119.68C236.832 119.68 236.177 119.845 235.588 120.174C234.999 120.503 234.535 120.954 234.197 121.526C233.868 122.098 233.703 122.739 233.703 123.45C233.703 124.161 233.868 124.802 234.197 125.374C234.535 125.946 234.999 126.397 235.588 126.726C236.177 127.055 236.832 127.22 237.551 127.22C238.643 127.22 239.54 126.856 240.242 126.128L240.853 126.739C240.454 127.172 239.965 127.506 239.384 127.74C238.812 127.965 238.188 128.078 237.512 128.078ZM246.978 121.981H244.391V128H243.468V121.981H240.881V121.162H246.978V121.981ZM253.165 121.162V128H252.32V125.738H250.175H249.915L248.329 128H247.328L249.031 125.608C248.502 125.461 248.095 125.209 247.809 124.854C247.523 124.499 247.38 124.048 247.38 123.502C247.38 122.739 247.64 122.159 248.16 121.76C248.68 121.361 249.391 121.162 250.292 121.162H253.165ZM248.316 123.528C248.316 124.542 248.962 125.049 250.253 125.049H252.32V121.981H250.318C248.983 121.981 248.316 122.497 248.316 123.528ZM260.373 121.981H256.46V128H255.537V121.162H260.373V121.981ZM261.447 121.162H262.37V124.191H266.673V121.162H267.596V128H266.673V124.984H262.37V128H261.447V121.162ZM275.77 121.162L272.351 128.819C272.074 129.46 271.753 129.915 271.389 130.184C271.025 130.453 270.588 130.587 270.076 130.587C269.747 130.587 269.439 130.535 269.153 130.431C268.867 130.327 268.62 130.171 268.412 129.963L268.841 129.274C269.188 129.621 269.604 129.794 270.089 129.794C270.401 129.794 270.666 129.707 270.882 129.534C271.108 129.361 271.316 129.066 271.506 128.65L271.805 127.987L268.75 121.162H269.712L272.286 126.973L274.86 121.162H275.77ZM281.784 121.981H279.197V128H278.274V121.981H275.687V121.162H281.784V121.981ZM282.858 121.162H283.781V126.596L288.344 121.162H289.163V128H288.24V122.566L283.69 128H282.858V121.162ZM237.668 139.464C238.595 139.681 239.059 140.24 239.059 141.141C239.059 141.739 238.838 142.198 238.396 142.519C237.954 142.84 237.295 143 236.42 143H233.313V136.162H236.329C237.109 136.162 237.72 136.314 238.162 136.617C238.604 136.92 238.825 137.354 238.825 137.917C238.825 138.29 238.721 138.61 238.513 138.879C238.314 139.139 238.032 139.334 237.668 139.464ZM234.21 139.204H236.264C236.793 139.204 237.196 139.104 237.473 138.905C237.759 138.706 237.902 138.415 237.902 138.034C237.902 137.653 237.759 137.367 237.473 137.176C237.196 136.985 236.793 136.89 236.264 136.89H234.21V139.204ZM236.381 142.272C236.97 142.272 237.412 142.177 237.707 141.986C238.002 141.795 238.149 141.496 238.149 141.089C238.149 140.682 238.015 140.383 237.746 140.192C237.477 139.993 237.053 139.893 236.472 139.893H234.21V142.272H236.381ZM240.962 136.162H241.885V143H240.962V136.162ZM241.43 134.667C241.24 134.667 241.079 134.602 240.949 134.472C240.819 134.342 240.754 134.186 240.754 134.004C240.754 133.831 240.819 133.679 240.949 133.549C241.079 133.419 241.24 133.354 241.43 133.354C241.621 133.354 241.781 133.419 241.911 133.549C242.041 133.67 242.106 133.818 242.106 133.991C242.106 134.182 242.041 134.342 241.911 134.472C241.781 134.602 241.621 134.667 241.43 134.667ZM246.74 139.958H245.18V143H244.257V136.162H245.18V139.165H246.753L249.158 136.162H250.159L247.468 139.477L250.354 143H249.262L246.74 139.958ZM251.551 136.162H252.474V139.191H256.777V136.162H257.7V143H256.777V139.984H252.474V143H251.551V136.162ZM262.884 143.065C262.225 143.065 261.632 142.918 261.103 142.623C260.574 142.32 260.158 141.904 259.855 141.375C259.552 140.846 259.4 140.248 259.4 139.581C259.4 138.914 259.552 138.316 259.855 137.787C260.158 137.258 260.574 136.847 261.103 136.552C261.632 136.257 262.225 136.11 262.884 136.11C263.543 136.11 264.136 136.257 264.665 136.552C265.194 136.847 265.605 137.258 265.9 137.787C266.203 138.316 266.355 138.914 266.355 139.581C266.355 140.248 266.203 140.846 265.9 141.375C265.605 141.904 265.194 142.32 264.665 142.623C264.136 142.918 263.543 143.065 262.884 143.065ZM262.884 142.246C263.369 142.246 263.803 142.138 264.184 141.921C264.574 141.696 264.877 141.379 265.094 140.972C265.311 140.565 265.419 140.101 265.419 139.581C265.419 139.061 265.311 138.597 265.094 138.19C264.877 137.783 264.574 137.471 264.184 137.254C263.803 137.029 263.369 136.916 262.884 136.916C262.399 136.916 261.961 137.029 261.571 137.254C261.19 137.471 260.886 137.783 260.661 138.19C260.444 138.597 260.336 139.061 260.336 139.581C260.336 140.101 260.444 140.565 260.661 140.972C260.886 141.379 261.19 141.696 261.571 141.921C261.961 142.138 262.399 142.246 262.884 142.246ZM274.538 139.438C275.023 139.551 275.396 139.746 275.656 140.023C275.925 140.3 276.059 140.638 276.059 141.037C276.059 141.436 275.92 141.791 275.643 142.103C275.374 142.415 275.006 142.658 274.538 142.831C274.07 142.996 273.554 143.078 272.991 143.078C272.497 143.078 272.012 143.009 271.535 142.87C271.058 142.723 270.642 142.51 270.287 142.233L270.599 141.544C270.911 141.778 271.275 141.96 271.691 142.09C272.107 142.22 272.527 142.285 272.952 142.285C273.585 142.285 274.1 142.168 274.499 141.934C274.906 141.691 275.11 141.366 275.11 140.959C275.11 140.595 274.945 140.313 274.616 140.114C274.287 139.906 273.836 139.802 273.264 139.802H272.094V139.126H273.212C273.723 139.126 274.135 139.031 274.447 138.84C274.759 138.641 274.915 138.376 274.915 138.047C274.915 137.683 274.737 137.397 274.382 137.189C274.035 136.981 273.58 136.877 273.017 136.877C272.28 136.877 271.552 137.063 270.833 137.436L270.573 136.721C271.388 136.296 272.233 136.084 273.108 136.084C273.628 136.084 274.096 136.162 274.512 136.318C274.937 136.465 275.266 136.678 275.5 136.955C275.743 137.232 275.864 137.553 275.864 137.917C275.864 138.264 275.743 138.571 275.5 138.84C275.266 139.109 274.945 139.308 274.538 139.438ZM287.706 142.194V144.651H286.835V143H280.712V144.651H279.841V142.194H280.231C280.69 142.168 281.002 141.83 281.167 141.18C281.331 140.53 281.444 139.62 281.505 138.45L281.596 136.162H286.64V142.194H287.706ZM282.35 138.502C282.306 139.473 282.224 140.274 282.103 140.907C281.981 141.531 281.765 141.96 281.453 142.194H285.717V136.981H282.428L282.35 138.502ZM293.599 139.464C294.527 139.681 294.99 140.24 294.99 141.141C294.99 141.739 294.769 142.198 294.327 142.519C293.885 142.84 293.227 143 292.351 143H289.244V136.162H292.26C293.04 136.162 293.651 136.314 294.093 136.617C294.535 136.92 294.756 137.354 294.756 137.917C294.756 138.29 294.652 138.61 294.444 138.879C294.245 139.139 293.963 139.334 293.599 139.464ZM290.141 139.204H292.195C292.724 139.204 293.127 139.104 293.404 138.905C293.69 138.706 293.833 138.415 293.833 138.034C293.833 137.653 293.69 137.367 293.404 137.176C293.127 136.985 292.724 136.89 292.195 136.89H290.141V139.204ZM292.312 142.272C292.902 142.272 293.344 142.177 293.638 141.986C293.933 141.795 294.08 141.496 294.08 141.089C294.08 140.682 293.946 140.383 293.677 140.192C293.409 139.993 292.984 139.893 292.403 139.893H290.141V142.272H292.312ZM299.715 143.065C299.056 143.065 298.462 142.918 297.934 142.623C297.405 142.32 296.989 141.904 296.686 141.375C296.382 140.846 296.231 140.248 296.231 139.581C296.231 138.914 296.382 138.316 296.686 137.787C296.989 137.258 297.405 136.847 297.934 136.552C298.462 136.257 299.056 136.11 299.715 136.11C300.373 136.11 300.967 136.257 301.496 136.552C302.024 136.847 302.436 137.258 302.731 137.787C303.034 138.316 303.186 138.914 303.186 139.581C303.186 140.248 303.034 140.846 302.731 141.375C302.436 141.904 302.024 142.32 301.496 142.623C300.967 142.918 300.373 143.065 299.715 143.065ZM299.715 142.246C300.2 142.246 300.633 142.138 301.015 141.921C301.405 141.696 301.708 141.379 301.925 140.972C302.141 140.565 302.25 140.101 302.25 139.581C302.25 139.061 302.141 138.597 301.925 138.19C301.708 137.783 301.405 137.471 301.015 137.254C300.633 137.029 300.2 136.916 299.715 136.916C299.229 136.916 298.792 137.029 298.402 137.254C298.02 137.471 297.717 137.783 297.492 138.19C297.275 138.597 297.167 139.061 297.167 139.581C297.167 140.101 297.275 140.565 297.492 140.972C297.717 141.379 298.02 141.696 298.402 141.921C298.792 142.138 299.229 142.246 299.715 142.246ZM308.934 143L306.763 140.14L304.579 143H303.539L306.243 139.49L303.669 136.162H304.709L306.763 138.84L308.817 136.162H309.831L307.257 139.49L309.987 143H308.934ZM236.173 158.065C235.497 158.065 234.89 157.918 234.353 157.623C233.824 157.328 233.408 156.917 233.105 156.388C232.802 155.851 232.65 155.248 232.65 154.581C232.65 153.914 232.802 153.316 233.105 152.787C233.408 152.258 233.824 151.847 234.353 151.552C234.89 151.257 235.497 151.11 236.173 151.11C236.762 151.11 237.287 151.227 237.746 151.461C238.214 151.686 238.582 152.02 238.851 152.462L238.162 152.93C237.937 152.592 237.651 152.341 237.304 152.176C236.957 152.003 236.58 151.916 236.173 151.916C235.679 151.916 235.233 152.029 234.834 152.254C234.444 152.471 234.136 152.783 233.911 153.19C233.694 153.597 233.586 154.061 233.586 154.581C233.586 155.11 233.694 155.578 233.911 155.985C234.136 156.384 234.444 156.696 234.834 156.921C235.233 157.138 235.679 157.246 236.173 157.246C236.58 157.246 236.957 157.164 237.304 156.999C237.651 156.834 237.937 156.583 238.162 156.245L238.851 156.713C238.582 157.155 238.214 157.493 237.746 157.727C237.278 157.952 236.754 158.065 236.173 158.065ZM245.061 151.981H242.474V158H241.551V151.981H238.964V151.162H245.061V151.981ZM248.639 158.065C247.981 158.065 247.387 157.918 246.858 157.623C246.33 157.32 245.914 156.904 245.61 156.375C245.307 155.846 245.155 155.248 245.155 154.581C245.155 153.914 245.307 153.316 245.61 152.787C245.914 152.258 246.33 151.847 246.858 151.552C247.387 151.257 247.981 151.11 248.639 151.11C249.298 151.11 249.892 151.257 250.42 151.552C250.949 151.847 251.361 152.258 251.655 152.787C251.959 153.316 252.11 153.914 252.11 154.581C252.11 155.248 251.959 155.846 251.655 156.375C251.361 156.904 250.949 157.32 250.42 157.623C249.892 157.918 249.298 158.065 248.639 158.065ZM248.639 157.246C249.125 157.246 249.558 157.138 249.939 156.921C250.329 156.696 250.633 156.379 250.849 155.972C251.066 155.565 251.174 155.101 251.174 154.581C251.174 154.061 251.066 153.597 250.849 153.19C250.633 152.783 250.329 152.471 249.939 152.254C249.558 152.029 249.125 151.916 248.639 151.916C248.154 151.916 247.716 152.029 247.326 152.254C246.945 152.471 246.642 152.783 246.416 153.19C246.2 153.597 246.091 154.061 246.091 154.581C246.091 155.101 246.2 155.565 246.416 155.972C246.642 156.379 246.945 156.696 247.326 156.921C247.716 157.138 248.154 157.246 248.639 157.246ZM257.346 151.11C257.987 151.11 258.568 151.257 259.088 151.552C259.608 151.838 260.015 152.245 260.31 152.774C260.605 153.303 260.752 153.905 260.752 154.581C260.752 155.266 260.605 155.872 260.31 156.401C260.015 156.93 259.608 157.341 259.088 157.636C258.577 157.922 257.996 158.065 257.346 158.065C256.791 158.065 256.289 157.952 255.838 157.727C255.396 157.493 255.032 157.155 254.746 156.713V160.522H253.823V151.162H254.707V152.514C254.984 152.063 255.348 151.717 255.799 151.474C256.258 151.231 256.774 151.11 257.346 151.11ZM257.281 157.246C257.758 157.246 258.191 157.138 258.581 156.921C258.971 156.696 259.274 156.379 259.491 155.972C259.716 155.565 259.829 155.101 259.829 154.581C259.829 154.061 259.716 153.602 259.491 153.203C259.274 152.796 258.971 152.479 258.581 152.254C258.191 152.029 257.758 151.916 257.281 151.916C256.796 151.916 256.358 152.029 255.968 152.254C255.587 152.479 255.283 152.796 255.058 153.203C254.841 153.602 254.733 154.061 254.733 154.581C254.733 155.101 254.841 155.565 255.058 155.972C255.283 156.379 255.587 156.696 255.968 156.921C256.358 157.138 256.796 157.246 257.281 157.246ZM262.475 151.162H263.398V158H262.475V151.162ZM262.943 149.667C262.752 149.667 262.592 149.602 262.462 149.472C262.332 149.342 262.267 149.186 262.267 149.004C262.267 148.831 262.332 148.679 262.462 148.549C262.592 148.419 262.752 148.354 262.943 148.354C263.134 148.354 263.294 148.419 263.424 148.549C263.554 148.67 263.619 148.818 263.619 148.991C263.619 149.182 263.554 149.342 263.424 149.472C263.294 149.602 263.134 149.667 262.943 149.667ZM265.77 151.162H266.693V154.191H270.996V151.162H271.919V158H270.996V154.984H266.693V158H265.77V151.162ZM280.753 154.438C281.238 154.551 281.611 154.746 281.871 155.023C282.139 155.3 282.274 155.638 282.274 156.037C282.274 156.436 282.135 156.791 281.858 157.103C281.589 157.415 281.221 157.658 280.753 157.831C280.285 157.996 279.769 158.078 279.206 158.078C278.712 158.078 278.226 158.009 277.75 157.87C277.273 157.723 276.857 157.51 276.502 157.233L276.814 156.544C277.126 156.778 277.49 156.96 277.906 157.09C278.322 157.22 278.742 157.285 279.167 157.285C279.799 157.285 280.315 157.168 280.714 156.934C281.121 156.691 281.325 156.366 281.325 155.959C281.325 155.595 281.16 155.313 280.831 155.114C280.501 154.906 280.051 154.802 279.479 154.802H278.309V154.126H279.427C279.938 154.126 280.35 154.031 280.662 153.84C280.974 153.641 281.13 153.376 281.13 153.047C281.13 152.683 280.952 152.397 280.597 152.189C280.25 151.981 279.795 151.877 279.232 151.877C278.495 151.877 277.767 152.063 277.048 152.436L276.788 151.721C277.602 151.296 278.447 151.084 279.323 151.084C279.843 151.084 280.311 151.162 280.727 151.318C281.151 151.465 281.481 151.678 281.715 151.955C281.957 152.232 282.079 152.553 282.079 152.917C282.079 153.264 281.957 153.571 281.715 153.84C281.481 154.109 281.16 154.308 280.753 154.438ZM286.462 151.11C287.355 151.11 288.039 151.335 288.516 151.786C288.993 152.228 289.231 152.887 289.231 153.762V158H288.347V156.934C288.139 157.289 287.831 157.567 287.424 157.766C287.025 157.965 286.549 158.065 285.994 158.065C285.231 158.065 284.625 157.883 284.174 157.519C283.723 157.155 283.498 156.674 283.498 156.076C283.498 155.495 283.706 155.027 284.122 154.672C284.547 154.317 285.218 154.139 286.137 154.139H288.308V153.723C288.308 153.134 288.143 152.687 287.814 152.384C287.485 152.072 287.004 151.916 286.371 151.916C285.938 151.916 285.522 151.99 285.123 152.137C284.724 152.276 284.382 152.471 284.096 152.722L283.68 152.033C284.027 151.738 284.443 151.513 284.928 151.357C285.413 151.192 285.925 151.11 286.462 151.11ZM286.137 157.337C286.657 157.337 287.103 157.22 287.476 156.986C287.849 156.743 288.126 156.397 288.308 155.946V154.828H286.163C284.993 154.828 284.408 155.235 284.408 156.05C284.408 156.449 284.56 156.765 284.863 156.999C285.166 157.224 285.591 157.337 286.137 157.337ZM239.982 172.194V174.651H239.111V173H232.988V174.651H232.117V172.194H232.507C232.966 172.168 233.278 171.83 233.443 171.18C233.608 170.53 233.72 169.62 233.781 168.45L233.872 166.162H238.916V172.194H239.982ZM234.626 168.502C234.583 169.473 234.5 170.274 234.379 170.907C234.258 171.531 234.041 171.96 233.729 172.194H237.993V166.981H234.704L234.626 168.502ZM244.342 173.065C243.683 173.065 243.089 172.918 242.561 172.623C242.032 172.32 241.616 171.904 241.313 171.375C241.009 170.846 240.858 170.248 240.858 169.581C240.858 168.914 241.009 168.316 241.313 167.787C241.616 167.258 242.032 166.847 242.561 166.552C243.089 166.257 243.683 166.11 244.342 166.11C245 166.11 245.594 166.257 246.123 166.552C246.651 166.847 247.063 167.258 247.358 167.787C247.661 168.316 247.813 168.914 247.813 169.581C247.813 170.248 247.661 170.846 247.358 171.375C247.063 171.904 246.651 172.32 246.123 172.623C245.594 172.918 245 173.065 244.342 173.065ZM244.342 172.246C244.827 172.246 245.26 172.138 245.642 171.921C246.032 171.696 246.335 171.379 246.552 170.972C246.768 170.565 246.877 170.101 246.877 169.581C246.877 169.061 246.768 168.597 246.552 168.19C246.335 167.783 246.032 167.471 245.642 167.254C245.26 167.029 244.827 166.916 244.342 166.916C243.856 166.916 243.419 167.029 243.029 167.254C242.647 167.471 242.344 167.783 242.119 168.19C241.902 168.597 241.794 169.061 241.794 169.581C241.794 170.101 241.902 170.565 242.119 170.972C242.344 171.379 242.647 171.696 243.029 171.921C243.419 172.138 243.856 172.246 244.342 172.246ZM255.661 166.162V173H254.738V166.981H250.448V173H249.525V166.162H255.661ZM260.846 173.065C260.188 173.065 259.594 172.918 259.065 172.623C258.537 172.32 258.121 171.904 257.817 171.375C257.514 170.846 257.362 170.248 257.362 169.581C257.362 168.914 257.514 168.316 257.817 167.787C258.121 167.258 258.537 166.847 259.065 166.552C259.594 166.257 260.188 166.11 260.846 166.11C261.505 166.11 262.099 166.257 262.627 166.552C263.156 166.847 263.568 167.258 263.862 167.787C264.166 168.316 264.317 168.914 264.317 169.581C264.317 170.248 264.166 170.846 263.862 171.375C263.568 171.904 263.156 172.32 262.627 172.623C262.099 172.918 261.505 173.065 260.846 173.065ZM260.846 172.246C261.332 172.246 261.765 172.138 262.146 171.921C262.536 171.696 262.84 171.379 263.056 170.972C263.273 170.565 263.381 170.101 263.381 169.581C263.381 169.061 263.273 168.597 263.056 168.19C262.84 167.783 262.536 167.471 262.146 167.254C261.765 167.029 261.332 166.916 260.846 166.916C260.361 166.916 259.923 167.029 259.533 167.254C259.152 167.471 258.849 167.783 258.623 168.19C258.407 168.597 258.298 169.061 258.298 169.581C258.298 170.101 258.407 170.565 258.623 170.972C258.849 171.379 259.152 171.696 259.533 171.921C259.923 172.138 260.361 172.246 260.846 172.246ZM273.674 166.162V173H272.829V167.592L270.06 172.168H269.644L266.875 167.579V173H266.03V166.162H266.966L269.865 171.089L272.816 166.162H273.674ZM278.861 173.065C278.203 173.065 277.609 172.918 277.08 172.623C276.552 172.32 276.136 171.904 275.832 171.375C275.529 170.846 275.377 170.248 275.377 169.581C275.377 168.914 275.529 168.316 275.832 167.787C276.136 167.258 276.552 166.847 277.08 166.552C277.609 166.257 278.203 166.11 278.861 166.11C279.52 166.11 280.114 166.257 280.642 166.552C281.171 166.847 281.583 167.258 281.877 167.787C282.181 168.316 282.332 168.914 282.332 169.581C282.332 170.248 282.181 170.846 281.877 171.375C281.583 171.904 281.171 172.32 280.642 172.623C280.114 172.918 279.52 173.065 278.861 173.065ZM278.861 172.246C279.347 172.246 279.78 172.138 280.161 171.921C280.551 171.696 280.855 171.379 281.071 170.972C281.288 170.565 281.396 170.101 281.396 169.581C281.396 169.061 281.288 168.597 281.071 168.19C280.855 167.783 280.551 167.471 280.161 167.254C279.78 167.029 279.347 166.916 278.861 166.916C278.376 166.916 277.938 167.029 277.548 167.254C277.167 167.471 276.864 167.783 276.638 168.19C276.422 168.597 276.313 169.061 276.313 169.581C276.313 170.101 276.422 170.565 276.638 170.972C276.864 171.379 277.167 171.696 277.548 171.921C277.938 172.138 278.376 172.246 278.861 172.246ZM288.881 166.981H284.968V173H284.045V166.162H288.881V166.981ZM292.459 173.065C291.8 173.065 291.206 172.918 290.678 172.623C290.149 172.32 289.733 171.904 289.43 171.375C289.126 170.846 288.975 170.248 288.975 169.581C288.975 168.914 289.126 168.316 289.43 167.787C289.733 167.258 290.149 166.847 290.678 166.552C291.206 166.257 291.8 166.11 292.459 166.11C293.117 166.11 293.711 166.257 294.24 166.552C294.768 166.847 295.18 167.258 295.475 167.787C295.778 168.316 295.93 168.914 295.93 169.581C295.93 170.248 295.778 170.846 295.475 171.375C295.18 171.904 294.768 172.32 294.24 172.623C293.711 172.918 293.117 173.065 292.459 173.065ZM292.459 172.246C292.944 172.246 293.377 172.138 293.759 171.921C294.149 171.696 294.452 171.379 294.669 170.972C294.885 170.565 294.994 170.101 294.994 169.581C294.994 169.061 294.885 168.597 294.669 168.19C294.452 167.783 294.149 167.471 293.759 167.254C293.377 167.029 292.944 166.916 292.459 166.916C291.973 166.916 291.536 167.029 291.146 167.254C290.764 167.471 290.461 167.783 290.236 168.19C290.019 168.597 289.911 169.061 289.911 169.581C289.911 170.101 290.019 170.565 290.236 170.972C290.461 171.379 290.764 171.696 291.146 171.921C291.536 172.138 291.973 172.246 292.459 172.246ZM303.518 166.11C304.16 166.11 304.736 166.257 305.247 166.552C305.767 166.847 306.175 167.258 306.469 167.787C306.764 168.316 306.911 168.914 306.911 169.581C306.911 170.248 306.764 170.846 306.469 171.375C306.175 171.904 305.767 172.32 305.247 172.623C304.736 172.918 304.16 173.065 303.518 173.065C302.912 173.065 302.361 172.935 301.867 172.675C301.373 172.406 300.97 172.038 300.658 171.57C300.355 171.102 300.177 170.565 300.125 169.958H298.565V173H297.642V166.162H298.565V169.113H300.138C300.208 168.524 300.394 168.004 300.697 167.553C301.009 167.094 301.408 166.738 301.893 166.487C302.379 166.236 302.92 166.11 303.518 166.11ZM303.518 172.259C303.986 172.259 304.407 172.146 304.779 171.921C305.161 171.696 305.46 171.379 305.676 170.972C305.893 170.565 306.001 170.101 306.001 169.581C306.001 169.061 305.893 168.597 305.676 168.19C305.46 167.783 305.161 167.471 304.779 167.254C304.407 167.029 303.986 166.916 303.518 166.916C303.05 166.916 302.626 167.029 302.244 167.254C301.872 167.471 301.577 167.783 301.36 168.19C301.144 168.597 301.035 169.061 301.035 169.581C301.035 170.101 301.144 170.565 301.36 170.972C301.577 171.379 301.872 171.696 302.244 171.921C302.626 172.146 303.05 172.259 303.518 172.259ZM239.982 187.194V189.651H239.111V188H232.988V189.651H232.117V187.194H232.507C232.966 187.168 233.278 186.83 233.443 186.18C233.608 185.53 233.72 184.62 233.781 183.45L233.872 181.162H238.916V187.194H239.982ZM234.626 183.502C234.583 184.473 234.5 185.274 234.379 185.907C234.258 186.531 234.041 186.96 233.729 187.194H237.993V181.981H234.704L234.626 183.502ZM244.342 188.065C243.683 188.065 243.089 187.918 242.561 187.623C242.032 187.32 241.616 186.904 241.313 186.375C241.009 185.846 240.858 185.248 240.858 184.581C240.858 183.914 241.009 183.316 241.313 182.787C241.616 182.258 242.032 181.847 242.561 181.552C243.089 181.257 243.683 181.11 244.342 181.11C245 181.11 245.594 181.257 246.123 181.552C246.651 181.847 247.063 182.258 247.358 182.787C247.661 183.316 247.813 183.914 247.813 184.581C247.813 185.248 247.661 185.846 247.358 186.375C247.063 186.904 246.651 187.32 246.123 187.623C245.594 187.918 245 188.065 244.342 188.065ZM244.342 187.246C244.827 187.246 245.26 187.138 245.642 186.921C246.032 186.696 246.335 186.379 246.552 185.972C246.768 185.565 246.877 185.101 246.877 184.581C246.877 184.061 246.768 183.597 246.552 183.19C246.335 182.783 246.032 182.471 245.642 182.254C245.26 182.029 244.827 181.916 244.342 181.916C243.856 181.916 243.419 182.029 243.029 182.254C242.647 182.471 242.344 182.783 242.119 183.19C241.902 183.597 241.794 184.061 241.794 184.581C241.794 185.101 241.902 185.565 242.119 185.972C242.344 186.379 242.647 186.696 243.029 186.921C243.419 187.138 243.856 187.246 244.342 187.246ZM258.963 181.162V188H249.525V181.162H250.448V187.194H253.802V181.162H254.725V187.194H258.04V181.162H258.963ZM260.016 187.194V189.495H259.145V188H257.988V187.194H260.016ZM264.16 188.065C263.501 188.065 262.907 187.918 262.379 187.623C261.85 187.32 261.434 186.904 261.131 186.375C260.827 185.846 260.676 185.248 260.676 184.581C260.676 183.914 260.827 183.316 261.131 182.787C261.434 182.258 261.85 181.847 262.379 181.552C262.907 181.257 263.501 181.11 264.16 181.11C264.818 181.11 265.412 181.257 265.941 181.552C266.469 181.847 266.881 182.258 267.176 182.787C267.479 183.316 267.631 183.914 267.631 184.581C267.631 185.248 267.479 185.846 267.176 186.375C266.881 186.904 266.469 187.32 265.941 187.623C265.412 187.918 264.818 188.065 264.16 188.065ZM264.16 187.246C264.645 187.246 265.078 187.138 265.46 186.921C265.85 186.696 266.153 186.379 266.37 185.972C266.586 185.565 266.695 185.101 266.695 184.581C266.695 184.061 266.586 183.597 266.37 183.19C266.153 182.783 265.85 182.471 265.46 182.254C265.078 182.029 264.645 181.916 264.16 181.916C263.674 181.916 263.237 182.029 262.847 182.254C262.465 182.471 262.162 182.783 261.937 183.19C261.72 183.597 261.612 184.061 261.612 184.581C261.612 185.101 261.72 185.565 261.937 185.972C262.162 186.379 262.465 186.696 262.847 186.921C263.237 187.138 263.674 187.246 264.16 187.246ZM271.826 184.958H270.266V188H269.343V181.162H270.266V184.165H271.839L274.244 181.162H275.245L272.554 184.477L275.44 188H274.348L271.826 184.958ZM279.779 181.162H280.702V188H279.779V181.162ZM280.247 179.667C280.057 179.667 279.896 179.602 279.766 179.472C279.636 179.342 279.571 179.186 279.571 179.004C279.571 178.831 279.636 178.679 279.766 178.549C279.896 178.419 280.057 178.354 280.247 178.354C280.438 178.354 280.598 178.419 280.728 178.549C280.858 178.67 280.923 178.818 280.923 178.991C280.923 179.182 280.858 179.342 280.728 179.472C280.598 179.602 280.438 179.667 280.247 179.667ZM292.885 187.194V189.651H292.014V188H285.891V189.651H285.02V187.194H285.41C285.87 187.168 286.182 186.83 286.346 186.18C286.511 185.53 286.624 184.62 286.684 183.45L286.775 181.162H291.819V187.194H292.885ZM287.529 183.502C287.486 184.473 287.404 185.274 287.282 185.907C287.161 186.531 286.944 186.96 286.632 187.194H290.896V181.981H287.607L287.529 183.502ZM297.947 181.11C298.589 181.11 299.169 181.257 299.689 181.552C300.209 181.838 300.617 182.245 300.911 182.774C301.206 183.303 301.353 183.905 301.353 184.581C301.353 185.266 301.206 185.872 300.911 186.401C300.617 186.93 300.209 187.341 299.689 187.636C299.178 187.922 298.597 188.065 297.947 188.065C297.393 188.065 296.89 187.952 296.439 187.727C295.997 187.493 295.633 187.155 295.347 186.713V190.522H294.424V181.162H295.308V182.514C295.586 182.063 295.95 181.717 296.4 181.474C296.86 181.231 297.375 181.11 297.947 181.11ZM297.882 187.246C298.359 187.246 298.792 187.138 299.182 186.921C299.572 186.696 299.876 186.379 300.092 185.972C300.318 185.565 300.43 185.101 300.43 184.581C300.43 184.061 300.318 183.602 300.092 183.203C299.876 182.796 299.572 182.479 299.182 182.254C298.792 182.029 298.359 181.916 297.882 181.916C297.397 181.916 296.959 182.029 296.569 182.254C296.188 182.479 295.885 182.796 295.659 183.203C295.443 183.602 295.334 184.061 295.334 184.581C295.334 185.101 295.443 185.565 295.659 185.972C295.885 186.379 296.188 186.696 296.569 186.921C296.959 187.138 297.397 187.246 297.882 187.246ZM305.897 188.065C305.239 188.065 304.645 187.918 304.116 187.623C303.588 187.32 303.172 186.904 302.868 186.375C302.565 185.846 302.413 185.248 302.413 184.581C302.413 183.914 302.565 183.316 302.868 182.787C303.172 182.258 303.588 181.847 304.116 181.552C304.645 181.257 305.239 181.11 305.897 181.11C306.556 181.11 307.15 181.257 307.678 181.552C308.207 181.847 308.619 182.258 308.913 182.787C309.217 183.316 309.368 183.914 309.368 184.581C309.368 185.248 309.217 185.846 308.913 186.375C308.619 186.904 308.207 187.32 307.678 187.623C307.15 187.918 306.556 188.065 305.897 188.065ZM305.897 187.246C306.383 187.246 306.816 187.138 307.197 186.921C307.587 186.696 307.891 186.379 308.107 185.972C308.324 185.565 308.432 185.101 308.432 184.581C308.432 184.061 308.324 183.597 308.107 183.19C307.891 182.783 307.587 182.471 307.197 182.254C306.816 182.029 306.383 181.916 305.897 181.916C305.412 181.916 304.974 182.029 304.584 182.254C304.203 182.471 303.9 182.783 303.674 183.19C303.458 183.597 303.349 184.061 303.349 184.581C303.349 185.101 303.458 185.565 303.674 185.972C303.9 186.379 304.203 186.696 304.584 186.921C304.974 187.138 305.412 187.246 305.897 187.246ZM315.637 181.981H313.05V188H312.127V181.981H309.54V181.162H315.637V181.981ZM322.548 181.162L319.129 188.819C318.852 189.46 318.531 189.915 318.167 190.184C317.803 190.453 317.365 190.587 316.854 190.587C316.525 190.587 316.217 190.535 315.931 190.431C315.645 190.327 315.398 190.171 315.19 189.963L315.619 189.274C315.966 189.621 316.382 189.794 316.867 189.794C317.179 189.794 317.443 189.707 317.66 189.534C317.885 189.361 318.093 189.066 318.284 188.65L318.583 187.987L315.528 181.162H316.49L319.064 186.973L321.638 181.162H322.548ZM235.666 196.11C236.559 196.11 237.243 196.335 237.72 196.786C238.197 197.228 238.435 197.887 238.435 198.762V203H237.551V201.934C237.343 202.289 237.035 202.567 236.628 202.766C236.229 202.965 235.753 203.065 235.198 203.065C234.435 203.065 233.829 202.883 233.378 202.519C232.927 202.155 232.702 201.674 232.702 201.076C232.702 200.495 232.91 200.027 233.326 199.672C233.751 199.317 234.422 199.139 235.341 199.139H237.512V198.723C237.512 198.134 237.347 197.687 237.018 197.384C236.689 197.072 236.208 196.916 235.575 196.916C235.142 196.916 234.726 196.99 234.327 197.137C233.928 197.276 233.586 197.471 233.3 197.722L232.884 197.033C233.231 196.738 233.647 196.513 234.132 196.357C234.617 196.192 235.129 196.11 235.666 196.11ZM235.341 202.337C235.861 202.337 236.307 202.22 236.68 201.986C237.053 201.743 237.33 201.397 237.512 200.946V199.828H235.367C234.197 199.828 233.612 200.235 233.612 201.05C233.612 201.449 233.764 201.765 234.067 201.999C234.37 202.224 234.795 202.337 235.341 202.337ZM243.947 196.331C244.58 196.331 245.143 196.474 245.637 196.76C246.14 197.037 246.53 197.432 246.807 197.943C247.084 198.446 247.223 199.022 247.223 199.672C247.223 200.339 247.076 200.933 246.781 201.453C246.495 201.964 246.092 202.363 245.572 202.649C245.052 202.935 244.454 203.078 243.778 203.078C242.643 203.078 241.763 202.679 241.139 201.882C240.515 201.085 240.203 199.984 240.203 198.58C240.203 197.115 240.48 195.993 241.035 195.213C241.598 194.433 242.474 193.904 243.661 193.627L246.729 192.925L246.885 193.77L243.999 194.433C243.02 194.65 242.3 195.035 241.841 195.59C241.382 196.136 241.13 196.946 241.087 198.021C241.364 197.492 241.75 197.081 242.244 196.786C242.738 196.483 243.306 196.331 243.947 196.331ZM243.804 202.311C244.281 202.311 244.705 202.203 245.078 201.986C245.459 201.761 245.754 201.449 245.962 201.05C246.179 200.651 246.287 200.201 246.287 199.698C246.287 199.195 246.183 198.753 245.975 198.372C245.767 197.991 245.472 197.696 245.091 197.488C244.718 197.271 244.289 197.163 243.804 197.163C243.319 197.163 242.885 197.271 242.504 197.488C242.131 197.696 241.837 197.991 241.62 198.372C241.412 198.753 241.308 199.195 241.308 199.698C241.308 200.201 241.412 200.651 241.62 201.05C241.837 201.449 242.136 201.761 242.517 201.986C242.898 202.203 243.327 202.311 243.804 202.311ZM251.762 203.065C251.104 203.065 250.51 202.918 249.981 202.623C249.453 202.32 249.037 201.904 248.733 201.375C248.43 200.846 248.278 200.248 248.278 199.581C248.278 198.914 248.43 198.316 248.733 197.787C249.037 197.258 249.453 196.847 249.981 196.552C250.51 196.257 251.104 196.11 251.762 196.11C252.421 196.11 253.015 196.257 253.543 196.552C254.072 196.847 254.484 197.258 254.778 197.787C255.082 198.316 255.233 198.914 255.233 199.581C255.233 200.248 255.082 200.846 254.778 201.375C254.484 201.904 254.072 202.32 253.543 202.623C253.015 202.918 252.421 203.065 251.762 203.065ZM251.762 202.246C252.248 202.246 252.681 202.138 253.062 201.921C253.452 201.696 253.756 201.379 253.972 200.972C254.189 200.565 254.297 200.101 254.297 199.581C254.297 199.061 254.189 198.597 253.972 198.19C253.756 197.783 253.452 197.471 253.062 197.254C252.681 197.029 252.248 196.916 251.762 196.916C251.277 196.916 250.839 197.029 250.449 197.254C250.068 197.471 249.765 197.783 249.539 198.19C249.323 198.597 249.214 199.061 249.214 199.581C249.214 200.101 249.323 200.565 249.539 200.972C249.765 201.379 250.068 201.696 250.449 201.921C250.839 202.138 251.277 202.246 251.762 202.246ZM267.732 196.162V203H266.887V197.592L264.118 202.168H263.702L260.933 197.579V203H260.088V196.162H261.024L263.923 201.089L266.874 196.162H267.732ZM272.92 203.065C272.261 203.065 271.668 202.918 271.139 202.623C270.61 202.32 270.194 201.904 269.891 201.375C269.588 200.846 269.436 200.248 269.436 199.581C269.436 198.914 269.588 198.316 269.891 197.787C270.194 197.258 270.61 196.847 271.139 196.552C271.668 196.257 272.261 196.11 272.92 196.11C273.579 196.11 274.172 196.257 274.701 196.552C275.23 196.847 275.641 197.258 275.936 197.787C276.239 198.316 276.391 198.914 276.391 199.581C276.391 200.248 276.239 200.846 275.936 201.375C275.641 201.904 275.23 202.32 274.701 202.623C274.172 202.918 273.579 203.065 272.92 203.065ZM272.92 202.246C273.405 202.246 273.839 202.138 274.22 201.921C274.61 201.696 274.913 201.379 275.13 200.972C275.347 200.565 275.455 200.101 275.455 199.581C275.455 199.061 275.347 198.597 275.13 198.19C274.913 197.783 274.61 197.471 274.22 197.254C273.839 197.029 273.405 196.916 272.92 196.916C272.435 196.916 271.997 197.029 271.607 197.254C271.226 197.471 270.922 197.783 270.697 198.19C270.48 198.597 270.372 199.061 270.372 199.581C270.372 200.101 270.48 200.565 270.697 200.972C270.922 201.379 271.226 201.696 271.607 201.921C271.997 202.138 272.435 202.246 272.92 202.246ZM282.66 196.981H280.073V203H279.15V196.981H276.563V196.162H282.66V196.981ZM289.571 196.162L286.152 203.819C285.874 204.46 285.554 204.915 285.19 205.184C284.826 205.453 284.388 205.587 283.877 205.587C283.547 205.587 283.24 205.535 282.954 205.431C282.668 205.327 282.421 205.171 282.213 204.963L282.642 204.274C282.988 204.621 283.404 204.794 283.89 204.794C284.202 204.794 284.466 204.707 284.683 204.534C284.908 204.361 285.116 204.066 285.307 203.65L285.606 202.987L282.551 196.162H283.513L286.087 201.973L288.661 196.162H289.571ZM293.899 199.438C294.384 199.551 294.757 199.746 295.017 200.023C295.286 200.3 295.42 200.638 295.42 201.037C295.42 201.436 295.281 201.791 295.004 202.103C294.735 202.415 294.367 202.658 293.899 202.831C293.431 202.996 292.915 203.078 292.352 203.078C291.858 203.078 291.373 203.009 290.896 202.87C290.419 202.723 290.003 202.51 289.648 202.233L289.96 201.544C290.272 201.778 290.636 201.96 291.052 202.09C291.468 202.22 291.888 202.285 292.313 202.285C292.946 202.285 293.461 202.168 293.86 201.934C294.267 201.691 294.471 201.366 294.471 200.959C294.471 200.595 294.306 200.313 293.977 200.114C293.648 199.906 293.197 199.802 292.625 199.802H291.455V199.126H292.573C293.084 199.126 293.496 199.031 293.808 198.84C294.12 198.641 294.276 198.376 294.276 198.047C294.276 197.683 294.098 197.397 293.743 197.189C293.396 196.981 292.941 196.877 292.378 196.877C291.641 196.877 290.913 197.063 290.194 197.436L289.934 196.721C290.749 196.296 291.594 196.084 292.469 196.084C292.989 196.084 293.457 196.162 293.873 196.318C294.298 196.465 294.627 196.678 294.861 196.955C295.104 197.232 295.225 197.553 295.225 197.917C295.225 198.264 295.104 198.571 294.861 198.84C294.627 199.109 294.306 199.308 293.899 199.438ZM299.738 199.958H298.178V203H297.255V196.162H298.178V199.165H299.751L302.156 196.162H303.157L300.466 199.477L303.352 203H302.26L299.738 199.958ZM304.549 196.162H305.472V201.596L310.035 196.162H310.854V203H309.931V197.566L305.381 203H304.549V196.162ZM313.304 203.065C313.113 203.065 312.949 202.996 312.81 202.857C312.68 202.718 312.615 202.549 312.615 202.35C312.615 202.151 312.68 201.986 312.81 201.856C312.949 201.717 313.113 201.648 313.304 201.648C313.495 201.648 313.659 201.717 313.798 201.856C313.937 201.986 314.006 202.151 314.006 202.35C314.006 202.549 313.937 202.718 313.798 202.857C313.659 202.996 313.495 203.065 313.304 203.065Z" fill="#00229A"/>
<path d="M241.893 225.168V228.041H240.996V226H233.053L233.04 228.041H232.143L232.156 225.168H232.611C233.209 225.133 233.625 224.661 233.859 223.751C234.093 222.832 234.236 221.532 234.288 219.851L234.392 216.9H240.528V225.168H241.893ZM235.146 219.942C235.103 221.329 234.994 222.473 234.821 223.374C234.656 224.267 234.375 224.865 233.976 225.168H239.579V217.732H235.224L235.146 219.942ZM246.005 226.065C245.346 226.065 244.753 225.918 244.224 225.623C243.695 225.32 243.279 224.904 242.976 224.375C242.673 223.846 242.521 223.248 242.521 222.581C242.521 221.914 242.673 221.316 242.976 220.787C243.279 220.258 243.695 219.847 244.224 219.552C244.753 219.257 245.346 219.11 246.005 219.11C246.664 219.11 247.257 219.257 247.786 219.552C248.315 219.847 248.726 220.258 249.021 220.787C249.324 221.316 249.476 221.914 249.476 222.581C249.476 223.248 249.324 223.846 249.021 224.375C248.726 224.904 248.315 225.32 247.786 225.623C247.257 225.918 246.664 226.065 246.005 226.065ZM246.005 225.246C246.49 225.246 246.924 225.138 247.305 224.921C247.695 224.696 247.998 224.379 248.215 223.972C248.432 223.565 248.54 223.101 248.54 222.581C248.54 222.061 248.432 221.597 248.215 221.19C247.998 220.783 247.695 220.471 247.305 220.254C246.924 220.029 246.49 219.916 246.005 219.916C245.52 219.916 245.082 220.029 244.692 220.254C244.311 220.471 244.007 220.783 243.782 221.19C243.565 221.597 243.457 222.061 243.457 222.581C243.457 223.101 243.565 223.565 243.782 223.972C244.007 224.379 244.311 224.696 244.692 224.921C245.082 225.138 245.52 225.246 246.005 225.246ZM260.627 219.162V226H251.189V219.162H252.112V225.194H255.466V219.162H256.389V225.194H259.704V219.162H260.627ZM265.485 222.958H263.925V226H263.002V219.162H263.925V222.165H265.498L267.903 219.162H268.904L266.213 222.477L269.099 226H268.007L265.485 222.958ZM270.295 219.162H271.218V224.596L275.781 219.162H276.6V226H275.677V220.566L271.127 226H270.295V219.162ZM234.86 243.522C234.375 242.725 234.002 241.81 233.742 240.779C233.482 239.739 233.352 238.625 233.352 237.438C233.352 236.251 233.482 235.137 233.742 234.097C234.002 233.048 234.375 232.134 234.86 231.354H235.744C235.233 232.229 234.856 233.17 234.613 234.175C234.379 235.18 234.262 236.268 234.262 237.438C234.262 238.608 234.379 239.696 234.613 240.701C234.856 241.706 235.233 242.647 235.744 243.522H234.86ZM239.788 235.8C240.742 235.852 241.465 236.112 241.959 236.58C242.462 237.039 242.713 237.642 242.713 238.387C242.713 238.907 242.588 239.371 242.336 239.778C242.085 240.177 241.712 240.493 241.218 240.727C240.724 240.961 240.122 241.078 239.411 241.078C238.753 241.078 238.129 240.974 237.539 240.766C236.959 240.549 236.491 240.263 236.135 239.908L236.59 239.167C236.894 239.479 237.297 239.735 237.799 239.934C238.302 240.125 238.839 240.22 239.411 240.22C240.157 240.22 240.733 240.06 241.14 239.739C241.548 239.41 241.751 238.959 241.751 238.387C241.751 237.824 241.548 237.382 241.14 237.061C240.733 236.74 240.118 236.58 239.294 236.58H238.644V235.891L241.166 232.732H236.512V231.9H242.362V232.563L239.788 235.8ZM243.876 237.074H247.282V237.88H243.876V237.074ZM256.313 238.608H254.493V241H253.557V238.608H248.422V237.932L253.245 231.9H254.285L249.631 237.776H253.583V235.67H254.493V237.776H256.313V238.608ZM263.5 241.065C262.824 241.065 262.217 240.918 261.68 240.623C261.151 240.328 260.735 239.917 260.432 239.388C260.128 238.851 259.977 238.248 259.977 237.581C259.977 236.914 260.128 236.316 260.432 235.787C260.735 235.258 261.151 234.847 261.68 234.552C262.217 234.257 262.824 234.11 263.5 234.11C264.089 234.11 264.613 234.227 265.073 234.461C265.541 234.686 265.909 235.02 266.178 235.462L265.489 235.93C265.263 235.592 264.977 235.341 264.631 235.176C264.284 235.003 263.907 234.916 263.5 234.916C263.006 234.916 262.559 235.029 262.161 235.254C261.771 235.471 261.463 235.783 261.238 236.19C261.021 236.597 260.913 237.061 260.913 237.581C260.913 238.11 261.021 238.578 261.238 238.985C261.463 239.384 261.771 239.696 262.161 239.921C262.559 240.138 263.006 240.246 263.5 240.246C263.907 240.246 264.284 240.164 264.631 239.999C264.977 239.834 265.263 239.583 265.489 239.245L266.178 239.713C265.909 240.155 265.541 240.493 265.073 240.727C264.605 240.952 264.08 241.065 263.5 241.065ZM276.259 234.11C277.117 234.11 277.789 234.357 278.274 234.851C278.768 235.345 279.015 236.073 279.015 237.035V241H278.092V237.126C278.092 236.415 277.919 235.874 277.572 235.501C277.234 235.128 276.753 234.942 276.129 234.942C275.418 234.942 274.859 235.163 274.452 235.605C274.045 236.038 273.841 236.641 273.841 237.412V241H272.918V237.126C272.918 236.415 272.745 235.874 272.398 235.501C272.06 235.128 271.575 234.942 270.942 234.942C270.24 234.942 269.681 235.163 269.265 235.605C268.858 236.038 268.654 236.641 268.654 237.412V241H267.731V234.162H268.615V235.41C268.858 234.994 269.196 234.673 269.629 234.448C270.062 234.223 270.561 234.11 271.124 234.11C271.696 234.11 272.19 234.231 272.606 234.474C273.031 234.717 273.347 235.076 273.555 235.553C273.806 235.102 274.166 234.751 274.634 234.5C275.111 234.24 275.652 234.11 276.259 234.11ZM280.491 243.522C281.002 242.647 281.379 241.711 281.622 240.714C281.865 239.709 281.986 238.617 281.986 237.438C281.986 236.259 281.865 235.172 281.622 234.175C281.379 233.17 281.002 232.229 280.491 231.354H281.375C281.86 232.134 282.233 233.048 282.493 234.097C282.762 235.137 282.896 236.251 282.896 237.438C282.896 238.625 282.766 239.739 282.506 240.779C282.246 241.819 281.869 242.733 281.375 243.522H280.491Z" fill="#00229A"/>
</svg>
