<svg width="48" height="48" viewBox="0 0 48 48" fill="none" xmlns="http://www.w3.org/2000/svg">
<rect width="48" height="48" fill="#00229A"/>
<path d="M30.3984 23.9336C30.1875 24.1445 29.9062 24.25 29.625 24.25C29.3086 24.25 29.0273 24.1445 28.8164 23.9336L25.125 20.2422V31C25.125 31.6328 24.5977 32.125 24 32.125C23.4375 32.125 22.875 31.6328 22.875 31V20.2422L19.1484 23.9336C18.7266 24.3906 17.9883 24.3906 17.5664 23.9336C17.1094 23.5117 17.1094 22.7734 17.5664 22.3516L23.1914 16.7266C23.6133 16.2695 24.3516 16.2695 24.7734 16.7266L30.3984 22.3516C30.8555 22.7734 30.8555 23.5117 30.3984 23.9336Z" fill="white"/>
</svg>
