<svg width="328" height="328" viewBox="0 0 328 328" fill="none" xmlns="http://www.w3.org/2000/svg">
<path d="M67.64 73.2002V207.43H158.47V87.5702L130.78 73.2002H67.64Z" fill="#6071AD"/>
<path d="M80.08 277.87V277.45H66.64V277.44V208.43V207.43V72.7002V72.2002V69.7002V63.0302V56.3602V49.6902V43.0202V41.2002H40.56V79.1702H50.28V97.4902H33.87V269.22V277.45H19.83V300.17H80.08V277.87Z" fill="white"/>
<path d="M49.28 80.1699H40.56H1V96.0499V96.4899H49.28V80.1699Z" fill="white"/>
<path d="M68.83 27.8602H70.27L69.08 26.6702H128.96L127.76 27.8602H129.2L130.9 26.1702L129.2 24.4702H127.76L128.96 25.6702H69.08L70.27 24.4702H68.83L67.14 26.1702L68.83 27.8602Z" fill="#00229A"/>
<path d="M67.64 29.6699H66.64V36.3399H67.64V29.6699Z" fill="#00229A"/>
<path d="M67.64 20H66.64V23H67.64V20Z" fill="#00229A"/>
<path d="M131.4 69.71H130.4V72.21H67.64V40.21H39.56V79.21H0V97.49H32.87V269.22H0V285L12.16 285.22L12.27 308.38H87L86.89 269.18H75.14L74.81 215.43L158.97 215.65H159.47V87L131.4 72.4V69.71ZM67.64 208.43H69.58L67.64 210.37V208.43ZM67.64 213.92L73.13 208.43H75.25L67.64 216V213.92ZM67.64 225.25L73.84 219.06V221.17L67.63 227.38L67.64 225.25ZM67.64 230.92L73.87 224.69V226.8L67.64 233V230.92ZM67.64 236.59L73.9 230.33V232.44L67.62 238.71L67.64 236.59ZM67.64 242.26L73.94 235.96V238.07L67.63 244.38L67.64 242.26ZM67.64 247.93L74 241.6V243.71L67.66 250.05L67.64 247.93ZM67.64 253.6L74 247.23V249.34L67.62 255.72L67.64 253.6ZM67.64 259.27L74.04 252.87V255L67.63 261.41L67.64 259.27ZM67.64 264.94L74.07 258.51V260.61L67.62 267.06L67.64 264.94ZM67.64 270.61L74.11 264.14V266.25L67.63 272.73L67.64 270.61ZM1 96.49V80.17H49.28V96.49H1ZM19.83 277.49H33.83V97.49H50.28V79.17H40.56V41.17H66.64V277.44H80.08V300.16H19.83V277.49ZM1 280.55L3.67 277.88H5.79L1 282.68V280.55ZM3.13 284.1L9.34 277.88H11.46L5.21 284.13L3.13 284.1ZM10.78 284.24H8.7L15 277.88H17.12L10.78 284.24ZM13.16 285.4L18.83 279.73V281.86L13.17 287.51L13.16 285.4ZM13.16 291.04L18.8 285.4V287.53L13.17 293.15L13.16 291.04ZM13.16 296.69L18.77 291.07V293.19L13.17 298.8L13.16 296.69ZM13.16 302.33L18.75 296.74V298.86L13.17 304.44L13.16 302.33ZM13.74 307.42L19.99 301.17H22.11L15.86 307.42H13.74ZM19.41 307.42L25.66 301.17H27.78L21.53 307.42H19.41ZM25.07 307.42L31.33 301.17H33.45L27.2 307.42H25.07ZM30.74 307.42L36.99 301.17H39.2L32.94 307.42H30.74ZM36.41 307.42L42.66 301.17H44.78L38.53 307.42H36.41ZM42.08 307.42L48.33 301.17H50.45L44.2 307.42H42.08ZM47.75 307.42L54 301.17H56.2L50 307.42H47.75ZM53.42 307.42L59.67 301.17H61.79L55.54 307.42H53.42ZM59.09 307.42L65.34 301.17H67.46L61.21 307.42H59.09ZM64.76 307.42L71.01 301.17H73.13L67 307.42H64.76ZM70.43 307.42L76.68 301.17H78.8L72.55 307.42H70.43ZM86 305.37L84 307.42H81.85L86 303.25V305.37ZM86 299.72L78.29 307.42H76.18L86 297.6V299.72ZM86 294.06L81.08 299V296.88L86 292V294.06ZM86 288.41L81.11 293.31V291.19L86 286.29V288.41ZM86 282.76L81.12 287.64V285.52L86 280.64V282.76ZM86 277.1L81.08 282V279.88L85.94 275L86 277.1ZM86 270.22V271.45L81 276.45H78.8L85 270.22H86ZM81.57 270.22L75.33 276.45H73.13L79.37 270.22H81.57ZM75.9 270.22L69.66 276.45H67.64V276.28L74.14 269.78V270.22H75.9ZM74.39 214.47H73.89V215.53L67.72 221.71V219.59L78.8 208.43H80.92L74.92 214.43L74.39 214.47ZM78.49 214.47L84.55 208.47H86.67L80.61 214.53L78.49 214.47ZM84.15 214.47L90.22 208.4H92.34L86.26 214.47H84.15ZM89.8 214.47L95.89 208.39H98.01L91.92 214.48L89.8 214.47ZM95.46 214.47L101.56 208.37H103.68L97.57 214.47H95.46ZM101.11 214.47L107.22 208.36H109.35L103.22 214.48L101.11 214.47ZM106.76 214.47L112.89 208.34H115.02L108.88 214.47H106.76ZM112.42 214.47L118.56 208.33H120.68L114.53 214.48L112.42 214.47ZM118.07 214.47L124.23 208.31H126.35L120.19 214.47H118.07ZM123.73 214.47L129.9 208.3H132.02L125.84 214.48L123.73 214.47ZM129.38 214.47L135.57 208.28H137.69L131.5 214.47H129.38ZM135.04 214.47L141.24 208.27H143.36L137.15 214.48L135.04 214.47ZM140.69 214.47L146.91 208.26H149L142.78 214.48L140.69 214.47ZM146.35 214.47L152.58 208.24H154.7L148.46 214.48L146.35 214.47ZM158.55 214.47H157.65L158.55 213.57V214.47ZM158.55 210.02L154 214.68H151.88L158.13 208.44H158.43L158.55 210.02ZM158.55 87.35V207.43H67.64V73.21H130.78L158.55 87.35Z" fill="#00229A"/>
<path d="M131.4 56.3599H130.4V63.0299H131.4V56.3599Z" fill="#00229A"/>
<path d="M131.4 43.02H130.4V49.69H131.4V43.02Z" fill="#00229A"/>
<path d="M131.4 29.6699H130.4V36.3399H131.4V29.6699Z" fill="#00229A"/>
<path d="M131.4 20H130.4V23H131.4V20Z" fill="#00229A"/>
<path d="M220.55 207.43L189.35 190V215.66H225.92V207.41L220.55 207.43ZM190.35 191.72L218.49 207.43H190.35V191.72ZM190.35 209.2L191.12 208.43H193.24L190.35 211.32V209.2ZM190.54 214.68L196.79 208.43H198.91L192.66 214.68H190.54ZM196.21 214.68L202.46 208.43H204.58L198.33 214.68H196.21ZM201.88 214.68L208.13 208.43H210.25L204 214.68H201.88ZM207.55 214.68L213.8 208.43H215.92L209.67 214.68H207.55ZM213.22 214.68L219.47 208.43H221.59L215.34 214.68H213.22ZM224.92 214.68H224.56L224.92 214.32V214.68ZM224.92 210.77L221 214.68H218.88L224.88 208.68L224.92 210.77Z" fill="#00229A"/>
<path d="M190.35 191.72V207.43H218.49L190.35 191.72Z" fill="#6071AD"/>
<path d="M171.08 214.63H165.08V215.63H171.08V214.63Z" fill="#00229A"/>
<path d="M183.08 214.63H177.08V215.63H183.08V214.63Z" fill="#00229A"/>
<path d="M183.08 207.54H177.08V208.54H183.08V207.54Z" fill="#00229A"/>
<path d="M171.08 207.54H165.08V208.54H171.08V207.54Z" fill="#00229A"/>
<path d="M183.08 200.46H177.08V201.46H183.08V200.46Z" fill="#00229A"/>
<path d="M171.08 200.46H165.08V201.46H171.08V200.46Z" fill="#00229A"/>
<path d="M171.08 193.37H165.08V194.37H171.08V193.37Z" fill="#00229A"/>
<path d="M183.08 193.37H177.08V194.37H183.08V193.37Z" fill="#00229A"/>
<path d="M183.08 186.28H177.08V187.28H183.08V186.28Z" fill="#00229A"/>
<path d="M171.08 186.28H165.08V187.28H171.08V186.28Z" fill="#00229A"/>
<path d="M183.08 179.2H177.08V180.2H183.08V179.2Z" fill="#00229A"/>
<path d="M171.08 179.2H165.08V180.2H171.08V179.2Z" fill="#00229A"/>
<path d="M171.08 172.11H165.08V173.11H171.08V172.11Z" fill="#00229A"/>
<path d="M183.08 172.11H177.08V173.11H183.08V172.11Z" fill="#00229A"/>
<path d="M183.08 165.02H177.08V166.02H183.08V165.02Z" fill="#00229A"/>
<path d="M171.08 165.02H165.08V166.02H171.08V165.02Z" fill="#00229A"/>
<path d="M183.08 157.94H177.08V158.94H183.08V157.94Z" fill="#00229A"/>
<path d="M171.08 157.94H165.08V158.94H171.08V157.94Z" fill="#00229A"/>
<path d="M183.08 150.85H177.08V151.85H183.08V150.85Z" fill="#00229A"/>
<path d="M171.08 150.85H165.08V151.85H171.08V150.85Z" fill="#00229A"/>
<path d="M171.08 143.76H165.08V144.76H171.08V143.76Z" fill="#00229A"/>
<path d="M183.08 143.76H177.08V144.76H183.08V143.76Z" fill="#00229A"/>
<path d="M171.08 136.68H165.08V137.68H171.08V136.68Z" fill="#00229A"/>
<path d="M183.08 136.68H177.08V137.68H183.08V136.68Z" fill="#00229A"/>
<path d="M171.08 129.59H165.08V130.59H171.08V129.59Z" fill="#00229A"/>
<path d="M183.08 129.59H177.08V130.59H183.08V129.59Z" fill="#00229A"/>
<path d="M171.08 122.5H165.08V123.5H171.08V122.5Z" fill="#00229A"/>
<path d="M183.08 122.5H177.08V123.5H183.08V122.5Z" fill="#00229A"/>
<path d="M171.08 115.42H165.08V116.42H171.08V115.42Z" fill="#00229A"/>
<path d="M183.08 115.42H177.08V116.42H183.08V115.42Z" fill="#00229A"/>
<path d="M171.08 108.33H165.08V109.33H171.08V108.33Z" fill="#00229A"/>
<path d="M183.08 108.33H177.08V109.33H183.08V108.33Z" fill="#00229A"/>
<path d="M171.08 101.25H165.08V102.25H171.08V101.25Z" fill="#00229A"/>
<path d="M183.08 101.25H177.08V102.25H183.08V101.25Z" fill="#00229A"/>
<path d="M183.08 94.1602H177.08V95.1602H183.08V94.1602Z" fill="#00229A"/>
<path d="M171.08 94.1602H165.08V95.1602H171.08V94.1602Z" fill="#00229A"/>
<path d="M183.08 87.0698H177.08V88.0698H183.08V87.0698Z" fill="#00229A"/>
<path d="M171.08 87.0698H165.08V88.0698H171.08V87.0698Z" fill="#00229A"/>
<path d="M183.08 79.9902H177.08V80.9902H183.08V79.9902Z" fill="#00229A"/>
<path d="M171.08 79.9902H165.08V80.9902H171.08V79.9902Z" fill="#00229A"/>
<path d="M171.08 72.8999H165.08V73.8999H171.08V72.8999Z" fill="#00229A"/>
<path d="M183.08 72.8999H177.08V73.8999H183.08V72.8999Z" fill="#00229A"/>
<path d="M88.472 11.9V12.563L84.663 21H83.649L87.393 12.732H82.713V14.435H81.79V11.9H88.472ZM91.5961 15.631C92.9134 15.631 93.8711 15.8693 94.4691 16.346C95.0757 16.814 95.3791 17.4727 95.3791 18.322C95.3791 18.8507 95.2534 19.323 95.0021 19.739C94.7594 20.155 94.3911 20.4843 93.8971 20.727C93.4031 20.961 92.7964 21.078 92.0771 21.078C91.4271 21.078 90.8074 20.974 90.2181 20.766C89.6374 20.5493 89.1694 20.2633 88.8141 19.908L89.2691 19.167C89.5724 19.479 89.9711 19.7347 90.4651 19.934C90.9591 20.1247 91.4921 20.22 92.0641 20.22C92.8181 20.22 93.3987 20.051 93.8061 19.713C94.2221 19.375 94.4301 18.9243 94.4301 18.361C94.4301 17.737 94.1961 17.2647 93.7281 16.944C93.2687 16.6233 92.4887 16.463 91.3881 16.463H89.4511L89.9191 11.9H94.8981V12.732H90.7381L90.4261 15.631H91.5961ZM102.895 21.065C102.219 21.065 101.612 20.9177 101.075 20.623C100.546 20.3283 100.13 19.9167 99.8267 19.388C99.5234 18.8507 99.3717 18.2483 99.3717 17.581C99.3717 16.9137 99.5234 16.3157 99.8267 15.787C100.13 15.2583 100.546 14.8467 101.075 14.552C101.612 14.2573 102.219 14.11 102.895 14.11C103.484 14.11 104.008 14.227 104.468 14.461C104.936 14.6863 105.304 15.02 105.573 15.462L104.884 15.93C104.658 15.592 104.372 15.3407 104.026 15.176C103.679 15.0027 103.302 14.916 102.895 14.916C102.401 14.916 101.954 15.0287 101.556 15.254C101.166 15.4707 100.858 15.7827 100.633 16.19C100.416 16.5973 100.308 17.061 100.308 17.581C100.308 18.1097 100.416 18.5777 100.633 18.985C100.858 19.3837 101.166 19.6957 101.556 19.921C101.954 20.1377 102.401 20.246 102.895 20.246C103.302 20.246 103.679 20.1637 104.026 19.999C104.372 19.8343 104.658 19.583 104.884 19.245L105.573 19.713C105.304 20.155 104.936 20.493 104.468 20.727C104 20.9523 103.475 21.065 102.895 21.065ZM115.654 14.11C116.512 14.11 117.184 14.357 117.669 14.851C118.163 15.345 118.41 16.073 118.41 17.035V21H117.487V17.126C117.487 16.4153 117.314 15.8737 116.967 15.501C116.629 15.1283 116.148 14.942 115.524 14.942C114.813 14.942 114.254 15.163 113.847 15.605C113.44 16.0383 113.236 16.6407 113.236 17.412V21H112.313V17.126C112.313 16.4153 112.14 15.8737 111.793 15.501C111.455 15.1283 110.97 14.942 110.337 14.942C109.635 14.942 109.076 15.163 108.66 15.605C108.253 16.0383 108.049 16.6407 108.049 17.412V21H107.126V14.162H108.01V15.41C108.253 14.994 108.591 14.6733 109.024 14.448C109.457 14.2227 109.956 14.11 110.519 14.11C111.091 14.11 111.585 14.2313 112.001 14.474C112.426 14.7167 112.742 15.0763 112.95 15.553C113.201 15.1023 113.561 14.7513 114.029 14.5C114.506 14.24 115.047 14.11 115.654 14.11Z" fill="#00229A"/>
<path d="M113.139 230.9V240H112.19V235.801H106.496V240H105.534V230.9H106.496V234.956H112.19V230.9H113.139ZM121.71 236.867H115.99C116.042 237.578 116.315 238.154 116.809 238.596C117.303 239.029 117.927 239.246 118.681 239.246C119.105 239.246 119.495 239.172 119.851 239.025C120.206 238.869 120.514 238.644 120.774 238.349L121.294 238.947C120.99 239.311 120.609 239.588 120.15 239.779C119.699 239.97 119.201 240.065 118.655 240.065C117.953 240.065 117.329 239.918 116.783 239.623C116.245 239.32 115.825 238.904 115.522 238.375C115.218 237.846 115.067 237.248 115.067 236.581C115.067 235.914 115.21 235.316 115.496 234.787C115.79 234.258 116.189 233.847 116.692 233.552C117.203 233.257 117.775 233.11 118.408 233.11C119.04 233.11 119.608 233.257 120.111 233.552C120.613 233.847 121.008 234.258 121.294 234.787C121.58 235.307 121.723 235.905 121.723 236.581L121.71 236.867ZM118.408 233.903C117.749 233.903 117.194 234.115 116.744 234.54C116.302 234.956 116.05 235.502 115.99 236.178H120.839C120.778 235.502 120.522 234.956 120.072 234.54C119.63 234.115 119.075 233.903 118.408 233.903ZM126.327 240.065C125.668 240.065 125.075 239.918 124.546 239.623C124.017 239.32 123.601 238.904 123.298 238.375C122.995 237.846 122.843 237.248 122.843 236.581C122.843 235.914 122.995 235.316 123.298 234.787C123.601 234.258 124.017 233.847 124.546 233.552C125.075 233.257 125.668 233.11 126.327 233.11C126.986 233.11 127.579 233.257 128.108 233.552C128.637 233.847 129.048 234.258 129.343 234.787C129.646 235.316 129.798 235.914 129.798 236.581C129.798 237.248 129.646 237.846 129.343 238.375C129.048 238.904 128.637 239.32 128.108 239.623C127.579 239.918 126.986 240.065 126.327 240.065ZM126.327 239.246C126.812 239.246 127.246 239.138 127.627 238.921C128.017 238.696 128.32 238.379 128.537 237.972C128.754 237.565 128.862 237.101 128.862 236.581C128.862 236.061 128.754 235.597 128.537 235.19C128.32 234.783 128.017 234.471 127.627 234.254C127.246 234.029 126.812 233.916 126.327 233.916C125.842 233.916 125.404 234.029 125.014 234.254C124.633 234.471 124.329 234.783 124.104 235.19C123.887 235.597 123.779 236.061 123.779 236.581C123.779 237.101 123.887 237.565 124.104 237.972C124.329 238.379 124.633 238.696 125.014 238.921C125.404 239.138 125.842 239.246 126.327 239.246ZM134.826 233.331C135.458 233.331 136.022 233.474 136.516 233.76C137.018 234.037 137.408 234.432 137.686 234.943C137.963 235.446 138.102 236.022 138.102 236.672C138.102 237.339 137.954 237.933 137.66 238.453C137.374 238.964 136.971 239.363 136.451 239.649C135.931 239.935 135.333 240.078 134.657 240.078C133.521 240.078 132.642 239.679 132.018 238.882C131.394 238.085 131.082 236.984 131.082 235.58C131.082 234.115 131.359 232.993 131.914 232.213C132.477 231.433 133.352 230.904 134.54 230.627L137.608 229.925L137.764 230.77L134.878 231.433C133.898 231.65 133.179 232.035 132.72 232.59C132.26 233.136 132.009 233.946 131.966 235.021C132.243 234.492 132.629 234.081 133.123 233.786C133.617 233.483 134.184 233.331 134.826 233.331ZM134.683 239.311C135.159 239.311 135.584 239.203 135.957 238.986C136.338 238.761 136.633 238.449 136.841 238.05C137.057 237.651 137.166 237.201 137.166 236.698C137.166 236.195 137.062 235.753 136.854 235.372C136.646 234.991 136.351 234.696 135.97 234.488C135.597 234.271 135.168 234.163 134.683 234.163C134.197 234.163 133.764 234.271 133.383 234.488C133.01 234.696 132.715 234.991 132.499 235.372C132.291 235.753 132.187 236.195 132.187 236.698C132.187 237.201 132.291 237.651 132.499 238.05C132.715 238.449 133.014 238.761 133.396 238.986C133.777 239.203 134.206 239.311 134.683 239.311ZM143.856 240L141.685 237.14L139.501 240H138.461L141.165 236.49L138.591 233.162H139.631L141.685 235.84L143.739 233.162H144.753L142.179 236.49L144.909 240H143.856ZM148.741 240.065C148.083 240.065 147.489 239.918 146.96 239.623C146.432 239.32 146.016 238.904 145.712 238.375C145.409 237.846 145.257 237.248 145.257 236.581C145.257 235.914 145.409 235.316 145.712 234.787C146.016 234.258 146.432 233.847 146.96 233.552C147.489 233.257 148.083 233.11 148.741 233.11C149.4 233.11 149.994 233.257 150.522 233.552C151.051 233.847 151.463 234.258 151.757 234.787C152.061 235.316 152.212 235.914 152.212 236.581C152.212 237.248 152.061 237.846 151.757 238.375C151.463 238.904 151.051 239.32 150.522 239.623C149.994 239.918 149.4 240.065 148.741 240.065ZM148.741 239.246C149.227 239.246 149.66 239.138 150.041 238.921C150.431 238.696 150.735 238.379 150.951 237.972C151.168 237.565 151.276 237.101 151.276 236.581C151.276 236.061 151.168 235.597 150.951 235.19C150.735 234.783 150.431 234.471 150.041 234.254C149.66 234.029 149.227 233.916 148.741 233.916C148.256 233.916 147.818 234.029 147.428 234.254C147.047 234.471 146.744 234.783 146.518 235.19C146.302 235.597 146.193 236.061 146.193 236.581C146.193 237.101 146.302 237.565 146.518 237.972C146.744 238.379 147.047 238.696 147.428 238.921C147.818 239.138 148.256 239.246 148.741 239.246ZM160.556 239.194V241.651H159.685V240H153.562V241.651H152.691V239.194H153.081C153.54 239.168 153.852 238.83 154.017 238.18C154.181 237.53 154.294 236.62 154.355 235.45L154.446 233.162H159.49V239.194H160.556ZM155.2 235.502C155.156 236.473 155.074 237.274 154.953 237.907C154.831 238.531 154.615 238.96 154.303 239.194H158.567V233.981H155.278L155.2 235.502ZM162.095 233.162H163.018V238.596L167.581 233.162H168.4V240H167.477V234.566L162.927 240H162.095V233.162ZM178.429 233.162V240H177.584V234.592L174.815 239.168H174.399L171.63 234.579V240H170.785V233.162H171.721L174.62 238.089L177.571 233.162H178.429ZM183.616 240.065C182.958 240.065 182.364 239.918 181.835 239.623C181.307 239.32 180.891 238.904 180.587 238.375C180.284 237.846 180.132 237.248 180.132 236.581C180.132 235.914 180.284 235.316 180.587 234.787C180.891 234.258 181.307 233.847 181.835 233.552C182.364 233.257 182.958 233.11 183.616 233.11C184.275 233.11 184.869 233.257 185.397 233.552C185.926 233.847 186.338 234.258 186.632 234.787C186.936 235.316 187.087 235.914 187.087 236.581C187.087 237.248 186.936 237.846 186.632 238.375C186.338 238.904 185.926 239.32 185.397 239.623C184.869 239.918 184.275 240.065 183.616 240.065ZM183.616 239.246C184.102 239.246 184.535 239.138 184.916 238.921C185.306 238.696 185.61 238.379 185.826 237.972C186.043 237.565 186.151 237.101 186.151 236.581C186.151 236.061 186.043 235.597 185.826 235.19C185.61 234.783 185.306 234.471 184.916 234.254C184.535 234.029 184.102 233.916 183.616 233.916C183.131 233.916 182.693 234.029 182.303 234.254C181.922 234.471 181.619 234.783 181.393 235.19C181.177 235.597 181.068 236.061 181.068 236.581C181.068 237.101 181.177 237.565 181.393 237.972C181.619 238.379 181.922 238.696 182.303 238.921C182.693 239.138 183.131 239.246 183.616 239.246ZM196.297 236.464C197.225 236.681 197.688 237.24 197.688 238.141C197.688 238.739 197.467 239.198 197.025 239.519C196.583 239.84 195.925 240 195.049 240H191.942V233.162H194.958C195.738 233.162 196.349 233.314 196.791 233.617C197.233 233.92 197.454 234.354 197.454 234.917C197.454 235.29 197.35 235.61 197.142 235.879C196.943 236.139 196.661 236.334 196.297 236.464ZM192.839 236.204H194.893C195.422 236.204 195.825 236.104 196.102 235.905C196.388 235.706 196.531 235.415 196.531 235.034C196.531 234.653 196.388 234.367 196.102 234.176C195.825 233.985 195.422 233.89 194.893 233.89H192.839V236.204ZM195.01 239.272C195.6 239.272 196.042 239.177 196.336 238.986C196.631 238.795 196.778 238.496 196.778 238.089C196.778 237.682 196.644 237.383 196.375 237.192C196.107 236.993 195.682 236.893 195.101 236.893H192.839V239.272H195.01ZM202.464 235.58C203.322 235.589 203.977 235.779 204.427 236.152C204.878 236.525 205.103 237.062 205.103 237.764C205.103 238.492 204.861 239.051 204.375 239.441C203.89 239.831 203.197 240.022 202.295 240.013L199.591 240V233.162H200.514V235.554L202.464 235.58ZM206.247 233.162H207.17V240H206.247V233.162ZM202.243 239.311C202.876 239.32 203.353 239.194 203.673 238.934C204.003 238.665 204.167 238.275 204.167 237.764C204.167 237.261 204.007 236.889 203.686 236.646C203.366 236.403 202.885 236.278 202.243 236.269L200.514 236.243V239.285L202.243 239.311ZM215.674 233.162V240H214.751V233.981H210.461V240H209.538V233.162H215.674ZM220.859 240.065C220.201 240.065 219.607 239.918 219.078 239.623C218.55 239.32 218.134 238.904 217.83 238.375C217.527 237.846 217.375 237.248 217.375 236.581C217.375 235.914 217.527 235.316 217.83 234.787C218.134 234.258 218.55 233.847 219.078 233.552C219.607 233.257 220.201 233.11 220.859 233.11C221.518 233.11 222.112 233.257 222.64 233.552C223.169 233.847 223.581 234.258 223.875 234.787C224.179 235.316 224.33 235.914 224.33 236.581C224.33 237.248 224.179 237.846 223.875 238.375C223.581 238.904 223.169 239.32 222.64 239.623C222.112 239.918 221.518 240.065 220.859 240.065ZM220.859 239.246C221.345 239.246 221.778 239.138 222.159 238.921C222.549 238.696 222.853 238.379 223.069 237.972C223.286 237.565 223.394 237.101 223.394 236.581C223.394 236.061 223.286 235.597 223.069 235.19C222.853 234.783 222.549 234.471 222.159 234.254C221.778 234.029 221.345 233.916 220.859 233.916C220.374 233.916 219.936 234.029 219.546 234.254C219.165 234.471 218.862 234.783 218.636 235.19C218.42 235.597 218.311 236.061 218.311 236.581C218.311 237.101 218.42 237.565 218.636 237.972C218.862 238.379 219.165 238.696 219.546 238.921C219.936 239.138 220.374 239.246 220.859 239.246ZM231.595 233.162V240H230.672V233.981H227.396L227.305 235.671C227.235 237.092 227.071 238.184 226.811 238.947C226.551 239.71 226.087 240.091 225.42 240.091C225.238 240.091 225.017 240.056 224.757 239.987L224.822 239.194C224.978 239.229 225.086 239.246 225.147 239.246C225.502 239.246 225.771 239.081 225.953 238.752C226.135 238.423 226.256 238.015 226.317 237.53C226.377 237.045 226.429 236.403 226.473 235.606L226.59 233.162H231.595ZM233.959 233.162H234.882V236.191H239.185V233.162H240.108V240H239.185V236.984H234.882V240H233.959V233.162ZM242.471 233.162H243.394V238.596L247.957 233.162H248.776V240H247.853V234.566L243.303 240H242.471V233.162ZM255.971 233.981H253.384V240H252.461V233.981H249.874V233.162H255.971V233.981ZM259.984 235.58C260.842 235.589 261.492 235.779 261.934 236.152C262.385 236.525 262.61 237.062 262.61 237.764C262.61 238.492 262.367 239.051 261.882 239.441C261.405 239.831 260.712 240.022 259.802 240.013L257.046 240V233.162H257.969V235.554L259.984 235.58ZM259.75 239.311C260.383 239.32 260.859 239.194 261.18 238.934C261.509 238.665 261.674 238.275 261.674 237.764C261.674 237.261 261.514 236.889 261.193 236.646C260.872 236.403 260.391 236.278 259.75 236.269L257.969 236.243V239.285L259.75 239.311ZM109.668 251.464C110.595 251.681 111.059 252.24 111.059 253.141C111.059 253.739 110.838 254.198 110.396 254.519C109.954 254.84 109.295 255 108.42 255H105.313V248.162H108.329C109.109 248.162 109.72 248.314 110.162 248.617C110.604 248.92 110.825 249.354 110.825 249.917C110.825 250.29 110.721 250.61 110.513 250.879C110.314 251.139 110.032 251.334 109.668 251.464ZM106.21 251.204H108.264C108.793 251.204 109.196 251.104 109.473 250.905C109.759 250.706 109.902 250.415 109.902 250.034C109.902 249.653 109.759 249.367 109.473 249.176C109.196 248.985 108.793 248.89 108.264 248.89H106.21V251.204ZM108.381 254.272C108.97 254.272 109.412 254.177 109.707 253.986C110.002 253.795 110.149 253.496 110.149 253.089C110.149 252.682 110.015 252.383 109.746 252.192C109.477 251.993 109.053 251.893 108.472 251.893H106.21V254.272H108.381ZM115.783 255.065C115.125 255.065 114.531 254.918 114.002 254.623C113.474 254.32 113.058 253.904 112.754 253.375C112.451 252.846 112.299 252.248 112.299 251.581C112.299 250.914 112.451 250.316 112.754 249.787C113.058 249.258 113.474 248.847 114.002 248.552C114.531 248.257 115.125 248.11 115.783 248.11C116.442 248.11 117.036 248.257 117.564 248.552C118.093 248.847 118.505 249.258 118.799 249.787C119.103 250.316 119.254 250.914 119.254 251.581C119.254 252.248 119.103 252.846 118.799 253.375C118.505 253.904 118.093 254.32 117.564 254.623C117.036 254.918 116.442 255.065 115.783 255.065ZM115.783 254.246C116.269 254.246 116.702 254.138 117.083 253.921C117.473 253.696 117.777 253.379 117.993 252.972C118.21 252.565 118.318 252.101 118.318 251.581C118.318 251.061 118.21 250.597 117.993 250.19C117.777 249.783 117.473 249.471 117.083 249.254C116.702 249.029 116.269 248.916 115.783 248.916C115.298 248.916 114.86 249.029 114.47 249.254C114.089 249.471 113.786 249.783 113.56 250.19C113.344 250.597 113.235 251.061 113.235 251.581C113.235 252.101 113.344 252.565 113.56 252.972C113.786 253.379 114.089 253.696 114.47 253.921C114.86 254.138 115.298 254.246 115.783 254.246ZM128.464 251.464C129.392 251.681 129.855 252.24 129.855 253.141C129.855 253.739 129.634 254.198 129.192 254.519C128.75 254.84 128.092 255 127.216 255H124.109V248.162H127.125C127.905 248.162 128.516 248.314 128.958 248.617C129.4 248.92 129.621 249.354 129.621 249.917C129.621 250.29 129.517 250.61 129.309 250.879C129.11 251.139 128.828 251.334 128.464 251.464ZM125.006 251.204H127.06C127.589 251.204 127.992 251.104 128.269 250.905C128.555 250.706 128.698 250.415 128.698 250.034C128.698 249.653 128.555 249.367 128.269 249.176C127.992 248.985 127.589 248.89 127.06 248.89H125.006V251.204ZM127.177 254.272C127.767 254.272 128.209 254.177 128.503 253.986C128.798 253.795 128.945 253.496 128.945 253.089C128.945 252.682 128.811 252.383 128.542 252.192C128.274 251.993 127.849 251.893 127.268 251.893H125.006V254.272H127.177ZM134.618 255.065C133.942 255.065 133.336 254.918 132.798 254.623C132.27 254.328 131.854 253.917 131.55 253.388C131.247 252.851 131.095 252.248 131.095 251.581C131.095 250.914 131.247 250.316 131.55 249.787C131.854 249.258 132.27 248.847 132.798 248.552C133.336 248.257 133.942 248.11 134.618 248.11C135.208 248.11 135.732 248.227 136.191 248.461C136.659 248.686 137.028 249.02 137.296 249.462L136.607 249.93C136.382 249.592 136.096 249.341 135.749 249.176C135.403 249.003 135.026 248.916 134.618 248.916C134.124 248.916 133.678 249.029 133.279 249.254C132.889 249.471 132.582 249.783 132.356 250.19C132.14 250.597 132.031 251.061 132.031 251.581C132.031 252.11 132.14 252.578 132.356 252.985C132.582 253.384 132.889 253.696 133.279 253.921C133.678 254.138 134.124 254.246 134.618 254.246C135.026 254.246 135.403 254.164 135.749 253.999C136.096 253.834 136.382 253.583 136.607 253.245L137.296 253.713C137.028 254.155 136.659 254.493 136.191 254.727C135.723 254.952 135.199 255.065 134.618 255.065ZM144.7 248.11C145.341 248.11 145.917 248.257 146.429 248.552C146.949 248.847 147.356 249.258 147.651 249.787C147.945 250.316 148.093 250.914 148.093 251.581C148.093 252.248 147.945 252.846 147.651 253.375C147.356 253.904 146.949 254.32 146.429 254.623C145.917 254.918 145.341 255.065 144.7 255.065C144.093 255.065 143.543 254.935 143.049 254.675C142.555 254.406 142.152 254.038 141.84 253.57C141.536 253.102 141.359 252.565 141.307 251.958H139.747V255H138.824V248.162H139.747V251.113H141.32C141.389 250.524 141.575 250.004 141.879 249.553C142.191 249.094 142.589 248.738 143.075 248.487C143.56 248.236 144.102 248.11 144.7 248.11ZM144.7 254.259C145.168 254.259 145.588 254.146 145.961 253.921C146.342 253.696 146.641 253.379 146.858 252.972C147.074 252.565 147.183 252.101 147.183 251.581C147.183 251.061 147.074 250.597 146.858 250.19C146.641 249.783 146.342 249.471 145.961 249.254C145.588 249.029 145.168 248.916 144.7 248.916C144.232 248.916 143.807 249.029 143.426 249.254C143.053 249.471 142.758 249.783 142.542 250.19C142.325 250.597 142.217 251.061 142.217 251.581C142.217 252.101 142.325 252.565 142.542 252.972C142.758 253.379 143.053 253.696 143.426 253.921C143.807 254.146 144.232 254.259 144.7 254.259ZM157.309 251.464C158.236 251.681 158.7 252.24 158.7 253.141C158.7 253.739 158.479 254.198 158.037 254.519C157.595 254.84 156.936 255 156.061 255H152.954V248.162H155.97C156.75 248.162 157.361 248.314 157.803 248.617C158.245 248.92 158.466 249.354 158.466 249.917C158.466 250.29 158.362 250.61 158.154 250.879C157.955 251.139 157.673 251.334 157.309 251.464ZM153.851 251.204H155.905C156.434 251.204 156.837 251.104 157.114 250.905C157.4 250.706 157.543 250.415 157.543 250.034C157.543 249.653 157.4 249.367 157.114 249.176C156.837 248.985 156.434 248.89 155.905 248.89H153.851V251.204ZM156.022 254.272C156.611 254.272 157.053 254.177 157.348 253.986C157.643 253.795 157.79 253.496 157.79 253.089C157.79 252.682 157.656 252.383 157.387 252.192C157.118 251.993 156.694 251.893 156.113 251.893H153.851V254.272H156.022ZM163.476 250.58C164.334 250.589 164.988 250.779 165.439 251.152C165.89 251.525 166.115 252.062 166.115 252.764C166.115 253.492 165.872 254.051 165.387 254.441C164.902 254.831 164.208 255.022 163.307 255.013L160.603 255V248.162H161.526V250.554L163.476 250.58ZM167.259 248.162H168.182V255H167.259V248.162ZM163.255 254.311C163.888 254.32 164.364 254.194 164.685 253.934C165.014 253.665 165.179 253.275 165.179 252.764C165.179 252.261 165.019 251.889 164.698 251.646C164.377 251.403 163.896 251.278 163.255 251.269L161.526 251.243V254.285L163.255 254.311ZM173.41 255.065C172.734 255.065 172.127 254.918 171.59 254.623C171.061 254.328 170.645 253.917 170.342 253.388C170.039 252.851 169.887 252.248 169.887 251.581C169.887 250.914 170.039 250.316 170.342 249.787C170.645 249.258 171.061 248.847 171.59 248.552C172.127 248.257 172.734 248.11 173.41 248.11C173.999 248.11 174.524 248.227 174.983 248.461C175.451 248.686 175.819 249.02 176.088 249.462L175.399 249.93C175.174 249.592 174.888 249.341 174.541 249.176C174.194 249.003 173.817 248.916 173.41 248.916C172.916 248.916 172.47 249.029 172.071 249.254C171.681 249.471 171.373 249.783 171.148 250.19C170.931 250.597 170.823 251.061 170.823 251.581C170.823 252.11 170.931 252.578 171.148 252.985C171.373 253.384 171.681 253.696 172.071 253.921C172.47 254.138 172.916 254.246 173.41 254.246C173.817 254.246 174.194 254.164 174.541 253.999C174.888 253.834 175.174 253.583 175.399 253.245L176.088 253.713C175.819 254.155 175.451 254.493 174.983 254.727C174.515 254.952 173.991 255.065 173.41 255.065ZM180.322 255.065C179.663 255.065 179.07 254.918 178.541 254.623C178.012 254.32 177.596 253.904 177.293 253.375C176.99 252.846 176.838 252.248 176.838 251.581C176.838 250.914 176.99 250.316 177.293 249.787C177.596 249.258 178.012 248.847 178.541 248.552C179.07 248.257 179.663 248.11 180.322 248.11C180.981 248.11 181.574 248.257 182.103 248.552C182.632 248.847 183.043 249.258 183.338 249.787C183.641 250.316 183.793 250.914 183.793 251.581C183.793 252.248 183.641 252.846 183.338 253.375C183.043 253.904 182.632 254.32 182.103 254.623C181.574 254.918 180.981 255.065 180.322 255.065ZM180.322 254.246C180.807 254.246 181.241 254.138 181.622 253.921C182.012 253.696 182.315 253.379 182.532 252.972C182.749 252.565 182.857 252.101 182.857 251.581C182.857 251.061 182.749 250.597 182.532 250.19C182.315 249.783 182.012 249.471 181.622 249.254C181.241 249.029 180.807 248.916 180.322 248.916C179.837 248.916 179.399 249.029 179.009 249.254C178.628 249.471 178.324 249.783 178.099 250.19C177.882 250.597 177.774 251.061 177.774 251.581C177.774 252.101 177.882 252.565 178.099 252.972C178.324 253.379 178.628 253.696 179.009 253.921C179.399 254.138 179.837 254.246 180.322 254.246ZM190.062 248.981H187.475V255H186.552V248.981H183.965V248.162H190.062V248.981ZM196.973 248.162L193.554 255.819C193.276 256.46 192.956 256.915 192.592 257.184C192.228 257.453 191.79 257.587 191.279 257.587C190.949 257.587 190.642 257.535 190.356 257.431C190.07 257.327 189.823 257.171 189.615 256.963L190.044 256.274C190.39 256.621 190.806 256.794 191.292 256.794C191.604 256.794 191.868 256.707 192.085 256.534C192.31 256.361 192.518 256.066 192.709 255.65L193.008 254.987L189.953 248.162H190.915L193.489 253.973L196.063 248.162H196.973ZM204.153 255.065C203.477 255.065 202.87 254.918 202.333 254.623C201.804 254.328 201.388 253.917 201.085 253.388C200.782 252.851 200.63 252.248 200.63 251.581C200.63 250.914 200.782 250.316 201.085 249.787C201.388 249.258 201.804 248.847 202.333 248.552C202.87 248.257 203.477 248.11 204.153 248.11C204.742 248.11 205.267 248.227 205.726 248.461C206.194 248.686 206.562 249.02 206.831 249.462L206.142 249.93C205.917 249.592 205.631 249.341 205.284 249.176C204.937 249.003 204.56 248.916 204.153 248.916C203.659 248.916 203.213 249.029 202.814 249.254C202.424 249.471 202.116 249.783 201.891 250.19C201.674 250.597 201.566 251.061 201.566 251.581C201.566 252.11 201.674 252.578 201.891 252.985C202.116 253.384 202.424 253.696 202.814 253.921C203.213 254.138 203.659 254.246 204.153 254.246C204.56 254.246 204.937 254.164 205.284 253.999C205.631 253.834 205.917 253.583 206.142 253.245L206.831 253.713C206.562 254.155 206.194 254.493 205.726 254.727C205.258 254.952 204.734 255.065 204.153 255.065ZM213.041 248.981H210.454V255H209.531V248.981H206.944V248.162H213.041V248.981ZM219.779 251.867H214.059C214.111 252.578 214.384 253.154 214.878 253.596C215.372 254.029 215.996 254.246 216.75 254.246C217.174 254.246 217.564 254.172 217.92 254.025C218.275 253.869 218.583 253.644 218.843 253.349L219.363 253.947C219.059 254.311 218.678 254.588 218.219 254.779C217.768 254.97 217.27 255.065 216.724 255.065C216.022 255.065 215.398 254.918 214.852 254.623C214.314 254.32 213.894 253.904 213.591 253.375C213.287 252.846 213.136 252.248 213.136 251.581C213.136 250.914 213.279 250.316 213.565 249.787C213.859 249.258 214.258 248.847 214.761 248.552C215.272 248.257 215.844 248.11 216.477 248.11C217.109 248.11 217.677 248.257 218.18 248.552C218.682 248.847 219.077 249.258 219.363 249.787C219.649 250.307 219.792 250.905 219.792 251.581L219.779 251.867ZM216.477 248.903C215.818 248.903 215.263 249.115 214.813 249.54C214.371 249.956 214.119 250.502 214.059 251.178H218.908C218.847 250.502 218.591 249.956 218.141 249.54C217.699 249.115 217.144 248.903 216.477 248.903ZM221.575 248.162H222.498V251.191H226.801V248.162H227.724V255H226.801V251.984H222.498V255H221.575V248.162ZM232.96 250.58C233.818 250.589 234.472 250.779 234.923 251.152C235.374 251.525 235.599 252.062 235.599 252.764C235.599 253.492 235.356 254.051 234.871 254.441C234.386 254.831 233.692 255.022 232.791 255.013L230.087 255V248.162H231.01V250.554L232.96 250.58ZM236.743 248.162H237.666V255H236.743V248.162ZM232.739 254.311C233.372 254.32 233.848 254.194 234.169 253.934C234.498 253.665 234.663 253.275 234.663 252.764C234.663 252.261 234.503 251.889 234.182 251.646C233.861 251.403 233.38 251.278 232.739 251.269L231.01 251.243V254.285L232.739 254.311ZM111.449 263.162V270H110.526V263.981H106.236V270H105.313V263.162H111.449ZM116.634 270.065C115.975 270.065 115.381 269.918 114.853 269.623C114.324 269.32 113.908 268.904 113.605 268.375C113.301 267.846 113.15 267.248 113.15 266.581C113.15 265.914 113.301 265.316 113.605 264.787C113.908 264.258 114.324 263.847 114.853 263.552C115.381 263.257 115.975 263.11 116.634 263.11C117.292 263.11 117.886 263.257 118.415 263.552C118.943 263.847 119.355 264.258 119.65 264.787C119.953 265.316 120.105 265.914 120.105 266.581C120.105 267.248 119.953 267.846 119.65 268.375C119.355 268.904 118.943 269.32 118.415 269.623C117.886 269.918 117.292 270.065 116.634 270.065ZM116.634 269.246C117.119 269.246 117.552 269.138 117.934 268.921C118.324 268.696 118.627 268.379 118.844 267.972C119.06 267.565 119.169 267.101 119.169 266.581C119.169 266.061 119.06 265.597 118.844 265.19C118.627 264.783 118.324 264.471 117.934 264.254C117.552 264.029 117.119 263.916 116.634 263.916C116.148 263.916 115.711 264.029 115.321 264.254C114.939 264.471 114.636 264.783 114.411 265.19C114.194 265.597 114.086 266.061 114.086 266.581C114.086 267.101 114.194 267.565 114.411 267.972C114.636 268.379 114.939 268.696 115.321 268.921C115.711 269.138 116.148 269.246 116.634 269.246ZM127.369 263.162V270H126.446V263.981H123.17L123.079 265.671C123.01 267.092 122.845 268.184 122.585 268.947C122.325 269.71 121.862 270.091 121.194 270.091C121.012 270.091 120.791 270.056 120.531 269.987L120.596 269.194C120.752 269.229 120.861 269.246 120.921 269.246C121.277 269.246 121.545 269.081 121.727 268.752C121.909 268.423 122.031 268.015 122.091 267.53C122.152 267.045 122.204 266.403 122.247 265.606L122.364 263.162H127.369ZM135.544 263.162L132.125 270.819C131.848 271.46 131.527 271.915 131.163 272.184C130.799 272.453 130.362 272.587 129.85 272.587C129.521 272.587 129.213 272.535 128.927 272.431C128.641 272.327 128.394 272.171 128.186 271.963L128.615 271.274C128.962 271.621 129.378 271.794 129.863 271.794C130.175 271.794 130.44 271.707 130.656 271.534C130.882 271.361 131.09 271.066 131.28 270.65L131.579 269.987L128.524 263.162H129.486L132.06 268.973L134.634 263.162H135.544ZM142.858 263.162V270H141.935V263.981H137.645V270H136.722V263.162H142.858ZM148.043 270.065C147.384 270.065 146.791 269.918 146.262 269.623C145.733 269.32 145.317 268.904 145.014 268.375C144.711 267.846 144.559 267.248 144.559 266.581C144.559 265.914 144.711 265.316 145.014 264.787C145.317 264.258 145.733 263.847 146.262 263.552C146.791 263.257 147.384 263.11 148.043 263.11C148.702 263.11 149.295 263.257 149.824 263.552C150.353 263.847 150.764 264.258 151.059 264.787C151.362 265.316 151.514 265.914 151.514 266.581C151.514 267.248 151.362 267.846 151.059 268.375C150.764 268.904 150.353 269.32 149.824 269.623C149.295 269.918 148.702 270.065 148.043 270.065ZM148.043 269.246C148.528 269.246 148.962 269.138 149.343 268.921C149.733 268.696 150.036 268.379 150.253 267.972C150.47 267.565 150.578 267.101 150.578 266.581C150.578 266.061 150.47 265.597 150.253 265.19C150.036 264.783 149.733 264.471 149.343 264.254C148.962 264.029 148.528 263.916 148.043 263.916C147.558 263.916 147.12 264.029 146.73 264.254C146.349 264.471 146.045 264.783 145.82 265.19C145.603 265.597 145.495 266.061 145.495 266.581C145.495 267.101 145.603 267.565 145.82 267.972C146.045 268.379 146.349 268.696 146.73 268.921C147.12 269.138 147.558 269.246 148.043 269.246ZM159.858 269.194V271.651H158.987V270H152.864V271.651H151.993V269.194H152.383C152.842 269.168 153.154 268.83 153.319 268.18C153.483 267.53 153.596 266.62 153.657 265.45L153.748 263.162H158.792V269.194H159.858ZM154.502 265.502C154.458 266.473 154.376 267.274 154.255 267.907C154.133 268.531 153.917 268.96 153.605 269.194H157.869V263.981H154.58L154.502 265.502ZM165.751 266.464C166.679 266.681 167.142 267.24 167.142 268.141C167.142 268.739 166.921 269.198 166.479 269.519C166.037 269.84 165.379 270 164.503 270H161.396V263.162H164.412C165.192 263.162 165.803 263.314 166.245 263.617C166.687 263.92 166.908 264.354 166.908 264.917C166.908 265.29 166.804 265.61 166.596 265.879C166.397 266.139 166.115 266.334 165.751 266.464ZM162.293 266.204H164.347C164.876 266.204 165.279 266.104 165.556 265.905C165.842 265.706 165.985 265.415 165.985 265.034C165.985 264.653 165.842 264.367 165.556 264.176C165.279 263.985 164.876 263.89 164.347 263.89H162.293V266.204ZM164.464 269.272C165.054 269.272 165.496 269.177 165.79 268.986C166.085 268.795 166.232 268.496 166.232 268.089C166.232 267.682 166.098 267.383 165.829 267.192C165.561 266.993 165.136 266.893 164.555 266.893H162.293V269.272H164.464ZM171.398 263.11C172.291 263.11 172.976 263.335 173.452 263.786C173.929 264.228 174.167 264.887 174.167 265.762V270H173.283V268.934C173.075 269.289 172.768 269.567 172.36 269.766C171.962 269.965 171.485 270.065 170.93 270.065C170.168 270.065 169.561 269.883 169.11 269.519C168.66 269.155 168.434 268.674 168.434 268.076C168.434 267.495 168.642 267.027 169.058 266.672C169.483 266.317 170.155 266.139 171.073 266.139H173.244V265.723C173.244 265.134 173.08 264.687 172.75 264.384C172.421 264.072 171.94 263.916 171.307 263.916C170.874 263.916 170.458 263.99 170.059 264.137C169.661 264.276 169.318 264.471 169.032 264.722L168.616 264.033C168.963 263.738 169.379 263.513 169.864 263.357C170.35 263.192 170.861 263.11 171.398 263.11ZM171.073 269.337C171.593 269.337 172.04 269.22 172.412 268.986C172.785 268.743 173.062 268.397 173.244 267.946V266.828H171.099C169.929 266.828 169.344 267.235 169.344 268.05C169.344 268.449 169.496 268.765 169.799 268.999C170.103 269.224 170.527 269.337 171.073 269.337ZM181.955 263.162V270H181.032V263.981H177.756L177.665 265.671C177.595 267.092 177.431 268.184 177.171 268.947C176.911 269.71 176.447 270.091 175.78 270.091C175.598 270.091 175.377 270.056 175.117 269.987L175.182 269.194C175.338 269.229 175.446 269.246 175.507 269.246C175.862 269.246 176.131 269.081 176.313 268.752C176.495 268.423 176.616 268.015 176.677 267.53C176.737 267.045 176.789 266.403 176.833 265.606L176.95 263.162H181.955ZM186.671 263.11C187.564 263.11 188.249 263.335 188.725 263.786C189.202 264.228 189.44 264.887 189.44 265.762V270H188.556V268.934C188.348 269.289 188.041 269.567 187.633 269.766C187.235 269.965 186.758 270.065 186.203 270.065C185.441 270.065 184.834 269.883 184.383 269.519C183.933 269.155 183.707 268.674 183.707 268.076C183.707 267.495 183.915 267.027 184.331 266.672C184.756 266.317 185.428 266.139 186.346 266.139H188.517V265.723C188.517 265.134 188.353 264.687 188.023 264.384C187.694 264.072 187.213 263.916 186.58 263.916C186.147 263.916 185.731 263.99 185.332 264.137C184.934 264.276 184.591 264.471 184.305 264.722L183.889 264.033C184.236 263.738 184.652 263.513 185.137 263.357C185.623 263.192 186.134 263.11 186.671 263.11ZM186.346 269.337C186.866 269.337 187.313 269.22 187.685 268.986C188.058 268.743 188.335 268.397 188.517 267.946V266.828H186.372C185.202 266.828 184.617 267.235 184.617 268.05C184.617 268.449 184.769 268.765 185.072 268.999C185.376 269.224 185.8 269.337 186.346 269.337ZM191.716 268.648C191.915 268.648 192.08 268.717 192.21 268.856C192.34 268.986 192.405 269.151 192.405 269.35C192.405 269.454 192.387 269.567 192.353 269.688C192.327 269.809 192.283 269.948 192.223 270.104L191.677 271.898H191.053L191.495 270.013C191.356 269.97 191.243 269.892 191.157 269.779C191.07 269.658 191.027 269.515 191.027 269.35C191.027 269.151 191.092 268.986 191.222 268.856C191.352 268.717 191.516 268.648 191.716 268.648ZM202.085 263.981H199.498V270H198.575V263.981H195.988V263.162H202.085V263.981ZM205.663 270.065C205.004 270.065 204.411 269.918 203.882 269.623C203.353 269.32 202.937 268.904 202.634 268.375C202.331 267.846 202.179 267.248 202.179 266.581C202.179 265.914 202.331 265.316 202.634 264.787C202.937 264.258 203.353 263.847 203.882 263.552C204.411 263.257 205.004 263.11 205.663 263.11C206.322 263.11 206.915 263.257 207.444 263.552C207.973 263.847 208.384 264.258 208.679 264.787C208.982 265.316 209.134 265.914 209.134 266.581C209.134 267.248 208.982 267.846 208.679 268.375C208.384 268.904 207.973 269.32 207.444 269.623C206.915 269.918 206.322 270.065 205.663 270.065ZM205.663 269.246C206.148 269.246 206.582 269.138 206.963 268.921C207.353 268.696 207.656 268.379 207.873 267.972C208.09 267.565 208.198 267.101 208.198 266.581C208.198 266.061 208.09 265.597 207.873 265.19C207.656 264.783 207.353 264.471 206.963 264.254C206.582 264.029 206.148 263.916 205.663 263.916C205.178 263.916 204.74 264.029 204.35 264.254C203.969 264.471 203.665 264.783 203.44 265.19C203.223 265.597 203.115 266.061 203.115 266.581C203.115 267.101 203.223 267.565 203.44 267.972C203.665 268.379 203.969 268.696 204.35 268.921C204.74 269.138 205.178 269.246 205.663 269.246ZM219.969 266.867H214.249C214.301 267.578 214.574 268.154 215.068 268.596C215.562 269.029 216.186 269.246 216.94 269.246C217.365 269.246 217.755 269.172 218.11 269.025C218.465 268.869 218.773 268.644 219.033 268.349L219.553 268.947C219.25 269.311 218.868 269.588 218.409 269.779C217.958 269.97 217.46 270.065 216.914 270.065C216.212 270.065 215.588 269.918 215.042 269.623C214.505 269.32 214.084 268.904 213.781 268.375C213.478 267.846 213.326 267.248 213.326 266.581C213.326 265.914 213.469 265.316 213.755 264.787C214.05 264.258 214.448 263.847 214.951 263.552C215.462 263.257 216.034 263.11 216.667 263.11C217.3 263.11 217.867 263.257 218.37 263.552C218.873 263.847 219.267 264.258 219.553 264.787C219.839 265.307 219.982 265.905 219.982 266.581L219.969 266.867ZM216.667 263.903C216.008 263.903 215.454 264.115 215.003 264.54C214.561 264.956 214.31 265.502 214.249 266.178H219.098C219.037 265.502 218.782 264.956 218.331 264.54C217.889 264.115 217.334 263.903 216.667 263.903ZM224.625 270.065C223.949 270.065 223.342 269.918 222.805 269.623C222.276 269.328 221.86 268.917 221.557 268.388C221.254 267.851 221.102 267.248 221.102 266.581C221.102 265.914 221.254 265.316 221.557 264.787C221.86 264.258 222.276 263.847 222.805 263.552C223.342 263.257 223.949 263.11 224.625 263.11C225.214 263.11 225.739 263.227 226.198 263.461C226.666 263.686 227.034 264.02 227.303 264.462L226.614 264.93C226.389 264.592 226.103 264.341 225.756 264.176C225.409 264.003 225.032 263.916 224.625 263.916C224.131 263.916 223.685 264.029 223.286 264.254C222.896 264.471 222.588 264.783 222.363 265.19C222.146 265.597 222.038 266.061 222.038 266.581C222.038 267.11 222.146 267.578 222.363 267.985C222.588 268.384 222.896 268.696 223.286 268.921C223.685 269.138 224.131 269.246 224.625 269.246C225.032 269.246 225.409 269.164 225.756 268.999C226.103 268.834 226.389 268.583 226.614 268.245L227.303 268.713C227.034 269.155 226.666 269.493 226.198 269.727C225.73 269.952 225.206 270.065 224.625 270.065ZM233.513 263.981H230.926V270H230.003V263.981H227.416V263.162H233.513V263.981ZM237.526 265.58C238.384 265.589 239.034 265.779 239.476 266.152C239.927 266.525 240.152 267.062 240.152 267.764C240.152 268.492 239.909 269.051 239.424 269.441C238.947 269.831 238.254 270.022 237.344 270.013L234.588 270V263.162H235.511V265.554L237.526 265.58ZM237.292 269.311C237.925 269.32 238.401 269.194 238.722 268.934C239.051 268.665 239.216 268.275 239.216 267.764C239.216 267.261 239.056 266.889 238.735 266.646C238.414 266.403 237.933 266.278 237.292 266.269L235.511 266.243V269.285L237.292 269.311ZM251.464 269.194V271.651H250.593V270H244.47V271.651H243.599V269.194H243.989C244.449 269.168 244.761 268.83 244.925 268.18C245.09 267.53 245.203 266.62 245.263 265.45L245.354 263.162H250.398V269.194H251.464ZM246.108 265.502C246.065 266.473 245.983 267.274 245.861 267.907C245.74 268.531 245.523 268.96 245.211 269.194H249.475V263.981H246.186L246.108 265.502ZM255.824 270.065C255.165 270.065 254.572 269.918 254.043 269.623C253.514 269.32 253.098 268.904 252.795 268.375C252.492 267.846 252.34 267.248 252.34 266.581C252.34 265.914 252.492 265.316 252.795 264.787C253.098 264.258 253.514 263.847 254.043 263.552C254.572 263.257 255.165 263.11 255.824 263.11C256.483 263.11 257.076 263.257 257.605 263.552C258.134 263.847 258.545 264.258 258.84 264.787C259.143 265.316 259.295 265.914 259.295 266.581C259.295 267.248 259.143 267.846 258.84 268.375C258.545 268.904 258.134 269.32 257.605 269.623C257.076 269.918 256.483 270.065 255.824 270.065ZM255.824 269.246C256.309 269.246 256.743 269.138 257.124 268.921C257.514 268.696 257.817 268.379 258.034 267.972C258.251 267.565 258.359 267.101 258.359 266.581C258.359 266.061 258.251 265.597 258.034 265.19C257.817 264.783 257.514 264.471 257.124 264.254C256.743 264.029 256.309 263.916 255.824 263.916C255.339 263.916 254.901 264.029 254.511 264.254C254.13 264.471 253.826 264.783 253.601 265.19C253.384 265.597 253.276 266.061 253.276 266.581C253.276 267.101 253.384 267.565 253.601 267.972C253.826 268.379 254.13 268.696 254.511 268.921C254.901 269.138 255.339 269.246 255.824 269.246ZM111.449 278.162V285H110.526V278.981H106.236V285H105.313V278.162H111.449ZM116.634 285.065C115.975 285.065 115.381 284.918 114.853 284.623C114.324 284.32 113.908 283.904 113.605 283.375C113.301 282.846 113.15 282.248 113.15 281.581C113.15 280.914 113.301 280.316 113.605 279.787C113.908 279.258 114.324 278.847 114.853 278.552C115.381 278.257 115.975 278.11 116.634 278.11C117.292 278.11 117.886 278.257 118.415 278.552C118.943 278.847 119.355 279.258 119.65 279.787C119.953 280.316 120.105 280.914 120.105 281.581C120.105 282.248 119.953 282.846 119.65 283.375C119.355 283.904 118.943 284.32 118.415 284.623C117.886 284.918 117.292 285.065 116.634 285.065ZM116.634 284.246C117.119 284.246 117.552 284.138 117.934 283.921C118.324 283.696 118.627 283.379 118.844 282.972C119.06 282.565 119.169 282.101 119.169 281.581C119.169 281.061 119.06 280.597 118.844 280.19C118.627 279.783 118.324 279.471 117.934 279.254C117.552 279.029 117.119 278.916 116.634 278.916C116.148 278.916 115.711 279.029 115.321 279.254C114.939 279.471 114.636 279.783 114.411 280.19C114.194 280.597 114.086 281.061 114.086 281.581C114.086 282.101 114.194 282.565 114.411 282.972C114.636 283.379 114.939 283.696 115.321 283.921C115.711 284.138 116.148 284.246 116.634 284.246ZM127.369 278.162V285H126.446V278.981H123.17L123.079 280.671C123.01 282.092 122.845 283.184 122.585 283.947C122.325 284.71 121.862 285.091 121.194 285.091C121.012 285.091 120.791 285.056 120.531 284.987L120.596 284.194C120.752 284.229 120.861 284.246 120.921 284.246C121.277 284.246 121.545 284.081 121.727 283.752C121.909 283.423 122.031 283.015 122.091 282.53C122.152 282.045 122.204 281.403 122.247 280.606L122.364 278.162H127.369ZM132.086 278.11C132.979 278.11 133.664 278.335 134.14 278.786C134.617 279.228 134.855 279.887 134.855 280.762V285H133.971V283.934C133.763 284.289 133.456 284.567 133.048 284.766C132.65 284.965 132.173 285.065 131.618 285.065C130.856 285.065 130.249 284.883 129.798 284.519C129.348 284.155 129.122 283.674 129.122 283.076C129.122 282.495 129.33 282.027 129.746 281.672C130.171 281.317 130.843 281.139 131.761 281.139H133.932V280.723C133.932 280.134 133.768 279.687 133.438 279.384C133.109 279.072 132.628 278.916 131.995 278.916C131.562 278.916 131.146 278.99 130.747 279.137C130.349 279.276 130.006 279.471 129.72 279.722L129.304 279.033C129.651 278.738 130.067 278.513 130.552 278.357C131.038 278.192 131.549 278.11 132.086 278.11ZM131.761 284.337C132.281 284.337 132.728 284.22 133.1 283.986C133.473 283.743 133.75 283.397 133.932 282.946V281.828H131.787C130.617 281.828 130.032 282.235 130.032 283.05C130.032 283.449 130.184 283.765 130.487 283.999C130.791 284.224 131.215 284.337 131.761 284.337ZM146.331 278.162V285H145.408V278.981H141.118V285H140.195V278.162H146.331ZM154.674 281.867H148.954C149.006 282.578 149.279 283.154 149.773 283.596C150.267 284.029 150.891 284.246 151.645 284.246C152.07 284.246 152.46 284.172 152.815 284.025C153.171 283.869 153.478 283.644 153.738 283.349L154.258 283.947C153.955 284.311 153.574 284.588 153.114 284.779C152.664 284.97 152.165 285.065 151.619 285.065C150.917 285.065 150.293 284.918 149.747 284.623C149.21 284.32 148.79 283.904 148.486 283.375C148.183 282.846 148.031 282.248 148.031 281.581C148.031 280.914 148.174 280.316 148.46 279.787C148.755 279.258 149.154 278.847 149.656 278.552C150.168 278.257 150.74 278.11 151.372 278.11C152.005 278.11 152.573 278.257 153.075 278.552C153.578 278.847 153.972 279.258 154.258 279.787C154.544 280.307 154.687 280.905 154.687 281.581L154.674 281.867ZM151.372 278.903C150.714 278.903 150.159 279.115 149.708 279.54C149.266 279.956 149.015 280.502 148.954 281.178H153.803C153.743 280.502 153.487 279.956 153.036 279.54C152.594 279.115 152.04 278.903 151.372 278.903ZM159.994 278.11C160.635 278.11 161.216 278.257 161.736 278.552C162.256 278.838 162.663 279.245 162.958 279.774C163.252 280.303 163.4 280.905 163.4 281.581C163.4 282.266 163.252 282.872 162.958 283.401C162.663 283.93 162.256 284.341 161.736 284.636C161.224 284.922 160.644 285.065 159.994 285.065C159.439 285.065 158.936 284.952 158.486 284.727C158.044 284.493 157.68 284.155 157.394 283.713V287.522H156.471V278.162H157.355V279.514C157.632 279.063 157.996 278.717 158.447 278.474C158.906 278.231 159.422 278.11 159.994 278.11ZM159.929 284.246C160.405 284.246 160.839 284.138 161.229 283.921C161.619 283.696 161.922 283.379 162.139 282.972C162.364 282.565 162.477 282.101 162.477 281.581C162.477 281.061 162.364 280.602 162.139 280.203C161.922 279.796 161.619 279.479 161.229 279.254C160.839 279.029 160.405 278.916 159.929 278.916C159.443 278.916 159.006 279.029 158.616 279.254C158.234 279.479 157.931 279.796 157.706 280.203C157.489 280.602 157.381 281.061 157.381 281.581C157.381 282.101 157.489 282.565 157.706 282.972C157.931 283.379 158.234 283.696 158.616 283.921C159.006 284.138 159.443 284.246 159.929 284.246ZM169.478 281.464C170.405 281.681 170.869 282.24 170.869 283.141C170.869 283.739 170.648 284.198 170.206 284.519C169.764 284.84 169.105 285 168.23 285H165.123V278.162H168.139C168.919 278.162 169.53 278.314 169.972 278.617C170.414 278.92 170.635 279.354 170.635 279.917C170.635 280.29 170.531 280.61 170.323 280.879C170.123 281.139 169.842 281.334 169.478 281.464ZM166.02 281.204H168.074C168.602 281.204 169.005 281.104 169.283 280.905C169.569 280.706 169.712 280.415 169.712 280.034C169.712 279.653 169.569 279.367 169.283 279.176C169.005 278.985 168.602 278.89 168.074 278.89H166.02V281.204ZM168.191 284.272C168.78 284.272 169.222 284.177 169.517 283.986C169.811 283.795 169.959 283.496 169.959 283.089C169.959 282.682 169.824 282.383 169.556 282.192C169.287 281.993 168.862 281.893 168.282 281.893H166.02V284.272H168.191ZM175.593 285.065C174.934 285.065 174.34 284.918 173.812 284.623C173.283 284.32 172.867 283.904 172.564 283.375C172.26 282.846 172.109 282.248 172.109 281.581C172.109 280.914 172.26 280.316 172.564 279.787C172.867 279.258 173.283 278.847 173.812 278.552C174.34 278.257 174.934 278.11 175.593 278.11C176.251 278.11 176.845 278.257 177.374 278.552C177.902 278.847 178.314 279.258 178.609 279.787C178.912 280.316 179.064 280.914 179.064 281.581C179.064 282.248 178.912 282.846 178.609 283.375C178.314 283.904 177.902 284.32 177.374 284.623C176.845 284.918 176.251 285.065 175.593 285.065ZM175.593 284.246C176.078 284.246 176.511 284.138 176.893 283.921C177.283 283.696 177.586 283.379 177.803 282.972C178.019 282.565 178.128 282.101 178.128 281.581C178.128 281.061 178.019 280.597 177.803 280.19C177.586 279.783 177.283 279.471 176.893 279.254C176.511 279.029 176.078 278.916 175.593 278.916C175.107 278.916 174.67 279.029 174.28 279.254C173.898 279.471 173.595 279.783 173.37 280.19C173.153 280.597 173.045 281.061 173.045 281.581C173.045 282.101 173.153 282.565 173.37 282.972C173.595 283.379 173.898 283.696 174.28 283.921C174.67 284.138 175.107 284.246 175.593 284.246ZM185.612 278.981H181.699V285H180.776V278.162H185.612V278.981ZM189.19 285.065C188.531 285.065 187.938 284.918 187.409 284.623C186.88 284.32 186.464 283.904 186.161 283.375C185.858 282.846 185.706 282.248 185.706 281.581C185.706 280.914 185.858 280.316 186.161 279.787C186.464 279.258 186.88 278.847 187.409 278.552C187.938 278.257 188.531 278.11 189.19 278.11C189.849 278.11 190.442 278.257 190.971 278.552C191.5 278.847 191.911 279.258 192.206 279.787C192.509 280.316 192.661 280.914 192.661 281.581C192.661 282.248 192.509 282.846 192.206 283.375C191.911 283.904 191.5 284.32 190.971 284.623C190.442 284.918 189.849 285.065 189.19 285.065ZM189.19 284.246C189.675 284.246 190.109 284.138 190.49 283.921C190.88 283.696 191.183 283.379 191.4 282.972C191.617 282.565 191.725 282.101 191.725 281.581C191.725 281.061 191.617 280.597 191.4 280.19C191.183 279.783 190.88 279.471 190.49 279.254C190.109 279.029 189.675 278.916 189.19 278.916C188.705 278.916 188.267 279.029 187.877 279.254C187.496 279.471 187.192 279.783 186.967 280.19C186.75 280.597 186.642 281.061 186.642 281.581C186.642 282.101 186.75 282.565 186.967 282.972C187.192 283.379 187.496 283.696 187.877 283.921C188.267 284.138 188.705 284.246 189.19 284.246ZM199.375 278.11C200.06 278.11 200.675 278.262 201.221 278.565C201.776 278.86 202.209 279.271 202.521 279.8C202.842 280.329 203.002 280.922 203.002 281.581C203.002 282.24 202.842 282.838 202.521 283.375C202.209 283.904 201.776 284.32 201.221 284.623C200.675 284.926 200.06 285.078 199.375 285.078C198.803 285.078 198.279 284.991 197.802 284.818C197.325 284.636 196.922 284.376 196.593 284.038L197.139 283.492C197.72 284.038 198.452 284.311 199.336 284.311C199.83 284.311 200.276 284.207 200.675 283.999C201.082 283.791 201.412 283.501 201.663 283.128C201.923 282.755 202.075 282.339 202.118 281.88H198.465V281.178H202.105C202.01 280.493 201.706 279.939 201.195 279.514C200.684 279.081 200.064 278.864 199.336 278.864C198.452 278.864 197.72 279.137 197.139 279.683L196.593 279.15C196.922 278.812 197.325 278.556 197.802 278.383C198.279 278.201 198.803 278.11 199.375 278.11ZM209.239 278.981H206.652V285H205.729V278.981H203.142V278.162H209.239V278.981ZM212.666 278.11C213.559 278.11 214.244 278.335 214.72 278.786C215.197 279.228 215.435 279.887 215.435 280.762V285H214.551V283.934C214.343 284.289 214.036 284.567 213.628 284.766C213.23 284.965 212.753 285.065 212.198 285.065C211.436 285.065 210.829 284.883 210.378 284.519C209.928 284.155 209.702 283.674 209.702 283.076C209.702 282.495 209.91 282.027 210.326 281.672C210.751 281.317 211.423 281.139 212.341 281.139H214.512V280.723C214.512 280.134 214.348 279.687 214.018 279.384C213.689 279.072 213.208 278.916 212.575 278.916C212.142 278.916 211.726 278.99 211.327 279.137C210.929 279.276 210.586 279.471 210.3 279.722L209.884 279.033C210.231 278.738 210.647 278.513 211.132 278.357C211.618 278.192 212.129 278.11 212.666 278.11ZM212.341 284.337C212.861 284.337 213.308 284.22 213.68 283.986C214.053 283.743 214.33 283.397 214.512 282.946V281.828H212.367C211.197 281.828 210.612 282.235 210.612 283.05C210.612 283.449 210.764 283.765 211.067 283.999C211.371 284.224 211.795 284.337 212.341 284.337ZM223.625 281.958H222.143V285H221.22V281.958H219.738L217.645 285H216.54L218.997 281.477L216.735 278.162H217.736L219.738 281.165H221.22V278.162H222.143V281.165H223.625L225.64 278.162H226.641L224.379 281.49L226.836 285H225.731L223.625 281.958ZM230.339 278.11C231.231 278.11 231.916 278.335 232.393 278.786C232.869 279.228 233.108 279.887 233.108 280.762V285H232.224V283.934C232.016 284.289 231.708 284.567 231.301 284.766C230.902 284.965 230.425 285.065 229.871 285.065C229.108 285.065 228.501 284.883 228.051 284.519C227.6 284.155 227.375 283.674 227.375 283.076C227.375 282.495 227.583 282.027 227.999 281.672C228.423 281.317 229.095 281.139 230.014 281.139H232.185V280.723C232.185 280.134 232.02 279.687 231.691 279.384C231.361 279.072 230.88 278.916 230.248 278.916C229.814 278.916 229.398 278.99 229 279.137C228.601 279.276 228.259 279.471 227.973 279.722L227.557 279.033C227.903 278.738 228.319 278.513 228.805 278.357C229.29 278.192 229.801 278.11 230.339 278.11ZM230.014 284.337C230.534 284.337 230.98 284.22 231.353 283.986C231.725 283.743 232.003 283.397 232.185 282.946V281.828H230.04C228.87 281.828 228.285 282.235 228.285 283.05C228.285 283.449 228.436 283.765 228.74 283.999C229.043 284.224 229.468 284.337 230.014 284.337ZM235.37 285.065C235.179 285.065 235.015 284.996 234.876 284.857C234.746 284.718 234.681 284.549 234.681 284.35C234.681 284.151 234.746 283.986 234.876 283.856C235.015 283.717 235.179 283.648 235.37 283.648C235.561 283.648 235.725 283.717 235.864 283.856C236.003 283.986 236.072 284.151 236.072 284.35C236.072 284.549 236.003 284.718 235.864 284.857C235.725 284.996 235.561 285.065 235.37 285.065Z" fill="#00229A"/>
</svg>
