<svg width="328" height="328" viewBox="0 0 328 328" fill="none" xmlns="http://www.w3.org/2000/svg">
<path d="M67.64 207.43H130.4V149.68H127.34C126.277 151.373 124.802 152.769 123.054 153.738C121.305 154.707 119.339 155.217 117.34 155.22H80.7C77.5607 155.217 74.5507 153.969 72.3308 151.749C70.1109 149.529 68.8627 146.519 68.86 143.38V142.43C68.8653 139.291 70.1144 136.283 72.3337 134.064C74.553 131.844 77.5615 130.595 80.7 130.59H117.34C119.339 130.593 121.305 131.103 123.054 132.072C124.802 133.041 126.277 134.437 127.34 136.13H130.4V73.21H67.64V207.43ZM81.17 79.17H116.87C120.135 79.17 123.266 80.4669 125.575 82.7755C127.883 85.0841 129.18 88.2151 129.18 91.48C129.18 94.7448 127.883 97.8759 125.575 100.184C123.266 102.493 120.135 103.79 116.87 103.79H81.17C77.9052 103.79 74.7741 102.493 72.4655 100.184C70.157 97.8759 68.86 94.7448 68.86 91.48C68.86 88.2151 70.157 85.0841 72.4655 82.7755C74.7741 80.4669 77.9052 79.17 81.17 79.17ZM68.86 116.72C68.8653 113.581 70.1144 110.573 72.3337 108.354C74.553 106.134 77.5615 104.885 80.7 104.88H87.7C90.2401 104.893 92.709 105.721 94.7433 107.242C96.7776 108.763 98.2697 110.897 99 113.33C99.7323 110.891 101.23 108.752 103.273 107.23C105.315 105.708 107.793 104.884 110.34 104.88H117.34C120.479 104.885 123.487 106.134 125.706 108.354C127.926 110.573 129.175 113.581 129.18 116.72V117.72C129.175 120.858 127.925 123.865 125.706 126.083C123.486 128.3 120.478 129.547 117.34 129.55H110.34C107.786 129.546 105.302 128.716 103.258 127.184C101.214 125.652 99.7205 123.5 99 121.05C98.2706 123.491 96.7731 125.632 94.7302 127.154C92.6873 128.676 90.2078 129.499 87.66 129.5H80.66C77.5293 129.487 74.5311 128.235 72.3202 126.019C70.1092 123.802 68.8653 120.801 68.86 117.67V116.72ZM68.86 168.14C68.8653 165.002 70.1147 161.995 72.3343 159.777C74.5539 157.56 77.5624 156.313 80.7 156.31H87.7C90.2401 156.323 92.709 157.151 94.7433 158.672C96.7776 160.193 98.2697 162.327 99 164.76C99.7323 162.321 101.23 160.182 103.273 158.66C105.315 157.138 107.793 156.314 110.34 156.31H117.34C120.478 156.313 123.486 157.56 125.706 159.777C127.925 161.995 129.175 165.002 129.18 168.14V169.14C129.177 172.279 127.929 175.289 125.709 177.509C123.489 179.729 120.479 180.977 117.34 180.98H110.34C107.787 180.973 105.304 180.141 103.261 178.61C101.218 177.079 99.7234 174.929 99 172.48C98.2677 174.919 96.7696 177.058 94.7273 178.58C92.6849 180.102 90.207 180.926 87.66 180.93H80.66C77.5207 180.927 74.5107 179.679 72.2908 177.459C70.0709 175.239 68.8227 172.229 68.82 169.09L68.86 168.14ZM68.86 193.85C68.86 190.709 70.1071 187.696 72.3273 185.474C74.5474 183.252 77.5589 182.003 80.7 182H117.34C120.478 182.003 123.486 183.25 125.706 185.467C127.925 187.685 129.175 190.692 129.18 193.83V194.83C129.177 197.969 127.929 200.979 125.709 203.199C123.489 205.419 120.479 206.667 117.34 206.67H80.7C79.143 206.669 77.6015 206.361 76.1637 205.763C74.7258 205.166 73.4198 204.291 72.3202 203.189C71.2206 202.086 70.3491 200.778 69.7553 199.339C69.1616 197.899 68.8574 196.357 68.86 194.8V193.85Z" fill="#6071AD"/>
<path d="M67.64 242.26V244.38L73.95 238.07L73.94 235.96L67.64 242.26Z" fill="white"/>
<path d="M67.64 230.92V233.04L73.88 226.8L73.87 224.69L67.64 230.92Z" fill="white"/>
<path d="M67.64 236.59V238.72L73.92 232.44L73.9 230.33L67.64 236.59Z" fill="white"/>
<path d="M67.64 261.39L74.05 254.98L74.04 252.87L67.64 259.27V261.39Z" fill="white"/>
<path d="M67.64 255.72L74.02 249.34L74.01 247.23L67.64 253.6V255.72Z" fill="white"/>
<path d="M67.64 267.06L74.09 260.61L74.07 258.5L67.64 264.94V267.06Z" fill="white"/>
<path d="M18.83 281.86V279.74L13.16 285.4L13.17 287.51L18.83 281.86Z" fill="white"/>
<path d="M67.64 227.38L73.85 221.17L73.84 219.06L67.64 225.25V227.38Z" fill="white"/>
<path d="M73.13 208.43L67.64 213.92V216.04L75.25 208.43H73.13Z" fill="white"/>
<path d="M67.64 208.43V210.37L69.58 208.43H67.64Z" fill="white"/>
<path d="M81.85 307.42H83.97L86.02 305.37V303.25L81.85 307.42Z" fill="white"/>
<path d="M112.81 208.43L106.68 214.56H108.8L114.94 208.43H112.81Z" fill="white"/>
<path d="M90.1401 208.43L84.0701 214.5H86.1801L92.2601 208.43H90.1401Z" fill="white"/>
<path d="M67.64 276.45H69.58L75.82 270.22H74.14V269.78L67.64 276.28V276.45Z" fill="white"/>
<path d="M18.8299 285.4L13.1899 291.04L13.1999 293.15L18.8299 287.53V285.4Z" fill="white"/>
<path d="M67.64 250.05L73.98 243.71L73.97 241.6L67.64 247.93V250.05Z" fill="white"/>
<path d="M17.13 277.88H15.01L8.69995 284.2L10.78 284.24L17.13 277.88Z" fill="white"/>
<path d="M154.04 214.68L158.47 210.24V208.43H158.17L151.92 214.67L154.04 214.68Z" fill="white"/>
<path d="M5.21 284.13L11.46 277.88H9.34L3.13 284.1L5.21 284.13Z" fill="white"/>
<path d="M76.1801 307.42H78.3001L86.0101 299.72L86.0001 297.6L76.1801 307.42Z" fill="white"/>
<path d="M74.11 264.14L67.64 270.61V272.73L74.12 266.25L74.11 264.14Z" fill="white"/>
<path d="M154.62 208.43H152.5L146.27 214.66H148.38L154.62 208.43Z" fill="white"/>
<path d="M142.73 214.65L148.95 208.43H146.83L140.61 214.65H142.73Z" fill="white"/>
<path d="M97.93 208.43H95.81L89.72 214.51L91.84 214.52L97.93 208.43Z" fill="white"/>
<path d="M143.28 208.43H141.16L134.96 214.63H137.07L143.28 208.43Z" fill="white"/>
<path d="M18.83 293.19V291.07L13.22 296.69L13.23 298.8L18.83 293.19Z" fill="white"/>
<path d="M79.37 270.22L73.13 276.45H75.25L81.49 270.22H79.37Z" fill="white"/>
<path d="M157.57 214.69H158.47V213.79L157.57 214.69Z" fill="white"/>
<path d="M78.8 208.43L67.64 219.59V221.71L73.81 215.53V214.47H74.31H74.87L80.92 208.43H78.8Z" fill="white"/>
<path d="M81.0801 281.97L85.9401 277.1V274.99L81.0801 279.85V281.97Z" fill="white"/>
<path d="M103.6 208.43H101.48L95.38 214.53H97.49L103.6 208.43Z" fill="white"/>
<path d="M120.61 208.43H118.48L112.34 214.57L114.45 214.58L120.61 208.43Z" fill="white"/>
<path d="M109.27 208.43H107.14L101.03 214.54L103.14 214.55L109.27 208.43Z" fill="white"/>
<path d="M131.94 208.43H131.4H129.82L123.65 214.6L125.76 214.61L131.94 208.43Z" fill="white"/>
<path d="M126.27 208.43H124.15L117.99 214.59H120.11L126.27 208.43Z" fill="white"/>
<path d="M5.79 277.88H3.67L1 280.56V282.68L5.79 277.88Z" fill="white"/>
<path d="M85.04 270.22L78.8 276.45H80.92L85.93 271.45L85.92 270.22H85.04Z" fill="white"/>
<path d="M86.59 208.43H84.47L78.41 214.48L80.53 214.49L86.59 208.43Z" fill="white"/>
<path d="M56.2 301.17H54.08L47.83 307.42H49.95L56.2 301.17Z" fill="white"/>
<path d="M61.87 301.17H59.75L53.5 307.42H55.62L61.87 301.17Z" fill="white"/>
<path d="M78.88 301.17H76.76L70.51 307.42H72.63L78.88 301.17Z" fill="white"/>
<path d="M50.53 301.17H48.41L42.16 307.42H44.28L50.53 301.17Z" fill="white"/>
<path d="M67.54 301.17H65.42L59.17 307.42H61.29L67.54 301.17Z" fill="white"/>
<path d="M81.0801 285.52V287.64L85.9601 282.76L85.9501 280.64L81.0801 285.52Z" fill="white"/>
<path d="M44.87 301.17H42.74L36.49 307.42H38.61L44.87 301.17Z" fill="white"/>
<path d="M18.83 298.86V296.74L13.24 302.33L13.25 304.44L18.83 298.86Z" fill="white"/>
<path d="M22.1899 301.17H20.0699L13.8199 307.42H15.9399L22.1899 301.17Z" fill="white"/>
<path d="M33.53 301.17H31.41L25.16 307.42H27.28L33.53 301.17Z" fill="white"/>
<path d="M27.86 301.17H25.74L19.49 307.42H21.61L27.86 301.17Z" fill="white"/>
<path d="M39.1999 301.17H37.0799L30.8199 307.42H32.9499L39.1999 301.17Z" fill="white"/>
<path d="M73.21 301.17H71.09L64.84 307.42H66.96L73.21 301.17Z" fill="white"/>
<path d="M81.0801 296.86V298.98L85.9901 294.06L85.9801 291.95L81.0801 296.86Z" fill="white"/>
<path d="M81.0801 291.19V293.31L85.9701 288.41V286.3L81.0801 291.19Z" fill="white"/>
<path d="M131.42 214.62L137.61 208.43H135.49L129.3 214.62H131.42Z" fill="white"/>
<path d="M117.34 183.02H80.7C74.7132 183.02 69.86 187.873 69.86 193.86V194.8C69.86 200.787 74.7132 205.64 80.7 205.64H117.34C123.327 205.64 128.18 200.787 128.18 194.8V193.86C128.18 187.873 123.327 183.02 117.34 183.02Z" fill="#D9DEEE"/>
<path d="M80.7 206.64H117.34C120.479 206.637 123.489 205.389 125.709 203.169C127.929 200.949 129.177 197.939 129.18 194.8V193.8C129.167 190.668 127.914 187.668 125.695 185.457C123.476 183.245 120.472 182.003 117.34 182H80.7C77.5624 182.003 74.5539 183.25 72.3343 185.467C70.1147 187.685 68.8653 190.692 68.86 193.83V194.83C68.8706 197.964 70.1223 200.966 72.3413 203.18C74.5603 205.393 77.5658 206.637 80.7 206.64ZM69.86 193.85C69.86 190.974 71.0017 188.216 73.0343 186.181C75.0669 184.147 77.8241 183.003 80.7 183H117.34C120.212 183.003 122.967 184.144 124.999 186.174C127.031 188.205 128.175 190.958 128.18 193.83V194.83C128.175 197.703 127.031 200.457 124.999 202.489C122.967 204.521 120.213 205.665 117.34 205.67H80.7C77.8215 205.665 75.0628 204.517 73.0302 202.479C70.9976 200.44 69.8573 197.679 69.86 194.8V193.85Z" fill="#00229A"/>
<path d="M126.14 136.13C125.139 134.729 123.819 133.586 122.289 132.796C120.758 132.007 119.062 131.593 117.34 131.59H80.7C77.8267 131.595 75.0725 132.739 73.0408 134.771C71.009 136.802 69.8653 139.557 69.86 142.43V143.38C69.8653 146.253 71.009 149.007 73.0408 151.039C75.0725 153.071 77.8267 154.215 80.7 154.22H117.34C119.062 154.216 120.758 153.803 122.289 153.013C123.819 152.224 125.139 151.081 126.14 149.68H115C114.088 149.715 113.179 149.566 112.327 149.241C111.474 148.916 110.696 148.423 110.038 147.79C109.381 147.158 108.858 146.399 108.501 145.559C108.144 144.72 107.96 143.817 107.96 142.905C107.96 141.993 108.144 141.09 108.501 140.25C108.858 139.411 109.381 138.652 110.038 138.019C110.696 137.387 111.474 136.894 112.327 136.569C113.179 136.244 114.088 136.095 115 136.13H126.14Z" fill="#D9DEEE"/>
<path d="M81.17 102.79H116.87C119.87 102.79 122.746 101.598 124.867 99.4773C126.988 97.3563 128.18 94.4795 128.18 91.4799C128.18 88.4803 126.988 85.6036 124.867 83.4825C122.746 81.3615 119.87 80.1699 116.87 80.1699H81.17C78.1704 80.1699 75.2936 81.3615 73.1726 83.4825C71.0516 85.6036 69.86 88.4803 69.86 91.4799C69.86 94.4795 71.0516 97.3563 73.1726 99.4773C75.2936 101.598 78.1704 102.79 81.17 102.79Z" fill="#D9DEEE"/>
<path d="M81.17 103.79H116.87C120.135 103.79 123.266 102.493 125.574 100.184C127.883 97.8758 129.18 94.7447 129.18 91.4799C129.18 88.2151 127.883 85.084 125.574 82.7754C123.266 80.4669 120.135 79.1699 116.87 79.1699H81.17C77.9052 79.1699 74.7741 80.4669 72.4655 82.7754C70.1569 85.084 68.86 88.2151 68.86 91.4799C68.86 94.7447 70.1569 97.8758 72.4655 100.184C74.7741 102.493 77.9052 103.79 81.17 103.79ZM81.17 80.1699H116.87C119.87 80.1699 122.746 81.3615 124.867 83.4825C126.988 85.6036 128.18 88.4803 128.18 91.4799C128.18 94.4795 126.988 97.3563 124.867 99.4773C122.746 101.598 119.87 102.79 116.87 102.79H81.17C78.1704 102.79 75.2936 101.598 73.1726 99.4773C71.0516 97.3563 69.86 94.4795 69.86 91.4799C69.86 88.4803 71.0516 85.6036 73.1726 83.4825C75.2936 81.3615 78.1704 80.1699 81.17 80.1699Z" fill="#00229A"/>
<path d="M19.83 300.17H80.08V277.87V277.45H66.64V277.44V208.43V207.43V72.7002V72.2002V69.7002V63.0302V56.3602V49.6902V43.0202V41.2002H40.56V79.1702H50.28V97.4902H33.87V269.22V277.45H19.83V300.17Z" fill="white"/>
<path d="M49.28 96.4899V80.1699H40.56H1V96.0499V96.4899H49.28Z" fill="white"/>
<path d="M169.71 214.78H163.24V215.78H169.71V214.78Z" fill="#00229A"/>
<path d="M179.18 214.78H176.18V215.78H179.18V214.78Z" fill="#00229A"/>
<path d="M149.28 263.4H143.9V264.4H149.28V263.4Z" fill="#00229A"/>
<path d="M170.8 263.4H165.42V264.4H170.8V263.4Z" fill="#00229A"/>
<path d="M160.04 263.4H154.66V264.4H160.04V263.4Z" fill="#00229A"/>
<path d="M179.18 263.4H176.18V264.4H179.18V263.4Z" fill="#00229A"/>
<path d="M172.15 216.98V218.42L173.34 217.22V261.97L172.15 260.77V262.21L173.84 263.9L175.54 262.21V260.77L174.34 261.97V217.22L175.54 218.42V216.98L173.84 215.28L172.15 216.98Z" fill="#00229A"/>
<path d="M68.83 27.8602H70.27L69.08 26.6702H128.96L127.76 27.8602H129.2L130.9 26.1702L129.2 24.4702H127.76L128.96 25.6702H69.08L70.27 24.4702H68.83L67.14 26.1702L68.83 27.8602Z" fill="#00229A"/>
<path d="M87.68 157.31H80.7C74.7132 157.31 69.86 162.163 69.86 168.15V169.09C69.86 175.077 74.7132 179.93 80.7 179.93H87.68C93.6668 179.93 98.52 175.077 98.52 169.09V168.15C98.52 162.163 93.6668 157.31 87.68 157.31Z" fill="#D9DEEE"/>
<path d="M80.7001 180.93H87.7001C90.2402 180.917 92.7091 180.089 94.7434 178.568C96.7776 177.047 98.2698 174.913 99.0001 172.48C99.7324 174.919 101.231 177.058 103.273 178.58C105.315 180.102 107.793 180.926 110.34 180.93H117.34C120.479 180.927 123.489 179.679 125.709 177.459C127.929 175.239 129.177 172.229 129.18 169.09V168.09C129.175 164.952 127.925 161.945 125.706 159.727C123.486 157.509 120.478 156.262 117.34 156.26H110.34C107.787 156.267 105.304 157.098 103.261 158.63C101.218 160.161 99.7234 162.311 99.0001 164.76C98.2678 162.32 96.7696 160.181 94.7273 158.66C92.685 157.138 90.207 156.314 87.6601 156.31H80.6601C77.5225 156.312 74.514 157.559 72.2944 159.777C70.0748 161.995 68.8254 165.002 68.8201 168.14V169.14C68.8359 172.277 70.0956 175.281 72.3226 177.491C74.5497 179.701 77.5624 180.938 80.7001 180.93ZM69.8601 168.14C69.8654 165.267 71.0094 162.514 73.0415 160.484C75.0735 158.454 77.8277 157.312 80.7001 157.31H87.7001C90.5725 157.312 93.3266 158.454 95.3587 160.484C97.3907 162.514 98.5348 165.267 98.5401 168.14V169.14C98.5348 172.013 97.391 174.767 95.3593 176.799C93.3275 178.831 90.5734 179.974 87.7001 179.98H80.7001C77.8267 179.974 75.0726 178.831 73.0409 176.799C71.0091 174.767 69.8654 172.013 69.8601 169.14V168.14ZM99.5201 168.14C99.5254 165.267 100.669 162.514 102.701 160.484C104.734 158.454 107.488 157.312 110.36 157.31H117.36C120.232 157.312 122.987 158.454 125.019 160.484C127.051 162.514 128.195 165.267 128.2 168.14V169.14C128.195 172.013 127.051 174.767 125.019 176.799C122.988 178.831 120.233 179.974 117.36 179.98H110.36C107.487 179.974 104.733 178.831 102.701 176.799C100.669 174.767 99.5254 172.013 99.5201 169.14V168.14Z" fill="#00229A"/>
<path d="M117.34 157.31H110.36C104.373 157.31 99.52 162.163 99.52 168.15V169.09C99.52 175.077 104.373 179.93 110.36 179.93H117.34C123.327 179.93 128.18 175.077 128.18 169.09V168.15C128.18 162.163 123.327 157.31 117.34 157.31Z" fill="#D9DEEE"/>
<path d="M87.68 105.88H80.7C74.7132 105.88 69.86 110.733 69.86 116.72V117.66C69.86 123.647 74.7132 128.5 80.7 128.5H87.68C93.6668 128.5 98.52 123.647 98.52 117.66V116.72C98.52 110.733 93.6668 105.88 87.68 105.88Z" fill="#D9DEEE"/>
<path d="M80.7 129.5H87.7C90.2409 129.491 92.7113 128.664 94.7462 127.142C96.7811 125.621 98.2725 123.485 99 121.05C99.7294 123.491 101.227 125.632 103.27 127.154C105.313 128.676 107.792 129.499 110.34 129.5H117.34C120.478 129.497 123.486 128.251 125.706 126.033C127.925 123.815 129.175 120.808 129.18 117.67V116.67C129.175 113.532 127.926 110.523 125.706 108.304C123.487 106.084 120.479 104.835 117.34 104.83H110.34C107.787 104.837 105.304 105.669 103.261 107.2C101.218 108.731 99.7233 110.881 99 113.33C98.2677 110.891 96.7695 108.752 94.7272 107.23C92.6849 105.708 90.2069 104.884 87.66 104.88H80.66C77.5284 104.896 74.5302 106.15 72.3195 108.368C70.1089 110.586 68.8652 113.588 68.86 116.72V117.72C68.8785 120.849 70.1337 123.844 72.3519 126.051C74.57 128.257 77.571 129.497 80.7 129.5ZM69.86 116.72C69.8653 113.847 71.009 111.093 73.0408 109.061C75.0725 107.029 77.8267 105.885 80.7 105.88H87.7C90.5698 105.891 93.3188 107.037 95.3463 109.068C97.3737 111.099 98.5147 113.85 98.52 116.72V117.72C98.5015 120.584 97.3516 123.324 95.321 125.343C93.2904 127.363 90.5438 128.497 87.68 128.5H80.68C77.811 128.492 75.062 127.348 73.0343 125.319C71.0066 123.289 69.8653 120.539 69.86 117.67V116.72ZM99.52 116.72C99.5253 113.847 100.669 111.093 102.701 109.061C104.733 107.029 107.487 105.885 110.36 105.88H117.36C120.233 105.885 122.987 107.029 125.019 109.061C127.051 111.093 128.195 113.847 128.2 116.72V117.72C128.195 120.592 127.051 123.346 125.019 125.376C122.987 127.406 120.232 128.547 117.36 128.55H110.36C108.933 128.549 107.521 128.266 106.204 127.718C104.887 127.171 103.691 126.369 102.684 125.358C101.677 124.347 100.879 123.148 100.336 121.829C99.7934 120.51 99.516 119.097 99.52 117.67V116.72Z" fill="#00229A"/>
<path d="M117.34 105.88H110.36C104.373 105.88 99.52 110.733 99.52 116.72V117.66C99.52 123.647 104.373 128.5 110.36 128.5H117.34C123.327 128.5 128.18 123.647 128.18 117.66V116.72C128.18 110.733 123.327 105.88 117.34 105.88Z" fill="#D9DEEE"/>
<path d="M67.64 29.6699H66.64V36.3399H67.64V29.6699Z" fill="#00229A"/>
<path d="M67.64 20H66.64V23H67.64V20Z" fill="#00229A"/>
<path d="M131.4 56.3599H130.4V63.0299H131.4V56.3599Z" fill="#00229A"/>
<path d="M131.4 43.02H130.4V49.69H131.4V43.02Z" fill="#00229A"/>
<path d="M131.4 29.6699H130.4V36.3399H131.4V29.6699Z" fill="#00229A"/>
<path d="M131.4 20H130.4V23H131.4V20Z" fill="#00229A"/>
<path d="M113.55 143.41L114.74 144.6H113.3L111.61 142.91L113.3 141.21H114.74L113.55 142.41H140.82V136.63V137.13H115C114.221 137.097 113.444 137.223 112.715 137.498C111.986 137.774 111.321 138.194 110.758 138.734C110.196 139.273 109.749 139.921 109.443 140.638C109.137 141.354 108.98 142.126 108.98 142.905C108.98 143.684 109.137 144.455 109.443 145.172C109.749 145.889 110.196 146.537 110.758 147.076C111.321 147.616 111.986 148.036 112.715 148.311C113.444 148.587 114.221 148.712 115 148.68H140.86V149.18V143.41H113.55Z" fill="#F7F8FC"/>
<path d="M115 148.68C114.221 148.712 113.444 148.587 112.715 148.311C111.986 148.036 111.321 147.616 110.758 147.076C110.196 146.537 109.749 145.889 109.443 145.172C109.137 144.455 108.98 143.684 108.98 142.905C108.98 142.126 109.137 141.354 109.443 140.638C109.749 139.921 110.196 139.273 110.758 138.734C111.321 138.194 111.986 137.774 112.715 137.499C113.444 137.223 114.221 137.098 115 137.13H140.86V136.13H140.68V86.44H140.85V85.44C140.071 85.4724 139.294 85.347 138.565 85.0714C137.836 84.7958 137.171 84.3756 136.608 83.8362C136.046 83.2967 135.599 82.6491 135.293 81.9323C134.987 81.2155 134.83 80.4442 134.83 79.665C134.83 78.8857 134.987 78.1145 135.293 77.3976C135.599 76.6808 136.046 76.0332 136.608 75.4938C137.171 74.9543 137.836 74.5342 138.565 74.2585C139.294 73.9829 140.071 73.8576 140.85 73.89V72.89H140.68V65.68H130.4V72.21H67.64V40.21H39.56V79.21H0V97.49H32.87V269.22H0V285L12.16 285.22L12.27 308.38H87L86.89 269.18H75.14L74.81 215.43L130.4 215.58V252.58L135.52 263.9V264.39H138.52V263.39H135.75L140.64 252.58V215.58H140.82V215.71H143.82V215.58H150.29V215.69H156.76V215.6H159.47V207.34H140.64V149.68H140.82V148.68H115ZM158.51 208.43V210.24L154 214.68H151.88L158.13 208.44L158.51 208.43ZM33.87 269.22V97.49H50.28V79.17H40.56V41.17H66.64V277.44H80.08V300.16H19.83V277.45H33.83L33.87 269.22ZM1 96.05V80.17H49.28V96.49H1V96.05ZM130.4 136.13H127.34C126.277 134.437 124.802 133.041 123.054 132.072C121.305 131.103 119.339 130.593 117.34 130.59H80.7C77.5615 130.595 74.553 131.844 72.3337 134.064C70.1144 136.283 68.8653 139.291 68.86 142.43V143.38C68.8626 146.519 70.1109 149.529 72.3308 151.749C74.5506 153.969 77.5606 155.217 80.7 155.22H117.34C119.339 155.217 121.305 154.707 123.054 153.738C124.802 152.769 126.277 151.373 127.34 149.68H130.4V207.43H67.64V73.21H130.4V136.13ZM108.18 142.91C108.183 144.706 108.898 146.428 110.169 147.698C111.441 148.967 113.164 149.68 114.96 149.68H126.14C125.139 151.081 123.819 152.224 122.289 153.013C120.758 153.803 119.062 154.217 117.34 154.22H80.7C77.8267 154.215 75.0725 153.071 73.0408 151.039C71.0091 149.007 69.8653 146.253 69.86 143.38V142.43C69.8653 139.557 71.0091 136.803 73.0408 134.771C75.0725 132.739 77.8267 131.595 80.7 131.59H117.34C119.062 131.593 120.758 132.007 122.289 132.796C123.819 133.586 125.139 134.729 126.14 136.13H115C114.107 136.126 113.221 136.298 112.395 136.637C111.568 136.976 110.816 137.475 110.183 138.105C109.549 138.734 109.046 139.483 108.703 140.308C108.359 141.132 108.181 142.017 108.18 142.91ZM106.68 214.56L112.81 208.43H114.94L108.8 214.56H106.68ZM84.07 214.5L90.14 208.43H92.26L86.18 214.5H84.07ZM74.14 270.22H75.82L69.59 276.45H67.59V276.28L74.09 269.78L74.14 270.22ZM84 307.42H81.85L86 303.25V305.37L84 307.42ZM78.33 307.42H76.18L86 297.6V299.72L78.33 307.42ZM11.46 277.88L5.21 284.13H3.13L9.34 277.91L11.46 277.88ZM15.01 277.88H17.13L10.78 284.24H8.7L15.01 277.88ZM74.01 243.71L67.67 250.05V247.93L74 241.6L74.01 243.71ZM74.01 249.34L67.63 255.72V253.6L74 247.23L74.01 249.34ZM74.01 254.98L67.6 261.39V259.27L74 252.87L74.01 254.98ZM74.01 260.61L67.56 267.06V264.94L73.99 258.5L74.01 260.61ZM67.56 270.61L74.03 264.14V266.25L67.55 272.73L67.56 270.61ZM67.56 244.38V242.26L73.86 235.96V238.07L67.56 244.38ZM67.56 238.71V236.59L73.82 230.33V232.44L67.56 238.71ZM67.56 233.05V230.92L73.79 224.69V226.8L67.56 233.05ZM73.77 221.17L67.56 227.38V225.25L73.76 219.06L73.77 221.17ZM67.56 208.43H69.5L67.56 210.37V208.43ZM67.56 213.92L73.05 208.43H75.17L67.64 216L67.56 213.92ZM18.83 279.74V281.86L13.17 287.51V285.4L18.83 279.74ZM13.19 291L18.83 285.36V287.49L13.2 293.11L13.19 291ZM18.83 291V293.13L13.23 298.73V296.62L18.83 291ZM18.83 296.67V298.79L13.25 304.37V302.26L18.83 296.67ZM20.07 301.1H22.19L15.94 307.35H13.82L20.07 301.1ZM25.74 301.1H27.86L21.61 307.35H19.49L25.74 301.1ZM31.41 301.1H33.53L27.28 307.35H25.15L31.41 301.1ZM37.07 301.1H39.2L33 307.42H30.82L37.07 301.1ZM42.74 301.1H44.87L38.61 307.35H36.49L42.74 301.1ZM48.41 301.1H50.53L44.28 307.35H42.16L48.41 301.1ZM54.08 301.1H56.2L50 307.42H47.83L54.08 301.1ZM59.75 301.1H61.87L55.62 307.35H53.5L59.75 301.1ZM65.42 301.1H67.54L61.29 307.35H59.17L65.42 301.1ZM71.09 301.1H73.21L67 307.42H64.84L71.09 301.1ZM76.76 301.1H78.88L72.63 307.35H70.51L76.76 301.1ZM81.08 299V296.88L86 292V294.11L81.08 299ZM81.08 293.33V291.21L85.97 286.31V288.43L81.08 293.33ZM81.08 287.66V285.54L86 280.64V282.76L81.08 287.66ZM85.94 277.12L81.08 282V279.88L85.94 275V277.12ZM73.13 276.47L79.37 270.24H81.49L75.25 276.47H73.13ZM74.31 214.47H73.81V215.53L67.64 221.71V219.59L78.8 208.43H80.92L74.92 214.43L74.31 214.47ZM84.47 208.47H86.59L80.53 214.53H78.41L84.47 208.47ZM95.81 208.47H97.93L91.84 214.56H89.72L95.81 208.47ZM101.48 208.47H103.6L97.49 214.57H95.38L101.48 208.47ZM107.15 208.47H109.27L103.15 214.59H101L107.15 208.47ZM118.48 208.47H120.61L114.45 214.62H112.34L118.48 208.47ZM124.15 208.47H126.27L120.11 214.63H118L124.15 208.47ZM129.82 208.47H131.94L125.76 214.65H123.65L129.82 208.47ZM3.67 277.88H5.79L1 282.68V280.55L3.67 277.88ZM80.92 276.45H78.8L85 270.22H85.88V271.45L80.92 276.45ZM135.49 208.45H137.61L131.42 214.64H129.3L135.49 208.45ZM137.07 214.66H135L141.2 208.46H143.32L137.07 214.66ZM146.83 208.45H149L142.78 214.67H140.66L146.83 208.45ZM152.5 208.45H154.62L148.38 214.69H146.27L152.5 208.45ZM157.58 214.71L158.47 213.81V214.71H157.58ZM137.64 68.71V73.71C136.544 74.2828 135.626 75.1448 134.985 76.2025C134.344 77.2603 134.006 78.4733 134.006 79.71C134.006 80.9466 134.344 82.1596 134.985 83.2174C135.626 84.2751 136.544 85.1372 137.64 85.71V136.18H133.4V68.68L137.64 68.71ZM137.64 251.98L135.52 256.66L133.4 252V215.63H137.64V251.98ZM137.64 207.46H133.4V149.68H137.64V207.46Z" fill="#00229A"/>
<path d="M159.47 142.41H140.82H113.55L114.74 141.21H113.3L111.61 142.91L113.3 144.6H114.74L113.55 143.41H140.82H159.47V142.41Z" fill="#00229A"/>
<path d="M135 79.67C135 81.2029 135.609 82.6731 136.693 83.7571C137.777 84.841 139.247 85.45 140.78 85.45V80.17H139.4L140.59 81.37H139.15L137.46 79.67L139.15 78H140.59L139.4 79.19H140.81V73.9C140.049 73.896 139.295 74.0423 138.591 74.3304C137.887 74.6184 137.247 75.0427 136.707 75.5787C136.167 76.1148 135.739 76.7521 135.446 77.4542C135.153 78.1563 135.001 78.9092 135 79.67Z" fill="#F7F8FC"/>
<path d="M139.4 79.17L140.59 77.98H139.15L137.46 79.67L139.15 81.37H140.59L139.4 80.17H140.81H159.47V79.17H140.81H139.4Z" fill="#00229A"/>
<path d="M88.472 11.9V12.563L84.663 21H83.649L87.393 12.732H82.713V14.435H81.79V11.9H88.472ZM91.5961 15.631C92.9134 15.631 93.8711 15.8693 94.4691 16.346C95.0757 16.814 95.3791 17.4727 95.3791 18.322C95.3791 18.8507 95.2534 19.323 95.0021 19.739C94.7594 20.155 94.3911 20.4843 93.8971 20.727C93.4031 20.961 92.7964 21.078 92.0771 21.078C91.4271 21.078 90.8074 20.974 90.2181 20.766C89.6374 20.5493 89.1694 20.2633 88.8141 19.908L89.2691 19.167C89.5724 19.479 89.9711 19.7347 90.4651 19.934C90.9591 20.1247 91.4921 20.22 92.0641 20.22C92.8181 20.22 93.3987 20.051 93.8061 19.713C94.2221 19.375 94.4301 18.9243 94.4301 18.361C94.4301 17.737 94.1961 17.2647 93.7281 16.944C93.2687 16.6233 92.4887 16.463 91.3881 16.463H89.4511L89.9191 11.9H94.8981V12.732H90.7381L90.4261 15.631H91.5961ZM102.895 21.065C102.219 21.065 101.612 20.9177 101.075 20.623C100.546 20.3283 100.13 19.9167 99.8267 19.388C99.5234 18.8507 99.3717 18.2483 99.3717 17.581C99.3717 16.9137 99.5234 16.3157 99.8267 15.787C100.13 15.2583 100.546 14.8467 101.075 14.552C101.612 14.2573 102.219 14.11 102.895 14.11C103.484 14.11 104.008 14.227 104.468 14.461C104.936 14.6863 105.304 15.02 105.573 15.462L104.884 15.93C104.658 15.592 104.372 15.3407 104.026 15.176C103.679 15.0027 103.302 14.916 102.895 14.916C102.401 14.916 101.954 15.0287 101.556 15.254C101.166 15.4707 100.858 15.7827 100.633 16.19C100.416 16.5973 100.308 17.061 100.308 17.581C100.308 18.1097 100.416 18.5777 100.633 18.985C100.858 19.3837 101.166 19.6957 101.556 19.921C101.954 20.1377 102.401 20.246 102.895 20.246C103.302 20.246 103.679 20.1637 104.026 19.999C104.372 19.8343 104.658 19.583 104.884 19.245L105.573 19.713C105.304 20.155 104.936 20.493 104.468 20.727C104 20.9523 103.475 21.065 102.895 21.065ZM115.654 14.11C116.512 14.11 117.184 14.357 117.669 14.851C118.163 15.345 118.41 16.073 118.41 17.035V21H117.487V17.126C117.487 16.4153 117.314 15.8737 116.967 15.501C116.629 15.1283 116.148 14.942 115.524 14.942C114.813 14.942 114.254 15.163 113.847 15.605C113.44 16.0383 113.236 16.6407 113.236 17.412V21H112.313V17.126C112.313 16.4153 112.14 15.8737 111.793 15.501C111.455 15.1283 110.97 14.942 110.337 14.942C109.635 14.942 109.076 15.163 108.66 15.605C108.253 16.0383 108.049 16.6407 108.049 17.412V21H107.126V14.162H108.01V15.41C108.253 14.994 108.591 14.6733 109.024 14.448C109.457 14.2227 109.956 14.11 110.519 14.11C111.091 14.11 111.585 14.2313 112.001 14.474C112.426 14.7167 112.742 15.0763 112.95 15.553C113.201 15.1023 113.561 14.7513 114.029 14.5C114.506 14.24 115.047 14.11 115.654 14.11Z" fill="#00229A"/>
<path d="M182.068 237.631C183.385 237.631 184.343 237.869 184.941 238.346C185.548 238.814 185.851 239.473 185.851 240.322C185.851 240.851 185.725 241.323 185.474 241.739C185.231 242.155 184.863 242.484 184.369 242.727C183.875 242.961 183.268 243.078 182.549 243.078C181.899 243.078 181.279 242.974 180.69 242.766C180.109 242.549 179.641 242.263 179.286 241.908L179.741 241.167C180.044 241.479 180.443 241.735 180.937 241.934C181.431 242.125 181.964 242.22 182.536 242.22C183.29 242.22 183.871 242.051 184.278 241.713C184.694 241.375 184.902 240.924 184.902 240.361C184.902 239.737 184.668 239.265 184.2 238.944C183.741 238.623 182.961 238.463 181.86 238.463H179.923L180.391 233.9H185.37V234.732H181.21L180.898 237.631H182.068ZM190.406 243.078C189.704 243.078 189.076 242.892 188.521 242.519C187.975 242.146 187.546 241.613 187.234 240.92C186.931 240.218 186.779 239.395 186.779 238.45C186.779 237.505 186.931 236.686 187.234 235.993C187.546 235.291 187.975 234.754 188.521 234.381C189.076 234.008 189.704 233.822 190.406 233.822C191.108 233.822 191.732 234.008 192.278 234.381C192.833 234.754 193.266 235.291 193.578 235.993C193.89 236.686 194.046 237.505 194.046 238.45C194.046 239.395 193.89 240.218 193.578 240.92C193.266 241.613 192.833 242.146 192.278 242.519C191.732 242.892 191.108 243.078 190.406 243.078ZM190.406 242.22C190.935 242.22 191.399 242.073 191.797 241.778C192.205 241.483 192.521 241.054 192.746 240.491C192.972 239.928 193.084 239.247 193.084 238.45C193.084 237.653 192.972 236.972 192.746 236.409C192.521 235.846 192.205 235.417 191.797 235.122C191.399 234.827 190.935 234.68 190.406 234.68C189.878 234.68 189.41 234.827 189.002 235.122C188.604 235.417 188.292 235.846 188.066 236.409C187.841 236.972 187.728 237.653 187.728 238.45C187.728 239.247 187.841 239.928 188.066 240.491C188.292 241.054 188.604 241.483 189.002 241.778C189.41 242.073 189.878 242.22 190.406 242.22ZM201.714 243.065C201.038 243.065 200.431 242.918 199.894 242.623C199.365 242.328 198.949 241.917 198.646 241.388C198.343 240.851 198.191 240.248 198.191 239.581C198.191 238.914 198.343 238.316 198.646 237.787C198.949 237.258 199.365 236.847 199.894 236.552C200.431 236.257 201.038 236.11 201.714 236.11C202.303 236.11 202.828 236.227 203.287 236.461C203.755 236.686 204.123 237.02 204.392 237.462L203.703 237.93C203.478 237.592 203.192 237.341 202.845 237.176C202.498 237.003 202.121 236.916 201.714 236.916C201.22 236.916 200.774 237.029 200.375 237.254C199.985 237.471 199.677 237.783 199.452 238.19C199.235 238.597 199.127 239.061 199.127 239.581C199.127 240.11 199.235 240.578 199.452 240.985C199.677 241.384 199.985 241.696 200.375 241.921C200.774 242.138 201.22 242.246 201.714 242.246C202.121 242.246 202.498 242.164 202.845 241.999C203.192 241.834 203.478 241.583 203.703 241.245L204.392 241.713C204.123 242.155 203.755 242.493 203.287 242.727C202.819 242.952 202.295 243.065 201.714 243.065ZM214.473 236.11C215.331 236.11 216.003 236.357 216.488 236.851C216.982 237.345 217.229 238.073 217.229 239.035V243H216.306V239.126C216.306 238.415 216.133 237.874 215.786 237.501C215.448 237.128 214.967 236.942 214.343 236.942C213.633 236.942 213.074 237.163 212.666 237.605C212.259 238.038 212.055 238.641 212.055 239.412V243H211.132V239.126C211.132 238.415 210.959 237.874 210.612 237.501C210.274 237.128 209.789 236.942 209.156 236.942C208.454 236.942 207.895 237.163 207.479 237.605C207.072 238.038 206.868 238.641 206.868 239.412V243H205.945V236.162H206.829V237.41C207.072 236.994 207.41 236.673 207.843 236.448C208.277 236.223 208.775 236.11 209.338 236.11C209.91 236.11 210.404 236.231 210.82 236.474C211.245 236.717 211.561 237.076 211.769 237.553C212.021 237.102 212.38 236.751 212.848 236.5C213.325 236.24 213.867 236.11 214.473 236.11Z" fill="#00229A"/>
<path d="M167.55 79.827H165.47V84H164.534V74.9H165.47V78.982H167.55L170.631 74.9H171.671L168.291 79.32L171.866 84H170.761L167.55 79.827ZM176.577 77.11C177.218 77.11 177.799 77.2573 178.319 77.552C178.839 77.838 179.246 78.2453 179.541 78.774C179.836 79.3027 179.983 79.905 179.983 80.581C179.983 81.2657 179.836 81.8723 179.541 82.401C179.246 82.9297 178.839 83.3413 178.319 83.636C177.808 83.922 177.227 84.065 176.577 84.065C176.022 84.065 175.52 83.9523 175.069 83.727C174.627 83.493 174.263 83.155 173.977 82.713V86.522H173.054V77.162H173.938V78.514C174.215 78.0633 174.579 77.7167 175.03 77.474C175.489 77.2313 176.005 77.11 176.577 77.11ZM176.512 83.246C176.989 83.246 177.422 83.1377 177.812 82.921C178.202 82.6957 178.505 82.3793 178.722 81.972C178.947 81.5647 179.06 81.101 179.06 80.581C179.06 80.061 178.947 79.6017 178.722 79.203C178.505 78.7957 178.202 78.4793 177.812 78.254C177.422 78.0287 176.989 77.916 176.512 77.916C176.027 77.916 175.589 78.0287 175.199 78.254C174.818 78.4793 174.514 78.7957 174.289 79.203C174.072 79.6017 173.964 80.061 173.964 80.581C173.964 81.101 174.072 81.5647 174.289 81.972C174.514 82.3793 174.818 82.6957 175.199 82.921C175.589 83.1377 176.027 83.246 176.512 83.246ZM187.327 77.162L183.908 84.819C183.63 85.4603 183.31 85.9153 182.946 86.184C182.582 86.4527 182.144 86.587 181.633 86.587C181.303 86.587 180.996 86.535 180.71 86.431C180.424 86.327 180.177 86.171 179.969 85.963L180.398 85.274C180.744 85.6207 181.16 85.794 181.646 85.794C181.958 85.794 182.222 85.7073 182.439 85.534C182.664 85.3607 182.872 85.066 183.063 84.65L183.362 83.987L180.307 77.162H181.269L183.843 82.973L186.417 77.162H187.327ZM193.341 77.981H189.428V84H188.505V77.162H193.341V77.981ZM199.586 77.162V84H198.663V77.981H195.387L195.296 79.671C195.226 81.0923 195.062 82.1843 194.802 82.947C194.542 83.7097 194.078 84.091 193.411 84.091C193.229 84.091 193.008 84.0563 192.748 83.987L192.813 83.194C192.969 83.2287 193.077 83.246 193.138 83.246C193.493 83.246 193.762 83.0813 193.944 82.752C194.126 82.4227 194.247 82.0153 194.308 81.53C194.368 81.0447 194.42 80.4033 194.464 79.606L194.581 77.162H199.586ZM207.202 77.162V84H206.357V81.738H204.212H203.952L202.366 84H201.365L203.068 81.608C202.539 81.4607 202.132 81.2093 201.846 80.854C201.56 80.4987 201.417 80.048 201.417 79.502C201.417 78.7393 201.677 78.1587 202.197 77.76C202.717 77.3613 203.427 77.162 204.329 77.162H207.202ZM202.353 79.528C202.353 80.542 202.998 81.049 204.29 81.049H206.357V77.981H204.355C203.02 77.981 202.353 78.4967 202.353 79.528ZM212.056 80.958H210.496V84H209.573V77.162H210.496V80.165H212.069L214.474 77.162H215.475L212.784 80.477L215.67 84H214.578L212.056 80.958ZM216.867 77.162H217.79V82.596L222.353 77.162H223.172V84H222.249V78.566L217.699 84H216.867V77.162ZM228.7 77.162H229.623V80.191H233.926V77.162H234.849V84H233.926V80.984H229.623V84H228.7V77.162ZM243.192 80.867H237.472C237.524 81.5777 237.797 82.154 238.291 82.596C238.785 83.0293 239.409 83.246 240.163 83.246C240.588 83.246 240.978 83.1723 241.333 83.025C241.688 82.869 241.996 82.6437 242.256 82.349L242.776 82.947C242.473 83.311 242.091 83.5883 241.632 83.779C241.181 83.9697 240.683 84.065 240.137 84.065C239.435 84.065 238.811 83.9177 238.265 83.623C237.728 83.3197 237.307 82.9037 237.004 82.375C236.701 81.8463 236.549 81.2483 236.549 80.581C236.549 79.9137 236.692 79.3157 236.978 78.787C237.273 78.2583 237.671 77.8467 238.174 77.552C238.685 77.2573 239.257 77.11 239.89 77.11C240.523 77.11 241.09 77.2573 241.593 77.552C242.096 77.8467 242.49 78.2583 242.776 78.787C243.062 79.307 243.205 79.905 243.205 80.581L243.192 80.867ZM239.89 77.903C239.231 77.903 238.677 78.1153 238.226 78.54C237.784 78.956 237.533 79.502 237.472 80.178H242.321C242.26 79.502 242.005 78.956 241.554 78.54C241.112 78.1153 240.557 77.903 239.89 77.903ZM255.774 77.162V84H254.929V78.592L252.16 83.168H251.744L248.975 78.579V84H248.13V77.162H249.066L251.965 82.089L254.916 77.162H255.774ZM264.121 80.867H258.401C258.453 81.5777 258.726 82.154 259.22 82.596C259.714 83.0293 260.338 83.246 261.092 83.246C261.517 83.246 261.907 83.1723 262.262 83.025C262.617 82.869 262.925 82.6437 263.185 82.349L263.705 82.947C263.402 83.311 263.02 83.5883 262.561 83.779C262.11 83.9697 261.612 84.065 261.066 84.065C260.364 84.065 259.74 83.9177 259.194 83.623C258.657 83.3197 258.236 82.9037 257.933 82.375C257.63 81.8463 257.478 81.2483 257.478 80.581C257.478 79.9137 257.621 79.3157 257.907 78.787C258.202 78.2583 258.6 77.8467 259.103 77.552C259.614 77.2573 260.186 77.11 260.819 77.11C261.452 77.11 262.019 77.2573 262.522 77.552C263.025 77.8467 263.419 78.2583 263.705 78.787C263.991 79.307 264.134 79.905 264.134 80.581L264.121 80.867ZM260.819 77.903C260.16 77.903 259.606 78.1153 259.155 78.54C258.713 78.956 258.462 79.502 258.401 80.178H263.25C263.189 79.502 262.934 78.956 262.483 78.54C262.041 78.1153 261.486 77.903 260.819 77.903ZM265.917 77.162H266.84V80.191H271.143V77.162H272.066V84H271.143V80.984H266.84V84H265.917V77.162ZM280.41 80.867H274.69C274.742 81.5777 275.015 82.154 275.509 82.596C276.003 83.0293 276.627 83.246 277.381 83.246C277.805 83.246 278.195 83.1723 278.551 83.025C278.906 82.869 279.214 82.6437 279.474 82.349L279.994 82.947C279.69 83.311 279.309 83.5883 278.85 83.779C278.399 83.9697 277.901 84.065 277.355 84.065C276.653 84.065 276.029 83.9177 275.483 83.623C274.945 83.3197 274.525 82.9037 274.222 82.375C273.918 81.8463 273.767 81.2483 273.767 80.581C273.767 79.9137 273.91 79.3157 274.196 78.787C274.49 78.2583 274.889 77.8467 275.392 77.552C275.903 77.2573 276.475 77.11 277.108 77.11C277.74 77.11 278.308 77.2573 278.811 77.552C279.313 77.8467 279.708 78.2583 279.994 78.787C280.28 79.307 280.423 79.905 280.423 80.581L280.41 80.867ZM277.108 77.903C276.449 77.903 275.894 78.1153 275.444 78.54C275.002 78.956 274.75 79.502 274.69 80.178H279.539C279.478 79.502 279.222 78.956 278.772 78.54C278.33 78.1153 277.775 77.903 277.108 77.903ZM288.186 80.867H282.466C282.518 81.5777 282.791 82.154 283.285 82.596C283.779 83.0293 284.403 83.246 285.157 83.246C285.581 83.246 285.971 83.1723 286.327 83.025C286.682 82.869 286.99 82.6437 287.25 82.349L287.77 82.947C287.466 83.311 287.085 83.5883 286.626 83.779C286.175 83.9697 285.677 84.065 285.131 84.065C284.429 84.065 283.805 83.9177 283.259 83.623C282.721 83.3197 282.301 82.9037 281.998 82.375C281.694 81.8463 281.543 81.2483 281.543 80.581C281.543 79.9137 281.686 79.3157 281.972 78.787C282.266 78.2583 282.665 77.8467 283.168 77.552C283.679 77.2573 284.251 77.11 284.884 77.11C285.516 77.11 286.084 77.2573 286.587 77.552C287.089 77.8467 287.484 78.2583 287.77 78.787C288.056 79.307 288.199 79.905 288.199 80.581L288.186 80.867ZM284.884 77.903C284.225 77.903 283.67 78.1153 283.22 78.54C282.778 78.956 282.526 79.502 282.466 80.178H287.315C287.254 79.502 286.998 78.956 286.548 78.54C286.106 78.1153 285.551 77.903 284.884 77.903ZM166.198 89.9V99H165.262V90.732H163.117V89.9H166.198ZM170.505 93.631C171.823 93.631 172.78 93.8693 173.378 94.346C173.985 94.814 174.288 95.4727 174.288 96.322C174.288 96.8507 174.163 97.323 173.911 97.739C173.669 98.155 173.3 98.4843 172.806 98.727C172.312 98.961 171.706 99.078 170.986 99.078C170.336 99.078 169.717 98.974 169.127 98.766C168.547 98.5493 168.079 98.2633 167.723 97.908L168.178 97.167C168.482 97.479 168.88 97.7347 169.374 97.934C169.868 98.1247 170.401 98.22 170.973 98.22C171.727 98.22 172.308 98.051 172.715 97.713C173.131 97.375 173.339 96.9243 173.339 96.361C173.339 95.737 173.105 95.2647 172.637 94.944C172.178 94.6233 171.398 94.463 170.297 94.463H168.36L168.828 89.9H173.807V90.732H169.647L169.335 93.631H170.505ZM181.804 99.065C181.128 99.065 180.521 98.9177 179.984 98.623C179.455 98.3283 179.039 97.9167 178.736 97.388C178.433 96.8507 178.281 96.2483 178.281 95.581C178.281 94.9137 178.433 94.3157 178.736 93.787C179.039 93.2583 179.455 92.8467 179.984 92.552C180.521 92.2573 181.128 92.11 181.804 92.11C182.393 92.11 182.918 92.227 183.377 92.461C183.845 92.6863 184.213 93.02 184.482 93.462L183.793 93.93C183.568 93.592 183.282 93.3407 182.935 93.176C182.588 93.0027 182.211 92.916 181.804 92.916C181.31 92.916 180.864 93.0287 180.465 93.254C180.075 93.4707 179.767 93.7827 179.542 94.19C179.325 94.5973 179.217 95.061 179.217 95.581C179.217 96.1097 179.325 96.5777 179.542 96.985C179.767 97.3837 180.075 97.6957 180.465 97.921C180.864 98.1377 181.31 98.246 181.804 98.246C182.211 98.246 182.588 98.1637 182.935 97.999C183.282 97.8343 183.568 97.583 183.793 97.245L184.482 97.713C184.213 98.155 183.845 98.493 183.377 98.727C182.909 98.9523 182.385 99.065 181.804 99.065ZM194.563 92.11C195.421 92.11 196.093 92.357 196.578 92.851C197.072 93.345 197.319 94.073 197.319 95.035V99H196.396V95.126C196.396 94.4153 196.223 93.8737 195.876 93.501C195.538 93.1283 195.057 92.942 194.433 92.942C193.722 92.942 193.163 93.163 192.756 93.605C192.349 94.0383 192.145 94.6407 192.145 95.412V99H191.222V95.126C191.222 94.4153 191.049 93.8737 190.702 93.501C190.364 93.1283 189.879 92.942 189.246 92.942C188.544 92.942 187.985 93.163 187.569 93.605C187.162 94.0383 186.958 94.6407 186.958 95.412V99H186.035V92.162H186.919V93.41C187.162 92.994 187.5 92.6733 187.933 92.448C188.366 92.2227 188.865 92.11 189.428 92.11C190 92.11 190.494 92.2313 190.91 92.474C191.335 92.7167 191.651 93.0763 191.859 93.553C192.11 93.1023 192.47 92.7513 192.938 92.5C193.415 92.24 193.956 92.11 194.563 92.11ZM203.735 99.078C202.834 99.078 202.015 98.8787 201.278 98.48C200.55 98.0727 199.978 97.518 199.562 96.816C199.155 96.114 198.951 95.3253 198.951 94.45C198.951 93.5747 199.155 92.786 199.562 92.084C199.978 91.382 200.55 90.8317 201.278 90.433C202.015 90.0257 202.834 89.822 203.735 89.822C204.637 89.822 205.447 90.0213 206.166 90.42C206.894 90.8187 207.466 91.3733 207.882 92.084C208.298 92.786 208.506 93.5747 208.506 94.45C208.506 95.3253 208.298 96.1183 207.882 96.829C207.466 97.531 206.894 98.0813 206.166 98.48C205.447 98.8787 204.637 99.078 203.735 99.078ZM203.735 98.22C204.455 98.22 205.105 98.0597 205.685 97.739C206.266 97.4097 206.721 96.959 207.05 96.387C207.38 95.8063 207.544 95.1607 207.544 94.45C207.544 93.7393 207.38 93.098 207.05 92.526C206.721 91.9453 206.266 91.4947 205.685 91.174C205.105 90.8447 204.455 90.68 203.735 90.68C203.016 90.68 202.362 90.8447 201.772 91.174C201.192 91.4947 200.732 91.9453 200.394 92.526C200.065 93.098 199.9 93.7393 199.9 94.45C199.9 95.1607 200.065 95.8063 200.394 96.387C200.732 96.959 201.192 97.4097 201.772 97.739C202.362 98.0597 203.016 98.22 203.735 98.22ZM207.297 88.99H208.064L200.186 99.91H199.406L207.297 88.99Z" fill="#00229A"/>
<path d="M173.985 137.9V147H173.062V139.72L169.487 145.843H169.032L165.457 139.759V147H164.534V137.9H165.327L169.279 144.647L173.192 137.9H173.985ZM182.551 143.867H176.831C176.883 144.578 177.156 145.154 177.65 145.596C178.144 146.029 178.768 146.246 179.522 146.246C179.946 146.246 180.336 146.172 180.692 146.025C181.047 145.869 181.355 145.644 181.615 145.349L182.135 145.947C181.831 146.311 181.45 146.588 180.991 146.779C180.54 146.97 180.042 147.065 179.496 147.065C178.794 147.065 178.17 146.918 177.624 146.623C177.086 146.32 176.666 145.904 176.363 145.375C176.059 144.846 175.908 144.248 175.908 143.581C175.908 142.914 176.051 142.316 176.337 141.787C176.631 141.258 177.03 140.847 177.533 140.552C178.044 140.257 178.616 140.11 179.249 140.11C179.881 140.11 180.449 140.257 180.952 140.552C181.454 140.847 181.849 141.258 182.135 141.787C182.421 142.307 182.564 142.905 182.564 143.581L182.551 143.867ZM179.249 140.903C178.59 140.903 178.035 141.115 177.585 141.54C177.143 141.956 176.891 142.502 176.831 143.178H181.68C181.619 142.502 181.363 141.956 180.913 141.54C180.471 141.115 179.916 140.903 179.249 140.903ZM193.785 140.162V147H184.347V140.162H185.27V146.194H188.624V140.162H189.547V146.194H192.862V140.162H193.785ZM198.643 143.958H197.083V147H196.16V140.162H197.083V143.165H198.656L201.061 140.162H202.062L199.371 143.477L202.257 147H201.165L198.643 143.958ZM203.454 140.162H204.377V145.596L208.94 140.162H209.759V147H208.836V141.566L204.286 147H203.454V140.162ZM218.146 147.065C217.47 147.065 216.864 146.918 216.326 146.623C215.798 146.328 215.382 145.917 215.078 145.388C214.775 144.851 214.623 144.248 214.623 143.581C214.623 142.914 214.775 142.316 215.078 141.787C215.382 141.258 215.798 140.847 216.326 140.552C216.864 140.257 217.47 140.11 218.146 140.11C218.736 140.11 219.26 140.227 219.719 140.461C220.187 140.686 220.556 141.02 220.824 141.462L220.135 141.93C219.91 141.592 219.624 141.341 219.277 141.176C218.931 141.003 218.554 140.916 218.146 140.916C217.652 140.916 217.206 141.029 216.807 141.254C216.417 141.471 216.11 141.783 215.884 142.19C215.668 142.597 215.559 143.061 215.559 143.581C215.559 144.11 215.668 144.578 215.884 144.985C216.11 145.384 216.417 145.696 216.807 145.921C217.206 146.138 217.652 146.246 218.146 146.246C218.554 146.246 218.931 146.164 219.277 145.999C219.624 145.834 219.91 145.583 220.135 145.245L220.824 145.713C220.556 146.155 220.187 146.493 219.719 146.727C219.251 146.952 218.727 147.065 218.146 147.065ZM231.63 140.162V147H230.707V140.981H226.417V147H225.494V140.162H231.63ZM239.974 143.867H234.254C234.306 144.578 234.579 145.154 235.073 145.596C235.567 146.029 236.191 146.246 236.945 146.246C237.369 146.246 237.759 146.172 238.115 146.025C238.47 145.869 238.778 145.644 239.038 145.349L239.558 145.947C239.254 146.311 238.873 146.588 238.414 146.779C237.963 146.97 237.465 147.065 236.919 147.065C236.217 147.065 235.593 146.918 235.047 146.623C234.509 146.32 234.089 145.904 233.786 145.375C233.482 144.846 233.331 144.248 233.331 143.581C233.331 142.914 233.474 142.316 233.76 141.787C234.054 141.258 234.453 140.847 234.956 140.552C235.467 140.257 236.039 140.11 236.672 140.11C237.304 140.11 237.872 140.257 238.375 140.552C238.877 140.847 239.272 141.258 239.558 141.787C239.844 142.307 239.987 142.905 239.987 143.581L239.974 143.867ZM236.672 140.903C236.013 140.903 235.458 141.115 235.008 141.54C234.566 141.956 234.314 142.502 234.254 143.178H239.103C239.042 142.502 238.786 141.956 238.336 141.54C237.894 141.115 237.339 140.903 236.672 140.903ZM244.63 147.065C243.954 147.065 243.347 146.918 242.81 146.623C242.281 146.328 241.865 145.917 241.562 145.388C241.258 144.851 241.107 144.248 241.107 143.581C241.107 142.914 241.258 142.316 241.562 141.787C241.865 141.258 242.281 140.847 242.81 140.552C243.347 140.257 243.954 140.11 244.63 140.11C245.219 140.11 245.743 140.227 246.203 140.461C246.671 140.686 247.039 141.02 247.308 141.462L246.619 141.93C246.393 141.592 246.107 141.341 245.761 141.176C245.414 141.003 245.037 140.916 244.63 140.916C244.136 140.916 243.689 141.029 243.291 141.254C242.901 141.471 242.593 141.783 242.368 142.19C242.151 142.597 242.043 143.061 242.043 143.581C242.043 144.11 242.151 144.578 242.368 144.985C242.593 145.384 242.901 145.696 243.291 145.921C243.689 146.138 244.136 146.246 244.63 146.246C245.037 146.246 245.414 146.164 245.761 145.999C246.107 145.834 246.393 145.583 246.619 145.245L247.308 145.713C247.039 146.155 246.671 146.493 246.203 146.727C245.735 146.952 245.21 147.065 244.63 147.065ZM251.318 143.958H249.758V147H248.835V140.162H249.758V143.165H251.331L253.736 140.162H254.737L252.046 143.477L254.932 147H253.84L251.318 143.958ZM258.708 147.065C258.05 147.065 257.456 146.918 256.927 146.623C256.399 146.32 255.983 145.904 255.679 145.375C255.376 144.846 255.224 144.248 255.224 143.581C255.224 142.914 255.376 142.316 255.679 141.787C255.983 141.258 256.399 140.847 256.927 140.552C257.456 140.257 258.05 140.11 258.708 140.11C259.367 140.11 259.961 140.257 260.489 140.552C261.018 140.847 261.43 141.258 261.724 141.787C262.028 142.316 262.179 142.914 262.179 143.581C262.179 144.248 262.028 144.846 261.724 145.375C261.43 145.904 261.018 146.32 260.489 146.623C259.961 146.918 259.367 147.065 258.708 147.065ZM258.708 146.246C259.194 146.246 259.627 146.138 260.008 145.921C260.398 145.696 260.702 145.379 260.918 144.972C261.135 144.565 261.243 144.101 261.243 143.581C261.243 143.061 261.135 142.597 260.918 142.19C260.702 141.783 260.398 141.471 260.008 141.254C259.627 141.029 259.194 140.916 258.708 140.916C258.223 140.916 257.785 141.029 257.395 141.254C257.014 141.471 256.711 141.783 256.485 142.19C256.269 142.597 256.16 143.061 256.16 143.581C256.16 144.101 256.269 144.565 256.485 144.972C256.711 145.379 257.014 145.696 257.395 145.921C257.785 146.138 258.223 146.246 258.708 146.246ZM271.536 140.162V147H270.691V141.592L267.922 146.168H267.506L264.737 141.579V147H263.892V140.162H264.828L267.727 145.089L270.678 140.162H271.536Z" fill="#00229A"/>
</svg>
