<svg width="328" height="328" viewBox="0 0 328 328" fill="none" xmlns="http://www.w3.org/2000/svg">
<path d="M215.229 235.799V228.972V227.973H206.793C206.015 228.005 205.238 227.88 204.509 227.604C203.781 227.329 203.115 226.909 202.553 226.37C201.991 225.83 201.544 225.183 201.238 224.467C200.933 223.75 200.775 222.979 200.775 222.2C200.775 221.421 200.933 220.651 201.238 219.934C201.544 219.218 201.991 218.57 202.553 218.031C203.115 217.492 203.781 217.072 204.509 216.796C205.238 216.521 206.015 216.396 206.793 216.428H215.229V215.429V145.981V145.481H191.91C191.417 145.481 190.927 145.417 190.451 145.291V145.241V144.312L189.631 143.892C188.883 143.481 188.259 142.876 187.824 142.141C187.389 141.406 187.16 140.568 187.16 139.714C187.16 138.86 187.389 138.022 187.824 137.287C188.259 136.552 188.883 135.947 189.631 135.536L190.491 135.126V134.127C190.967 134.001 191.457 133.938 191.95 133.937H215.229V107.439H61.7709V258.758H19.6207V269.883H19.6707V276.77H257.329V269.883V258.758H215.229V235.799ZM20.6702 273.361L24.1786 269.853H26.2976L20.6702 275.48V273.361ZM29.8459 269.853H31.9849L26.0977 275.74H23.9887L29.8459 269.853ZM35.5133 269.853H37.6323L31.745 275.74H29.626L35.5133 269.853ZM41.1806 269.853H43.2996L37.4124 275.74H35.2934L41.1806 269.853ZM46.8479 269.853H48.977L43.0897 275.74H40.9807L46.8479 269.853ZM52.5153 269.853H54.6343L48.7471 275.74H46.6181L52.5153 269.853ZM58.1826 269.853H60.3016L54.4044 275.74H52.2854L58.1826 269.853ZM63.85 269.853H65.969L60.0717 275.74H57.9727L63.85 269.853ZM69.5173 269.853H71.6363L65.7391 275.74H63.6201L69.5173 269.853ZM75.1847 269.853H77.3037L71.4064 275.74H69.2874L75.1847 269.853ZM80.852 269.853H82.961L77.0638 275.74H74.9648L80.852 269.853ZM86.5193 269.853H88.6383L82.7411 275.74H80.6221L86.5193 269.853ZM92.1767 269.853H94.3057L88.4084 275.74H86.2894L92.1767 269.853ZM97.844 269.853H99.953L94.0658 275.74H91.9568L97.844 269.853ZM103.511 269.853H105.63L99.7431 275.74H97.6241L103.511 269.853ZM109.179 269.853H111.298L105.41 275.74H103.291L109.179 269.853ZM114.846 269.853H116.945L111.058 275.74H108.949L114.846 269.853ZM120.513 269.853H122.632L116.745 275.74H114.626L120.513 269.853ZM126.181 269.853H128.3L122.412 275.74H120.283L126.181 269.853ZM131.848 269.853H133.937L128.05 275.74H125.941L131.848 269.853ZM137.515 269.853H139.634L133.737 275.74H131.618L137.515 269.853ZM143.183 269.853H145.302L139.405 275.74H137.286L143.183 269.853ZM148.85 269.853H150.929L145.032 275.74H142.933L148.85 269.853ZM154.517 269.853H156.636L150.739 275.74H148.62L154.517 269.853ZM160.185 269.853H162.304L156.407 275.74H154.288L160.185 269.853ZM165.852 269.853H167.971L162.074 275.74H159.925L165.852 269.853ZM171.509 269.853H173.638L167.741 275.74H165.622L171.509 269.853ZM177.177 269.853H179.306L173.409 275.74H171.29L177.177 269.853ZM182.844 269.853H184.963L179.076 275.74H176.917L182.844 269.853ZM188.511 269.853H190.63L184.743 275.74H182.624L188.511 269.853ZM194.179 269.853H196.298L190.411 275.74H188.292L194.179 269.853ZM199.846 269.853H201.965L196.078 275.74H193.959L199.846 269.853ZM205.513 269.853H207.632L201.745 275.74H199.616L205.513 269.853ZM211.181 269.853H213.3L207.413 275.74H205.284L211.181 269.853ZM216.848 269.853H218.967L213.07 275.74H210.951L216.848 269.853ZM222.516 269.853H224.635L218.737 275.74H216.618L222.516 269.853ZM228.183 269.853H230.302L224.405 275.74H222.286L228.183 269.853ZM233.85 269.853H235.969L230.072 275.74H227.953L233.85 269.853ZM239.518 269.853H241.637L235.739 275.74H233.62L239.518 269.853ZM245.185 269.853H247.304L241.407 275.74H239.288L245.185 269.853ZM250.842 269.853H252.971L247.074 275.74H244.955L250.842 269.853ZM256.33 270.033V272.162L252.741 275.74H250.622L256.33 270.033ZM93.586 110.438V114.436H94.5855V110.438H98.6636V257.859H89.5079V110.438H93.586ZM143.053 110.438V139.214H141.693C141.579 138.444 141.192 137.739 140.602 137.23C140.012 136.721 139.259 136.441 138.48 136.441C137.701 136.441 136.948 136.721 136.358 137.23C135.768 137.739 135.381 138.444 135.266 139.214H133.937V110.438H143.053ZM182.414 110.438V114.436H183.414V110.438H187.492V133.427C186.213 134.325 185.231 135.585 184.673 137.045C184.161 136.67 183.549 136.455 182.914 136.426C182.47 136.401 182.026 136.467 181.609 136.62C181.192 136.773 180.81 137.009 180.487 137.315C180.164 137.62 179.907 137.988 179.731 138.397C179.556 138.805 179.465 139.245 179.465 139.689C179.465 140.134 179.556 140.573 179.731 140.981C179.907 141.39 180.164 141.758 180.487 142.063C180.81 142.369 181.192 142.605 181.609 142.758C182.026 142.911 182.47 142.977 182.914 142.953C183.539 142.95 184.151 142.766 184.673 142.423C185.235 143.884 186.215 145.146 187.492 146.051V257.859H178.336V110.438H182.414ZM135.266 140.214C135.381 140.985 135.768 141.689 136.358 142.198C136.948 142.707 137.701 142.987 138.48 142.987C139.259 142.987 140.012 142.707 140.602 142.198C141.192 141.689 141.579 140.985 141.693 140.214H143.053V228.033H141.693C141.579 227.262 141.192 226.558 140.602 226.049C140.012 225.54 139.259 225.26 138.48 225.26C137.701 225.26 136.948 225.54 136.358 226.049C135.768 226.558 135.381 227.262 135.266 228.033H133.937V140.214H135.266ZM136.216 139.714C136.214 139.264 136.346 138.824 136.594 138.45C136.843 138.075 137.197 137.783 137.612 137.61C138.027 137.437 138.484 137.391 138.925 137.478C139.366 137.565 139.771 137.782 140.089 138.1C140.407 138.418 140.624 138.823 140.711 139.264C140.798 139.705 140.752 140.162 140.579 140.577C140.406 140.992 140.114 141.346 139.739 141.595C139.365 141.843 138.925 141.975 138.475 141.973C137.877 141.97 137.304 141.732 136.881 141.308C136.457 140.885 136.219 140.312 136.216 139.714ZM135.266 229.032C135.381 229.803 135.768 230.507 136.358 231.016C136.948 231.525 137.701 231.805 138.48 231.805C139.259 231.805 140.012 231.525 140.602 231.016C141.192 230.507 141.579 229.803 141.693 229.032H143.053V257.859H133.937V229.032H135.266ZM136.216 228.532C136.216 228.083 136.349 227.644 136.599 227.271C136.849 226.897 137.204 226.607 137.619 226.435C138.034 226.264 138.491 226.219 138.931 226.308C139.372 226.396 139.776 226.613 140.093 226.932C140.41 227.25 140.625 227.655 140.711 228.096C140.798 228.537 140.752 228.993 140.578 229.408C140.405 229.822 140.113 230.176 139.738 230.424C139.364 230.672 138.924 230.803 138.475 230.801C138.177 230.801 137.883 230.743 137.608 230.628C137.333 230.514 137.084 230.347 136.874 230.136C136.664 229.925 136.498 229.675 136.385 229.4C136.272 229.125 136.215 228.83 136.216 228.532ZM146.051 235.799H175.338V257.859H146.051V235.799ZM146.051 232.8V229.032H148.05V228.033H146.051V210.741H175.338V232.8H146.051ZM146.051 207.742V185.692H175.338V207.742H146.051ZM130.938 185.692V207.742H101.662V185.692H130.938ZM130.938 210.741V228.033H128.939V229.032H130.938V232.8H101.662V210.741H130.938ZM130.938 235.799V257.859H101.662V235.799H130.938ZM175.378 182.554H146.091V160.504H175.378V182.554ZM130.938 182.554H101.662V160.504H130.938V182.554ZM180.685 139.714C180.683 139.263 180.816 138.822 181.066 138.447C181.316 138.071 181.672 137.779 182.088 137.607C182.505 137.435 182.964 137.391 183.405 137.481C183.847 137.571 184.252 137.79 184.569 138.111C184.886 138.432 185.1 138.84 185.183 139.283C185.267 139.726 185.217 140.184 185.04 140.598C184.862 141.013 184.565 141.365 184.186 141.61C183.808 141.854 183.365 141.981 182.914 141.973C182.314 141.973 181.738 141.735 181.313 141.312C180.888 140.889 180.648 140.314 180.645 139.714H180.685ZM175.378 157.506H146.091V140.214H148.09V139.214H146.091V135.426H175.378V157.506ZM130.938 139.214H128.939V140.214H130.938V157.506H101.662V135.426H130.938V139.214ZM212.27 257.859H190.491V235.799H212.23L212.27 257.859ZM212.27 215.429H206.873C205.962 215.394 205.053 215.543 204.201 215.867C203.349 216.192 202.571 216.685 201.914 217.317C201.257 217.95 200.734 218.708 200.377 219.547C200.02 220.386 199.836 221.289 199.836 222.2C199.836 223.112 200.02 224.015 200.377 224.854C200.734 225.693 201.257 226.451 201.914 227.083C202.571 227.716 203.349 228.209 204.201 228.533C205.053 228.858 205.962 229.007 206.873 228.972H212.27V232.8H190.491V210.741H212.23L212.27 215.429ZM190.531 207.742V185.692H212.27V207.742H190.531ZM212.27 182.554H190.491V160.504H212.23L212.27 182.554ZM191.91 146.481H212.19V157.476H190.491V146.321C190.957 146.423 191.433 146.476 191.91 146.481ZM212.23 110.438V132.937H191.91C191.419 132.939 190.93 132.993 190.451 133.097V110.438H212.23ZM175.338 110.438V132.427H146.051V110.438H175.338ZM130.938 110.438V132.427H101.662V110.438H130.938ZM64.7695 110.438H86.5093V132.427H64.7695V110.438ZM64.7695 135.426H86.5093V157.506H64.7695V135.426ZM86.5093 160.504V182.554H64.7695V160.504H86.5093ZM64.7695 185.692H86.5093V207.742H64.7695V185.692ZM64.7695 210.741H86.5093V232.8H64.7695V210.741ZM86.5093 235.799V257.859H64.7695V235.799H86.5093Z" fill="#00229A"/>
<path d="M89.5078 257.858H98.6635V110.438H94.5854V114.436H93.5859V110.438H89.5078V257.858ZM94.0857 225.274C94.7329 225.272 95.3663 225.462 95.9053 225.82C96.4443 226.179 96.8648 226.689 97.1134 227.287C97.362 227.884 97.4276 228.542 97.3018 229.177C97.176 229.812 96.8645 230.395 96.4068 230.853C95.9491 231.311 95.3658 231.622 94.7308 231.748C94.0959 231.874 93.4379 231.808 92.8402 231.56C92.2426 231.311 91.7322 230.891 91.3739 230.352C91.0155 229.813 90.8252 229.179 90.8272 228.532C90.8272 227.668 91.1705 226.839 91.7816 226.228C92.3927 225.617 93.2215 225.274 94.0857 225.274ZM93.5859 219.166V212.789H94.5854V219.166H93.5859ZM94.5854 161.823V168.19H93.5859V161.823H94.5854ZM93.5859 206.422V200.055H94.5854V206.392L93.5859 206.422ZM97.3441 184.193C97.3414 184.968 97.0621 185.718 96.5564 186.306C96.0508 186.894 95.3519 187.282 94.5854 187.401V193.678H93.5859V187.401C92.7726 187.29 92.0314 186.876 91.5115 186.24C90.9915 185.605 90.7314 184.797 90.7833 183.977C90.8352 183.158 91.1954 182.389 91.7913 181.824C92.3873 181.26 93.1749 180.942 93.9957 180.934H93.5859V174.567H94.5854V180.934H94.1756C95.0241 180.958 95.83 181.311 96.4218 181.92C97.0135 182.529 97.3445 183.344 97.3441 184.193ZM94.0857 142.972C93.4384 142.974 92.8051 142.784 92.266 142.426C91.727 142.067 91.3065 141.557 91.0579 140.959C90.8093 140.362 90.7437 139.704 90.8695 139.069C90.9953 138.434 91.3068 137.85 91.7645 137.393C92.2222 136.935 92.8055 136.623 93.4405 136.498C94.0754 136.372 94.7334 136.437 95.3311 136.686C95.9287 136.935 96.4391 137.355 96.7975 137.894C97.1558 138.433 97.3461 139.066 97.3441 139.714C97.3415 140.577 96.9973 141.404 96.3868 142.015C95.7763 142.625 94.949 142.97 94.0857 142.972ZM94.5854 149.079V155.416H93.5859V149.079H94.5854ZM93.5859 120.033H94.5854V125.61H93.5859V120.033ZM94.5854 131.188V134.186H93.5859V131.188H94.5854Z" fill="#D9DEEE"/>
<path d="M178.336 257.858H187.492V146.071C186.212 145.16 185.231 143.891 184.673 142.422C184.151 142.766 183.539 142.95 182.914 142.952C182.47 142.977 182.026 142.911 181.609 142.758C181.192 142.605 180.81 142.368 180.487 142.063C180.164 141.757 179.907 141.389 179.731 140.981C179.556 140.573 179.465 140.133 179.465 139.689C179.465 139.244 179.556 138.805 179.731 138.396C179.907 137.988 180.164 137.62 180.487 137.315C180.81 137.009 181.192 136.773 181.609 136.62C182.026 136.467 182.47 136.401 182.914 136.425C183.539 136.428 184.151 136.612 184.673 136.955C185.232 135.495 186.213 134.235 187.492 133.337V110.438H183.414V114.436H182.414V110.438H178.336V257.858ZM182.914 225.274C183.561 225.274 184.193 225.466 184.731 225.825C185.269 226.185 185.688 226.696 185.935 227.294C186.182 227.891 186.246 228.549 186.119 229.183C185.992 229.818 185.68 230.4 185.222 230.857C184.764 231.313 184.18 231.624 183.546 231.749C182.911 231.874 182.253 231.808 181.656 231.559C181.059 231.31 180.55 230.889 180.192 230.351C179.834 229.812 179.644 229.179 179.646 228.532C179.646 228.103 179.73 227.679 179.895 227.283C180.059 226.887 180.3 226.527 180.604 226.224C180.907 225.922 181.268 225.682 181.664 225.519C182.061 225.356 182.485 225.272 182.914 225.274ZM182.414 219.166V212.789H183.414V219.166H182.414ZM183.414 161.823V168.19H182.414V161.823H183.414ZM182.414 206.422V200.055H183.414V206.392L182.414 206.422ZM186.173 184.193C186.17 184.968 185.891 185.718 185.385 186.306C184.879 186.894 184.18 187.282 183.414 187.401V193.678H182.414V187.401C181.601 187.29 180.86 186.876 180.34 186.24C179.82 185.605 179.56 184.797 179.612 183.977C179.664 183.158 180.024 182.389 180.62 181.824C181.216 181.26 182.003 180.942 182.824 180.934H182.414V174.567H183.414V180.934H182.994C183.844 180.958 184.65 181.311 185.244 181.919C185.837 182.528 186.17 183.343 186.173 184.193ZM182.414 149.079H183.414V155.416H182.414V149.079ZM182.414 120.033H183.414V125.61H182.414V120.033ZM183.414 131.188V134.186H182.414V131.188H183.414Z" fill="#D9DEEE"/>
<path d="M133.937 228.033H135.307C135.421 227.262 135.808 226.558 136.398 226.049C136.988 225.54 137.741 225.26 138.52 225.26C139.299 225.26 140.052 225.54 140.642 226.049C141.232 226.558 141.62 227.262 141.734 228.033H143.093V140.214H141.734C141.62 140.985 141.232 141.689 140.642 142.198C140.052 142.707 139.299 142.987 138.52 142.987C137.741 142.987 136.988 142.707 136.398 142.198C135.808 141.689 135.421 140.985 135.307 140.214H133.937V228.033ZM141.784 184.193C141.784 184.84 141.592 185.472 141.233 186.009C140.874 186.547 140.363 186.966 139.766 187.213C139.169 187.46 138.511 187.525 137.877 187.399C137.243 187.273 136.661 186.961 136.204 186.504C135.747 186.047 135.436 185.465 135.309 184.831C135.183 184.197 135.248 183.54 135.495 182.942C135.743 182.345 136.162 181.835 136.699 181.476C137.237 181.116 137.869 180.925 138.515 180.925C139.375 180.935 140.196 181.284 140.8 181.896C141.405 182.508 141.744 183.333 141.744 184.193H141.784Z" fill="#D9DEEE"/>
<path d="M133.937 257.859H143.093V229.032H141.734C141.62 229.803 141.232 230.507 140.642 231.016C140.052 231.525 139.299 231.805 138.52 231.805C137.741 231.805 136.988 231.525 136.398 231.016C135.808 230.507 135.421 229.803 135.307 229.032H133.937V257.859Z" fill="#D9DEEE"/>
<path d="M133.937 139.214H135.307C135.421 138.443 135.808 137.739 136.398 137.23C136.988 136.721 137.741 136.441 138.52 136.441C139.299 136.441 140.052 136.721 140.642 137.23C141.232 137.739 141.62 138.443 141.734 139.214H143.093V110.438H133.937V139.214Z" fill="#D9DEEE"/>
<path d="M109.828 228.032H103.451V229.032H109.828V228.032Z" fill="#00229A"/>
<path d="M160.794 228.032H154.427V229.032H160.794V228.032Z" fill="#00229A"/>
<path d="M173.539 228.032H167.172V229.032H173.539V228.032Z" fill="#00229A"/>
<path d="M122.572 228.032H116.195V229.032H122.572V228.032Z" fill="#00229A"/>
<path d="M94.5856 149.08H93.5861V155.447H94.5856V149.08Z" fill="#00229A"/>
<path d="M94.5856 161.823H93.5861V168.19H94.5856V161.823Z" fill="#00229A"/>
<path d="M94.5856 200.055H93.5861V206.422H94.5856V200.055Z" fill="#00229A"/>
<path d="M94.5856 212.79H93.5861V219.157H94.5856V212.79Z" fill="#00229A"/>
<path d="M160.805 139.214H154.428V140.214H160.805V139.214Z" fill="#00229A"/>
<path d="M109.818 139.214H103.451V140.214H109.818V139.214Z" fill="#00229A"/>
<path d="M173.549 139.214H167.172V140.214H173.549V139.214Z" fill="#00229A"/>
<path d="M122.562 139.214H116.195V140.214H122.562V139.214Z" fill="#00229A"/>
<path d="M183.414 149.08H182.414V155.447H183.414V149.08Z" fill="#00229A"/>
<path d="M183.414 212.79H182.414V219.157H183.414V212.79Z" fill="#00229A"/>
<path d="M183.414 200.055H182.414V206.422H183.414V200.055Z" fill="#00229A"/>
<path d="M183.414 161.823H182.414V168.19H183.414V161.823Z" fill="#00229A"/>
<path d="M93.5861 90.6668V92.1561H94.5856V90.6668H182.414V92.1561H183.414V90.6668H230.762L276.63 108.618L277 107.689L231.042 89.6973H230.972V84.8196H229.972V89.6973L183.414 89.6873V86.5887H182.414V89.6873L94.5856 89.6773V86.5887H93.5861V89.6773L47.6376 89.6673V85.2194H46.6381V89.6673H46.0484L0 107.689L0.359831 108.618L46.2383 90.6668H93.5861Z" fill="#00229A"/>
<path d="M94.5856 131.188H93.5861V134.187H94.5856V131.188Z" fill="#00229A"/>
<path d="M94.5856 97.7336H93.5861V103.311H94.5856V97.7336Z" fill="#00229A"/>
<path d="M94.5856 75.4343H93.5861V81.0117H94.5856V75.4343Z" fill="#00229A"/>
<path d="M94.5856 120.033H93.5861V125.611H94.5856V120.033Z" fill="#00229A"/>
<path d="M94.5856 66.8582H93.5861V69.8567H94.5856V66.8582Z" fill="#00229A"/>
<path d="M183.414 131.188H182.414V134.187H183.414V131.188Z" fill="#00229A"/>
<path d="M183.414 75.4343H182.414V81.0117H183.414V75.4343Z" fill="#00229A"/>
<path d="M183.414 97.7336H182.414V103.311H183.414V97.7336Z" fill="#00229A"/>
<path d="M183.414 120.033H182.414V125.611H183.414V120.033Z" fill="#00229A"/>
<path d="M183.414 66.8582H182.414V69.8567H183.414V66.8582Z" fill="#00229A"/>
<path d="M47.6377 105.7H46.6382V108.699H47.6377V105.7Z" fill="#00229A"/>
<path d="M47.6377 95.4648H46.6382V100.582H47.6377V95.4648Z" fill="#00229A"/>
<path d="M47.6377 74.9844H46.6382V80.102H47.6377V74.9844Z" fill="#00229A"/>
<path d="M47.6377 66.8582H46.6382V69.8567H47.6377V66.8582Z" fill="#00229A"/>
<path d="M230.972 105.3H229.972V108.299H230.972V105.3Z" fill="#00229A"/>
<path d="M230.972 95.0549H229.972V100.173H230.972V95.0549Z" fill="#00229A"/>
<path d="M230.972 74.5745H229.972V79.6921H230.972V74.5745Z" fill="#00229A"/>
<path d="M230.972 66.4585H229.972V69.4571H230.972V66.4585Z" fill="#00229A"/>
<path d="M48.827 73.365H50.2664L49.0669 72.1655H92.1467L90.9573 73.365H92.3966L94.0858 71.6658L92.3966 69.9766H90.9573L92.1467 71.166H49.0669L50.2664 69.9766H48.827L47.1378 71.6658L48.827 73.365Z" fill="#00229A"/>
<path d="M186.652 73.365L185.453 72.1655H228.533L227.333 73.365H228.773L230.472 71.6658L228.773 69.9766H227.333L228.533 71.166H185.453L186.652 69.9766H185.213L183.514 71.6658L185.213 73.365H186.652Z" fill="#00229A"/>
<path d="M96.3449 139.714C96.3449 139.267 96.2124 138.83 95.9642 138.459C95.716 138.087 95.3632 137.798 94.9504 137.627C94.5377 137.456 94.0835 137.411 93.6453 137.498C93.2071 137.585 92.8046 137.801 92.4887 138.116C92.1727 138.432 91.9576 138.835 91.8704 139.273C91.7833 139.711 91.828 140.165 91.999 140.578C92.17 140.991 92.4595 141.344 92.831 141.592C93.2025 141.84 93.6392 141.973 94.086 141.973C94.6843 141.97 95.2573 141.731 95.6804 141.308C96.1034 140.885 96.3423 140.312 96.3449 139.714Z" fill="white"/>
<path d="M97.3442 139.714C97.3442 139.07 97.1531 138.44 96.7951 137.904C96.437 137.368 95.9281 136.95 95.3327 136.704C94.7373 136.457 94.0821 136.392 93.45 136.518C92.818 136.644 92.2374 136.954 91.7817 137.41C91.3259 137.866 91.0156 138.446 90.8899 139.078C90.7642 139.71 90.8287 140.366 91.0753 140.961C91.3219 141.556 91.7396 142.065 92.2754 142.423C92.8113 142.781 93.4413 142.973 94.0857 142.973C94.9491 142.97 95.7764 142.626 96.3869 142.015C96.9974 141.405 97.3416 140.577 97.3442 139.714ZM94.0857 141.973C93.6361 141.975 93.1961 141.843 92.8214 141.595C92.4468 141.346 92.1544 140.992 91.9815 140.577C91.8085 140.162 91.7627 139.705 91.8499 139.264C91.9372 138.823 92.1535 138.418 92.4714 138.1C92.7893 137.782 93.1945 137.565 93.6356 137.478C94.0766 137.391 94.5337 137.437 94.9487 137.61C95.3637 137.783 95.7179 138.075 95.9665 138.45C96.215 138.824 96.3467 139.264 96.3447 139.714C96.3447 140.011 96.2862 140.304 96.1727 140.578C96.0592 140.853 95.8928 141.102 95.6831 141.311C95.4733 141.521 95.2243 141.688 94.9502 141.801C94.6761 141.915 94.3824 141.973 94.0857 141.973Z" fill="#00229A"/>
<path d="M138.475 141.973C139.722 141.973 140.734 140.961 140.734 139.714C140.734 138.466 139.722 137.455 138.475 137.455C137.227 137.455 136.216 138.466 136.216 139.714C136.216 140.961 137.227 141.973 138.475 141.973Z" fill="white"/>
<path d="M185.173 139.714C185.175 139.264 185.043 138.824 184.795 138.449C184.546 138.075 184.192 137.782 183.777 137.609C183.362 137.436 182.905 137.391 182.464 137.478C182.023 137.565 181.618 137.781 181.3 138.099C180.982 138.417 180.765 138.822 180.678 139.264C180.591 139.705 180.637 140.162 180.81 140.577C180.983 140.992 181.275 141.346 181.65 141.594C182.024 141.843 182.464 141.975 182.914 141.973C183.512 141.97 184.085 141.731 184.508 141.308C184.932 140.885 185.17 140.312 185.173 139.714Z" fill="white"/>
<path d="M91.827 184.193C91.829 184.639 91.9632 185.075 92.2126 185.445C92.462 185.815 92.8155 186.103 93.2284 186.273C93.6414 186.442 94.0952 186.486 94.5328 186.397C94.9703 186.309 95.3719 186.093 95.6868 185.777C96.0017 185.46 96.2159 185.058 96.3022 184.62C96.3886 184.182 96.3433 183.728 96.172 183.316C96.0007 182.904 95.7112 182.552 95.3399 182.304C94.9687 182.056 94.5323 181.924 94.086 181.924C93.7885 181.924 93.4939 181.983 93.2192 182.097C92.9445 182.211 92.695 182.378 92.4851 182.589C92.2752 182.8 92.1091 183.05 91.9961 183.325C91.8832 183.601 91.8257 183.896 91.827 184.193Z" fill="white"/>
<path d="M94.1759 180.934H94.5857V174.567H93.5861V180.934H93.956C93.1351 180.942 92.3475 181.26 91.7516 181.824C91.1556 182.389 90.7955 183.158 90.7436 183.977C90.6917 184.797 90.9518 185.605 91.4717 186.24C91.9917 186.875 92.7328 187.29 93.5462 187.401V193.678H94.5457V187.401C95.359 187.29 96.1002 186.875 96.6201 186.24C97.14 185.605 97.4002 184.797 97.3483 183.977C97.2964 183.158 96.9362 182.389 96.3403 181.824C95.7443 181.26 94.9567 180.942 94.1359 180.934H94.1759ZM96.3449 184.193C96.3429 184.639 96.2087 185.075 95.9593 185.445C95.7099 185.815 95.3564 186.103 94.9435 186.273C94.5305 186.442 94.0767 186.485 93.6391 186.397C93.2016 186.309 92.8 186.093 92.4851 185.777C92.1702 185.46 91.956 185.058 91.8697 184.62C91.7833 184.182 91.8286 183.728 91.9999 183.316C92.1712 182.904 92.4607 182.552 92.832 182.304C93.2032 182.056 93.6396 181.924 94.0859 181.924C94.3834 181.924 94.678 181.983 94.9527 182.097C95.2274 182.211 95.4769 182.378 95.6868 182.589C95.8967 182.8 96.0628 183.05 96.1758 183.325C96.2887 183.601 96.3462 183.895 96.3449 184.193Z" fill="#00229A"/>
<path d="M138.475 186.452C139.722 186.452 140.734 185.441 140.734 184.193C140.734 182.945 139.722 181.934 138.475 181.934C137.227 181.934 136.216 182.945 136.216 184.193C136.216 185.441 137.227 186.452 138.475 186.452Z" fill="white"/>
<path d="M138.475 180.925C137.829 180.925 137.197 181.116 136.659 181.475C136.122 181.835 135.703 182.345 135.455 182.942C135.208 183.539 135.143 184.197 135.269 184.831C135.395 185.465 135.707 186.047 136.164 186.504C136.621 186.961 137.203 187.273 137.837 187.399C138.471 187.525 139.129 187.46 139.726 187.213C140.323 186.965 140.834 186.546 141.193 186.009C141.552 185.471 141.743 184.839 141.743 184.193C141.743 183.326 141.399 182.495 140.786 181.882C140.173 181.269 139.342 180.925 138.475 180.925ZM140.744 184.193C140.744 184.642 140.611 185.08 140.362 185.454C140.112 185.827 139.758 186.118 139.343 186.289C138.929 186.461 138.472 186.506 138.032 186.418C137.592 186.331 137.188 186.115 136.871 185.797C136.553 185.48 136.337 185.076 136.25 184.636C136.162 184.196 136.207 183.739 136.379 183.325C136.551 182.91 136.841 182.556 137.214 182.306C137.588 182.057 138.026 181.924 138.475 181.924C138.773 181.924 139.068 181.983 139.343 182.097C139.619 182.211 139.869 182.378 140.079 182.589C140.29 182.799 140.457 183.049 140.571 183.325C140.685 183.6 140.744 183.895 140.744 184.193Z" fill="#00229A"/>
<path d="M180.645 184.193C180.645 184.642 180.778 185.08 181.028 185.454C181.277 185.827 181.631 186.118 182.046 186.289C182.461 186.461 182.917 186.506 183.357 186.418C183.797 186.331 184.201 186.115 184.519 185.797C184.836 185.48 185.052 185.076 185.14 184.636C185.227 184.196 185.182 183.739 185.01 183.325C184.839 182.91 184.548 182.556 184.175 182.306C183.802 182.057 183.363 181.924 182.914 181.924C182.312 181.924 181.735 182.163 181.31 182.589C180.884 183.014 180.645 183.591 180.645 184.193Z" fill="white"/>
<path d="M182.994 180.934H183.414V174.567H182.414V180.934H182.824C182.003 180.942 181.216 181.26 180.62 181.824C180.024 182.389 179.664 183.158 179.612 183.977C179.56 184.797 179.82 185.605 180.34 186.24C180.86 186.875 181.601 187.29 182.414 187.401V193.678H183.414V187.401C184.228 187.29 184.97 186.874 185.489 186.238C186.009 185.602 186.269 184.792 186.216 183.972C186.162 183.152 185.8 182.383 185.203 181.819C184.605 181.256 183.816 180.939 182.994 180.934ZM185.173 184.193C185.173 184.642 185.04 185.081 184.79 185.454C184.54 185.828 184.185 186.119 183.77 186.29C183.355 186.461 182.898 186.506 182.458 186.417C182.017 186.329 181.613 186.112 181.296 185.794C180.979 185.475 180.764 185.07 180.678 184.629C180.591 184.189 180.637 183.732 180.811 183.318C180.984 182.903 181.276 182.55 181.651 182.301C182.025 182.053 182.465 181.922 182.914 181.924C183.212 181.924 183.506 181.983 183.781 182.097C184.056 182.211 184.305 182.378 184.515 182.589C184.725 182.8 184.891 183.05 185.004 183.325C185.117 183.601 185.174 183.895 185.173 184.193Z" fill="#00229A"/>
<path d="M94.086 230.801C94.5351 230.803 94.9748 230.672 95.3492 230.424C95.7237 230.175 96.016 229.822 96.1893 229.407C96.3626 228.993 96.4089 228.536 96.3225 228.096C96.2361 227.655 96.0208 227.25 95.7039 226.931C95.387 226.613 94.9827 226.396 94.5423 226.308C94.1019 226.219 93.6452 226.263 93.23 226.435C92.8148 226.606 92.4599 226.897 92.2101 227.271C91.9604 227.644 91.827 228.083 91.827 228.532C91.827 229.132 92.0647 229.708 92.488 230.133C92.9114 230.558 93.4859 230.798 94.086 230.801Z" fill="white"/>
<path d="M90.8273 228.532C90.8273 229.176 91.0184 229.806 91.3764 230.342C91.7345 230.878 92.2434 231.296 92.8388 231.542C93.4342 231.789 94.0893 231.854 94.7214 231.728C95.3535 231.602 95.9341 231.292 96.3898 230.836C96.8455 230.38 97.1559 229.8 97.2816 229.168C97.4073 228.536 97.3428 227.88 97.0962 227.285C96.8495 226.69 96.4319 226.181 95.8961 225.823C95.3602 225.465 94.7302 225.273 94.0857 225.273C93.2223 225.276 92.3951 225.62 91.7846 226.231C91.1741 226.841 90.8299 227.669 90.8273 228.532ZM94.0857 226.273C94.5353 226.271 94.9754 226.403 95.35 226.651C95.7247 226.9 96.0171 227.254 96.19 227.669C96.363 228.084 96.4088 228.541 96.3215 228.982C96.2343 229.423 96.018 229.828 95.7001 230.146C95.3822 230.464 94.977 230.68 94.5359 230.768C94.0949 230.855 93.6378 230.809 93.2228 230.636C92.8078 230.463 92.4536 230.171 92.205 229.796C91.9565 229.422 91.8248 228.982 91.8268 228.532C91.8268 227.933 92.0648 227.358 92.4884 226.935C92.9121 226.511 93.4866 226.273 94.0857 226.273Z" fill="#00229A"/>
<path d="M138.475 230.791C139.722 230.791 140.734 229.78 140.734 228.532C140.734 227.285 139.722 226.273 138.475 226.273C137.227 226.273 136.216 227.285 136.216 228.532C136.216 229.78 137.227 230.791 138.475 230.791Z" fill="white"/>
<path d="M180.645 228.532C180.643 228.982 180.775 229.421 181.023 229.796C181.271 230.17 181.625 230.462 182.039 230.636C182.453 230.809 182.91 230.855 183.351 230.769C183.791 230.683 184.197 230.467 184.515 230.15C184.833 229.833 185.05 229.429 185.139 228.989C185.227 228.548 185.183 228.092 185.011 227.676C184.84 227.261 184.549 226.906 184.176 226.657C183.802 226.407 183.363 226.273 182.914 226.273C182.314 226.273 181.739 226.511 181.313 226.934C180.888 227.358 180.648 227.932 180.645 228.532Z" fill="white"/>
<path d="M179.646 228.532C179.644 229.179 179.834 229.812 180.192 230.35C180.55 230.889 181.059 231.31 181.656 231.559C182.253 231.808 182.911 231.874 183.546 231.749C184.18 231.624 184.764 231.313 185.222 230.857C185.68 230.4 185.992 229.818 186.119 229.183C186.246 228.549 186.182 227.891 185.935 227.293C185.688 226.696 185.269 226.185 184.731 225.825C184.193 225.465 183.561 225.273 182.914 225.273C182.05 225.276 181.221 225.62 180.609 226.23C179.997 226.84 179.651 227.668 179.646 228.532ZM182.914 226.273C183.363 226.273 183.802 226.406 184.176 226.656C184.549 226.906 184.84 227.261 185.011 227.676C185.183 228.091 185.227 228.548 185.139 228.988C185.05 229.429 184.833 229.833 184.515 230.15C184.197 230.467 183.791 230.682 183.351 230.768C182.91 230.855 182.453 230.809 182.039 230.635C181.624 230.462 181.271 230.17 181.023 229.795C180.775 229.421 180.643 228.981 180.645 228.532C180.645 228.234 180.704 227.94 180.818 227.665C180.932 227.39 181.1 227.141 181.31 226.931C181.521 226.721 181.771 226.555 182.047 226.442C182.322 226.329 182.617 226.272 182.914 226.273Z" fill="#00229A"/>
<path d="M206.613 220.506H205.174L203.484 222.206L205.174 223.895H206.613L205.423 222.705H231V221.706H205.423L206.613 220.506Z" fill="#00229A"/>
<path d="M231 139.204H191.415L192.604 138.015H191.165L189.476 139.704L191.165 141.403H192.604L191.415 140.204H231V139.204Z" fill="#00229A"/>
<path d="M54.3303 61.631C55.6476 61.631 56.6053 61.8693 57.2033 62.346C57.81 62.814 58.1133 63.4727 58.1133 64.322C58.1133 64.8507 57.9876 65.323 57.7363 65.739C57.4936 66.155 57.1253 66.4843 56.6313 66.727C56.1373 66.961 55.5306 67.078 54.8113 67.078C54.1613 67.078 53.5416 66.974 52.9523 66.766C52.3716 66.5493 51.9036 66.2633 51.5483 65.908L52.0033 65.167C52.3066 65.479 52.7053 65.7347 53.1993 65.934C53.6933 66.1247 54.2263 66.22 54.7983 66.22C55.5523 66.22 56.133 66.051 56.5403 65.713C56.9563 65.375 57.1643 64.9243 57.1643 64.361C57.1643 63.737 56.9303 63.2647 56.4623 62.944C56.003 62.6233 55.223 62.463 54.1223 62.463H52.1853L52.6533 57.9H57.6323V58.732H53.4723L53.1603 61.631H54.3303ZM62.6686 67.078C61.9666 67.078 61.3383 66.8917 60.7836 66.519C60.2376 66.1463 59.8086 65.6133 59.4966 64.92C59.1933 64.218 59.0416 63.3947 59.0416 62.45C59.0416 61.5053 59.1933 60.6863 59.4966 59.993C59.8086 59.291 60.2376 58.7537 60.7836 58.381C61.3383 58.0083 61.9666 57.822 62.6686 57.822C63.3706 57.822 63.9946 58.0083 64.5406 58.381C65.0953 58.7537 65.5286 59.291 65.8406 59.993C66.1526 60.6863 66.3086 61.5053 66.3086 62.45C66.3086 63.3947 66.1526 64.218 65.8406 64.92C65.5286 65.6133 65.0953 66.1463 64.5406 66.519C63.9946 66.8917 63.3706 67.078 62.6686 67.078ZM62.6686 66.22C63.1973 66.22 63.6609 66.0727 64.0596 65.778C64.4669 65.4833 64.7833 65.0543 65.0086 64.491C65.2339 63.9277 65.3466 63.2473 65.3466 62.45C65.3466 61.6527 65.2339 60.9723 65.0086 60.409C64.7833 59.8457 64.4669 59.4167 64.0596 59.122C63.6609 58.8273 63.1973 58.68 62.6686 58.68C62.1399 58.68 61.6719 58.8273 61.2646 59.122C60.8659 59.4167 60.5539 59.8457 60.3286 60.409C60.1033 60.9723 59.9906 61.6527 59.9906 62.45C59.9906 63.2473 60.1033 63.9277 60.3286 64.491C60.5539 65.0543 60.8659 65.4833 61.2646 65.778C61.6719 66.0727 62.1399 66.22 62.6686 66.22ZM73.9764 67.065C73.3004 67.065 72.6937 66.9177 72.1564 66.623C71.6277 66.3283 71.2117 65.9167 70.9084 65.388C70.605 64.8507 70.4534 64.2483 70.4534 63.581C70.4534 62.9137 70.605 62.3157 70.9084 61.787C71.2117 61.2583 71.6277 60.8467 72.1564 60.552C72.6937 60.2573 73.3004 60.11 73.9764 60.11C74.5657 60.11 75.09 60.227 75.5494 60.461C76.0174 60.6863 76.3857 61.02 76.6544 61.462L75.9654 61.93C75.74 61.592 75.454 61.3407 75.1074 61.176C74.7607 61.0027 74.3837 60.916 73.9764 60.916C73.4824 60.916 73.036 61.0287 72.6374 61.254C72.2474 61.4707 71.9397 61.7827 71.7144 62.19C71.4977 62.5973 71.3894 63.061 71.3894 63.581C71.3894 64.1097 71.4977 64.5777 71.7144 64.985C71.9397 65.3837 72.2474 65.6957 72.6374 65.921C73.036 66.1377 73.4824 66.246 73.9764 66.246C74.3837 66.246 74.7607 66.1637 75.1074 65.999C75.454 65.8343 75.74 65.583 75.9654 65.245L76.6544 65.713C76.3857 66.155 76.0174 66.493 75.5494 66.727C75.0814 66.9523 74.557 67.065 73.9764 67.065ZM86.7356 60.11C87.5936 60.11 88.2652 60.357 88.7506 60.851C89.2446 61.345 89.4916 62.073 89.4916 63.035V67H88.5686V63.126C88.5686 62.4153 88.3952 61.8737 88.0486 61.501C87.7106 61.1283 87.2296 60.942 86.6056 60.942C85.8949 60.942 85.3359 61.163 84.9286 61.605C84.5212 62.0383 84.3176 62.6407 84.3176 63.412V67H83.3946V63.126C83.3946 62.4153 83.2212 61.8737 82.8746 61.501C82.5366 61.1283 82.0512 60.942 81.4186 60.942C80.7166 60.942 80.1576 61.163 79.7416 61.605C79.3342 62.0383 79.1306 62.6407 79.1306 63.412V67H78.2076V60.162H79.0916V61.41C79.3342 60.994 79.6722 60.6733 80.1056 60.448C80.5389 60.2227 81.0372 60.11 81.6006 60.11C82.1726 60.11 82.6666 60.2313 83.0826 60.474C83.5072 60.7167 83.8236 61.0763 84.0316 61.553C84.2829 61.1023 84.6426 60.7513 85.1106 60.5C85.5872 60.24 86.1289 60.11 86.7356 60.11Z" fill="#00229A"/>
<path d="M190.748 61.631C192.065 61.631 193.023 61.8693 193.621 62.346C194.227 62.814 194.531 63.4727 194.531 64.322C194.531 64.8507 194.405 65.323 194.154 65.739C193.911 66.155 193.543 66.4843 193.049 66.727C192.555 66.961 191.948 67.078 191.229 67.078C190.579 67.078 189.959 66.974 189.37 66.766C188.789 66.5493 188.321 66.2633 187.966 65.908L188.421 65.167C188.724 65.479 189.123 65.7347 189.617 65.934C190.111 66.1247 190.644 66.22 191.216 66.22C191.97 66.22 192.55 66.051 192.958 65.713C193.374 65.375 193.582 64.9243 193.582 64.361C193.582 63.737 193.348 63.2647 192.88 62.944C192.42 62.6233 191.64 62.463 190.54 62.463H188.603L189.071 57.9H194.05V58.732H189.89L189.578 61.631H190.748ZM199.086 67.078C198.384 67.078 197.755 66.8917 197.201 66.519C196.655 66.1463 196.226 65.6133 195.914 64.92C195.61 64.218 195.459 63.3947 195.459 62.45C195.459 61.5053 195.61 60.6863 195.914 59.993C196.226 59.291 196.655 58.7537 197.201 58.381C197.755 58.0083 198.384 57.822 199.086 57.822C199.788 57.822 200.412 58.0083 200.958 58.381C201.512 58.7537 201.946 59.291 202.258 59.993C202.57 60.6863 202.726 61.5053 202.726 62.45C202.726 63.3947 202.57 64.218 202.258 64.92C201.946 65.6133 201.512 66.1463 200.958 66.519C200.412 66.8917 199.788 67.078 199.086 67.078ZM199.086 66.22C199.614 66.22 200.078 66.0727 200.477 65.778C200.884 65.4833 201.2 65.0543 201.426 64.491C201.651 63.9277 201.764 63.2473 201.764 62.45C201.764 61.6527 201.651 60.9723 201.426 60.409C201.2 59.8457 200.884 59.4167 200.477 59.122C200.078 58.8273 199.614 58.68 199.086 58.68C198.557 58.68 198.089 58.8273 197.682 59.122C197.283 59.4167 196.971 59.8457 196.746 60.409C196.52 60.9723 196.408 61.6527 196.408 62.45C196.408 63.2473 196.52 63.9277 196.746 64.491C196.971 65.0543 197.283 65.4833 197.682 65.778C198.089 66.0727 198.557 66.22 199.086 66.22ZM210.394 67.065C209.718 67.065 209.111 66.9177 208.574 66.623C208.045 66.3283 207.629 65.9167 207.326 65.388C207.022 64.8507 206.871 64.2483 206.871 63.581C206.871 62.9137 207.022 62.3157 207.326 61.787C207.629 61.2583 208.045 60.8467 208.574 60.552C209.111 60.2573 209.718 60.11 210.394 60.11C210.983 60.11 211.507 60.227 211.967 60.461C212.435 60.6863 212.803 61.02 213.072 61.462L212.383 61.93C212.157 61.592 211.871 61.3407 211.525 61.176C211.178 61.0027 210.801 60.916 210.394 60.916C209.9 60.916 209.453 61.0287 209.055 61.254C208.665 61.4707 208.357 61.7827 208.132 62.19C207.915 62.5973 207.807 63.061 207.807 63.581C207.807 64.1097 207.915 64.5777 208.132 64.985C208.357 65.3837 208.665 65.6957 209.055 65.921C209.453 66.1377 209.9 66.246 210.394 66.246C210.801 66.246 211.178 66.1637 211.525 65.999C211.871 65.8343 212.157 65.583 212.383 65.245L213.072 65.713C212.803 66.155 212.435 66.493 211.967 66.727C211.499 66.9523 210.974 67.065 210.394 67.065ZM223.153 60.11C224.011 60.11 224.682 60.357 225.168 60.851C225.662 61.345 225.909 62.073 225.909 63.035V67H224.986V63.126C224.986 62.4153 224.812 61.8737 224.466 61.501C224.128 61.1283 223.647 60.942 223.023 60.942C222.312 60.942 221.753 61.163 221.346 61.605C220.938 62.0383 220.735 62.6407 220.735 63.412V67H219.812V63.126C219.812 62.4153 219.638 61.8737 219.292 61.501C218.954 61.1283 218.468 60.942 217.836 60.942C217.134 60.942 216.575 61.163 216.159 61.605C215.751 62.0383 215.548 62.6407 215.548 63.412V67H214.625V60.162H215.509V61.41C215.751 60.994 216.089 60.6733 216.523 60.448C216.956 60.2227 217.454 60.11 218.018 60.11C218.59 60.11 219.084 60.2313 219.5 60.474C219.924 60.7167 220.241 61.0763 220.449 61.553C220.7 61.1023 221.06 60.7513 221.528 60.5C222.004 60.24 222.546 60.11 223.153 60.11Z" fill="#00229A"/>
<path d="M237.512 128.078C236.611 128.078 235.796 127.879 235.068 127.48C234.349 127.081 233.781 126.531 233.365 125.829C232.958 125.118 232.754 124.325 232.754 123.45C232.754 122.575 232.958 121.786 233.365 121.084C233.781 120.373 234.353 119.819 235.081 119.42C235.809 119.021 236.624 118.822 237.525 118.822C238.201 118.822 238.825 118.935 239.397 119.16C239.969 119.385 240.454 119.715 240.853 120.148L240.242 120.759C239.531 120.04 238.634 119.68 237.551 119.68C236.832 119.68 236.177 119.845 235.588 120.174C234.999 120.503 234.535 120.954 234.197 121.526C233.868 122.098 233.703 122.739 233.703 123.45C233.703 124.161 233.868 124.802 234.197 125.374C234.535 125.946 234.999 126.397 235.588 126.726C236.177 127.055 236.832 127.22 237.551 127.22C238.643 127.22 239.54 126.856 240.242 126.128L240.853 126.739C240.454 127.172 239.965 127.506 239.384 127.74C238.812 127.965 238.188 128.078 237.512 128.078ZM246.978 121.981H244.391V128H243.468V121.981H240.881V121.162H246.978V121.981ZM253.165 121.162V128H252.32V125.738H250.175H249.915L248.329 128H247.328L249.031 125.608C248.502 125.461 248.095 125.209 247.809 124.854C247.523 124.499 247.38 124.048 247.38 123.502C247.38 122.739 247.64 122.159 248.16 121.76C248.68 121.361 249.391 121.162 250.292 121.162H253.165ZM248.316 123.528C248.316 124.542 248.962 125.049 250.253 125.049H252.32V121.981H250.318C248.983 121.981 248.316 122.497 248.316 123.528ZM255.537 121.162H256.46V124.191H260.763V121.162H261.686V128H260.763V124.984H256.46V128H255.537V121.162ZM269.86 121.162L266.441 128.819C266.164 129.46 265.843 129.915 265.479 130.184C265.115 130.453 264.678 130.587 264.166 130.587C263.837 130.587 263.529 130.535 263.243 130.431C262.957 130.327 262.71 130.171 262.502 129.963L262.931 129.274C263.278 129.621 263.694 129.794 264.179 129.794C264.491 129.794 264.756 129.707 264.972 129.534C265.198 129.361 265.406 129.066 265.596 128.65L265.895 127.987L262.84 121.162H263.802L266.376 126.973L268.95 121.162H269.86ZM275.874 121.981H273.287V128H272.364V121.981H269.777V121.162H275.874V121.981ZM279.886 123.58C280.744 123.589 281.394 123.779 281.836 124.152C282.287 124.525 282.512 125.062 282.512 125.764C282.512 126.492 282.27 127.051 281.784 127.441C281.308 127.831 280.614 128.022 279.704 128.013L276.948 128V121.162H277.871V123.554L279.886 123.58ZM279.652 127.311C280.285 127.32 280.762 127.194 281.082 126.934C281.412 126.665 281.576 126.275 281.576 125.764C281.576 125.261 281.416 124.889 281.095 124.646C280.775 124.403 280.294 124.278 279.652 124.269L277.871 124.243V127.285L279.652 127.311ZM289.977 128.065C289.318 128.065 288.725 127.918 288.196 127.623C287.667 127.32 287.251 126.904 286.948 126.375C286.645 125.846 286.493 125.248 286.493 124.581C286.493 123.914 286.645 123.316 286.948 122.787C287.251 122.258 287.667 121.847 288.196 121.552C288.725 121.257 289.318 121.11 289.977 121.11C290.636 121.11 291.229 121.257 291.758 121.552C292.287 121.847 292.698 122.258 292.993 122.787C293.296 123.316 293.448 123.914 293.448 124.581C293.448 125.248 293.296 125.846 292.993 126.375C292.698 126.904 292.287 127.32 291.758 127.623C291.229 127.918 290.636 128.065 289.977 128.065ZM289.977 127.246C290.462 127.246 290.896 127.138 291.277 126.921C291.667 126.696 291.97 126.379 292.187 125.972C292.404 125.565 292.512 125.101 292.512 124.581C292.512 124.061 292.404 123.597 292.187 123.19C291.97 122.783 291.667 122.471 291.277 122.254C290.896 122.029 290.462 121.916 289.977 121.916C289.492 121.916 289.054 122.029 288.664 122.254C288.283 122.471 287.979 122.783 287.754 123.19C287.537 123.597 287.429 124.061 287.429 124.581C287.429 125.101 287.537 125.565 287.754 125.972C287.979 126.379 288.283 126.696 288.664 126.921C289.054 127.138 289.492 127.246 289.977 127.246ZM297.644 124.958H296.083V128H295.16V121.162H296.083V124.165H297.657L300.062 121.162H301.062L298.372 124.477L301.258 128H300.166L297.644 124.958ZM302.454 121.162H303.377V124.191H307.68V121.162H308.603V128H307.68V124.984H303.377V128H302.454V121.162ZM313.788 128.065C313.129 128.065 312.535 127.918 312.007 127.623C311.478 127.32 311.062 126.904 310.759 126.375C310.455 125.846 310.304 125.248 310.304 124.581C310.304 123.914 310.455 123.316 310.759 122.787C311.062 122.258 311.478 121.847 312.007 121.552C312.535 121.257 313.129 121.11 313.788 121.11C314.446 121.11 315.04 121.257 315.569 121.552C316.097 121.847 316.509 122.258 316.804 122.787C317.107 123.316 317.259 123.914 317.259 124.581C317.259 125.248 317.107 125.846 316.804 126.375C316.509 126.904 316.097 127.32 315.569 127.623C315.04 127.918 314.446 128.065 313.788 128.065ZM313.788 127.246C314.273 127.246 314.706 127.138 315.088 126.921C315.478 126.696 315.781 126.379 315.998 125.972C316.214 125.565 316.323 125.101 316.323 124.581C316.323 124.061 316.214 123.597 315.998 123.19C315.781 122.783 315.478 122.471 315.088 122.254C314.706 122.029 314.273 121.916 313.788 121.916C313.302 121.916 312.865 122.029 312.475 122.254C312.093 122.471 311.79 122.783 311.565 123.19C311.348 123.597 311.24 124.061 311.24 124.581C311.24 125.101 311.348 125.565 311.565 125.972C311.79 126.379 312.093 126.696 312.475 126.921C312.865 127.138 313.302 127.246 313.788 127.246ZM236.173 143.065C235.497 143.065 234.89 142.918 234.353 142.623C233.824 142.328 233.408 141.917 233.105 141.388C232.802 140.851 232.65 140.248 232.65 139.581C232.65 138.914 232.802 138.316 233.105 137.787C233.408 137.258 233.824 136.847 234.353 136.552C234.89 136.257 235.497 136.11 236.173 136.11C236.762 136.11 237.287 136.227 237.746 136.461C238.214 136.686 238.582 137.02 238.851 137.462L238.162 137.93C237.937 137.592 237.651 137.341 237.304 137.176C236.957 137.003 236.58 136.916 236.173 136.916C235.679 136.916 235.233 137.029 234.834 137.254C234.444 137.471 234.136 137.783 233.911 138.19C233.694 138.597 233.586 139.061 233.586 139.581C233.586 140.11 233.694 140.578 233.911 140.985C234.136 141.384 234.444 141.696 234.834 141.921C235.233 142.138 235.679 142.246 236.173 142.246C236.58 142.246 236.957 142.164 237.304 141.999C237.651 141.834 237.937 141.583 238.162 141.245L238.851 141.713C238.582 142.155 238.214 142.493 237.746 142.727C237.278 142.952 236.754 143.065 236.173 143.065ZM250.19 142.194V144.651H249.319V143H243.196V144.651H242.325V142.194H242.715C243.174 142.168 243.486 141.83 243.651 141.18C243.815 140.53 243.928 139.62 243.989 138.45L244.08 136.162H249.124V142.194H250.19ZM244.834 138.502C244.79 139.473 244.708 140.274 244.587 140.907C244.465 141.531 244.249 141.96 243.937 142.194H248.201V136.981H244.912L244.834 138.502ZM256.083 139.464C257.011 139.681 257.474 140.24 257.474 141.141C257.474 141.739 257.253 142.198 256.811 142.519C256.369 142.84 255.711 143 254.835 143H251.728V136.162H254.744C255.524 136.162 256.135 136.314 256.577 136.617C257.019 136.92 257.24 137.354 257.24 137.917C257.24 138.29 257.136 138.61 256.928 138.879C256.729 139.139 256.447 139.334 256.083 139.464ZM252.625 139.204H254.679C255.208 139.204 255.611 139.104 255.888 138.905C256.174 138.706 256.317 138.415 256.317 138.034C256.317 137.653 256.174 137.367 255.888 137.176C255.611 136.985 255.208 136.89 254.679 136.89H252.625V139.204ZM254.796 142.272C255.386 142.272 255.828 142.177 256.122 141.986C256.417 141.795 256.564 141.496 256.564 141.089C256.564 140.682 256.43 140.383 256.161 140.192C255.893 139.993 255.468 139.893 254.887 139.893H252.625V142.272H254.796ZM265.188 136.162L261.769 143.819C261.492 144.46 261.171 144.915 260.807 145.184C260.443 145.453 260.006 145.587 259.494 145.587C259.165 145.587 258.857 145.535 258.571 145.431C258.285 145.327 258.038 145.171 257.83 144.963L258.259 144.274C258.606 144.621 259.022 144.794 259.507 144.794C259.819 144.794 260.084 144.707 260.3 144.534C260.526 144.361 260.734 144.066 260.924 143.65L261.223 142.987L258.168 136.162H259.13L261.704 141.973L264.278 136.162H265.188ZM270.25 143L268.079 140.14L265.895 143H264.855L267.559 139.49L264.985 136.162H266.025L268.079 138.84L270.133 136.162H271.147L268.573 139.49L271.303 143H270.25ZM278.558 143.065C277.882 143.065 277.275 142.918 276.738 142.623C276.209 142.328 275.793 141.917 275.49 141.388C275.187 140.851 275.035 140.248 275.035 139.581C275.035 138.914 275.187 138.316 275.49 137.787C275.793 137.258 276.209 136.847 276.738 136.552C277.275 136.257 277.882 136.11 278.558 136.11C279.147 136.11 279.672 136.227 280.131 136.461C280.599 136.686 280.967 137.02 281.236 137.462L280.547 137.93C280.322 137.592 280.036 137.341 279.689 137.176C279.342 137.003 278.965 136.916 278.558 136.916C278.064 136.916 277.618 137.029 277.219 137.254C276.829 137.471 276.521 137.783 276.296 138.19C276.079 138.597 275.971 139.061 275.971 139.581C275.971 140.11 276.079 140.578 276.296 140.985C276.521 141.384 276.829 141.696 277.219 141.921C277.618 142.138 278.064 142.246 278.558 142.246C278.965 142.246 279.342 142.164 279.689 141.999C280.036 141.834 280.322 141.583 280.547 141.245L281.236 141.713C280.967 142.155 280.599 142.493 280.131 142.727C279.663 142.952 279.139 143.065 278.558 143.065ZM287.446 136.981H284.859V143H283.936V136.981H281.349V136.162H287.446V136.981ZM291.024 143.065C290.366 143.065 289.772 142.918 289.243 142.623C288.715 142.32 288.299 141.904 287.995 141.375C287.692 140.846 287.54 140.248 287.54 139.581C287.54 138.914 287.692 138.316 287.995 137.787C288.299 137.258 288.715 136.847 289.243 136.552C289.772 136.257 290.366 136.11 291.024 136.11C291.683 136.11 292.277 136.257 292.805 136.552C293.334 136.847 293.746 137.258 294.04 137.787C294.344 138.316 294.495 138.914 294.495 139.581C294.495 140.248 294.344 140.846 294.04 141.375C293.746 141.904 293.334 142.32 292.805 142.623C292.277 142.918 291.683 143.065 291.024 143.065ZM291.024 142.246C291.51 142.246 291.943 142.138 292.324 141.921C292.714 141.696 293.018 141.379 293.234 140.972C293.451 140.565 293.559 140.101 293.559 139.581C293.559 139.061 293.451 138.597 293.234 138.19C293.018 137.783 292.714 137.471 292.324 137.254C291.943 137.029 291.51 136.916 291.024 136.916C290.539 136.916 290.101 137.029 289.711 137.254C289.33 137.471 289.027 137.783 288.801 138.19C288.585 138.597 288.476 139.061 288.476 139.581C288.476 140.101 288.585 140.565 288.801 140.972C289.027 141.379 289.33 141.696 289.711 141.921C290.101 142.138 290.539 142.246 291.024 142.246ZM299.731 136.11C300.372 136.11 300.953 136.257 301.473 136.552C301.993 136.838 302.4 137.245 302.695 137.774C302.99 138.303 303.137 138.905 303.137 139.581C303.137 140.266 302.99 140.872 302.695 141.401C302.4 141.93 301.993 142.341 301.473 142.636C300.962 142.922 300.381 143.065 299.731 143.065C299.176 143.065 298.674 142.952 298.223 142.727C297.781 142.493 297.417 142.155 297.131 141.713V145.522H296.208V136.162H297.092V137.514C297.369 137.063 297.733 136.717 298.184 136.474C298.643 136.231 299.159 136.11 299.731 136.11ZM299.666 142.246C300.143 142.246 300.576 142.138 300.966 141.921C301.356 141.696 301.659 141.379 301.876 140.972C302.101 140.565 302.214 140.101 302.214 139.581C302.214 139.061 302.101 138.602 301.876 138.203C301.659 137.796 301.356 137.479 300.966 137.254C300.576 137.029 300.143 136.916 299.666 136.916C299.181 136.916 298.743 137.029 298.353 137.254C297.972 137.479 297.668 137.796 297.443 138.203C297.226 138.602 297.118 139.061 297.118 139.581C297.118 140.101 297.226 140.565 297.443 140.972C297.668 141.379 297.972 141.696 298.353 141.921C298.743 142.138 299.181 142.246 299.666 142.246ZM307.681 143.065C307.023 143.065 306.429 142.918 305.9 142.623C305.372 142.32 304.956 141.904 304.652 141.375C304.349 140.846 304.197 140.248 304.197 139.581C304.197 138.914 304.349 138.316 304.652 137.787C304.956 137.258 305.372 136.847 305.9 136.552C306.429 136.257 307.023 136.11 307.681 136.11C308.34 136.11 308.934 136.257 309.462 136.552C309.991 136.847 310.403 137.258 310.697 137.787C311.001 138.316 311.152 138.914 311.152 139.581C311.152 140.248 311.001 140.846 310.697 141.375C310.403 141.904 309.991 142.32 309.462 142.623C308.934 142.918 308.34 143.065 307.681 143.065ZM307.681 142.246C308.167 142.246 308.6 142.138 308.981 141.921C309.371 141.696 309.675 141.379 309.891 140.972C310.108 140.565 310.216 140.101 310.216 139.581C310.216 139.061 310.108 138.597 309.891 138.19C309.675 137.783 309.371 137.471 308.981 137.254C308.6 137.029 308.167 136.916 307.681 136.916C307.196 136.916 306.758 137.029 306.368 137.254C305.987 137.471 305.684 137.783 305.458 138.19C305.242 138.597 305.133 139.061 305.133 139.581C305.133 140.101 305.242 140.565 305.458 140.972C305.684 141.379 305.987 141.696 306.368 141.921C306.758 142.138 307.196 142.246 307.681 142.246ZM312.865 136.162H313.788V139.191H318.091V136.162H319.014V143H318.091V139.984H313.788V143H312.865V136.162ZM236.173 158.065C235.497 158.065 234.89 157.918 234.353 157.623C233.824 157.328 233.408 156.917 233.105 156.388C232.802 155.851 232.65 155.248 232.65 154.581C232.65 153.914 232.802 153.316 233.105 152.787C233.408 152.258 233.824 151.847 234.353 151.552C234.89 151.257 235.497 151.11 236.173 151.11C236.762 151.11 237.287 151.227 237.746 151.461C238.214 151.686 238.582 152.02 238.851 152.462L238.162 152.93C237.937 152.592 237.651 152.341 237.304 152.176C236.957 152.003 236.58 151.916 236.173 151.916C235.679 151.916 235.233 152.029 234.834 152.254C234.444 152.471 234.136 152.783 233.911 153.19C233.694 153.597 233.586 154.061 233.586 154.581C233.586 155.11 233.694 155.578 233.911 155.985C234.136 156.384 234.444 156.696 234.834 156.921C235.233 157.138 235.679 157.246 236.173 157.246C236.58 157.246 236.957 157.164 237.304 156.999C237.651 156.834 237.937 156.583 238.162 156.245L238.851 156.713C238.582 157.155 238.214 157.493 237.746 157.727C237.278 157.952 236.754 158.065 236.173 158.065ZM249.657 151.162V158H248.734V151.981H244.444V158H243.521V151.162H249.657ZM254.841 158.065C254.183 158.065 253.589 157.918 253.06 157.623C252.532 157.32 252.116 156.904 251.812 156.375C251.509 155.846 251.357 155.248 251.357 154.581C251.357 153.914 251.509 153.316 251.812 152.787C252.116 152.258 252.532 151.847 253.06 151.552C253.589 151.257 254.183 151.11 254.841 151.11C255.5 151.11 256.094 151.257 256.622 151.552C257.151 151.847 257.563 152.258 257.857 152.787C258.161 153.316 258.312 153.914 258.312 154.581C258.312 155.248 258.161 155.846 257.857 156.375C257.563 156.904 257.151 157.32 256.622 157.623C256.094 157.918 255.5 158.065 254.841 158.065ZM254.841 157.246C255.327 157.246 255.76 157.138 256.141 156.921C256.531 156.696 256.835 156.379 257.051 155.972C257.268 155.565 257.376 155.101 257.376 154.581C257.376 154.061 257.268 153.597 257.051 153.19C256.835 152.783 256.531 152.471 256.141 152.254C255.76 152.029 255.327 151.916 254.841 151.916C254.356 151.916 253.918 152.029 253.528 152.254C253.147 152.471 252.844 152.783 252.618 153.19C252.402 153.597 252.293 154.061 252.293 154.581C252.293 155.101 252.402 155.565 252.618 155.972C252.844 156.379 253.147 156.696 253.528 156.921C253.918 157.138 254.356 157.246 254.841 157.246ZM267.669 151.162V158H266.824V152.592L264.055 157.168H263.639L260.87 152.579V158H260.025V151.162H260.961L263.86 156.089L266.811 151.162H267.669ZM272.856 158.065C272.198 158.065 271.604 157.918 271.075 157.623C270.547 157.32 270.131 156.904 269.827 156.375C269.524 155.846 269.372 155.248 269.372 154.581C269.372 153.914 269.524 153.316 269.827 152.787C270.131 152.258 270.547 151.847 271.075 151.552C271.604 151.257 272.198 151.11 272.856 151.11C273.515 151.11 274.109 151.257 274.637 151.552C275.166 151.847 275.578 152.258 275.872 152.787C276.176 153.316 276.327 153.914 276.327 154.581C276.327 155.248 276.176 155.846 275.872 156.375C275.578 156.904 275.166 157.32 274.637 157.623C274.109 157.918 273.515 158.065 272.856 158.065ZM272.856 157.246C273.342 157.246 273.775 157.138 274.156 156.921C274.546 156.696 274.85 156.379 275.066 155.972C275.283 155.565 275.391 155.101 275.391 154.581C275.391 154.061 275.283 153.597 275.066 153.19C274.85 152.783 274.546 152.471 274.156 152.254C273.775 152.029 273.342 151.916 272.856 151.916C272.371 151.916 271.933 152.029 271.543 152.254C271.162 152.471 270.859 152.783 270.633 153.19C270.417 153.597 270.308 154.061 270.308 154.581C270.308 155.101 270.417 155.565 270.633 155.972C270.859 156.379 271.162 156.696 271.543 156.921C271.933 157.138 272.371 157.246 272.856 157.246ZM287.478 151.162V158H278.04V151.162H278.963V157.194H282.317V151.162H283.24V157.194H286.555V151.162H287.478ZM288.531 157.194V159.495H287.66V158H286.503V157.194H288.531ZM292.791 153.58C293.649 153.589 294.299 153.779 294.741 154.152C295.192 154.525 295.417 155.062 295.417 155.764C295.417 156.492 295.175 157.051 294.689 157.441C294.213 157.831 293.519 158.022 292.609 158.013L289.853 158V151.162H290.776V153.554L292.791 153.58ZM292.557 157.311C293.19 157.32 293.667 157.194 293.987 156.934C294.317 156.665 294.481 156.275 294.481 155.764C294.481 155.261 294.321 154.889 294 154.646C293.68 154.403 293.199 154.278 292.557 154.269L290.776 154.243V157.285L292.557 157.311ZM302.795 151.11C303.436 151.11 304.012 151.257 304.524 151.552C305.044 151.847 305.451 152.258 305.746 152.787C306.04 153.316 306.188 153.914 306.188 154.581C306.188 155.248 306.04 155.846 305.746 156.375C305.451 156.904 305.044 157.32 304.524 157.623C304.012 157.918 303.436 158.065 302.795 158.065C302.188 158.065 301.638 157.935 301.144 157.675C300.65 157.406 300.247 157.038 299.935 156.57C299.631 156.102 299.454 155.565 299.402 154.958H297.842V158H296.919V151.162H297.842V154.113H299.415C299.484 153.524 299.67 153.004 299.974 152.553C300.286 152.094 300.684 151.738 301.17 151.487C301.655 151.236 302.197 151.11 302.795 151.11ZM302.795 157.259C303.263 157.259 303.683 157.146 304.056 156.921C304.437 156.696 304.736 156.379 304.953 155.972C305.169 155.565 305.278 155.101 305.278 154.581C305.278 154.061 305.169 153.597 304.953 153.19C304.736 152.783 304.437 152.471 304.056 152.254C303.683 152.029 303.263 151.916 302.795 151.916C302.327 151.916 301.902 152.029 301.521 152.254C301.148 152.471 300.853 152.783 300.637 153.19C300.42 153.597 300.312 154.061 300.312 154.581C300.312 155.101 300.42 155.565 300.637 155.972C300.853 156.379 301.148 156.696 301.521 156.921C301.902 157.146 302.327 157.259 302.795 157.259ZM239.982 172.194V174.651H239.111V173H232.988V174.651H232.117V172.194H232.507C232.966 172.168 233.278 171.83 233.443 171.18C233.608 170.53 233.72 169.62 233.781 168.45L233.872 166.162H238.916V172.194H239.982ZM234.626 168.502C234.583 169.473 234.5 170.274 234.379 170.907C234.258 171.531 234.041 171.96 233.729 172.194H237.993V166.981H234.704L234.626 168.502ZM244.342 173.065C243.683 173.065 243.089 172.918 242.561 172.623C242.032 172.32 241.616 171.904 241.313 171.375C241.009 170.846 240.858 170.248 240.858 169.581C240.858 168.914 241.009 168.316 241.313 167.787C241.616 167.258 242.032 166.847 242.561 166.552C243.089 166.257 243.683 166.11 244.342 166.11C245 166.11 245.594 166.257 246.123 166.552C246.651 166.847 247.063 167.258 247.358 167.787C247.661 168.316 247.813 168.914 247.813 169.581C247.813 170.248 247.661 170.846 247.358 171.375C247.063 171.904 246.651 172.32 246.123 172.623C245.594 172.918 245 173.065 244.342 173.065ZM244.342 172.246C244.827 172.246 245.26 172.138 245.642 171.921C246.032 171.696 246.335 171.379 246.552 170.972C246.768 170.565 246.877 170.101 246.877 169.581C246.877 169.061 246.768 168.597 246.552 168.19C246.335 167.783 246.032 167.471 245.642 167.254C245.26 167.029 244.827 166.916 244.342 166.916C243.856 166.916 243.419 167.029 243.029 167.254C242.647 167.471 242.344 167.783 242.119 168.19C241.902 168.597 241.794 169.061 241.794 169.581C241.794 170.101 241.902 170.565 242.119 170.972C242.344 171.379 242.647 171.696 243.029 171.921C243.419 172.138 243.856 172.246 244.342 172.246ZM252.385 173.065C251.709 173.065 251.103 172.918 250.565 172.623C250.037 172.328 249.621 171.917 249.317 171.388C249.014 170.851 248.862 170.248 248.862 169.581C248.862 168.914 249.014 168.316 249.317 167.787C249.621 167.258 250.037 166.847 250.565 166.552C251.103 166.257 251.709 166.11 252.385 166.11C252.975 166.11 253.499 166.227 253.958 166.461C254.426 166.686 254.795 167.02 255.063 167.462L254.374 167.93C254.149 167.592 253.863 167.341 253.516 167.176C253.17 167.003 252.793 166.916 252.385 166.916C251.891 166.916 251.445 167.029 251.046 167.254C250.656 167.471 250.349 167.783 250.123 168.19C249.907 168.597 249.798 169.061 249.798 169.581C249.798 170.11 249.907 170.578 250.123 170.985C250.349 171.384 250.656 171.696 251.046 171.921C251.445 172.138 251.891 172.246 252.385 172.246C252.793 172.246 253.17 172.164 253.516 171.999C253.863 171.834 254.149 171.583 254.374 171.245L255.063 171.713C254.795 172.155 254.426 172.493 253.958 172.727C253.49 172.952 252.966 173.065 252.385 173.065ZM259.297 173.065C258.639 173.065 258.045 172.918 257.516 172.623C256.988 172.32 256.572 171.904 256.268 171.375C255.965 170.846 255.813 170.248 255.813 169.581C255.813 168.914 255.965 168.316 256.268 167.787C256.572 167.258 256.988 166.847 257.516 166.552C258.045 166.257 258.639 166.11 259.297 166.11C259.956 166.11 260.55 166.257 261.078 166.552C261.607 166.847 262.019 167.258 262.313 167.787C262.617 168.316 262.768 168.914 262.768 169.581C262.768 170.248 262.617 170.846 262.313 171.375C262.019 171.904 261.607 172.32 261.078 172.623C260.55 172.918 259.956 173.065 259.297 173.065ZM259.297 172.246C259.783 172.246 260.216 172.138 260.597 171.921C260.987 171.696 261.291 171.379 261.507 170.972C261.724 170.565 261.832 170.101 261.832 169.581C261.832 169.061 261.724 168.597 261.507 168.19C261.291 167.783 260.987 167.471 260.597 167.254C260.216 167.029 259.783 166.916 259.297 166.916C258.812 166.916 258.374 167.029 257.984 167.254C257.603 167.471 257.3 167.783 257.074 168.19C256.858 168.597 256.749 169.061 256.749 169.581C256.749 170.101 256.858 170.565 257.074 170.972C257.3 171.379 257.603 171.696 257.984 171.921C258.374 172.138 258.812 172.246 259.297 172.246ZM266.964 169.958H265.404V173H264.481V166.162H265.404V169.165H266.977L269.382 166.162H270.383L267.692 169.477L270.578 173H269.486L266.964 169.958ZM274.917 166.162H275.84V171.596L280.403 166.162H281.222V173H280.299V167.566L275.749 173H274.917V166.162ZM239.449 181.162V188H238.526V181.981H234.236V188H233.313V181.162H239.449ZM245.336 181.11C245.977 181.11 246.558 181.257 247.078 181.552C247.598 181.838 248.005 182.245 248.3 182.774C248.594 183.303 248.742 183.905 248.742 184.581C248.742 185.266 248.594 185.872 248.3 186.401C248.005 186.93 247.598 187.341 247.078 187.636C246.566 187.922 245.986 188.065 245.336 188.065C244.781 188.065 244.278 187.952 243.828 187.727C243.386 187.493 243.022 187.155 242.736 186.713V190.522H241.813V181.162H242.697V182.514C242.974 182.063 243.338 181.717 243.789 181.474C244.248 181.231 244.764 181.11 245.336 181.11ZM245.271 187.246C245.747 187.246 246.181 187.138 246.571 186.921C246.961 186.696 247.264 186.379 247.481 185.972C247.706 185.565 247.819 185.101 247.819 184.581C247.819 184.061 247.706 183.602 247.481 183.203C247.264 182.796 246.961 182.479 246.571 182.254C246.181 182.029 245.747 181.916 245.271 181.916C244.785 181.916 244.348 182.029 243.958 182.254C243.576 182.479 243.273 182.796 243.048 183.203C242.831 183.602 242.723 184.061 242.723 184.581C242.723 185.101 242.831 185.565 243.048 185.972C243.273 186.379 243.576 186.696 243.958 186.921C244.348 187.138 244.785 187.246 245.271 187.246ZM253.286 188.065C252.627 188.065 252.034 187.918 251.505 187.623C250.976 187.32 250.56 186.904 250.257 186.375C249.954 185.846 249.802 185.248 249.802 184.581C249.802 183.914 249.954 183.316 250.257 182.787C250.56 182.258 250.976 181.847 251.505 181.552C252.034 181.257 252.627 181.11 253.286 181.11C253.945 181.11 254.538 181.257 255.067 181.552C255.596 181.847 256.007 182.258 256.302 182.787C256.605 183.316 256.757 183.914 256.757 184.581C256.757 185.248 256.605 185.846 256.302 186.375C256.007 186.904 255.596 187.32 255.067 187.623C254.538 187.918 253.945 188.065 253.286 188.065ZM253.286 187.246C253.771 187.246 254.205 187.138 254.586 186.921C254.976 186.696 255.279 186.379 255.496 185.972C255.713 185.565 255.821 185.101 255.821 184.581C255.821 184.061 255.713 183.597 255.496 183.19C255.279 182.783 254.976 182.471 254.586 182.254C254.205 182.029 253.771 181.916 253.286 181.916C252.801 181.916 252.363 182.029 251.973 182.254C251.592 182.471 251.288 182.783 251.063 183.19C250.846 183.597 250.738 184.061 250.738 184.581C250.738 185.101 250.846 185.565 251.063 185.972C251.288 186.379 251.592 186.696 251.973 186.921C252.363 187.138 252.801 187.246 253.286 187.246ZM262.825 184.464C263.752 184.681 264.216 185.24 264.216 186.141C264.216 186.739 263.995 187.198 263.553 187.519C263.111 187.84 262.452 188 261.577 188H258.47V181.162H261.486C262.266 181.162 262.877 181.314 263.319 181.617C263.761 181.92 263.982 182.354 263.982 182.917C263.982 183.29 263.878 183.61 263.67 183.879C263.47 184.139 263.189 184.334 262.825 184.464ZM259.367 184.204H261.421C261.949 184.204 262.352 184.104 262.63 183.905C262.916 183.706 263.059 183.415 263.059 183.034C263.059 182.653 262.916 182.367 262.63 182.176C262.352 181.985 261.949 181.89 261.421 181.89H259.367V184.204ZM261.538 187.272C262.127 187.272 262.569 187.177 262.864 186.986C263.158 186.795 263.306 186.496 263.306 186.089C263.306 185.682 263.171 185.383 262.903 185.192C262.634 184.993 262.209 184.893 261.629 184.893H259.367V187.272H261.538ZM268.94 188.065C268.281 188.065 267.687 187.918 267.159 187.623C266.63 187.32 266.214 186.904 265.911 186.375C265.607 185.846 265.456 185.248 265.456 184.581C265.456 183.914 265.607 183.316 265.911 182.787C266.214 182.258 266.63 181.847 267.159 181.552C267.687 181.257 268.281 181.11 268.94 181.11C269.598 181.11 270.192 181.257 270.721 181.552C271.249 181.847 271.661 182.258 271.956 182.787C272.259 183.316 272.411 183.914 272.411 184.581C272.411 185.248 272.259 185.846 271.956 186.375C271.661 186.904 271.249 187.32 270.721 187.623C270.192 187.918 269.598 188.065 268.94 188.065ZM268.94 187.246C269.425 187.246 269.858 187.138 270.24 186.921C270.63 186.696 270.933 186.379 271.15 185.972C271.366 185.565 271.475 185.101 271.475 184.581C271.475 184.061 271.366 183.597 271.15 183.19C270.933 182.783 270.63 182.471 270.24 182.254C269.858 182.029 269.425 181.916 268.94 181.916C268.454 181.916 268.017 182.029 267.627 182.254C267.245 182.471 266.942 182.783 266.717 183.19C266.5 183.597 266.392 184.061 266.392 184.581C266.392 185.101 266.5 185.565 266.717 185.972C266.942 186.379 267.245 186.696 267.627 186.921C268.017 187.138 268.454 187.246 268.94 187.246ZM279.675 181.162V188H278.752V181.981H275.476L275.385 183.671C275.316 185.092 275.151 186.184 274.891 186.947C274.631 187.71 274.168 188.091 273.5 188.091C273.318 188.091 273.097 188.056 272.837 187.987L272.902 187.194C273.058 187.229 273.167 187.246 273.227 187.246C273.583 187.246 273.851 187.081 274.033 186.752C274.215 186.423 274.337 186.015 274.397 185.53C274.458 185.045 274.51 184.403 274.553 183.606L274.67 181.162H279.675ZM284.86 188.065C284.201 188.065 283.608 187.918 283.079 187.623C282.55 187.32 282.134 186.904 281.831 186.375C281.528 185.846 281.376 185.248 281.376 184.581C281.376 183.914 281.528 183.316 281.831 182.787C282.134 182.258 282.55 181.847 283.079 181.552C283.608 181.257 284.201 181.11 284.86 181.11C285.519 181.11 286.112 181.257 286.641 181.552C287.17 181.847 287.581 182.258 287.876 182.787C288.179 183.316 288.331 183.914 288.331 184.581C288.331 185.248 288.179 185.846 287.876 186.375C287.581 186.904 287.17 187.32 286.641 187.623C286.112 187.918 285.519 188.065 284.86 188.065ZM284.86 187.246C285.345 187.246 285.779 187.138 286.16 186.921C286.55 186.696 286.853 186.379 287.07 185.972C287.287 185.565 287.395 185.101 287.395 184.581C287.395 184.061 287.287 183.597 287.07 183.19C286.853 182.783 286.55 182.471 286.16 182.254C285.779 182.029 285.345 181.916 284.86 181.916C284.375 181.916 283.937 182.029 283.547 182.254C283.166 182.471 282.862 182.783 282.637 183.19C282.42 183.597 282.312 184.061 282.312 184.581C282.312 185.101 282.42 185.565 282.637 185.972C282.862 186.379 283.166 186.696 283.547 186.921C283.937 187.138 284.375 187.246 284.86 187.246ZM292.527 184.958H290.967V188H290.044V181.162H290.967V184.165H292.54L294.945 181.162H295.946L293.255 184.477L296.141 188H295.049L292.527 184.958ZM297.337 181.162H298.26V186.596L302.823 181.162H303.642V188H302.719V182.566L298.169 188H297.337V181.162ZM233.313 196.162H234.236V201.596L238.799 196.162H239.618V203H238.695V197.566L234.145 203H233.313V196.162ZM247.593 196.162V203H246.67V196.981H243.394L243.303 198.671C243.234 200.092 243.069 201.184 242.809 201.947C242.549 202.71 242.086 203.091 241.418 203.091C241.236 203.091 241.015 203.056 240.755 202.987L240.82 202.194C240.976 202.229 241.085 202.246 241.145 202.246C241.501 202.246 241.769 202.081 241.951 201.752C242.133 201.423 242.255 201.015 242.315 200.53C242.376 200.045 242.428 199.403 242.471 198.606L242.588 196.162H247.593ZM249.957 196.162H250.88V201.596L255.443 196.162H256.262V203H255.339V197.566L250.789 203H249.957V196.162ZM266.145 199.464C267.072 199.681 267.536 200.24 267.536 201.141C267.536 201.739 267.315 202.198 266.873 202.519C266.431 202.84 265.772 203 264.897 203H261.79V196.162H264.806C265.586 196.162 266.197 196.314 266.639 196.617C267.081 196.92 267.302 197.354 267.302 197.917C267.302 198.29 267.198 198.61 266.99 198.879C266.79 199.139 266.509 199.334 266.145 199.464ZM262.687 199.204H264.741C265.269 199.204 265.672 199.104 265.95 198.905C266.236 198.706 266.379 198.415 266.379 198.034C266.379 197.653 266.236 197.367 265.95 197.176C265.672 196.985 265.269 196.89 264.741 196.89H262.687V199.204ZM264.858 202.272C265.447 202.272 265.889 202.177 266.184 201.986C266.478 201.795 266.626 201.496 266.626 201.089C266.626 200.682 266.491 200.383 266.223 200.192C265.954 199.993 265.529 199.893 264.949 199.893H262.687V202.272H264.858ZM275.419 199.867H269.699C269.751 200.578 270.024 201.154 270.518 201.596C271.012 202.029 271.636 202.246 272.39 202.246C272.814 202.246 273.204 202.172 273.56 202.025C273.915 201.869 274.223 201.644 274.483 201.349L275.003 201.947C274.699 202.311 274.318 202.588 273.859 202.779C273.408 202.97 272.91 203.065 272.364 203.065C271.662 203.065 271.038 202.918 270.492 202.623C269.954 202.32 269.534 201.904 269.231 201.375C268.927 200.846 268.776 200.248 268.776 199.581C268.776 198.914 268.919 198.316 269.205 197.787C269.499 197.258 269.898 196.847 270.401 196.552C270.912 196.257 271.484 196.11 272.117 196.11C272.749 196.11 273.317 196.257 273.82 196.552C274.322 196.847 274.717 197.258 275.003 197.787C275.289 198.307 275.432 198.905 275.432 199.581L275.419 199.867ZM272.117 196.903C271.458 196.903 270.903 197.115 270.453 197.54C270.011 197.956 269.759 198.502 269.699 199.178H274.548C274.487 198.502 274.231 197.956 273.781 197.54C273.339 197.115 272.784 196.903 272.117 196.903ZM280.738 196.11C281.379 196.11 281.96 196.257 282.48 196.552C283 196.838 283.407 197.245 283.702 197.774C283.997 198.303 284.144 198.905 284.144 199.581C284.144 200.266 283.997 200.872 283.702 201.401C283.407 201.93 283 202.341 282.48 202.636C281.969 202.922 281.388 203.065 280.738 203.065C280.183 203.065 279.681 202.952 279.23 202.727C278.788 202.493 278.424 202.155 278.138 201.713V205.522H277.215V196.162H278.099V197.514C278.376 197.063 278.74 196.717 279.191 196.474C279.65 196.231 280.166 196.11 280.738 196.11ZM280.673 202.246C281.15 202.246 281.583 202.138 281.973 201.921C282.363 201.696 282.666 201.379 282.883 200.972C283.108 200.565 283.221 200.101 283.221 199.581C283.221 199.061 283.108 198.602 282.883 198.203C282.666 197.796 282.363 197.479 281.973 197.254C281.583 197.029 281.15 196.916 280.673 196.916C280.188 196.916 279.75 197.029 279.36 197.254C278.979 197.479 278.675 197.796 278.45 198.203C278.233 198.602 278.125 199.061 278.125 199.581C278.125 200.101 278.233 200.565 278.45 200.972C278.675 201.379 278.979 201.696 279.36 201.921C279.75 202.138 280.188 202.246 280.673 202.246ZM291.847 199.867H286.127C286.179 200.578 286.452 201.154 286.946 201.596C287.44 202.029 288.064 202.246 288.818 202.246C289.243 202.246 289.633 202.172 289.988 202.025C290.343 201.869 290.651 201.644 290.911 201.349L291.431 201.947C291.128 202.311 290.746 202.588 290.287 202.779C289.836 202.97 289.338 203.065 288.792 203.065C288.09 203.065 287.466 202.918 286.92 202.623C286.383 202.32 285.962 201.904 285.659 201.375C285.356 200.846 285.204 200.248 285.204 199.581C285.204 198.914 285.347 198.316 285.633 197.787C285.928 197.258 286.326 196.847 286.829 196.552C287.34 196.257 287.912 196.11 288.545 196.11C289.178 196.11 289.745 196.257 290.248 196.552C290.751 196.847 291.145 197.258 291.431 197.787C291.717 198.307 291.86 198.905 291.86 199.581L291.847 199.867ZM288.545 196.903C287.886 196.903 287.332 197.115 286.881 197.54C286.439 197.956 286.188 198.502 286.127 199.178H290.976C290.915 198.502 290.66 197.956 290.209 197.54C289.767 197.115 289.212 196.903 288.545 196.903ZM297.998 199.464C298.925 199.681 299.389 200.24 299.389 201.141C299.389 201.739 299.168 202.198 298.726 202.519C298.284 202.84 297.625 203 296.75 203H293.643V196.162H296.659C297.439 196.162 298.05 196.314 298.492 196.617C298.934 196.92 299.155 197.354 299.155 197.917C299.155 198.29 299.051 198.61 298.843 198.879C298.644 199.139 298.362 199.334 297.998 199.464ZM294.54 199.204H296.594C297.123 199.204 297.526 199.104 297.803 198.905C298.089 198.706 298.232 198.415 298.232 198.034C298.232 197.653 298.089 197.367 297.803 197.176C297.526 196.985 297.123 196.89 296.594 196.89H294.54V199.204ZM296.711 202.272C297.3 202.272 297.742 202.177 298.037 201.986C298.332 201.795 298.479 201.496 298.479 201.089C298.479 200.682 298.345 200.383 298.076 200.192C297.807 199.993 297.383 199.893 296.802 199.893H294.54V202.272H296.711ZM303.775 199.958H302.215V203H301.292V196.162H302.215V199.165H303.788L306.193 196.162H307.194L304.503 199.477L307.389 203H306.297L303.775 199.958ZM308.586 196.162H309.509V201.596L314.072 196.162H314.891V203H313.968V197.566L309.418 203H308.586V196.162Z" fill="#00229A"/>
<path d="M241.893 225.168V228.041H240.996V226H233.053L233.04 228.041H232.143L232.156 225.168H232.611C233.209 225.133 233.625 224.661 233.859 223.751C234.093 222.832 234.236 221.532 234.288 219.851L234.392 216.9H240.528V225.168H241.893ZM235.146 219.942C235.103 221.329 234.994 222.473 234.821 223.374C234.656 224.267 234.375 224.865 233.976 225.168H239.579V217.732H235.224L235.146 219.942ZM246.005 226.065C245.346 226.065 244.753 225.918 244.224 225.623C243.695 225.32 243.279 224.904 242.976 224.375C242.673 223.846 242.521 223.248 242.521 222.581C242.521 221.914 242.673 221.316 242.976 220.787C243.279 220.258 243.695 219.847 244.224 219.552C244.753 219.257 245.346 219.11 246.005 219.11C246.664 219.11 247.257 219.257 247.786 219.552C248.315 219.847 248.726 220.258 249.021 220.787C249.324 221.316 249.476 221.914 249.476 222.581C249.476 223.248 249.324 223.846 249.021 224.375C248.726 224.904 248.315 225.32 247.786 225.623C247.257 225.918 246.664 226.065 246.005 226.065ZM246.005 225.246C246.49 225.246 246.924 225.138 247.305 224.921C247.695 224.696 247.998 224.379 248.215 223.972C248.432 223.565 248.54 223.101 248.54 222.581C248.54 222.061 248.432 221.597 248.215 221.19C247.998 220.783 247.695 220.471 247.305 220.254C246.924 220.029 246.49 219.916 246.005 219.916C245.52 219.916 245.082 220.029 244.692 220.254C244.311 220.471 244.007 220.783 243.782 221.19C243.565 221.597 243.457 222.061 243.457 222.581C243.457 223.101 243.565 223.565 243.782 223.972C244.007 224.379 244.311 224.696 244.692 224.921C245.082 225.138 245.52 225.246 246.005 225.246ZM254.049 226.065C253.373 226.065 252.766 225.918 252.229 225.623C251.7 225.328 251.284 224.917 250.981 224.388C250.677 223.851 250.526 223.248 250.526 222.581C250.526 221.914 250.677 221.316 250.981 220.787C251.284 220.258 251.7 219.847 252.229 219.552C252.766 219.257 253.373 219.11 254.049 219.11C254.638 219.11 255.162 219.227 255.622 219.461C256.09 219.686 256.458 220.02 256.727 220.462L256.038 220.93C255.812 220.592 255.526 220.341 255.18 220.176C254.833 220.003 254.456 219.916 254.049 219.916C253.555 219.916 253.108 220.029 252.71 220.254C252.32 220.471 252.012 220.783 251.787 221.19C251.57 221.597 251.462 222.061 251.462 222.581C251.462 223.11 251.57 223.578 251.787 223.985C252.012 224.384 252.32 224.696 252.71 224.921C253.108 225.138 253.555 225.246 254.049 225.246C254.456 225.246 254.833 225.164 255.18 224.999C255.526 224.834 255.812 224.583 256.038 224.245L256.727 224.713C256.458 225.155 256.09 225.493 255.622 225.727C255.154 225.952 254.629 226.065 254.049 226.065ZM260.737 222.958H259.177V226H258.254V219.162H259.177V222.165H260.75L263.155 219.162H264.156L261.465 222.477L264.351 226H263.259L260.737 222.958ZM265.547 219.162H266.47V224.596L271.033 219.162H271.852V226H270.929V220.566L266.379 226H265.547V219.162ZM234.86 243.522C234.375 242.725 234.002 241.81 233.742 240.779C233.482 239.739 233.352 238.625 233.352 237.438C233.352 236.251 233.482 235.137 233.742 234.097C234.002 233.048 234.375 232.134 234.86 231.354H235.744C235.233 232.229 234.856 233.17 234.613 234.175C234.379 235.18 234.262 236.268 234.262 237.438C234.262 238.608 234.379 239.696 234.613 240.701C234.856 241.706 235.233 242.647 235.744 243.522H234.86ZM239.788 235.8C240.742 235.852 241.465 236.112 241.959 236.58C242.462 237.039 242.713 237.642 242.713 238.387C242.713 238.907 242.588 239.371 242.336 239.778C242.085 240.177 241.712 240.493 241.218 240.727C240.724 240.961 240.122 241.078 239.411 241.078C238.753 241.078 238.129 240.974 237.539 240.766C236.959 240.549 236.491 240.263 236.135 239.908L236.59 239.167C236.894 239.479 237.297 239.735 237.799 239.934C238.302 240.125 238.839 240.22 239.411 240.22C240.157 240.22 240.733 240.06 241.14 239.739C241.548 239.41 241.751 238.959 241.751 238.387C241.751 237.824 241.548 237.382 241.14 237.061C240.733 236.74 240.118 236.58 239.294 236.58H238.644V235.891L241.166 232.732H236.512V231.9H242.362V232.563L239.788 235.8ZM243.876 237.074H247.282V237.88H243.876V237.074ZM256.313 238.608H254.493V241H253.557V238.608H248.422V237.932L253.245 231.9H254.285L249.631 237.776H253.583V235.67H254.493V237.776H256.313V238.608ZM263.5 241.065C262.824 241.065 262.217 240.918 261.68 240.623C261.151 240.328 260.735 239.917 260.432 239.388C260.128 238.851 259.977 238.248 259.977 237.581C259.977 236.914 260.128 236.316 260.432 235.787C260.735 235.258 261.151 234.847 261.68 234.552C262.217 234.257 262.824 234.11 263.5 234.11C264.089 234.11 264.613 234.227 265.073 234.461C265.541 234.686 265.909 235.02 266.178 235.462L265.489 235.93C265.263 235.592 264.977 235.341 264.631 235.176C264.284 235.003 263.907 234.916 263.5 234.916C263.006 234.916 262.559 235.029 262.161 235.254C261.771 235.471 261.463 235.783 261.238 236.19C261.021 236.597 260.913 237.061 260.913 237.581C260.913 238.11 261.021 238.578 261.238 238.985C261.463 239.384 261.771 239.696 262.161 239.921C262.559 240.138 263.006 240.246 263.5 240.246C263.907 240.246 264.284 240.164 264.631 239.999C264.977 239.834 265.263 239.583 265.489 239.245L266.178 239.713C265.909 240.155 265.541 240.493 265.073 240.727C264.605 240.952 264.08 241.065 263.5 241.065ZM276.259 234.11C277.117 234.11 277.789 234.357 278.274 234.851C278.768 235.345 279.015 236.073 279.015 237.035V241H278.092V237.126C278.092 236.415 277.919 235.874 277.572 235.501C277.234 235.128 276.753 234.942 276.129 234.942C275.418 234.942 274.859 235.163 274.452 235.605C274.045 236.038 273.841 236.641 273.841 237.412V241H272.918V237.126C272.918 236.415 272.745 235.874 272.398 235.501C272.06 235.128 271.575 234.942 270.942 234.942C270.24 234.942 269.681 235.163 269.265 235.605C268.858 236.038 268.654 236.641 268.654 237.412V241H267.731V234.162H268.615V235.41C268.858 234.994 269.196 234.673 269.629 234.448C270.062 234.223 270.561 234.11 271.124 234.11C271.696 234.11 272.19 234.231 272.606 234.474C273.031 234.717 273.347 235.076 273.555 235.553C273.806 235.102 274.166 234.751 274.634 234.5C275.111 234.24 275.652 234.11 276.259 234.11ZM280.491 243.522C281.002 242.647 281.379 241.711 281.622 240.714C281.865 239.709 281.986 238.617 281.986 237.438C281.986 236.259 281.865 235.172 281.622 234.175C281.379 233.17 281.002 232.229 280.491 231.354H281.375C281.86 232.134 282.233 233.048 282.493 234.097C282.762 235.137 282.896 236.251 282.896 237.438C282.896 238.625 282.766 239.739 282.506 240.779C282.246 241.819 281.869 242.733 281.375 243.522H280.491Z" fill="#00229A"/>
</svg>
