<svg width="328" height="329" viewBox="0 0 328 329" fill="none" xmlns="http://www.w3.org/2000/svg">
<path d="M284.369 299.663H43.6311V58.9255H62.0222V28.707H150.898V58.9255H284.369V299.663Z" fill="white"/>
<path d="M44.2622 125.485H61.391V76.6864H83.1271V59.5576H44.2622V125.485Z" fill="#D9DEEE"/>
<path d="M161.387 59.5576H123.545V76.6864H161.387V59.5576Z" fill="#D9DEEE"/>
<path d="M61.391 189.595H44.2622V212.505H61.391V189.595Z" fill="#D9DEEE"/>
<path d="M165.54 76.6864H266.609V125.485H283.738V59.5576H165.54V76.6864Z" fill="#D9DEEE"/>
<path d="M164.278 58.2946V77.948H265.347V126.747H283.738V144.822H265.347V170.257H283.738V188.383H265.347V213.817H283.738V231.893H265.347V280.679H62.6533V231.842H44.2623V213.767H62.6533V188.383H44.2623V170.257H62.6533V144.822H44.2623V126.747H62.6533V77.948H84.3894V68.7461H87.5451V67.4838H84.3894V58.2946H62.6533V29.3384H125.047V58.2946H122.282V67.4838H119.127V68.7461H122.282V77.948H162.675V58.2946H151.554V28.0762H61.3911V58.2946H43V300.295H285V58.2946H164.278ZM126.309 29.3384H130.096V58.2946H126.309V29.3384ZM161.387 76.6857H123.519V59.5569H161.387V76.6857ZM141.456 58.2946V29.3384H145.243V58.2946H141.456ZM140.194 58.2946H136.407V29.3384H140.194V58.2946ZM135.145 58.2946H131.358V29.3384H135.145V58.2946ZM150.292 58.2946H146.505V29.3384H150.292V58.2946ZM83.1272 76.6857H61.3911V125.485H44.2623V59.5569H83.1272V76.6857ZM61.3911 168.995H44.2623V146.085H61.3911V168.995ZM61.3911 212.505H44.2623V189.645H61.3911V212.505ZM283.738 236.576V299.032H44.2623V233.105H61.3911V281.891H266.609V233.105H283.738V236.576ZM266.609 189.645H283.738V212.555H266.609V189.645ZM266.609 146.135H283.738V169.045H266.609V146.135ZM283.738 125.535H266.609V76.6857H165.54V59.5569H283.738V125.535Z" fill="#00229A"/>
<path d="M61.391 146.085H44.2622V168.995H61.391V146.085Z" fill="#D9DEEE"/>
<path d="M283.738 146.085H266.609V168.995H283.738V146.085Z" fill="#D9DEEE"/>
<path d="M266.609 281.903H61.391V233.104H44.2622V299.032H283.738V236.576V233.104H266.609V281.903Z" fill="#D9DEEE"/>
<path d="M283.738 189.595H266.609V212.505H283.738V189.595Z" fill="#D9DEEE"/>
<path d="M112.803 67.4834H106.491V68.7457H112.803V67.4834Z" fill="#00229A"/>
<path d="M100.168 67.4834H93.8563V68.7457H100.168V67.4834Z" fill="#00229A"/>
<path d="M112.191 166.976V176.076H111.242V167.808H105.483V176.076H104.534V166.976H112.191ZM118.993 176.154C118.091 176.154 117.272 175.955 116.536 175.556C115.808 175.149 115.236 174.594 114.82 173.892C114.412 173.19 114.209 172.402 114.209 171.526C114.209 170.651 114.412 169.862 114.82 169.16C115.236 168.458 115.808 167.908 116.536 167.509C117.272 167.102 118.091 166.898 118.993 166.898C119.894 166.898 120.704 167.098 121.424 167.496C122.152 167.895 122.724 168.45 123.14 169.16C123.556 169.862 123.764 170.651 123.764 171.526C123.764 172.402 123.556 173.195 123.14 173.905C122.724 174.607 122.152 175.158 121.424 175.556C120.704 175.955 119.894 176.154 118.993 176.154ZM118.993 175.296C119.712 175.296 120.362 175.136 120.943 174.815C121.523 174.486 121.978 174.035 122.308 173.463C122.637 172.883 122.802 172.237 122.802 171.526C122.802 170.816 122.637 170.174 122.308 169.602C121.978 169.022 121.523 168.571 120.943 168.25C120.362 167.921 119.712 167.756 118.993 167.756C118.273 167.756 117.619 167.921 117.03 168.25C116.449 168.571 115.99 169.022 115.652 169.602C115.322 170.174 115.158 170.816 115.158 171.526C115.158 172.237 115.322 172.883 115.652 173.463C115.99 174.035 116.449 174.486 117.03 174.815C117.619 175.136 118.273 175.296 118.993 175.296ZM133.904 175.244V178.117H133.007V176.076H125.064L125.051 178.117H124.154L124.167 175.244H124.622C125.22 175.21 125.636 174.737 125.87 173.827C126.104 172.909 126.247 171.609 126.299 169.927L126.403 166.976H132.539V175.244H133.904ZM127.157 170.018C127.114 171.405 127.006 172.549 126.832 173.45C126.668 174.343 126.386 174.941 125.987 175.244H131.59V167.808H127.235L127.157 170.018ZM141.002 171.383C141.634 171.513 142.115 171.769 142.445 172.15C142.774 172.523 142.939 173.013 142.939 173.619C142.939 174.408 142.657 175.015 142.094 175.439C141.539 175.864 140.72 176.076 139.637 176.076H135.607V166.976H139.39C140.36 166.976 141.119 167.176 141.665 167.574C142.211 167.973 142.484 168.549 142.484 169.303C142.484 169.815 142.354 170.248 142.094 170.603C141.834 170.95 141.47 171.21 141.002 171.383ZM136.556 171.097H139.338C140.04 171.097 140.577 170.954 140.95 170.668C141.331 170.382 141.522 169.966 141.522 169.42C141.522 168.874 141.331 168.458 140.95 168.172C140.577 167.886 140.04 167.743 139.338 167.743H136.556V171.097ZM139.637 175.309C141.205 175.309 141.99 174.724 141.99 173.554C141.99 172.41 141.205 171.838 139.637 171.838H136.556V175.309H139.637ZM150.908 173.645H145.838L144.746 176.076H143.745L147.905 166.976H148.854L153.014 176.076H152L150.908 173.645ZM150.557 172.865L148.373 167.977L146.189 172.865H150.557ZM161.66 166.976V176.076H160.711V167.808H156.317L156.213 170.85C156.17 172.107 156.066 173.121 155.901 173.892C155.745 174.655 155.502 175.227 155.173 175.608C154.844 175.981 154.406 176.167 153.86 176.167C153.626 176.167 153.383 176.137 153.132 176.076L153.21 175.218C153.357 175.253 153.5 175.27 153.639 175.27C154.02 175.27 154.328 175.119 154.562 174.815C154.805 174.512 154.987 174.044 155.108 173.411C155.229 172.77 155.312 171.925 155.355 170.876L155.485 166.976H161.66ZM175.971 175.244V178.117H175.074V176.076H167.131L167.118 178.117H166.221L166.234 175.244H166.689C167.287 175.21 167.703 174.737 167.937 173.827C168.171 172.909 168.314 171.609 168.366 169.927L168.47 166.976H174.606V175.244H175.971ZM169.224 170.018C169.181 171.405 169.073 172.549 168.899 173.45C168.735 174.343 168.453 174.941 168.054 175.244H173.657V167.808H169.302L169.224 170.018ZM181.665 176.154C180.763 176.154 179.944 175.955 179.208 175.556C178.48 175.149 177.908 174.594 177.492 173.892C177.084 173.19 176.881 172.402 176.881 171.526C176.881 170.651 177.084 169.862 177.492 169.16C177.908 168.458 178.48 167.908 179.208 167.509C179.944 167.102 180.763 166.898 181.665 166.898C182.566 166.898 183.376 167.098 184.096 167.496C184.824 167.895 185.396 168.45 185.812 169.16C186.228 169.862 186.436 170.651 186.436 171.526C186.436 172.402 186.228 173.195 185.812 173.905C185.396 174.607 184.824 175.158 184.096 175.556C183.376 175.955 182.566 176.154 181.665 176.154ZM181.665 175.296C182.384 175.296 183.034 175.136 183.615 174.815C184.195 174.486 184.65 174.035 184.98 173.463C185.309 172.883 185.474 172.237 185.474 171.526C185.474 170.816 185.309 170.174 184.98 169.602C184.65 169.022 184.195 168.571 183.615 168.25C183.034 167.921 182.384 167.756 181.665 167.756C180.945 167.756 180.291 167.921 179.702 168.25C179.121 168.571 178.662 169.022 178.324 169.602C177.994 170.174 177.83 170.816 177.83 171.526C177.83 172.237 177.994 172.883 178.324 173.463C178.662 174.035 179.121 174.486 179.702 174.815C180.291 175.136 180.945 175.296 181.665 175.296ZM108.525 191.154C107.624 191.154 106.805 190.955 106.068 190.556C105.34 190.149 104.768 189.594 104.352 188.892C103.945 188.19 103.741 187.402 103.741 186.526C103.741 185.651 103.945 184.862 104.352 184.16C104.768 183.458 105.34 182.908 106.068 182.509C106.805 182.102 107.624 181.898 108.525 181.898C109.426 181.898 110.237 182.098 110.956 182.496C111.684 182.895 112.256 183.45 112.672 184.16C113.088 184.862 113.296 185.651 113.296 186.526C113.296 187.402 113.088 188.195 112.672 188.905C112.256 189.607 111.684 190.158 110.956 190.556C110.237 190.955 109.426 191.154 108.525 191.154ZM108.525 190.296C109.244 190.296 109.894 190.136 110.475 189.815C111.056 189.486 111.511 189.035 111.84 188.463C112.169 187.883 112.334 187.237 112.334 186.526C112.334 185.816 112.169 185.174 111.84 184.602C111.511 184.022 111.056 183.571 110.475 183.25C109.894 182.921 109.244 182.756 108.525 182.756C107.806 182.756 107.151 182.921 106.562 183.25C105.981 183.571 105.522 184.022 105.184 184.602C104.855 185.174 104.69 185.816 104.69 186.526C104.69 187.237 104.855 187.883 105.184 188.463C105.522 189.035 105.981 189.486 106.562 189.815C107.151 190.136 107.806 190.296 108.525 190.296ZM115.332 181.976H121.988V182.795H116.281V185.772H119.258C120.332 185.772 121.147 185.993 121.702 186.435C122.265 186.877 122.547 187.519 122.547 188.359C122.547 189.235 122.243 189.906 121.637 190.374C121.039 190.842 120.176 191.076 119.05 191.076H115.332V181.976ZM119.037 190.309C119.877 190.309 120.51 190.149 120.935 189.828C121.368 189.508 121.585 189.031 121.585 188.398C121.585 187.774 121.372 187.311 120.948 187.007C120.532 186.695 119.895 186.539 119.037 186.539H116.281V190.309H119.037ZM128.508 191.154C127.607 191.154 126.788 190.955 126.051 190.556C125.323 190.149 124.751 189.594 124.335 188.892C123.928 188.19 123.724 187.402 123.724 186.526C123.724 185.651 123.928 184.862 124.335 184.16C124.751 183.458 125.323 182.908 126.051 182.509C126.788 182.102 127.607 181.898 128.508 181.898C129.409 181.898 130.22 182.098 130.939 182.496C131.667 182.895 132.239 183.45 132.655 184.16C133.071 184.862 133.279 185.651 133.279 186.526C133.279 187.402 133.071 188.195 132.655 188.905C132.239 189.607 131.667 190.158 130.939 190.556C130.22 190.955 129.409 191.154 128.508 191.154ZM128.508 190.296C129.227 190.296 129.877 190.136 130.458 189.815C131.039 189.486 131.494 189.035 131.823 188.463C132.152 187.883 132.317 187.237 132.317 186.526C132.317 185.816 132.152 185.174 131.823 184.602C131.494 184.022 131.039 183.571 130.458 183.25C129.877 182.921 129.227 182.756 128.508 182.756C127.789 182.756 127.134 182.921 126.545 183.25C125.964 183.571 125.505 184.022 125.167 184.602C124.838 185.174 124.673 185.816 124.673 186.526C124.673 187.237 124.838 187.883 125.167 188.463C125.505 189.035 125.964 189.486 126.545 189.815C127.134 190.136 127.789 190.296 128.508 190.296ZM138.721 181.976C139.882 181.976 140.792 182.254 141.451 182.808C142.109 183.363 142.439 184.126 142.439 185.096C142.439 186.067 142.109 186.83 141.451 187.384C140.792 187.93 139.882 188.203 138.721 188.203H136.277V191.076H135.315V181.976H138.721ZM138.695 187.358C139.596 187.358 140.285 187.163 140.762 186.773C141.238 186.375 141.477 185.816 141.477 185.096C141.477 184.36 141.238 183.796 140.762 183.406C140.285 183.008 139.596 182.808 138.695 182.808H136.277V187.358H138.695ZM151.104 181.976L146.97 189.633C146.675 190.179 146.329 190.587 145.93 190.855C145.54 191.115 145.111 191.245 144.643 191.245C144.296 191.245 143.924 191.163 143.525 190.998L143.798 190.218C144.11 190.34 144.396 190.4 144.656 190.4C145.254 190.4 145.744 190.075 146.125 189.425L146.385 188.983L142.693 181.976H143.72L146.892 188.138L150.142 181.976H151.104ZM160.597 190.244V193.117H159.7V191.076H151.757L151.744 193.117H150.847L150.86 190.244H151.315C151.913 190.21 152.329 189.737 152.563 188.827C152.797 187.909 152.94 186.609 152.992 184.927L153.096 181.976H159.232V190.244H160.597ZM153.85 185.018C153.807 186.405 153.698 187.549 153.525 188.45C153.36 189.343 153.079 189.941 152.68 190.244H158.283V182.808H153.928L153.85 185.018ZM166.29 191.154C165.389 191.154 164.57 190.955 163.833 190.556C163.105 190.149 162.533 189.594 162.117 188.892C161.71 188.19 161.506 187.402 161.506 186.526C161.506 185.651 161.71 184.862 162.117 184.16C162.533 183.458 163.105 182.908 163.833 182.509C164.57 182.102 165.389 181.898 166.29 181.898C167.192 181.898 168.002 182.098 168.721 182.496C169.449 182.895 170.021 183.45 170.437 184.16C170.853 184.862 171.061 185.651 171.061 186.526C171.061 187.402 170.853 188.195 170.437 188.905C170.021 189.607 169.449 190.158 168.721 190.556C168.002 190.955 167.192 191.154 166.29 191.154ZM166.29 190.296C167.01 190.296 167.66 190.136 168.24 189.815C168.821 189.486 169.276 189.035 169.605 188.463C169.935 187.883 170.099 187.237 170.099 186.526C170.099 185.816 169.935 185.174 169.605 184.602C169.276 184.022 168.821 183.571 168.24 183.25C167.66 182.921 167.01 182.756 166.29 182.756C165.571 182.756 164.917 182.921 164.327 183.25C163.747 183.571 163.287 184.022 162.949 184.602C162.62 185.174 162.455 185.816 162.455 186.526C162.455 187.237 162.62 187.883 162.949 188.463C163.287 189.035 163.747 189.486 164.327 189.815C164.917 190.136 165.571 190.296 166.29 190.296ZM178.492 186.383C179.124 186.513 179.605 186.769 179.935 187.15C180.264 187.523 180.429 188.013 180.429 188.619C180.429 189.408 180.147 190.015 179.584 190.439C179.029 190.864 178.21 191.076 177.127 191.076H173.097V181.976H176.88C177.85 181.976 178.609 182.176 179.155 182.574C179.701 182.973 179.974 183.549 179.974 184.303C179.974 184.815 179.844 185.248 179.584 185.603C179.324 185.95 178.96 186.21 178.492 186.383ZM174.046 186.097H176.828C177.53 186.097 178.067 185.954 178.44 185.668C178.821 185.382 179.012 184.966 179.012 184.42C179.012 183.874 178.821 183.458 178.44 183.172C178.067 182.886 177.53 182.743 176.828 182.743H174.046V186.097ZM177.127 190.309C178.695 190.309 179.48 189.724 179.48 188.554C179.48 187.41 178.695 186.838 177.127 186.838H174.046V190.309H177.127ZM188.398 188.645H183.328L182.236 191.076H181.235L185.395 181.976H186.344L190.504 191.076H189.49L188.398 188.645ZM188.047 187.865L185.863 182.977L183.679 187.865H188.047ZM199.593 181.976V191.076H198.644V186.877H192.95V191.076H191.988V181.976H192.95V186.032H198.644V181.976H199.593ZM202.405 181.976H203.354V189.516L209.178 181.976H210.049V191.076H209.1V183.549L203.276 191.076H202.405V181.976ZM219.308 181.976V191.076H218.359V188.32H215.642C215.52 188.32 215.347 188.312 215.122 188.294L213.211 191.076H212.184L214.251 188.125C213.583 187.926 213.072 187.575 212.717 187.072C212.361 186.561 212.184 185.937 212.184 185.2C212.184 184.178 212.504 183.385 213.146 182.821C213.796 182.258 214.671 181.976 215.772 181.976H219.308ZM213.146 185.174C213.146 185.92 213.362 186.496 213.796 186.903C214.238 187.302 214.879 187.501 215.72 187.501H218.359V182.808H215.811C214.961 182.808 214.303 183.012 213.835 183.419C213.375 183.818 213.146 184.403 213.146 185.174Z" fill="#00229A"/>
</svg>
