<svg width="328" height="328" viewBox="0 0 328 328" fill="none" xmlns="http://www.w3.org/2000/svg">
<path d="M67.64 207.43H130.4V149.68H127.34C126.277 151.373 124.802 152.769 123.054 153.738C121.305 154.707 119.339 155.217 117.34 155.22H80.7C77.5607 155.217 74.5507 153.969 72.3308 151.749C70.1109 149.529 68.8627 146.519 68.86 143.38V142.43C68.8653 139.291 70.1144 136.283 72.3337 134.064C74.553 131.844 77.5615 130.595 80.7 130.59H117.34C119.339 130.593 121.305 131.103 123.054 132.072C124.802 133.041 126.277 134.437 127.34 136.13H130.4V73.21H67.64V207.43ZM81.17 79.17H116.87C120.135 79.17 123.266 80.4669 125.575 82.7755C127.883 85.0841 129.18 88.2151 129.18 91.48C129.18 94.7448 127.883 97.8759 125.575 100.184C123.266 102.493 120.135 103.79 116.87 103.79H81.17C77.9052 103.79 74.7741 102.493 72.4655 100.184C70.157 97.8759 68.86 94.7448 68.86 91.48C68.86 88.2151 70.157 85.0841 72.4655 82.7755C74.7741 80.4669 77.9052 79.17 81.17 79.17ZM68.86 116.72C68.8653 113.581 70.1144 110.573 72.3337 108.354C74.553 106.134 77.5615 104.885 80.7 104.88H87.7C90.2401 104.893 92.709 105.721 94.7433 107.242C96.7776 108.763 98.2697 110.897 99 113.33C99.7323 110.891 101.23 108.752 103.273 107.23C105.315 105.708 107.793 104.884 110.34 104.88H117.34C120.479 104.885 123.487 106.134 125.706 108.354C127.926 110.573 129.175 113.581 129.18 116.72V117.72C129.175 120.858 127.925 123.865 125.706 126.083C123.486 128.3 120.478 129.547 117.34 129.55H110.34C107.786 129.546 105.302 128.716 103.258 127.184C101.214 125.652 99.7205 123.5 99 121.05C98.2706 123.491 96.7731 125.632 94.7302 127.154C92.6873 128.676 90.2078 129.499 87.66 129.5H80.66C77.5293 129.487 74.5311 128.235 72.3202 126.019C70.1092 123.802 68.8653 120.801 68.86 117.67V116.72ZM68.86 168.14C68.8653 165.002 70.1147 161.995 72.3343 159.777C74.5539 157.56 77.5624 156.313 80.7 156.31H87.7C90.2401 156.323 92.709 157.151 94.7433 158.672C96.7776 160.193 98.2697 162.327 99 164.76C99.7323 162.321 101.23 160.182 103.273 158.66C105.315 157.138 107.793 156.314 110.34 156.31H117.34C120.478 156.313 123.486 157.56 125.706 159.777C127.925 161.995 129.175 165.002 129.18 168.14V169.14C129.177 172.279 127.929 175.289 125.709 177.509C123.489 179.729 120.479 180.977 117.34 180.98H110.34C107.787 180.973 105.304 180.141 103.261 178.61C101.218 177.079 99.7234 174.929 99 172.48C98.2677 174.919 96.7696 177.058 94.7273 178.58C92.6849 180.102 90.207 180.926 87.66 180.93H80.66C77.5207 180.927 74.5107 179.679 72.2908 177.459C70.0709 175.239 68.8227 172.229 68.82 169.09L68.86 168.14ZM68.86 193.85C68.86 190.709 70.1071 187.696 72.3273 185.474C74.5474 183.252 77.5589 182.003 80.7 182H117.34C120.478 182.003 123.486 183.25 125.706 185.467C127.925 187.685 129.175 190.692 129.18 193.83V194.83C129.177 197.969 127.929 200.979 125.709 203.199C123.489 205.419 120.479 206.667 117.34 206.67H80.7C79.143 206.669 77.6015 206.361 76.1637 205.763C74.7258 205.166 73.4198 204.291 72.3202 203.189C71.2206 202.086 70.3491 200.778 69.7553 199.339C69.1616 197.899 68.8574 196.357 68.86 194.8V193.85Z" fill="#6071AD"/>
<path d="M67.64 242.26V244.38L73.95 238.07L73.94 235.96L67.64 242.26Z" fill="white"/>
<path d="M67.64 230.92V233.04L73.88 226.8L73.87 224.69L67.64 230.92Z" fill="white"/>
<path d="M67.64 236.59V238.72L73.92 232.44L73.9 230.33L67.64 236.59Z" fill="white"/>
<path d="M67.64 261.39L74.05 254.98L74.04 252.87L67.64 259.27V261.39Z" fill="white"/>
<path d="M67.64 255.72L74.02 249.34L74.01 247.23L67.64 253.6V255.72Z" fill="white"/>
<path d="M67.64 267.06L74.09 260.61L74.07 258.5L67.64 264.94V267.06Z" fill="white"/>
<path d="M18.83 281.86V279.74L13.16 285.4L13.17 287.51L18.83 281.86Z" fill="white"/>
<path d="M67.64 227.38L73.85 221.17L73.84 219.06L67.64 225.25V227.38Z" fill="white"/>
<path d="M73.13 208.43L67.64 213.92V216.04L75.25 208.43H73.13Z" fill="white"/>
<path d="M67.64 208.43V210.37L69.58 208.43H67.64Z" fill="white"/>
<path d="M81.85 307.42H83.97L86.02 305.37V303.25L81.85 307.42Z" fill="white"/>
<path d="M112.81 208.43L106.68 214.56H108.8L114.94 208.43H112.81Z" fill="white"/>
<path d="M90.14 208.43L84.07 214.5H86.18L92.26 208.43H90.14Z" fill="white"/>
<path d="M67.64 276.45H69.58L75.82 270.22H74.14V269.78L67.64 276.28V276.45Z" fill="white"/>
<path d="M18.83 285.4L13.19 291.04L13.2 293.15L18.83 287.53V285.4Z" fill="white"/>
<path d="M67.64 250.05L73.98 243.71L73.97 241.6L67.64 247.93V250.05Z" fill="white"/>
<path d="M17.13 277.88H15.01L8.70001 284.2L10.78 284.24L17.13 277.88Z" fill="white"/>
<path d="M154.04 214.68L158.47 210.24V208.43H158.17L151.92 214.67L154.04 214.68Z" fill="white"/>
<path d="M5.21 284.13L11.46 277.88H9.34L3.13 284.1L5.21 284.13Z" fill="white"/>
<path d="M76.18 307.42H78.3L86.01 299.72L86 297.6L76.18 307.42Z" fill="white"/>
<path d="M74.11 264.14L67.64 270.61V272.73L74.12 266.25L74.11 264.14Z" fill="white"/>
<path d="M154.62 208.43H152.5L146.27 214.66H148.38L154.62 208.43Z" fill="white"/>
<path d="M142.73 214.65L148.95 208.43H146.83L140.61 214.65H142.73Z" fill="white"/>
<path d="M97.93 208.43H95.81L89.72 214.51L91.84 214.52L97.93 208.43Z" fill="white"/>
<path d="M143.28 208.43H141.16L134.96 214.63H137.07L143.28 208.43Z" fill="white"/>
<path d="M18.83 293.19V291.07L13.22 296.69L13.23 298.8L18.83 293.19Z" fill="white"/>
<path d="M79.37 270.22L73.13 276.45H75.25L81.49 270.22H79.37Z" fill="white"/>
<path d="M157.57 214.69H158.47V213.79L157.57 214.69Z" fill="white"/>
<path d="M78.8 208.43L67.64 219.59V221.71L73.81 215.53V214.47H74.31H74.87L80.92 208.43H78.8Z" fill="white"/>
<path d="M81.08 281.97L85.94 277.1V274.99L81.08 279.85V281.97Z" fill="white"/>
<path d="M103.6 208.43H101.48L95.38 214.53H97.49L103.6 208.43Z" fill="white"/>
<path d="M120.61 208.43H118.48L112.34 214.57L114.45 214.58L120.61 208.43Z" fill="white"/>
<path d="M109.27 208.43H107.14L101.03 214.54L103.14 214.55L109.27 208.43Z" fill="white"/>
<path d="M131.94 208.43H131.4H129.82L123.65 214.6L125.76 214.61L131.94 208.43Z" fill="white"/>
<path d="M126.27 208.43H124.15L117.99 214.59H120.11L126.27 208.43Z" fill="white"/>
<path d="M5.79 277.88H3.67L1 280.56V282.68L5.79 277.88Z" fill="white"/>
<path d="M85.04 270.22L78.8 276.45H80.92L85.93 271.45L85.92 270.22H85.04Z" fill="white"/>
<path d="M86.59 208.43H84.47L78.41 214.48L80.53 214.49L86.59 208.43Z" fill="white"/>
<path d="M56.2 301.17H54.08L47.83 307.42H49.95L56.2 301.17Z" fill="white"/>
<path d="M61.87 301.17H59.75L53.5 307.42H55.62L61.87 301.17Z" fill="white"/>
<path d="M78.88 301.17H76.76L70.51 307.42H72.63L78.88 301.17Z" fill="white"/>
<path d="M50.53 301.17H48.41L42.16 307.42H44.28L50.53 301.17Z" fill="white"/>
<path d="M67.54 301.17H65.42L59.17 307.42H61.29L67.54 301.17Z" fill="white"/>
<path d="M81.08 285.52V287.64L85.96 282.76L85.95 280.64L81.08 285.52Z" fill="white"/>
<path d="M44.87 301.17H42.74L36.49 307.42H38.61L44.87 301.17Z" fill="white"/>
<path d="M18.83 298.86V296.74L13.24 302.33L13.25 304.44L18.83 298.86Z" fill="white"/>
<path d="M22.19 301.17H20.07L13.82 307.42H15.94L22.19 301.17Z" fill="white"/>
<path d="M33.53 301.17H31.41L25.16 307.42H27.28L33.53 301.17Z" fill="white"/>
<path d="M27.86 301.17H25.74L19.49 307.42H21.61L27.86 301.17Z" fill="white"/>
<path d="M39.2 301.17H37.08L30.82 307.42H32.95L39.2 301.17Z" fill="white"/>
<path d="M73.21 301.17H71.09L64.84 307.42H66.96L73.21 301.17Z" fill="white"/>
<path d="M81.08 296.86V298.98L85.99 294.06L85.98 291.95L81.08 296.86Z" fill="white"/>
<path d="M81.08 291.19V293.31L85.97 288.41V286.3L81.08 291.19Z" fill="white"/>
<path d="M131.42 214.62L137.61 208.43H135.49L129.3 214.62H131.42Z" fill="white"/>
<path d="M117.34 183.02H80.7C74.7132 183.02 69.86 187.873 69.86 193.86V194.8C69.86 200.787 74.7132 205.64 80.7 205.64H117.34C123.327 205.64 128.18 200.787 128.18 194.8V193.86C128.18 187.873 123.327 183.02 117.34 183.02Z" fill="#D9DEEE"/>
<path d="M80.7 206.64H117.34C120.479 206.637 123.489 205.389 125.709 203.169C127.929 200.949 129.177 197.939 129.18 194.8V193.8C129.167 190.668 127.914 187.668 125.695 185.457C123.476 183.245 120.472 182.003 117.34 182H80.7C77.5624 182.003 74.5539 183.25 72.3343 185.467C70.1147 187.685 68.8653 190.692 68.86 193.83V194.83C68.8706 197.964 70.1223 200.966 72.3413 203.18C74.5603 205.393 77.5658 206.637 80.7 206.64ZM69.86 193.85C69.86 190.974 71.0017 188.216 73.0343 186.181C75.0669 184.147 77.8241 183.003 80.7 183H117.34C120.212 183.003 122.967 184.144 124.999 186.174C127.031 188.205 128.175 190.958 128.18 193.83V194.83C128.175 197.703 127.031 200.457 124.999 202.489C122.967 204.521 120.213 205.665 117.34 205.67H80.7C77.8215 205.665 75.0628 204.517 73.0302 202.479C70.9976 200.44 69.8573 197.679 69.86 194.8V193.85Z" fill="#00229A"/>
<path d="M126.14 136.13C125.139 134.729 123.819 133.586 122.289 132.796C120.758 132.007 119.062 131.593 117.34 131.59H80.7C77.8267 131.595 75.0725 132.739 73.0408 134.771C71.009 136.802 69.8653 139.557 69.86 142.43V143.38C69.8653 146.253 71.009 149.007 73.0408 151.039C75.0725 153.071 77.8267 154.215 80.7 154.22H117.34C119.062 154.216 120.758 153.803 122.289 153.013C123.819 152.224 125.139 151.081 126.14 149.68H115C114.088 149.715 113.179 149.566 112.327 149.241C111.474 148.916 110.696 148.423 110.038 147.79C109.381 147.158 108.858 146.399 108.501 145.559C108.144 144.72 107.96 143.817 107.96 142.905C107.96 141.993 108.144 141.09 108.501 140.25C108.858 139.411 109.381 138.652 110.038 138.019C110.696 137.387 111.474 136.894 112.327 136.569C113.179 136.244 114.088 136.095 115 136.13H126.14Z" fill="#D9DEEE"/>
<path d="M81.17 102.79H116.87C119.87 102.79 122.746 101.598 124.867 99.4773C126.988 97.3563 128.18 94.4795 128.18 91.4799C128.18 88.4803 126.988 85.6036 124.867 83.4825C122.746 81.3615 119.87 80.1699 116.87 80.1699H81.17C78.1704 80.1699 75.2936 81.3615 73.1726 83.4825C71.0516 85.6036 69.86 88.4803 69.86 91.4799C69.86 94.4795 71.0516 97.3563 73.1726 99.4773C75.2936 101.598 78.1704 102.79 81.17 102.79Z" fill="#D9DEEE"/>
<path d="M81.17 103.79H116.87C120.135 103.79 123.266 102.493 125.574 100.184C127.883 97.8758 129.18 94.7447 129.18 91.4799C129.18 88.2151 127.883 85.084 125.574 82.7754C123.266 80.4669 120.135 79.1699 116.87 79.1699H81.17C77.9052 79.1699 74.7741 80.4669 72.4655 82.7754C70.1569 85.084 68.86 88.2151 68.86 91.4799C68.86 94.7447 70.1569 97.8758 72.4655 100.184C74.7741 102.493 77.9052 103.79 81.17 103.79ZM81.17 80.1699H116.87C119.87 80.1699 122.746 81.3615 124.867 83.4825C126.988 85.6036 128.18 88.4803 128.18 91.4799C128.18 94.4795 126.988 97.3563 124.867 99.4773C122.746 101.598 119.87 102.79 116.87 102.79H81.17C78.1704 102.79 75.2936 101.598 73.1726 99.4773C71.0516 97.3563 69.86 94.4795 69.86 91.4799C69.86 88.4803 71.0516 85.6036 73.1726 83.4825C75.2936 81.3615 78.1704 80.1699 81.17 80.1699Z" fill="#00229A"/>
<path d="M19.83 300.17H80.08V277.87V277.45H66.64V277.44V208.43V207.43V72.7002V72.2002V69.7002V63.0302V56.3602V49.6902V43.0202V41.2002H40.56V79.1702H50.28V97.4902H33.87V269.22V277.45H19.83V300.17Z" fill="white"/>
<path d="M49.28 96.4899V80.1699H40.56H1V96.0499V96.4899H49.28Z" fill="white"/>
<path d="M169.71 214.78H163.24V215.78H169.71V214.78Z" fill="#00229A"/>
<path d="M179.18 214.78H176.18V215.78H179.18V214.78Z" fill="#00229A"/>
<path d="M149.28 263.4H143.9V264.4H149.28V263.4Z" fill="#00229A"/>
<path d="M170.8 263.4H165.42V264.4H170.8V263.4Z" fill="#00229A"/>
<path d="M160.04 263.4H154.66V264.4H160.04V263.4Z" fill="#00229A"/>
<path d="M179.18 263.4H176.18V264.4H179.18V263.4Z" fill="#00229A"/>
<path d="M172.15 216.98V218.42L173.34 217.22V261.97L172.15 260.77V262.21L173.84 263.9L175.54 262.21V260.77L174.34 261.97V217.22L175.54 218.42V216.98L173.84 215.28L172.15 216.98Z" fill="#00229A"/>
<path d="M68.83 27.8602H70.27L69.08 26.6702H128.96L127.76 27.8602H129.2L130.9 26.1702L129.2 24.4702H127.76L128.96 25.6702H69.08L70.27 24.4702H68.83L67.14 26.1702L68.83 27.8602Z" fill="#00229A"/>
<path d="M87.68 157.31H80.7C74.7132 157.31 69.86 162.163 69.86 168.15V169.09C69.86 175.077 74.7132 179.93 80.7 179.93H87.68C93.6668 179.93 98.52 175.077 98.52 169.09V168.15C98.52 162.163 93.6668 157.31 87.68 157.31Z" fill="#D9DEEE"/>
<path d="M80.7 180.93H87.7C90.2401 180.917 92.709 180.089 94.7433 178.568C96.7776 177.047 98.2697 174.913 99 172.48C99.7323 174.919 101.23 177.058 103.273 178.58C105.315 180.102 107.793 180.926 110.34 180.93H117.34C120.479 180.927 123.489 179.679 125.709 177.459C127.929 175.239 129.177 172.229 129.18 169.09V168.09C129.175 164.952 127.925 161.945 125.706 159.727C123.486 157.509 120.478 156.262 117.34 156.26H110.34C107.787 156.267 105.304 157.098 103.261 158.63C101.218 160.161 99.7234 162.311 99 164.76C98.2677 162.32 96.7696 160.181 94.7272 158.66C92.6849 157.138 90.207 156.314 87.66 156.31H80.66C77.5224 156.312 74.5139 157.559 72.2943 159.777C70.0747 161.995 68.8253 165.002 68.82 168.14V169.14C68.8359 172.277 70.0955 175.281 72.3226 177.491C74.5496 179.701 77.5624 180.938 80.7 180.93ZM69.86 168.14C69.8653 165.267 71.0094 162.514 73.0414 160.484C75.0735 158.454 77.8276 157.312 80.7 157.31H87.7C90.5724 157.312 93.3266 158.454 95.3586 160.484C97.3906 162.514 98.5347 165.267 98.54 168.14V169.14C98.5347 172.013 97.391 174.767 95.3592 176.799C93.3275 178.831 90.5733 179.974 87.7 179.98H80.7C77.8267 179.974 75.0726 178.831 73.0408 176.799C71.0091 174.767 69.8653 172.013 69.86 169.14V168.14ZM99.52 168.14C99.5253 165.267 100.669 162.514 102.701 160.484C104.733 158.454 107.488 157.312 110.36 157.31H117.36C120.232 157.312 122.987 158.454 125.019 160.484C127.051 162.514 128.195 165.267 128.2 168.14V169.14C128.195 172.013 127.051 174.767 125.019 176.799C122.987 178.831 120.233 179.974 117.36 179.98H110.36C107.487 179.974 104.733 178.831 102.701 176.799C100.669 174.767 99.5253 172.013 99.52 169.14V168.14Z" fill="#00229A"/>
<path d="M117.34 157.31H110.36C104.373 157.31 99.52 162.163 99.52 168.15V169.09C99.52 175.077 104.373 179.93 110.36 179.93H117.34C123.327 179.93 128.18 175.077 128.18 169.09V168.15C128.18 162.163 123.327 157.31 117.34 157.31Z" fill="#D9DEEE"/>
<path d="M87.68 105.88H80.7C74.7132 105.88 69.86 110.733 69.86 116.72V117.66C69.86 123.647 74.7132 128.5 80.7 128.5H87.68C93.6668 128.5 98.52 123.647 98.52 117.66V116.72C98.52 110.733 93.6668 105.88 87.68 105.88Z" fill="#D9DEEE"/>
<path d="M80.7 129.5H87.7C90.2409 129.491 92.7113 128.664 94.7462 127.142C96.7811 125.621 98.2725 123.485 99 121.05C99.7294 123.491 101.227 125.632 103.27 127.154C105.313 128.676 107.792 129.499 110.34 129.5H117.34C120.478 129.497 123.486 128.251 125.706 126.033C127.925 123.815 129.175 120.808 129.18 117.67V116.67C129.175 113.532 127.926 110.523 125.706 108.304C123.487 106.084 120.479 104.835 117.34 104.83H110.34C107.787 104.837 105.304 105.669 103.261 107.2C101.218 108.731 99.7233 110.881 99 113.33C98.2677 110.891 96.7695 108.752 94.7272 107.23C92.6849 105.708 90.2069 104.884 87.66 104.88H80.66C77.5284 104.896 74.5302 106.15 72.3195 108.368C70.1089 110.586 68.8652 113.588 68.86 116.72V117.72C68.8785 120.849 70.1337 123.844 72.3519 126.051C74.57 128.257 77.571 129.497 80.7 129.5ZM69.86 116.72C69.8653 113.847 71.009 111.093 73.0408 109.061C75.0725 107.029 77.8267 105.885 80.7 105.88H87.7C90.5698 105.891 93.3188 107.037 95.3463 109.068C97.3737 111.099 98.5147 113.85 98.52 116.72V117.72C98.5015 120.584 97.3516 123.324 95.321 125.343C93.2904 127.363 90.5438 128.497 87.68 128.5H80.68C77.811 128.492 75.062 127.348 73.0343 125.319C71.0066 123.289 69.8653 120.539 69.86 117.67V116.72ZM99.52 116.72C99.5253 113.847 100.669 111.093 102.701 109.061C104.733 107.029 107.487 105.885 110.36 105.88H117.36C120.233 105.885 122.987 107.029 125.019 109.061C127.051 111.093 128.195 113.847 128.2 116.72V117.72C128.195 120.592 127.051 123.346 125.019 125.376C122.987 127.406 120.232 128.547 117.36 128.55H110.36C108.933 128.549 107.521 128.266 106.204 127.718C104.887 127.171 103.691 126.369 102.684 125.358C101.677 124.347 100.879 123.148 100.336 121.829C99.7934 120.51 99.516 119.097 99.52 117.67V116.72Z" fill="#00229A"/>
<path d="M117.34 105.88H110.36C104.373 105.88 99.52 110.733 99.52 116.72V117.66C99.52 123.647 104.373 128.5 110.36 128.5H117.34C123.327 128.5 128.18 123.647 128.18 117.66V116.72C128.18 110.733 123.327 105.88 117.34 105.88Z" fill="#D9DEEE"/>
<path d="M67.64 29.6699H66.64V36.3399H67.64V29.6699Z" fill="#00229A"/>
<path d="M67.64 20H66.64V23H67.64V20Z" fill="#00229A"/>
<path d="M131.4 56.3599H130.4V63.0299H131.4V56.3599Z" fill="#00229A"/>
<path d="M131.4 43.02H130.4V49.69H131.4V43.02Z" fill="#00229A"/>
<path d="M131.4 29.6699H130.4V36.3399H131.4V29.6699Z" fill="#00229A"/>
<path d="M131.4 20H130.4V23H131.4V20Z" fill="#00229A"/>
<path d="M113.55 143.41L114.74 144.6H113.3L111.61 142.91L113.3 141.21H114.74L113.55 142.41H140.82V136.63V137.13H115C114.221 137.097 113.444 137.223 112.715 137.498C111.986 137.774 111.321 138.194 110.758 138.734C110.196 139.273 109.749 139.921 109.443 140.638C109.137 141.354 108.98 142.126 108.98 142.905C108.98 143.684 109.137 144.455 109.443 145.172C109.749 145.889 110.196 146.537 110.758 147.076C111.321 147.616 111.986 148.036 112.715 148.311C113.444 148.587 114.221 148.712 115 148.68H140.86V149.18V143.41H113.55Z" fill="#F7F8FC"/>
<path d="M115 148.68C114.221 148.712 113.444 148.587 112.715 148.311C111.986 148.036 111.321 147.616 110.758 147.076C110.196 146.537 109.749 145.889 109.443 145.172C109.137 144.455 108.98 143.684 108.98 142.905C108.98 142.126 109.137 141.354 109.443 140.638C109.749 139.921 110.196 139.273 110.758 138.734C111.321 138.194 111.986 137.774 112.715 137.499C113.444 137.223 114.221 137.098 115 137.13H140.86V136.13H140.68V86.44H140.85V85.44C140.071 85.4724 139.294 85.347 138.565 85.0714C137.836 84.7958 137.171 84.3756 136.608 83.8362C136.046 83.2967 135.599 82.6491 135.293 81.9323C134.987 81.2155 134.83 80.4442 134.83 79.665C134.83 78.8857 134.987 78.1145 135.293 77.3976C135.599 76.6808 136.046 76.0332 136.608 75.4938C137.171 74.9543 137.836 74.5342 138.565 74.2585C139.294 73.9829 140.071 73.8576 140.85 73.89V72.89H140.68V65.68H130.4V72.21H67.64V40.21H39.56V79.21H0V97.49H32.87V269.22H0V285L12.16 285.22L12.27 308.38H87L86.89 269.18H75.14L74.81 215.43L130.4 215.58V252.58L135.52 263.9V264.39H138.52V263.39H135.75L140.64 252.58V215.58H140.82V215.71H143.82V215.58H150.29V215.69H156.76V215.6H159.47V207.34H140.64V149.68H140.82V148.68H115ZM158.51 208.43V210.24L154 214.68H151.88L158.13 208.44L158.51 208.43ZM33.87 269.22V97.49H50.28V79.17H40.56V41.17H66.64V277.44H80.08V300.16H19.83V277.45H33.83L33.87 269.22ZM1 96.05V80.17H49.28V96.49H1V96.05ZM130.4 136.13H127.34C126.277 134.437 124.802 133.041 123.054 132.072C121.305 131.103 119.339 130.593 117.34 130.59H80.7C77.5615 130.595 74.553 131.844 72.3337 134.064C70.1144 136.283 68.8653 139.291 68.86 142.43V143.38C68.8626 146.519 70.1109 149.529 72.3308 151.749C74.5506 153.969 77.5606 155.217 80.7 155.22H117.34C119.339 155.217 121.305 154.707 123.054 153.738C124.802 152.769 126.277 151.373 127.34 149.68H130.4V207.43H67.64V73.21H130.4V136.13ZM108.18 142.91C108.183 144.706 108.898 146.428 110.169 147.698C111.441 148.967 113.164 149.68 114.96 149.68H126.14C125.139 151.081 123.819 152.224 122.289 153.013C120.758 153.803 119.062 154.217 117.34 154.22H80.7C77.8267 154.215 75.0725 153.071 73.0408 151.039C71.0091 149.007 69.8653 146.253 69.86 143.38V142.43C69.8653 139.557 71.0091 136.803 73.0408 134.771C75.0725 132.739 77.8267 131.595 80.7 131.59H117.34C119.062 131.593 120.758 132.007 122.289 132.796C123.819 133.586 125.139 134.729 126.14 136.13H115C114.107 136.126 113.221 136.298 112.395 136.637C111.568 136.976 110.816 137.475 110.183 138.105C109.549 138.734 109.046 139.483 108.703 140.308C108.359 141.132 108.181 142.017 108.18 142.91ZM106.68 214.56L112.81 208.43H114.94L108.8 214.56H106.68ZM84.07 214.5L90.14 208.43H92.26L86.18 214.5H84.07ZM74.14 270.22H75.82L69.59 276.45H67.59V276.28L74.09 269.78L74.14 270.22ZM84 307.42H81.85L86 303.25V305.37L84 307.42ZM78.33 307.42H76.18L86 297.6V299.72L78.33 307.42ZM11.46 277.88L5.21 284.13H3.13L9.34 277.91L11.46 277.88ZM15.01 277.88H17.13L10.78 284.24H8.7L15.01 277.88ZM74.01 243.71L67.67 250.05V247.93L74 241.6L74.01 243.71ZM74.01 249.34L67.63 255.72V253.6L74 247.23L74.01 249.34ZM74.01 254.98L67.6 261.39V259.27L74 252.87L74.01 254.98ZM74.01 260.61L67.56 267.06V264.94L73.99 258.5L74.01 260.61ZM67.56 270.61L74.03 264.14V266.25L67.55 272.73L67.56 270.61ZM67.56 244.38V242.26L73.86 235.96V238.07L67.56 244.38ZM67.56 238.71V236.59L73.82 230.33V232.44L67.56 238.71ZM67.56 233.05V230.92L73.79 224.69V226.8L67.56 233.05ZM73.77 221.17L67.56 227.38V225.25L73.76 219.06L73.77 221.17ZM67.56 208.43H69.5L67.56 210.37V208.43ZM67.56 213.92L73.05 208.43H75.17L67.64 216L67.56 213.92ZM18.83 279.74V281.86L13.17 287.51V285.4L18.83 279.74ZM13.19 291L18.83 285.36V287.49L13.2 293.11L13.19 291ZM18.83 291V293.13L13.23 298.73V296.62L18.83 291ZM18.83 296.67V298.79L13.25 304.37V302.26L18.83 296.67ZM20.07 301.1H22.19L15.94 307.35H13.82L20.07 301.1ZM25.74 301.1H27.86L21.61 307.35H19.49L25.74 301.1ZM31.41 301.1H33.53L27.28 307.35H25.15L31.41 301.1ZM37.07 301.1H39.2L33 307.42H30.82L37.07 301.1ZM42.74 301.1H44.87L38.61 307.35H36.49L42.74 301.1ZM48.41 301.1H50.53L44.28 307.35H42.16L48.41 301.1ZM54.08 301.1H56.2L50 307.42H47.83L54.08 301.1ZM59.75 301.1H61.87L55.62 307.35H53.5L59.75 301.1ZM65.42 301.1H67.54L61.29 307.35H59.17L65.42 301.1ZM71.09 301.1H73.21L67 307.42H64.84L71.09 301.1ZM76.76 301.1H78.88L72.63 307.35H70.51L76.76 301.1ZM81.08 299V296.88L86 292V294.11L81.08 299ZM81.08 293.33V291.21L85.97 286.31V288.43L81.08 293.33ZM81.08 287.66V285.54L86 280.64V282.76L81.08 287.66ZM85.94 277.12L81.08 282V279.88L85.94 275V277.12ZM73.13 276.47L79.37 270.24H81.49L75.25 276.47H73.13ZM74.31 214.47H73.81V215.53L67.64 221.71V219.59L78.8 208.43H80.92L74.92 214.43L74.31 214.47ZM84.47 208.47H86.59L80.53 214.53H78.41L84.47 208.47ZM95.81 208.47H97.93L91.84 214.56H89.72L95.81 208.47ZM101.48 208.47H103.6L97.49 214.57H95.38L101.48 208.47ZM107.15 208.47H109.27L103.15 214.59H101L107.15 208.47ZM118.48 208.47H120.61L114.45 214.62H112.34L118.48 208.47ZM124.15 208.47H126.27L120.11 214.63H118L124.15 208.47ZM129.82 208.47H131.94L125.76 214.65H123.65L129.82 208.47ZM3.67 277.88H5.79L1 282.68V280.55L3.67 277.88ZM80.92 276.45H78.8L85 270.22H85.88V271.45L80.92 276.45ZM135.49 208.45H137.61L131.42 214.64H129.3L135.49 208.45ZM137.07 214.66H135L141.2 208.46H143.32L137.07 214.66ZM146.83 208.45H149L142.78 214.67H140.66L146.83 208.45ZM152.5 208.45H154.62L148.38 214.69H146.27L152.5 208.45ZM157.58 214.71L158.47 213.81V214.71H157.58ZM137.64 68.71V73.71C136.544 74.2828 135.626 75.1448 134.985 76.2025C134.344 77.2603 134.006 78.4733 134.006 79.71C134.006 80.9466 134.344 82.1596 134.985 83.2174C135.626 84.2751 136.544 85.1372 137.64 85.71V136.18H133.4V68.68L137.64 68.71ZM137.64 251.98L135.52 256.66L133.4 252V215.63H137.64V251.98ZM137.64 207.46H133.4V149.68H137.64V207.46Z" fill="#00229A"/>
<path d="M159.47 142.41H140.82H113.55L114.74 141.21H113.3L111.61 142.91L113.3 144.6H114.74L113.55 143.41H140.82H159.47V142.41Z" fill="#00229A"/>
<path d="M135 79.67C135 81.2029 135.609 82.6731 136.693 83.7571C137.777 84.841 139.247 85.45 140.78 85.45V80.17H139.4L140.59 81.37H139.15L137.46 79.67L139.15 78H140.59L139.4 79.19H140.81V73.9C140.049 73.896 139.295 74.0423 138.591 74.3304C137.887 74.6184 137.247 75.0427 136.707 75.5787C136.167 76.1148 135.739 76.7521 135.446 77.4542C135.153 78.1563 135.001 78.9092 135 79.67Z" fill="#F7F8FC"/>
<path d="M139.4 79.17L140.59 77.98H139.15L137.46 79.67L139.15 81.37H140.59L139.4 80.17H140.81H159.47V79.17H140.81H139.4Z" fill="#00229A"/>
<path d="M88.472 11.9V12.563L84.663 21H83.649L87.393 12.732H82.713V14.435H81.79V11.9H88.472ZM91.5961 15.631C92.9134 15.631 93.8711 15.8693 94.4691 16.346C95.0757 16.814 95.3791 17.4727 95.3791 18.322C95.3791 18.8507 95.2534 19.323 95.0021 19.739C94.7594 20.155 94.3911 20.4843 93.8971 20.727C93.4031 20.961 92.7964 21.078 92.0771 21.078C91.4271 21.078 90.8074 20.974 90.2181 20.766C89.6374 20.5493 89.1694 20.2633 88.8141 19.908L89.2691 19.167C89.5724 19.479 89.9711 19.7347 90.4651 19.934C90.9591 20.1247 91.4921 20.22 92.0641 20.22C92.8181 20.22 93.3987 20.051 93.8061 19.713C94.2221 19.375 94.4301 18.9243 94.4301 18.361C94.4301 17.737 94.1961 17.2647 93.7281 16.944C93.2687 16.6233 92.4887 16.463 91.3881 16.463H89.4511L89.9191 11.9H94.8981V12.732H90.7381L90.4261 15.631H91.5961ZM102.895 21.065C102.219 21.065 101.612 20.9177 101.075 20.623C100.546 20.3283 100.13 19.9167 99.8267 19.388C99.5234 18.8507 99.3717 18.2483 99.3717 17.581C99.3717 16.9137 99.5234 16.3157 99.8267 15.787C100.13 15.2583 100.546 14.8467 101.075 14.552C101.612 14.2573 102.219 14.11 102.895 14.11C103.484 14.11 104.008 14.227 104.468 14.461C104.936 14.6863 105.304 15.02 105.573 15.462L104.884 15.93C104.658 15.592 104.372 15.3407 104.026 15.176C103.679 15.0027 103.302 14.916 102.895 14.916C102.401 14.916 101.954 15.0287 101.556 15.254C101.166 15.4707 100.858 15.7827 100.633 16.19C100.416 16.5973 100.308 17.061 100.308 17.581C100.308 18.1097 100.416 18.5777 100.633 18.985C100.858 19.3837 101.166 19.6957 101.556 19.921C101.954 20.1377 102.401 20.246 102.895 20.246C103.302 20.246 103.679 20.1637 104.026 19.999C104.372 19.8343 104.658 19.583 104.884 19.245L105.573 19.713C105.304 20.155 104.936 20.493 104.468 20.727C104 20.9523 103.475 21.065 102.895 21.065ZM115.654 14.11C116.512 14.11 117.184 14.357 117.669 14.851C118.163 15.345 118.41 16.073 118.41 17.035V21H117.487V17.126C117.487 16.4153 117.314 15.8737 116.967 15.501C116.629 15.1283 116.148 14.942 115.524 14.942C114.813 14.942 114.254 15.163 113.847 15.605C113.44 16.0383 113.236 16.6407 113.236 17.412V21H112.313V17.126C112.313 16.4153 112.14 15.8737 111.793 15.501C111.455 15.1283 110.97 14.942 110.337 14.942C109.635 14.942 109.076 15.163 108.66 15.605C108.253 16.0383 108.049 16.6407 108.049 17.412V21H107.126V14.162H108.01V15.41C108.253 14.994 108.591 14.6733 109.024 14.448C109.457 14.2227 109.956 14.11 110.519 14.11C111.091 14.11 111.585 14.2313 112.001 14.474C112.426 14.7167 112.742 15.0763 112.95 15.553C113.201 15.1023 113.561 14.7513 114.029 14.5C114.506 14.24 115.047 14.11 115.654 14.11Z" fill="#00229A"/>
<path d="M182.068 237.631C183.385 237.631 184.343 237.869 184.941 238.346C185.548 238.814 185.851 239.473 185.851 240.322C185.851 240.851 185.725 241.323 185.474 241.739C185.231 242.155 184.863 242.484 184.369 242.727C183.875 242.961 183.268 243.078 182.549 243.078C181.899 243.078 181.279 242.974 180.69 242.766C180.109 242.549 179.641 242.263 179.286 241.908L179.741 241.167C180.044 241.479 180.443 241.735 180.937 241.934C181.431 242.125 181.964 242.22 182.536 242.22C183.29 242.22 183.871 242.051 184.278 241.713C184.694 241.375 184.902 240.924 184.902 240.361C184.902 239.737 184.668 239.265 184.2 238.944C183.741 238.623 182.961 238.463 181.86 238.463H179.923L180.391 233.9H185.37V234.732H181.21L180.898 237.631H182.068ZM190.406 243.078C189.704 243.078 189.076 242.892 188.521 242.519C187.975 242.146 187.546 241.613 187.234 240.92C186.931 240.218 186.779 239.395 186.779 238.45C186.779 237.505 186.931 236.686 187.234 235.993C187.546 235.291 187.975 234.754 188.521 234.381C189.076 234.008 189.704 233.822 190.406 233.822C191.108 233.822 191.732 234.008 192.278 234.381C192.833 234.754 193.266 235.291 193.578 235.993C193.89 236.686 194.046 237.505 194.046 238.45C194.046 239.395 193.89 240.218 193.578 240.92C193.266 241.613 192.833 242.146 192.278 242.519C191.732 242.892 191.108 243.078 190.406 243.078ZM190.406 242.22C190.935 242.22 191.399 242.073 191.797 241.778C192.205 241.483 192.521 241.054 192.746 240.491C192.972 239.928 193.084 239.247 193.084 238.45C193.084 237.653 192.972 236.972 192.746 236.409C192.521 235.846 192.205 235.417 191.797 235.122C191.399 234.827 190.935 234.68 190.406 234.68C189.878 234.68 189.41 234.827 189.002 235.122C188.604 235.417 188.292 235.846 188.066 236.409C187.841 236.972 187.728 237.653 187.728 238.45C187.728 239.247 187.841 239.928 188.066 240.491C188.292 241.054 188.604 241.483 189.002 241.778C189.41 242.073 189.878 242.22 190.406 242.22ZM201.714 243.065C201.038 243.065 200.431 242.918 199.894 242.623C199.365 242.328 198.949 241.917 198.646 241.388C198.343 240.851 198.191 240.248 198.191 239.581C198.191 238.914 198.343 238.316 198.646 237.787C198.949 237.258 199.365 236.847 199.894 236.552C200.431 236.257 201.038 236.11 201.714 236.11C202.303 236.11 202.828 236.227 203.287 236.461C203.755 236.686 204.123 237.02 204.392 237.462L203.703 237.93C203.478 237.592 203.192 237.341 202.845 237.176C202.498 237.003 202.121 236.916 201.714 236.916C201.22 236.916 200.774 237.029 200.375 237.254C199.985 237.471 199.677 237.783 199.452 238.19C199.235 238.597 199.127 239.061 199.127 239.581C199.127 240.11 199.235 240.578 199.452 240.985C199.677 241.384 199.985 241.696 200.375 241.921C200.774 242.138 201.22 242.246 201.714 242.246C202.121 242.246 202.498 242.164 202.845 241.999C203.192 241.834 203.478 241.583 203.703 241.245L204.392 241.713C204.123 242.155 203.755 242.493 203.287 242.727C202.819 242.952 202.295 243.065 201.714 243.065ZM214.473 236.11C215.331 236.11 216.003 236.357 216.488 236.851C216.982 237.345 217.229 238.073 217.229 239.035V243H216.306V239.126C216.306 238.415 216.133 237.874 215.786 237.501C215.448 237.128 214.967 236.942 214.343 236.942C213.633 236.942 213.074 237.163 212.666 237.605C212.259 238.038 212.055 238.641 212.055 239.412V243H211.132V239.126C211.132 238.415 210.959 237.874 210.612 237.501C210.274 237.128 209.789 236.942 209.156 236.942C208.454 236.942 207.895 237.163 207.479 237.605C207.072 238.038 206.868 238.641 206.868 239.412V243H205.945V236.162H206.829V237.41C207.072 236.994 207.41 236.673 207.843 236.448C208.277 236.223 208.775 236.11 209.338 236.11C209.91 236.11 210.404 236.231 210.82 236.474C211.245 236.717 211.561 237.076 211.769 237.553C212.021 237.102 212.38 236.751 212.848 236.5C213.325 236.24 213.867 236.11 214.473 236.11Z" fill="#00229A"/>
<path d="M167.55 79.827H165.47V84H164.534V74.9H165.47V78.982H167.55L170.631 74.9H171.671L168.291 79.32L171.866 84H170.761L167.55 79.827ZM176.577 77.11C177.218 77.11 177.799 77.2573 178.319 77.552C178.839 77.838 179.246 78.2453 179.541 78.774C179.836 79.3027 179.983 79.905 179.983 80.581C179.983 81.2657 179.836 81.8723 179.541 82.401C179.246 82.9297 178.839 83.3413 178.319 83.636C177.808 83.922 177.227 84.065 176.577 84.065C176.022 84.065 175.52 83.9523 175.069 83.727C174.627 83.493 174.263 83.155 173.977 82.713V86.522H173.054V77.162H173.938V78.514C174.215 78.0633 174.579 77.7167 175.03 77.474C175.489 77.2313 176.005 77.11 176.577 77.11ZM176.512 83.246C176.989 83.246 177.422 83.1377 177.812 82.921C178.202 82.6957 178.505 82.3793 178.722 81.972C178.947 81.5647 179.06 81.101 179.06 80.581C179.06 80.061 178.947 79.6017 178.722 79.203C178.505 78.7957 178.202 78.4793 177.812 78.254C177.422 78.0287 176.989 77.916 176.512 77.916C176.027 77.916 175.589 78.0287 175.199 78.254C174.818 78.4793 174.514 78.7957 174.289 79.203C174.072 79.6017 173.964 80.061 173.964 80.581C173.964 81.101 174.072 81.5647 174.289 81.972C174.514 82.3793 174.818 82.6957 175.199 82.921C175.589 83.1377 176.027 83.246 176.512 83.246ZM187.327 77.162L183.908 84.819C183.63 85.4603 183.31 85.9153 182.946 86.184C182.582 86.4527 182.144 86.587 181.633 86.587C181.303 86.587 180.996 86.535 180.71 86.431C180.424 86.327 180.177 86.171 179.969 85.963L180.398 85.274C180.744 85.6207 181.16 85.794 181.646 85.794C181.958 85.794 182.222 85.7073 182.439 85.534C182.664 85.3607 182.872 85.066 183.063 84.65L183.362 83.987L180.307 77.162H181.269L183.843 82.973L186.417 77.162H187.327ZM193.341 77.981H189.428V84H188.505V77.162H193.341V77.981ZM199.586 77.162V84H198.663V77.981H195.387L195.296 79.671C195.226 81.0923 195.062 82.1843 194.802 82.947C194.542 83.7097 194.078 84.091 193.411 84.091C193.229 84.091 193.008 84.0563 192.748 83.987L192.813 83.194C192.969 83.2287 193.077 83.246 193.138 83.246C193.493 83.246 193.762 83.0813 193.944 82.752C194.126 82.4227 194.247 82.0153 194.308 81.53C194.368 81.0447 194.42 80.4033 194.464 79.606L194.581 77.162H199.586ZM207.202 77.162V84H206.357V81.738H204.212H203.952L202.366 84H201.365L203.068 81.608C202.539 81.4607 202.132 81.2093 201.846 80.854C201.56 80.4987 201.417 80.048 201.417 79.502C201.417 78.7393 201.677 78.1587 202.197 77.76C202.717 77.3613 203.427 77.162 204.329 77.162H207.202ZM202.353 79.528C202.353 80.542 202.998 81.049 204.29 81.049H206.357V77.981H204.355C203.02 77.981 202.353 78.4967 202.353 79.528ZM212.056 80.958H210.496V84H209.573V77.162H210.496V80.165H212.069L214.474 77.162H215.475L212.784 80.477L215.67 84H214.578L212.056 80.958ZM173.751 92.162V99H164.313V92.162H165.236V98.194H168.59V92.162H169.513V98.194H172.828V92.162H173.751ZM174.804 98.194V100.495H173.933V99H172.776V98.194H174.804ZM178.947 99.065C178.289 99.065 177.695 98.9177 177.166 98.623C176.638 98.3197 176.222 97.9037 175.918 97.375C175.615 96.8463 175.463 96.2483 175.463 95.581C175.463 94.9137 175.615 94.3157 175.918 93.787C176.222 93.2583 176.638 92.8467 177.166 92.552C177.695 92.2573 178.289 92.11 178.947 92.11C179.606 92.11 180.2 92.2573 180.728 92.552C181.257 92.8467 181.669 93.2583 181.963 93.787C182.267 94.3157 182.418 94.9137 182.418 95.581C182.418 96.2483 182.267 96.8463 181.963 97.375C181.669 97.9037 181.257 98.3197 180.728 98.623C180.2 98.9177 179.606 99.065 178.947 99.065ZM178.947 98.246C179.433 98.246 179.866 98.1377 180.247 97.921C180.637 97.6957 180.941 97.3793 181.157 96.972C181.374 96.5647 181.482 96.101 181.482 95.581C181.482 95.061 181.374 94.5973 181.157 94.19C180.941 93.7827 180.637 93.4707 180.247 93.254C179.866 93.0287 179.433 92.916 178.947 92.916C178.462 92.916 178.024 93.0287 177.634 93.254C177.253 93.4707 176.95 93.7827 176.724 94.19C176.508 94.5973 176.399 95.061 176.399 95.581C176.399 96.101 176.508 96.5647 176.724 96.972C176.95 97.3793 177.253 97.6957 177.634 97.921C178.024 98.1377 178.462 98.246 178.947 98.246ZM184.131 92.162H185.054V95.191H189.357V92.162H190.28V99H189.357V95.984H185.054V99H184.131V92.162ZM194.996 92.11C195.889 92.11 196.574 92.3353 197.05 92.786C197.527 93.228 197.765 93.8867 197.765 94.762V99H196.881V97.934C196.673 98.2893 196.366 98.5667 195.958 98.766C195.56 98.9653 195.083 99.065 194.528 99.065C193.766 99.065 193.159 98.883 192.708 98.519C192.258 98.155 192.032 97.674 192.032 97.076C192.032 96.4953 192.24 96.0273 192.656 95.672C193.081 95.3167 193.753 95.139 194.671 95.139H196.842V94.723C196.842 94.1337 196.678 93.6873 196.348 93.384C196.019 93.072 195.538 92.916 194.905 92.916C194.472 92.916 194.056 92.9897 193.657 93.137C193.259 93.2757 192.916 93.4707 192.63 93.722L192.214 93.033C192.561 92.7383 192.977 92.513 193.462 92.357C193.948 92.1923 194.459 92.11 194.996 92.11ZM194.671 98.337C195.191 98.337 195.638 98.22 196.01 97.986C196.383 97.7433 196.66 97.3967 196.842 96.946V95.828H194.697C193.527 95.828 192.942 96.2353 192.942 97.05C192.942 97.4487 193.094 97.765 193.397 97.999C193.701 98.2243 194.125 98.337 194.671 98.337ZM199.962 92.162H200.885V97.596L205.448 92.162H206.267V99H205.344V93.566L200.794 99H199.962V92.162ZM203.069 91.174C202.48 91.174 202.012 91.0267 201.665 90.732C201.319 90.4373 201.141 90.0213 201.132 89.484H201.795C201.804 89.822 201.925 90.095 202.159 90.303C202.393 90.5023 202.697 90.602 203.069 90.602C203.442 90.602 203.745 90.5023 203.979 90.303C204.222 90.095 204.348 89.822 204.356 89.484H205.019C205.011 90.0213 204.829 90.4373 204.473 90.732C204.127 91.0267 203.659 91.174 203.069 91.174ZM216.297 92.162V99H215.452V93.592L212.683 98.168H212.267L209.498 93.579V99H208.653V92.162H209.589L212.488 97.089L215.439 92.162H216.297ZM224.643 95.867H218.923C218.975 96.5777 219.248 97.154 219.742 97.596C220.236 98.0293 220.86 98.246 221.614 98.246C222.039 98.246 222.429 98.1723 222.784 98.025C223.139 97.869 223.447 97.6437 223.707 97.349L224.227 97.947C223.924 98.311 223.542 98.5883 223.083 98.779C222.632 98.9697 222.134 99.065 221.588 99.065C220.886 99.065 220.262 98.9177 219.716 98.623C219.179 98.3197 218.758 97.9037 218.455 97.375C218.152 96.8463 218 96.2483 218 95.581C218 94.9137 218.143 94.3157 218.429 93.787C218.724 93.2583 219.122 92.8467 219.625 92.552C220.136 92.2573 220.708 92.11 221.341 92.11C221.974 92.11 222.541 92.2573 223.044 92.552C223.547 92.8467 223.941 93.2583 224.227 93.787C224.513 94.307 224.656 94.905 224.656 95.581L224.643 95.867ZM221.341 92.903C220.682 92.903 220.128 93.1153 219.677 93.54C219.235 93.956 218.984 94.502 218.923 95.178H223.772C223.711 94.502 223.456 93.956 223.005 93.54C222.563 93.1153 222.008 92.903 221.341 92.903ZM226.439 92.162H227.362V95.191H231.665V92.162H232.588V99H231.665V95.984H227.362V99H226.439V92.162ZM244.39 92.162V99H234.952V92.162H235.875V98.194H239.229V92.162H240.152V98.194H243.467V92.162H244.39ZM252.745 95.867H247.025C247.077 96.5777 247.35 97.154 247.844 97.596C248.338 98.0293 248.962 98.246 249.716 98.246C250.141 98.246 250.531 98.1723 250.886 98.025C251.241 97.869 251.549 97.6437 251.809 97.349L252.329 97.947C252.026 98.311 251.644 98.5883 251.185 98.779C250.734 98.9697 250.236 99.065 249.69 99.065C248.988 99.065 248.364 98.9177 247.818 98.623C247.281 98.3197 246.86 97.9037 246.557 97.375C246.254 96.8463 246.102 96.2483 246.102 95.581C246.102 94.9137 246.245 94.3157 246.531 93.787C246.826 93.2583 247.224 92.8467 247.727 92.552C248.238 92.2573 248.81 92.11 249.443 92.11C250.076 92.11 250.643 92.2573 251.146 92.552C251.649 92.8467 252.043 93.2583 252.329 93.787C252.615 94.307 252.758 94.905 252.758 95.581L252.745 95.867ZM249.443 92.903C248.784 92.903 248.23 93.1153 247.779 93.54C247.337 93.956 247.086 94.502 247.025 95.178H251.874C251.813 94.502 251.558 93.956 251.107 93.54C250.665 93.1153 250.11 92.903 249.443 92.903ZM259.568 89.9V99H258.632V90.732H256.487V89.9H259.568ZM263.876 93.631C265.193 93.631 266.151 93.8693 266.749 94.346C267.355 94.814 267.659 95.4727 267.659 96.322C267.659 96.8507 267.533 97.323 267.282 97.739C267.039 98.155 266.671 98.4843 266.177 98.727C265.683 98.961 265.076 99.078 264.357 99.078C263.707 99.078 263.087 98.974 262.498 98.766C261.917 98.5493 261.449 98.2633 261.094 97.908L261.549 97.167C261.852 97.479 262.251 97.7347 262.745 97.934C263.239 98.1247 263.772 98.22 264.344 98.22C265.098 98.22 265.678 98.051 266.086 97.713C266.502 97.375 266.71 96.9243 266.71 96.361C266.71 95.737 266.476 95.2647 266.008 94.944C265.548 94.6233 264.768 94.463 263.668 94.463H261.731L262.199 89.9H267.178V90.732H263.018L262.706 93.631H263.876ZM275.174 99.065C274.498 99.065 273.892 98.9177 273.354 98.623C272.826 98.3283 272.41 97.9167 272.106 97.388C271.803 96.8507 271.651 96.2483 271.651 95.581C271.651 94.9137 271.803 94.3157 272.106 93.787C272.41 93.2583 272.826 92.8467 273.354 92.552C273.892 92.2573 274.498 92.11 275.174 92.11C275.764 92.11 276.288 92.227 276.747 92.461C277.215 92.6863 277.584 93.02 277.852 93.462L277.163 93.93C276.938 93.592 276.652 93.3407 276.305 93.176C275.959 93.0027 275.582 92.916 275.174 92.916C274.68 92.916 274.234 93.0287 273.835 93.254C273.445 93.4707 273.138 93.7827 272.912 94.19C272.696 94.5973 272.587 95.061 272.587 95.581C272.587 96.1097 272.696 96.5777 272.912 96.985C273.138 97.3837 273.445 97.6957 273.835 97.921C274.234 98.1377 274.68 98.246 275.174 98.246C275.582 98.246 275.959 98.1637 276.305 97.999C276.652 97.8343 276.938 97.583 277.163 97.245L277.852 97.713C277.584 98.155 277.215 98.493 276.747 98.727C276.279 98.9523 275.755 99.065 275.174 99.065ZM287.934 92.11C288.792 92.11 289.463 92.357 289.949 92.851C290.443 93.345 290.69 94.073 290.69 95.035V99H289.767V95.126C289.767 94.4153 289.593 93.8737 289.247 93.501C288.909 93.1283 288.428 92.942 287.804 92.942C287.093 92.942 286.534 93.163 286.127 93.605C285.719 94.0383 285.516 94.6407 285.516 95.412V99H284.593V95.126C284.593 94.4153 284.419 93.8737 284.073 93.501C283.735 93.1283 283.249 92.942 282.617 92.942C281.915 92.942 281.356 93.163 280.94 93.605C280.532 94.0383 280.329 94.6407 280.329 95.412V99H279.406V92.162H280.29V93.41C280.532 92.994 280.87 92.6733 281.304 92.448C281.737 92.2227 282.235 92.11 282.799 92.11C283.371 92.11 283.865 92.2313 284.281 92.474C284.705 92.7167 285.022 93.0763 285.23 93.553C285.481 93.1023 285.841 92.7513 286.309 92.5C286.785 92.24 287.327 92.11 287.934 92.11ZM297.106 99.078C296.204 99.078 295.385 98.8787 294.649 98.48C293.921 98.0727 293.349 97.518 292.933 96.816C292.525 96.114 292.322 95.3253 292.322 94.45C292.322 93.5747 292.525 92.786 292.933 92.084C293.349 91.382 293.921 90.8317 294.649 90.433C295.385 90.0257 296.204 89.822 297.106 89.822C298.007 89.822 298.817 90.0213 299.537 90.42C300.265 90.8187 300.837 91.3733 301.253 92.084C301.669 92.786 301.877 93.5747 301.877 94.45C301.877 95.3253 301.669 96.1183 301.253 96.829C300.837 97.531 300.265 98.0813 299.537 98.48C298.817 98.8787 298.007 99.078 297.106 99.078ZM297.106 98.22C297.825 98.22 298.475 98.0597 299.056 97.739C299.636 97.4097 300.091 96.959 300.421 96.387C300.75 95.8063 300.915 95.1607 300.915 94.45C300.915 93.7393 300.75 93.098 300.421 92.526C300.091 91.9453 299.636 91.4947 299.056 91.174C298.475 90.8447 297.825 90.68 297.106 90.68C296.386 90.68 295.732 90.8447 295.143 91.174C294.562 91.4947 294.103 91.9453 293.765 92.526C293.435 93.098 293.271 93.7393 293.271 94.45C293.271 95.1607 293.435 95.8063 293.765 96.387C294.103 96.959 294.562 97.4097 295.143 97.739C295.732 98.0597 296.386 98.22 297.106 98.22ZM300.668 88.99H301.435L293.557 99.91H292.777L300.668 88.99Z" fill="#00229A"/>
<path d="M173.985 137.9V147H173.062V139.72L169.487 145.843H169.032L165.457 139.759V147H164.534V137.9H165.327L169.279 144.647L173.192 137.9H173.985ZM176.571 140.162H177.494V147H176.571V140.162ZM177.039 138.667C176.848 138.667 176.688 138.602 176.558 138.472C176.428 138.342 176.363 138.186 176.363 138.004C176.363 137.831 176.428 137.679 176.558 137.549C176.688 137.419 176.848 137.354 177.039 137.354C177.229 137.354 177.39 137.419 177.52 137.549C177.65 137.67 177.715 137.818 177.715 137.991C177.715 138.182 177.65 138.342 177.52 138.472C177.39 138.602 177.229 138.667 177.039 138.667ZM189.303 140.162V147H179.865V140.162H180.788V146.194H184.142V140.162H185.065V146.194H188.38V140.162H189.303ZM194.162 143.958H192.602V147H191.679V140.162H192.602V143.165H194.175L196.58 140.162H197.581L194.89 143.477L197.776 147H196.684L194.162 143.958ZM198.972 140.162H199.895V145.596L204.458 140.162H205.277V147H204.354V141.566L199.804 147H198.972V140.162ZM214.133 143.438C214.618 143.551 214.991 143.746 215.251 144.023C215.519 144.3 215.654 144.638 215.654 145.037C215.654 145.436 215.515 145.791 215.238 146.103C214.969 146.415 214.601 146.658 214.133 146.831C213.665 146.996 213.149 147.078 212.586 147.078C212.092 147.078 211.606 147.009 211.13 146.87C210.653 146.723 210.237 146.51 209.882 146.233L210.194 145.544C210.506 145.778 210.87 145.96 211.286 146.09C211.702 146.22 212.122 146.285 212.547 146.285C213.179 146.285 213.695 146.168 214.094 145.934C214.501 145.691 214.705 145.366 214.705 144.959C214.705 144.595 214.54 144.313 214.211 144.114C213.881 143.906 213.431 143.802 212.859 143.802H211.689V143.126H212.807C213.318 143.126 213.73 143.031 214.042 142.84C214.354 142.641 214.51 142.376 214.51 142.047C214.51 141.683 214.332 141.397 213.977 141.189C213.63 140.981 213.175 140.877 212.612 140.877C211.875 140.877 211.147 141.063 210.428 141.436L210.168 140.721C210.982 140.296 211.827 140.084 212.703 140.084C213.223 140.084 213.691 140.162 214.107 140.318C214.531 140.465 214.861 140.678 215.095 140.955C215.337 141.232 215.459 141.553 215.459 141.917C215.459 142.264 215.337 142.571 215.095 142.84C214.861 143.109 214.54 143.308 214.133 143.438ZM226.767 140.162V147H225.844V140.981H221.554V147H220.631V140.162H226.767ZM229.131 140.162H230.054V147H229.131V140.162ZM229.599 138.667C229.409 138.667 229.248 138.602 229.118 138.472C228.988 138.342 228.923 138.186 228.923 138.004C228.923 137.831 228.988 137.679 229.118 137.549C229.248 137.419 229.409 137.354 229.599 137.354C229.79 137.354 229.95 137.419 230.08 137.549C230.21 137.67 230.275 137.818 230.275 137.991C230.275 138.182 230.21 138.342 230.08 138.472C229.95 138.602 229.79 138.667 229.599 138.667ZM235.286 147.065C234.61 147.065 234.003 146.918 233.466 146.623C232.937 146.328 232.521 145.917 232.218 145.388C231.915 144.851 231.763 144.248 231.763 143.581C231.763 142.914 231.915 142.316 232.218 141.787C232.521 141.258 232.937 140.847 233.466 140.552C234.003 140.257 234.61 140.11 235.286 140.11C235.875 140.11 236.4 140.227 236.859 140.461C237.327 140.686 237.695 141.02 237.964 141.462L237.275 141.93C237.05 141.592 236.764 141.341 236.417 141.176C236.07 141.003 235.693 140.916 235.286 140.916C234.792 140.916 234.346 141.029 233.947 141.254C233.557 141.471 233.249 141.783 233.024 142.19C232.807 142.597 232.699 143.061 232.699 143.581C232.699 144.11 232.807 144.578 233.024 144.985C233.249 145.384 233.557 145.696 233.947 145.921C234.346 146.138 234.792 146.246 235.286 146.246C235.693 146.246 236.07 146.164 236.417 145.999C236.764 145.834 237.05 145.583 237.275 145.245L237.964 145.713C237.695 146.155 237.327 146.493 236.859 146.727C236.391 146.952 235.867 147.065 235.286 147.065ZM241.974 143.958H240.414V147H239.491V140.162H240.414V143.165H241.987L244.392 140.162H245.393L242.702 143.477L245.588 147H244.496L241.974 143.958ZM249.365 147.065C248.706 147.065 248.112 146.918 247.584 146.623C247.055 146.32 246.639 145.904 246.336 145.375C246.032 144.846 245.881 144.248 245.881 143.581C245.881 142.914 246.032 142.316 246.336 141.787C246.639 141.258 247.055 140.847 247.584 140.552C248.112 140.257 248.706 140.11 249.365 140.11C250.023 140.11 250.617 140.257 251.146 140.552C251.674 140.847 252.086 141.258 252.381 141.787C252.684 142.316 252.836 142.914 252.836 143.581C252.836 144.248 252.684 144.846 252.381 145.375C252.086 145.904 251.674 146.32 251.146 146.623C250.617 146.918 250.023 147.065 249.365 147.065ZM249.365 146.246C249.85 146.246 250.283 146.138 250.665 145.921C251.055 145.696 251.358 145.379 251.575 144.972C251.791 144.565 251.9 144.101 251.9 143.581C251.9 143.061 251.791 142.597 251.575 142.19C251.358 141.783 251.055 141.471 250.665 141.254C250.283 141.029 249.85 140.916 249.365 140.916C248.879 140.916 248.442 141.029 248.052 141.254C247.67 141.471 247.367 141.783 247.142 142.19C246.925 142.597 246.817 143.061 246.817 143.581C246.817 144.101 246.925 144.565 247.142 144.972C247.367 145.379 247.67 145.696 248.052 145.921C248.442 146.138 248.879 146.246 249.365 146.246ZM262.192 140.162V147H261.347V141.592L258.578 146.168H258.162L255.393 141.579V147H254.548V140.162H255.484L258.383 145.089L261.334 140.162H262.192Z" fill="#00229A"/>
</svg>
