<svg width="328" height="328" viewBox="0 0 328 328" fill="none" xmlns="http://www.w3.org/2000/svg">
<path d="M92.4375 223.082H80.2519V231.039V231.225H39.5827V279.991H92.4375V223.082Z" fill="white"/>
<path d="M39.5826 109.942H64.608H65.7763H80.2518V118.085H92.4373V47.1685H39.5826V56.5033H1.16821V74.5422H39.5826V109.942Z" fill="white"/>
<path d="M36.0074 91.1672H31.0537V250H36.0074V91.1672Z" fill="#D9DEEE"/>
<path d="M100.919 91.1672H95.9658V259.884H100.919V91.1672Z" fill="#D9DEEE"/>
<path d="M109.378 91.1672H104.424V259.884H109.378V91.1672Z" fill="white"/>
<path d="M76.9106 223.725C77.6913 223.725 78.3242 223.092 78.3242 222.311C78.3242 221.53 77.6913 220.897 76.9106 220.897C76.1298 220.897 75.4969 221.53 75.4969 222.311C75.4969 223.092 76.1298 223.725 76.9106 223.725Z" fill="#00229A"/>
<path d="M71.2674 223.725C71.547 223.725 71.8203 223.642 72.0528 223.486C72.2853 223.331 72.4665 223.11 72.5735 222.852C72.6805 222.594 72.7085 222.309 72.6539 222.035C72.5994 221.761 72.4647 221.509 72.267 221.311C72.0693 221.114 71.8174 220.979 71.5432 220.924C71.269 220.87 70.9848 220.898 70.7264 221.005C70.4681 221.112 70.2473 221.293 70.092 221.525C69.9367 221.758 69.8538 222.031 69.8538 222.311C69.8538 222.686 70.0027 223.045 70.2678 223.31C70.5329 223.576 70.8925 223.725 71.2674 223.725Z" fill="#00229A"/>
<path d="M59.9817 223.725C60.2613 223.725 60.5346 223.642 60.7671 223.486C60.9996 223.331 61.1808 223.11 61.2878 222.852C61.3948 222.594 61.4228 222.309 61.3682 222.035C61.3137 221.761 61.179 221.509 60.9813 221.311C60.7836 221.114 60.5317 220.979 60.2575 220.924C59.9833 220.87 59.699 220.898 59.4407 221.005C59.1824 221.112 58.9616 221.293 58.8063 221.525C58.651 221.758 58.5681 222.031 58.5681 222.311C58.5681 222.686 58.717 223.045 58.9821 223.31C59.2472 223.576 59.6068 223.725 59.9817 223.725Z" fill="#00229A"/>
<path d="M54.3386 223.725C55.1193 223.725 55.7523 223.092 55.7523 222.311C55.7523 221.53 55.1193 220.897 54.3386 220.897C53.5578 220.897 52.9249 221.53 52.9249 222.311C52.9249 223.092 53.5578 223.725 54.3386 223.725Z" fill="#00229A"/>
<path d="M48.6957 220.909C48.4156 220.909 48.1418 220.992 47.9091 221.148C47.6763 221.304 47.4952 221.525 47.3885 221.784C47.2819 222.043 47.2546 222.328 47.3101 222.603C47.3656 222.877 47.5014 223.129 47.7003 223.326C47.8991 223.524 48.1521 223.657 48.4271 223.711C48.7021 223.764 48.9867 223.734 49.2448 223.625C49.5029 223.517 49.7229 223.334 49.8768 223.1C50.0307 222.866 50.1116 222.591 50.1093 222.311C50.1093 222.126 50.0727 221.943 50.0015 221.772C49.9303 221.601 49.826 221.446 49.6946 221.315C49.5631 221.185 49.4072 221.082 49.2358 221.012C49.0643 220.943 48.8808 220.907 48.6957 220.909Z" fill="#00229A"/>
<path d="M43.0526 223.725C43.8333 223.725 44.4663 223.092 44.4663 222.311C44.4663 221.53 43.8333 220.897 43.0526 220.897C42.2718 220.897 41.6389 221.53 41.6389 222.311C41.6389 223.092 42.2718 223.725 43.0526 223.725Z" fill="#00229A"/>
<path d="M88.1847 217.101C88.4643 217.101 88.7376 217.018 88.9701 216.863C89.2026 216.707 89.3838 216.486 89.4908 216.228C89.5978 215.97 89.6258 215.686 89.5712 215.411C89.5167 215.137 89.382 214.885 89.1843 214.687C88.9866 214.49 88.7347 214.355 88.4605 214.301C88.1863 214.246 87.9021 214.274 87.6437 214.381C87.3854 214.488 87.1646 214.669 87.0093 214.902C86.854 215.134 86.7711 215.408 86.7711 215.687C86.7711 216.062 86.92 216.422 87.1851 216.687C87.4502 216.952 87.8098 217.101 88.1847 217.101Z" fill="#00229A"/>
<path d="M82.5417 217.101C82.8218 217.103 83.0962 217.022 83.3302 216.868C83.5643 216.714 83.7473 216.494 83.8561 216.236C83.9648 215.978 83.9945 215.693 83.9413 215.418C83.8881 215.144 83.7544 214.891 83.5571 214.692C83.3599 214.493 83.108 214.357 82.8335 214.301C82.559 214.246 82.2741 214.273 82.0151 214.38C81.7561 214.487 81.5347 214.668 81.3788 214.9C81.2229 215.133 81.1397 215.407 81.1397 215.687C81.1397 216.06 81.287 216.418 81.5496 216.683C81.8122 216.947 82.1688 217.098 82.5417 217.101Z" fill="#00229A"/>
<path d="M76.9106 217.101C77.1901 217.101 77.4635 217.018 77.6959 216.863C77.9284 216.707 78.1096 216.486 78.2166 216.228C78.3236 215.97 78.3516 215.686 78.297 215.411C78.2425 215.137 78.1079 214.885 77.9102 214.687C77.7125 214.49 77.4606 214.355 77.1863 214.301C76.9121 214.246 76.6279 214.274 76.3696 214.381C76.1112 214.488 75.8905 214.669 75.7351 214.902C75.5798 215.134 75.4969 215.408 75.4969 215.687C75.4969 216.062 75.6458 216.422 75.9109 216.687C76.1761 216.952 76.5356 217.101 76.9106 217.101Z" fill="#00229A"/>
<path d="M71.2674 217.101C71.547 217.101 71.8203 217.018 72.0528 216.863C72.2853 216.707 72.4665 216.486 72.5735 216.228C72.6805 215.97 72.7085 215.686 72.6539 215.411C72.5994 215.137 72.4647 214.885 72.267 214.687C72.0693 214.49 71.8174 214.355 71.5432 214.301C71.269 214.246 70.9848 214.274 70.7264 214.381C70.4681 214.488 70.2473 214.669 70.092 214.902C69.9367 215.134 69.8538 215.408 69.8538 215.687C69.8538 216.062 70.0027 216.422 70.2678 216.687C70.5329 216.952 70.8925 217.101 71.2674 217.101Z" fill="#00229A"/>
<path d="M59.9817 217.101C60.2613 217.101 60.5346 217.018 60.7671 216.863C60.9996 216.707 61.1808 216.486 61.2878 216.228C61.3948 215.97 61.4228 215.686 61.3682 215.411C61.3137 215.137 61.179 214.885 60.9813 214.687C60.7836 214.49 60.5317 214.355 60.2575 214.301C59.9833 214.246 59.699 214.274 59.4407 214.381C59.1824 214.488 58.9616 214.669 58.8063 214.902C58.651 215.134 58.5681 215.408 58.5681 215.687C58.5681 216.062 58.717 216.422 58.9821 216.687C59.2472 216.952 59.6068 217.101 59.9817 217.101Z" fill="#00229A"/>
<path d="M54.3386 217.101C54.6182 217.101 54.8915 217.018 55.124 216.863C55.3565 216.707 55.5377 216.486 55.6447 216.228C55.7517 215.97 55.7796 215.686 55.7251 215.411C55.6706 215.137 55.5359 214.885 55.3382 214.687C55.1405 214.49 54.8886 214.355 54.6144 214.301C54.3402 214.246 54.0559 214.274 53.7976 214.381C53.5393 214.488 53.3185 214.669 53.1632 214.902C53.0078 215.134 52.9249 215.408 52.9249 215.687C52.9249 215.873 52.9615 216.057 53.0325 216.228C53.1036 216.4 53.2077 216.555 53.339 216.687C53.4703 216.818 53.6261 216.922 53.7976 216.993C53.9691 217.064 54.1529 217.101 54.3386 217.101Z" fill="#00229A"/>
<path d="M88.1847 210.476C88.9655 210.476 89.5984 209.843 89.5984 209.063C89.5984 208.282 88.9655 207.649 88.1847 207.649C87.404 207.649 86.7711 208.282 86.7711 209.063C86.7711 209.843 87.404 210.476 88.1847 210.476Z" fill="#00229A"/>
<path d="M82.5417 210.476C82.8218 210.479 83.0962 210.398 83.3302 210.244C83.5643 210.09 83.7473 209.87 83.8561 209.612C83.9648 209.354 83.9945 209.069 83.9413 208.794C83.8881 208.519 83.7544 208.266 83.5571 208.067C83.3599 207.868 83.108 207.732 82.8335 207.677C82.559 207.621 82.2741 207.649 82.0151 207.755C81.7561 207.862 81.5347 208.043 81.3788 208.276C81.2229 208.509 81.1397 208.782 81.1397 209.063C81.1397 209.435 81.287 209.793 81.5496 210.058C81.8122 210.323 82.1688 210.473 82.5417 210.476Z" fill="#00229A"/>
<path d="M76.9106 210.476C77.6913 210.476 78.3242 209.843 78.3242 209.063C78.3242 208.282 77.6913 207.649 76.9106 207.649C76.1298 207.649 75.4969 208.282 75.4969 209.063C75.4969 209.843 76.1298 210.476 76.9106 210.476Z" fill="#00229A"/>
<path d="M71.2674 210.476C71.547 210.476 71.8203 210.393 72.0528 210.238C72.2853 210.083 72.4665 209.862 72.5735 209.604C72.6805 209.345 72.7085 209.061 72.6539 208.787C72.5994 208.513 72.4647 208.261 72.267 208.063C72.0693 207.865 71.8174 207.731 71.5432 207.676C71.269 207.622 70.9848 207.65 70.7264 207.757C70.4681 207.864 70.2473 208.045 70.092 208.277C69.9367 208.51 69.8538 208.783 69.8538 209.063C69.8538 209.248 69.8903 209.432 69.9614 209.604C70.0324 209.775 70.1365 209.931 70.2678 210.062C70.3991 210.193 70.5549 210.298 70.7264 210.369C70.898 210.44 71.0818 210.476 71.2674 210.476Z" fill="#00229A"/>
<path d="M59.9817 210.476C60.2613 210.476 60.5346 210.393 60.7671 210.238C60.9996 210.083 61.1808 209.862 61.2878 209.604C61.3948 209.345 61.4228 209.061 61.3682 208.787C61.3137 208.513 61.179 208.261 60.9813 208.063C60.7836 207.865 60.5317 207.731 60.2575 207.676C59.9833 207.622 59.699 207.65 59.4407 207.757C59.1824 207.864 58.9616 208.045 58.8063 208.277C58.651 208.51 58.5681 208.783 58.5681 209.063C58.5681 209.248 58.6046 209.432 58.6757 209.604C58.7467 209.775 58.8508 209.931 58.9821 210.062C59.1134 210.193 59.2692 210.298 59.4407 210.369C59.6122 210.44 59.7961 210.476 59.9817 210.476Z" fill="#00229A"/>
<path d="M54.3386 210.476C55.1193 210.476 55.7523 209.843 55.7523 209.063C55.7523 208.282 55.1193 207.649 54.3386 207.649C53.5578 207.649 52.9249 208.282 52.9249 209.063C52.9249 209.843 53.5578 210.476 54.3386 210.476Z" fill="#00229A"/>
<path d="M88.1847 203.852C88.9655 203.852 89.5984 203.219 89.5984 202.438C89.5984 201.657 88.9655 201.024 88.1847 201.024C87.404 201.024 86.7711 201.657 86.7711 202.438C86.7711 203.219 87.404 203.852 88.1847 203.852Z" fill="#00229A"/>
<path d="M82.5417 203.851C82.8218 203.854 83.0962 203.773 83.3302 203.619C83.5643 203.465 83.7473 203.245 83.8561 202.987C83.9648 202.729 83.9945 202.444 83.9413 202.169C83.8881 201.894 83.7544 201.641 83.5571 201.442C83.3599 201.244 83.108 201.108 82.8335 201.052C82.559 200.997 82.2741 201.024 82.0151 201.131C81.7561 201.237 81.5347 201.418 81.3788 201.651C81.2229 201.884 81.1397 202.158 81.1397 202.438C81.1397 202.811 81.287 203.169 81.5496 203.433C81.8122 203.698 82.1688 203.848 82.5417 203.851Z" fill="#00229A"/>
<path d="M76.9106 203.852C77.6913 203.852 78.3242 203.219 78.3242 202.438C78.3242 201.657 77.6913 201.024 76.9106 201.024C76.1298 201.024 75.4969 201.657 75.4969 202.438C75.4969 203.219 76.1298 203.852 76.9106 203.852Z" fill="#00229A"/>
<path d="M71.2674 203.851C71.547 203.851 71.8203 203.769 72.0528 203.613C72.2853 203.458 72.4665 203.237 72.5735 202.979C72.6805 202.721 72.7085 202.436 72.6539 202.162C72.5994 201.888 72.4647 201.636 72.267 201.438C72.0693 201.241 71.8174 201.106 71.5432 201.051C71.269 200.997 70.9848 201.025 70.7264 201.132C70.4681 201.239 70.2473 201.42 70.092 201.652C69.9367 201.885 69.8538 202.158 69.8538 202.438C69.8538 202.813 70.0027 203.172 70.2678 203.437C70.5329 203.703 70.8925 203.851 71.2674 203.851Z" fill="#00229A"/>
<path d="M59.9817 203.851C60.2613 203.851 60.5346 203.769 60.7671 203.613C60.9996 203.458 61.1808 203.237 61.2878 202.979C61.3948 202.721 61.4228 202.436 61.3682 202.162C61.3137 201.888 61.179 201.636 60.9813 201.438C60.7836 201.241 60.5317 201.106 60.2575 201.051C59.9833 200.997 59.699 201.025 59.4407 201.132C59.1824 201.239 58.9616 201.42 58.8063 201.652C58.651 201.885 58.5681 202.158 58.5681 202.438C58.5681 202.813 58.717 203.172 58.9821 203.437C59.2472 203.703 59.6068 203.851 59.9817 203.851Z" fill="#00229A"/>
<path d="M54.3386 203.852C55.1193 203.852 55.7523 203.219 55.7523 202.438C55.7523 201.657 55.1193 201.024 54.3386 201.024C53.5578 201.024 52.9249 201.657 52.9249 202.438C52.9249 203.219 53.5578 203.852 54.3386 203.852Z" fill="#00229A"/>
<path d="M88.1847 197.239C88.9655 197.239 89.5984 196.606 89.5984 195.825C89.5984 195.045 88.9655 194.412 88.1847 194.412C87.404 194.412 86.7711 195.045 86.7711 195.825C86.7711 196.606 87.404 197.239 88.1847 197.239Z" fill="#00229A"/>
<path d="M82.5417 197.227C82.8223 197.23 83.0972 197.149 83.3315 196.994C83.5658 196.84 83.7488 196.619 83.8572 196.36C83.9656 196.101 83.9946 195.816 83.9404 195.541C83.8863 195.266 83.7514 195.013 83.553 194.814C83.3546 194.616 83.1016 194.481 82.8263 194.427C82.551 194.373 82.2658 194.402 82.007 194.51C81.7482 194.618 81.5276 194.801 81.3731 195.036C81.2187 195.27 81.1374 195.545 81.1398 195.825C81.1428 196.196 81.2915 196.551 81.5538 196.813C81.816 197.076 82.1709 197.224 82.5417 197.227Z" fill="#00229A"/>
<path d="M76.9106 197.239C77.6913 197.239 78.3242 196.606 78.3242 195.825C78.3242 195.045 77.6913 194.412 76.9106 194.412C76.1298 194.412 75.4969 195.045 75.4969 195.825C75.4969 196.606 76.1298 197.239 76.9106 197.239Z" fill="#00229A"/>
<path d="M71.2675 197.227C71.5476 197.227 71.8213 197.144 72.0541 196.988C72.2868 196.833 72.468 196.611 72.5746 196.352C72.6813 196.093 72.7086 195.808 72.6531 195.534C72.5976 195.259 72.4618 195.007 72.2629 194.81C72.064 194.613 71.811 194.479 71.536 194.426C71.261 194.373 70.9764 194.402 70.7183 194.511C70.4602 194.62 70.2403 194.803 70.0864 195.037C69.9324 195.271 69.8515 195.545 69.8538 195.826C69.8538 196.011 69.8904 196.194 69.9616 196.365C70.0328 196.536 70.1371 196.691 70.2686 196.821C70.4 196.951 70.5559 197.054 70.7274 197.124C70.8988 197.194 71.0824 197.229 71.2675 197.227Z" fill="#00229A"/>
<path d="M59.9815 197.227C60.2616 197.227 60.5354 197.144 60.7681 196.988C61.0008 196.833 61.182 196.611 61.2887 196.352C61.3953 196.093 61.4226 195.808 61.3671 195.534C61.3116 195.259 61.1758 195.007 60.9769 194.81C60.7781 194.613 60.5251 194.479 60.2501 194.426C59.9751 194.373 59.6905 194.402 59.4324 194.511C59.1743 194.62 58.9543 194.803 58.8004 195.037C58.6465 195.271 58.5655 195.545 58.5679 195.826C58.5709 196.198 58.7212 196.555 58.986 196.818C59.2508 197.08 59.6086 197.227 59.9815 197.227Z" fill="#00229A"/>
<path d="M54.3386 197.239C55.1193 197.239 55.7523 196.606 55.7523 195.825C55.7523 195.045 55.1193 194.412 54.3386 194.412C53.5578 194.412 52.9249 195.045 52.9249 195.825C52.9249 196.606 53.5578 197.239 54.3386 197.239Z" fill="#00229A"/>
<path d="M88.1847 190.615C88.9655 190.615 89.5984 189.982 89.5984 189.201C89.5984 188.42 88.9655 187.787 88.1847 187.787C87.404 187.787 86.7711 188.42 86.7711 189.201C86.7711 189.982 87.404 190.615 88.1847 190.615Z" fill="#00229A"/>
<path d="M82.5417 190.603C82.8223 190.605 83.0972 190.524 83.3315 190.37C83.5658 190.215 83.7488 189.994 83.8572 189.736C83.9656 189.477 83.9946 189.192 83.9404 188.916C83.8863 188.641 83.7514 188.388 83.553 188.19C83.3546 187.991 83.1016 187.856 82.8263 187.802C82.551 187.748 82.2658 187.777 82.007 187.885C81.7482 187.994 81.5276 188.177 81.3731 188.411C81.2187 188.645 81.1374 188.92 81.1398 189.201C81.1428 189.572 81.2915 189.927 81.5538 190.189C81.816 190.451 82.1709 190.6 82.5417 190.603Z" fill="#00229A"/>
<path d="M76.9106 190.615C77.6913 190.615 78.3242 189.982 78.3242 189.201C78.3242 188.42 77.6913 187.787 76.9106 187.787C76.1298 187.787 75.4969 188.42 75.4969 189.201C75.4969 189.982 76.1298 190.615 76.9106 190.615Z" fill="#00229A"/>
<path d="M71.2675 190.603C71.5476 190.603 71.8213 190.52 72.0541 190.364C72.2868 190.208 72.468 189.987 72.5746 189.728C72.6813 189.469 72.7086 189.184 72.6531 188.909C72.5976 188.635 72.4618 188.383 72.2629 188.186C72.064 187.988 71.811 187.855 71.536 187.801C71.261 187.748 70.9764 187.778 70.7183 187.887C70.4602 187.995 70.2403 188.178 70.0864 188.412C69.9324 188.646 69.8515 188.921 69.8538 189.201C69.8538 189.386 69.8904 189.569 69.9616 189.74C70.0328 189.911 70.1371 190.066 70.2686 190.196C70.4 190.327 70.5559 190.43 70.7274 190.5C70.8988 190.569 71.0824 190.605 71.2675 190.603Z" fill="#00229A"/>
<path d="M59.9815 190.603C60.2616 190.603 60.5354 190.52 60.7681 190.364C61.0008 190.208 61.182 189.987 61.2887 189.728C61.3953 189.469 61.4226 189.184 61.3671 188.909C61.3116 188.635 61.1758 188.383 60.9769 188.186C60.7781 187.988 60.5251 187.855 60.2501 187.801C59.9751 187.748 59.6905 187.778 59.4324 187.887C59.1743 187.995 58.9543 188.178 58.8004 188.412C58.6465 188.646 58.5655 188.921 58.5679 189.201C58.5709 189.574 58.7212 189.93 58.986 190.193C59.2508 190.456 59.6086 190.603 59.9815 190.603Z" fill="#00229A"/>
<path d="M54.3386 190.615C55.1193 190.615 55.7523 189.982 55.7523 189.201C55.7523 188.42 55.1193 187.787 54.3386 187.787C53.5578 187.787 52.9249 188.42 52.9249 189.201C52.9249 189.982 53.5578 190.615 54.3386 190.615Z" fill="#00229A"/>
<path d="M88.1847 183.99C88.9655 183.99 89.5984 183.357 89.5984 182.576C89.5984 181.796 88.9655 181.163 88.1847 181.163C87.404 181.163 86.7711 181.796 86.7711 182.576C86.7711 183.357 87.404 183.99 88.1847 183.99Z" fill="#00229A"/>
<path d="M82.5417 183.978C82.8223 183.981 83.0972 183.899 83.3315 183.745C83.5658 183.591 83.7488 183.37 83.8572 183.111C83.9656 182.852 83.9946 182.567 83.9404 182.292C83.8863 182.017 83.7514 181.764 83.553 181.565C83.3546 181.367 83.1016 181.232 82.8263 181.178C82.551 181.124 82.2658 181.153 82.007 181.261C81.7482 181.369 81.5276 181.552 81.3731 181.787C81.2187 182.021 81.1374 182.296 81.1398 182.576C81.1428 182.947 81.2915 183.302 81.5538 183.564C81.816 183.827 82.1709 183.975 82.5417 183.978Z" fill="#00229A"/>
<path d="M76.9106 183.99C77.6913 183.99 78.3242 183.357 78.3242 182.576C78.3242 181.796 77.6913 181.163 76.9106 181.163C76.1298 181.163 75.4969 181.796 75.4969 182.576C75.4969 183.357 76.1298 183.99 76.9106 183.99Z" fill="#00229A"/>
<path d="M71.2675 183.978C71.5476 183.978 71.8213 183.895 72.0541 183.739C72.2868 183.584 72.468 183.362 72.5746 183.103C72.6813 182.844 72.7086 182.559 72.6531 182.285C72.5976 182.01 72.4618 181.758 72.2629 181.561C72.064 181.364 71.811 181.23 71.536 181.177C71.261 181.124 70.9764 181.153 70.7183 181.262C70.4602 181.371 70.2403 181.554 70.0864 181.788C69.9324 182.022 69.8515 182.296 69.8538 182.576C69.8538 182.762 69.8904 182.945 69.9616 183.116C70.0328 183.287 70.1371 183.442 70.2686 183.572C70.4 183.702 70.5559 183.805 70.7274 183.875C70.8988 183.945 71.0824 183.98 71.2675 183.978Z" fill="#00229A"/>
<path d="M59.9815 183.978C60.2616 183.978 60.5354 183.895 60.7681 183.739C61.0008 183.584 61.182 183.362 61.2887 183.103C61.3953 182.844 61.4226 182.559 61.3671 182.285C61.3116 182.01 61.1758 181.758 60.9769 181.561C60.7781 181.364 60.5251 181.23 60.2501 181.177C59.9751 181.124 59.6905 181.153 59.4324 181.262C59.1743 181.371 58.9543 181.554 58.8004 181.788C58.6465 182.022 58.5655 182.296 58.5679 182.576C58.5709 182.949 58.7212 183.306 58.986 183.569C59.2508 183.831 59.6086 183.978 59.9815 183.978Z" fill="#00229A"/>
<path d="M54.3386 183.99C55.1193 183.99 55.7523 183.357 55.7523 182.576C55.7523 181.796 55.1193 181.163 54.3386 181.163C53.5578 181.163 52.9249 181.796 52.9249 182.576C52.9249 183.357 53.5578 183.99 54.3386 183.99Z" fill="#00229A"/>
<path d="M88.1847 177.366C88.9655 177.366 89.5984 176.733 89.5984 175.952C89.5984 175.172 88.9655 174.539 88.1847 174.539C87.404 174.539 86.7711 175.172 86.7711 175.952C86.7711 176.733 87.404 177.366 88.1847 177.366Z" fill="#00229A"/>
<path d="M82.5417 177.354C82.8223 177.356 83.0972 177.275 83.3315 177.121C83.5658 176.966 83.7488 176.746 83.8572 176.487C83.9656 176.228 83.9946 175.943 83.9404 175.668C83.8863 175.392 83.7514 175.139 83.553 174.941C83.3546 174.743 83.1016 174.608 82.8263 174.553C82.551 174.499 82.2658 174.528 82.007 174.637C81.7482 174.745 81.5276 174.928 81.3731 175.162C81.2187 175.397 81.1374 175.672 81.1398 175.952C81.1428 176.323 81.2915 176.678 81.5538 176.94C81.816 177.202 82.1709 177.351 82.5417 177.354Z" fill="#00229A"/>
<path d="M76.9106 177.366C77.6913 177.366 78.3242 176.733 78.3242 175.952C78.3242 175.172 77.6913 174.539 76.9106 174.539C76.1298 174.539 75.4969 175.172 75.4969 175.952C75.4969 176.733 76.1298 177.366 76.9106 177.366Z" fill="#00229A"/>
<path d="M71.2675 177.354C71.5476 177.354 71.8213 177.271 72.0541 177.115C72.2868 176.959 72.468 176.738 72.5746 176.479C72.6813 176.22 72.7086 175.935 72.6531 175.66C72.5976 175.386 72.4618 175.134 72.2629 174.937C72.064 174.74 71.811 174.606 71.536 174.553C71.261 174.499 70.9764 174.529 70.7183 174.638C70.4602 174.747 70.2403 174.93 70.0864 175.164C69.9324 175.398 69.8515 175.672 69.8538 175.952C69.8538 176.137 69.8904 176.321 69.9616 176.491C70.0328 176.662 70.1371 176.817 70.2686 176.948C70.4 177.078 70.5559 177.181 70.7274 177.251C70.8988 177.321 71.0824 177.356 71.2675 177.354Z" fill="#00229A"/>
<path d="M59.9815 177.354C60.2616 177.354 60.5354 177.271 60.7681 177.115C61.0008 176.959 61.182 176.738 61.2887 176.479C61.3953 176.22 61.4226 175.935 61.3671 175.66C61.3116 175.386 61.1758 175.134 60.9769 174.937C60.7781 174.74 60.5251 174.606 60.2501 174.553C59.9751 174.499 59.6905 174.529 59.4324 174.638C59.1743 174.747 58.9543 174.93 58.8004 175.164C58.6465 175.398 58.5655 175.672 58.5679 175.952C58.5709 176.325 58.7212 176.682 58.986 176.944C59.2508 177.207 59.6086 177.354 59.9815 177.354Z" fill="#00229A"/>
<path d="M54.3386 177.366C55.1193 177.366 55.7523 176.733 55.7523 175.952C55.7523 175.172 55.1193 174.539 54.3386 174.539C53.5578 174.539 52.9249 175.172 52.9249 175.952C52.9249 176.733 53.5578 177.366 54.3386 177.366Z" fill="#00229A"/>
<path d="M88.1847 170.742C88.9655 170.742 89.5984 170.109 89.5984 169.328C89.5984 168.547 88.9655 167.914 88.1847 167.914C87.404 167.914 86.7711 168.547 86.7711 169.328C86.7711 170.109 87.404 170.742 88.1847 170.742Z" fill="#00229A"/>
<path d="M82.5417 170.742C82.8218 170.744 83.0962 170.663 83.3302 170.509C83.5643 170.355 83.7473 170.135 83.8561 169.877C83.9648 169.619 83.9945 169.334 83.9413 169.059C83.8881 168.784 83.7544 168.531 83.5571 168.333C83.3599 168.134 83.108 167.998 82.8335 167.942C82.559 167.887 82.2741 167.914 82.0151 168.021C81.7561 168.127 81.5347 168.309 81.3788 168.541C81.2229 168.774 81.1397 169.048 81.1397 169.328C81.1397 169.701 81.287 170.059 81.5496 170.323C81.8122 170.588 82.1688 170.739 82.5417 170.742Z" fill="#00229A"/>
<path d="M76.9106 170.742C77.6913 170.742 78.3242 170.109 78.3242 169.328C78.3242 168.547 77.6913 167.914 76.9106 167.914C76.1298 167.914 75.4969 168.547 75.4969 169.328C75.4969 170.109 76.1298 170.742 76.9106 170.742Z" fill="#00229A"/>
<path d="M71.2674 170.742C71.547 170.742 71.8203 170.659 72.0528 170.503C72.2853 170.348 72.4665 170.127 72.5735 169.869C72.6805 169.611 72.7085 169.326 72.6539 169.052C72.5994 168.778 72.4647 168.526 72.267 168.328C72.0693 168.131 71.8174 167.996 71.5432 167.941C71.269 167.887 70.9848 167.915 70.7264 168.022C70.4681 168.129 70.2473 168.31 70.092 168.543C69.9367 168.775 69.8538 169.048 69.8538 169.328C69.8538 169.703 70.0027 170.062 70.2678 170.328C70.5329 170.593 70.8925 170.742 71.2674 170.742Z" fill="#00229A"/>
<path d="M59.9817 170.742C60.2613 170.742 60.5346 170.659 60.7671 170.503C60.9996 170.348 61.1808 170.127 61.2878 169.869C61.3948 169.611 61.4228 169.326 61.3682 169.052C61.3137 168.778 61.179 168.526 60.9813 168.328C60.7836 168.131 60.5317 167.996 60.2575 167.941C59.9833 167.887 59.699 167.915 59.4407 168.022C59.1824 168.129 58.9616 168.31 58.8063 168.543C58.651 168.775 58.5681 169.048 58.5681 169.328C58.5681 169.703 58.717 170.062 58.9821 170.328C59.2472 170.593 59.6068 170.742 59.9817 170.742Z" fill="#00229A"/>
<path d="M54.3386 170.742C55.1193 170.742 55.7523 170.109 55.7523 169.328C55.7523 168.547 55.1193 167.914 54.3386 167.914C53.5578 167.914 52.9249 168.547 52.9249 169.328C52.9249 170.109 53.5578 170.742 54.3386 170.742Z" fill="#00229A"/>
<path d="M88.1847 164.117C88.9655 164.117 89.5984 163.484 89.5984 162.703C89.5984 161.923 88.9655 161.29 88.1847 161.29C87.404 161.29 86.7711 161.923 86.7711 162.703C86.7711 163.484 87.404 164.117 88.1847 164.117Z" fill="#00229A"/>
<path d="M82.5417 164.117C82.8218 164.119 83.0962 164.038 83.3302 163.885C83.5643 163.731 83.7473 163.511 83.8561 163.253C83.9648 162.994 83.9945 162.71 83.9413 162.435C83.8881 162.16 83.7544 161.907 83.5571 161.708C83.3599 161.509 83.108 161.373 82.8335 161.318C82.559 161.262 82.2741 161.29 82.0151 161.396C81.7561 161.503 81.5347 161.684 81.3788 161.917C81.2229 162.15 81.1397 162.423 81.1397 162.703C81.1397 163.076 81.287 163.434 81.5496 163.699C81.8122 163.964 82.1688 164.114 82.5417 164.117Z" fill="#00229A"/>
<path d="M76.9106 164.117C77.6913 164.117 78.3242 163.484 78.3242 162.703C78.3242 161.923 77.6913 161.29 76.9106 161.29C76.1298 161.29 75.4969 161.923 75.4969 162.703C75.4969 163.484 76.1298 164.117 76.9106 164.117Z" fill="#00229A"/>
<path d="M71.2674 164.117C71.547 164.117 71.8203 164.034 72.0528 163.879C72.2853 163.724 72.4665 163.503 72.5735 163.244C72.6805 162.986 72.7085 162.702 72.6539 162.428C72.5994 162.153 72.4647 161.902 72.267 161.704C72.0693 161.506 71.8174 161.372 71.5432 161.317C71.269 161.262 70.9848 161.29 70.7264 161.397C70.4681 161.504 70.2473 161.686 70.092 161.918C69.9367 162.151 69.8538 162.424 69.8538 162.703C69.8538 163.078 70.0027 163.438 70.2678 163.703C70.5329 163.968 70.8925 164.117 71.2674 164.117Z" fill="#00229A"/>
<path d="M59.9817 164.117C60.2613 164.117 60.5346 164.034 60.7671 163.879C60.9996 163.724 61.1808 163.503 61.2878 163.244C61.3948 162.986 61.4228 162.702 61.3682 162.428C61.3137 162.153 61.179 161.902 60.9813 161.704C60.7836 161.506 60.5317 161.372 60.2575 161.317C59.9833 161.262 59.699 161.29 59.4407 161.397C59.1824 161.504 58.9616 161.686 58.8063 161.918C58.651 162.151 58.5681 162.424 58.5681 162.703C58.5681 163.078 58.717 163.438 58.9821 163.703C59.2472 163.968 59.6068 164.117 59.9817 164.117Z" fill="#00229A"/>
<path d="M54.3386 164.117C55.1193 164.117 55.7523 163.484 55.7523 162.703C55.7523 161.923 55.1193 161.29 54.3386 161.29C53.5578 161.29 52.9249 161.923 52.9249 162.703C52.9249 163.484 53.5578 164.117 54.3386 164.117Z" fill="#00229A"/>
<path d="M88.1847 157.493C88.9655 157.493 89.5984 156.86 89.5984 156.079C89.5984 155.298 88.9655 154.666 88.1847 154.666C87.404 154.666 86.7711 155.298 86.7711 156.079C86.7711 156.86 87.404 157.493 88.1847 157.493Z" fill="#00229A"/>
<path d="M82.5417 157.493C82.8218 157.495 83.0962 157.414 83.3302 157.26C83.5643 157.106 83.7473 156.886 83.8561 156.628C83.9648 156.37 83.9945 156.086 83.9413 155.811C83.8881 155.536 83.7544 155.283 83.5571 155.084C83.3599 154.885 83.108 154.749 82.8335 154.694C82.559 154.638 82.2741 154.665 82.0151 154.772C81.7561 154.879 81.5347 155.06 81.3788 155.293C81.2229 155.525 81.1397 155.799 81.1397 156.079C81.1397 156.452 81.287 156.81 81.5496 157.075C81.8122 157.339 82.1688 157.49 82.5417 157.493Z" fill="#00229A"/>
<path d="M76.9106 157.493C77.6913 157.493 78.3242 156.86 78.3242 156.079C78.3242 155.298 77.6913 154.666 76.9106 154.666C76.1298 154.666 75.4969 155.298 75.4969 156.079C75.4969 156.86 76.1298 157.493 76.9106 157.493Z" fill="#00229A"/>
<path d="M71.2674 157.493C71.547 157.493 71.8203 157.41 72.0528 157.255C72.2853 157.099 72.4665 156.878 72.5735 156.62C72.6805 156.362 72.7085 156.078 72.6539 155.803C72.5994 155.529 72.4647 155.277 72.267 155.08C72.0693 154.882 71.8174 154.747 71.5432 154.693C71.269 154.638 70.9848 154.666 70.7264 154.773C70.4681 154.88 70.2473 155.061 70.092 155.294C69.9367 155.526 69.8538 155.8 69.8538 156.079C69.8538 156.454 70.0027 156.814 70.2678 157.079C70.5329 157.344 70.8925 157.493 71.2674 157.493Z" fill="#00229A"/>
<path d="M59.9817 157.493C60.2613 157.493 60.5346 157.41 60.7671 157.255C60.9996 157.099 61.1808 156.878 61.2878 156.62C61.3948 156.362 61.4228 156.078 61.3682 155.803C61.3137 155.529 61.179 155.277 60.9813 155.08C60.7836 154.882 60.5317 154.747 60.2575 154.693C59.9833 154.638 59.699 154.666 59.4407 154.773C59.1824 154.88 58.9616 155.061 58.8063 155.294C58.651 155.526 58.5681 155.8 58.5681 156.079C58.5681 156.454 58.717 156.814 58.9821 157.079C59.2472 157.344 59.6068 157.493 59.9817 157.493Z" fill="#00229A"/>
<path d="M54.3386 157.493C55.1193 157.493 55.7523 156.86 55.7523 156.079C55.7523 155.298 55.1193 154.666 54.3386 154.666C53.5578 154.666 52.9249 155.298 52.9249 156.079C52.9249 156.86 53.5578 157.493 54.3386 157.493Z" fill="#00229A"/>
<path d="M88.1847 150.869C88.9655 150.869 89.5984 150.236 89.5984 149.455C89.5984 148.674 88.9655 148.041 88.1847 148.041C87.404 148.041 86.7711 148.674 86.7711 149.455C86.7711 150.236 87.404 150.869 88.1847 150.869Z" fill="#00229A"/>
<path d="M82.5417 150.869C82.8218 150.871 83.0962 150.79 83.3302 150.636C83.5643 150.482 83.7473 150.262 83.8561 150.004C83.9648 149.746 83.9945 149.461 83.9413 149.186C83.8881 148.911 83.7544 148.658 83.5571 148.459C83.3599 148.261 83.108 148.125 82.8335 148.069C82.559 148.014 82.2741 148.041 82.0151 148.148C81.7561 148.254 81.5347 148.436 81.3788 148.668C81.2229 148.901 81.1397 149.175 81.1397 149.455C81.1397 149.828 81.287 150.186 81.5496 150.45C81.8122 150.715 82.1688 150.865 82.5417 150.869Z" fill="#00229A"/>
<path d="M76.9106 150.869C77.6913 150.869 78.3242 150.236 78.3242 149.455C78.3242 148.674 77.6913 148.041 76.9106 148.041C76.1298 148.041 75.4969 148.674 75.4969 149.455C75.4969 150.236 76.1298 150.869 76.9106 150.869Z" fill="#00229A"/>
<path d="M71.2674 150.869C71.547 150.869 71.8203 150.786 72.0528 150.63C72.2853 150.475 72.4665 150.254 72.5735 149.996C72.6805 149.738 72.7085 149.453 72.6539 149.179C72.5994 148.905 72.4647 148.653 72.267 148.455C72.0693 148.258 71.8174 148.123 71.5432 148.068C71.269 148.014 70.9848 148.042 70.7264 148.149C70.4681 148.256 70.2473 148.437 70.092 148.67C69.9367 148.902 69.8538 149.175 69.8538 149.455C69.8538 149.83 70.0027 150.189 70.2678 150.455C70.5329 150.72 70.8925 150.869 71.2674 150.869Z" fill="#00229A"/>
<path d="M59.9817 150.869C60.2613 150.869 60.5346 150.786 60.7671 150.63C60.9996 150.475 61.1808 150.254 61.2878 149.996C61.3948 149.738 61.4228 149.453 61.3682 149.179C61.3137 148.905 61.179 148.653 60.9813 148.455C60.7836 148.258 60.5317 148.123 60.2575 148.068C59.9833 148.014 59.699 148.042 59.4407 148.149C59.1824 148.256 58.9616 148.437 58.8063 148.67C58.651 148.902 58.5681 149.175 58.5681 149.455C58.5681 149.83 58.717 150.189 58.9821 150.455C59.2472 150.72 59.6068 150.869 59.9817 150.869Z" fill="#00229A"/>
<path d="M54.3386 150.869C55.1193 150.869 55.7523 150.236 55.7523 149.455C55.7523 148.674 55.1193 148.041 54.3386 148.041C53.5578 148.041 52.9249 148.674 52.9249 149.455C52.9249 150.236 53.5578 150.869 54.3386 150.869Z" fill="#00229A"/>
<path d="M88.1847 144.244C88.9655 144.244 89.5984 143.611 89.5984 142.83C89.5984 142.049 88.9655 141.417 88.1847 141.417C87.404 141.417 86.7711 142.049 86.7711 142.83C86.7711 143.611 87.404 144.244 88.1847 144.244Z" fill="#00229A"/>
<path d="M82.5417 144.244C82.8218 144.246 83.0962 144.165 83.3302 144.011C83.5643 143.857 83.7473 143.637 83.8561 143.379C83.9648 143.121 83.9945 142.837 83.9413 142.562C83.8881 142.287 83.7544 142.034 83.5571 141.835C83.3599 141.636 83.108 141.5 82.8335 141.445C82.559 141.389 82.2741 141.416 82.0151 141.523C81.7561 141.63 81.5347 141.811 81.3788 142.044C81.2229 142.276 81.1397 142.55 81.1397 142.83C81.1397 143.203 81.287 143.561 81.5496 143.826C81.8122 144.09 82.1688 144.241 82.5417 144.244Z" fill="#00229A"/>
<path d="M76.9106 144.244C77.6913 144.244 78.3242 143.611 78.3242 142.83C78.3242 142.049 77.6913 141.417 76.9106 141.417C76.1298 141.417 75.4969 142.049 75.4969 142.83C75.4969 143.611 76.1298 144.244 76.9106 144.244Z" fill="#00229A"/>
<path d="M71.2674 144.244C71.547 144.244 71.8203 144.161 72.0528 144.006C72.2853 143.85 72.4665 143.629 72.5735 143.371C72.6805 143.113 72.7085 142.829 72.6539 142.554C72.5994 142.28 72.4647 142.028 72.267 141.831C72.0693 141.633 71.8174 141.498 71.5432 141.444C71.269 141.389 70.9848 141.417 70.7264 141.524C70.4681 141.631 70.2473 141.812 70.092 142.045C69.9367 142.277 69.8538 142.551 69.8538 142.83C69.8538 143.205 70.0027 143.565 70.2678 143.83C70.5329 144.095 70.8925 144.244 71.2674 144.244Z" fill="#00229A"/>
<path d="M59.9817 144.244C60.2613 144.244 60.5346 144.161 60.7671 144.006C60.9996 143.85 61.1808 143.629 61.2878 143.371C61.3948 143.113 61.4228 142.829 61.3682 142.554C61.3137 142.28 61.179 142.028 60.9813 141.831C60.7836 141.633 60.5317 141.498 60.2575 141.444C59.9833 141.389 59.699 141.417 59.4407 141.524C59.1824 141.631 58.9616 141.812 58.8063 142.045C58.651 142.277 58.5681 142.551 58.5681 142.83C58.5681 143.205 58.717 143.565 58.9821 143.83C59.2472 144.095 59.6068 144.244 59.9817 144.244Z" fill="#00229A"/>
<path d="M54.3386 144.244C55.1193 144.244 55.7523 143.611 55.7523 142.83C55.7523 142.049 55.1193 141.417 54.3386 141.417C53.5578 141.417 52.9249 142.049 52.9249 142.83C52.9249 143.611 53.5578 144.244 54.3386 144.244Z" fill="#00229A"/>
<path d="M88.1847 137.62C88.9655 137.62 89.5984 136.987 89.5984 136.206C89.5984 135.425 88.9655 134.792 88.1847 134.792C87.404 134.792 86.7711 135.425 86.7711 136.206C86.7711 136.987 87.404 137.62 88.1847 137.62Z" fill="#00229A"/>
<path d="M82.5417 137.62C82.8218 137.622 83.0962 137.541 83.3302 137.387C83.5643 137.233 83.7473 137.013 83.8561 136.755C83.9648 136.497 83.9945 136.212 83.9413 135.937C83.8881 135.662 83.7544 135.409 83.5571 135.21C83.3599 135.012 83.108 134.876 82.8335 134.82C82.559 134.765 82.2741 134.792 82.0151 134.899C81.7561 135.005 81.5347 135.187 81.3788 135.419C81.2229 135.652 81.1397 135.926 81.1397 136.206C81.1397 136.579 81.287 136.937 81.5496 137.201C81.8122 137.466 82.1688 137.616 82.5417 137.62Z" fill="#00229A"/>
<path d="M76.9106 137.62C77.6913 137.62 78.3242 136.987 78.3242 136.206C78.3242 135.425 77.6913 134.792 76.9106 134.792C76.1298 134.792 75.4969 135.425 75.4969 136.206C75.4969 136.987 76.1298 137.62 76.9106 137.62Z" fill="#00229A"/>
<path d="M71.2674 137.62C71.547 137.62 71.8203 137.537 72.0528 137.381C72.2853 137.226 72.4665 137.005 72.5735 136.747C72.6805 136.489 72.7085 136.204 72.6539 135.93C72.5994 135.656 72.4647 135.404 72.267 135.206C72.0693 135.009 71.8174 134.874 71.5432 134.819C71.269 134.765 70.9848 134.793 70.7264 134.9C70.4681 135.007 70.2473 135.188 70.092 135.421C69.9367 135.653 69.8538 135.926 69.8538 136.206C69.8538 136.581 70.0027 136.94 70.2678 137.206C70.5329 137.471 70.8925 137.62 71.2674 137.62Z" fill="#00229A"/>
<path d="M59.9817 137.62C60.2613 137.62 60.5346 137.537 60.7671 137.381C60.9996 137.226 61.1808 137.005 61.2878 136.747C61.3948 136.489 61.4228 136.204 61.3682 135.93C61.3137 135.656 61.179 135.404 60.9813 135.206C60.7836 135.009 60.5317 134.874 60.2575 134.819C59.9833 134.765 59.699 134.793 59.4407 134.9C59.1824 135.007 58.9616 135.188 58.8063 135.421C58.651 135.653 58.5681 135.926 58.5681 136.206C58.5681 136.581 58.717 136.94 58.9821 137.206C59.2472 137.471 59.6068 137.62 59.9817 137.62Z" fill="#00229A"/>
<path d="M54.3386 137.62C55.1193 137.62 55.7523 136.987 55.7523 136.206C55.7523 135.425 55.1193 134.792 54.3386 134.792C53.5578 134.792 52.9249 135.425 52.9249 136.206C52.9249 136.987 53.5578 137.62 54.3386 137.62Z" fill="#00229A"/>
<path d="M88.1847 130.995C88.9655 130.995 89.5984 130.362 89.5984 129.582C89.5984 128.801 88.9655 128.168 88.1847 128.168C87.404 128.168 86.7711 128.801 86.7711 129.582C86.7711 130.362 87.404 130.995 88.1847 130.995Z" fill="#00229A"/>
<path d="M82.5417 130.995C82.8218 130.998 83.0962 130.917 83.3302 130.763C83.5643 130.609 83.7473 130.389 83.8561 130.131C83.9648 129.873 83.9945 129.588 83.9413 129.313C83.8881 129.038 83.7544 128.785 83.5571 128.586C83.3599 128.387 83.108 128.252 82.8335 128.196C82.559 128.141 82.2741 128.168 82.0151 128.274C81.7561 128.381 81.5347 128.562 81.3788 128.795C81.2229 129.028 81.1397 129.301 81.1397 129.582C81.1397 129.955 81.287 130.312 81.5496 130.577C81.8122 130.842 82.1688 130.992 82.5417 130.995Z" fill="#00229A"/>
<path d="M76.9106 130.995C77.6913 130.995 78.3242 130.362 78.3242 129.582C78.3242 128.801 77.6913 128.168 76.9106 128.168C76.1298 128.168 75.4969 128.801 75.4969 129.582C75.4969 130.362 76.1298 130.995 76.9106 130.995Z" fill="#00229A"/>
<path d="M71.2674 130.995C71.547 130.995 71.8203 130.912 72.0528 130.757C72.2853 130.602 72.4665 130.381 72.5735 130.123C72.6805 129.864 72.7085 129.58 72.6539 129.306C72.5994 129.032 72.4647 128.78 72.267 128.582C72.0693 128.384 71.8174 128.25 71.5432 128.195C71.269 128.141 70.9848 128.169 70.7264 128.276C70.4681 128.383 70.2473 128.564 70.092 128.796C69.9367 129.029 69.8538 129.302 69.8538 129.582C69.8538 129.957 70.0027 130.316 70.2678 130.581C70.5329 130.846 70.8925 130.995 71.2674 130.995Z" fill="#00229A"/>
<path d="M59.9817 130.995C60.2613 130.995 60.5346 130.912 60.7671 130.757C60.9996 130.602 61.1808 130.381 61.2878 130.123C61.3948 129.864 61.4228 129.58 61.3682 129.306C61.3137 129.032 61.179 128.78 60.9813 128.582C60.7836 128.384 60.5317 128.25 60.2575 128.195C59.9833 128.141 59.699 128.169 59.4407 128.276C59.1824 128.383 58.9616 128.564 58.8063 128.796C58.651 129.029 58.5681 129.302 58.5681 129.582C58.5681 129.957 58.717 130.316 58.9821 130.581C59.2472 130.846 59.6068 130.995 59.9817 130.995Z" fill="#00229A"/>
<path d="M54.3386 130.995C55.1193 130.995 55.7523 130.362 55.7523 129.582C55.7523 128.801 55.1193 128.168 54.3386 128.168C53.5578 128.168 52.9249 128.801 52.9249 129.582C52.9249 130.362 53.5578 130.995 54.3386 130.995Z" fill="#00229A"/>
<path d="M88.1847 124.371C88.9655 124.371 89.5984 123.738 89.5984 122.957C89.5984 122.176 88.9655 121.543 88.1847 121.543C87.404 121.543 86.7711 122.176 86.7711 122.957C86.7711 123.738 87.404 124.371 88.1847 124.371Z" fill="#00229A"/>
<path d="M82.5417 124.371C82.8218 124.373 83.0962 124.292 83.3302 124.138C83.5643 123.985 83.7473 123.765 83.8561 123.506C83.9648 123.248 83.9945 122.964 83.9413 122.689C83.8881 122.414 83.7544 122.161 83.5571 121.962C83.3599 121.763 83.108 121.627 82.8335 121.572C82.559 121.516 82.2741 121.544 82.0151 121.65C81.7561 121.757 81.5347 121.938 81.3788 122.171C81.2229 122.403 81.1397 122.677 81.1397 122.957C81.1397 123.33 81.287 123.688 81.5496 123.953C81.8122 124.218 82.1688 124.368 82.5417 124.371Z" fill="#00229A"/>
<path d="M76.9106 124.371C77.6913 124.371 78.3242 123.738 78.3242 122.957C78.3242 122.176 77.6913 121.543 76.9106 121.543C76.1298 121.543 75.4969 122.176 75.4969 122.957C75.4969 123.738 76.1298 124.371 76.9106 124.371Z" fill="#00229A"/>
<path d="M71.2674 124.371C71.547 124.371 71.8203 124.288 72.0528 124.132C72.2853 123.977 72.4665 123.756 72.5735 123.498C72.6805 123.24 72.7085 122.955 72.6539 122.681C72.5994 122.407 72.4647 122.155 72.267 121.957C72.0693 121.76 71.8174 121.625 71.5432 121.57C71.269 121.516 70.9848 121.544 70.7264 121.651C70.4681 121.758 70.2473 121.939 70.092 122.171C69.9367 122.404 69.8538 122.677 69.8538 122.957C69.8538 123.332 70.0027 123.691 70.2678 123.956C70.5329 124.222 70.8925 124.371 71.2674 124.371Z" fill="#00229A"/>
<path d="M59.9817 124.371C60.2613 124.371 60.5346 124.288 60.7671 124.132C60.9996 123.977 61.1808 123.756 61.2878 123.498C61.3948 123.24 61.4228 122.955 61.3682 122.681C61.3137 122.407 61.179 122.155 60.9813 121.957C60.7836 121.76 60.5317 121.625 60.2575 121.57C59.9833 121.516 59.699 121.544 59.4407 121.651C59.1824 121.758 58.9616 121.939 58.8063 122.171C58.651 122.404 58.5681 122.677 58.5681 122.957C58.5681 123.332 58.717 123.691 58.9821 123.956C59.2472 124.222 59.6068 124.371 59.9817 124.371Z" fill="#00229A"/>
<path d="M54.3386 124.371C55.1193 124.371 55.7523 123.738 55.7523 122.957C55.7523 122.176 55.1193 121.543 54.3386 121.543C53.5578 121.543 52.9249 122.176 52.9249 122.957C52.9249 123.738 53.5578 124.371 54.3386 124.371Z" fill="#00229A"/>
<path d="M76.9106 117.747C77.6913 117.747 78.3242 117.114 78.3242 116.333C78.3242 115.552 77.6913 114.919 76.9106 114.919C76.1298 114.919 75.4969 115.552 75.4969 116.333C75.4969 117.114 76.1298 117.747 76.9106 117.747Z" fill="#00229A"/>
<path d="M71.2674 117.747C71.547 117.747 71.8203 117.664 72.0528 117.508C72.2853 117.353 72.4665 117.132 72.5735 116.874C72.6805 116.616 72.7085 116.331 72.6539 116.057C72.5994 115.783 72.4647 115.531 72.267 115.333C72.0693 115.136 71.8174 115.001 71.5432 114.946C71.269 114.892 70.9848 114.92 70.7264 115.027C70.4681 115.134 70.2473 115.315 70.092 115.547C69.9367 115.78 69.8538 116.053 69.8538 116.333C69.8538 116.708 70.0027 117.067 70.2678 117.332C70.5329 117.598 70.8925 117.747 71.2674 117.747Z" fill="#00229A"/>
<path d="M59.9817 117.747C60.2613 117.747 60.5346 117.664 60.7671 117.508C60.9996 117.353 61.1808 117.132 61.2878 116.874C61.3948 116.616 61.4228 116.331 61.3682 116.057C61.3137 115.783 61.179 115.531 60.9813 115.333C60.7836 115.136 60.5317 115.001 60.2575 114.946C59.9833 114.892 59.699 114.92 59.4407 115.027C59.1824 115.134 58.9616 115.315 58.8063 115.547C58.651 115.78 58.5681 116.053 58.5681 116.333C58.5681 116.708 58.717 117.067 58.9821 117.332C59.2472 117.598 59.6068 117.747 59.9817 117.747Z" fill="#00229A"/>
<path d="M54.3386 117.747C55.1193 117.747 55.7523 117.114 55.7523 116.333C55.7523 115.552 55.1193 114.919 54.3386 114.919C53.5578 114.919 52.9249 115.552 52.9249 116.333C52.9249 117.114 53.5578 117.747 54.3386 117.747Z" fill="#00229A"/>
<path d="M48.6956 117.746C48.9757 117.749 49.2502 117.668 49.4842 117.514C49.7182 117.36 49.9012 117.14 50.01 116.882C50.1188 116.624 50.1484 116.339 50.0952 116.064C50.042 115.789 49.9083 115.536 49.7111 115.337C49.5138 115.139 49.262 115.003 48.9874 114.947C48.7129 114.892 48.4281 114.919 48.1691 115.026C47.9101 115.132 47.6886 115.313 47.5327 115.546C47.3769 115.779 47.2936 116.053 47.2936 116.333C47.2936 116.706 47.441 117.064 47.7036 117.328C47.9661 117.593 48.3227 117.743 48.6956 117.746Z" fill="#00229A"/>
<path d="M43.0526 117.747C43.8333 117.747 44.4663 117.114 44.4663 116.333C44.4663 115.552 43.8333 114.919 43.0526 114.919C42.2718 114.919 41.6389 115.552 41.6389 116.333C41.6389 117.114 42.2718 117.747 43.0526 117.747Z" fill="#00229A"/>
<path d="M258 259.873H112.883V87.6623H93.6058V46H38.4143V55.3466H0V75.7104H38.4143V87.6623H19.0903V253.564H38.4143V281.218H257.848V272.397H258V259.873ZM27.549 250H22.5953V91.1088H27.549V250ZM253.035 279.991H250.558L256.68 273.822V276.299L253.035 279.991ZM94.3768 277.199L98.8866 272.654H101.363L94.3535 279.664L94.3768 277.199ZM94.3768 273.063V272.654H94.7507L94.3768 273.063ZM105.523 272.689H107.999L100.697 279.991H98.2089L105.523 272.689ZM112.159 272.654H114.612L107.31 279.956H104.833L112.159 272.654ZM118.783 272.654H121.26L113.958 279.956H111.458L118.783 272.654ZM125.407 272.654H127.884L120.582 279.956H118.105L125.407 272.654ZM132.032 272.654H134.509L127.207 279.956H124.73L132.032 272.654ZM138.656 272.654H141.133L133.831 279.956H131.354L138.656 272.654ZM145.269 272.654H147.757L140.455 279.956H137.967L145.269 272.654ZM151.893 272.654H154.382L147.068 279.956H144.591L151.893 272.654ZM158.518 272.654H160.994L153.692 279.956H151.216L158.518 272.654ZM165.142 272.654H167.619L160.317 279.956H157.84L165.142 272.654ZM171.766 272.654H174.243L166.941 279.956H164.464L171.766 272.654ZM178.391 272.654H180.868L173.566 279.956H171.089L178.391 272.654ZM185.015 272.654H187.492L180.19 279.956H177.713L185.015 272.654ZM191.639 272.654H194.116L186.814 279.956H184.337L191.639 272.654ZM198.264 272.654H200.741L193.439 279.956H190.962L198.264 272.654ZM204.888 272.654H207.365L200.063 279.956H197.563L204.888 272.654ZM211.513 272.654H213.989L206.687 279.956H204.211L211.513 272.654ZM218.137 272.654H220.614L213.312 279.956H210.835L218.137 272.654ZM224.761 272.654H227.238L219.936 279.956H217.459L224.761 272.654ZM231.386 272.654H233.863L226.561 279.956H224.084L231.386 272.654ZM237.998 272.654H240.487L233.185 279.956H230.696L237.998 272.654ZM244.623 272.654H247.111L239.798 279.956H237.321L244.623 272.654ZM251.247 272.654H253.724L246.422 279.956H243.945L251.247 272.654ZM31.0539 91.1672H36.0076V250.059H31.0539V91.1672ZM1.16832 56.5149H39.5827V47.1683H92.4374V118.085H80.2519V109.907H39.5827V74.542H1.16832V56.5149ZM104.424 91.1672H109.378V259.873H104.424V91.1672ZM42.9708 111.11H64.6198V115.363C64.4901 115.49 64.3871 115.642 64.3168 115.81C64.2465 115.977 64.2103 116.157 64.2103 116.339C64.2103 116.52 64.2465 116.7 64.3168 116.868C64.3871 117.035 64.4901 117.187 64.6198 117.314V121.988C64.3588 122.248 64.2117 122.601 64.2108 122.969C64.2086 123.152 64.2438 123.333 64.3141 123.502C64.3844 123.671 64.4884 123.823 64.6198 123.95V128.624C64.3588 128.884 64.2117 129.237 64.2108 129.605C64.21 129.788 64.2457 129.968 64.316 130.137C64.3862 130.306 64.4895 130.458 64.6198 130.586V135.26C64.4898 135.388 64.3865 135.541 64.3161 135.709C64.2456 135.878 64.2094 136.058 64.2094 136.241C64.2094 136.424 64.2456 136.604 64.3161 136.773C64.3865 136.941 64.4898 137.094 64.6198 137.222V141.896C64.4898 142.024 64.3865 142.177 64.3161 142.345C64.2456 142.514 64.2094 142.694 64.2094 142.877C64.2094 143.06 64.2456 143.24 64.3161 143.409C64.3865 143.577 64.4898 143.73 64.6198 143.858V148.532C64.4898 148.66 64.3865 148.813 64.3161 148.981C64.2456 149.15 64.2094 149.331 64.2094 149.513C64.2094 149.696 64.2456 149.877 64.3161 150.045C64.3865 150.213 64.4898 150.366 64.6198 150.495V155.168C64.4898 155.296 64.3865 155.449 64.3161 155.617C64.2456 155.786 64.2094 155.967 64.2094 156.149C64.2094 156.332 64.2456 156.513 64.3161 156.681C64.3865 156.85 64.4898 157.002 64.6198 157.131V161.804C64.4898 161.932 64.3865 162.085 64.3161 162.253C64.2456 162.422 64.2094 162.603 64.2094 162.785C64.2094 162.968 64.2456 163.149 64.3161 163.317C64.3865 163.486 64.4898 163.638 64.6198 163.767V168.44C64.4898 168.568 64.3865 168.721 64.3161 168.889C64.2456 169.058 64.2094 169.239 64.2094 169.421C64.2094 169.604 64.2456 169.785 64.3161 169.953C64.3865 170.122 64.4898 170.274 64.6198 170.403V175.076C64.4895 175.204 64.3862 175.357 64.316 175.525C64.2457 175.694 64.21 175.875 64.2108 176.057C64.2117 176.426 64.3588 176.779 64.6198 177.039V181.712C64.4895 181.84 64.3862 181.993 64.316 182.161C64.2457 182.33 64.21 182.511 64.2108 182.693C64.2117 183.062 64.3588 183.415 64.6198 183.675V188.348C64.4884 188.475 64.3844 188.628 64.3141 188.797C64.2438 188.965 64.2086 189.147 64.2108 189.329C64.2117 189.698 64.3588 190.051 64.6198 190.311V194.984C64.4901 195.111 64.3871 195.263 64.3168 195.431C64.2465 195.598 64.2103 195.778 64.2103 195.96C64.2103 196.141 64.2465 196.321 64.3168 196.489C64.3871 196.656 64.4901 196.808 64.6198 196.935V201.608C64.4901 201.736 64.3871 201.888 64.3168 202.055C64.2465 202.223 64.2103 202.402 64.2103 202.584C64.2103 202.766 64.2465 202.946 64.3168 203.113C64.3871 203.281 64.4901 203.432 64.6198 203.56V208.233C64.4901 208.36 64.3871 208.512 64.3168 208.679C64.2465 208.847 64.2103 209.027 64.2103 209.208C64.2103 209.39 64.2465 209.57 64.3168 209.737C64.3871 209.905 64.4901 210.057 64.6198 210.184V214.857C64.3588 215.117 64.2117 215.47 64.2108 215.839C64.2086 216.021 64.2438 216.203 64.3141 216.371C64.3844 216.54 64.4884 216.693 64.6198 216.82V221.493C64.3588 221.753 64.2117 222.106 64.2108 222.475C64.21 222.657 64.2457 222.838 64.316 223.007C64.3862 223.175 64.4895 223.328 64.6198 223.456V228.129C64.3686 228.385 64.2279 228.729 64.2279 229.087C64.2279 229.446 64.3686 229.79 64.6198 230.045H61.0213C61.2074 229.843 61.3306 229.592 61.3759 229.321C61.4211 229.05 61.3865 228.771 61.2762 228.52C61.1659 228.268 60.9847 228.054 60.7548 227.904C60.5249 227.754 60.2562 227.674 59.9815 227.674C59.7069 227.674 59.4382 227.754 59.2082 227.904C58.9783 228.054 58.7971 228.268 58.6868 228.52C58.5765 228.771 58.5419 229.05 58.5872 229.321C58.6324 229.592 58.7556 229.843 58.9417 230.045H55.3783C55.5644 229.843 55.6876 229.592 55.7329 229.321C55.7781 229.05 55.7435 228.771 55.6332 228.52C55.5229 228.268 55.3417 228.054 55.1118 227.904C54.8819 227.754 54.6132 227.674 54.3385 227.674C54.0639 227.674 53.7952 227.754 53.5653 227.904C53.3353 228.054 53.1542 228.268 53.0439 228.52C52.9336 228.771 52.8989 229.05 52.9442 229.321C52.9895 229.592 53.1127 229.843 53.2987 230.045H49.7938C50.0348 229.794 50.1688 229.459 50.1676 229.111C50.1356 228.759 49.9734 228.433 49.713 228.195C49.4525 227.957 49.1125 227.825 48.7598 227.825C48.4071 227.825 48.0671 227.957 47.8067 228.195C47.5462 228.433 47.384 228.759 47.352 229.111C47.3523 229.456 47.4814 229.79 47.7142 230.045H44.2092C44.442 229.79 44.5711 229.456 44.5714 229.111C44.5394 228.759 44.3772 228.433 44.1167 228.195C43.8562 227.957 43.5163 227.825 43.1636 227.825C42.8109 227.825 42.4709 227.957 42.2104 228.195C41.9499 228.433 41.7878 228.759 41.7557 229.111C41.7561 229.456 41.8852 229.79 42.1179 230.045H39.5126V220.045H49.0694V217.206C49.3679 217.131 49.633 216.959 49.8224 216.717C50.0119 216.474 50.1148 216.175 50.1148 215.868C50.1148 215.56 50.0119 215.261 49.8224 215.019C49.633 214.777 49.3679 214.604 49.0694 214.53V210.581C49.3679 210.507 49.633 210.335 49.8224 210.092C50.0119 209.85 50.1148 209.551 50.1148 209.243C50.1148 208.936 50.0119 208.637 49.8224 208.395C49.633 208.152 49.3679 207.98 49.0694 207.906V203.957C49.3679 203.882 49.633 203.71 49.8224 203.468C50.0119 203.226 50.1148 202.927 50.1148 202.619C50.1148 202.311 50.0119 202.013 49.8224 201.77C49.633 201.528 49.3679 201.356 49.0694 201.281V197.332C49.3679 197.258 49.633 197.086 49.8224 196.844C50.0119 196.601 50.1148 196.302 50.1148 195.995C50.1148 195.687 50.0119 195.388 49.8224 195.146C49.633 194.903 49.3679 194.731 49.0694 194.657V190.708C49.3679 190.634 49.633 190.462 49.8224 190.219C50.0119 189.977 50.1148 189.678 50.1148 189.37C50.1148 189.063 50.0119 188.764 49.8224 188.521C49.633 188.279 49.3679 188.107 49.0694 188.033V183.862C49.3703 183.791 49.6386 183.621 49.8314 183.38C50.0243 183.138 50.1303 182.839 50.1326 182.53C50.1289 182.22 50.0225 181.92 49.8301 181.677C49.6378 181.434 49.3702 181.261 49.0694 181.186V177.237C49.3703 177.167 49.6386 176.997 49.8314 176.755C50.0243 176.514 50.1303 176.215 50.1326 175.905C50.1289 175.595 50.0225 175.295 49.8301 175.052C49.6378 174.809 49.3702 174.637 49.0694 174.562V170.625C49.3734 170.555 49.6447 170.384 49.8391 170.14C50.0334 169.896 50.1391 169.593 50.1391 169.281C50.1391 168.969 50.0334 168.666 49.8391 168.422C49.6447 168.178 49.3734 168.007 49.0694 167.938V164C49.3734 163.93 49.6447 163.759 49.8391 163.515C50.0334 163.271 50.1391 162.969 50.1391 162.657C50.1391 162.345 50.0334 162.042 49.8391 161.798C49.6447 161.554 49.3734 161.383 49.0694 161.313V157.423C49.3734 157.353 49.6447 157.182 49.8391 156.938C50.0334 156.694 50.1391 156.391 50.1391 156.079C50.1391 155.767 50.0334 155.464 49.8391 155.22C49.6447 154.976 49.3734 154.805 49.0694 154.736V150.798C49.3734 150.728 49.6447 150.557 49.8391 150.313C50.0334 150.069 50.1391 149.767 50.1391 149.455C50.1391 149.143 50.0334 148.84 49.8391 148.596C49.6447 148.352 49.3734 148.181 49.0694 148.111V144.139C49.3734 144.069 49.6447 143.898 49.8391 143.654C50.0334 143.41 50.1391 143.107 50.1391 142.795C50.1391 142.483 50.0334 142.181 49.8391 141.937C49.6447 141.693 49.3734 141.522 49.0694 141.452V137.55C49.3702 137.475 49.6378 137.302 49.8301 137.059C50.0225 136.816 50.1289 136.516 50.1326 136.206C50.1303 135.897 50.0243 135.598 49.8314 135.356C49.6386 135.115 49.3703 134.945 49.0694 134.874V130.925C49.3702 130.85 49.6378 130.678 49.8301 130.435C50.0225 130.192 50.1289 129.892 50.1326 129.582C50.1303 129.273 50.0243 128.973 49.8314 128.732C49.6386 128.49 49.3703 128.32 49.0694 128.25V124.277C49.3702 124.203 49.6378 124.03 49.8301 123.787C50.0225 123.544 50.1289 123.244 50.1326 122.934C50.1251 122.629 50.0167 122.335 49.8243 122.098C49.632 121.861 49.3664 121.695 49.0694 121.625V121.298H39.5126V111.11H42.9708ZM71.1857 111.11H79.0835V229.87H77.9152C78.148 229.614 78.2771 229.281 78.2774 228.935C78.2454 228.584 78.0832 228.258 77.8227 228.02C77.5622 227.782 77.2223 227.65 76.8696 227.65C76.5169 227.65 76.1769 227.782 75.9164 228.02C75.656 228.258 75.4938 228.584 75.4617 228.935C75.4621 229.281 75.5912 229.614 75.8239 229.87H72.319C72.5517 229.614 72.6808 229.281 72.6812 228.935C72.6491 228.584 72.4869 228.258 72.2265 228.02C71.966 227.782 71.626 227.65 71.2733 227.65C70.9206 227.65 70.5807 227.782 70.3202 228.02C70.0597 228.258 69.8975 228.584 69.8655 228.935C69.8643 229.284 69.9983 229.619 70.2394 229.87H66.7344C66.9171 229.683 67.0428 229.447 67.0966 229.191C67.1504 228.935 67.1301 228.669 67.0382 228.424C66.9463 228.179 66.7865 227.965 66.5776 227.807C66.3686 227.649 66.1191 227.555 65.8582 227.534V223.666C66.1929 223.623 66.5003 223.459 66.7231 223.205C66.9458 222.951 67.0686 222.625 67.0686 222.288C67.0686 221.95 66.9458 221.624 66.7231 221.37C66.5003 221.117 66.1929 220.953 65.8582 220.909V217.042C66.1929 216.998 66.5003 216.834 66.7231 216.581C66.9458 216.327 67.0686 216.001 67.0686 215.663C67.0686 215.326 66.9458 215 66.7231 214.746C66.5003 214.492 66.1929 214.328 65.8582 214.285V210.418C66.1991 210.38 66.5146 210.22 66.7449 209.966C66.9753 209.712 67.1046 209.382 67.1083 209.039C67.0996 208.698 66.9687 208.371 66.7393 208.118C66.5098 207.864 66.1972 207.702 65.8582 207.66V203.793C66.2004 203.762 66.5185 203.603 66.7501 203.349C66.9816 203.095 67.11 202.764 67.11 202.42C67.11 202.077 66.9816 201.745 66.7501 201.492C66.5185 201.238 66.2004 201.079 65.8582 201.048V197.181C66.1972 197.139 66.5098 196.976 66.7393 196.723C66.9687 196.47 67.0996 196.143 67.1083 195.802C67.1046 195.459 66.9753 195.129 66.7449 194.875C66.5146 194.621 66.1991 194.46 65.8582 194.423V190.556C66.1929 190.513 66.5003 190.349 66.7231 190.095C66.9458 189.841 67.0686 189.515 67.0686 189.178C67.0686 188.84 66.9458 188.514 66.7231 188.26C66.5003 188.007 66.1929 187.843 65.8582 187.799V183.932C66.1929 183.888 66.5003 183.724 66.7231 183.47C66.9458 183.217 67.0686 182.891 67.0686 182.553C67.0686 182.216 66.9458 181.89 66.7231 181.636C66.5003 181.382 66.1929 181.218 65.8582 181.175V177.307C66.1929 177.264 66.5003 177.1 66.7231 176.846C66.9458 176.592 67.0686 176.266 67.0686 175.929C67.0686 175.591 66.9458 175.265 66.7231 175.012C66.5003 174.758 66.1929 174.594 65.8582 174.55V170.683C66.1929 170.639 66.5003 170.475 66.7231 170.222C66.9458 169.968 67.0686 169.642 67.0686 169.304C67.0686 168.967 66.9458 168.641 66.7231 168.387C66.5003 168.133 66.1929 167.97 65.8582 167.926V164.059C66.1929 164.015 66.5003 163.851 66.7231 163.597C66.9458 163.344 67.0686 163.018 67.0686 162.68C67.0686 162.342 66.9458 162.016 66.7231 161.763C66.5003 161.509 66.1929 161.345 65.8582 161.301V157.458C66.1929 157.414 66.5003 157.25 66.7231 156.996C66.9458 156.743 67.0686 156.417 67.0686 156.079C67.0686 155.741 66.9458 155.415 66.7231 155.162C66.5003 154.908 66.1929 154.744 65.8582 154.7V150.833C66.1929 150.79 66.5003 150.626 66.7231 150.372C66.9458 150.118 67.0686 149.792 67.0686 149.455C67.0686 149.117 66.9458 148.791 66.7231 148.537C66.5003 148.284 66.1929 148.12 65.8582 148.076V144.209C66.1929 144.165 66.5003 144.001 66.7231 143.748C66.9458 143.494 67.0686 143.168 67.0686 142.83C67.0686 142.493 66.9458 142.167 66.7231 141.913C66.5003 141.659 66.1929 141.495 65.8582 141.452V137.585C66.1929 137.541 66.5003 137.377 66.7231 137.123C66.9458 136.87 67.0686 136.544 67.0686 136.206C67.0686 135.868 66.9458 135.542 66.7231 135.289C66.5003 135.035 66.1929 134.871 65.8582 134.827V130.96C66.1929 130.917 66.5003 130.753 66.7231 130.499C66.9458 130.245 67.0686 129.919 67.0686 129.582C67.0686 129.244 66.9458 128.918 66.7231 128.664C66.5003 128.411 66.1929 128.247 65.8582 128.203V124.336C66.1929 124.292 66.5003 124.128 66.7231 123.875C66.9458 123.621 67.0686 123.295 67.0686 122.957C67.0686 122.62 66.9458 122.294 66.7231 122.04C66.5003 121.786 66.1929 121.622 65.8582 121.579V117.711C66.1991 117.674 66.5146 117.514 66.7449 117.259C66.9753 117.005 67.1046 116.676 67.1083 116.333C67.1034 115.976 66.9651 115.635 66.7207 115.375C66.4763 115.116 66.1436 114.957 65.7881 114.931V111.11H71.1857ZM92.4608 122.794C92.4552 122.86 92.4552 122.926 92.4608 122.992C92.4554 123.062 92.4554 123.133 92.4608 123.203V129.418C92.4552 129.484 92.4552 129.551 92.4608 129.617C92.4554 129.687 92.4554 129.757 92.4608 129.827V135.961C92.4552 136.027 92.4552 136.093 92.4608 136.159C92.4542 136.225 92.4542 136.292 92.4608 136.358V142.585C92.4552 142.651 92.4552 142.718 92.4608 142.784C92.4542 142.85 92.4542 142.916 92.4608 142.982V149.209C92.43 149.271 92.4139 149.339 92.4139 149.408C92.4139 149.477 92.43 149.545 92.4608 149.607V155.834C92.43 155.895 92.4139 155.963 92.4139 156.032C92.4139 156.101 92.43 156.169 92.4608 156.231V162.458C92.43 162.52 92.4139 162.588 92.4139 162.657C92.4139 162.726 92.43 162.794 92.4608 162.855V169.082C92.4542 169.149 92.4542 169.215 92.4608 169.281C92.4552 169.347 92.4552 169.414 92.4608 169.48V175.707C92.4542 175.773 92.4542 175.839 92.4608 175.905C92.4552 175.972 92.4552 176.038 92.4608 176.104V182.32C92.4554 182.39 92.4554 182.46 92.4608 182.53C92.4552 182.596 92.4552 182.662 92.4608 182.728V188.944C92.4554 189.014 92.4554 189.084 92.4608 189.154C92.4552 189.22 92.4552 189.287 92.4608 189.353V195.568C92.4545 195.638 92.4545 195.709 92.4608 195.779C92.4552 195.845 92.4552 195.911 92.4608 195.977V202.193C92.4552 202.259 92.4552 202.325 92.4608 202.391C92.4545 202.461 92.4545 202.532 92.4608 202.602V208.817C92.4552 208.883 92.4552 208.95 92.4608 209.016C92.4545 209.086 92.4545 209.156 92.4608 209.226V215.441C92.4552 215.507 92.4552 215.574 92.4608 215.64C92.4554 215.71 92.4554 215.78 92.4608 215.85V221.867H89.5166C89.4349 221.577 89.2605 221.322 89.0199 221.14C88.7794 220.959 88.4861 220.861 88.1848 220.862C87.8844 220.865 87.5929 220.964 87.3531 221.145C87.1133 221.326 86.938 221.579 86.8529 221.867H83.8737C83.7916 221.579 83.6178 221.325 83.3785 221.144C83.1392 220.963 82.8475 220.866 82.5476 220.866C82.2477 220.866 81.956 220.963 81.7167 221.144C81.4774 221.325 81.3036 221.579 81.2216 221.867H80.2519V119.254H92.4608V122.794ZM47.9011 122.467V218.701H39.5126V122.467H47.9011ZM39.606 231.225H80.2519V223.047H92.4374V279.956H39.5827L39.606 231.225ZM100.943 259.873H95.9658V91.1672H100.919L100.943 259.873Z" fill="#00229A"/>
<path d="M171.416 201.001H128.609C121.614 201.001 115.944 206.671 115.944 213.665V214.764C115.944 221.758 121.614 227.428 128.609 227.428H171.416C178.41 227.428 184.08 221.758 184.08 214.764V213.665C184.08 206.671 178.41 201.001 171.416 201.001Z" fill="#D9DEEE"/>
<path d="M128.597 228.597H171.404C175.072 228.593 178.589 227.135 181.182 224.542C183.776 221.948 185.234 218.431 185.237 214.764V213.665C185.234 209.998 183.776 206.481 181.182 203.887C178.589 201.294 175.072 199.836 171.404 199.833H128.597C124.931 199.839 121.418 201.298 118.827 203.892C116.236 206.485 114.779 210 114.776 213.665V214.764C114.779 218.429 116.236 221.944 118.827 224.537C121.418 227.131 124.931 228.59 128.597 228.597ZM115.944 213.665C115.947 210.31 117.281 207.092 119.653 204.718C122.025 202.344 125.241 201.007 128.597 201.001H171.404C174.762 201.004 177.982 202.339 180.356 204.714C182.73 207.088 184.066 210.308 184.069 213.665V214.764C184.066 218.122 182.73 221.341 180.356 223.715C177.982 226.09 174.762 227.425 171.404 227.428H128.597C125.241 227.422 122.025 226.085 119.653 223.711C117.281 221.337 115.947 218.12 115.944 214.764V213.665Z" fill="#00229A"/>
<path d="M171.416 231.038H128.609C121.614 231.038 115.944 236.708 115.944 243.703V244.801C115.944 251.796 121.614 257.466 128.609 257.466H171.416C178.41 257.466 184.08 251.796 184.08 244.801V243.703C184.08 236.708 178.41 231.038 171.416 231.038Z" fill="#D9DEEE"/>
<path d="M128.597 258.634H171.404C175.072 258.631 178.589 257.172 181.182 254.579C183.776 251.985 185.234 248.469 185.237 244.801V243.703C185.234 240.035 183.776 236.518 181.182 233.925C178.589 231.331 175.072 229.873 171.404 229.87H128.597C124.931 229.876 121.418 231.336 118.827 233.929C116.236 236.522 114.779 240.037 114.776 243.703V244.801C114.779 248.467 116.236 251.982 118.827 254.575C121.418 257.168 124.931 258.628 128.597 258.634ZM115.944 243.703C115.947 240.347 117.281 237.129 119.653 234.755C122.025 232.381 125.241 231.044 128.597 231.038H171.404C174.762 231.041 177.982 232.377 180.356 234.751C182.73 237.125 184.066 240.345 184.069 243.703V244.801C184.066 248.159 182.73 251.378 180.356 253.753C177.982 256.127 174.762 257.462 171.404 257.466H128.597C125.241 257.459 122.025 256.123 119.653 253.749C117.281 251.375 115.947 248.157 115.944 244.801V243.703Z" fill="#00229A"/>
<path d="M171.416 170.963H128.609C121.614 170.963 115.944 176.634 115.944 183.628V184.726C115.944 191.721 121.614 197.391 128.609 197.391H171.416C178.41 197.391 184.08 191.721 184.08 184.726V183.628C184.08 176.634 178.41 170.963 171.416 170.963Z" fill="#D9DEEE"/>
<path d="M128.597 198.559H171.404C175.072 198.556 178.589 197.098 181.182 194.504C183.776 191.911 185.234 188.394 185.237 184.726V183.628C185.222 179.968 183.758 176.464 181.166 173.88C178.573 171.297 175.064 169.845 171.404 169.842H128.597C124.939 169.848 121.433 171.301 118.843 173.884C116.253 176.467 114.791 179.97 114.776 183.628V184.726C114.779 188.392 116.236 191.907 118.827 194.5C121.418 197.093 124.931 198.553 128.597 198.559ZM115.944 183.628C115.959 180.28 117.299 177.074 119.669 174.71C122.04 172.346 125.249 171.016 128.597 171.01H171.404C174.762 171.013 177.982 172.349 180.356 174.723C182.73 177.097 184.066 180.317 184.069 183.675V184.773C184.066 188.131 182.73 191.35 180.356 193.725C177.982 196.099 174.762 197.434 171.404 197.438H128.597C125.241 197.431 122.025 196.095 119.653 193.721C117.281 191.347 115.947 188.129 115.944 184.773V183.628Z" fill="#00229A"/>
<path d="M244.027 201.001H201.22C194.225 201.001 188.555 206.671 188.555 213.665V214.764C188.555 221.758 194.225 227.428 201.22 227.428H244.027C251.021 227.428 256.691 221.758 256.691 214.764V213.665C256.691 206.671 251.021 201.001 244.027 201.001Z" fill="#D9DEEE"/>
<path d="M201.22 228.597H244.027C247.693 228.59 251.206 227.131 253.797 224.537C256.388 221.944 257.845 218.429 257.848 214.764V213.665C257.845 210 256.388 206.485 253.797 203.892C251.206 201.298 247.693 199.839 244.027 199.833H201.22C197.552 199.836 194.035 201.294 191.442 203.887C188.848 206.481 187.39 209.998 187.387 213.665V214.764C187.39 218.431 188.848 221.948 191.442 224.542C194.035 227.135 197.552 228.593 201.22 228.597ZM188.555 213.665C188.558 210.308 189.893 207.088 192.268 204.714C194.642 202.339 197.862 201.004 201.22 201.001H244.027C247.383 201.007 250.599 202.344 252.971 204.718C255.343 207.092 256.677 210.31 256.68 213.665V214.764C256.677 218.12 255.343 221.337 252.971 223.711C250.599 226.085 247.383 227.422 244.027 227.428H201.22C197.862 227.425 194.642 226.09 192.268 223.715C189.893 221.341 188.558 218.122 188.555 214.764V213.665Z" fill="#00229A"/>
<path d="M244.027 231.038H201.22C194.225 231.038 188.555 236.708 188.555 243.703V244.801C188.555 251.796 194.225 257.466 201.22 257.466H244.027C251.021 257.466 256.691 251.796 256.691 244.801V243.703C256.691 236.708 251.021 231.038 244.027 231.038Z" fill="#D9DEEE"/>
<path d="M201.22 258.634H244.027C247.693 258.628 251.206 257.168 253.797 254.575C256.388 251.982 257.845 248.467 257.848 244.801V243.703C257.845 240.037 256.388 236.522 253.797 233.929C251.206 231.336 247.693 229.876 244.027 229.87H201.22C197.552 229.873 194.035 231.331 191.442 233.925C188.848 236.518 187.39 240.035 187.387 243.703V244.801C187.39 248.469 188.848 251.985 191.442 254.579C194.035 257.172 197.552 258.631 201.22 258.634ZM188.555 243.703C188.558 240.345 189.893 237.125 192.268 234.751C194.642 232.377 197.862 231.041 201.22 231.038H244.027C247.383 231.044 250.599 232.381 252.971 234.755C255.343 237.129 256.677 240.347 256.68 243.703V244.801C256.677 248.157 255.343 251.375 252.971 253.749C250.599 256.123 247.383 257.459 244.027 257.466H201.22C197.862 257.462 194.642 256.127 192.268 253.753C189.893 251.378 188.558 248.159 188.555 244.801V243.703Z" fill="#00229A"/>
<path d="M244.027 170.963H201.22C194.225 170.963 188.555 176.634 188.555 183.628V184.726C188.555 191.721 194.225 197.391 201.22 197.391H244.027C251.021 197.391 256.691 191.721 256.691 184.726V183.628C256.691 176.634 251.021 170.963 244.027 170.963Z" fill="#D9DEEE"/>
<path d="M201.22 198.559H244.027C247.693 198.553 251.206 197.093 253.797 194.5C256.388 191.907 257.845 188.392 257.848 184.726V183.628C257.833 179.97 256.37 176.467 253.781 173.884C251.191 171.301 247.685 169.848 244.027 169.842H201.22C197.552 169.845 194.035 171.303 191.442 173.897C188.848 176.49 187.39 180.007 187.387 183.675V184.773C187.402 188.433 188.866 191.937 191.458 194.521C194.05 197.104 197.56 198.556 201.22 198.559ZM188.555 183.628C188.57 180.278 189.911 177.071 192.284 174.706C194.657 172.342 197.87 171.013 201.22 171.01H244.027C247.375 171.016 250.584 172.346 252.955 174.71C255.325 177.074 256.664 180.28 256.68 183.628V184.726C256.677 188.082 255.343 191.3 252.971 193.674C250.599 196.048 247.383 197.385 244.027 197.391H201.22C197.862 197.388 194.642 196.052 192.268 193.678C189.893 191.304 188.558 188.084 188.555 184.726V183.628Z" fill="#00229A"/>
<path d="M171.416 140.926H128.609C121.614 140.926 115.944 146.596 115.944 153.591V154.689C115.944 161.683 121.614 167.353 128.609 167.353H171.416C178.41 167.353 184.08 161.683 184.08 154.689V153.591C184.08 146.596 178.41 140.926 171.416 140.926Z" fill="#D9DEEE"/>
<path d="M128.597 168.522H171.404C173.223 168.52 175.024 168.16 176.704 167.462C178.384 166.764 179.91 165.742 181.194 164.454C182.479 163.166 183.497 161.638 184.191 159.956C184.885 158.275 185.24 156.473 185.237 154.654V153.556C185.234 149.888 183.776 146.371 181.182 143.778C178.589 141.184 175.072 139.726 171.404 139.723H128.597C126.779 139.726 124.979 140.087 123.301 140.785C121.622 141.484 120.098 142.506 118.814 143.794C117.531 145.082 116.514 146.61 115.821 148.291C115.128 149.972 114.773 151.773 114.776 153.591V154.654C114.773 156.472 115.128 158.273 115.821 159.954C116.514 161.635 117.531 163.162 118.814 164.45C120.098 165.738 121.622 166.76 123.301 167.459C124.979 168.158 126.779 168.519 128.597 168.522ZM115.944 153.591C115.947 150.235 117.281 147.017 119.653 144.643C122.025 142.269 125.241 140.932 128.597 140.926H171.404C174.762 140.929 177.982 142.264 180.356 144.639C182.73 147.013 184.066 150.233 184.069 153.591V154.654C184.066 158.012 182.73 161.231 180.356 163.606C177.982 165.98 174.762 167.315 171.404 167.318H128.597C125.241 167.312 122.025 165.976 119.653 163.601C117.281 161.227 115.947 158.01 115.944 154.654V153.591Z" fill="#00229A"/>
<path d="M171.416 110.889H128.609C121.614 110.889 115.944 116.559 115.944 123.553V124.651C115.944 131.646 121.614 137.316 128.609 137.316H171.416C178.41 137.316 184.08 131.646 184.08 124.651V123.553C184.08 116.559 178.41 110.889 171.416 110.889Z" fill="#D9DEEE"/>
<path d="M128.597 138.484H171.404C175.072 138.481 178.589 137.023 181.182 134.429C183.776 131.836 185.234 128.319 185.237 124.651V123.553C185.234 119.885 183.776 116.369 181.182 113.775C178.589 111.182 175.072 109.723 171.404 109.72H128.597C124.931 109.726 121.418 111.186 118.827 113.779C116.236 116.372 114.779 119.887 114.776 123.553V124.651C114.779 128.317 116.236 131.832 118.827 134.425C121.418 137.018 124.931 138.478 128.597 138.484ZM115.944 123.553C115.947 120.197 117.281 116.98 119.653 114.605C122.025 112.231 125.241 110.895 128.597 110.889H171.404C174.762 110.892 177.982 112.227 180.356 114.601C182.73 116.976 184.066 120.195 184.069 123.553V124.651C184.066 128.009 182.73 131.229 180.356 133.603C177.982 135.978 174.762 137.313 171.404 137.316H128.597C125.241 137.31 122.025 135.973 119.653 133.599C117.281 131.225 115.947 128.007 115.944 124.651V123.553Z" fill="#00229A"/>
<path d="M171.416 80.886H128.609C121.614 80.886 115.944 86.5561 115.944 93.5506V94.6488C115.944 101.643 121.614 107.313 128.609 107.313H171.416C178.41 107.313 184.08 101.643 184.08 94.6488V93.5506C184.08 86.5561 178.41 80.886 171.416 80.886Z" fill="#D9DEEE"/>
<path d="M128.597 108.482H171.404C175.072 108.479 178.589 107.02 181.182 104.427C183.776 101.833 185.234 98.3167 185.237 94.6489V93.5507C185.234 89.8829 183.776 86.3663 181.182 83.7728C178.589 81.1793 175.072 79.7209 171.404 79.7178H128.597C124.931 79.724 121.418 81.1837 118.827 83.7769C116.236 86.37 114.779 89.8849 114.776 93.5507V94.6489C114.779 98.3146 116.236 101.83 118.827 104.423C121.418 107.016 124.931 108.476 128.597 108.482ZM115.944 93.5507C115.947 90.1948 117.281 86.9771 119.653 84.603C122.025 82.2289 125.241 80.8923 128.597 80.8861H171.404C174.762 80.8892 177.982 82.2245 180.356 84.5989C182.73 86.9733 184.066 90.1928 184.069 93.5507V94.6489C184.066 98.0068 182.73 101.226 180.356 103.601C177.982 105.975 174.762 107.31 171.404 107.313H128.597C125.241 107.307 122.025 105.971 119.653 103.597C117.281 101.223 115.947 98.0048 115.944 94.6489V93.5507Z" fill="#00229A"/>
<path d="M244.027 140.926H201.22C194.225 140.926 188.555 146.596 188.555 153.591V154.689C188.555 161.683 194.225 167.353 201.22 167.353H244.027C251.021 167.353 256.691 161.683 256.691 154.689V153.591C256.691 146.596 251.021 140.926 244.027 140.926Z" fill="#D9DEEE"/>
<path d="M201.22 168.522H244.027C245.845 168.519 247.645 168.158 249.323 167.459C251.002 166.76 252.526 165.738 253.81 164.45C255.093 163.162 256.11 161.635 256.803 159.954C257.496 158.273 257.851 156.472 257.848 154.654V153.556C257.845 149.89 256.388 146.375 253.797 143.782C251.206 141.189 247.693 139.729 244.027 139.723H201.22C197.552 139.726 194.035 141.184 191.442 143.778C188.848 146.371 187.39 149.888 187.387 153.556V154.654C187.384 156.473 187.739 158.275 188.433 159.956C189.126 161.638 190.145 163.166 191.429 164.454C192.714 165.742 194.24 166.764 195.92 167.462C197.6 168.16 199.401 168.52 201.22 168.522ZM188.555 153.591C188.558 150.233 189.893 147.013 192.268 144.639C194.642 142.264 197.862 140.929 201.22 140.926H244.027C247.383 140.932 250.599 142.269 252.971 144.643C255.343 147.017 256.677 150.235 256.68 153.591V154.654C256.677 158.01 255.343 161.227 252.971 163.601C250.599 165.976 247.383 167.312 244.027 167.318H201.22C197.862 167.315 194.642 165.98 192.268 163.606C189.893 161.231 188.558 158.012 188.555 154.654V153.591Z" fill="#00229A"/>
</svg>
