<svg width="156" height="346" viewBox="0 0 156 346" fill="none" xmlns="http://www.w3.org/2000/svg">
<path d="M75.8412 82.4689H41.2455C25.0823 108.548 14.5283 151.444 14.5283 199.926C14.5283 279.432 59.3277 343.886 77.871 343.886C96.4144 343.886 141.213 279.432 141.213 199.926C141.213 151.444 130.659 108.548 114.496 82.4689H85.86" stroke="#00229A" stroke-width="2" stroke-miterlimit="10"/>
<path d="M75.8967 28.0867H41.3193V82.4688H75.8967" stroke="#00229A" stroke-width="2" stroke-miterlimit="10"/>
<path d="M80.1035 82.4688H114.681V28.0867H80.86" stroke="#00229A" stroke-width="2" stroke-miterlimit="10"/>
<path d="M41.3193 28.0867L2 3L19.8791 142.346" stroke="#00229A" stroke-width="2" stroke-miterlimit="10"/>
<path d="M114.681 28.0867L154 3L136.121 142.346" stroke="#00229A" stroke-width="2" stroke-miterlimit="10"/>
<path d="M14.6021 199.926H141.269" stroke="#00229A" stroke-width="2" stroke-miterlimit="10"/>
<path d="M14.6021 189.12H141.269" stroke="#00229A" stroke-width="2" stroke-miterlimit="10"/>
<path d="M80.1033 3H75.8965V142.346H80.1033V3Z" stroke="#00229A" stroke-width="2" stroke-miterlimit="10"/>
<path d="M53.2388 324.165H101.599" stroke="#00229A" stroke-width="2" stroke-miterlimit="10"/>
</svg>
